<?xml version="1.0" encoding="utf-8"?>
<!DOCTYPE svg PUBLIC "-//W3C//DTD SVG 1.1//EN" "http://www.w3.org/Graphics/SVG/1.1/DTD/svg11.dtd">
<svg version="1.1" xmlns="http://www.w3.org/2000/svg" xmlns:xlink="http://www.w3.org/1999/xlink" width="47" height="32" viewBox="0 0 47 32">
<path d="M20.587 3.746c-0.407 0.407-0.453 0.758-0.407 2.969 0.046 2.534-0.093 2.442 3.496 2.442s3.45 0.092 3.496-2.442c0.046-2.21 0-2.562-0.407-2.969l-0.324-0.324h-5.531l-0.324 0.324z" fill="#000000"></path>
<path d="M18.876 12.55c-0.129 0.028-0.324 0.111-0.444 0.185-0.425 0.277-0.49 0.555-0.49 2.127 0 1.304 0.018 1.498 0.185 1.766 0.24 0.398 0.684 0.573 1.434 0.573h0.601v6.751h-0.601c-0.749 0-1.193 0.176-1.434 0.573-0.166 0.268-0.185 0.462-0.185 1.766 0 1.609 0.055 1.84 0.555 2.136 0.231 0.129 0.795 0.148 5.179 0.148s4.948-0.018 5.179-0.148c0.499-0.296 0.555-0.527 0.555-2.136 0-1.304-0.018-1.498-0.185-1.766-0.24-0.398-0.684-0.573-1.424-0.573h-0.601l-0.028-5.299c-0.028-4.939-0.037-5.309-0.194-5.54-0.407-0.592-0.305-0.583-4.273-0.592-1.979-0.009-3.709 0-3.829 0.028z" fill="#000000"></path>
</svg>
