<?xml version="1.0" encoding="utf-8"?>
<!DOCTYPE svg PUBLIC "-//W3C//DTD SVG 1.1//EN" "http://www.w3.org/Graphics/SVG/1.1/DTD/svg11.dtd">
<svg version="1.1" xmlns="http://www.w3.org/2000/svg" xmlns:xlink="http://www.w3.org/1999/xlink" width="47" height="32" viewBox="0 0 47 32">
<path d="M11.672 2.58c-0.555 0.194-1.054 0.62-1.341 1.165-0.203 0.361-0.203 0.435-0.203 4.809 0 4.985-0.018 4.809 0.712 6.289 0.361 0.721 0.536 0.906 7.177 7.565 7.454 7.464 7.094 7.149 8.203 7.131 0.425 0 0.675-0.065 1.027-0.259 0.638-0.342 9.554-9.276 9.794-9.813 0.222-0.481 0.231-1.36 0.028-1.896-0.139-0.351-1.313-1.563-6.983-7.232-6.335-6.317-6.872-6.835-7.473-7.131-1.563-0.777-1.332-0.749-6.15-0.777-4.005-0.028-4.338-0.018-4.791 0.148zM16.832 6.197c1.369 0.684 1.665 2.469 0.592 3.551-0.879 0.869-2.247 0.869-3.126 0-0.435-0.444-0.638-0.943-0.638-1.563-0.009-1.628 1.729-2.71 3.172-1.988z" fill="#000000"></path>
</svg>
