<?xml version="1.0" encoding="utf-8"?>
<!DOCTYPE svg PUBLIC "-//W3C//DTD SVG 1.1//EN" "http://www.w3.org/Graphics/SVG/1.1/DTD/svg11.dtd">
<svg version="1.1" xmlns="http://www.w3.org/2000/svg" xmlns:xlink="http://www.w3.org/1999/xlink" width="47" height="32" viewBox="0 0 47 32">
<path d="M8.462 2.488c-0.647 0.166-1.239 0.657-1.582 1.304-0.166 0.296-0.176 0.638-0.203 4.569-0.028 4.781-0.009 4.948 0.684 6.409 0.342 0.703 0.481 0.851 7.195 7.593 7.501 7.51 7.131 7.195 8.24 7.177 0.425 0 0.675-0.065 1.027-0.259 0.647-0.351 9.452-9.175 9.748-9.766 0.287-0.564 0.296-1.452 0.028-2.035-0.148-0.314-1.803-2.025-6.973-7.177-7.38-7.353-7.038-7.047-8.684-7.63-0.592-0.213-0.675-0.213-4.902-0.231-2.368-0.018-4.421 0.009-4.578 0.046zM13.41 6.206c0.176 0.083 0.453 0.296 0.62 0.472 1.332 1.387 0.333 3.709-1.591 3.709-1.97 0-2.95-2.368-1.563-3.764 0.675-0.675 1.702-0.842 2.534-0.416z" fill="#000000"></path>
<path d="M20.014 2.59c0.444 0.092 1.193 0.351 1.665 0.564l0.842 0.398 6.835 6.798c5.142 5.124 6.872 6.909 7.010 7.214 0.259 0.555 0.25 1.341-0.019 1.868-0.139 0.277-1.581 1.794-4.523 4.735l-4.31 4.338 0.462 0.407c0.25 0.222 0.601 0.453 0.786 0.518 0.481 0.166 1.369 0.139 1.803-0.065 0.25-0.111 1.859-1.655 5.105-4.893 4.698-4.698 4.735-4.726 4.883-5.272 0.185-0.647 0.139-1.267-0.129-1.785-0.102-0.203-3.024-3.191-6.964-7.121-6.289-6.271-6.825-6.788-7.427-7.084-1.443-0.712-1.572-0.74-4.347-0.768l-2.497-0.028 0.823 0.176z" fill="#000000"></path>
</svg>
