<?xml version="1.0" encoding="utf-8"?>
<!DOCTYPE svg PUBLIC "-//W3C//DTD SVG 1.1//EN" "http://www.w3.org/Graphics/SVG/1.1/DTD/svg11.dtd">
<svg version="1.1" xmlns="http://www.w3.org/2000/svg" xmlns:xlink="http://www.w3.org/1999/xlink" width="47" height="32" viewBox="0 0 47 32">
<path d="M20.023 3.746c-0.314 0.324-0.324 0.342-0.324 1.091 0 0.416 0.102 3.653 0.24 7.186 0.25 7.010 0.231 6.835 0.805 7.251 0.25 0.185 0.379 0.194 2.932 0.194s2.682-0.009 2.932-0.194c0.573-0.416 0.555-0.24 0.805-7.251 0.139-3.533 0.24-6.77 0.24-7.186 0-0.749-0.009-0.768-0.324-1.091l-0.333-0.324h-6.64l-0.333 0.324z" fill="#000000"></path>
<path d="M21.151 22.261c-0.379 0.065-0.86 0.583-0.925 1.008-0.037 0.203-0.065 1.175-0.065 2.164 0 2.229 0.037 2.432 0.435 2.83l0.314 0.314h5.531l0.324-0.324c0.407-0.407 0.453-0.721 0.407-3.237-0.028-2.118-0.055-2.229-0.61-2.608-0.222-0.148-0.499-0.166-2.701-0.176-1.35-0.009-2.571 0-2.71 0.028z" fill="#000000"></path>
</svg>
