<?xml version="1.0" encoding="utf-8"?>
<!DOCTYPE svg PUBLIC "-//W3C//DTD SVG 1.1//EN" "http://www.w3.org/Graphics/SVG/1.1/DTD/svg11.dtd">
<svg version="1.1" xmlns="http://www.w3.org/2000/svg" xmlns:xlink="http://www.w3.org/1999/xlink" width="47" height="32" viewBox="0 0 47 32">
<path d="M18.377 1.175c-0.148 0.148-0.028 0.49 0.536 1.517 0.333 0.601 0.601 1.11 0.601 1.138 0 0.018-0.231 0.176-0.509 0.333-0.712 0.407-1.905 1.554-2.414 2.331-0.712 1.073-1.054 2.044-1.202 3.468l-0.065 0.583h16.675l-0.055-0.583c-0.213-2.377-1.544-4.532-3.542-5.753-0.314-0.185-0.564-0.361-0.564-0.379 0-0.028 0.277-0.546 0.61-1.156 0.629-1.147 0.712-1.489 0.342-1.544-0.166-0.028-0.296 0.157-0.879 1.202l-0.675 1.239-0.462-0.176c-0.823-0.314-2.072-0.527-3.098-0.527s-2.275 0.213-3.098 0.527l-0.462 0.176-0.675-1.23c-0.647-1.175-0.842-1.387-1.064-1.165zM20.393 6.409c0.194 0.277 0.176 0.583-0.046 0.805-0.379 0.379-1.036 0.12-1.036-0.416 0-0.592 0.749-0.86 1.082-0.388zM27.894 6.391c0.342 0.379 0.065 1.008-0.444 1.008-0.305 0-0.629-0.287-0.629-0.564 0-0.62 0.666-0.897 1.073-0.444z" fill="#000000"></path>
<path d="M12.162 10.904c-0.435 0.203-0.823 0.592-0.962 0.962-0.065 0.176-0.102 1.757-0.102 4.587v4.328l0.213 0.407c0.314 0.601 0.897 0.934 1.619 0.925 0.314 0 0.684-0.065 0.832-0.139 0.407-0.213 0.842-0.703 0.943-1.064 0.056-0.194 0.092-2.053 0.092-4.541 0-3.894-0.018-4.236-0.176-4.578-0.425-0.925-1.526-1.323-2.46-0.888z" fill="#000000"></path>
<path d="M33.618 10.904c-0.444 0.203-0.731 0.499-0.925 0.953-0.12 0.296-0.139 0.962-0.139 4.495 0 2.284 0.028 4.291 0.056 4.449 0.083 0.388 0.712 1.082 1.11 1.212 0.925 0.305 1.905-0.037 2.321-0.823l0.213-0.407v-4.328c0-2.83-0.037-4.412-0.102-4.587-0.342-0.916-1.6-1.397-2.534-0.962z" fill="#000000"></path>
<path d="M15.445 17.276v6.178l0.231 0.472c0.148 0.296 0.379 0.573 0.62 0.731 0.351 0.25 0.462 0.268 1.369 0.296l0.99 0.037 0.055 1.443c0.037 0.805 0.065 1.813 0.065 2.257 0 0.897 0.083 1.202 0.444 1.591 0.934 0.999 2.599 0.721 3.117-0.518 0.111-0.277 0.139-0.768 0.139-2.571v-2.22h2.405v2.238c0 1.979 0.028 2.294 0.176 2.617 0.731 1.619 3.191 1.304 3.533-0.444 0.037-0.213 0.074-1.286 0.083-2.395v-1.998l0.999-0.037c0.934-0.028 1.036-0.046 1.387-0.296 0.24-0.157 0.472-0.435 0.62-0.731l0.231-0.472v-12.356h-16.462v6.178z" fill="#000000"></path>
</svg>
