<?xml version="1.0" encoding="utf-8"?>
<!DOCTYPE svg PUBLIC "-//W3C//DTD SVG 1.1//EN" "http://www.w3.org/Graphics/SVG/1.1/DTD/svg11.dtd">
<svg version="1.1" xmlns="http://www.w3.org/2000/svg" xmlns:xlink="http://www.w3.org/1999/xlink" width="47" height="32" viewBox="0 0 47 32">
<path d="M22.705 1.332c-0.555 0.259-0.897 0.61-1.147 1.165-0.185 0.407-0.194 0.573-0.194 6.659 0 5.928 0.009 6.261 0.176 6.631 0.361 0.795 1.304 1.415 2.136 1.415s1.776-0.62 2.136-1.415c0.166-0.37 0.176-0.703 0.176-6.631v-6.243l-0.222-0.462c-0.555-1.175-1.905-1.665-3.061-1.119z" fill="#000000"></path>
<path d="M16.25 5.78c-0.499 0.129-0.731 0.268-1.674 1.054-2.146 1.794-3.829 4.726-4.412 7.676-0.222 1.165-0.277 3.524-0.092 4.68 0.435 2.793 1.766 5.475 3.699 7.482 5.438 5.623 14.372 5.623 19.81 0 1.933-2.007 3.265-4.689 3.699-7.482 0.185-1.156 0.129-3.514-0.093-4.68-0.583-2.978-2.266-5.882-4.449-7.704-1.11-0.925-1.443-1.091-2.192-1.082-1.434 0.009-2.442 1.101-2.312 2.516 0.065 0.749 0.351 1.184 1.276 1.97 1.397 1.193 2.497 2.923 2.969 4.68 0.185 0.675 0.213 0.999 0.203 2.312 0 1.378-0.028 1.6-0.25 2.321-0.342 1.119-0.638 1.748-1.23 2.654-3.154 4.735-9.85 5.41-13.891 1.415-1.119-1.11-1.896-2.423-2.395-4.069-0.222-0.721-0.25-0.943-0.25-2.321-0.009-1.313 0.018-1.637 0.203-2.312 0.472-1.757 1.572-3.487 2.969-4.68 0.925-0.786 1.212-1.221 1.276-1.97 0.065-0.647-0.074-1.119-0.472-1.646-0.527-0.703-1.508-1.036-2.395-0.814z" fill="#000000"></path>
</svg>
