<?xml version="1.0" encoding="utf-8"?>
<!-- Generated by IcoMoon.io -->
<!DOCTYPE svg PUBLIC "-//W3C//DTD SVG 1.1//EN" "http://www.w3.org/Graphics/SVG/1.1/DTD/svg11.dtd">
<svg version="1.1" xmlns="http://www.w3.org/2000/svg" xmlns:xlink="http://www.w3.org/1999/xlink" width="476" height="500" viewBox="0 0 476 500">
<path fill="#000000" d="M42.857 426.352c0-5.618 10.002-7.246 51.19-8.333l51.19-1.352 34.171-168.265c18.794-92.545 35.334-171.295 36.755-175 2.901-7.562 52.803-9.809 57.271-2.579 1.413 2.286 13.215 55.322 26.228 117.857s29.538 139.951 36.722 172.034l13.063 58.333h51.466c42.573 0 51.466 1.234 51.466 7.143 0 6.238-25.926 7.143-204.762 7.143-176.736 0-204.762-0.956-204.762-6.982zM311.59 310.714c-1.804-12.44-4.204-24.226-5.334-26.19s-27.568-3.571-58.75-3.571c-62.919 0-62.228-0.348-68.523 34.524l-3.224 17.857h139.11l-3.279-22.619zM290.476 210.119c0-4.911-1.355-15.707-3.013-23.992l-3.013-15.063-77.171 2.746-3.127 19.048c-1.72 10.476-2.16 20.655-0.978 22.619s21.308 3.571 44.725 3.571c38.456 0 42.576-0.864 42.576-8.929zM269.146 101.227c-4.509-24.037-5.451-25.036-23.593-25.036-13.875 0-16.151 1.804-18.767 14.881-5.425 27.125-4.775 27.976 21.363 27.976h24.339l-3.343-17.821z"></path>
</svg>
