<?xml version="1.0" encoding="utf-8"?>
<!DOCTYPE svg PUBLIC "-//W3C//DTD SVG 1.1//EN" "http://www.w3.org/Graphics/SVG/1.1/DTD/svg11.dtd">
<svg version="1.1" xmlns="http://www.w3.org/2000/svg" xmlns:xlink="http://www.w3.org/1999/xlink" width="47" height="32" viewBox="0 0 47 32">
<path d="M17.165 3.746c-0.398 0.398-0.462 0.749-0.407 2.34 0.037 1.313 0.129 1.554 0.675 1.813 0.277 0.129 1.415 0.148 10.821 0.148 11.598 0 10.913 0.037 11.283-0.583 0.148-0.231 0.185-0.518 0.213-1.341 0.056-1.554-0.019-1.998-0.407-2.377l-0.324-0.324h-21.531l-0.324 0.324z" fill="#000000"></path>
<path d="M10.442 10.479c-0.472 0.314-0.564 0.703-0.527 2.284 0.018 1.128 0.056 1.378 0.203 1.6 0.379 0.564-0.592 0.527 14.668 0.527 15.316 0 14.335 0.037 14.751-0.536 0.166-0.222 0.185-0.398 0.185-1.739 0-1.646-0.056-1.85-0.564-2.164-0.287-0.185-0.536-0.185-14.345-0.185h-14.058l-0.314 0.213z" fill="#000000"></path>
<path d="M15.112 17.258c-0.527 0.259-0.592 0.499-0.592 2.164 0 1.637 0.056 1.868 0.555 2.164 0.24 0.139 1.304 0.148 12.023 0.148 11.542 0 11.773 0 12.060-0.185 0.509-0.314 0.564-0.518 0.564-2.164 0-1.341-0.019-1.517-0.185-1.739-0.416-0.573 0.342-0.536-12.458-0.536-10.21 0-11.718 0.018-11.968 0.148z" fill="#000000"></path>
<path d="M8.268 24.102c-0.49 0.24-0.629 0.601-0.666 1.776-0.056 1.554 0.019 1.998 0.407 2.377l0.324 0.324h30.687l0.324-0.324c0.388-0.379 0.462-0.823 0.407-2.377-0.028-0.823-0.065-1.11-0.213-1.341-0.37-0.629 0.795-0.583-15.88-0.583-13.262 0-15.14 0.018-15.39 0.148z" fill="#000000"></path>
</svg>
