<?xml version="1.0" encoding="utf-8"?>
<!DOCTYPE svg PUBLIC "-//W3C//DTD SVG 1.1//EN" "http://www.w3.org/Graphics/SVG/1.1/DTD/svg11.dtd">
<svg version="1.1" xmlns="http://www.w3.org/2000/svg" xmlns:xlink="http://www.w3.org/1999/xlink" width="47" height="32" viewBox="0 0 47 32">
<path d="M21.050 2.312c-0.379 0.12-0.684 0.444-0.795 0.823-0.055 0.194-0.093 1.951-0.093 4.282v3.958h-2.368c-1.998 0-2.414 0.028-2.682 0.148-0.407 0.194-0.592 0.546-0.592 1.119v0.435l4.19 4.199c2.294 2.303 4.291 4.254 4.43 4.328 0.314 0.166 0.758 0.166 1.073 0 0.139-0.074 2.136-2.025 4.439-4.328l4.18-4.199v-0.425c0-0.527-0.12-0.805-0.444-1.045-0.231-0.176-0.416-0.185-2.719-0.213l-2.469-0.028-0.028-4.134c-0.028-3.773-0.046-4.162-0.194-4.393-0.37-0.564-0.425-0.573-3.163-0.592-1.369-0.009-2.617 0.018-2.765 0.065z" fill="#000000"></path>
<path d="M9.729 20.726c-0.24 0.12-0.509 0.361-0.647 0.573l-0.25 0.379v6.955l0.231 0.342c0.12 0.185 0.398 0.425 0.601 0.546l0.37 0.213h27.283l0.37-0.213c0.203-0.12 0.481-0.361 0.601-0.546l0.231-0.342v-6.955l-0.25-0.379c-0.148-0.222-0.407-0.453-0.647-0.573-0.398-0.185-0.518-0.194-4.745-0.194h-4.328l-1.424 1.397c-1.766 1.729-2.21 1.979-3.45 1.979-0.684 0-0.86-0.037-1.397-0.287-0.499-0.24-0.823-0.518-1.979-1.692l-1.378-1.397h-4.393c-4.319 0-4.412 0-4.8 0.194zM31.26 25.544c0.546 0.546 0.416 1.304-0.296 1.683-0.287 0.166-0.379 0.166-0.703 0.074-0.758-0.231-1.027-1.073-0.518-1.674 0.425-0.509 1.054-0.546 1.517-0.083zM35.912 25.619c0.74 0.823-0.24 2.099-1.249 1.628-0.564-0.268-0.777-0.888-0.499-1.434 0.361-0.694 1.202-0.786 1.748-0.194z" fill="#000000"></path>
</svg>
