<?xml version="1.0" encoding="utf-8"?>
<!DOCTYPE svg PUBLIC "-//W3C//DTD SVG 1.1//EN" "http://www.w3.org/Graphics/SVG/1.1/DTD/svg11.dtd">
<svg version="1.1" xmlns="http://www.w3.org/2000/svg" xmlns:xlink="http://www.w3.org/1999/xlink" width="47" height="32" viewBox="0 0 47 32">
<path d="M18.331 4.652c-0.481 0.148-1.184 0.832-1.378 1.341-0.157 0.407-0.166 0.971-0.166 10.007s0.009 9.6 0.166 10.007c0.203 0.536 0.906 1.193 1.434 1.35 0.518 0.157 10.062 0.157 10.58 0 0.527-0.157 1.23-0.814 1.434-1.35 0.157-0.407 0.166-0.971 0.166-10.007s-0.009-9.6-0.166-10.007c-0.203-0.536-0.906-1.193-1.434-1.35-0.481-0.148-10.183-0.139-10.636 0.009zM25.313 7.084c0.102 0.259-0.176 0.314-1.637 0.314s-1.739-0.056-1.637-0.314c0.055-0.129 0.277-0.148 1.637-0.148s1.581 0.019 1.637 0.148zM28.421 9.258c0.111 0.065 0.231 0.157 0.268 0.213 0.093 0.129 0.093 12.929 0 13.059-0.194 0.296-0.481 0.314-5.013 0.314s-4.819-0.018-5.013-0.314c-0.037-0.055-0.074-2.997-0.074-6.529s0.037-6.474 0.074-6.529c0.194-0.296 0.462-0.305 4.994-0.314 3.265 0 4.624 0.028 4.763 0.102zM24.333 23.972c1.212 0.675 0.731 2.525-0.657 2.525-1.008 0-1.655-1.017-1.212-1.914 0.361-0.749 1.165-1.008 1.868-0.61z" fill="#000000"></path>
</svg>
