<?xml version="1.0" encoding="utf-8"?>
<!DOCTYPE svg PUBLIC "-//W3C//DTD SVG 1.1//EN" "http://www.w3.org/Graphics/SVG/1.1/DTD/svg11.dtd">
<svg version="1.1" xmlns="http://www.w3.org/2000/svg" xmlns:xlink="http://www.w3.org/1999/xlink" width="47" height="32" viewBox="0 0 47 32">
<path d="M30.807 1.859c-0.12 0.046-0.277 0.157-0.351 0.25-0.074 0.083-1.064 2.035-2.192 4.328-1.914 3.875-2.090 4.18-2.331 4.236-0.148 0.028-2.164 0.324-4.476 0.657s-4.356 0.647-4.541 0.694c-0.657 0.176-0.879 0.74-0.527 1.313 0.12 0.185 1.683 1.757 3.477 3.496 1.785 1.739 3.256 3.191 3.256 3.228 0 0.028-0.351 2.109-0.786 4.624-0.906 5.299-0.906 5.336-0.093 5.503 0.388 0.074 0.666-0.055 5.087-2.386l3.838-2.025v-12.014c0-6.603-0.028-12.005-0.065-11.995-0.046 0-0.176 0.046-0.296 0.093z" fill="#000000"></path>
</svg>
