<?xml version="1.0" encoding="utf-8"?>
<!DOCTYPE svg PUBLIC "-//W3C//DTD SVG 1.1//EN" "http://www.w3.org/Graphics/SVG/1.1/DTD/svg11.dtd">
<svg version="1.1" xmlns="http://www.w3.org/2000/svg" xmlns:xlink="http://www.w3.org/1999/xlink" width="47" height="32" viewBox="0 0 47 32">
<path d="M19.034 3.588c-0.481 0.287-0.536 0.564-0.536 2.543v1.803l-1.729 0.037c-2.395 0.037-2.257-0.028-4.809 2.506-1.665 1.646-2.025 2.053-2.275 2.562l-0.296 0.601-0.092 8.046-0.213 0.028c-0.12 0.018-0.351 0.176-0.527 0.351-0.296 0.287-0.324 0.37-0.324 0.832 0 0.453 0.037 0.546 0.277 0.777 0.342 0.324 0.601 0.37 1.998 0.37h1.147v0.305c0 0.943 0.527 2.072 1.341 2.886 0.943 0.943 1.896 1.341 3.218 1.341 1.332 0 2.321-0.388 3.237-1.276 0.777-0.758 1.239-1.674 1.35-2.701l0.055-0.509 3.403-0.028 3.394-0.018v0.305c0 0.453 0.25 1.332 0.536 1.859 0.314 0.583 1.258 1.554 1.785 1.822 0.805 0.407 1.378 0.546 2.238 0.546 1.387 0 2.451-0.444 3.357-1.406 0.758-0.805 1.119-1.554 1.23-2.571l0.056-0.509 0.786-0.055c0.814-0.055 1.212-0.213 1.387-0.555 0.056-0.102 0.093-3.792 0.093-9.702 0-10.506 0.037-9.859-0.555-10.21-0.24-0.139-1.128-0.148-9.776-0.148-8.786 0.009-9.526 0.018-9.757 0.166zM18.497 12.578v2.22h-6.751v-0.342c0-0.333 0.102-0.453 1.868-2.22l1.877-1.877h3.006v2.22zM17.202 22.012c1.397 0.721 1.674 2.506 0.536 3.57-0.462 0.444-0.888 0.62-1.461 0.62-1.258 0-2.229-0.962-2.229-2.192 0-1.646 1.72-2.728 3.154-1.998zM33.212 22.012c0.777 0.398 1.239 1.138 1.239 1.988 0 2.007-2.516 2.978-3.829 1.48-0.416-0.472-0.573-0.897-0.573-1.48 0-1.628 1.72-2.71 3.163-1.988z" fill="#000000"></path>
</svg>
