<?xml version="1.0" encoding="utf-8"?>
<!DOCTYPE svg PUBLIC "-//W3C//DTD SVG 1.1//EN" "http://www.w3.org/Graphics/SVG/1.1/DTD/svg11.dtd">
<svg version="1.1" xmlns="http://www.w3.org/2000/svg" xmlns:xlink="http://www.w3.org/1999/xlink" width="47" height="32" viewBox="0 0 47 32">
<path d="M14.705 0.065c0 0.037 0.361 1.11 0.795 2.386 0.435 1.267 0.934 2.849 1.11 3.514l0.314 1.202v4.856h1.85v-2.432l0.009-2.423 2.183-7.177-1.951 0.056-0.573 2.22-0.564 2.22-0.12-0.416c-0.055-0.231-0.333-1.23-0.601-2.22l-0.49-1.803-0.98-0.028c-0.536-0.009-0.98 0.009-0.98 0.046z" fill="#000000"></path>
<path d="M22.779 2.96c-0.536 0.111-0.869 0.305-1.249 0.721-0.555 0.62-0.583 0.777-0.583 3.857v2.775l0.24 0.518c0.398 0.842 1.138 1.286 2.136 1.286 1.138 0 1.961-0.62 2.247-1.702 0.129-0.472 0.148-0.971 0.12-3.154-0.028-2.247-0.055-2.636-0.194-2.96-0.453-1.008-1.581-1.563-2.719-1.341zM23.723 4.661c0.296 0.296 0.342 0.814 0.305 3.265-0.028 1.914-0.037 2.062-0.222 2.312-0.268 0.361-0.731 0.361-0.999 0-0.185-0.25-0.194-0.398-0.222-2.405-0.037-2.469 0-2.867 0.305-3.172 0.277-0.277 0.546-0.277 0.832 0z" fill="#000000"></path>
<path d="M27.024 7.232c0.028 3.82 0.046 4.208 0.194 4.43 0.453 0.675 1.535 0.601 2.377-0.157l0.37-0.333v0.851h1.757v-8.971h-1.757v6.862l-0.314 0.314c-0.361 0.361-0.731 0.416-0.888 0.139-0.055-0.12-0.093-1.471-0.093-3.746v-3.57h-1.674l0.028 4.18z" fill="#000000"></path>
<path d="M19.514 13.568c-1.711 0.037-4.763 0.213-5.558 0.314-0.943 0.111-1.6 0.416-2.164 0.98-0.943 0.962-1.184 2.044-1.332 5.854-0.148 3.69 0.111 7.63 0.564 8.86 0.259 0.684 1.027 1.498 1.729 1.813 0.453 0.203 0.823 0.268 2.247 0.398 1.424 0.139 2.784 0.166 8.675 0.166 9.914 0 10.793-0.102 11.931-1.304 0.758-0.805 0.962-1.471 1.202-3.921 0.139-1.378 0.139-6.576 0-7.954-0.231-2.331-0.509-3.209-1.267-3.94-0.694-0.675-1.202-0.869-2.738-1.017-2.599-0.24-8.786-0.361-13.29-0.25zM17.942 17.526v0.786h-1.942v10.173h-1.665v-10.173h-1.85v-1.572h5.457v0.786zM25.711 18.636c0 1.045 0.028 1.896 0.055 1.896 0.037 0 0.203-0.129 0.388-0.287 0.777-0.684 1.637-0.795 2.155-0.268 0.462 0.453 0.499 0.786 0.499 4.208 0 3.024-0.009 3.163-0.203 3.579-0.453 0.98-1.452 1.054-2.451 0.176-0.185-0.157-0.351-0.287-0.388-0.287-0.028 0-0.055 0.185-0.055 0.416v0.416h-1.48v-11.746h1.48v1.896zM33.239 19.736c0.638 0.194 1.064 0.555 1.332 1.156 0.222 0.472 0.25 0.638 0.277 1.97l0.037 1.461h-3.163v1.119c0 1.11 0.065 1.397 0.361 1.628 0.166 0.129 0.74 0.157 0.897 0.046 0.194-0.129 0.314-0.472 0.314-0.888 0-0.684 0.019-0.703 0.851-0.703h0.749l-0.046 0.786c-0.037 0.721-0.065 0.823-0.388 1.286-1.073 1.563-3.533 1.165-4.097-0.657-0.139-0.462-0.166-0.879-0.157-2.941 0-2.275 0.009-2.432 0.213-2.932 0.444-1.128 1.637-1.683 2.821-1.332zM19.792 23.334c0 2.701 0.028 3.662 0.111 3.746 0.213 0.213 0.61 0.12 0.999-0.222l0.37-0.333v-6.825h1.48v8.786h-1.48v-1.036l-0.435 0.388c-0.518 0.453-1.064 0.731-1.461 0.74-0.435 0-0.851-0.305-0.962-0.712-0.065-0.222-0.102-1.803-0.102-4.264v-3.903h1.48v3.635z" fill="#000000"></path>
<path d="M26.016 21.188l-0.305 0.194v5.429l0.277 0.194c0.388 0.277 0.888 0.222 1.147-0.12 0.185-0.25 0.194-0.37 0.194-2.793s-0.009-2.543-0.194-2.793c-0.25-0.333-0.703-0.379-1.119-0.111z" fill="#000000"></path>
<path d="M32.083 21.114c-0.277 0.213-0.361 0.518-0.361 1.258v0.749h1.683l-0.028-0.777c-0.046-0.98-0.231-1.295-0.786-1.323-0.194-0.018-0.425 0.028-0.509 0.093z" fill="#000000"></path>
</svg>
