<?xml version="1.0" encoding="utf-8"?>
<!-- Generated by IcoMoon.io -->
<!DOCTYPE svg PUBLIC "-//W3C//DTD SVG 1.1//EN" "http://www.w3.org/Graphics/SVG/1.1/DTD/svg11.dtd">
<svg version="1.1" xmlns="http://www.w3.org/2000/svg" xmlns:xlink="http://www.w3.org/1999/xlink" width="318" height="500" viewBox="0 0 318 500">
<path fill="#000000" d="M73.773 458.493c0-1.483-9.205-61.633-20.455-133.667s-20.455-132.184-20.455-133.667c0-1.483 54.205-2.697 120.455-2.697 108.325 0 120.455 0.746 120.455 7.412 0 7.748-34.956 237.284-38.847 255.088-2.214 10.131-2.985 10.227-81.694 10.227-43.702 0-79.459-1.213-79.459-2.697zM169.228 135.845c-138.51-51.815-124.288-43.91-115.816-64.37 13.935-33.655 33.815-39.757 76.951-23.618 25.413 9.508 34.32 8.839 34.32-2.577 0-10.743 7.757-11.816 28.109-3.889 25.027 9.747 23.714 8.027 18.198 23.85l-4.743 13.607 28.572 9.508c28.17 9.375 43.745 21.361 49.765 38.3 2.886 8.121-3.92 37.683-10.223 44.4-1.573 1.676-48.883-14.168-105.133-35.21z"></path>
</svg>
