<?xml version="1.0" encoding="utf-8"?>
<!DOCTYPE svg PUBLIC "-//W3C//DTD SVG 1.1//EN" "http://www.w3.org/Graphics/SVG/1.1/DTD/svg11.dtd">
<svg version="1.1" xmlns="http://www.w3.org/2000/svg" xmlns:xlink="http://www.w3.org/1999/xlink" width="47" height="32" viewBox="0 0 47 32">
<path d="M19.468 1.239c-4.116 0.694-7.528 3.172-9.332 6.779-3.385 6.779-0.139 14.992 6.936 17.544 3.635 1.313 7.824 0.869 11.015-1.147l0.444-0.277 3.191 3.181c3.459 3.459 3.598 3.57 4.532 3.57 1.591 0 2.654-1.498 2.201-3.089-0.093-0.324-0.61-0.888-3.376-3.662l-3.265-3.293 0.277-0.444c1.434-2.257 2.099-5.050 1.85-7.732-0.536-5.734-4.412-10.081-10.081-11.329-0.943-0.203-3.422-0.259-4.393-0.102zM23.399 6.021c2.59 0.647 4.8 2.821 5.651 5.54 0.194 0.601 0.222 0.879 0.222 2.127 0 1.212-0.028 1.544-0.213 2.155-0.62 2.136-2.201 4.023-4.245 5.050-1.72 0.86-4.19 0.99-6.086 0.314-2.405-0.86-4.393-3.043-5.050-5.531-0.25-0.962-0.277-2.747-0.056-3.699 0.684-2.858 3.024-5.272 5.799-5.975 1.175-0.296 2.747-0.287 3.977 0.019z" fill="#000000"></path>
<path d="M20.384 8.148c-0.157 0.176-0.176 0.379-0.203 2.257l-0.028 2.072-2.072 0.028c-2.543 0.037-2.451-0.009-2.451 1.202 0 1.23-0.102 1.184 2.442 1.184h2.081l0.028 2.127c0.037 2.58-0.028 2.451 1.175 2.451 1.267 0 1.212 0.111 1.212-2.469v-2.109h2.109c2.58 0 2.469 0.056 2.469-1.212 0-1.202 0.129-1.138-2.451-1.175l-2.127-0.028v-2.081c0-2.543 0.046-2.442-1.184-2.442-0.721 0-0.842 0.028-0.999 0.194z" fill="#000000"></path>
</svg>
