<?xml version="1.0" encoding="utf-8"?>
<!DOCTYPE svg PUBLIC "-//W3C//DTD SVG 1.1//EN" "http://www.w3.org/Graphics/SVG/1.1/DTD/svg11.dtd">
<svg version="1.1" xmlns="http://www.w3.org/2000/svg" xmlns:xlink="http://www.w3.org/1999/xlink" width="47" height="32" viewBox="0 0 47 32">
<path d="M21.901 2.321c-6.622 0.509-12.171 3.977-13.78 8.592-0.435 1.249-0.583 3.117-0.351 4.347 0.499 2.645 2.386 5.198 5.161 6.964 0.361 0.24 0.666 0.472 0.666 0.509 0 0.129-0.425 1.332-0.657 1.822-0.342 0.758-0.953 1.619-1.979 2.784-1.064 1.202-1.202 1.489-0.916 1.97 0.268 0.444 0.527 0.509 1.508 0.333 3.144-0.546 6.418-2.025 8.879-4.032l0.601-0.481 2.59-0.018c2.83-0.018 3.514-0.093 5.549-0.61 1.961-0.49 4.143-1.461 5.697-2.525 0.916-0.629 2.562-2.229 3.126-3.052 1.008-1.452 1.544-2.876 1.674-4.412 0.222-2.867-0.731-5.281-2.987-7.528-3.376-3.366-8.916-5.114-14.779-4.661z" fill="#000000"></path>
</svg>
