<?xml version="1.0" encoding="utf-8"?>
<!DOCTYPE svg PUBLIC "-//W3C//DTD SVG 1.1//EN" "http://www.w3.org/Graphics/SVG/1.1/DTD/svg11.dtd">
<svg version="1.1" xmlns="http://www.w3.org/2000/svg" xmlns:xlink="http://www.w3.org/1999/xlink" width="47" height="32" viewBox="0 0 47 32">
<path d="M18.516 3.524c-2.71 0.472-5.262 2.442-6.576 5.050-0.518 1.045-0.758 2.053-0.814 3.477l-0.056 1.276-0.379 0.194c-1.905 0.962-3.468 3.024-4.005 5.29-0.111 0.462-0.157 1.036-0.157 1.905 0.009 1.082 0.046 1.36 0.259 2.081 0.86 2.867 3.181 5.040 6.021 5.642 0.546 0.111 2.275 0.139 11.376 0.139 12.069 0 11.403 0.037 12.902-0.703 0.74-0.37 1.008-0.564 1.711-1.276 1.276-1.286 1.794-2.321 2.016-4.060 0.333-2.562-0.888-5.179-3.080-6.613-0.49-0.324-1.286-0.675-2.025-0.906-0.102-0.028-0.093-0.083 0.019-0.259 0.536-0.805 0.694-2.469 0.342-3.579-0.869-2.821-4.236-4.079-6.788-2.534-0.296 0.176-0.555 0.314-0.564 0.305-0.018-0.018-0.157-0.296-0.324-0.629-1.073-2.146-3.154-3.847-5.614-4.587-0.703-0.213-1.008-0.25-2.294-0.277-0.814-0.009-1.702 0.009-1.97 0.065zM26.062 13.068c3.459 3.468 3.533 3.561 3.052 3.894-0.176 0.12-0.555 0.148-2.266 0.148h-2.062v3.237c0 3.117-0.009 3.246-0.185 3.422s-0.305 0.185-2.062 0.185c-1.803 0-1.896-0.009-2.062-0.194s-0.176-0.398-0.203-3.422l-0.028-3.228h-2.072c-1.961 0-2.090-0.009-2.266-0.185-0.102-0.102-0.185-0.277-0.185-0.388 0-0.148 0.943-1.147 3.265-3.468 2.839-2.849 3.293-3.265 3.533-3.265 0.25 0 0.694 0.416 3.542 3.265z" fill="#000000"></path>
</svg>
