<?xml version="1.0" encoding="utf-8"?>
<!DOCTYPE svg PUBLIC "-//W3C//DTD SVG 1.1//EN" "http://www.w3.org/Graphics/SVG/1.1/DTD/svg11.dtd">
<svg version="1.1" xmlns="http://www.w3.org/2000/svg" xmlns:xlink="http://www.w3.org/1999/xlink" width="47" height="32" viewBox="0 0 47 32">
<path d="M29.457 3.302c-0.49 0.129-0.879 0.657-0.879 1.202 0 0.499 0.287 0.786 1.36 1.36 1.212 0.638 2.081 1.267 2.886 2.090 1.544 1.572 2.534 3.348 3.080 5.512 0.185 0.712 0.213 1.064 0.213 2.534s-0.028 1.822-0.213 2.534c-0.546 2.164-1.535 3.94-3.080 5.512-0.805 0.823-1.674 1.452-2.886 2.090-1.332 0.712-1.6 1.128-1.212 1.933 0.361 0.758 1.073 0.832 2.257 0.24 3.773-1.896 6.372-5.29 7.325-9.535 0.185-0.832 0.213-1.221 0.213-2.775s-0.028-1.942-0.213-2.775c-0.943-4.227-3.57-7.658-7.288-9.508-0.749-0.379-1.23-0.509-1.563-0.416z" fill="#000000"></path>
<path d="M20.902 5.235c-0.194 0.083-1.498 1.313-3.329 3.135l-3.006 3.006h-2.386c-2.654 0-2.886 0.037-3.209 0.573-0.176 0.296-0.185 0.453-0.185 4.051s0.009 3.755 0.185 4.051c0.324 0.536 0.555 0.573 3.209 0.573h2.386l3.006 3.006c2.886 2.876 3.357 3.283 3.847 3.283 0.287 0 0.805-0.314 0.971-0.592s0.176-0.666 0.176-10.321c0-9.655-0.009-10.044-0.176-10.321-0.176-0.287-0.694-0.592-0.999-0.592-0.093 0.009-0.314 0.074-0.49 0.148z" fill="#000000"></path>
<path d="M27.145 7.815c-0.287 0.296-0.324 0.379-0.324 0.823 0 0.638 0.157 0.842 1.091 1.341 1.36 0.731 2.395 1.794 3.024 3.089 0.499 1.045 0.647 1.711 0.647 2.932s-0.148 1.887-0.647 2.932c-0.629 1.295-1.665 2.358-3.024 3.089-0.934 0.499-1.091 0.703-1.091 1.341 0 0.444 0.037 0.527 0.324 0.823 0.472 0.462 0.971 0.453 1.951-0.046 2.201-1.101 3.958-3.339 4.624-5.873 0.213-0.795 0.25-1.11 0.25-2.266s-0.037-1.471-0.25-2.266c-0.666-2.534-2.423-4.772-4.624-5.873-0.98-0.499-1.48-0.509-1.951-0.046z" fill="#000000"></path>
<path d="M25.831 11.718c-0.314 0.065-0.74 0.536-0.805 0.897-0.111 0.601 0.148 0.98 1.165 1.683 0.546 0.379 0.832 0.962 0.832 1.702s-0.287 1.323-0.832 1.702c-0.721 0.499-0.962 0.731-1.101 1.054-0.277 0.657 0.166 1.424 0.906 1.544 0.314 0.055 0.472 0.018 0.943-0.222 0.786-0.379 1.184-0.74 1.665-1.471 1.249-1.868 1.036-4.273-0.499-5.864-0.333-0.342-0.74-0.638-1.11-0.814-0.573-0.268-0.731-0.296-1.165-0.213z" fill="#000000"></path>
</svg>
