<?xml version="1.0" encoding="utf-8"?>
<!DOCTYPE svg PUBLIC "-//W3C//DTD SVG 1.1//EN" "http://www.w3.org/Graphics/SVG/1.1/DTD/svg11.dtd">
<svg version="1.1" xmlns="http://www.w3.org/2000/svg" xmlns:xlink="http://www.w3.org/1999/xlink" width="47" height="32" viewBox="0 0 47 32">
<path d="M32.647 5.512c-0.203 0.083-2.46 2.266-6.261 6.076l-5.947 5.938-2.701-2.701c-1.489-1.48-2.839-2.756-3.006-2.839-0.379-0.185-1.045-0.194-1.48-0.009-0.453 0.194-3.024 2.738-3.265 3.237-0.222 0.453-0.24 1.036-0.046 1.507s9.184 9.471 9.72 9.729c0.472 0.231 1.082 0.231 1.563 0.009 0.527-0.25 15.982-15.741 16.185-16.213 0.176-0.444 0.176-1.008 0-1.434-0.194-0.453-2.738-3.024-3.237-3.265-0.453-0.222-1.073-0.231-1.526-0.037z" fill="#000000"></path>
</svg>
