<?xml version="1.0" encoding="utf-8"?>
<!DOCTYPE svg PUBLIC "-//W3C//DTD SVG 1.1//EN" "http://www.w3.org/Graphics/SVG/1.1/DTD/svg11.dtd">
<svg version="1.1" xmlns="http://www.w3.org/2000/svg" xmlns:xlink="http://www.w3.org/1999/xlink" width="47" height="32" viewBox="0 0 47 32">
<path d="M22.15 2.321c-3.098 0.324-5.919 1.683-8.185 3.958-2.405 2.414-3.672 5.124-3.995 8.536-0.176 1.933 0.129 4.245 0.795 6.021 1.212 3.2 3.718 5.965 6.807 7.51 3.755 1.877 8.453 1.877 12.208 0 2.608-1.304 4.911-3.588 6.187-6.123 1.156-2.303 1.646-4.892 1.415-7.408-0.324-3.413-1.591-6.123-3.995-8.536-3.006-3.006-6.955-4.402-11.237-3.958zM17.785 11.477c0.111 0.056 1.48 1.378 3.043 2.932l2.849 2.839 2.886-2.886c1.896-1.887 2.987-2.904 3.154-2.941 0.49-0.12 0.74 0.037 1.942 1.239l1.175 1.184v0.897l-4.273 4.282c-2.987 2.987-4.365 4.31-4.578 4.384-0.222 0.065-0.388 0.065-0.61 0-0.213-0.074-1.591-1.397-4.578-4.384l-4.273-4.282v-0.444c0-0.435 0.009-0.453 1.045-1.508 1.36-1.406 1.674-1.591 2.22-1.313z" fill="#000000"></path>
</svg>
