<?xml version="1.0" encoding="utf-8"?>
<!DOCTYPE svg PUBLIC "-//W3C//DTD SVG 1.1//EN" "http://www.w3.org/Graphics/SVG/1.1/DTD/svg11.dtd">
<svg version="1.1" xmlns="http://www.w3.org/2000/svg" xmlns:xlink="http://www.w3.org/1999/xlink" width="47" height="32" viewBox="0 0 47 32">
<path d="M22.437 2.321c-2.016 0.277-3.736 1.128-5.179 2.553-1.193 1.175-1.951 2.414-2.432 3.977-0.231 0.758-0.25 0.934-0.25 2.525-0.009 1.378 0.028 1.831 0.157 2.312 0.213 0.749 6.825 14.816 7.177 15.26 0.398 0.49 1.036 0.768 1.766 0.768 0.342-0.009 0.749-0.074 0.953-0.157 0.805-0.351 0.823-0.388 4.43-8.055 1.868-3.968 3.468-7.482 3.561-7.815 0.129-0.481 0.166-0.934 0.157-2.312 0-1.591-0.019-1.766-0.25-2.525-0.139-0.444-0.416-1.128-0.61-1.526-1.23-2.432-3.672-4.347-6.234-4.865-0.916-0.194-2.423-0.259-3.246-0.139zM24.98 7.121c0.731 0.222 1.36 0.61 1.933 1.202 0.86 0.879 1.239 1.84 1.239 3.098-0.009 1.36-0.379 2.238-1.35 3.209-0.879 0.879-1.85 1.276-3.126 1.276s-2.247-0.398-3.126-1.276c-0.971-0.971-1.341-1.85-1.35-3.209 0-1.286 0.398-2.247 1.295-3.154 0.906-0.906 1.887-1.323 3.145-1.323 0.509-0.009 0.953 0.056 1.341 0.176z" fill="#000000"></path>
</svg>
