<?xml version="1.0" encoding="utf-8"?>
<!DOCTYPE svg PUBLIC "-//W3C//DTD SVG 1.1//EN" "http://www.w3.org/Graphics/SVG/1.1/DTD/svg11.dtd">
<svg version="1.1" xmlns="http://www.w3.org/2000/svg" xmlns:xlink="http://www.w3.org/1999/xlink" width="47" height="32" viewBox="0 0 47 32">
<path d="M9.48 3.551c-0.962 0.305-1.877 1.036-2.386 1.914-0.527 0.888-0.527 0.916-0.527 10.534s0 9.646 0.527 10.534c0.388 0.675 1.147 1.369 1.85 1.702l0.629 0.296 10.617 0.028c11.662 0.028 11.043 0.055 12.328-0.536 0.768-0.342 1.313-0.731 1.877-1.323 0.564-0.583 5.457-6.603 5.845-7.177 0.361-0.555 0.49-1.036 0.481-1.813-0.009-1.212-0.684-2.183-1.859-2.654-0.481-0.185-0.712-0.203-2.627-0.24l-2.109-0.037v-1.443c0-1.729-0.093-2.349-0.444-3.107-0.305-0.638-1.036-1.415-1.674-1.776-0.86-0.481-1.119-0.499-6.585-0.499h-5.059l-0.037-0.814c-0.028-0.657-0.093-0.916-0.314-1.406-0.472-0.999-1.461-1.859-2.497-2.173-0.61-0.185-7.454-0.194-8.037-0.009zM16.758 5.827c0.194 0.056 0.472 0.203 0.629 0.342 0.481 0.398 0.583 0.703 0.638 1.933 0.055 0.99 0.083 1.156 0.287 1.452 0.129 0.185 0.398 0.425 0.601 0.546l0.37 0.213 11.394 0.092 0.342 0.268c0.61 0.462 0.703 0.795 0.703 2.571v1.544l-7.325 0.028c-6.835 0.028-7.371 0.046-7.843 0.203-1.091 0.361-2.321 1.11-2.895 1.748-0.148 0.166-1.064 1.276-2.035 2.469s-1.97 2.414-2.21 2.71l-0.444 0.536 0.018-7.806 0.028-7.797 0.231-0.333c0.231-0.342 0.583-0.592 0.999-0.721 0.37-0.111 6.104-0.111 6.511 0zM38.049 17.295c0.333 0.12 0.398 0.481 0.157 0.879-0.102 0.176-1.415 1.831-2.913 3.69-2.867 3.533-3.043 3.699-4.143 4.153l-0.49 0.203-10.016 0.028c-6.816 0.018-10.136-0.009-10.377-0.074-0.509-0.139-0.61-0.361-0.379-0.86 0.102-0.213 1.406-1.887 2.895-3.718 2.913-3.579 3.181-3.847 4.282-4.199 0.536-0.176 0.897-0.185 10.654-0.185 6.271-0.009 10.183 0.028 10.331 0.083z" fill="#000000"></path>
</svg>
