<?xml version="1.0" encoding="utf-8"?>
<!DOCTYPE svg PUBLIC "-//W3C//DTD SVG 1.1//EN" "http://www.w3.org/Graphics/SVG/1.1/DTD/svg11.dtd">
<svg version="1.1" xmlns="http://www.w3.org/2000/svg" xmlns:xlink="http://www.w3.org/1999/xlink" width="47" height="32" viewBox="0 0 47 32">
<path d="M9.665 2.284c-0.296 0.083-0.601 0.324-0.749 0.592-0.102 0.203-0.129 0.768-0.129 2.812 0 2.812 0.028 3.006 0.546 3.311 0.25 0.148 1.239 0.157 14.345 0.157s14.095-0.009 14.345-0.157c0.518-0.305 0.546-0.499 0.546-3.311 0-2.784-0.019-2.904-0.527-3.246-0.25-0.166-0.675-0.176-14.224-0.185-7.676-0.009-14.049 0-14.15 0.028z" fill="#000000"></path>
<path d="M10.442 10.479c-0.194 0.129-0.361 0.342-0.435 0.564-0.092 0.287-0.111 2.238-0.092 9.156 0.028 9.489 0 8.953 0.518 9.35 0.25 0.185 0.398 0.185 13.244 0.185s12.994 0 13.244-0.185c0.518-0.398 0.49 0.139 0.518-9.35 0.019-6.918 0-8.869-0.093-9.156-0.074-0.222-0.24-0.435-0.435-0.564l-0.314-0.213h-25.84l-0.314 0.213zM26.442 13.91c0.758 0.398 0.777 1.397 0.037 1.877-0.222 0.148-0.518 0.166-2.802 0.166s-2.58-0.018-2.802-0.166c-0.731-0.472-0.721-1.471 0.018-1.868 0.361-0.194 5.179-0.194 5.549-0.009z" fill="#000000"></path>
</svg>
