<?xml version="1.0" encoding="utf-8"?>
<!DOCTYPE svg PUBLIC "-//W3C//DTD SVG 1.1//EN" "http://www.w3.org/Graphics/SVG/1.1/DTD/svg11.dtd">
<svg version="1.1" xmlns="http://www.w3.org/2000/svg" xmlns:xlink="http://www.w3.org/1999/xlink" width="47" height="32" viewBox="0 0 47 32">
<path d="M15.436 4.791c-0.388 0.203-0.555 0.351-0.749 0.712-0.361 0.675-4.319 9.887-4.55 10.59-0.185 0.583-0.194 0.758-0.194 5.595 0 4.661 0.009 5.013 0.166 5.244 0.388 0.573-0.462 0.536 13.568 0.536s13.179 0.037 13.568-0.536c0.157-0.231 0.166-0.592 0.194-4.92 0.019-3.995 0-4.782-0.12-5.41-0.111-0.555-0.694-1.988-2.284-5.688-1.165-2.719-2.238-5.151-2.368-5.41-0.194-0.361-0.361-0.509-0.749-0.712l-0.49-0.259h-15.501l-0.49 0.259zM31.871 12.513c1.036 2.432 1.887 4.467 1.887 4.513s-1.147 0.083-2.793 0.083l-2.802 0.009-0.823 1.702-0.832 1.711h-5.66l-0.832-1.711-0.823-1.702-2.793-0.009c-1.637 0-2.802-0.037-2.802-0.083s0.795-1.951 1.766-4.236c0.98-2.275 1.831-4.282 1.905-4.449l0.12-0.296 12.597 0.046 1.887 4.421z" fill="#000000"></path>
</svg>
