<?xml version="1.0" encoding="utf-8"?>
<!DOCTYPE svg PUBLIC "-//W3C//DTD SVG 1.1//EN" "http://www.w3.org/Graphics/SVG/1.1/DTD/svg11.dtd">
<svg version="1.1" xmlns="http://www.w3.org/2000/svg" xmlns:xlink="http://www.w3.org/1999/xlink" width="47" height="32" viewBox="0 0 47 32">
<path d="M16.916 1.369c-1.748 0.916-1.692 3.366 0.102 4.171 0.231 0.102 0.527 0.194 0.675 0.194h0.25v9.045l-0.472 0.065c-2.035 0.277-4.014 2.895-4.088 5.373-0.009 0.583 0.018 0.786 0.157 0.99 0.351 0.527 0.361 0.527 4.449 0.527 2.636 0 3.746 0.028 3.746 0.102 0 0.25 1.323 8.564 1.397 8.749 0.148 0.398 0.897 0.398 1.073 0.009 0.055-0.12 0.296-2.155 0.546-4.532l0.453-4.328h3.958c4.31 0 4.291 0 4.652-0.527 0.139-0.203 0.166-0.407 0.157-0.99-0.074-2.479-2.053-5.096-4.088-5.373l-0.472-0.065v-9.045h0.259c0.379 0 1.147-0.398 1.434-0.74 0.379-0.444 0.536-0.805 0.592-1.332 0.102-0.962-0.379-1.831-1.258-2.294l-0.49-0.259h-12.541l-0.49 0.259zM21.808 5.993c0.083 0.111 0.111 1.119 0.111 4.31 0 3.736-0.018 4.171-0.157 4.328-0.185 0.203-0.518 0.213-0.712 0.018-0.129-0.129-0.148-0.647-0.148-4.384v-4.245l0.203-0.139c0.231-0.166 0.518-0.12 0.703 0.111z" fill="#000000"></path>
</svg>
