<?xml version="1.0" encoding="utf-8"?>
<!DOCTYPE svg PUBLIC "-//W3C//DTD SVG 1.1//EN" "http://www.w3.org/Graphics/SVG/1.1/DTD/svg11.dtd">
<svg version="1.1" xmlns="http://www.w3.org/2000/svg" xmlns:xlink="http://www.w3.org/1999/xlink" width="47" height="32" viewBox="0 0 47 32">
<path d="M9.572 3.542c-0.851 0.342-1.508 0.98-1.776 1.757-0.157 0.453-0.166 1.091-0.166 10.701 0 9.646 0.009 10.247 0.166 10.701 0.213 0.601 0.823 1.304 1.415 1.6l0.453 0.231h28.023l0.453-0.231c0.592-0.296 1.202-0.999 1.415-1.6 0.157-0.453 0.166-1.054 0.166-10.701s-0.009-10.247-0.166-10.701c-0.213-0.601-0.823-1.304-1.415-1.6l-0.453-0.231-13.919-0.018c-10.516-0.009-13.984 0.009-14.197 0.092zM37.216 10.562c0.129 0.185 0.148 1.073 0.148 7.732v7.519l-0.231 0.222-0.222 0.231h-26.469l-0.222-0.231-0.231-0.222v-7.519c0-6.659 0.018-7.547 0.148-7.732l0.139-0.203h26.802l0.139 0.203z" fill="#000000"></path>
<path d="M12.671 12.55c-0.398 0.157-0.462 0.314-0.462 1.156 0 0.694 0.028 0.842 0.185 0.999s0.305 0.185 0.999 0.185c1.101 0 1.175-0.074 1.175-1.212 0-1.064-0.065-1.138-1.045-1.165-0.388-0.009-0.777 0-0.851 0.037z" fill="#000000"></path>
<path d="M17.128 12.578c-0.277 0.12-0.388 0.444-0.388 1.193 0 0.499 0.037 0.684 0.194 0.879l0.185 0.24h8.832c10.312 0 9.193 0.148 9.193-1.184 0-1.313 1.082-1.175-9.101-1.193-5.114-0.009-8.786 0.018-8.916 0.065z" fill="#000000"></path>
<path d="M12.393 17.295c-0.157 0.157-0.185 0.305-0.185 0.999 0 1.101 0.074 1.175 1.212 1.175 0.657 0 0.851-0.028 0.98-0.166 0.139-0.129 0.166-0.324 0.166-0.98 0-1.138-0.074-1.212-1.175-1.212-0.694 0-0.842 0.028-0.999 0.185z" fill="#000000"></path>
<path d="M16.925 17.36c-0.176 0.231-0.194 0.351-0.166 1.017 0.018 0.573 0.065 0.805 0.194 0.925 0.157 0.157 0.638 0.166 8.98 0.166 10.312 0 9.212 0.139 9.212-1.175 0-1.332 1.119-1.184-9.193-1.184h-8.832l-0.194 0.25z" fill="#000000"></path>
<path d="M12.467 21.827c-0.25 0.194-0.259 0.231-0.259 1.027 0 1.119 0.074 1.193 1.184 1.193 1.101 0 1.175-0.074 1.175-1.212 0-1.073-0.065-1.138-1.091-1.175-0.666-0.028-0.786-0.009-1.008 0.166z" fill="#000000"></path>
<path d="M17.128 21.734c-0.296 0.12-0.407 0.499-0.37 1.267 0.018 0.481 0.074 0.712 0.203 0.851l0.176 0.194h8.823c10.303 0 9.184 0.148 9.184-1.193 0-1.35 1.054-1.212-9.147-1.202-4.966 0-8.749 0.037-8.869 0.083z" fill="#000000"></path>
</svg>
