<?xml version="1.0" encoding="utf-8"?>
<!DOCTYPE svg PUBLIC "-//W3C//DTD SVG 1.1//EN" "http://www.w3.org/Graphics/SVG/1.1/DTD/svg11.dtd">
<svg version="1.1" xmlns="http://www.w3.org/2000/svg" xmlns:xlink="http://www.w3.org/1999/xlink" width="47" height="32" viewBox="0 0 47 32">
<path d="M12.994 4.698c-0.805 0.277-1.48 0.943-1.766 1.748-0.092 0.287-0.12 1.683-0.129 7.251 0 7.778-0.037 7.39 0.712 8.222 0.499 0.555 0.897 0.777 1.646 0.916 0.758 0.139 19.681 0.139 20.439 0 0.749-0.139 1.147-0.361 1.646-0.916 0.749-0.832 0.721-0.444 0.694-8.379l-0.028-7.020-0.213-0.398c-0.277-0.527-0.888-1.11-1.406-1.35-0.416-0.194-0.472-0.194-10.775-0.213-9.637-0.019-10.386-0.009-10.821 0.139zM33.794 7.14c0.129 0.185 0.148 0.962 0.148 6.557 0 6.28 0 6.354-0.194 6.594l-0.185 0.24h-19.773l-0.185-0.24c-0.194-0.24-0.194-0.314-0.194-6.594 0-5.595 0.018-6.372 0.148-6.557l0.139-0.203h19.958l0.139 0.203z" fill="#000000"></path>
<path d="M6.492 25.054c0.028 1.258 0.111 1.443 0.823 1.877 0.906 0.564 0.111 0.536 16.361 0.536s15.454 0.028 16.361-0.536c0.712-0.435 0.795-0.62 0.823-1.877l0.037-1.101h-34.442l0.037 1.101zM25.258 25.304c0.102 0.129 0.093 0.166-0.055 0.277-0.129 0.093-0.518 0.129-1.526 0.129s-1.397-0.037-1.526-0.129c-0.148-0.111-0.157-0.148-0.055-0.277 0.102-0.12 0.351-0.148 1.581-0.148s1.48 0.028 1.581 0.148z" fill="#000000"></path>
</svg>
