<?xml version="1.0" encoding="utf-8"?>
<!DOCTYPE svg PUBLIC "-//W3C//DTD SVG 1.1//EN" "http://www.w3.org/Graphics/SVG/1.1/DTD/svg11.dtd">
<svg version="1.1" xmlns="http://www.w3.org/2000/svg" xmlns:xlink="http://www.w3.org/1999/xlink" width="47" height="32" viewBox="0 0 47 32">
<path d="M17.914 2.358c-0.203 0.065-0.462 0.222-0.592 0.342-0.481 0.453-0.527 0.647-0.564 2.451l-0.037 1.692h-2.201v22.936h18.312v-22.936h-2.201l-0.037-1.692c-0.028-1.36-0.065-1.739-0.185-1.97-0.213-0.398-0.657-0.749-1.073-0.869-0.222-0.055-2.284-0.092-5.706-0.092-4.301 0.009-5.438 0.037-5.716 0.139zM28.208 5.734v1.11h-9.064v-2.22h9.064v1.11z" fill="#000000"></path>
<path d="M10.386 7.020c-1.452 0.499-2.506 1.803-2.71 3.348-0.111 0.86-0.12 14.973-0.009 15.824 0.12 0.888 0.536 1.729 1.184 2.377 0.869 0.86 1.84 1.212 3.385 1.212h0.62v-22.936l-0.99 0.009c-0.703 0-1.147 0.056-1.48 0.166z" fill="#000000"></path>
<path d="M34.497 18.312v11.468h0.629c1.535 0 2.506-0.351 3.376-1.212 0.647-0.647 1.064-1.489 1.184-2.377 0.111-0.851 0.102-14.964-0.009-15.824-0.12-0.897-0.499-1.683-1.101-2.294-0.916-0.925-1.683-1.23-3.126-1.23h-0.953v11.468z" fill="#000000"></path>
</svg>
