<?xml version="1.0" encoding="utf-8"?>
<!DOCTYPE svg PUBLIC "-//W3C//DTD SVG 1.1//EN" "http://www.w3.org/Graphics/SVG/1.1/DTD/svg11.dtd">
<svg version="1.1" xmlns="http://www.w3.org/2000/svg" xmlns:xlink="http://www.w3.org/1999/xlink" width="47" height="32" viewBox="0 0 47 32">
<path d="M13.965 2.368c-0.971 0.213-1.72 0.629-2.506 1.415-0.795 0.805-1.212 1.535-1.424 2.553-0.203 0.962-0.203 18.368 0 19.329 0.213 1.017 0.629 1.748 1.424 2.553 0.805 0.795 1.535 1.212 2.553 1.424 0.962 0.203 18.368 0.203 19.329 0 1.017-0.213 1.748-0.629 2.553-1.424 0.795-0.805 1.212-1.535 1.424-2.553 0.203-0.962 0.203-18.368 0-19.329-0.213-1.017-0.629-1.748-1.424-2.553-0.805-0.795-1.535-1.212-2.553-1.424-0.934-0.194-18.46-0.194-19.376 0.009zM30.881 8.379c1.35 0.435 1.803 1.72 1.258 3.607-0.277 0.934-1.064 2.904-1.711 4.245-1.461 3.034-3.931 6.261-5.947 7.769-1.378 1.036-2.275 1.434-3.218 1.434-0.666 0-0.897-0.083-1.387-0.527-0.906-0.814-1.313-1.776-2.257-5.383-0.564-2.146-1.369-4.791-1.591-5.235-0.287-0.564-0.583-0.786-1.045-0.786-0.24 0-0.638 0.065-0.888 0.139-0.694 0.213-1.101 0.185-1.276-0.092-0.083-0.12-0.231-0.305-0.342-0.398l-0.185-0.185 0.444-0.351c0.24-0.203 1.027-0.86 1.739-1.48 2.303-1.97 3.366-2.553 4.412-2.386 0.694 0.12 1.397 0.943 1.748 2.072 0.24 0.786 0.601 2.784 0.777 4.301 0.277 2.368 0.638 3.348 1.471 4.005 0.324 0.25 0.888 0.268 1.276 0.037 0.351-0.203 1.165-1.424 1.637-2.432 0.481-1.054 0.694-1.933 0.62-2.608-0.111-1.054-0.462-1.36-1.702-1.443l-0.758-0.056 0.305-0.647c0.62-1.276 1.526-2.257 2.821-3.043 0.749-0.453 1.239-0.62 2.007-0.694 0.777-0.074 1.249-0.037 1.794 0.139z" fill="#000000"></path>
</svg>
