<?xml version="1.0" encoding="utf-8"?>
<!DOCTYPE svg PUBLIC "-//W3C//DTD SVG 1.1//EN" "http://www.w3.org/Graphics/SVG/1.1/DTD/svg11.dtd">
<svg version="1.1" xmlns="http://www.w3.org/2000/svg" xmlns:xlink="http://www.w3.org/1999/xlink" width="47" height="32" viewBox="0 0 47 32">
<path d="M17.794 0.222c-0.314 0.111-0.749 0.314-0.971 0.453-0.222 0.129-2.201 2.044-4.402 4.245-4.153 4.171-4.199 4.227-4.615 5.438-0.166 0.481-0.176 0.879-0.176 6.936 0 3.533 0.028 6.539 0.074 6.677 0.093 0.351 0.601 0.906 0.962 1.054 0.24 0.102 1.313 0.129 5.346 0.129h5.040v2.747c0 2.479 0.018 2.793 0.176 3.126 0.194 0.425 0.499 0.731 0.869 0.869 0.176 0.074 3.135 0.102 9.332 0.102h9.064l0.37-0.203c0.222-0.129 0.472-0.379 0.61-0.629l0.25-0.416v-11.329c0-10.488-0.009-11.348-0.157-11.616-0.222-0.407-0.758-0.851-1.11-0.916-0.166-0.028-2.238-0.046-4.606-0.028l-4.301 0.028-0.62 0.296-0.629 0.296v-3.071c0-2.784-0.018-3.107-0.176-3.44-0.194-0.425-0.499-0.731-0.869-0.869-0.176-0.065-1.729-0.102-4.578-0.092-4.254 0-4.328 0-4.883 0.213zM25.896 5.984v3.672l-2.941 2.969c-1.646 1.646-3.061 3.145-3.191 3.385-0.62 1.054-0.647 1.276-0.694 4.171l-0.037 2.664h-9.045v-11.376h3.903c3.783 0 3.912-0.009 4.31-0.194 0.24-0.12 0.499-0.351 0.647-0.573l0.25-0.379 0.055-8.009h6.742v3.672zM16.74 6.52v2.543h-5.133l2.543-2.543c1.397-1.397 2.553-2.543 2.562-2.543 0.018 0 0.028 1.147 0.028 2.543zM37.364 19.422v10.266h-15.907v-11.376h3.875c2.516 0 3.977-0.037 4.143-0.102 0.324-0.12 0.731-0.499 0.934-0.869 0.139-0.24 0.157-0.749 0.185-4.236l0.028-3.949h6.742v10.266zM28.208 13.41v2.59h-5.225l2.59-2.59c1.424-1.424 2.599-2.59 2.608-2.59 0.018 0 0.028 1.165 0.028 2.59z" fill="#000000"></path>
</svg>
