<?xml version="1.0" encoding="utf-8"?>
<!DOCTYPE svg PUBLIC "-//W3C//DTD SVG 1.1//EN" "http://www.w3.org/Graphics/SVG/1.1/DTD/svg11.dtd">
<svg version="1.1" xmlns="http://www.w3.org/2000/svg" xmlns:xlink="http://www.w3.org/1999/xlink" width="47" height="32" viewBox="0 0 47 32">
<path d="M27.746 4.68c-1.017 0.213-1.887 0.712-2.728 1.554-1.286 1.286-1.757 2.488-1.692 4.347l0.028 0.999-0.777-0.056c-3.792-0.314-7.769-2.368-10.534-5.447l-0.481-0.546-0.277 0.592c-1.017 2.173-0.573 4.726 1.128 6.474l0.629 0.657-0.49-0.065c-0.407-0.056-0.86-0.213-1.72-0.583-0.111-0.046-0.12 0.065-0.074 0.638 0.139 1.914 1.369 3.718 3.117 4.597 0.379 0.185 0.795 0.379 0.925 0.416 0.213 0.065 0.194 0.083-0.185 0.157-0.231 0.055-0.74 0.065-1.128 0.037-0.86-0.074-0.86-0.065-0.398 0.842 0.814 1.628 2.266 2.719 4.088 3.080l0.805 0.157-0.657 0.435c-1.933 1.286-3.921 1.859-6.391 1.859-0.777 0-1.378 0.028-1.341 0.065 0.24 0.213 1.702 0.98 2.543 1.332 4.319 1.831 9.693 1.619 13.993-0.536 4.134-2.072 7.501-6.613 8.462-11.431 0.194-1.017 0.398-3.265 0.324-3.69-0.037-0.203 0.009-0.296 0.296-0.509 0.805-0.592 2.719-2.673 2.59-2.812-0.019-0.009-0.277 0.074-0.583 0.194-0.647 0.259-2.109 0.638-2.312 0.592-0.102-0.018-0.009-0.129 0.268-0.324 0.231-0.157 0.592-0.509 0.814-0.786 0.379-0.472 1.064-1.803 0.98-1.896-0.028-0.019-0.342 0.111-0.712 0.296-0.731 0.37-2.451 0.971-2.775 0.971-0.111 0-0.407-0.185-0.666-0.416-1.239-1.11-3.256-1.591-5.068-1.193z" fill="#000000"></path>
</svg>
