<?xml version="1.0" encoding="utf-8"?>
<!DOCTYPE svg PUBLIC "-//W3C//DTD SVG 1.1//EN" "http://www.w3.org/Graphics/SVG/1.1/DTD/svg11.dtd">
<svg version="1.1" xmlns="http://www.w3.org/2000/svg" xmlns:xlink="http://www.w3.org/1999/xlink" width="47" height="32" viewBox="0 0 47 32">
<path d="M9.517 3.644c-0.758 0.305-1.128 0.564-1.619 1.101-0.499 0.555-0.823 1.202-0.962 1.914-0.111 0.573-0.129 18.405-0.019 18.395 0.037 0 1.498-1.692 3.255-3.764 1.896-2.229 3.44-3.968 3.82-4.282 0.925-0.777 2.247-1.452 3.672-1.868 0.684-0.194 0.795-0.194 8.721-0.231l8.018-0.028v-1.452c0-0.795-0.046-1.72-0.093-2.053-0.259-1.609-1.544-2.978-3.126-3.32-0.333-0.065-2.146-0.102-5.521-0.102h-5.040v-0.629c0-1.692-1.184-3.265-2.83-3.764-0.37-0.111-1.128-0.139-4.106-0.139-3.598 0-3.662 0.009-4.171 0.222z" fill="#000000"></path>
<path d="M18.451 17.202c-1.017 0.213-2.46 0.906-3.191 1.554-0.712 0.629-6.779 7.843-6.973 8.296-0.268 0.62-0.139 1.045 0.407 1.323l0.416 0.203 21.272-0.046 0.777-0.305c1.11-0.416 1.914-0.925 2.571-1.609 0.943-0.971 6.474-7.547 6.631-7.88 0.287-0.61 0.139-1.147-0.398-1.415-0.314-0.157-0.925-0.166-10.738-0.176-5.725-0.009-10.571 0.018-10.775 0.055z" fill="#000000"></path>
</svg>
