<?xml version="1.0" encoding="utf-8"?>
<!DOCTYPE svg PUBLIC "-//W3C//DTD SVG 1.1//EN" "http://www.w3.org/Graphics/SVG/1.1/DTD/svg11.dtd">
<svg version="1.1" xmlns="http://www.w3.org/2000/svg" xmlns:xlink="http://www.w3.org/1999/xlink" width="47" height="32" viewBox="0 0 47 32">
<path d="M28.902 5.225c-0.148 0.083-1.628 1.498-3.283 3.144l-3.006 2.997-2.543 0.028c-2.719 0.028-2.728 0.028-3.098 0.518-0.176 0.24-0.185 0.398-0.185 4.088s0.009 3.847 0.185 4.088c0.37 0.49 0.379 0.49 3.098 0.518l2.543 0.028 3.052 3.043c1.72 1.711 3.172 3.089 3.329 3.145 0.62 0.231 1.332-0.157 1.526-0.842 0.129-0.425 0.12-19.524 0-19.977-0.194-0.703-1.017-1.091-1.619-0.777z" fill="#000000"></path>
</svg>
