<?xml version="1.0" encoding="utf-8"?>
<!DOCTYPE svg PUBLIC "-//W3C//DTD SVG 1.1//EN" "http://www.w3.org/Graphics/SVG/1.1/DTD/svg11.dtd">
<svg version="1.1" xmlns="http://www.w3.org/2000/svg" xmlns:xlink="http://www.w3.org/1999/xlink" width="47" height="32" viewBox="0 0 47 32">
<path d="M21.716 2.321c-4.402 0.361-8.435 2.072-11.034 4.661-2.266 2.257-3.219 4.661-2.997 7.528 0.093 1.091 0.287 1.794 0.823 2.923 0.851 1.813 2.405 3.505 4.43 4.809 0.361 0.231 0.657 0.453 0.657 0.499 0 0.12-0.435 1.332-0.657 1.813-0.342 0.758-0.953 1.619-1.979 2.784-1.064 1.202-1.202 1.489-0.916 1.97 0.24 0.416 0.536 0.499 1.276 0.379 3.246-0.518 6.844-2.146 9.212-4.153l0.499-0.425 2.090 0.028c3.94 0.065 6.742-0.518 9.757-2.025 4.023-1.998 6.511-5.151 6.788-8.601 0.222-2.867-0.731-5.272-2.997-7.528-3.394-3.394-9.045-5.151-14.955-4.661zM26.59 4.846c6.881 1.101 11.551 5.466 10.645 9.961-0.176 0.86-0.684 2.007-1.202 2.719-0.869 1.202-2.34 2.423-3.94 3.265-3.283 1.729-6.751 2.284-11.283 1.822l-0.509-0.046-0.879 0.74c-1.128 0.962-2.386 1.803-3.57 2.395-0.518 0.259-0.971 0.472-0.999 0.472-0.037 0 0.074-0.259 0.231-0.573s0.351-0.74 0.425-0.943c0.24-0.638 0.934-3.061 0.897-3.117-0.018-0.037-0.518-0.342-1.11-0.684-2.46-1.434-3.931-2.886-4.745-4.698-0.379-0.851-0.509-1.48-0.509-2.562 0.009-0.814 0.046-1.091 0.268-1.739 1.045-3.089 4.476-5.66 8.971-6.714 0.805-0.194 1.498-0.305 2.913-0.462 0.647-0.074 3.579 0.037 4.393 0.166z" fill="#000000"></path>
</svg>
