<?xml version="1.0" encoding="utf-8"?>
<!DOCTYPE svg PUBLIC "-//W3C//DTD SVG 1.1//EN" "http://www.w3.org/Graphics/SVG/1.1/DTD/svg11.dtd">
<svg version="1.1" xmlns="http://www.w3.org/2000/svg" xmlns:xlink="http://www.w3.org/1999/xlink" width="47" height="32" viewBox="0 0 47 32">
<path d="M15.353 0.083c-0.721 0.231-1.443 0.897-1.766 1.628-0.166 0.37-0.213 0.694-0.25 1.637l-0.046 1.184h-1.35c-1.11 0-1.415 0.037-1.72 0.176-0.555 0.25-0.934 0.61-1.193 1.138l-0.24 0.481v11.875c0 8.842 0.028 11.977 0.111 12.245 0.139 0.472 0.758 1.165 1.23 1.378 0.351 0.166 0.962 0.176 13.549 0.176s13.198-0.009 13.549-0.176c0.472-0.213 1.091-0.906 1.23-1.378 0.083-0.268 0.111-3.403 0.111-12.236 0-11.293-0.009-11.894-0.176-12.245-0.25-0.555-0.61-0.934-1.138-1.193-0.453-0.222-0.564-0.24-1.84-0.24h-1.35l-0.046-1.184c-0.046-1.369-0.213-1.85-0.842-2.497-0.721-0.74-0.916-0.805-2.608-0.805-1.369 0-1.508 0.019-1.896 0.213-0.555 0.287-1.036 0.768-1.304 1.295-0.194 0.388-0.222 0.583-0.25 1.702l-0.037 1.276h-6.807l-0.037-1.276c-0.028-1.11-0.055-1.313-0.24-1.683-0.287-0.555-0.768-1.036-1.295-1.304-0.388-0.203-0.564-0.222-1.776-0.24-0.74-0.009-1.443 0.019-1.572 0.055zM17.72 2.543l0.231 0.231-0.028 2.738c-0.037 3.209 0.046 2.997-1.128 2.997-1.147 0-1.073 0.203-1.073-3.043 0-1.508 0.037-2.784 0.074-2.839 0.148-0.213 0.462-0.305 1.064-0.314 0.546 0 0.657 0.028 0.86 0.231zM31.288 2.414c0.111 0.065 0.231 0.157 0.268 0.213s0.074 1.323 0.074 2.821c0 3.255 0.065 3.061-1.064 3.061-1.193 0-1.101 0.222-1.138-2.997l-0.028-2.738 0.231-0.231c0.203-0.203 0.314-0.231 0.842-0.231 0.342 0 0.703 0.046 0.814 0.102zM16.185 14.012v2.543h-4.994v-5.087h4.994v2.543zM23.029 14.012v2.543h-5.549v-5.087h5.549v2.543zM29.873 14.012v2.543h-5.549v-5.087h5.549v2.543zM36.162 14.012v2.543h-4.994v-5.087h4.994v2.543zM16.185 20.578v2.821h-4.994v-5.642h4.994v2.821zM23.029 20.578v2.821h-5.549v-5.642h5.549v2.821zM29.873 20.578v2.821h-5.549v-5.642h5.549v2.821zM36.162 20.578v2.821h-4.994v-5.642h4.994v2.821zM16.185 27.145v2.543h-4.994v-5.087h4.994v2.543zM23.029 27.145v2.543h-5.549v-5.087h5.549v2.543zM29.873 27.145v2.543h-5.549v-5.087h5.549v2.543zM36.162 27.145v2.543h-4.994v-5.087h4.994v2.543z" fill="#000000"></path>
</svg>
