<?xml version="1.0" encoding="utf-8"?>
<!DOCTYPE svg PUBLIC "-//W3C//DTD SVG 1.1//EN" "http://www.w3.org/Graphics/SVG/1.1/DTD/svg11.dtd">
<svg version="1.1" xmlns="http://www.w3.org/2000/svg" xmlns:xlink="http://www.w3.org/1999/xlink" width="47" height="32" viewBox="0 0 47 32">
<path d="M9.785 3.635c-1.323 0.555-2.109 1.739-2.118 3.154 0 0.361 0.028 0.786 0.065 0.934 0.203 0.86 0.999 1.84 1.822 2.247 0.906 0.453 2.173 0.453 3.107 0 0.536-0.259 1.286-1.008 1.554-1.554 0.638-1.304 0.351-2.987-0.675-4.014-0.684-0.684-1.276-0.925-2.349-0.962-0.758-0.018-0.953 0.009-1.406 0.194z" fill="#000000"></path>
<path d="M16.962 4.726c-0.157 0.176-0.176 0.379-0.203 1.961-0.028 1.868-0.009 2.090 0.222 2.321 0.129 0.129 1.286 0.148 11.274 0.148 12.291 0 11.357 0.046 11.468-0.583 0.037-0.166 0.046-1.054 0.028-1.979-0.028-1.489-0.046-1.692-0.203-1.868l-0.176-0.194h-22.234l-0.176 0.194z" fill="#000000"></path>
<path d="M10.58 12.578c-2.284 0.324-3.579 2.793-2.599 4.939 0.962 2.099 3.912 2.59 5.568 0.934 1.341-1.341 1.341-3.561 0-4.902-0.472-0.481-1.175-0.851-1.729-0.925-0.222-0.037-0.481-0.074-0.583-0.083-0.102-0.018-0.398 0-0.657 0.037z" fill="#000000"></path>
<path d="M17.054 13.762c-0.268 0.176-0.314 0.518-0.314 2.238s0.046 2.062 0.314 2.238c0.055 0.037 5.096 0.074 11.209 0.074h11.107l0.176-0.194c0.157-0.176 0.176-0.361 0.176-2.118s-0.019-1.942-0.176-2.118l-0.176-0.194h-11.108c-6.113 0-11.154 0.037-11.209 0.074z" fill="#000000"></path>
<path d="M10.432 21.734c-1.36 0.24-2.553 1.48-2.738 2.839-0.213 1.609 0.546 3.080 1.924 3.718 0.721 0.342 1.951 0.388 2.701 0.102 2.062-0.768 2.895-3.348 1.665-5.179-0.777-1.156-2.155-1.729-3.551-1.48z" fill="#000000"></path>
<path d="M16.98 22.992c-0.231 0.231-0.25 0.453-0.222 2.321 0.028 1.581 0.046 1.785 0.203 1.961l0.176 0.194h22.234l0.176-0.194c0.157-0.176 0.176-0.379 0.203-1.868 0.019-0.925 0.009-1.813-0.028-1.979-0.111-0.629 0.823-0.583-11.468-0.583-9.988 0-11.145 0.018-11.274 0.148z" fill="#000000"></path>
</svg>
