<?xml version="1.0" encoding="utf-8"?>
<!DOCTYPE svg PUBLIC "-//W3C//DTD SVG 1.1//EN" "http://www.w3.org/Graphics/SVG/1.1/DTD/svg11.dtd">
<svg version="1.1" xmlns="http://www.w3.org/2000/svg" xmlns:xlink="http://www.w3.org/1999/xlink" width="47" height="32" viewBox="0 0 47 32">
<path d="M16.333 3.524c-0.721 0.12-1.896 0.536-2.645 0.934-2.377 1.267-3.94 3.265-4.652 5.938-0.203 0.74-0.203 0.842-0.203 8.194v7.445l0.268 0.573c0.305 0.675 0.99 1.36 1.674 1.702l0.462 0.222h8.879l0.509-0.259c0.703-0.37 1.249-0.925 1.6-1.637l0.296-0.601 0.028-4.134c0.028-4.606 0.018-4.745-0.573-5.577-0.398-0.555-0.832-0.916-1.508-1.23-0.536-0.25-0.536-0.25-3.218-0.296-2.599-0.046-2.691-0.056-3.024-0.259-0.231-0.139-0.425-0.379-0.592-0.721-0.231-0.472-0.24-0.564-0.185-1.332 0.102-1.406 0.555-2.368 1.508-3.237s1.619-1.101 3.44-1.202l1.239-0.065 0.314-0.333 0.305-0.342v-3.228l-0.324-0.333-0.333-0.324-1.406 0.009c-0.777 0.009-1.609 0.046-1.859 0.092z" fill="#000000"></path>
<path d="M32.185 3.561c-3.588 0.768-6.197 3.265-7.149 6.825-0.203 0.749-0.203 0.832-0.203 8.203v7.445l0.296 0.601c0.351 0.712 0.897 1.267 1.6 1.637l0.509 0.259h8.879l0.462-0.222c0.684-0.342 1.369-1.027 1.674-1.702l0.268-0.573 0.028-4.134c0.028-4.661 0.019-4.745-0.629-5.651-0.37-0.509-1.064-1.045-1.665-1.267-0.231-0.083-1.128-0.139-3.015-0.176-2.673-0.056-2.691-0.056-3.024-0.287-0.185-0.12-0.425-0.398-0.546-0.601-0.185-0.324-0.213-0.481-0.194-1.295 0.028-1.443 0.49-2.497 1.535-3.431 0.916-0.814 1.591-1.045 3.385-1.147l1.239-0.065 0.314-0.333 0.305-0.342v-3.228l-0.324-0.333-0.333-0.324-1.406 0.009c-0.823 0-1.656 0.055-2.007 0.129z" fill="#000000"></path>
</svg>
