<?xml version="1.0" encoding="utf-8"?>
<!DOCTYPE svg PUBLIC "-//W3C//DTD SVG 1.1//EN" "http://www.w3.org/Graphics/SVG/1.1/DTD/svg11.dtd">
<svg version="1.1" xmlns="http://www.w3.org/2000/svg" xmlns:xlink="http://www.w3.org/1999/xlink" width="47" height="32" viewBox="0 0 47 32">
<path d="M23.353 1.785c-0.98 0.259-1.739 0.879-2.192 1.803-0.49 0.999-0.472 2.321 0.055 3.256 0.98 1.757 3.468 2.312 5.040 1.128 0.814-0.62 1.221-1.258 1.397-2.21 0.37-2.053-1.082-3.912-3.154-4.051-0.407-0.028-0.869 0.009-1.147 0.074z" fill="#000000"></path>
<path d="M15.556 5.466c-1.637 0.324-2.719 1.97-2.423 3.681 0.129 0.74 0.398 1.221 0.99 1.776 1.535 1.443 4.106 0.916 5.003-1.017 0.351-0.74 0.388-1.702 0.102-2.46-0.379-1.008-1.313-1.785-2.395-1.988-0.555-0.102-0.721-0.102-1.276 0.009z" fill="#000000"></path>
<path d="M31.575 7.251c-0.425 0.185-0.712 0.647-0.758 1.212-0.074 0.897 0.518 1.554 1.406 1.554 0.916 0 1.489-0.573 1.48-1.48-0.009-0.546-0.305-1.036-0.777-1.276-0.333-0.166-0.971-0.176-1.35-0.009z" fill="#000000"></path>
<path d="M12.023 13.771c-0.472 0.148-0.98 0.462-1.313 0.814-1.054 1.091-1.027 2.941 0.074 4.042 0.555 0.555 1.184 0.805 2.025 0.805 0.86 0 1.508-0.268 2.062-0.842 0.601-0.61 0.805-1.119 0.805-1.988-0.009-0.906-0.24-1.508-0.814-2.062-0.61-0.583-1.101-0.805-1.914-0.823-0.379-0.009-0.795 0.009-0.925 0.056z" fill="#000000"></path>
<path d="M35.135 14.89c-0.694 0.203-1.193 0.925-1.193 1.702 0 1.045 0.795 1.776 1.859 1.702 1.147-0.083 1.868-1.082 1.572-2.173-0.259-0.962-1.286-1.526-2.238-1.23z" fill="#000000"></path>
<path d="M15.695 22.030c-0.555 0.102-1.045 0.407-1.489 0.916-0.398 0.462-0.546 0.934-0.546 1.711 0.009 0.962 0.527 1.794 1.443 2.275 0.509 0.277 1.693 0.296 2.201 0.046 1.674-0.832 2.072-2.95 0.795-4.236-0.638-0.638-1.471-0.888-2.405-0.712z" fill="#000000"></path>
<path d="M31.399 22.705c-0.388 0.213-0.851 0.666-1.017 1.027-0.213 0.453-0.185 1.313 0.074 1.803 0.259 0.481 0.916 0.962 1.452 1.054 0.971 0.166 2.007-0.472 2.275-1.406 0.259-0.906-0.028-1.757-0.777-2.284-0.342-0.24-0.499-0.287-1.064-0.314-0.481-0.018-0.74 0.018-0.943 0.12z" fill="#000000"></path>
<path d="M23.26 25.887c-0.851 0.379-1.406 1.369-1.313 2.321 0.185 2.035 2.701 2.858 4.042 1.332 0.416-0.481 0.555-0.86 0.555-1.517 0-1.369-0.943-2.312-2.303-2.312-0.388 0-0.749 0.065-0.98 0.176z" fill="#000000"></path>
</svg>
