<?xml version="1.0" encoding="utf-8"?>
<!DOCTYPE svg PUBLIC "-//W3C//DTD SVG 1.1//EN" "http://www.w3.org/Graphics/SVG/1.1/DTD/svg11.dtd">
<svg version="1.1" xmlns="http://www.w3.org/2000/svg" xmlns:xlink="http://www.w3.org/1999/xlink" width="47" height="32" viewBox="0 0 47 32">
<path d="M23.306 1.924c-0.296 0.148-0.49 0.499-2.414 4.365-1.156 2.312-2.118 4.245-2.136 4.282s-2.025 0.361-4.467 0.712c-2.442 0.351-4.597 0.684-4.782 0.74-0.74 0.213-0.925 0.805-0.453 1.443 0.139 0.194 1.702 1.757 3.459 3.45 2.83 2.738 3.191 3.126 3.154 3.329-0.351 1.905-1.517 8.897-1.517 9.11 0 0.601 0.499 0.962 1.091 0.795 0.194-0.046 2.164-1.045 4.393-2.22l4.042-2.127 3.977 2.090c2.192 1.156 4.153 2.155 4.356 2.229 0.703 0.24 1.193-0.111 1.193-0.851 0-0.157-1.239-7.538-1.517-9.027-0.037-0.203 0.324-0.592 3.191-3.376 1.776-1.72 3.339-3.283 3.459-3.468 0.425-0.61 0.222-1.175-0.49-1.378-0.185-0.056-2.21-0.37-4.504-0.694-2.284-0.324-4.291-0.62-4.439-0.647-0.277-0.046-0.379-0.24-2.405-4.319-1.748-3.505-2.173-4.301-2.405-4.439-0.342-0.203-0.388-0.203-0.786 0zM25.378 9.508l1.655 3.32 3.718 0.546 3.718 0.536-1.813 1.757c-0.999 0.971-2.21 2.155-2.701 2.645l-0.897 0.879 0.629 3.653c0.351 2.007 0.62 3.662 0.601 3.681s-1.498-0.74-3.293-1.683c-1.785-0.943-3.283-1.72-3.32-1.72s-1.535 0.777-3.329 1.72c-1.785 0.943-3.274 1.692-3.293 1.674s0.25-1.674 0.601-3.681l0.638-3.644-0.897-0.879c-0.49-0.49-1.702-1.674-2.701-2.645l-1.813-1.757 3.718-0.536 3.718-0.546 1.655-3.32c0.906-1.822 1.674-3.311 1.702-3.311s0.795 1.489 1.702 3.311z" fill="#000000"></path>
</svg>
