<?xml version="1.0" encoding="utf-8"?>
<!DOCTYPE svg PUBLIC "-//W3C//DTD SVG 1.1//EN" "http://www.w3.org/Graphics/SVG/1.1/DTD/svg11.dtd">
<svg version="1.1" xmlns="http://www.w3.org/2000/svg" xmlns:xlink="http://www.w3.org/1999/xlink" width="47" height="32" viewBox="0 0 47 32">
<path d="M13.965 2.368c-0.971 0.213-1.72 0.629-2.506 1.415-0.795 0.805-1.212 1.535-1.424 2.553-0.203 0.962-0.203 18.368 0 19.329 0.213 1.017 0.629 1.748 1.424 2.553 0.805 0.795 1.535 1.212 2.553 1.424 0.962 0.203 18.368 0.203 19.329 0 1.017-0.213 1.748-0.629 2.553-1.424 0.795-0.805 1.212-1.535 1.424-2.553 0.203-0.962 0.203-18.368 0-19.329-0.213-1.017-0.629-1.748-1.424-2.553-0.805-0.795-1.535-1.212-2.553-1.424-0.934-0.194-18.46-0.194-19.376 0.009zM18.442 4.227c0.028 0.093 0.222 0.814 0.435 1.6 0.203 0.786 0.416 1.489 0.453 1.563 0.083 0.157 0.065 0.24 0.564-1.702 0.203-0.814 0.407-1.517 0.444-1.554 0.046-0.037 0.324-0.065 0.629-0.046l0.555 0.028-0.768 2.543-0.777 2.543v3.653h-1.202v-1.785c0-1.757 0-1.803-0.314-2.886-0.176-0.61-0.555-1.785-0.832-2.617l-0.509-1.498h0.638c0.527 0 0.647 0.028 0.684 0.157zM24.139 6.4c0.499 0.25 0.786 0.657 0.916 1.286 0.129 0.583 0.129 3.043 0.009 3.699-0.176 0.934-0.777 1.471-1.655 1.471-0.555 0-0.906-0.157-1.239-0.546-0.425-0.509-0.481-0.842-0.472-2.83 0-2.312 0.129-2.71 1.008-3.107 0.499-0.231 0.943-0.222 1.434 0.028zM27.283 8.962c0 2.34 0.018 2.701 0.148 2.83 0.185 0.185 0.453 0.111 0.805-0.213l0.25-0.24v-5.050h1.11v6.566h-1.11v-0.37c0-0.203-0.028-0.37-0.055-0.37s-0.222 0.148-0.435 0.324c-0.592 0.509-1.249 0.555-1.581 0.111-0.185-0.25-0.194-0.388-0.222-3.265l-0.028-2.997h1.119v2.673zM29.272 14.252c2.146 0.12 2.534 0.231 3.163 0.869 0.361 0.37 0.518 0.62 0.62 0.99 0.268 0.943 0.37 2.22 0.361 4.791 0 4.282-0.287 5.447-1.48 6.16-0.592 0.351-0.703 0.37-3.015 0.509-2.118 0.12-10.701 0.055-12.060-0.093-1.6-0.176-2.34-0.814-2.654-2.275-0.25-1.165-0.37-4.097-0.25-6.104 0.148-2.617 0.361-3.431 1.045-4.088 0.666-0.647 1.387-0.758 5.531-0.842 3.413-0.074 6.502-0.046 8.74 0.083z" fill="#000000"></path>
<path d="M22.964 7.464c-0.148 0.222-0.166 0.481-0.166 2.016 0 0.962 0.037 1.877 0.074 2.016 0.083 0.305 0.425 0.472 0.749 0.342 0.37-0.139 0.444-0.592 0.407-2.506-0.028-1.545-0.046-1.748-0.203-1.924-0.259-0.277-0.657-0.259-0.86 0.056z" fill="#000000"></path>
<path d="M15.26 16.971v0.694h1.387v7.491h1.387v-7.491h1.48v-1.387h-4.254v0.694z" fill="#000000"></path>
<path d="M24.046 20.717v4.439h0.647c0.638 0 0.647 0 0.647-0.25v-0.24l0.213 0.185c0.314 0.296 0.573 0.398 0.971 0.398 0.462 0 0.786-0.25 0.925-0.721 0.139-0.462 0.148-4.819 0.018-5.309-0.203-0.721-1.082-0.962-1.785-0.49l-0.342 0.24v-2.691h-1.295v4.439zM26.136 19.801c0.157 0.176 0.176 0.351 0.176 2.072 0 2.035-0.037 2.173-0.499 2.173-0.453 0-0.472-0.083-0.472-2.183 0-1.933 0-1.97 0.203-2.109 0.277-0.194 0.379-0.185 0.592 0.046z" fill="#000000"></path>
<path d="M29.457 18.617c-0.398 0.185-0.86 0.74-0.943 1.147-0.037 0.194-0.074 1.184-0.074 2.201 0.009 2.118 0.093 2.479 0.749 2.969 0.314 0.25 0.407 0.268 1.101 0.268 0.684 0 0.786-0.028 1.091-0.259 0.462-0.351 0.62-0.694 0.684-1.461l0.056-0.638h-1.323v0.398c0 0.509-0.203 0.805-0.564 0.805-0.231 0-0.305-0.055-0.416-0.324-0.074-0.176-0.129-0.61-0.129-0.971v-0.647h2.423l-0.037-1.138c-0.037-1.286-0.231-1.84-0.749-2.21-0.361-0.259-1.424-0.333-1.868-0.139zM30.603 19.847c0.139 0.185 0.194 0.379 0.194 0.74v0.499h-1.128l0.037-0.564c0.037-0.453 0.083-0.61 0.25-0.74 0.287-0.231 0.425-0.222 0.647 0.065z" fill="#000000"></path>
<path d="M19.607 21.484c0 2.923 0.046 3.403 0.342 3.635 0.361 0.277 1.165 0.102 1.674-0.361l0.203-0.185v0.583h1.295v-6.566h-1.295v4.957l-0.259 0.25c-0.139 0.139-0.351 0.25-0.462 0.25h-0.203v-5.457h-1.295v2.895z" fill="#000000"></path>
</svg>
