<?xml version="1.0" encoding="utf-8"?>
<!DOCTYPE svg PUBLIC "-//W3C//DTD SVG 1.1//EN" "http://www.w3.org/Graphics/SVG/1.1/DTD/svg11.dtd">
<svg version="1.1" xmlns="http://www.w3.org/2000/svg" xmlns:xlink="http://www.w3.org/1999/xlink" width="47" height="32" viewBox="0 0 47 32">
<path d="M11.977 0.176c-0.823 0.296-1.249 0.564-1.831 1.147-0.675 0.675-1.027 1.286-1.221 2.109-0.694 2.969 1.424 5.725 4.412 5.725 1.323 0 2.34-0.398 3.246-1.276 0.98-0.953 1.378-1.905 1.378-3.302s-0.379-2.321-1.323-3.265c-0.564-0.564-1.212-0.953-1.924-1.165-0.694-0.203-2.127-0.185-2.738 0.028z" fill="#000000"></path>
<path d="M32.555 0.176c-0.712 0.222-1.286 0.583-1.85 1.147-0.934 0.934-1.313 1.859-1.313 3.256s0.398 2.349 1.378 3.302c0.906 0.879 1.924 1.276 3.246 1.276 2.987 0 5.105-2.756 4.412-5.725-0.194-0.823-0.546-1.434-1.221-2.109-0.592-0.592-1.017-0.86-1.868-1.147-0.666-0.231-2.062-0.231-2.784 0z" fill="#000000"></path>
<path d="M22.705 4.587c-0.102 0.019-0.416 0.083-0.694 0.139-0.74 0.139-2.081 0.823-2.747 1.397-1.156 0.99-1.979 2.294-2.303 3.635-0.222 0.925-0.203 2.562 0.046 3.477 0.342 1.341 1.147 2.59 2.22 3.477 0.786 0.647 1.36 0.971 2.275 1.286 0.684 0.24 0.842 0.259 2.173 0.259s1.489-0.018 2.173-0.259c2.238-0.777 3.921-2.562 4.495-4.763 0.25-0.916 0.268-2.553 0.046-3.477-0.546-2.303-2.562-4.365-4.865-5.003-0.499-0.139-2.46-0.259-2.821-0.166z" fill="#000000"></path>
<path d="M8.379 9.128c-0.398 0.065-1.017 0.74-1.258 1.378-0.592 1.591-0.842 5.077-0.435 6.067 0.314 0.749 1.212 1.415 2.201 1.637 0.222 0.055 1.119 0.102 1.979 0.102h1.582l0.407-0.425c0.962-0.99 2.247-1.619 3.561-1.757 0.832-0.083 0.823-0.065 0.509-0.573-0.832-1.36-1.138-2.442-1.147-4.143l-0.009-1.202-0.647 0.176c-0.435 0.12-0.971 0.185-1.618 0.185-1.212 0.018-1.988-0.185-3.607-0.962-0.638-0.296-1.184-0.536-1.202-0.536-0.028 0.009-0.166 0.037-0.314 0.056z" fill="#000000"></path>
<path d="M37.447 9.618c-1.6 0.758-2.377 0.971-3.598 0.953-0.647 0-1.184-0.065-1.618-0.185l-0.647-0.176-0.009 1.202c-0.009 1.702-0.314 2.784-1.147 4.143-0.314 0.509-0.324 0.49 0.509 0.573 1.313 0.139 2.599 0.768 3.561 1.757l0.407 0.425h1.581c0.86 0 1.757-0.046 1.979-0.102 0.638-0.139 1.378-0.546 1.739-0.943 0.583-0.647 0.629-0.851 0.62-2.608-0.019-2.802-0.49-4.615-1.36-5.262-0.546-0.398-0.758-0.379-2.016 0.222z" fill="#000000"></path>
<path d="M16.139 17.202c-2.238 0.453-3.755 2.229-4.532 5.29-0.379 1.508-0.527 2.96-0.49 4.698 0.028 1.323 0.065 1.6 0.25 2.053 0.481 1.23 1.424 2.127 2.627 2.497l0.666 0.213h18.035l0.666-0.213c1.202-0.37 2.146-1.267 2.627-2.497 0.185-0.453 0.222-0.731 0.25-2.053 0.037-1.739-0.111-3.191-0.49-4.698-0.842-3.311-2.571-5.142-5.077-5.355-0.758-0.055-0.86-0.018-1.961 0.721-1.961 1.313-3.977 1.887-5.854 1.665-1.406-0.176-2.83-0.74-4.208-1.665-1.156-0.777-1.471-0.86-2.506-0.657z" fill="#000000"></path>
</svg>
