<?xml version="1.0" encoding="utf-8"?>
<!DOCTYPE svg PUBLIC "-//W3C//DTD SVG 1.1//EN" "http://www.w3.org/Graphics/SVG/1.1/DTD/svg11.dtd">
<svg version="1.1" xmlns="http://www.w3.org/2000/svg" xmlns:xlink="http://www.w3.org/1999/xlink" width="47" height="32" viewBox="0 0 47 32">
<path d="M22.603 2.321c-1.295 0.166-2.497 0.749-3.57 1.739-1.11 1.027-1.831 2.247-2.118 3.588-0.185 0.86-0.139 2.46 0.093 3.293 0.527 1.942 1.85 3.524 3.69 4.449 1.646 0.823 4.31 0.823 5.956 0 2.451-1.23 3.884-3.505 3.894-6.187 0-1.582-0.296-2.645-1.101-3.857-0.481-0.721-1.554-1.748-2.284-2.183-1.267-0.768-2.895-1.064-4.56-0.842z" fill="#000000"></path>
<path d="M16.083 14.936c-2.423 0.499-4.023 2.645-4.717 6.363-0.25 1.313-0.351 4.264-0.176 5.050 0.351 1.619 1.572 2.839 3.237 3.256 0.749 0.194 17.748 0.194 18.497 0 1.665-0.416 2.886-1.637 3.237-3.256 0.176-0.786 0.074-3.736-0.176-5.050-0.472-2.506-1.406-4.402-2.645-5.392-0.842-0.666-2.46-1.212-3.237-1.082-0.166 0.028-0.814 0.37-1.443 0.768-1.961 1.239-3.209 1.646-4.985 1.646-1.785 0-3.024-0.407-4.957-1.628-1.341-0.842-1.563-0.906-2.636-0.675z" fill="#000000"></path>
</svg>
