<?xml version="1.0" encoding="utf-8"?>
<!DOCTYPE svg PUBLIC "-//W3C//DTD SVG 1.1//EN" "http://www.w3.org/Graphics/SVG/1.1/DTD/svg11.dtd">
<svg version="1.1" xmlns="http://www.w3.org/2000/svg" xmlns:xlink="http://www.w3.org/1999/xlink" width="47" height="32" viewBox="0 0 47 32">
<path d="M22.909 1.239c-0.509 0.185-0.925 0.546-1.239 1.045-0.805 1.286-13.864 25.387-13.965 25.785-0.277 1.054 0.287 2.146 1.36 2.627 0.416 0.185 0.536 0.194 14.613 0.194s14.197-0.009 14.613-0.194c1.045-0.472 1.609-1.526 1.378-2.562-0.093-0.425-13.605-25.35-14.16-26.109-0.536-0.74-1.739-1.11-2.599-0.786zM25.998 10.525l0.203 0.176-0.157 4.153c-0.093 2.275-0.203 4.217-0.25 4.31-0.12 0.222-0.657 0.277-2.469 0.24-1.267-0.018-1.609-0.055-1.729-0.166-0.111-0.12-0.166-0.851-0.296-4.338l-0.157-4.199 0.213-0.166c0.194-0.157 0.407-0.176 2.321-0.176s2.127 0.018 2.321 0.166zM25.766 21.956c0.185 0.268 0.185 3.82 0 4.088-0.12 0.166-0.259 0.176-2.090 0.176s-1.97-0.009-2.090-0.176c-0.176-0.25-0.194-3.829-0.009-4.051 0.185-0.24 0.305-0.25 2.22-0.231 1.702 0.018 1.85 0.028 1.97 0.194z" fill="#000000"></path>
</svg>
