<?xml version="1.0" encoding="utf-8"?>
<!DOCTYPE svg PUBLIC "-//W3C//DTD SVG 1.1//EN" "http://www.w3.org/Graphics/SVG/1.1/DTD/svg11.dtd">
<svg version="1.1" xmlns="http://www.w3.org/2000/svg" xmlns:xlink="http://www.w3.org/1999/xlink" width="47" height="32" viewBox="0 0 47 32">
<path d="M22.15 2.321c-3.098 0.324-5.919 1.683-8.185 3.958-2.405 2.414-3.672 5.124-3.995 8.536-0.176 1.933 0.129 4.245 0.795 6.021 1.212 3.2 3.718 5.965 6.807 7.51 3.755 1.877 8.453 1.877 12.208 0 2.608-1.304 4.911-3.588 6.187-6.123 1.156-2.303 1.646-4.892 1.415-7.408-0.324-3.413-1.591-6.123-3.995-8.536-3.006-3.006-6.955-4.402-11.237-3.958zM25.517 6.52c1.85 0.351 3.561 1.276 4.966 2.673 1.637 1.646 2.627 3.746 2.793 5.956 0.139 1.794-0.129 3.357-0.851 4.874-0.546 1.165-1.064 1.896-1.942 2.784-1.887 1.877-4.134 2.812-6.807 2.812s-4.92-0.934-6.807-2.812c-1.637-1.646-2.627-3.746-2.793-5.956-0.139-1.794 0.129-3.357 0.851-4.874 0.546-1.165 1.064-1.896 1.942-2.784 1.369-1.36 2.932-2.229 4.772-2.627 0.999-0.222 2.839-0.24 3.875-0.046z" fill="#000000"></path>
<path d="M23.954 9.184l-0.231 0.12-0.028 3.348-0.018 3.348h-2.164c-2.59 0-2.46-0.056-2.46 1.119 0 0.555 0.037 0.842 0.148 0.99l0.139 0.203h3.172c2.95 0 3.181-0.009 3.32-0.166s0.157-0.592 0.157-4.421c0-2.331-0.037-4.291-0.074-4.347-0.139-0.213-0.49-0.314-1.101-0.314-0.342 0-0.731 0.056-0.86 0.12z" fill="#000000"></path>
</svg>
