<?xml version="1.0" encoding="utf-8"?>
<!DOCTYPE svg PUBLIC "-//W3C//DTD SVG 1.1//EN" "http://www.w3.org/Graphics/SVG/1.1/DTD/svg11.dtd">
<svg version="1.1" xmlns="http://www.w3.org/2000/svg" xmlns:xlink="http://www.w3.org/1999/xlink" width="47" height="32" viewBox="0 0 47 32">
<path d="M21.040 3.644c-0.213 0.129-0.472 0.398-0.601 0.629l-0.231 0.398-0.055 7.806-7.806 0.056-0.416 0.25c-0.25 0.139-0.499 0.388-0.629 0.61-0.194 0.351-0.203 0.462-0.203 2.608 0 2.21 0 2.257 0.222 2.627 0.129 0.222 0.388 0.481 0.629 0.61l0.398 0.231 7.806 0.055 0.055 7.806 0.25 0.416c0.139 0.25 0.388 0.499 0.61 0.629 0.351 0.194 0.462 0.203 2.608 0.203s2.257-0.009 2.608-0.203c0.222-0.129 0.472-0.379 0.61-0.629l0.25-0.416 0.055-7.806 7.806-0.055 0.416-0.25c0.25-0.139 0.499-0.388 0.629-0.61 0.194-0.351 0.203-0.462 0.203-2.608 0-2.21 0-2.257-0.222-2.627-0.129-0.222-0.388-0.481-0.629-0.61l-0.398-0.231-7.806-0.056-0.028-3.903c-0.028-3.903-0.028-3.903-0.24-4.282-0.12-0.203-0.388-0.49-0.601-0.62l-0.379-0.25h-2.275c-2.229 0-2.275 0.009-2.636 0.222z" fill="#000000"></path>
</svg>
