<?xml version="1.0" encoding="utf-8"?>
<!DOCTYPE svg PUBLIC "-//W3C//DTD SVG 1.1//EN" "http://www.w3.org/Graphics/SVG/1.1/DTD/svg11.dtd">
<svg version="1.1" xmlns="http://www.w3.org/2000/svg" xmlns:xlink="http://www.w3.org/1999/xlink" width="47" height="32" viewBox="0 0 47 32">
<path d="M18.849 7.75l-4.328 4.319v0.453c0 0.573 0.314 1.027 0.814 1.165 0.472 0.129 16.213 0.129 16.684 0 0.499-0.139 0.814-0.592 0.814-1.165v-0.453l-4.328-4.319-4.319-4.328h-1.017l-4.319 4.328z" fill="#000000"></path>
<path d="M15.288 18.321c-0.453 0.129-0.768 0.601-0.768 1.156v0.453l4.328 4.319 4.319 4.328h1.017l4.319-4.328 4.328-4.319v-0.453c0-0.573-0.314-1.027-0.814-1.165-0.444-0.12-16.305-0.111-16.731 0.009z" fill="#000000"></path>
</svg>
