<?xml version="1.0" encoding="utf-8"?>
<!DOCTYPE svg PUBLIC "-//W3C//DTD SVG 1.1//EN" "http://www.w3.org/Graphics/SVG/1.1/DTD/svg11.dtd">
<svg version="1.1" xmlns="http://www.w3.org/2000/svg" xmlns:xlink="http://www.w3.org/1999/xlink" width="47" height="32" viewBox="0 0 47 32">
<path d="M28.772 3.561c-2.867 0.629-5.262 2.932-6.039 5.827-0.166 0.638-0.203 1.064-0.24 3.071l-0.037 2.331-12.523 0.056-0.333 0.222c-0.176 0.12-0.425 0.37-0.546 0.546l-0.222 0.333-0.028 5.669c-0.018 5.438-0.018 5.679 0.157 6.012 0.213 0.425 0.518 0.721 0.869 0.851 0.176 0.074 3.117 0.102 9.276 0.102 7.445 0 9.064-0.018 9.313-0.129 0.361-0.148 0.758-0.564 0.888-0.916 0.065-0.176 0.102-2.118 0.102-5.817 0-5.484 0-5.568-0.194-5.975-0.12-0.24-0.351-0.499-0.573-0.647-0.342-0.231-0.462-0.25-1.517-0.287l-1.138-0.028v-1.683c0-2.127 0.093-2.784 0.509-3.625 1.128-2.303 3.847-3.191 6.178-2.016 0.86 0.444 1.887 1.683 2.201 2.673 0.074 0.25 0.129 1.36 0.166 3.329 0.046 2.617 0.074 2.987 0.222 3.2 0.277 0.407 0.564 0.499 1.581 0.499 0.814 0 0.971-0.028 1.221-0.203 0.509-0.361 0.518-0.462 0.481-3.884-0.037-3.098-0.046-3.135-0.296-3.958-0.425-1.415-1.147-2.543-2.312-3.635-0.657-0.61-1.739-1.295-2.516-1.582-1.221-0.462-3.348-0.61-4.652-0.333z" fill="#000000"></path>
</svg>
