<?xml version="1.0" encoding="utf-8"?>
<!DOCTYPE svg PUBLIC "-//W3C//DTD SVG 1.1//EN" "http://www.w3.org/Graphics/SVG/1.1/DTD/svg11.dtd">
<svg version="1.1" xmlns="http://www.w3.org/2000/svg" xmlns:xlink="http://www.w3.org/1999/xlink" width="47" height="32" viewBox="0 0 47 32">
<path d="M15.269 3.524c-1.091 0.213-1.609 0.462-2.183 1.045-0.647 0.666-1.332 1.831-1.683 2.876-0.231 0.666-0.25 0.869-0.25 2.081 0 1.526 0.083 1.877 1.027 4.347 1.276 3.366 2.469 5.133 5.475 8.148 3.015 3.015 4.754 4.18 8.148 5.475 2.451 0.943 2.821 1.027 4.347 1.027 1.212 0 1.415-0.018 2.081-0.25 1.045-0.351 2.21-1.036 2.876-1.683 0.509-0.499 0.592-0.638 0.823-1.341 0.157-0.481 0.268-1.091 0.296-1.581 0.046-0.768 0.046-0.805-0.185-1.017-0.139-0.12-0.925-0.592-1.748-1.045-0.832-0.462-1.924-1.091-2.432-1.406-1.23-0.749-1.276-0.777-1.655-0.777-0.425 0-0.962 0.416-1.72 1.341-0.324 0.407-0.832 0.98-1.128 1.267-0.768 0.777-0.842 0.768-2.765-0.388-1.637-0.99-2.469-1.637-3.699-2.858-1.221-1.23-1.868-2.062-2.858-3.699-1.156-1.924-1.165-1.998-0.388-2.765 0.287-0.296 0.86-0.805 1.267-1.128 1.406-1.147 1.609-1.655 1.036-2.599-0.832-1.35-1.212-1.998-1.942-3.32-1.027-1.85-1.027-1.85-1.757-1.84-0.314 0.009-0.758 0.046-0.98 0.092z" fill="#000000"></path>
</svg>
