<?xml version="1.0" encoding="utf-8"?>
<!DOCTYPE svg PUBLIC "-//W3C//DTD SVG 1.1//EN" "http://www.w3.org/Graphics/SVG/1.1/DTD/svg11.dtd">
<svg version="1.1" xmlns="http://www.w3.org/2000/svg" xmlns:xlink="http://www.w3.org/1999/xlink" width="47" height="32" viewBox="0 0 47 32">
<path d="M26.775 3.477c-4.439 0.629-8.185 3.616-9.665 7.686l-0.213 0.583h-0.999c-0.777 0-1.027 0.028-1.138 0.148-0.12 0.12-0.148 0.388-0.148 1.471 0 1.6 0.009 1.619 1.082 1.619h0.675v1.757h-0.694c-1.036 0-1.064 0.046-1.064 1.646 0 1.619-0.037 1.572 1.286 1.609l0.962 0.028 0.222 0.647c1.313 3.894 4.569 6.788 8.629 7.676 0.943 0.203 3.551 0.287 4.532 0.148 1.064-0.157 2.127-0.444 2.331-0.629 0.222-0.203 0.213-0.351-0.12-1.896-0.444-2.109-0.444-2.109-1.619-1.813-0.462 0.12-1.184 0.203-1.979 0.231-1.073 0.037-1.36 0.018-2.035-0.148-2.146-0.536-3.764-1.822-4.754-3.783l-0.24-0.481h3.551c3.783 0 3.755 0 3.884-0.444 0.185-0.675 0.444-2.164 0.398-2.349-0.111-0.425-0.268-0.444-4.643-0.444h-4.116v-1.757h4.467c3.514 0 4.504-0.028 4.634-0.12 0.176-0.129 0.601-1.877 0.61-2.469 0-0.638 0.268-0.592-4.532-0.647l-4.356-0.046 0.462-0.749c0.953-1.544 2.571-2.738 4.31-3.191 0.98-0.25 2.719-0.277 3.866-0.056 1.184 0.24 1.082 0.351 1.674-1.84 0.509-1.859 0.481-1.951-0.684-2.21-0.675-0.148-3.894-0.268-4.578-0.176z" fill="#000000"></path>
</svg>
