<?xml version="1.0" encoding="utf-8"?>
<!DOCTYPE svg PUBLIC "-//W3C//DTD SVG 1.1//EN" "http://www.w3.org/Graphics/SVG/1.1/DTD/svg11.dtd">
<svg version="1.1" xmlns="http://www.w3.org/2000/svg" xmlns:xlink="http://www.w3.org/1999/xlink" width="47" height="32" viewBox="0 0 47 32">
<path d="M22.15 2.321c-3.098 0.324-5.919 1.683-8.185 3.958-2.405 2.414-3.672 5.124-3.995 8.536-0.176 1.933 0.129 4.245 0.795 6.021 1.212 3.2 3.718 5.965 6.807 7.51 3.755 1.877 8.453 1.877 12.208 0 2.608-1.304 4.911-3.588 6.187-6.123 1.156-2.303 1.646-4.892 1.415-7.408-0.324-3.413-1.591-6.123-3.995-8.536-3.006-3.006-6.955-4.402-11.237-3.958zM20.042 9.35c0.139 0.056 1.017 0.851 1.951 1.776l1.683 1.674 1.692-1.674c0.925-0.925 1.803-1.729 1.961-1.785 0.555-0.213 0.851-0.056 1.914 0.999 0.62 0.601 1.036 1.091 1.101 1.286 0.203 0.61 0.083 0.795-1.748 2.645l-1.72 1.729 1.674 1.692c0.925 0.925 1.729 1.803 1.785 1.961 0.213 0.555 0.055 0.851-0.999 1.914-0.601 0.62-1.091 1.036-1.286 1.101-0.61 0.203-0.795 0.083-2.636-1.748l-1.739-1.72-1.729 1.72c-1.85 1.831-2.035 1.951-2.645 1.748-0.194-0.065-0.684-0.481-1.286-1.101-1.054-1.064-1.212-1.36-0.999-1.914 0.055-0.157 0.86-1.036 1.785-1.961l1.674-1.692-1.72-1.729c-1.822-1.85-1.951-2.035-1.748-2.645 0.065-0.176 0.481-0.675 1.054-1.239 1.128-1.128 1.387-1.267 1.979-1.036z" fill="#000000"></path>
</svg>
