<?xml version="1.0" encoding="utf-8"?>
<!DOCTYPE svg PUBLIC "-//W3C//DTD SVG 1.1//EN" "http://www.w3.org/Graphics/SVG/1.1/DTD/svg11.dtd">
<svg version="1.1" xmlns="http://www.w3.org/2000/svg" xmlns:xlink="http://www.w3.org/1999/xlink" width="47" height="32" viewBox="0 0 47 32">
<path d="M13.965 2.368c-0.971 0.213-1.72 0.629-2.506 1.415-0.795 0.805-1.212 1.535-1.424 2.553-0.203 0.962-0.203 18.368 0 19.329 0.213 1.017 0.629 1.748 1.424 2.553 0.805 0.795 1.535 1.212 2.553 1.424 0.962 0.203 18.368 0.203 19.329 0 1.017-0.213 1.748-0.629 2.553-1.424 0.795-0.805 1.212-1.535 1.424-2.553 0.203-0.962 0.203-18.368 0-19.329-0.213-1.017-0.629-1.748-1.424-2.553-0.805-0.795-1.535-1.212-2.553-1.424-0.934-0.194-18.46-0.194-19.376 0.009zM28.208 9.35c0.462 0.111 0.906 0.351 1.369 0.749 0.416 0.351 0.555 0.333 2.506-0.462 0.287-0.111-0.425 0.953-0.962 1.434-0.305 0.287-0.472 0.481-0.37 0.453s0.351-0.074 0.555-0.111c0.203-0.037 0.592-0.139 0.86-0.231l0.49-0.166-0.194 0.268c-0.231 0.324-1.073 1.165-1.36 1.36-0.194 0.129-0.213 0.213-0.213 0.897 0 3.69-2.349 7.519-5.642 9.202-3.089 1.581-6.622 1.609-9.683 0.065l-0.805-0.398 1.11-0.055c1.508-0.065 2.701-0.462 3.921-1.304l0.416-0.287-0.509-0.074c-1.128-0.157-2.238-0.943-2.793-1.979l-0.259-0.462h0.629c0.351 0 0.712-0.046 0.814-0.102 0.157-0.093 0.148-0.102-0.102-0.157-0.925-0.222-2.081-1.202-2.516-2.136-0.231-0.499-0.388-1.332-0.25-1.332 0.046 0 0.351 0.083 0.666 0.185 0.324 0.102 0.703 0.185 0.832 0.185 0.231 0 0.213-0.028-0.277-0.509-0.731-0.712-1.017-1.35-1.073-2.368-0.028-0.564 0-0.943 0.111-1.295 0.25-0.832 0.231-0.832 1.017-0.056 1.646 1.637 3.792 2.71 6.012 3.015 1.128 0.157 1.054 0.194 1.008-0.481-0.093-1.091 0.314-2.136 1.147-2.95 0.925-0.906 2.136-1.212 3.542-0.897z" fill="#000000"></path>
</svg>
