<?xml version="1.0" encoding="utf-8"?>
<!DOCTYPE svg PUBLIC "-//W3C//DTD SVG 1.1//EN" "http://www.w3.org/Graphics/SVG/1.1/DTD/svg11.dtd">
<svg version="1.1" xmlns="http://www.w3.org/2000/svg" xmlns:xlink="http://www.w3.org/1999/xlink" width="47" height="32" viewBox="0 0 47 32">
<path d="M12.31 3.662c-1.683 0.573-3.034 2.053-3.385 3.709-0.203 0.934-0.203 16.324 0 17.258 0.351 1.665 1.711 3.145 3.403 3.718l0.703 0.231h8.305c9.156 0 8.823 0.018 9.961-0.583 0.768-0.398 1.776-1.434 2.164-2.192 0.518-1.036 0.573-1.526 0.573-5.105v-3.209l-0.25-0.194c-0.37-0.287-0.62-0.176-1.415 0.61l-0.694 0.684-0.046 2.802-0.046 2.793-0.25 0.472c-0.296 0.555-0.86 1.091-1.452 1.369-0.425 0.194-0.453 0.194-8.425 0.194-7.676 0-8.018-0.009-8.462-0.176-0.657-0.259-1.378-0.971-1.619-1.6-0.185-0.481-0.185-0.684-0.185-8.444s0-7.963 0.185-8.444c0.24-0.629 0.962-1.341 1.619-1.6 0.444-0.166 0.786-0.176 8.324-0.176 4.328 0 8.037 0.037 8.259 0.074l0.388 0.083 0.647-0.629c0.536-0.518 0.647-0.675 0.647-0.916 0-0.361-0.176-0.527-0.786-0.749-0.435-0.166-0.943-0.176-8.971-0.194l-8.509-0.028-0.684 0.24z" fill="#000000"></path>
<path d="M34.599 4.634c-0.12 0.046-2.886 2.738-6.141 5.965l-5.919 5.882-2.46-2.451c-2.645-2.636-2.784-2.738-3.551-2.608-0.333 0.065-0.536 0.222-1.619 1.286-0.684 0.666-1.295 1.323-1.369 1.461-0.166 0.324-0.166 1.027 0 1.35 0.074 0.139 1.979 2.090 4.236 4.338 3.635 3.625 4.134 4.088 4.449 4.153 0.851 0.148 0.509 0.453 8.601-7.621 4.106-4.106 7.528-7.593 7.602-7.75 0.166-0.342 0.176-0.842 0.037-1.212s-2.284-2.516-2.719-2.719c-0.407-0.185-0.805-0.213-1.147-0.074z" fill="#000000"></path>
</svg>
