<?xml version="1.0" encoding="utf-8"?>
<!DOCTYPE svg PUBLIC "-//W3C//DTD SVG 1.1//EN" "http://www.w3.org/Graphics/SVG/1.1/DTD/svg11.dtd">
<svg version="1.1" xmlns="http://www.w3.org/2000/svg" xmlns:xlink="http://www.w3.org/1999/xlink" width="47" height="32" viewBox="0 0 47 32">
<path d="M22.381 2.321c-5.799 0.527-10.682 4.763-12.069 10.479-1.508 6.197 1.535 12.671 7.306 15.528 3.2 1.581 6.844 1.84 10.303 0.74 2.099-0.666 3.838-1.729 5.494-3.366 1.36-1.35 1.378-1.212-0.379-2.969-1.729-1.729-1.683-1.72-2.719-0.592-1.434 1.554-3.181 2.497-5.281 2.83-0.99 0.166-2.765 0.074-3.672-0.185-2.608-0.74-4.661-2.451-5.836-4.855-0.731-1.508-0.869-2.136-0.869-3.931s0.139-2.423 0.869-3.931c0.962-1.97 2.386-3.366 4.384-4.301 1.221-0.573 1.97-0.749 3.44-0.805 1.517-0.056 2.571 0.12 3.792 0.62 0.74 0.314 2.164 1.202 2.488 1.563l0.185 0.203-1.323 1.323c-1.397 1.397-1.544 1.637-1.378 2.247 0.093 0.361 0.536 0.74 0.934 0.814 0.166 0.028 2.173 0.046 4.458 0.028 3.995-0.028 4.171-0.037 4.412-0.213 0.499-0.379 0.49-0.25 0.518-4.671 0.019-2.266 0-4.282-0.028-4.486-0.074-0.462-0.324-0.777-0.749-0.925-0.61-0.203-0.851-0.074-2.238 1.239-0.712 0.666-1.313 1.212-1.35 1.212-0.028 0-0.231-0.157-0.453-0.361-0.573-0.527-1.822-1.35-2.775-1.831-1.591-0.795-3.218-1.258-5.013-1.415-1.045-0.102-1.341-0.092-2.451 0.009z" fill="#000000"></path>
</svg>
