<?xml version="1.0" encoding="utf-8"?>
<!DOCTYPE svg PUBLIC "-//W3C//DTD SVG 1.1//EN" "http://www.w3.org/Graphics/SVG/1.1/DTD/svg11.dtd">
<svg version="1.1" xmlns="http://www.w3.org/2000/svg" xmlns:xlink="http://www.w3.org/1999/xlink" width="47" height="32" viewBox="0 0 47 32">
<path d="M13.965 2.368c-0.971 0.213-1.72 0.629-2.506 1.415-0.795 0.805-1.212 1.535-1.424 2.553-0.203 0.962-0.203 18.368 0 19.329 0.213 1.017 0.629 1.748 1.424 2.553 0.805 0.795 1.535 1.212 2.553 1.424 0.962 0.203 18.368 0.203 19.329 0 1.017-0.213 1.748-0.629 2.553-1.424 0.795-0.805 1.212-1.535 1.424-2.553 0.203-0.962 0.203-18.368 0-19.329-0.213-1.017-0.629-1.748-1.424-2.553-0.805-0.795-1.535-1.212-2.553-1.424-0.934-0.194-18.46-0.194-19.376 0.009zM33.665 6.973v1.877l-1.332 0.046c-2.081 0.083-2.183 0.185-2.183 2.266v1.323h3.542l-0.056 0.342c-0.028 0.194-0.129 1.073-0.213 1.942l-0.166 1.6h-3.108v11.283h-4.624v-11.283h-2.312v-3.884h2.284l0.055-1.785c0.074-2.488 0.37-3.496 1.258-4.384 0.962-0.971 1.905-1.193 5.077-1.221l1.776-0.009v1.887z" fill="#000000"></path>
</svg>
