<?xml version="1.0" encoding="utf-8"?>
<!DOCTYPE svg PUBLIC "-//W3C//DTD SVG 1.1//EN" "http://www.w3.org/Graphics/SVG/1.1/DTD/svg11.dtd">
<svg version="1.1" xmlns="http://www.w3.org/2000/svg" xmlns:xlink="http://www.w3.org/1999/xlink" width="47" height="32" viewBox="0 0 47 32">
<path d="M22.15 2.321c-3.098 0.324-5.919 1.683-8.185 3.958-2.405 2.414-3.672 5.124-3.995 8.536-0.176 1.933 0.129 4.245 0.795 6.021 1.212 3.2 3.718 5.965 6.807 7.51 3.755 1.877 8.453 1.877 12.208 0 2.608-1.304 4.911-3.588 6.187-6.123 1.156-2.303 1.646-4.892 1.415-7.408-0.324-3.413-1.591-6.123-3.995-8.536-3.006-3.006-6.955-4.402-11.237-3.958zM27.015 8.018c1.202 1.202 1.36 1.452 1.239 1.942-0.037 0.166-1.054 1.258-2.941 3.145l-2.886 2.895 2.886 2.886c1.887 1.896 2.904 2.987 2.941 3.145 0.12 0.499-0.037 0.749-1.239 1.951l-1.184 1.175h-0.897l-4.282-4.273c-2.987-2.987-4.31-4.365-4.384-4.578-0.065-0.222-0.065-0.388 0-0.61 0.074-0.213 1.397-1.591 4.384-4.578l4.282-4.273h0.897l1.184 1.175z" fill="#000000"></path>
</svg>
