<?xml version="1.0" encoding="utf-8"?>
<!DOCTYPE svg PUBLIC "-//W3C//DTD SVG 1.1//EN" "http://www.w3.org/Graphics/SVG/1.1/DTD/svg11.dtd">
<svg version="1.1" xmlns="http://www.w3.org/2000/svg" xmlns:xlink="http://www.w3.org/1999/xlink" width="47" height="32" viewBox="0 0 47 32">
<path d="M8.009 3.746c-0.388 0.379-0.462 0.823-0.407 2.377 0.028 0.823 0.065 1.11 0.213 1.341 0.37 0.62-0.314 0.583 11.283 0.583 9.406 0 10.543-0.018 10.821-0.148 0.546-0.259 0.638-0.499 0.675-1.813 0.055-1.591-0.009-1.942-0.407-2.34l-0.324-0.324h-21.531l-0.324 0.324z" fill="#000000"></path>
<path d="M8.203 10.442c-0.546 0.351-0.573 0.472-0.573 2.136 0 1.378 0.019 1.554 0.185 1.776 0.416 0.573-0.564 0.536 14.751 0.536 15.26 0 14.289 0.037 14.668-0.527 0.148-0.222 0.185-0.472 0.203-1.6 0.037-1.582-0.056-1.97-0.527-2.284l-0.314-0.213h-14.067c-13.531 0-14.076 0.009-14.326 0.176z" fill="#000000"></path>
<path d="M8.277 17.258c-0.592 0.296-0.647 0.481-0.647 2.127s0.056 1.85 0.564 2.164c0.287 0.185 0.518 0.185 12.060 0.185 12.966 0 12.069 0.037 12.43-0.555 0.222-0.388 0.222-3.135-0.009-3.524-0.342-0.573 0.388-0.546-12.439-0.546-10.257 0-11.718 0.018-11.958 0.148z" fill="#000000"></path>
<path d="M8.268 24.102c-0.49 0.24-0.629 0.601-0.666 1.776-0.056 1.554 0.019 1.998 0.407 2.377l0.324 0.324h30.687l0.324-0.324c0.388-0.379 0.462-0.823 0.407-2.377-0.028-0.823-0.065-1.11-0.213-1.341-0.37-0.629 0.795-0.583-15.88-0.583-13.262 0-15.14 0.018-15.39 0.148z" fill="#000000"></path>
</svg>
