<?xml version="1.0" encoding="utf-8"?>
<!DOCTYPE svg PUBLIC "-//W3C//DTD SVG 1.1//EN" "http://www.w3.org/Graphics/SVG/1.1/DTD/svg11.dtd">
<svg version="1.1" xmlns="http://www.w3.org/2000/svg" xmlns:xlink="http://www.w3.org/1999/xlink" width="47" height="32" viewBox="0 0 47 32">
<path d="M13.373 2.358c-0.435 0.157-0.869 0.546-1.036 0.943-0.194 0.444-0.194 24.943 0 25.397 0.157 0.398 0.703 0.86 1.138 0.98 0.49 0.139 19.912 0.139 20.402 0 0.435-0.12 0.98-0.583 1.138-0.98 0.102-0.24 0.129-1.683 0.129-7.658v-7.353h-4.92c-3.311 0-5.050-0.037-5.299-0.102-0.546-0.157-1.017-0.675-1.147-1.267-0.065-0.333-0.102-2.062-0.102-5.29v-4.809h-4.966c-3.986 0.009-5.050 0.037-5.336 0.139zM30.289 18.543c0.203 0.194 0.231 0.305 0.231 0.832 0 0.592-0.102 0.943-0.314 1.082-0.055 0.037-2.997 0.074-6.529 0.074s-6.474-0.037-6.529-0.074c-0.213-0.139-0.314-0.49-0.314-1.082 0-0.527 0.028-0.638 0.231-0.832l0.222-0.231h12.781l0.222 0.231zM30.345 23.094c0.083 0.102 0.129 0.398 0.129 0.906s-0.046 0.805-0.129 0.906c-0.111 0.148-0.694 0.157-6.668 0.157s-6.557-0.009-6.668-0.157c-0.083-0.102-0.129-0.398-0.129-0.906s0.046-0.805 0.129-0.906c0.111-0.148 0.694-0.157 6.668-0.157s6.557 0.009 6.668 0.157z" fill="#000000"></path>
<path d="M25.896 6.89v4.578h9.184l-0.065-0.388c-0.037-0.213-0.194-0.657-0.351-0.99-0.25-0.546-0.62-0.953-3.44-3.764-1.729-1.739-3.329-3.265-3.542-3.403-0.388-0.24-1.387-0.61-1.646-0.61-0.12 0-0.139 0.527-0.139 4.578z" fill="#000000"></path>
</svg>
