<?xml version="1.0" encoding="utf-8"?>
<!DOCTYPE svg PUBLIC "-//W3C//DTD SVG 1.1//EN" "http://www.w3.org/Graphics/SVG/1.1/DTD/svg11.dtd">
<svg version="1.1" xmlns="http://www.w3.org/2000/svg" xmlns:xlink="http://www.w3.org/1999/xlink" width="47" height="32" viewBox="0 0 47 32">
<path d="M18.516 3.524c-2.71 0.472-5.262 2.442-6.576 5.050-0.518 1.045-0.758 2.053-0.814 3.477l-0.056 1.276-0.379 0.194c-1.905 0.962-3.468 3.024-4.005 5.29-0.111 0.462-0.157 1.036-0.157 1.905 0.009 1.082 0.046 1.36 0.259 2.081 0.86 2.867 3.181 5.040 6.021 5.642 0.546 0.111 2.275 0.139 11.376 0.139 12.069 0 11.403 0.037 12.902-0.703 0.74-0.37 1.008-0.564 1.711-1.276 1.276-1.286 1.794-2.321 2.016-4.060 0.333-2.562-0.888-5.179-3.080-6.613-0.49-0.324-1.286-0.675-2.025-0.906-0.102-0.028-0.093-0.083 0.019-0.259 0.536-0.805 0.694-2.469 0.342-3.579-0.869-2.821-4.236-4.079-6.788-2.534-0.296 0.176-0.555 0.314-0.564 0.305-0.018-0.018-0.157-0.296-0.324-0.629-1.073-2.146-3.154-3.847-5.614-4.587-0.703-0.213-1.008-0.25-2.294-0.277-0.814-0.009-1.702 0.009-1.97 0.065zM24.638 10.562c0.129 0.176 0.148 0.666 0.148 3.422v3.218h2.118c2.321 0 2.414 0.018 2.414 0.536 0 0.351-6.4 6.77-6.751 6.77-0.185 0-0.962-0.731-3.542-3.311-2.044-2.044-3.302-3.366-3.302-3.477 0-0.102 0.065-0.259 0.157-0.351 0.139-0.148 0.333-0.166 2.266-0.166h2.109v-3.154c0-3.117 0.028-3.431 0.314-3.616 0.055-0.037 0.962-0.074 2.016-0.074 1.877 0 1.914 0 2.053 0.203z" fill="#000000"></path>
</svg>
