<?xml version="1.0" encoding="utf-8"?>
<!DOCTYPE svg PUBLIC "-//W3C//DTD SVG 1.1//EN" "http://www.w3.org/Graphics/SVG/1.1/DTD/svg11.dtd">
<svg version="1.1" xmlns="http://www.w3.org/2000/svg" xmlns:xlink="http://www.w3.org/1999/xlink" width="47" height="32" viewBox="0 0 47 32">
<path d="M17.776 3.561c-2.95 0.462-5.309 1.48-7.251 3.126-1.267 1.082-2.349 2.784-2.71 4.254-0.213 0.897-0.194 2.414 0.046 3.339 0.472 1.859 1.924 3.773 3.792 5.013 0.351 0.24 0.647 0.472 0.647 0.518 0 0.157-0.453 0.98-0.795 1.424-0.194 0.25-0.629 0.777-0.98 1.175-0.694 0.786-0.758 1.008-0.407 1.415l0.213 0.259 0.916-0.157c1.887-0.333 3.81-1.101 5.568-2.229 0.333-0.213 0.351-0.222 1.175-0.102 1.147 0.176 3.339 0.166 4.597-0.009 4.032-0.555 7.26-2.358 9.082-5.068 0.795-1.202 1.165-2.469 1.165-4.032 0-4.365-4.162-8.018-10.155-8.925-1.147-0.166-3.801-0.166-4.902 0z" fill="#000000"></path>
<path d="M34.719 10.081c0.37 1.711 0.416 2.608 0.194 3.949-0.333 2.072-1.258 3.764-2.997 5.484-1.813 1.803-4.051 3.052-6.761 3.783-1.702 0.462-3.829 0.712-5.429 0.629-0.573-0.028-1.045-0.018-1.045 0.018 0 0.12 1.35 0.851 2.266 1.221 1.073 0.444 2.294 0.777 3.561 0.971 1.184 0.176 3.579 0.203 4.828 0.037l0.906-0.111 0.573 0.37c1.378 0.897 3.718 1.822 5.216 2.053 0.906 0.148 1.175 0.093 1.332-0.268 0.157-0.379 0.065-0.583-0.573-1.286-0.314-0.342-0.721-0.832-0.916-1.082-0.333-0.444-0.823-1.332-0.823-1.489 0-0.046 0.194-0.203 0.444-0.351 2.016-1.258 3.533-3.237 4.032-5.272 0.314-1.267 0.185-2.895-0.333-4.217-0.61-1.554-2.155-3.311-3.727-4.254-0.203-0.12-0.472-0.287-0.592-0.361l-0.222-0.148 0.065 0.324z" fill="#000000"></path>
</svg>
