<?xml version="1.0" encoding="utf-8"?>
<!DOCTYPE svg PUBLIC "-//W3C//DTD SVG 1.1//EN" "http://www.w3.org/Graphics/SVG/1.1/DTD/svg11.dtd">
<svg version="1.1" xmlns="http://www.w3.org/2000/svg" xmlns:xlink="http://www.w3.org/1999/xlink" width="47" height="32" viewBox="0 0 47 32">
<path d="M8.009 3.746c-0.388 0.379-0.462 0.823-0.407 2.377 0.028 0.823 0.065 1.11 0.213 1.341 0.37 0.629-0.795 0.583 15.861 0.583s15.491 0.046 15.861-0.583c0.148-0.231 0.185-0.518 0.213-1.341 0.056-1.554-0.019-1.998-0.407-2.377l-0.324-0.324h-30.687l-0.324 0.324z" fill="#000000"></path>
<path d="M8.203 10.442c-0.546 0.351-0.573 0.472-0.573 2.136 0 1.378 0.019 1.554 0.185 1.776 0.425 0.573-0.675 0.536 15.861 0.536s15.436 0.037 15.861-0.536c0.166-0.222 0.185-0.398 0.185-1.739 0-1.646-0.056-1.85-0.564-2.164-0.287-0.185-0.536-0.185-15.491-0.185-14.64 0-15.214 0.009-15.464 0.176z" fill="#000000"></path>
<path d="M8.277 17.258c-0.592 0.296-0.647 0.481-0.647 2.127s0.056 1.85 0.564 2.164c0.287 0.185 0.536 0.185 15.482 0.185s15.195 0 15.482-0.185c0.509-0.314 0.564-0.518 0.564-2.164 0-1.341-0.019-1.517-0.185-1.739-0.425-0.573 0.684-0.536-15.88-0.536-13.309 0-15.14 0.018-15.38 0.148z" fill="#000000"></path>
<path d="M8.268 24.102c-0.49 0.24-0.629 0.601-0.666 1.776-0.056 1.554 0.019 1.998 0.407 2.377l0.324 0.324h30.687l0.324-0.324c0.388-0.379 0.462-0.823 0.407-2.377-0.028-0.823-0.065-1.11-0.213-1.341-0.37-0.629 0.795-0.583-15.88-0.583-13.262 0-15.14 0.018-15.39 0.148z" fill="#000000"></path>
</svg>
