<?xml version="1.0" encoding="utf-8"?>
<!DOCTYPE svg PUBLIC "-//W3C//DTD SVG 1.1//EN" "http://www.w3.org/Graphics/SVG/1.1/DTD/svg11.dtd">
<svg version="1.1" xmlns="http://www.w3.org/2000/svg" xmlns:xlink="http://www.w3.org/1999/xlink" width="47" height="32" viewBox="0 0 47 32">
<path d="M22.15 2.321c-3.098 0.324-5.919 1.683-8.185 3.958-2.405 2.414-3.672 5.124-3.995 8.536-0.176 1.933 0.129 4.245 0.795 6.021 1.212 3.2 3.718 5.965 6.807 7.51 3.755 1.877 8.453 1.877 12.208 0 2.608-1.304 4.911-3.588 6.187-6.123 1.156-2.303 1.646-4.892 1.415-7.408-0.324-3.413-1.591-6.123-3.995-8.536-3.006-3.006-6.955-4.402-11.237-3.958zM22.733 5.114c0.065 0.046 0.093 0.157 0.065 0.24-0.037 0.111 0.046 0.185 0.277 0.277 0.176 0.065 0.324 0.157 0.324 0.222 0 0.074 0.028 0.074 0.111-0.009 0.166-0.166 0.24-0.139 0.398 0.166 0.083 0.148 0.185 0.277 0.24 0.277 0.129 0 0.638-0.573 0.592-0.657-0.065-0.093 0.351-0.185 0.444-0.093 0.046 0.046 0.102 0.259 0.12 0.472 0.046 0.388 0.046 0.388-0.213 0.351-0.139-0.028-0.333-0.083-0.416-0.12-0.12-0.046-0.222 0.009-0.37 0.185-0.499 0.601-0.62 0.694-0.925 0.694-0.25 0.009-0.351 0.074-0.564 0.379-0.305 0.444-0.481 1.193-0.287 1.193 0.074 0 0.148 0.102 0.185 0.231 0.046 0.203 0.111 0.231 0.444 0.231 0.444 0.009 1.008 0.194 1.249 0.407 0.093 0.092 0.231 0.129 0.324 0.092 0.213-0.083 0.462 0.166 0.647 0.657 0.176 0.462 0.425 0.592 0.758 0.407 0.231-0.12 0.287-0.305 0.129-0.407-0.185-0.12-0.093-0.472 0.185-0.675 0.333-0.25 0.37-0.592 0.074-0.795-0.166-0.12-0.185-0.176-0.093-0.37 0.055-0.129 0.074-0.379 0.046-0.555-0.055-0.333-0.046-0.333 0.277-0.333 0.462 0 1.341 0.342 1.461 0.573 0.055 0.102 0.074 0.24 0.046 0.324-0.037 0.083 0.009 0.157 0.129 0.185 0.102 0.028 0.157 0.083 0.129 0.129-0.12 0.203 0.758-0.102 0.916-0.324 0.102-0.139 0.148-0.111 0.416 0.268 0.157 0.231 0.296 0.462 0.296 0.518 0 0.194 0.444 0.536 0.629 0.49 0.12-0.037 0.24 0.028 0.37 0.185 0.102 0.129 0.231 0.24 0.287 0.24 0.24 0 0.093 0.37-0.203 0.49-0.166 0.074-0.37 0.194-0.453 0.277-0.111 0.12-0.213 0.129-0.444 0.065-0.333-0.092-1.175 0.028-1.646 0.25-0.333 0.157-0.684 0.675-0.444 0.675 0.065 0 0.176-0.065 0.25-0.148 0.185-0.231 0.629-0.425 0.832-0.361 0.222 0.074 0.139 0.231-0.12 0.231-0.185 0-0.176 0.009 0.055 0.24 0.129 0.139 0.24 0.277 0.24 0.314 0 0.028-0.314 0.222-0.703 0.416-0.546 0.277-0.703 0.407-0.74 0.601-0.037 0.185-0.148 0.277-0.435 0.379-0.287 0.092-0.398 0.185-0.416 0.342-0.028 0.176-0.074 0.213-0.24 0.166-0.157-0.037-0.24 0-0.314 0.157-0.185 0.398-0.194 0.518-0.046 0.61 0.25 0.139-0.129 0.749-0.601 0.98-0.231 0.111-0.444 0.305-0.546 0.49-0.166 0.305-0.166 0.314 0.028 0.472 0.148 0.12 0.222 0.314 0.268 0.731 0.093 0.832-0.148 0.768-0.481-0.12-0.12-0.324-0.222-0.462-0.351-0.472-0.102-0.009-0.342-0.083-0.536-0.166-0.185-0.083-0.444-0.129-0.564-0.093-0.157 0.037-0.25 0-0.324-0.12-0.083-0.148-0.093-0.129-0.102 0.111v0.277l-0.694-0.028c-0.61-0.037-0.684-0.018-0.638 0.111 0.037 0.093 0.009 0.148-0.093 0.148-0.231 0-0.361 0.37-0.388 1.156-0.028 0.869 0.093 1.35 0.407 1.674 0.203 0.194 0.305 0.222 0.703 0.203 0.444-0.028 0.481-0.046 0.629-0.37 0.185-0.379 0.444-0.564 0.675-0.481 0.157 0.065 0.157 0.102-0.083 0.731-0.074 0.203-0.139 0.481-0.148 0.629 0 0.25 0 0.25 0.499 0.203l0.499-0.046 0.213 0.435c0.185 0.379 0.194 0.425 0.055 0.509-0.203 0.111-0.194 0.333 0.028 0.694 0.093 0.166 0.148 0.324 0.102 0.342-0.111 0.074-0.795-0.62-0.925-0.953-0.093-0.203-0.185-0.287-0.333-0.287-0.333 0-0.805-0.24-1.11-0.546-0.24-0.259-0.314-0.287-0.786-0.268-0.444 0.009-0.601-0.037-1.221-0.379-0.388-0.213-0.749-0.435-0.795-0.499s-0.148-0.324-0.222-0.592c-0.083-0.259-0.296-0.657-0.481-0.879-0.786-0.925-1.35-1.702-1.35-1.85 0-0.139-0.25-0.351-0.407-0.351-0.148 0-0.018 0.407 0.324 1.064 0.351 0.666 0.361 0.703 0.139 0.546-0.129-0.102-0.24-0.24-0.24-0.314 0-0.083-0.055-0.222-0.129-0.324s-0.277-0.481-0.462-0.842c-0.213-0.407-0.435-0.703-0.61-0.805-0.287-0.176-0.703-0.666-0.758-0.897-0.018-0.074-0.102-0.203-0.203-0.277-0.092-0.083-0.203-0.351-0.25-0.61-0.074-0.499-0.009-1.406 0.12-1.48 0.037-0.028 0.009-0.139-0.065-0.25-0.176-0.259-0.176-0.398 0-0.25 0.194 0.166 0.435 0.046 0.398-0.203-0.018-0.139-0.213-0.333-0.527-0.546-0.277-0.185-0.536-0.425-0.583-0.536-0.037-0.102-0.129-0.194-0.213-0.194-0.074 0-0.139-0.065-0.139-0.139 0-0.083-0.065-0.166-0.139-0.194-0.194-0.074 0.435-0.971 1.387-1.961 0.786-0.832 2.488-2.053 2.849-2.053 0.111 0 0.361 0.102 0.555 0.231l0.342 0.24v-0.222c0-0.231 0.194-0.342 0.629-0.342 0.111 0 0.203-0.028 0.203-0.065 0-0.12-0.305-0.398-0.453-0.407-0.102 0-0.083-0.037 0.055-0.102 0.259-0.129 0.49 0.037 0.49 0.342 0 0.351 0.194 0.425 0.906 0.361l0.647-0.065 0.176 0.314 0.166 0.314 0.028-0.305c0.018-0.222 0.093-0.324 0.259-0.388 0.333-0.129 0.268-0.351-0.148-0.518-0.398-0.157-0.435-0.213-0.259-0.388 0.111-0.111 0.499-0.056 0.703 0.102zM27.801 22.52c-0.037 0.203-0.028 0.324 0.037 0.324 0.046 0 0.093-0.074 0.093-0.166 0-0.194 0.166-0.388 0.342-0.388 0.055 0 0.324 0.129 0.592 0.277 0.425 0.259 0.499 0.277 0.777 0.176 0.287-0.102 0.333-0.093 0.758 0.203 0.24 0.176 0.481 0.416 0.536 0.518 0.055 0.129 0.24 0.24 0.499 0.314l0.416 0.12-0.601 0.546c-1.415 1.295-3.496 2.358-5.235 2.682-0.342 0.065-0.388-0.046-0.203-0.573 0.083-0.222 0.083-0.324 0-0.407-0.185-0.185-0.111-0.407 0.277-0.897l0.388-0.49-0.065-0.86c-0.065-0.832-0.065-0.851 0.12-0.805 0.12 0.028 0.194 0.009 0.194-0.065 0-0.185 0.749-0.832 0.953-0.832 0.157 0 0.166 0.046 0.12 0.324zM25.896 23.075c0 0.194-0.25 0.277-0.416 0.139-0.213-0.176-0.166-0.277 0.139-0.277 0.185 0 0.277 0.046 0.277 0.139z" fill="#000000"></path>
</svg>
