<?xml version="1.0" encoding="utf-8"?>
<!DOCTYPE svg PUBLIC "-//W3C//DTD SVG 1.1//EN" "http://www.w3.org/Graphics/SVG/1.1/DTD/svg11.dtd">
<svg version="1.1" xmlns="http://www.w3.org/2000/svg" xmlns:xlink="http://www.w3.org/1999/xlink" width="47" height="32" viewBox="0 0 47 32">
<path d="M24.657 1.202c-0.786 0.25-1.572 1.175-1.942 2.284-0.129 0.398-0.361 1.276-0.518 1.942-0.314 1.415-0.472 1.757-1.091 2.442-0.24 0.277-1.054 1.249-1.794 2.164s-1.535 1.84-1.748 2.053l-0.407 0.388-2.728 0.028c-2.377 0.028-2.775 0.056-3.098 0.194-0.462 0.213-0.925 0.647-1.184 1.128-0.203 0.37-0.203 0.416-0.231 6.511-0.018 5.336-0.009 6.197 0.12 6.631 0.157 0.555 0.527 1.027 1.045 1.35 0.333 0.203 0.416 0.213 3.487 0.259l3.144 0.055 2.312 0.758c4.273 1.387 5.151 1.544 8.601 1.48 2.451-0.055 2.719-0.102 3.866-0.694 0.768-0.407 1.6-1.267 2.007-2.090 0.268-0.555 0.546-1.711 0.555-2.331 0-0.157 0.102-0.425 0.222-0.61 0.222-0.333 0.453-0.823 0.629-1.332 0.056-0.157 0.129-0.758 0.166-1.341 0.056-0.851 0.12-1.193 0.333-1.711 0.24-0.601 0.259-0.74 0.268-1.896 0-1.175 0.019-1.276 0.268-1.794 0.527-1.101 0.62-2.608 0.231-3.727-0.342-0.999-1.23-2.025-2.21-2.562-0.786-0.435-1.36-0.518-3.357-0.518-1.72 0-1.84-0.009-1.776-0.166 0.601-1.397 0.823-2.775 0.694-4.18-0.111-1.147-0.231-1.665-0.555-2.321-0.749-1.544-2.127-2.358-4.116-2.442-0.509-0.028-1.045-0.009-1.193 0.046zM26.978 3.801c0.814 0.407 1.184 1.286 1.175 2.858 0 1.064-0.083 1.387-0.805 3.006-0.499 1.147-0.703 1.757-0.795 2.377l-0.074 0.527 3.385 0.028c3.746 0.028 3.783 0.037 4.439 0.657 0.388 0.37 0.749 1.119 0.749 1.563 0 0.573-0.37 1.545-0.731 1.924-0.185 0.194-0.388 0.361-0.453 0.379-0.093 0.028-0.065 0.166 0.129 0.546 0.499 0.999 0.388 2.247-0.296 3.034l-0.324 0.379 0.148 0.351c0.351 0.851 0.102 2.081-0.564 2.784l-0.407 0.425 0.056 0.583c0.083 0.777-0.102 1.6-0.472 2.146-0.213 0.314-0.453 0.509-0.925 0.749l-0.629 0.324-2.164 0.028c-3.024 0.046-4.060-0.139-7.889-1.434-1.776-0.592-2.201-0.703-2.886-0.749l-0.814-0.046v-11.348h0.444c0.24 0 0.61-0.083 0.823-0.176 0.527-0.25 1.711-1.406 2.636-2.58 0.425-0.536 1.23-1.535 1.794-2.22 0.564-0.675 1.147-1.443 1.286-1.692 0.139-0.259 0.435-1.221 0.684-2.192 0.24-0.953 0.536-1.914 0.647-2.136l0.213-0.407 0.592 0.055c0.351 0.028 0.768 0.129 1.027 0.259zM13.734 24.139c0.925 0.351 0.925 1.609 0 1.998-0.629 0.259-1.434-0.296-1.434-0.98 0-0.314 0.268-0.731 0.583-0.925 0.333-0.203 0.499-0.222 0.851-0.093z" fill="#000000"></path>
</svg>
