<?xml version="1.0" encoding="utf-8"?>
<!DOCTYPE svg PUBLIC "-//W3C//DTD SVG 1.1//EN" "http://www.w3.org/Graphics/SVG/1.1/DTD/svg11.dtd">
<svg version="1.1" xmlns="http://www.w3.org/2000/svg" xmlns:xlink="http://www.w3.org/1999/xlink" width="47" height="32" viewBox="0 0 47 32">
<path d="M16.721 2.405c-1.406 0.25-2.469 0.823-3.551 1.896-1.239 1.23-1.794 2.349-1.979 4.014-0.203 1.813 0.203 3.403 1.249 4.865 0.222 0.305 3.746 3.884 7.834 7.954 7.982 7.963 7.871 7.861 9.276 8.305 0.851 0.268 2.506 0.277 3.283 0.028 1.387-0.462 2.469-1.461 3.043-2.812 0.277-0.666 0.407-1.859 0.287-2.719-0.12-0.851-0.222-1.165-0.629-1.97-0.296-0.592-0.842-1.165-6.113-6.456-5.013-5.022-5.864-5.845-6.345-6.086-1.868-0.916-4.042-0.222-4.929 1.582-0.222 0.462-0.25 0.61-0.25 1.526 0 0.962 0.018 1.054 0.305 1.665 0.277 0.592 0.601 0.934 4.254 4.597 3.218 3.218 3.995 3.958 4.19 3.958 0.462 0 1.471-1.017 1.471-1.471 0-0.194-0.758-0.999-3.838-4.079-4.18-4.171-4.227-4.236-4.032-4.976 0.194-0.721 0.971-1.027 1.702-0.675 0.268 0.129 2.044 1.85 5.817 5.623 5.059 5.068 5.447 5.484 5.725 6.067 0.333 0.731 0.444 1.6 0.277 2.21-0.157 0.564-0.666 1.221-1.184 1.526-0.407 0.231-0.527 0.259-1.323 0.259-1.581 0-0.99 0.499-9.489-8.018-4.855-4.874-7.491-7.575-7.658-7.871-0.388-0.684-0.555-1.323-0.555-2.192-0.009-1.332 0.388-2.294 1.341-3.246 1.313-1.313 3.274-1.628 4.985-0.814 0.546 0.268 1.138 0.832 6.428 6.104 5.003 4.985 5.873 5.817 6.104 5.817 0.379 0 1.434-1.054 1.434-1.434 0-0.231-0.758-1.027-5.336-5.623-2.941-2.95-5.651-5.614-6.021-5.938-0.758-0.657-1.619-1.138-2.562-1.434-0.721-0.222-2.46-0.324-3.209-0.185z" fill="#000000"></path>
</svg>
