<?xml version="1.0" encoding="utf-8"?>
<!DOCTYPE svg PUBLIC "-//W3C//DTD SVG 1.1//EN" "http://www.w3.org/Graphics/SVG/1.1/DTD/svg11.dtd">
<svg version="1.1" xmlns="http://www.w3.org/2000/svg" xmlns:xlink="http://www.w3.org/1999/xlink" width="47" height="32" viewBox="0 0 47 32">
<path d="M35.292 2.414l-0.24 0.185v26.802l0.24 0.185c0.231 0.185 0.361 0.194 2.118 0.194 1.711 0 1.896-0.018 2.090-0.176l0.222-0.176v-26.858l-0.222-0.176c-0.194-0.157-0.379-0.176-2.090-0.176-1.757 0-1.887 0.009-2.118 0.194z" fill="#000000"></path>
<path d="M28.393 11.561c-0.185 0.185-0.185 0.305-0.185 8.999 0 7.464 0.018 8.842 0.129 8.999 0.12 0.166 0.277 0.176 2.090 0.203 1.665 0.028 1.988 0.009 2.183-0.12l0.222-0.139v-17.84l-0.203-0.139c-0.176-0.12-0.536-0.148-2.127-0.148-1.803 0-1.933 0.009-2.109 0.185z" fill="#000000"></path>
<path d="M21.734 18.284c-0.37 0.139-0.37 0.148-0.37 5.716 0 4.495 0.018 5.401 0.129 5.558 0.129 0.166 0.259 0.176 2.183 0.176s2.053-0.009 2.183-0.176c0.194-0.268 0.194-10.849 0-11.117-0.12-0.166-0.268-0.176-2.062-0.194-1.054-0.009-1.988 0.009-2.062 0.037z" fill="#000000"></path>
<path d="M14.668 22.992c-0.129 0.12-0.148 0.555-0.148 3.32v3.191l0.222 0.139c0.194 0.129 0.518 0.148 2.183 0.12 1.813-0.028 1.97-0.037 2.090-0.203 0.102-0.148 0.129-0.758 0.129-3.293 0-2.904-0.009-3.126-0.166-3.265-0.148-0.139-0.444-0.157-2.173-0.157-1.692 0-2.016 0.018-2.136 0.148z" fill="#000000"></path>
<path d="M7.963 25.175c-0.342 0.176-0.398 0.555-0.361 2.497 0.037 2.294-0.166 2.109 2.34 2.109 1.757 0 1.887-0.009 2.118-0.194l0.24-0.185v-1.97c0-1.887-0.009-1.979-0.194-2.146-0.176-0.157-0.379-0.176-2.062-0.203-1.36-0.018-1.924 0.009-2.081 0.093z" fill="#000000"></path>
</svg>
