<?xml version="1.0" encoding="utf-8"?>
<!DOCTYPE svg PUBLIC "-//W3C//DTD SVG 1.1//EN" "http://www.w3.org/Graphics/SVG/1.1/DTD/svg11.dtd">
<svg version="1.1" xmlns="http://www.w3.org/2000/svg" xmlns:xlink="http://www.w3.org/1999/xlink" width="47" height="32" viewBox="0 0 47 32">
<path d="M28.254 1.397c-1.304 0.444-2.044 0.869-2.821 1.655-1.128 1.119-1.822 2.747-1.998 4.652l-0.065 0.731 0.546-0.065c1.461-0.176 2.183-0.49 3.145-1.369 1.489-1.36 2.395-3.366 2.331-5.114-0.018-0.564-0.055-0.731-0.166-0.749-0.074-0.018-0.509 0.102-0.971 0.259z" fill="#000000"></path>
<path d="M28.902 7.871c-0.684 0.065-1.332 0.222-3.191 0.768-1.508 0.444-1.877 0.444-3.727-0.028-1.822-0.472-2.867-0.657-3.709-0.657-5.022 0.009-8.12 5.697-6.751 12.375 0.731 3.551 2.997 7.787 5.077 9.48 1.498 1.221 2.636 1.36 4.772 0.592 2.451-0.888 2.904-0.897 5.494-0.111 2.136 0.657 2.895 0.684 3.968 0.176 1.729-0.814 4.005-3.931 5.105-6.973 0.129-0.361 0.222-0.675 0.203-0.684s-0.305-0.148-0.638-0.314c-1.045-0.509-1.979-1.489-2.617-2.765-0.444-0.869-0.592-1.369-0.703-2.331-0.166-1.369 0.102-2.71 0.814-3.986 0.203-0.379 0.703-0.98 1.332-1.628l0.999-1.027-0.777-0.786c-1.591-1.628-3.422-2.312-5.651-2.099z" fill="#000000"></path>
</svg>
