<?xml version="1.0" encoding="utf-8"?>
<!DOCTYPE svg PUBLIC "-//W3C//DTD SVG 1.1//EN" "http://www.w3.org/Graphics/SVG/1.1/DTD/svg11.dtd">
<svg version="1.1" xmlns="http://www.w3.org/2000/svg" xmlns:xlink="http://www.w3.org/1999/xlink" width="47" height="32" viewBox="0 0 47 32">
<path d="M10.571 4.68c-0.536 0.268-0.62 0.509-0.657 1.822-0.046 1.618 0.009 1.97 0.416 2.349l0.314 0.305h26.062l0.314-0.305c0.407-0.379 0.462-0.731 0.416-2.349-0.037-1.323-0.12-1.563-0.675-1.822-0.277-0.129-1.609-0.148-13.105-0.148-11.459 0-12.819 0.019-13.087 0.148z" fill="#000000"></path>
<path d="M10.534 13.827c-0.536 0.287-0.592 0.509-0.592 2.173 0 1.683 0.056 1.896 0.61 2.183 0.388 0.194 25.859 0.194 26.247 0 0.555-0.287 0.61-0.499 0.61-2.183s-0.056-1.896-0.61-2.183c-0.388-0.194-25.896-0.194-26.266 0.009z" fill="#000000"></path>
<path d="M10.331 23.149c-0.407 0.379-0.462 0.731-0.416 2.349 0.037 1.323 0.12 1.563 0.675 1.822 0.277 0.129 1.609 0.148 13.087 0.148s12.809-0.018 13.087-0.148c0.555-0.259 0.638-0.499 0.675-1.822 0.046-1.619-0.009-1.97-0.416-2.349l-0.314-0.305h-26.062l-0.314 0.305z" fill="#000000"></path>
</svg>
