<?xml version="1.0" encoding="utf-8"?>
<!DOCTYPE svg PUBLIC "-//W3C//DTD SVG 1.1//EN" "http://www.w3.org/Graphics/SVG/1.1/DTD/svg11.dtd">
<svg version="1.1" xmlns="http://www.w3.org/2000/svg" xmlns:xlink="http://www.w3.org/1999/xlink" width="47" height="32" viewBox="0 0 47 32">
<path d="M11.145 3.551c-0.86 0.268-1.646 0.99-2.053 1.859l-0.259 0.555-0.028 4.134c-0.028 4.652-0.018 4.745 0.629 5.642 0.388 0.546 0.805 0.869 1.526 1.202 0.435 0.194 0.601 0.213 3.154 0.259 2.673 0.046 2.691 0.046 3.024 0.277 0.185 0.12 0.425 0.398 0.546 0.601 0.185 0.324 0.213 0.481 0.194 1.295-0.028 1.443-0.49 2.497-1.535 3.431-0.916 0.814-1.591 1.045-3.385 1.147l-1.239 0.065-0.314 0.333-0.305 0.342v3.228l0.324 0.333 0.333 0.324h1.341c0.86 0 1.591-0.055 2.053-0.148 3.579-0.74 6.215-3.237 7.168-6.816 0.203-0.749 0.203-0.832 0.203-8.203v-7.445l-0.296-0.601c-0.351-0.712-0.897-1.267-1.6-1.637l-0.509-0.259-4.301-0.018c-3.274-0.018-4.393 0.009-4.671 0.102z" fill="#000000"></path>
<path d="M27.191 3.542c-0.943 0.324-1.683 0.99-2.109 1.896l-0.25 0.527-0.028 4.134c-0.028 4.606-0.018 4.745 0.573 5.577 0.398 0.555 0.832 0.916 1.508 1.23 0.536 0.25 0.536 0.25 3.218 0.296 2.599 0.046 2.691 0.055 3.024 0.259 0.231 0.139 0.425 0.379 0.592 0.721 0.231 0.472 0.24 0.564 0.185 1.332-0.102 1.406-0.555 2.368-1.508 3.237s-1.619 1.101-3.44 1.202l-1.239 0.065-0.314 0.333-0.305 0.342v3.228l0.324 0.333 0.333 0.324h1.313c1.544 0 2.183-0.093 3.255-0.462 3.006-1.017 5.151-3.348 5.993-6.511 0.203-0.74 0.203-0.842 0.203-8.194v-7.445l-0.268-0.573c-0.305-0.675-0.99-1.36-1.674-1.702l-0.462-0.222-4.301-0.018c-3.126-0.009-4.393 0.009-4.624 0.092z" fill="#000000"></path>
</svg>
