<?xml version="1.0" encoding="utf-8"?>
<!DOCTYPE svg PUBLIC "-//W3C//DTD SVG 1.1//EN" "http://www.w3.org/Graphics/SVG/1.1/DTD/svg11.dtd">
<svg version="1.1" xmlns="http://www.w3.org/2000/svg" xmlns:xlink="http://www.w3.org/1999/xlink" width="47" height="32" viewBox="0 0 47 32">
<path d="M13.965 2.368c-0.971 0.213-1.72 0.629-2.506 1.415-0.795 0.805-1.212 1.535-1.424 2.553-0.203 0.962-0.203 18.368 0 19.329 0.213 1.017 0.629 1.748 1.424 2.553 0.805 0.795 1.535 1.212 2.553 1.424 0.962 0.203 18.368 0.203 19.329 0 1.017-0.213 1.748-0.629 2.553-1.424 0.795-0.805 1.212-1.535 1.424-2.553 0.203-0.962 0.203-18.368 0-19.329-0.213-1.017-0.629-1.748-1.424-2.553-0.805-0.795-1.535-1.212-2.553-1.424-0.934-0.194-18.46-0.194-19.376 0.009zM30.918 8.638c0.416 0.185 2.358 2.164 2.451 2.506 0.046 0.157 0.046 0.398 0.009 0.555-0.056 0.194-1.748 1.951-5.79 5.984-6.141 6.123-5.975 5.984-6.622 5.679-0.472-0.231-6.964-6.798-7.020-7.112-0.102-0.536 0.028-0.74 1.221-1.942 1.165-1.175 1.175-1.175 1.609-1.175 0.416 0 0.462 0.028 1.424 0.916 0.546 0.509 1.489 1.424 2.099 2.035l1.11 1.119 4.208-4.199c2.312-2.321 4.338-4.273 4.486-4.347 0.342-0.176 0.435-0.185 0.814-0.018z" fill="#000000"></path>
</svg>
