<?xml version="1.0" encoding="utf-8"?>
<!DOCTYPE svg PUBLIC "-//W3C//DTD SVG 1.1//EN" "http://www.w3.org/Graphics/SVG/1.1/DTD/svg11.dtd">
<svg version="1.1" xmlns="http://www.w3.org/2000/svg" xmlns:xlink="http://www.w3.org/1999/xlink" width="47" height="32" viewBox="0 0 47 32">
<path d="M13.965 2.368c-0.971 0.213-1.72 0.629-2.506 1.415-0.795 0.805-1.212 1.535-1.424 2.553-0.203 0.962-0.203 18.368 0 19.329 0.213 1.017 0.629 1.748 1.424 2.553 0.805 0.795 1.535 1.212 2.553 1.424 0.962 0.203 18.368 0.203 19.329 0 1.017-0.213 1.748-0.629 2.553-1.424 0.795-0.805 1.212-1.535 1.424-2.553 0.203-0.962 0.203-18.368 0-19.329-0.213-1.017-0.629-1.748-1.424-2.553-0.805-0.795-1.535-1.212-2.553-1.424-0.934-0.194-18.46-0.194-19.376 0.009zM19.089 7.556c0.222 0.351 0.62 1.045 0.897 1.554 0.268 0.509 0.629 1.138 0.795 1.406 0.453 0.712 0.416 0.906-0.268 1.563-0.324 0.305-0.758 0.694-0.98 0.869-0.536 0.425-0.786 0.842-0.703 1.175 0.093 0.37 0.962 1.831 1.6 2.682s1.748 1.942 2.599 2.562c0.851 0.629 2.21 1.406 2.58 1.489 0.305 0.065 0.342 0.046 1.434-1.101 1.304-1.35 1.341-1.369 2.22-0.805 0.314 0.194 1.045 0.62 1.628 0.934 0.583 0.324 1.249 0.712 1.471 0.86l0.398 0.277-0.046 0.61c-0.12 1.674-0.879 2.497-2.886 3.172-1.175 0.398-2.035 0.351-3.653-0.194-2.664-0.888-4.661-2.155-6.807-4.301-2.136-2.136-3.348-4.042-4.291-6.761-0.657-1.859-0.61-3.098 0.157-4.615 0.398-0.805 0.795-1.313 1.175-1.508 0.509-0.268 1.295-0.481 1.794-0.481l0.481-0.009 0.407 0.62z" fill="#000000"></path>
</svg>
