<?xml version="1.0" encoding="utf-8"?>
<!DOCTYPE svg PUBLIC "-//W3C//DTD SVG 1.1//EN" "http://www.w3.org/Graphics/SVG/1.1/DTD/svg11.dtd">
<svg version="1.1" xmlns="http://www.w3.org/2000/svg" xmlns:xlink="http://www.w3.org/1999/xlink" width="47" height="32" viewBox="0 0 47 32">
<path d="M14.474 2.358c-0.462 0.166-0.925 0.657-1.054 1.128-0.065 0.231-0.102 2.072-0.102 5.262v4.92l-0.99 0.037c-0.842 0.028-1.082 0.074-1.526 0.277-0.675 0.314-1.406 1.036-1.72 1.72l-0.25 0.527-0.028 4.291c-0.028 3.921-0.009 4.301 0.129 4.458 0.148 0.166 0.324 0.176 2.275 0.176h2.109v1.498c0 0.832 0.046 1.674 0.102 1.877 0.129 0.472 0.675 1.017 1.147 1.147 0.518 0.139 17.702 0.139 18.22 0 0.472-0.129 1.017-0.675 1.147-1.147 0.056-0.203 0.102-1.045 0.102-1.877v-1.498h2.109c1.951 0 2.127-0.009 2.275-0.176 0.139-0.157 0.157-0.536 0.129-4.458l-0.028-4.291-0.25-0.527c-0.314-0.684-1.045-1.406-1.72-1.72-0.444-0.203-0.684-0.25-1.517-0.277l-0.999-0.037v-2.238c0-2.543-0.074-3.172-0.49-4.079-0.25-0.573-0.49-0.851-2.044-2.423-1.933-1.961-2.442-2.321-3.635-2.571-0.916-0.194-12.846-0.194-13.392 0zM27.098 6.243c0 1.776 0.055 2.035 0.518 2.469 0.425 0.398 0.684 0.444 2.405 0.444h1.609v6.844h-15.908v-11.376h11.376v1.619zM35.838 16.416c0.268 0.277 0.324 0.398 0.324 0.721-0.009 1.101-1.415 1.471-1.979 0.527-0.407-0.703 0.111-1.572 0.934-1.572 0.324 0 0.444 0.055 0.721 0.324zM31.63 25.156v2.22h-15.908v-4.439h15.908v2.22z" fill="#000000"></path>
</svg>
