<?xml version="1.0" encoding="utf-8"?>
<!DOCTYPE svg PUBLIC "-//W3C//DTD SVG 1.1//EN" "http://www.w3.org/Graphics/SVG/1.1/DTD/svg11.dtd">
<svg version="1.1" xmlns="http://www.w3.org/2000/svg" xmlns:xlink="http://www.w3.org/1999/xlink" width="47" height="32" viewBox="0 0 47 32">
<path d="M13.373 2.349c-0.435 0.166-0.869 0.555-1.036 0.953-0.194 0.444-0.194 24.943 0 25.397 0.157 0.398 0.703 0.86 1.138 0.98 0.49 0.139 19.912 0.139 20.402 0 0.435-0.12 0.98-0.583 1.138-0.98 0.102-0.24 0.129-1.84 0.129-8.61 0-5.244-0.037-8.499-0.093-8.814-0.056-0.277-0.24-0.814-0.425-1.193-0.305-0.638-0.527-0.888-3.302-3.681-1.637-1.637-3.191-3.135-3.45-3.311-0.259-0.185-0.758-0.444-1.11-0.573l-0.638-0.25-6.197-0.018c-5.124-0.018-6.261 0-6.557 0.102zM23.676 8.583c0 4.467-0.018 4.338 0.731 4.874l0.398 0.277 7.935 0.056v13.586h-18.127v-22.751h9.064v3.958zM26.34 4.939c0.305 0.166 5.965 5.845 6.113 6.132 0.056 0.111 0.102 0.222 0.102 0.25s-1.48 0.056-3.283 0.056h-3.283v-3.283c0-1.803 0.018-3.283 0.046-3.283 0.037 0 0.166 0.056 0.305 0.129z" fill="#000000"></path>
</svg>
