<?xml version="1.0" encoding="utf-8"?>
<!DOCTYPE svg PUBLIC "-//W3C//DTD SVG 1.1//EN" "http://www.w3.org/Graphics/SVG/1.1/DTD/svg11.dtd">
<svg version="1.1" xmlns="http://www.w3.org/2000/svg" xmlns:xlink="http://www.w3.org/1999/xlink" width="47" height="32" viewBox="0 0 47 32">
<path d="M22.335 4.634c-1.434 0.194-2.802 0.703-3.968 1.498-1.082 0.731-2.793 2.701-2.969 3.422-0.102 0.407 0.185 0.703 1.813 1.933 1.97 1.489 1.933 1.48 2.83 0.462 1.526-1.739 2.053-2.062 3.357-2.081 1.924-0.028 3.2 1.239 2.627 2.599-0.222 0.546-0.657 0.916-1.785 1.526-1.23 0.666-2.090 1.36-2.756 2.22-0.666 0.869-0.879 1.461-0.934 2.664-0.046 1.045 0.065 1.452 0.435 1.655 0.24 0.129 4.587 0.129 4.828 0 0.213-0.12 0.453-0.564 0.453-0.842 0-0.333 0.481-1.193 0.925-1.646 0.231-0.24 0.758-0.629 1.175-0.869 1.581-0.925 2.636-1.942 3.071-2.96 1.036-2.405 0.518-4.939-1.406-6.964-1.027-1.091-2.562-1.998-4.134-2.442-0.805-0.231-2.543-0.314-3.561-0.176z" fill="#000000"></path>
<path d="M21.003 21.743c-0.453 0.185-0.462 0.25-0.472 2.839v2.432l0.231 0.222 0.222 0.231h4.883l0.444-0.481v-2.442c0-2.414 0-2.442-0.213-2.645-0.203-0.213-0.25-0.213-2.543-0.231-1.369-0.009-2.423 0.018-2.553 0.074z" fill="#000000"></path>
</svg>
