<?xml version="1.0" encoding="utf-8"?>
<!DOCTYPE svg PUBLIC "-//W3C//DTD SVG 1.1//EN" "http://www.w3.org/Graphics/SVG/1.1/DTD/svg11.dtd">
<svg version="1.1" xmlns="http://www.w3.org/2000/svg" xmlns:xlink="http://www.w3.org/1999/xlink" width="47" height="32" viewBox="0 0 47 32">
<path d="M23.158 1.813c-0.148 0.074-2.155 2.016-4.458 4.319l-4.18 4.19v0.435c0 0.25 0.065 0.564 0.139 0.712 0.268 0.527 0.444 0.555 3.089 0.555h2.405l0.028 4.18c0.028 4.023 0.037 4.199 0.213 4.439 0.37 0.509 0.546 0.536 3.283 0.536s2.913-0.028 3.283-0.536c0.176-0.24 0.185-0.416 0.213-4.439l0.028-4.18h2.405c2.645 0 2.821-0.028 3.089-0.555 0.074-0.148 0.139-0.462 0.139-0.712v-0.435l-4.18-4.19c-2.303-2.303-4.319-4.254-4.476-4.328-0.37-0.176-0.657-0.176-1.017 0.009z" fill="#000000"></path>
<path d="M9.979 21.179c-0.407 0.12-0.814 0.481-1.008 0.888-0.185 0.37-0.194 0.527-0.166 3.755l0.028 3.366 0.25 0.379c0.148 0.222 0.407 0.453 0.647 0.573l0.407 0.194h27.080l0.407-0.194c0.24-0.12 0.499-0.351 0.647-0.573l0.25-0.379 0.028-3.366c0.028-3.246 0.019-3.385-0.166-3.764-0.111-0.231-0.351-0.509-0.573-0.657l-0.379-0.268-8.25-0.055-0.231 0.435c-0.324 0.62-0.971 1.23-1.665 1.554l-0.601 0.287h-6.012l-0.601-0.287c-0.684-0.324-1.341-0.934-1.665-1.554l-0.231-0.425-3.977 0.009c-2.183 0-4.088 0.037-4.217 0.083zM31.195 26.044c0.546 0.499 0.546 1.128 0.009 1.6-0.398 0.351-0.805 0.379-1.249 0.074-0.592-0.398-0.638-1.165-0.083-1.665 0.388-0.342 0.953-0.351 1.323-0.009zM35.838 26.127c0.259 0.268 0.324 0.398 0.324 0.703 0 1.119-1.406 1.508-1.979 0.546-0.407-0.703 0.111-1.572 0.934-1.572 0.324 0 0.444 0.055 0.721 0.324z" fill="#000000"></path>
</svg>
