<?xml version="1.0" encoding="utf-8"?>
<!DOCTYPE svg PUBLIC "-//W3C//DTD SVG 1.1//EN" "http://www.w3.org/Graphics/SVG/1.1/DTD/svg11.dtd">
<svg version="1.1" xmlns="http://www.w3.org/2000/svg" xmlns:xlink="http://www.w3.org/1999/xlink" width="47" height="32" viewBox="0 0 47 32">
<path d="M23.306 1.924c-0.287 0.148-0.49 0.499-2.414 4.365-1.156 2.312-2.118 4.245-2.136 4.282s-2.025 0.361-4.467 0.721c-2.442 0.351-4.55 0.666-4.698 0.694-0.666 0.139-0.971 0.74-0.675 1.313 0.074 0.139 1.637 1.711 3.468 3.487 2.636 2.543 3.339 3.274 3.302 3.422-0.259 1.101-1.544 9.036-1.498 9.276 0.092 0.61 0.527 0.851 1.147 0.638 0.203-0.074 2.155-1.073 4.356-2.22l3.986-2.099 4.069 2.136c2.238 1.175 4.236 2.183 4.449 2.229 0.324 0.083 0.407 0.074 0.62-0.083 0.49-0.361 0.481-0.472-0.342-5.272-0.416-2.432-0.768-4.504-0.795-4.606-0.028-0.157 0.657-0.869 3.292-3.422 1.831-1.785 3.394-3.348 3.468-3.487 0.296-0.573-0.009-1.175-0.675-1.313-0.148-0.028-2.127-0.324-4.421-0.657-2.284-0.324-4.291-0.62-4.439-0.647-0.277-0.046-0.379-0.24-2.405-4.31-1.23-2.479-2.201-4.319-2.312-4.384-0.333-0.213-0.555-0.231-0.879-0.065zM27.163 12.837c0.093 0.018 1.776 0.268 3.736 0.555l3.579 0.527-2.71 2.627c-1.803 1.748-2.691 2.673-2.673 2.775 0.111 0.462 1.23 7.177 1.193 7.205-0.018 0.018-1.508-0.749-3.32-1.702l-3.293-1.739 0.009-8.462 0.009-8.472 1.655 3.329c1.147 2.303 1.702 3.339 1.813 3.357z" fill="#000000"></path>
</svg>
