<?xml version="1.0" encoding="utf-8"?>
<!DOCTYPE svg PUBLIC "-//W3C//DTD SVG 1.1//EN" "http://www.w3.org/Graphics/SVG/1.1/DTD/svg11.dtd">
<svg version="1.1" xmlns="http://www.w3.org/2000/svg" xmlns:xlink="http://www.w3.org/1999/xlink" width="47" height="32" viewBox="0 0 47 32">
<path d="M22.15 2.321c-3.098 0.324-5.919 1.683-8.185 3.958-2.405 2.414-3.672 5.124-3.995 8.536-0.176 1.933 0.129 4.245 0.795 6.021 1.212 3.2 3.718 5.965 6.807 7.51 3.755 1.877 8.453 1.877 12.208 0 2.608-1.304 4.911-3.588 6.187-6.123 1.156-2.303 1.646-4.892 1.415-7.408-0.324-3.413-1.591-6.123-3.995-8.536-3.006-3.006-6.955-4.402-11.237-3.958zM25.729 5.336c0.148 0.129 0.166 0.314 0.166 1.794 0 1.369-0.028 1.665-0.148 1.785-0.12 0.129-0.444 0.148-2.072 0.148s-1.951-0.018-2.072-0.148c-0.222-0.222-0.222-3.32 0.009-3.57 0.139-0.148 0.324-0.166 2.044-0.166 1.637 0 1.924 0.019 2.072 0.157zM25.729 11.625c0.157 0.139 0.166 0.416 0.166 4.855v4.698h0.971c1.387 0 1.341-0.065 1.341 1.961 0 1.341-0.028 1.609-0.157 1.757-0.139 0.157-0.398 0.166-4.356 0.166-3.792 0-4.227-0.018-4.384-0.157-0.148-0.129-0.166-0.314-0.166-1.757 0-2.035-0.046-1.97 1.341-1.97h0.971v-5.827h-0.99c-1.387 0-1.323 0.092-1.323-1.914 0-1.48 0.018-1.618 0.185-1.785 0.176-0.176 0.305-0.185 3.209-0.185 2.682 0 3.034 0.018 3.191 0.157z" fill="#000000"></path>
</svg>
