<?xml version="1.0" encoding="utf-8"?>
<!DOCTYPE svg PUBLIC "-//W3C//DTD SVG 1.1//EN" "http://www.w3.org/Graphics/SVG/1.1/DTD/svg11.dtd">
<svg version="1.1" xmlns="http://www.w3.org/2000/svg" xmlns:xlink="http://www.w3.org/1999/xlink" width="47" height="32" viewBox="0 0 47 32">
<path d="M16.416 5.549c-0.499 0.25-3.052 2.821-3.237 3.265-0.176 0.425-0.176 0.99 0 1.434 0.102 0.231 1.045 1.249 2.849 3.043l2.701 2.71-2.701 2.701c-2.812 2.812-2.987 3.043-2.987 3.773 0 0.666 0.231 0.999 1.646 2.423 1.434 1.452 1.85 1.739 2.497 1.739 0.749 0 0.971-0.166 3.792-2.987l2.701-2.701 2.71 2.701c2.812 2.821 3.034 2.987 3.783 2.987 0.647 0 1.064-0.287 2.497-1.739 1.415-1.424 1.646-1.757 1.646-2.423 0-0.731-0.176-0.962-2.987-3.773l-2.701-2.701 2.701-2.71c2.812-2.802 2.987-3.034 2.987-3.764 0-0.666-0.231-0.999-1.646-2.423-1.434-1.452-1.85-1.739-2.497-1.739-0.749 0-0.971 0.166-3.783 2.987l-2.71 2.701-2.701-2.701c-1.803-1.803-2.821-2.747-3.052-2.849-0.472-0.194-1.064-0.176-1.508 0.046z" fill="#000000"></path>
</svg>
