<?xml version="1.0" encoding="utf-8"?>
<!DOCTYPE svg PUBLIC "-//W3C//DTD SVG 1.1//EN" "http://www.w3.org/Graphics/SVG/1.1/DTD/svg11.dtd">
<svg version="1.1" xmlns="http://www.w3.org/2000/svg" xmlns:xlink="http://www.w3.org/1999/xlink" width="47" height="32" viewBox="0 0 47 32">
<path d="M15.186 3.579c-0.555 0.194-1.332 0.943-1.6 1.526l-0.222 0.49v20.809l0.222 0.49c0.277 0.61 1.045 1.332 1.637 1.535 0.388 0.129 1.341 0.148 8.453 0.148s8.065-0.018 8.453-0.148c0.592-0.203 1.36-0.925 1.637-1.535l0.222-0.49v-20.809l-0.222-0.49c-0.277-0.61-1.045-1.332-1.637-1.535-0.388-0.129-1.332-0.148-8.49-0.139-6.936 0-8.111 0.028-8.453 0.148zM31.288 5.836c0.111 0.065 0.231 0.157 0.268 0.213s0.074 4.023 0.074 8.814c0 8.601 0 8.721-0.185 8.906s-0.305 0.185-7.769 0.185c-7.464 0-7.584 0-7.769-0.185s-0.185-0.305-0.185-8.906c0-4.791 0.037-8.758 0.074-8.814 0.203-0.296 0.425-0.305 7.861-0.314 5.429 0 7.482 0.028 7.63 0.102zM24.398 25.517c0.342 0.342 0.425 0.749 0.25 1.165-0.139 0.361-0.62 0.694-0.971 0.694s-0.832-0.333-0.971-0.694c-0.176-0.416-0.093-0.823 0.25-1.165 0.231-0.222 0.351-0.268 0.721-0.268s0.49 0.046 0.721 0.268z" fill="#000000"></path>
</svg>
