<?xml version="1.0" encoding="utf-8"?>
<!DOCTYPE svg PUBLIC "-//W3C//DTD SVG 1.1//EN" "http://www.w3.org/Graphics/SVG/1.1/DTD/svg11.dtd">
<svg version="1.1" xmlns="http://www.w3.org/2000/svg" xmlns:xlink="http://www.w3.org/1999/xlink" width="47" height="32" viewBox="0 0 47 32">
<path d="M11.44 3.718l-0.342 0.324v1.766c0 1.757 0 1.766 0.24 2.044 0.277 0.333 0.601 0.435 1.84 0.564 3.625 0.379 7.242 1.84 10.349 4.19 0.962 0.721 2.821 2.58 3.542 3.542 2.368 3.126 3.773 6.631 4.19 10.395 0.148 1.36 0.176 1.452 0.518 1.757l0.324 0.277h3.524l0.314-0.314c0.305-0.305 0.314-0.333 0.314-1.054 0-1.434-0.416-3.912-0.971-5.762-0.601-1.998-1.693-4.43-2.775-6.141-1.924-3.061-5.096-6.234-8.129-8.129-3.45-2.164-7.713-3.542-11.477-3.727l-1.119-0.055-0.342 0.324z" fill="#000000"></path>
<path d="M12.005 12.55c-0.148 0.028-0.407 0.176-0.583 0.342l-0.324 0.305v1.711c0 1.693 0 1.711 0.231 1.961 0.268 0.296 0.49 0.379 1.156 0.472 2.608 0.342 4.929 1.526 6.761 3.44 1.748 1.831 2.775 3.968 3.089 6.456 0.037 0.25 0.129 0.601 0.203 0.768 0.24 0.518 0.472 0.573 2.284 0.573 1.6 0 1.619 0 1.896-0.24 0.407-0.342 0.481-0.703 0.333-1.766-0.481-3.579-1.951-6.622-4.43-9.175-2.562-2.636-6.113-4.421-9.535-4.772-0.305-0.037-0.62-0.074-0.694-0.083-0.074-0.018-0.25-0.009-0.388 0.009z" fill="#000000"></path>
<path d="M13.891 21.743c-1.045 0.176-2.044 0.943-2.497 1.914-0.222 0.462-0.25 0.638-0.25 1.498 0 0.851 0.028 1.036 0.24 1.48 0.305 0.647 1.008 1.35 1.655 1.655 0.444 0.213 0.629 0.24 1.48 0.24 0.86 0 1.036-0.028 1.498-0.25 0.999-0.472 1.739-1.443 1.914-2.553 0.388-2.432-1.609-4.402-4.042-3.986z" fill="#000000"></path>
</svg>
