<?xml version="1.0" encoding="utf-8"?>
<!DOCTYPE svg PUBLIC "-//W3C//DTD SVG 1.1//EN" "http://www.w3.org/Graphics/SVG/1.1/DTD/svg11.dtd">
<svg version="1.1" xmlns="http://www.w3.org/2000/svg" xmlns:xlink="http://www.w3.org/1999/xlink" width="47" height="32" viewBox="0 0 47 32">
<path d="M22.381 2.321c-2.247 0.203-4.541 1.036-6.492 2.358-0.416 0.287-0.943 0.684-1.165 0.888s-0.435 0.351-0.481 0.333c-0.046-0.019-0.647-0.564-1.341-1.221-1.323-1.249-1.572-1.387-2.146-1.239-0.361 0.092-0.74 0.536-0.814 0.934-0.028 0.166-0.046 2.164-0.028 4.458 0.028 4.523 0.009 4.365 0.555 4.745 0.185 0.139 0.684 0.157 4.421 0.185 2.821 0.018 4.319 0 4.55-0.074 0.509-0.148 0.814-0.564 0.814-1.119v-0.462l-1.286-1.36c-0.703-0.749-1.295-1.406-1.304-1.452-0.046-0.157 1.193-1.045 1.988-1.434 0.407-0.194 1.119-0.472 1.572-0.61 0.758-0.231 0.962-0.259 2.405-0.259 1.85-0.009 2.451 0.12 3.977 0.86 2.414 1.184 4.106 3.218 4.874 5.882 0.185 0.638 0.213 0.953 0.213 2.266 0 1.794-0.139 2.423-0.869 3.931-1.175 2.405-3.228 4.116-5.836 4.855-0.906 0.259-2.682 0.351-3.672 0.185-2.099-0.333-3.847-1.276-5.281-2.83-1.027-1.119-0.99-1.128-2.673 0.536-0.731 0.731-1.36 1.424-1.387 1.544-0.083 0.351 0.213 0.786 1.165 1.683 1.591 1.508 3.302 2.534 5.29 3.163 4.966 1.581 10.303 0.296 13.956-3.357 2.312-2.312 3.699-5.29 3.977-8.573 0.481-5.605-2.543-10.941-7.63-13.466-1.563-0.768-3.108-1.202-4.902-1.36-1.045-0.102-1.341-0.092-2.451 0.009z" fill="#000000"></path>
</svg>
