<?xml version="1.0" encoding="utf-8"?>
<!DOCTYPE svg PUBLIC "-//W3C//DTD SVG 1.1//EN" "http://www.w3.org/Graphics/SVG/1.1/DTD/svg11.dtd">
<svg version="1.1" xmlns="http://www.w3.org/2000/svg" xmlns:xlink="http://www.w3.org/1999/xlink" width="47" height="32" viewBox="0 0 47 32">
<path d="M12.476 12.569c-0.49 0.102-0.943 0.416-1.175 0.823-0.194 0.351-0.203 0.462-0.203 2.608 0 2.21 0 2.257 0.222 2.627 0.129 0.222 0.388 0.481 0.629 0.61l0.398 0.231h22.659l0.398-0.231c0.24-0.129 0.499-0.388 0.629-0.61 0.222-0.37 0.222-0.416 0.222-2.627 0-2.146-0.009-2.257-0.203-2.608-0.129-0.222-0.379-0.472-0.629-0.61l-0.416-0.25-11.098-0.009c-6.104-0.009-11.246 0.009-11.431 0.046z" fill="#000000"></path>
</svg>
