<?xml version="1.0" encoding="utf-8"?>
<!DOCTYPE svg PUBLIC "-//W3C//DTD SVG 1.1//EN" "http://www.w3.org/Graphics/SVG/1.1/DTD/svg11.dtd">
<svg version="1.1" xmlns="http://www.w3.org/2000/svg" xmlns:xlink="http://www.w3.org/1999/xlink" width="47" height="32" viewBox="0 0 47 32">
<path d="M7.824 3.561c-0.222 0.222-0.259 0.61-0.222 2.423 0.028 1.489 0.046 1.692 0.203 1.868 0.166 0.185 0.259 0.194 2.136 0.194 2.571 0 2.358 0.213 2.358-2.321 0-1.563-0.028-1.924-0.148-2.099-0.139-0.203-0.176-0.203-2.164-0.203-1.692 0-2.044 0.018-2.164 0.139z" fill="#000000"></path>
<path d="M14.668 3.57c-0.129 0.12-0.148 0.453-0.148 2.164 0 1.988 0 2.025 0.203 2.164 0.185 0.129 1.517 0.148 12.43 0.148h12.217l0.176-0.194c0.157-0.176 0.176-0.379 0.203-1.868 0.019-0.925 0.009-1.813-0.028-1.979-0.12-0.629 0.943-0.583-12.624-0.583-11.043 0-12.301 0.018-12.43 0.148z" fill="#000000"></path>
<path d="M7.806 10.46c-0.157 0.176-0.176 0.361-0.176 2.118s0.019 1.942 0.176 2.118c0.166 0.185 0.259 0.194 2.155 0.194 1.85 0 1.979-0.009 2.155-0.185s0.185-0.305 0.185-2.127c0-1.822-0.009-1.951-0.185-2.127s-0.305-0.185-2.155-0.185c-1.896 0-1.988 0.009-2.155 0.194z" fill="#000000"></path>
<path d="M14.677 10.432c-0.139 0.148-0.157 0.444-0.157 2.164 0 1.803 0.018 1.998 0.166 2.136 0.157 0.148 1.156 0.157 12.43 0.157h12.254l0.176-0.194c0.157-0.176 0.176-0.379 0.203-1.868 0.019-0.925 0.009-1.813-0.028-1.979-0.12-0.629 0.943-0.583-12.615-0.583-11.783 0-12.291 0.009-12.43 0.166z" fill="#000000"></path>
<path d="M7.806 17.304c-0.157 0.176-0.176 0.361-0.176 2.118s0.019 1.942 0.176 2.118c0.166 0.185 0.259 0.194 2.155 0.194 1.85 0 1.979-0.009 2.155-0.185s0.185-0.305 0.185-2.127c0-1.822-0.009-1.951-0.185-2.127s-0.305-0.185-2.155-0.185c-1.896 0-1.988 0.009-2.155 0.194z" fill="#000000"></path>
<path d="M14.677 17.276c-0.139 0.148-0.157 0.444-0.157 2.164 0 1.803 0.018 1.998 0.166 2.136 0.157 0.148 1.156 0.157 12.439 0.157 13.54 0 12.476 0.046 12.597-0.583 0.037-0.166 0.046-1.054 0.028-1.979-0.028-1.489-0.046-1.692-0.203-1.868l-0.176-0.194h-12.273c-11.773 0-12.282 0.009-12.421 0.166z" fill="#000000"></path>
<path d="M7.806 24.148c-0.157 0.176-0.176 0.379-0.203 1.868-0.019 0.925-0.009 1.813 0.028 1.979 0.102 0.573 0.129 0.583 2.358 0.583 1.988 0 2.025 0 2.164-0.203 0.12-0.176 0.148-0.536 0.148-2.109 0-2.516 0.213-2.312-2.377-2.312-1.859 0-1.951 0.009-2.118 0.194z" fill="#000000"></path>
<path d="M14.724 24.102c-0.203 0.139-0.203 0.176-0.203 2.164 0 1.711 0.018 2.044 0.148 2.164 0.129 0.129 1.387 0.148 12.43 0.148 13.568 0 12.504 0.046 12.624-0.583 0.037-0.166 0.046-1.054 0.028-1.979-0.028-1.489-0.046-1.692-0.203-1.868l-0.176-0.194h-12.217c-10.913 0-12.245 0.018-12.43 0.148z" fill="#000000"></path>
</svg>
