<?xml version="1.0" encoding="utf-8"?>
<!DOCTYPE svg PUBLIC "-//W3C//DTD SVG 1.1//EN" "http://www.w3.org/Graphics/SVG/1.1/DTD/svg11.dtd">
<svg version="1.1" xmlns="http://www.w3.org/2000/svg" xmlns:xlink="http://www.w3.org/1999/xlink" width="47" height="32" viewBox="0 0 47 32">
<path d="M18.331 0.435c-0.213 0.074-0.62 0.342-0.897 0.592-0.583 0.536-0.879 1.193-0.879 1.951 0 0.768 1.665 14.058 1.803 14.381 0.074 0.166 0.268 0.388 0.435 0.49 0.296 0.176 0.453 0.185 4.652 0.185h4.347l2.201 4.393c1.877 3.755 2.238 4.43 2.497 4.578 0.564 0.342 0.795 0.277 3.385-1.017 1.332-0.657 2.414-1.221 2.414-1.239 0-0.037-1.008-1.988-1.073-2.072-0.009-0.018-0.805 0.361-1.766 0.842l-1.739 0.879-2.127-4.19c-1.729-3.413-2.183-4.227-2.405-4.365-0.259-0.157-0.601-0.166-4.495-0.194l-4.217-0.028-0.102-0.869c-0.065-0.481-0.111-0.953-0.111-1.054 0-0.194 0.028-0.194 3.607-0.194h3.607v-2.405h-3.792c-2.765 0-3.792-0.028-3.792-0.102 0-0.129-0.536-4.375-0.592-4.717-0.046-0.231-0.028-0.24 0.49-0.296 0.916-0.083 1.776-0.684 2.247-1.563 0.176-0.333 0.213-0.536 0.213-1.276 0-0.731-0.037-0.943-0.213-1.267-0.324-0.62-0.731-1.017-1.332-1.323-0.49-0.24-0.666-0.277-1.267-0.268-0.388 0-0.879 0.065-1.101 0.148z" fill="#000000"></path>
<path d="M15.158 12.014c-1.517 0.647-3.329 2.164-4.273 3.588-1.369 2.053-1.951 4.301-1.739 6.687 0.12 1.387 0.37 2.312 0.925 3.468 0.564 1.193 1.054 1.924 1.887 2.793 1.97 2.072 4.532 3.172 7.417 3.172 0.62 0 1.48-0.065 1.905-0.139 2.701-0.472 5.262-2.173 6.788-4.523 0.518-0.786 1.147-2.155 1.156-2.488 0-0.083-0.407-0.962-0.897-1.942l-0.897-1.776-0.074 0.925c-0.222 3.071-1.896 5.558-4.634 6.844-1.452 0.694-3.45 0.916-5.050 0.564-3.089-0.675-5.632-3.394-6.123-6.548-0.12-0.777-0.056-2.266 0.139-3.034 0.573-2.257 2.099-4.208 4.097-5.207 0.462-0.24 0.472-0.25 0.425-0.592-0.018-0.194-0.093-0.721-0.148-1.175-0.065-0.453-0.148-0.842-0.203-0.851-0.046-0.018-0.37 0.083-0.703 0.231z" fill="#000000"></path>
</svg>
