<?xml version="1.0" encoding="utf-8"?>
<!DOCTYPE svg PUBLIC "-//W3C//DTD SVG 1.1//EN" "http://www.w3.org/Graphics/SVG/1.1/DTD/svg11.dtd">
<svg version="1.1" xmlns="http://www.w3.org/2000/svg" xmlns:xlink="http://www.w3.org/1999/xlink" width="47" height="32" viewBox="0 0 47 32">
<path d="M22.28 2.312c-3.237 0.296-5.91 1.554-8.277 3.921-1.665 1.674-2.645 3.265-3.403 5.54-0.361 1.073-0.407 1.498-0.203 1.785 0.12 0.166 0.277 0.176 2.155 0.203 1.544 0.018 2.053 0 2.173-0.092 0.092-0.065 0.388-0.62 0.657-1.23 0.601-1.35 1.128-2.118 2.053-2.997 0.795-0.758 1.397-1.165 2.479-1.683 1.147-0.546 2.035-0.749 3.487-0.795 1.471-0.056 2.553 0.129 3.746 0.62 0.74 0.314 2.164 1.202 2.488 1.563l0.185 0.203-2.719 2.738v0.472c0 0.398 0.046 0.509 0.305 0.786 0.222 0.24 0.407 0.342 0.712 0.388 0.231 0.028 2.247 0.046 4.486 0.028 3.903-0.028 4.079-0.037 4.319-0.213 0.499-0.379 0.49-0.25 0.518-4.624 0.019-2.238 0-4.254-0.028-4.476-0.046-0.296-0.148-0.499-0.37-0.721-0.268-0.268-0.37-0.305-0.777-0.305h-0.472l-1.304 1.221c-0.712 0.675-1.332 1.239-1.378 1.258-0.037 0.019-0.277-0.157-0.536-0.379-1.461-1.304-4.005-2.553-6.076-2.978-1.406-0.287-2.728-0.361-4.217-0.231z" fill="#000000"></path>
<path d="M10.747 18.294c-0.324 0.102-0.731 0.536-0.795 0.86-0.102 0.499-0.065 8.24 0.037 8.61 0.139 0.499 0.592 0.814 1.156 0.814h0.444l1.304-1.295 1.304-1.286 0.509 0.444c3.274 2.867 8.074 3.977 12.421 2.876 3.792-0.962 7.020-3.635 8.758-7.251 0.453-0.953 1.11-2.876 1.11-3.256 0-0.111-0.111-0.296-0.24-0.398-0.231-0.185-0.361-0.194-2.109-0.194-1.35 0-1.914 0.028-2.025 0.111-0.083 0.065-0.379 0.62-0.647 1.23-0.601 1.35-1.128 2.118-2.053 2.997-0.795 0.758-1.397 1.165-2.479 1.683-1.341 0.638-2.007 0.768-3.81 0.768-1.434-0.009-1.646-0.028-2.386-0.25-1.212-0.37-2.469-1.045-3.44-1.859l-0.277-0.231 1.369-1.378 1.36-1.378v-0.444c0-0.564-0.314-1.017-0.814-1.156-0.379-0.102-8.333-0.12-8.694-0.018z" fill="#000000"></path>
</svg>
