<?xml version="1.0" encoding="utf-8"?>
<!DOCTYPE svg PUBLIC "-//W3C//DTD SVG 1.1//EN" "http://www.w3.org/Graphics/SVG/1.1/DTD/svg11.dtd">
<svg version="1.1" xmlns="http://www.w3.org/2000/svg" xmlns:xlink="http://www.w3.org/1999/xlink" width="47" height="32" viewBox="0 0 47 32">
<path d="M22.603 2.321c-1.295 0.166-2.497 0.749-3.57 1.739-1.11 1.027-1.831 2.247-2.118 3.588-0.185 0.86-0.139 2.46 0.093 3.293 0.527 1.942 1.85 3.524 3.69 4.449 1.646 0.823 4.31 0.823 5.956 0 2.451-1.23 3.884-3.505 3.894-6.187 0-1.582-0.296-2.645-1.101-3.857-0.481-0.721-1.554-1.748-2.284-2.183-1.267-0.768-2.895-1.064-4.56-0.842z" fill="#000000"></path>
<path d="M15.399 15.158c-0.943 0.333-1.914 1.128-2.553 2.053-0.721 1.064-1.332 2.923-1.6 4.883-0.166 1.165-0.194 3.727-0.046 4.347 0.351 1.526 1.609 2.756 3.228 3.163 0.416 0.102 2.127 0.129 9.249 0.129s8.832-0.028 9.249-0.129c1.618-0.407 2.876-1.637 3.228-3.163 0.139-0.601 0.12-3.228-0.037-4.328-0.287-1.979-0.897-3.847-1.618-4.911-0.684-1.017-1.988-1.97-2.95-2.173-0.296-0.065-0.314-0.056-0.25 0.148 0.231 0.814 0.333 1.563 0.333 2.599v1.175l0.407 0.277c0.564 0.398 1.027 0.962 1.397 1.72 0.37 0.749 0.509 1.498 0.509 2.738 0 0.768 0.028 0.906 0.185 1.054 0.675 0.61 0.351 1.988-0.573 2.442-0.527 0.25-0.953 0.25-1.461-0.018-0.925-0.462-1.193-1.544-0.592-2.432 0.231-0.333 0.24-0.388 0.203-1.461-0.037-1.239-0.12-1.48-0.675-2.044-0.453-0.444-0.823-0.62-1.48-0.675-0.712-0.055-1.378 0.213-1.859 0.74-0.518 0.573-0.592 0.851-0.592 2.118 0 0.98 0.028 1.147 0.185 1.35 0.99 1.267-0.379 3.061-1.896 2.488-1.017-0.398-1.397-1.655-0.749-2.506 0.222-0.296 0.24-0.379 0.24-1.35 0-1.729 0.379-2.747 1.387-3.755 0.74-0.731 1.517-1.082 2.802-1.276l0.342-0.055v-0.879c0-0.925-0.111-1.535-0.324-1.831-0.12-0.157-0.157-0.148-0.777 0.259-0.805 0.536-1.683 0.934-2.59 1.184-0.564 0.157-0.971 0.194-2.044 0.194s-1.48-0.037-2.044-0.194c-0.906-0.25-1.785-0.647-2.59-1.184-0.62-0.407-0.657-0.416-0.777-0.259-0.259 0.351-0.324 0.98-0.324 3.071v2.127l0.49 0.277c0.62 0.351 1.091 0.86 1.424 1.498 0.231 0.453 0.259 0.601 0.259 1.434 0 1.119-0.166 1.544-0.879 2.303-1.914 2.025-5.225 0.999-5.734-1.776-0.25-1.387 0.527-2.913 1.785-3.524l0.435-0.213v-2.136c0-2.025 0.056-2.627 0.324-3.468 0.083-0.25-0.018-0.259-0.647-0.028z" fill="#000000"></path>
<path d="M16.102 23.084c-0.86 0.721-0.379 2.072 0.731 2.072 0.398 0 0.499-0.046 0.768-0.314 0.527-0.527 0.527-1.156 0-1.683-0.268-0.268-0.37-0.314-0.768-0.314-0.351 0-0.509 0.055-0.731 0.24z" fill="#000000"></path>
</svg>
