<?xml version="1.0" encoding="utf-8"?>
<!DOCTYPE svg PUBLIC "-//W3C//DTD SVG 1.1//EN" "http://www.w3.org/Graphics/SVG/1.1/DTD/svg11.dtd">
<svg version="1.1" xmlns="http://www.w3.org/2000/svg" xmlns:xlink="http://www.w3.org/1999/xlink" width="16" height="32" viewBox="0 0 16 32">
<path d="M7.16 0.622c-1.611 0.806-2.141 2.878-1.059 4.19 1.151 1.358 3.177 1.496 4.328 0.299 0.829-0.875 1.013-1.888 0.53-3.131-0.645-1.681-2.095-2.187-3.799-1.358z" fill="#000000"></path>
<path d="M6.653 6.791c-0.553 0.299-6.423 8.38-6.423 8.84 0 0.115 0.276 0.553 0.622 0.967l0.622 0.737 2.371-2.509 2.348-2.509 0.023 3.154v3.154l3.591 6.4c1.957 3.522 3.66 6.492 3.753 6.584 0.115 0.115 0.76-0.092 1.473-0.46l1.266-0.645-5.479-11.235v-3.361l0.023-3.361 4.282 4.558 0.599-0.875c0.322-0.483 0.53-0.99 0.46-1.128-0.092-0.138-1.335-1.98-2.786-4.098-2.855-4.167-3.315-4.558-5.157-4.558-0.529 0.023-1.266 0.161-1.588 0.345z" fill="#000000"></path>
<path d="M2.763 25.14c-1.45 2.832-2.671 5.18-2.717 5.249-0.023 0.069 0.529 0.414 1.266 0.783l1.312 0.645 0.345-0.483c0.207-0.276 1.427-2.187 2.74-4.259l2.371-3.799-1.22-1.611c-0.668-0.898-1.266-1.635-1.335-1.635s-1.312 2.302-2.763 5.111z" fill="#000000"></path>
</svg>
