<?xml version="1.0" encoding="utf-8"?>
<!DOCTYPE svg PUBLIC "-//W3C//DTD SVG 1.1//EN" "http://www.w3.org/Graphics/SVG/1.1/DTD/svg11.dtd">
<svg version="1.1" xmlns="http://www.w3.org/2000/svg" xmlns:xlink="http://www.w3.org/1999/xlink" width="15" height="32" viewBox="0 0 15 32">
<path d="M6.015 0.361c0 0.072-0.024 0.192-0.048 0.265-0.096 0.192 2.695 0.289 2.815 0.072 0.072-0.096-0.048-0.241-0.265-0.313-0.457-0.168-2.502-0.192-2.502-0.024z" fill="#000000"></path>
<path d="M4.403 1.78c-1.949 1.684-3.441 5.558-3.97 10.298-0.217 2.045-0.217 3.465 0.024 6.737 0.722 9.841 1.612 12.174 4.884 12.968 4.475 1.059 6.689-1.564 8.301-9.841 0.818-4.259 0.938-10.947 0.241-13.522-0.481-1.829-1.853-4.668-2.647-5.534-1.371-1.468-1.54-1.54-3.417-1.468-1.059 0.024-1.829-0.048-1.925-0.192-0.241-0.409-0.433-0.337-1.492 0.553zM12.030 9.672c0 1.492-0.072 3.128-0.144 3.609l-0.168 0.914h-9.071v-3.368c0-2.526 0.072-3.368 0.313-3.392s4.235-0.241 8.18-0.409l0.89-0.048v2.695zM5.534 17.444v1.083h-3.176l0.144-0.746c0.072-0.409 0.144-0.914 0.144-1.083 0-0.241 0.385-0.337 1.444-0.337h1.444v1.083zM12.271 17.564c0 0.962 0 0.962-0.938 0.962-0.962 0-1.227-0.265-1.227-1.203 0-0.433 0.433-0.626 1.636-0.698 0.457-0.024 0.529 0.096 0.529 0.938zM8.902 17.468c0.385 0.962 0.313 1.059-0.842 1.059-1.035 0-1.083-0.024-1.083-0.674 0-0.866 0.144-1.011 1.011-1.011 0.505 0 0.746 0.144 0.914 0.626zM11.669 21.173c-0.072 0.12-0.89 0.241-1.829 0.241s-1.66-0.096-1.66-0.241c0-0.144 0.77-0.241 1.829-0.241 1.131 0 1.756 0.096 1.66 0.241z" fill="#000000"></path>
</svg>
