<?xml version="1.0" encoding="utf-8"?>
<!DOCTYPE svg PUBLIC "-//W3C//DTD SVG 1.1//EN" "http://www.w3.org/Graphics/SVG/1.1/DTD/svg11.dtd">
<svg version="1.1" xmlns="http://www.w3.org/2000/svg" xmlns:xlink="http://www.w3.org/1999/xlink" width="20" height="32" viewBox="0 0 20 32">
<path d="M7.36 0.608c-2.816 0.928-5.024 2.816-6.112 5.344-0.864 1.952-1.28 5.312-0.896 7.392 0.64 3.36 3.872 9.824 8.128 16.16l1.664 2.496 0.96-1.376c1.696-2.336 5.12-8.032 6.464-10.688 2.208-4.416 2.688-6.24 2.528-9.536-0.256-4.576-1.856-7.328-5.472-9.184-1.44-0.736-5.76-1.12-7.264-0.608zM12.16 6.24c2.016 1.024 2.56 4.128 1.088 5.888-1.952 2.336-5.536 1.696-6.752-1.184-1.28-3.040 2.656-6.272 5.664-4.704z" fill="#000000"></path>
</svg>
