<?xml version="1.0" encoding="utf-8"?>
<!DOCTYPE svg PUBLIC "-//W3C//DTD SVG 1.1//EN" "http://www.w3.org/Graphics/SVG/1.1/DTD/svg11.dtd">
<svg version="1.1" xmlns="http://www.w3.org/2000/svg" xmlns:xlink="http://www.w3.org/1999/xlink" width="37" height="32" viewBox="0 0 37 32">
<path d="M5.333 1.252c-3.571 1.855-5.055 4.591-4.777 8.672 0.371 6.168 5.89 13.31 15.954 20.638l1.901 1.391 2.968-2.133c1.623-1.159 4.87-4.035 7.235-6.4 5.241-5.38 7.699-9.832 7.699-14.052 0-5.287-3.525-8.904-8.719-8.904-3.71 0-6.354 1.716-8.209 5.287-0.835 1.67-0.974 1.762-1.391 0.928-1.391-2.643-3.014-4.406-4.73-5.287-2.365-1.113-5.936-1.206-7.93-0.139z" fill="#000000"></path>
</svg>
