<?xml version="1.0" encoding="utf-8"?>
<!DOCTYPE svg PUBLIC "-//W3C//DTD SVG 1.1//EN" "http://www.w3.org/Graphics/SVG/1.1/DTD/svg11.dtd">
<svg version="1.1" xmlns="http://www.w3.org/2000/svg" xmlns:xlink="http://www.w3.org/1999/xlink" width="30" height="32" viewBox="0 0 30 32">
<path d="M19.967 0.667c-0.467 0.267-0.5 0.567-0.267 1.7 0.2 0.767 0.233 1.467 0.167 1.567-0.233 0.233-14.333 3.033-14.567 2.9-0.1-0.067-0.4-0.733-0.633-1.5-0.3-0.933-0.6-1.333-0.967-1.267-0.4 0.1-0.5 0.467-0.433 1.667 0.1 1.667 0.133 1.633-2.2 2.1-0.633 0.133-1.067 0.4-0.967 0.6 0.067 0.233 1.167 5.5 2.4 11.733 1.267 6.233 2.333 11.4 2.367 11.467 0.1 0.1 24.167-4.667 24.4-4.833 0.133-0.067-4.533-23.533-4.7-23.7-0.067-0.033-0.633 0.067-1.267 0.233-1.867 0.533-1.967 0.467-1.967-1.333 0-1.733-0.267-1.967-1.367-1.333zM16.533 16.433c0.567 2.9 0.933 5.333 0.8 5.4s-0.833 0.233-1.567 0.367c-1.533 0.233-1.467 0.367-2.1-3.033-0.633-3.267-0.533-3.133-1.867-2.767-1.4 0.367-1.333 0.4-1.633-1-0.167-0.8-0.1-1.067 0.267-1.067 0.833 0 2.233-1.333 2.233-2.167s0.6-1.133 2-1.067c0.767 0.067 0.867 0.3 1.867 5.333zM25.167 23.367c0.133 0.2 0.167 0.4 0.1 0.467-0.167 0.167-16.5 3.5-17.1 3.5-0.4 0-0.967-0.967-0.733-1.233 0.133-0.133 15.967-3 16.967-3.067 0.3 0 0.667 0.133 0.767 0.333z" fill="#000000"></path>
</svg>
