<?xml version="1.0" encoding="utf-8"?>
<!DOCTYPE svg PUBLIC "-//W3C//DTD SVG 1.1//EN" "http://www.w3.org/Graphics/SVG/1.1/DTD/svg11.dtd">
<svg version="1.1" xmlns="http://www.w3.org/2000/svg" xmlns:xlink="http://www.w3.org/1999/xlink" width="47" height="32" viewBox="0 0 47 32">
<path d="M10.996 0.378c-2.967 0.844-5.178 3.113-5.76 5.876-0.495 2.327-0.291 3.753 0.495 3.869 0.349 0.058 0.669 0.378 0.785 0.727 0.262 1.135 2.269 3.171 3.782 3.869 3.636 1.687 8.175 0 9.687-3.578 0.407-1.047 0.524-4.364 0.116-5.004-0.145-0.233-0.465-0.32-0.844-0.204-0.524 0.175-0.582 0.32-0.349 0.931 0.844 2.24-0.553 5.44-2.909 6.662-2.909 1.484-6.72 0-8.175-3.171-0.495-1.135-0.495-1.135 0.262-2.531l0.785-1.396 1.6 0.145c2.764 0.291 7.418-0.844 9.076-2.211l0.669-0.524-1.28-1.251c-2.298-2.153-5.207-2.967-7.942-2.211z" fill="#000000"></path>
<path d="M30.749 1.629c-3.229 1.018-5.149 4.422-5.149 9.135 0 2.356 0.145 2.618 1.396 2.618 0.262 0 0.756 0.378 1.047 0.815 1.193 1.804 4.276 3.142 6.516 2.851 0.669-0.087 1.775-0.436 2.473-0.785 2.735-1.367 3.811-3.142 3.84-6.284 0-2.182-0.291-2.851-1.105-2.531-0.378 0.116-0.436 0.436-0.291 1.571 0.233 2.095-0.116 3.375-1.309 4.713-1.28 1.425-2.473 1.978-4.335 1.978-1.425 0-3.52-0.844-4.218-1.658-0.349-0.436-0.204-0.436 1.484-0.262l1.862 0.204-1.862-2.095 0.64-0.524c1.076-0.873-0.029-2.298-1.193-1.542-0.436 0.262-0.553 0.145-0.844-0.785-0.175-0.611-0.32-1.484-0.32-1.949 0-1.716-0.029-1.716 6.167-1.018 3.084 0.32 5.702 0.611 5.818 0.611s0.058-0.378-0.087-0.844c-0.436-1.251-2.211-3.171-3.578-3.869-1.571-0.815-5.004-0.989-6.953-0.349z" fill="#000000"></path>
<path d="M10.036 8.32c-0.262 0.262-0.407 0.669-0.32 0.902s0.175 0.495 0.175 0.553c0 0.058 0.32 0.116 0.727 0.116 0.96 0 1.484-0.96 0.844-1.571-0.582-0.582-0.844-0.582-1.425 0z" fill="#000000"></path>
<path d="M15.418 8.291c-0.524 0.64-0.233 1.455 0.553 1.455 0.931 0 1.425-0.815 0.931-1.425-0.495-0.582-1.018-0.582-1.484-0.029z" fill="#000000"></path>
<path d="M35.811 10.007c-0.262 0.32-0.291 0.582-0.029 1.018 0.553 1.047 1.862 0.582 1.687-0.582-0.116-0.815-1.135-1.076-1.658-0.436z" fill="#000000"></path>
<path d="M17.135 19.113c-0.524 2.124-0.611 2.822-0.32 2.938 0.262 0.087 0.349 1.193 0.349 4.16v4.044h3.491v1.833l1.338-0.204c0.756-0.087 2.967-0.175 4.945-0.175h3.607v-4.073c0-3.782 0.029-4.073 0.553-4.073s0.524-0.087-0.058-2.473l-0.611-2.473h-1.775c-1.222 0-2.036 0.175-2.676 0.553l-0.902 0.582-0.727-1.105c-0.989-1.484-2.822-2.356-4.916-2.356h-1.629l-0.669 2.822z" fill="#000000"></path>
<path d="M11.869 16.785c-0.465 0.058-0.815 0.175-0.815 0.262s0.291 1.251 0.611 2.589l0.611 2.473h3.084l0.611-2.473c0.32-1.338 0.611-2.589 0.611-2.764 0-0.291-2.996-0.349-4.713-0.087z" fill="#000000"></path>
<path d="M6.255 17.135c-3.985 0.495-5.964 3.956-5.964 10.415v2.996h4.335c2.385 0 4.538-0.087 4.8-0.175 0.407-0.145 0.465-0.815 0.465-4.218 0-3.84 0.029-4.044 0.582-4.044 0.64 0 0.698-0.262 0.32-1.745-0.175-0.553-0.436-1.571-0.611-2.269-0.291-1.164-0.349-1.222-1.396-1.193-0.582 0.029-1.716 0.145-2.531 0.233z" fill="#000000"></path>
<path d="M33.804 18.24c-1.745 0.087-2.415 0.204-2.298 0.465 0.058 0.204 0.378 1.367 0.669 2.618l0.524 2.269 3.2-0.175 0.495-2.036c0.291-1.135 0.611-2.327 0.698-2.705 0.116-0.495 0.029-0.64-0.349-0.582-0.291 0.029-1.629 0.116-2.938 0.145z" fill="#000000"></path>
<path d="M37.731 20.131c-0.291 1.164-0.582 2.415-0.669 2.764-0.145 0.495-0.058 0.669 0.291 0.669 0.407 0 0.465 0.524 0.465 4.247v4.276l2.415-0.175c1.309-0.116 3.345-0.204 4.538-0.204h2.153l-0.204-2.065c-0.465-4.655-2.269-9.513-4.073-10.88-0.785-0.582-1.28-0.727-2.705-0.727h-1.716l-0.495 2.095z" fill="#000000"></path>
<path d="M10.764 26.473v3.782h5.818v-7.564h-5.818v3.782z" fill="#000000"></path>
<path d="M31.127 27.927v3.782h5.818v-7.564h-5.818v3.782z" fill="#000000"></path>
</svg>
