<?xml version="1.0" encoding="utf-8"?>
<!-- Generated by IcoMoon.io -->
<!DOCTYPE svg PUBLIC "-//W3C//DTD SVG 1.1//EN" "http://www.w3.org/Graphics/SVG/1.1/DTD/svg11.dtd">
<svg version="1.1" xmlns="http://www.w3.org/2000/svg" xmlns:xlink="http://www.w3.org/1999/xlink" width="515" height="500" viewBox="0 0 515 500">
<path fill="#000000" d="M39.261 299.333l1.322-153.75 60-3.072c33-1.689 62.813-3.377 66.25-3.75 4.294-0.466 6.25-10.918 6.25-33.405 0-28.081 1.742-34.47 12.273-45 11.78-11.78 14.899-12.273 77.727-12.273s65.947 0.493 77.727 12.273c10.080 10.080 12.273 17.228 12.273 40v27.727h120v325h-435.145l1.322-153.75zM289.083 133.083c19.596 0 19.604-0.007 18.052-18.75l-1.552-18.75h-85l-1.623 14.172c-2.926 25.551 1.699 30.019 27.419 26.494 12.705-1.741 31.921-3.166 42.703-3.166z"></path>
</svg>
