<?xml version="1.0" encoding="utf-8"?>
<!DOCTYPE svg PUBLIC "-//W3C//DTD SVG 1.1//EN" "http://www.w3.org/Graphics/SVG/1.1/DTD/svg11.dtd">
<svg version="1.1" xmlns="http://www.w3.org/2000/svg" xmlns:xlink="http://www.w3.org/1999/xlink" width="34" height="32" viewBox="0 0 34 32">
<path d="M27.947 1.6c-0.391 2.027-2.24 3.556-5.547 4.587-4.8 1.529-7.076 3.058-8.427 5.689-0.284 0.604-0.604 1.173-0.676 1.244s-0.64-0.213-1.316-0.64c-2.738-1.707-5.938-1.138-7.573 1.316-1.564 2.276-4.551 13.618-4.124 15.609 0.32 1.493 1.778 2.773 2.773 2.453 1.209-0.391 4.551-3.911 6.613-7.004l2.027-3.058 6.151-0.249c6.151-0.249 6.151-0.249 6.756 0.569 0.32 0.462 1.564 2.133 2.773 3.769 2.276 3.093 3.307 3.876 4.729 3.484 1.173-0.284 1.849-2.204 1.529-4.267-0.391-2.418-2.738-10.631-3.342-11.662-0.64-1.102-2.382-2.062-3.698-2.062-0.462 0-1.387 0.284-2.062 0.64-0.889 0.462-2.382 0.747-5.049 0.889-4.409 0.284-4.658 0.107-2.489-1.956 1.564-1.529 2.738-2.133 5.582-2.951 4.196-1.173 6.578-3.271 7.111-6.329 0.249-1.244 0.213-1.316-0.64-1.316-0.711 0-0.924 0.213-1.102 1.244zM8.889 15.502c0 1.244 0.036 1.28 1.244 1.138 1.173-0.142 1.244-0.071 1.244 0.853 0 0.853-0.142 0.996-1.067 0.996s-1.067 0.107-1.067 1.031c0 0.569-0.213 1.102-0.498 1.209-0.676 0.284-0.924-0.036-0.924-1.244 0-0.996-0.071-1.031-1.316-0.924-1.173 0.107-1.351 0-1.458-0.711-0.107-0.676 0.036-0.782 1.138-0.782h1.28l-0.213-1.422c-0.213-1.351-0.178-1.422 0.711-1.422 0.818 0 0.924 0.142 0.924 1.28zM26.311 15.324c0.818 1.458-1.351 2.418-2.24 0.96-0.284-0.427-0.249-0.747 0.071-1.138 0.676-0.782 1.707-0.711 2.169 0.178zM29.333 19.022c0 0.96-0.107 1.067-1.067 1.067-0.747 0-1.102-0.178-1.173-0.64-0.178-0.889 0.604-1.742 1.493-1.6 0.569 0.071 0.747 0.356 0.747 1.173z" fill="#000000"></path>
</svg>
