<?xml version="1.0" encoding="utf-8"?>
<!DOCTYPE svg PUBLIC "-//W3C//DTD SVG 1.1//EN" "http://www.w3.org/Graphics/SVG/1.1/DTD/svg11.dtd">
<svg version="1.1" xmlns="http://www.w3.org/2000/svg" xmlns:xlink="http://www.w3.org/1999/xlink" width="41" height="32" viewBox="0 0 41 32">
<path d="M0 15.937v15.624l20.392-0.314c11.169-0.125 20.518-0.376 20.706-0.565 0.126-0.188 0.126-6.839-0.126-14.808l-0.376-14.494-5.71-0.376c-3.137-0.251-12.298-0.439-20.329-0.565l-14.557-0.126v15.624zM7.529 6.274v2.51h-5.020v-5.020h5.020v2.51zM38.275 6.274v2.51h-5.020v-5.020h5.020v2.51zM22.463 20.831c-2.196 2.008-4.141 3.576-4.329 3.639-0.502 0-1.192-6.776-1.192-12.173v-4.392l9.475 9.349-3.953 3.576zM7.529 16.314v2.51h-5.020v-5.020h5.020v2.51zM38.275 16.314v2.51h-5.020v-5.020h5.020v2.51zM7.529 26.353v2.51h-5.020v-5.020h5.020v2.51zM38.275 26.353v2.51h-5.020v-5.020h5.020v2.51z" fill="#000000"></path>
</svg>
