<?xml version="1.0" encoding="utf-8"?>
<!DOCTYPE svg PUBLIC "-//W3C//DTD SVG 1.1//EN" "http://www.w3.org/Graphics/SVG/1.1/DTD/svg11.dtd">
<svg version="1.1" xmlns="http://www.w3.org/2000/svg" xmlns:xlink="http://www.w3.org/1999/xlink" width="26" height="32" viewBox="0 0 26 32">
<path d="M0.258 15.613c0 14.452 0.026 15.355 0.465 15.355 0.232 0 5.471 0.181 11.587 0.439 6.142 0.232 11.252 0.335 11.355 0.258 0.129-0.155 2.090-28.387 2.142-30.839v-0.568h-25.548v15.355zM16.774 6.452v1.032h-13.419v-2.065h13.419v1.032zM21.265 5.987c0.49 0.697 0.155 1.419-0.748 1.652-0.8 0.206-1.419-0.258-1.419-1.032 0-1.213 1.471-1.626 2.168-0.619zM21.265 9.574c0.774 1.11-0.516 2.4-1.626 1.626-0.645-0.465-0.697-1.058-0.103-1.703 0.568-0.619 1.239-0.594 1.729 0.077zM16.774 10.194v0.903h-6.839c-6.581 0-6.839-0.026-6.839-0.49 0-1.342-0.181-1.316 6.994-1.316h6.684v0.903zM21.11 13.213c0.774 0.774 0.077 2.116-1.032 1.961-0.748-0.103-1.213-1.29-0.723-1.858 0.387-0.49 1.316-0.542 1.755-0.103zM16.774 14.065v0.903h-13.677v-1.806h13.677v0.903zM18.761 18.761c0.8 0.387 0.981 0.594 0.981 1.213 0 1.213-1.006 1.755-3.406 1.884-1.729 0.103-2.168 0.026-3.174-0.49-1.342-0.697-1.626-1.471-0.8-2.194 1.342-1.161 4.49-1.368 6.4-0.413zM15.613 22.4c1.935 0.077 2.477 0 3.303-0.439l0.981-0.49-0.077 0.671c-0.129 1.058-1.626 1.677-4.026 1.677-1.419 0-2.013-0.103-2.219-0.387-0.155-0.206-0.594-0.594-0.981-0.826-0.413-0.258-0.723-0.645-0.723-0.852 0-0.335 0.103-0.31 0.723 0.077 0.516 0.335 1.316 0.49 3.019 0.568zM11.587 23.432c1.239 0.619 1.548 1.187 0.981 1.806-1.058 1.161-5.006 1.419-6.839 0.465-1.265-0.645-1.135-1.574 0.284-2.219 1.445-0.671 4.335-0.697 5.574-0.052zM19.871 24c0 1.058-2.581 1.961-4.826 1.677-1.187-0.155-1.368-0.232-1.368-0.748 0-0.542 0.103-0.568 2.013-0.568 1.265 0 2.323-0.155 2.89-0.413 1.187-0.568 1.29-0.542 1.29 0.052zM8.774 26.839c1.342 0 2.271-0.155 3.045-0.516l1.084-0.49v0.619c0 1.548-4.542 2.4-6.865 1.265-0.748-0.361-1.032-0.671-1.084-1.187l-0.077-0.671 0.981 0.49c0.697 0.361 1.497 0.49 2.916 0.49z" fill="#000000"></path>
</svg>
