<?xml version="1.0" encoding="utf-8"?>
<!DOCTYPE svg PUBLIC "-//W3C//DTD SVG 1.1//EN" "http://www.w3.org/Graphics/SVG/1.1/DTD/svg11.dtd">
<svg version="1.1" xmlns="http://www.w3.org/2000/svg" xmlns:xlink="http://www.w3.org/1999/xlink" width="39" height="32" viewBox="0 0 39 32">
<path d="M33.327 0.937c-0.676 0.859-0.676 1.405-0.026 2.263 0.598 0.754 0.624 1.119 0.234 3.122l-0.312 1.483h-5.958l0.156 1.613c0.078 0.911 0.442 5.802 0.806 10.875s0.728 9.496 0.78 9.834c0.078 0.312 0.364 0.806 0.65 1.093 0.468 0.468 0.885 0.52 4.293 0.52 3.694 0 3.824-0.026 4.423-0.65l0.65-0.624v-22.66h-4.735l0.13-0.859c0.078-0.442 0.234-1.327 0.312-1.951 0.104-0.676 0.312-1.093 0.546-1.093 1.197 0 1.873-2.341 0.937-3.2-0.781-0.702-2.263-0.572-2.888 0.234zM32.937 9.444c0.052 0.026-0.026 0.52-0.156 1.093-0.104 0.572-0.286 1.483-0.364 2.003l-0.182 0.989h-1.639c-1.925 0-1.977-0.052-1.977-2.836v-1.665l2.107 0.156c1.171 0.104 2.159 0.208 2.211 0.26zM36.891 9.626h0.833v3.902h-4.215l0.182-1.509c0.312-2.68 0.338-2.732 1.405-2.55 0.52 0.078 1.327 0.156 1.795 0.156zM35.33 15.974c0.104 0.546-0.364 0.963-0.911 0.754-0.364-0.13-0.468-0.911-0.156-1.223s0.989-0.026 1.067 0.468zM37.281 17.535c0.182 0.494-0.468 1.041-0.989 0.833-0.39-0.156-0.52-0.728-0.208-1.015 0.312-0.312 1.067-0.182 1.197 0.182zM35.902 18.628c0.286 0.312 0.26 0.468-0.078 0.833-0.416 0.39-0.468 0.39-0.885 0-0.338-0.364-0.364-0.52-0.078-0.833 0.182-0.234 0.416-0.416 0.52-0.416s0.338 0.182 0.52 0.416zM36.813 27.447c0 0.546-0.806 0.859-1.197 0.468-0.13-0.13-0.182-0.442-0.078-0.702 0.234-0.624 1.275-0.442 1.275 0.234zM35.33 28.982c0.104 0.546-0.364 0.963-0.911 0.754-0.364-0.13-0.468-0.911-0.156-1.223s0.989-0.026 1.067 0.468z" fill="#000000"></path>
<path d="M3.434 11.629c-2.81 0.078-3.174 0.156-3.174 0.546 0 0.234 0.52 4.423 1.145 9.288l1.145 8.846 0.807 0.702c0.78 0.702 0.937 0.728 3.564 0.728 3.070 0 4.006-0.312 4.475-1.483 0.182-0.39 0.806-4.787 1.431-9.782l1.119-9.028-3.642 0.052c-2.029 0.026-5.099 0.104-6.868 0.13zM12.618 14.361c-0.104 0.911-0.208 1.665-0.26 1.717-0.104 0.104-10.38 1.041-10.485 0.963-0.13-0.13-0.494-3.902-0.39-4.111 0.052-0.104 2.628-0.182 5.724-0.182h5.594l-0.182 1.613zM5.333 20.163c0 0.572-0.806 0.859-1.223 0.442-0.442-0.442-0.026-1.145 0.624-1.041 0.39 0.052 0.598 0.26 0.598 0.598zM7.961 23.675c0.26 0 0.052 0.754-0.286 1.041-0.312 0.26-0.468 0.26-0.78 0-0.494-0.416-0.026-1.405 0.572-1.197 0.208 0.078 0.442 0.156 0.494 0.156zM9.496 25.626c0 0.572-0.806 0.859-1.223 0.442-0.442-0.442-0.026-1.145 0.624-1.041 0.39 0.052 0.598 0.26 0.598 0.598zM8.013 27.161c-0.052 0.338-0.26 0.546-0.598 0.546-0.598 0-0.859-0.885-0.364-1.171 0.52-0.338 1.041 0.026 0.963 0.624z" fill="#000000"></path>
</svg>
