<?xml version="1.0" encoding="utf-8"?>
<!DOCTYPE svg PUBLIC "-//W3C//DTD SVG 1.1//EN" "http://www.w3.org/Graphics/SVG/1.1/DTD/svg11.dtd">
<svg version="1.1" xmlns="http://www.w3.org/2000/svg" xmlns:xlink="http://www.w3.org/1999/xlink" width="19" height="32" viewBox="0 0 19 32">
<path d="M6.508 0.323c-0.215 0.215-0.323 1.425-0.323 3.711v3.415l-3.012 0.188c-1.667 0.108-3.039 0.215-3.066 0.242s0.027 4.894 0.108 10.81l0.188 10.756h0.699c0.484-0.027 0.672 0.108 0.592 0.323-0.269 0.672 0.188 1.613 0.887 1.909 1.103 0.511 2.097-0.081 2.205-1.371l0.081-0.995h1.56c0.861 0 3.039-0.081 4.867-0.188 3.254-0.161 3.281-0.161 2.958 0.376-0.861 1.345 0.619 2.877 2.097 2.178 0.807-0.403 1.129-1.613 0.565-2.259-0.269-0.323-0.108-0.376 0.941-0.376h1.237v-1.694c0-0.914-0.134-5.808-0.323-10.891l-0.323-9.197h-6.615v-3.308c0-2.205-0.108-3.415-0.323-3.63-0.188-0.188-1.156-0.323-2.501-0.323s-2.313 0.134-2.501 0.323zM10.703 4.356l-0.081 3.039-3.361 0.161v-6.212h3.523l-0.081 3.012zM14.521 10.084c0 0.618-0.081 0.672-1.318 0.672-1.291 0-1.291 0-1.479 0.995-0.242 1.56-0.188 2.447 0.161 2.555 0.242 0.081 0.188 0.968-0.161 3.576-0.242 1.909-0.511 3.523-0.565 3.576s-0.645 0-1.345-0.108l-1.264-0.188 0.161-1.506c0.081-0.834 0.242-2.447 0.323-3.603 0.161-1.909 0.215-2.097 0.672-1.99 0.538 0.134 0.619 0 0.887-2.178l0.161-1.129h-3.496c-3.308 0-3.496-0.027-3.496-0.538 0-0.484 0.215-0.538 4.114-0.619 2.232-0.027 4.652-0.108 5.378-0.134 1.183-0.054 1.264 0 1.264 0.619z" fill="#000000"></path>
</svg>
