<?xml version="1.0" encoding="utf-8"?>
<!DOCTYPE svg PUBLIC "-//W3C//DTD SVG 1.1//EN" "http://www.w3.org/Graphics/SVG/1.1/DTD/svg11.dtd">
<svg version="1.1" xmlns="http://www.w3.org/2000/svg" xmlns:xlink="http://www.w3.org/1999/xlink" width="30" height="32" viewBox="0 0 30 32">
<path d="M7.704 0.909c-3.556 1.383-6.044 3.832-7.072 6.914-2.331 6.835 2.647 13.156 10.864 13.788 1.62 0.119 3.595 0.040 4.385-0.198l1.462-0.395 4.227 5.175c2.331 2.884 4.346 5.373 4.504 5.531 0.237 0.277 3.16-4.148 3.16-4.78 0-0.158-1.778-2.291-3.951-4.78l-3.911-4.543 0.632-1.146c1.738-3.358 0.869-8.77-1.936-11.931-3.081-3.516-8.573-5.096-12.365-3.635zM13.353 4.543c3.714 1.58 5.689 5.728 4.385 9.165-0.593 1.58-3.042 3.99-4.425 4.306-3.16 0.672-8.020-2.607-8.968-6.084-0.751-2.963 0.751-5.886 3.714-7.23 1.975-0.909 3.358-0.948 5.294-0.158z" fill="#000000"></path>
</svg>
