<?xml version="1.0" encoding="utf-8"?>
<!DOCTYPE svg PUBLIC "-//W3C//DTD SVG 1.1//EN" "http://www.w3.org/Graphics/SVG/1.1/DTD/svg11.dtd">
<svg version="1.1" xmlns="http://www.w3.org/2000/svg" xmlns:xlink="http://www.w3.org/1999/xlink" width="27" height="32" viewBox="0 0 27 32">
<path d="M7.335 0.863c-0.503 0.395-0.719 1.079-0.863 2.804l-0.18 2.265-2.049 0.108c-2.481 0.144-2.193-1.187-3.164 13.016-0.395 5.825-0.791 11.038-0.899 11.578l-0.144 1.007h26.966l-0.252-1.33c-0.144-0.755-1.258-6.688-2.481-13.231l-2.193-11.865-4.279-0.072-0.108-1.582c-0.072-1.007-0.395-1.87-0.863-2.409-0.719-0.719-1.079-0.791-4.782-0.791-2.876 0-4.207 0.144-4.71 0.503zM14.742 4.279c0 0.971-0.108 1.043-1.87 1.258-3.452 0.396-3.524 0.36-3.524-1.043v-1.258h5.393v1.043z" fill="#000000"></path>
</svg>
