<?xml version="1.0" encoding="utf-8"?>
<!DOCTYPE svg PUBLIC "-//W3C//DTD SVG 1.1//EN" "http://www.w3.org/Graphics/SVG/1.1/DTD/svg11.dtd">
<svg version="1.1" xmlns="http://www.w3.org/2000/svg" xmlns:xlink="http://www.w3.org/1999/xlink" width="32" height="32" viewBox="0 0 32 32">
<path d="M8.772 5.045c-4.367 2.711-8.094 5.045-8.207 5.195-0.151 0.113 0.376 5.007 1.167 10.842l1.431 10.616 12.047-0.226c6.664-0.151 12.951-0.339 14.042-0.452l1.92-0.188 0.226-2.711c0.113-1.506 0.301-6.099 0.414-10.24l0.226-7.529-15.285-10.24-7.981 4.932zM14.042 10.052c-0.565 1.958-0.264 5.496 0.565 7.115 1.882 3.727 6.174 5.873 10.24 5.12 1.129-0.188 2.146-0.301 2.221-0.226 0.113 0.075-0.602 0.904-1.581 1.845-4.706 4.518-11.934 3.238-15.059-2.635-1.054-1.995-1.129-6.174-0.113-8.094 0.715-1.393 3.162-4.141 3.689-4.141 0.188 0 0.188 0.452 0.038 1.016z" fill="#000000"></path>
</svg>
