<?xml version="1.0" encoding="utf-8"?>
<!DOCTYPE svg PUBLIC "-//W3C//DTD SVG 1.1//EN" "http://www.w3.org/Graphics/SVG/1.1/DTD/svg11.dtd">
<svg version="1.1" xmlns="http://www.w3.org/2000/svg" xmlns:xlink="http://www.w3.org/1999/xlink" width="49" height="32" viewBox="0 0 49 32">
<path d="M28.992 2.911c-5.149 1.444-13.714 3.826-19.008 5.293s-9.696 2.743-9.768 2.815c-0.096 0.144 2.574 10.153 4.331 16.192l0.265 0.866 2.647-0.722v-14.604h17.564c13.883 0 17.564-0.072 17.564-0.313 0-0.144-0.722-2.959-1.612-6.232-1.444-5.317-1.684-5.967-2.117-5.943-0.265 0.024-4.692 1.203-9.865 2.647z" fill="#000000"></path>
<path d="M8.902 22.977v8.782h39.459v-17.564h-39.459v8.782zM42.947 16.457c1.059 0.265 1.612 0.553 2.093 1.083 0.842 0.938 0.842 1.131-0.048 1.949-2.117 1.973-8.397 1.347-8.614-0.866-0.096-0.914 0.481-1.468 2.165-2.045 1.54-0.529 2.502-0.553 4.403-0.12zM32 17.564v0.962h-19.489v-1.684l4.042-0.072c2.214-0.024 6.592-0.096 9.744-0.12l5.702-0.048v0.962zM38.737 21.077c1.877 0.481 4.211 0.313 5.678-0.385 1.251-0.626 1.347-0.602 1.251 0.168-0.168 1.468-3.922 2.43-6.833 1.78-1.684-0.385-2.502-1.035-2.502-1.997 0-0.698 0.024-0.722 0.433-0.361 0.241 0.217 1.131 0.577 1.973 0.794zM32 21.414c0 0.698-0.024 0.722-1.251 0.746-0.698 0-5.101 0.144-9.768 0.289l-8.469 0.289v-2.045h19.489v0.722zM39.844 23.483c1.564 0.192 3.633-0.168 4.98-0.866l0.914-0.481-0.072 0.77c-0.072 0.674-0.241 0.866-1.251 1.371-1.42 0.722-4.74 0.986-5.582 0.457-0.289-0.168-0.962-0.553-1.516-0.866-0.722-0.385-0.986-0.698-0.986-1.107v-0.553l1.083 0.553c0.602 0.289 1.708 0.626 2.43 0.722zM36.307 24.589c0.938 0.481 1.107 0.65 1.107 1.275 0 0.602-0.168 0.818-1.083 1.323-0.938 0.529-1.371 0.602-3.368 0.602-1.901 0-2.478-0.096-3.417-0.553-1.395-0.698-1.66-1.323-0.89-2.117 1.371-1.347 5.438-1.612 7.651-0.529zM45.185 26.033c-0.818 0.65-2.743 1.155-4.307 1.155-1.804 0-2.141-0.144-2.141-0.938v-0.674l2.117 0.024c1.732 0 2.31-0.096 3.417-0.602l1.323-0.626 0.072 0.626c0.072 0.409-0.096 0.722-0.481 1.035zM24.782 26.851v1.131l-1.853-0.168c-1.035-0.072-3.802-0.217-6.135-0.289l-4.283-0.168v-1.612h12.271v1.107zM45.642 27.765c-0.361 0.938-4.090 1.853-6.039 1.492-0.746-0.144-0.866-0.265-0.866-0.842v-0.698l2.117 0.024c1.756 0 2.334-0.096 3.417-0.602 1.251-0.553 1.323-0.577 1.395-0.144 0.048 0.265 0.024 0.602-0.024 0.77zM31.206 28.391c1.853 0.361 3.777 0.144 5.245-0.577l1.083-0.553v0.674c0 1.997-5.125 2.863-8.108 1.395-0.986-0.505-1.155-0.698-1.227-1.395l-0.072-0.818 0.794 0.505c0.433 0.265 1.468 0.626 2.286 0.77z" fill="#000000"></path>
</svg>
