<?xml version="1.0" encoding="utf-8"?>
<!DOCTYPE svg PUBLIC "-//W3C//DTD SVG 1.1//EN" "http://www.w3.org/Graphics/SVG/1.1/DTD/svg11.dtd">
<svg version="1.1" xmlns="http://www.w3.org/2000/svg" xmlns:xlink="http://www.w3.org/1999/xlink" width="32" height="32" viewBox="0 0 32 32">
<path d="M12.841 11.159l-10.749 10.79-1.067 4.882c-0.574 2.667-0.985 4.923-0.944 4.964 0.082 0.041 2.256-0.41 4.923-0.944l4.759-1.026 22.031-22.031-3.692-3.692c-2.010-2.010-3.856-3.692-4.103-3.692s-5.251 4.841-11.159 10.749zM11.364 23.138l1.026 2.010-1.805 1.805c-1.354 1.354-2.256 1.887-3.446 2.051-1.436 0.164-1.764 0.041-3.118-1.395-1.436-1.477-1.518-1.641-1.149-3.159 0.246-1.149 1.067-2.338 2.913-4.185l2.585-2.585 0.985 1.723c0.533 0.944 1.436 2.626 2.010 3.733z" fill="#000000"></path>
</svg>
