<?xml version="1.0" encoding="utf-8"?>
<!DOCTYPE svg PUBLIC "-//W3C//DTD SVG 1.1//EN" "http://www.w3.org/Graphics/SVG/1.1/DTD/svg11.dtd">
<svg version="1.1" xmlns="http://www.w3.org/2000/svg" xmlns:xlink="http://www.w3.org/1999/xlink" width="53" height="32" viewBox="0 0 53 32">
<path d="M14.312 0.598l-13.96 0.106v30.945h52.044v-6.084c0-3.376-0.105-10.409-0.246-15.648l-0.211-9.565-11.815 0.070c-6.505 0.070-18.11 0.141-25.811 0.176zM19.27 6.189c0.633 0.422 0.774 0.879 0.774 2.462 0 1.055-0.141 1.899-0.352 1.899-0.176 0-0.352-0.774-0.352-1.758 0-1.371-0.141-1.829-0.703-2.11-1.231-0.668-2.040 0.106-2.18 2.040-0.141 2.391-0.774 2.040-0.914-0.527l-0.105-2.18 1.090 0.035c0.598 0.035 1.16-0.070 1.301-0.176 0.316-0.352 0.563-0.316 1.442 0.316zM24.58 6.505c0.774 0.774 0.141 1.090-0.668 0.352-0.914-0.844-2.391-0.457-2.673 0.703-0.422 1.688 0.457 2.567 2.145 2.145 1.090-0.281 1.16-1.16 0.105-1.371-0.598-0.105-0.492-0.176 0.352-0.211 1.090-0.035 1.125 0 1.090 1.266 0 0.738-0.105 1.16-0.176 0.949-0.141-0.316-0.457-0.316-1.196-0.035-1.969 0.738-3.587-0.879-3.024-3.024 0.387-1.547 2.813-2.004 4.044-0.774zM7.209 6.33c-0.106 0.176-0.774 0.352-1.442 0.352-0.844 0-1.196 0.176-1.196 0.527s0.387 0.527 1.231 0.527c0.668 0 1.231 0.141 1.231 0.352 0 0.176-0.527 0.352-1.196 0.352-1.055 0-1.231 0.105-1.336 0.949-0.211 1.829-0.809 0.985-0.914-1.231l-0.106-2.18h1.969c1.231 0 1.899 0.141 1.758 0.352zM8.44 7.912v1.934h1.442c0.844 0 1.336 0.141 1.196 0.352-0.105 0.176-0.914 0.352-1.793 0.352h-1.547v-2.286c0-1.301 0.141-2.286 0.352-2.286s0.352 0.879 0.352 1.934zM11.147 6.892l0.598 0.914 0.774-0.914c1.196-1.371 1.793-1.125 0.703 0.281-0.492 0.668-0.914 1.618-0.914 2.11s-0.141 0.985-0.352 1.090c-0.211 0.141-0.352-0.176-0.352-0.738 0-0.527-0.387-1.477-0.879-2.11-0.949-1.266-1.055-1.547-0.527-1.547 0.176 0 0.598 0.422 0.949 0.914zM15.121 8.053c0 1.16-0.141 2.215-0.352 2.321-0.211 0.141-0.352-0.633-0.352-2.075 0-1.301 0.141-2.321 0.352-2.321s0.352 0.914 0.352 2.075zM29.011 7.103c0.035 0.527 0.141 1.055 0.281 1.196 0.492 0.492 0.246 1.547-0.457 1.899-0.422 0.211-1.336 0.352-2.040 0.281l-1.301-0.105-0.211-4.431 1.864 0.106c1.758 0.106 1.864 0.141 1.864 1.055zM30.593 7.912v1.934h2.813v-1.934c0-1.055 0.176-1.934 0.352-1.934 0.211 0 0.352 0.774 0.352 1.758 0 1.582 0.070 1.758 0.879 1.969 1.301 0.316 1.934-0.387 1.934-2.18 0-1.125 0.141-1.547 0.527-1.547 0.352 0 0.527 0.352 0.563 0.949 0 0.563 0.105 0.738 0.211 0.457 0.316-0.879 1.231-1.407 2.356-1.407 1.371 0 1.829 0.316 2.286 1.512l0.387 0.949h-2.11c-1.16 0-2.11 0.141-2.11 0.281 0 0.914 2.145 1.547 2.637 0.774 0.105-0.211 0.492-0.352 0.809-0.352 0.492 0.035 0.457 0.141-0.246 0.703-1.16 0.985-2.637 0.914-3.516-0.211-0.668-0.879-0.738-0.879-0.738-0.211 0 0.809-0.527 1.301-0.879 0.809-0.141-0.246-0.527-0.211-1.055 0.035-0.668 0.281-1.090 0.281-1.758 0-0.527-0.246-0.949-0.281-1.055-0.070-0.141 0.211-0.914 0.352-1.793 0.352h-1.547v-2.286c0-1.301 0.141-2.286 0.352-2.286s0.352 0.879 0.352 1.934zM5.978 16.352v1.231h-4.923v-2.462h4.923v1.231zM13.714 15.543c-0.035 1.407-0.457 2.040-1.442 2.040-0.914 0-1.020-0.105-1.020-1.231 0-1.16 0.070-1.231 1.231-1.231 0.738 0 1.231 0.176 1.231 0.422zM18.637 16.352c0 1.16-0.070 1.231-1.231 1.231s-1.231-0.070-1.231-1.231c0-1.16 0.070-1.231 1.231-1.231s1.231 0.070 1.231 1.231zM23.56 16.352c0 1.16-0.070 1.231-1.231 1.231-1.125 0-1.231-0.105-1.231-0.985 0-0.563 0.105-1.125 0.246-1.231 0.105-0.141 0.668-0.246 1.231-0.246 0.879 0 0.985 0.105 0.985 1.231zM28.765 16.422c0.105 1.125 0.070 1.16-1.301 1.16-1.336 0-1.442-0.070-1.442-0.985 0-1.301 0.281-1.547 1.582-1.407 0.914 0.105 1.055 0.246 1.16 1.231zM36.22 16.352v1.266l-5.099-0.211-0.105-1.16-0.105-1.125h5.31v1.231zM41.143 16.352c0 1.16-0.070 1.231-1.231 1.231s-1.231-0.070-1.231-1.231c0-1.16 0.070-1.231 1.231-1.231s1.231 0.070 1.231 1.231zM46.066 16.141c0 0.738-0.211 1.055-0.774 1.231-1.477 0.387-1.688 0.246-1.688-1.020 0-1.16 0.070-1.231 1.231-1.231 1.125 0 1.231 0.105 1.231 1.020zM51.27 16.422c0.105 1.125 0.070 1.16-1.301 1.16-1.336 0-1.442-0.070-1.442-0.985 0-1.301 0.281-1.547 1.582-1.407 0.914 0.105 1.055 0.246 1.16 1.231zM5.626 22.189c0 0.387-0.141 0.633-0.352 0.492-0.176-0.105-0.246-0.422-0.106-0.703 0.246-0.738 0.457-0.668 0.457 0.211zM6.822 21.732c-0.211 0.141-0.492 0.492-0.598 0.774-0.141 0.352-0.211 0.281-0.211-0.281-0.035-0.527 0.176-0.774 0.598-0.774 0.352 0 0.457 0.105 0.211 0.281zM10.62 21.697c-0.246 0.105-0.563 0.070-0.668-0.035-0.141-0.105 0.070-0.211 0.457-0.176 0.387 0 0.492 0.105 0.211 0.211zM16.668 21.732c-0.211 0.141-0.492 0.492-0.598 0.774-0.141 0.352-0.211 0.281-0.211-0.281-0.035-0.527 0.176-0.774 0.598-0.774 0.352 0 0.457 0.105 0.211 0.281zM20.536 21.732c-0.211 0.141-0.492 0.492-0.598 0.774-0.141 0.352-0.211 0.281-0.211-0.281-0.035-0.527 0.176-0.774 0.598-0.774 0.352 0 0.457 0.105 0.211 0.281zM23.455 22.963c-0.105 0.211-0.176-0.070-0.176-0.633 0-0.598 0.070-0.774 0.176-0.422 0.070 0.316 0.070 0.809 0 1.055zM25.776 21.697c-0.246 0.070-0.457 0.492-0.492 0.914 0 0.422-0.105 0.563-0.211 0.316-0.246-0.633 0.141-1.477 0.668-1.442 0.352 0 0.352 0.070 0.035 0.211zM3.727 22.752c-0.106 0.141-0.211-0.070-0.176-0.457 0-0.387 0.106-0.492 0.211-0.211 0.106 0.246 0.070 0.563-0.035 0.668zM9.354 22.752c-0.105 0.141-0.211-0.070-0.176-0.457 0-0.387 0.105-0.492 0.211-0.211 0.105 0.246 0.070 0.563-0.035 0.668zM14.664 22.927c-0.105 0.246-0.176 0.070-0.176-0.422s0.070-0.668 0.176-0.457c0.070 0.246 0.070 0.668 0 0.879zM10.62 22.4c-0.246 0.105-0.563 0.070-0.668-0.035-0.141-0.105 0.070-0.211 0.457-0.176 0.387 0 0.492 0.105 0.211 0.211zM12.659 22.576c0 0.141-0.246 0.281-0.527 0.281s-0.527-0.141-0.527-0.281c0-0.176 0.246-0.316 0.527-0.316s0.527 0.141 0.527 0.316zM22.611 22.752c-0.246 0.070-0.668 0.070-0.879 0-0.246-0.105-0.070-0.176 0.422-0.176s0.668 0.070 0.457 0.176z" fill="#000000"></path>
<path d="M26.022 7.209c0 0.352 0.387 0.527 1.231 0.527s1.231-0.176 1.231-0.527c0-0.352-0.387-0.527-1.231-0.527s-1.231 0.176-1.231 0.527z" fill="#000000"></path>
<path d="M26.022 9.143c0 0.633 0.176 0.738 1.336 0.633 0.879-0.070 1.301-0.281 1.301-0.633s-0.422-0.563-1.301-0.633c-1.16-0.105-1.336 0-1.336 0.633z" fill="#000000"></path>
<path d="M39.279 6.927c-0.563 0.563-0.141 0.809 1.336 0.809 1.231 0 1.512-0.106 1.371-0.527-0.211-0.527-2.251-0.738-2.708-0.281z" fill="#000000"></path>
</svg>
