<?xml version="1.0" encoding="utf-8"?>
<!DOCTYPE svg PUBLIC "-//W3C//DTD SVG 1.1//EN" "http://www.w3.org/Graphics/SVG/1.1/DTD/svg11.dtd">
<svg version="1.1" xmlns="http://www.w3.org/2000/svg" xmlns:xlink="http://www.w3.org/1999/xlink" width="32" height="32" viewBox="0 0 32 32">
<path d="M11.773 0.909c-5.017 1.896-8.77 5.768-10.825 11.141-0.988 2.607-1.027 8.099-0.039 10.074 1.975 3.99 6.519 8.059 10.272 9.165 5.57 1.58 13.867-0.869 17.067-5.057 6.202-8.099 3.239-20.030-6.044-24.375-2.094-0.988-3.239-1.225-5.807-1.343-2.015-0.079-3.674 0.079-4.622 0.395zM17.383 3.121c0 2.173-0.632 2.923-1.462 1.817-0.474-0.672-0.514-0.672-0.514-0.079 0 0.356-0.277 0.672-0.593 0.672-0.435 0-0.593-0.474-0.593-1.738 0-2.015 0.593-2.647 1.383-1.58 0.553 0.711 0.553 0.711 0.593-0.158 0-0.514 0.237-0.869 0.593-0.869 0.435 0 0.593 0.474 0.593 1.936zM19.358 7.151c6.519 2.923 8.336 10.983 3.635 15.921-1.975 2.054-4.109 3.002-6.835 3.002-9.679 0.040-13.63-9.758-6.716-16.593 3.2-3.16 6.4-3.911 9.916-2.331zM16.909 27.615c0.119 0.395-0.040 0.474-0.672 0.316-1.067-0.277-1.106 0.395 0 0.711 0.593 0.198 0.751 0.553 0.672 1.304-0.079 0.869-0.356 1.106-1.383 1.185-1.383 0.119-1.738-0.514-0.83-1.422 0.356-0.356 0.356-0.474 0-0.474-0.632 0-0.593-1.857 0.040-2.133 0.83-0.316 1.975-0.079 2.173 0.514z" fill="#000000"></path>
<path d="M14.143 12.049l-1.422 4.583 1.501 4.425c0.83 2.489 1.58 4.148 1.738 3.832 0.119-0.316 0.751-2.331 1.422-4.425l1.225-3.872-1.264-4.227c-0.672-2.37-1.383-4.385-1.501-4.583-0.158-0.158-0.948 1.778-1.699 4.267zM16.751 13.116c0.356 1.225 0.632 2.331 0.632 2.449s-0.83 0.237-1.817 0.237c-1.304 0-1.778-0.158-1.62-0.514 0.079-0.237 0.514-1.501 0.909-2.765 0.395-1.225 0.83-2.133 0.988-1.975 0.158 0.198 0.553 1.304 0.909 2.568z" fill="#000000"></path>
<path d="M15.407 29.985c0 0.237 0.198 0.435 0.395 0.435 0.237 0 0.395-0.079 0.395-0.158 0-0.119-0.158-0.316-0.395-0.435-0.198-0.119-0.395-0.040-0.395 0.158z" fill="#000000"></path>
</svg>
