<?xml version="1.0" encoding="utf-8"?>
<!DOCTYPE svg PUBLIC "-//W3C//DTD SVG 1.1//EN" "http://www.w3.org/Graphics/SVG/1.1/DTD/svg11.dtd">
<svg version="1.1" xmlns="http://www.w3.org/2000/svg" xmlns:xlink="http://www.w3.org/1999/xlink" width="1024" height="1024" viewBox="0 0 1024 1024"><g id="icomoon-ignore">
</g>
<path d="M483.727 448.875c10.693-2.179 20.639-8.636 29.541-17.088 1.289 1.156 2.691 2.2 4.185 3.1 22.747 13.589 52.042 7.756 80.365-16.034 0.614-0.512 1.238-1.033 1.842-1.576 5.628 6.876 12.32 12.75 19.974 17.508 26.297 16.392 62.448 19.165 101.802 7.818l-8.861-30.718c-30.083 8.667-57.803 7.132-76.047-4.236-5.832-3.622-10.713-8.278-14.653-13.957 23.524-30.104 38.371-68.516 28.364-94.68-10.908-28.518-26.461-28.876-34.77-26.574-8.401 2.313-20.649 9.741-30.186 47.202-4.298 16.986-7.613 39.968-5.29 53.034 0.972 5.454 2.292 10.693 3.95 15.645-2.159 2.098-4.39 4.113-6.682 6.058-8.043 6.753-28.16 21.427-42.782 13.425-0.194-0.297-0.409-0.655-0.614-1.074 6.672-9.956 12.146-19.984 16.167-28.037 13.23-26.563 27.443-65.907 23.862-89.411-2.681-17.661-15.451-24.374-26.901-23.197-24.619 2.517-37.011 35.547-43.068 62.827-0.522 2.353-8.718 40.152-4.512 70.777-9.332 11.491-17.18 16.853-22.041 17.835-17.763 3.592-29.52-1.668-37.174-8.861 6.569-10.887 14.131-24.762 20.25-38.484 16.096-36.253 17.682-61.036 4.84-75.72-7.48-8.575-15.717-12.678-24.507-12.238-13.977 0.747-22.194 12.412-28.804 21.785-0.675 0.962-1.371 1.924-2.057 2.896-20.434 28.467-23.453 70.511-8.309 101.945-11.112 13.404-26.993 22-37.123 19.82-5.761-1.238-9.864-7.030-12.197-17.221-4.635-20.25 2.834-75.976 12.484-93.186l-27.883-15.625c-13.476 24.015-22.174 87.968-15.758 115.943 7.009 30.595 25.939 39.037 36.601 41.329 2.108 0.46 4.226 0.778 6.344 0.941 21.068 1.617 42.28-10.57 57.24-26.144 16.525 13.896 38.341 19.032 62.407 14.172z" fill="rgb(255, 255, 255)"></path>
<path d="M388.233 952.036c35.036 22.644 125.091 30.073 125.091 30.073s89.83-7.429 124.866-30.073v-66.285h-249.957v66.285z" fill="rgb(5, 16, 57)"></path>
<path d="M357.736 459.907c-10.662-2.302-29.592-10.734-36.601-41.329-6.416-27.975 2.282-91.928 15.758-115.953l27.883 15.635c-9.649 17.201-17.119 72.937-12.484 93.186 2.333 10.191 6.436 15.983 12.197 17.221 10.13 2.179 26.011-6.416 37.123-19.82-15.144-31.434-12.125-73.479 8.309-101.945 0.686-0.972 1.381-1.934 2.057-2.896 6.61-9.373 14.827-21.038 28.804-21.785 8.79-0.44 17.027 3.663 24.507 12.238 12.842 14.683 11.256 39.466-4.84 75.72-6.119 13.722-13.681 27.597-20.25 38.484 7.654 7.193 19.411 12.453 37.174 8.851 4.86-0.972 12.709-6.334 22.041-17.825-4.206-30.626 3.991-68.424 4.512-70.777 6.058-27.28 18.449-60.31 43.068-62.827 11.45-1.187 24.22 5.536 26.901 23.197 3.581 23.504-10.631 62.847-23.862 89.411-4.021 8.053-9.496 18.081-16.167 28.037 0.205 0.42 0.42 0.778 0.614 1.074 14.622 7.991 34.739-6.672 42.782-13.425 2.292-1.944 4.523-3.96 6.682-6.058-1.658-4.952-2.978-10.191-3.95-15.645-2.323-13.067 0.993-36.049 5.29-53.034 9.537-37.461 21.785-44.89 30.186-47.202 8.309-2.302 23.862-1.944 34.77 26.574 10.007 26.164-4.84 64.566-28.364 94.68 3.939 5.679 8.82 10.335 14.653 13.957 18.244 11.368 45.964 12.903 76.047 4.236l8.861 30.718c-39.354 11.348-75.505 8.565-101.802-7.818-7.654-4.758-14.346-10.631-19.974-17.508-0.604 0.542-1.228 1.054-1.842 1.576-28.323 23.78-57.619 29.623-80.365 16.034-1.494-0.9-2.896-1.944-4.185-3.1-8.902 8.452-18.848 14.909-29.541 17.088-24.067 4.85-45.882-0.276-62.407-14.172-14.96 15.574-36.172 27.76-57.24 26.144-2.118-0.164-4.236-0.481-6.344-0.941zM632.947 786.33c0-193.433 205.651-255.339 190.241-448.005-9.69-121.592-92.051-257.979-309.96-257.979-217.889 0-300.27 136.388-309.939 257.979-15.41 192.727 190.189 254.572 190.189 448.005h239.469z" fill="rgb(5, 16, 57)"></path>
<path d="M388.231 865.287h249.957v-46.087h-249.957v46.087z" fill="rgb(5, 16, 57)"></path>
</svg>
