<?xml version="1.0" encoding="utf-8"?>
<!DOCTYPE svg PUBLIC "-//W3C//DTD SVG 1.1//EN" "http://www.w3.org/Graphics/SVG/1.1/DTD/svg11.dtd">
<svg version="1.1" xmlns="http://www.w3.org/2000/svg" xmlns:xlink="http://www.w3.org/1999/xlink" width="34" height="32" viewBox="0 0 34 32">
<path d="M14.471 0.782l-1.707 0.356 0.782 0.853 0.782 0.818 1.28-0.924c0.711-0.533 1.422-1.102 1.636-1.244 0.391-0.356-0.569-0.32-2.773 0.142z" fill="#000000"></path>
<path d="M18.382 2.027l-2.773 1.707 0.996 0.782c0.533 0.427 1.707 1.173 2.631 1.671l1.636 0.924 1.316-3.093c1.067-2.418 1.244-3.129 0.853-3.342-0.924-0.604-1.92-0.284-4.658 1.351z" fill="#000000"></path>
<path d="M23.822 4.48c-0.782 1.707-1.387 3.129-1.351 3.164 0.178 0.142 3.627 1.173 4.693 1.422l1.031 0.213-0.213-2.773c-0.213-3.378-0.356-3.698-1.671-4.516l-1.067-0.604-1.422 3.093z" fill="#000000"></path>
<path d="M8.996 2.844c-2.347 1.173-6.293 4.693-6.080 5.404 0.142 0.427 3.698 2.773 4.231 2.773 0.107 0 0.818-0.889 1.529-1.991 0.747-1.102 1.991-2.702 2.773-3.556l1.387-1.529-0.782-1.067c-0.462-0.604-0.818-1.102-0.853-1.102s-1.031 0.498-2.204 1.067z" fill="#000000"></path>
<path d="M29.653 5.653c0.107 0.64 0.213 1.813 0.213 2.56 0 1.387 0 1.387 1.422 1.387h1.422l-0.676-1.351c-0.391-0.711-1.138-1.884-1.636-2.56l-0.96-1.244 0.213 1.209z" fill="#000000"></path>
<path d="M12.907 6.258c-1.707 1.813-4.089 5.547-3.769 5.831 0.356 0.284 6.898 3.164 7.502 3.271 0.249 0.071 1.102-1.351 1.991-3.378l1.6-3.449-1.849-0.96c-1.031-0.498-2.382-1.316-3.022-1.813l-1.138-0.889-1.316 1.387z" fill="#000000"></path>
<path d="M20.764 11.236c-0.533 1.173-1.244 2.773-1.6 3.591l-0.64 1.493 3.769 1.458c2.098 0.782 3.982 1.387 4.196 1.28 0.533-0.178 1.387-4.089 1.422-6.4v-1.707l-2.489-0.64c-1.351-0.356-2.773-0.747-3.129-0.889-0.498-0.213-0.782 0.142-1.529 1.813z" fill="#000000"></path>
<path d="M1.173 11.342c-0.462 1.173-0.64 2.631-0.64 5.084 0 1.884 0.071 3.52 0.178 3.627 0.107 0.071 0.996 0.284 1.956 0.391l1.813 0.249 0.462-2.24c0.249-1.244 0.747-2.987 1.067-3.911l0.64-1.636-4.836-3.2-0.64 1.636z" fill="#000000"></path>
<path d="M29.689 12.764c-0.178 1.564-1.173 6.187-1.458 6.969-0.178 0.462 4.48 2.098 4.871 1.707 0.604-0.604 0.996-5.049 0.64-7.467-0.178-1.316-0.356-2.418-0.427-2.453-0.036-0.036-0.818-0.142-1.742-0.213l-1.671-0.178-0.213 1.636z" fill="#000000"></path>
<path d="M7.751 14.507c-0.676 1.742-1.351 4.516-1.351 5.653 0 1.067 0.107 1.138 2.062 1.707 1.102 0.32 2.667 0.818 3.413 1.102s1.493 0.391 1.671 0.249c0.32-0.32 2.809-5.938 2.667-6.044-0.036-0.036-1.849-0.889-4.053-1.849l-4.018-1.778-0.391 0.96z" fill="#000000"></path>
<path d="M16.462 20.907l-1.422 3.164 3.413 1.671 3.413 1.707 0.96-1.138c0.498-0.64 1.458-2.098 2.062-3.236l1.102-2.098-0.818-0.32c-2.098-0.818-6.542-2.596-6.898-2.738-0.213-0.107-1.031 1.244-1.813 2.987z" fill="#000000"></path>
<path d="M26.347 23.787c-0.569 1.138-1.458 2.56-1.956 3.129-0.498 0.604-0.924 1.244-0.924 1.387 0 0.178 0.533 0.676 1.209 1.102l1.209 0.782 1.529-0.996c0.853-0.533 2.098-1.564 2.702-2.276 1.102-1.28 2.418-3.413 2.169-3.591-0.213-0.178-4.444-1.636-4.658-1.636-0.142 0-0.711 0.924-1.28 2.098z" fill="#000000"></path>
<path d="M2.027 23.111c0.32 0.604 0.996 1.529 1.422 2.062l0.782 0.96 0.036-1.813c0-1.778-0.036-1.849-1.102-2.062-1.742-0.356-1.813-0.284-1.138 0.853z" fill="#000000"></path>
<path d="M6.044 25.387c0 1.636 0.178 2.453 0.569 2.88 0.604 0.604 3.129 1.956 3.627 1.956 0.32 0 2.667-4.978 2.453-5.191-0.178-0.213-5.689-1.92-6.151-1.92-0.356 0-0.498 0.569-0.498 2.276z" fill="#000000"></path>
<path d="M13.191 28.231c-0.604 1.387-1.102 2.631-1.102 2.738 0 0.142 1.031 0.427 2.311 0.676 2.56 0.498 2.702 0.427 5.049-1.707 0.889-0.818 1.067-1.138 0.711-1.422-0.533-0.427-2.809-1.564-4.551-2.311l-1.28-0.533-1.138 2.56z" fill="#000000"></path>
<path d="M20.764 30.969c-0.853 0.924-0.889 1.067-0.32 0.924 0.391-0.107 1.316-0.32 2.062-0.462 1.493-0.249 1.564-0.391 0.711-1.067-0.924-0.711-1.28-0.604-2.453 0.604z" fill="#000000"></path>
</svg>
