<?xml version="1.0" encoding="utf-8"?>
<!DOCTYPE svg PUBLIC "-//W3C//DTD SVG 1.1//EN" "http://www.w3.org/Graphics/SVG/1.1/DTD/svg11.dtd">
<svg version="1.1" xmlns="http://www.w3.org/2000/svg" xmlns:xlink="http://www.w3.org/1999/xlink" width="35" height="32" viewBox="0 0 35 32">
<path d="M13.359 9.973c-4.039 5.872-7.177 10.097-7.922 10.718-1.367 1.118-3.697 2.268-4.567 2.299-0.311 0-0.559 0.124-0.559 0.311s2.454 0.311 6.711 0.311c6.276 0 6.711-0.031 6.493-0.528-0.155-0.311-0.311-1.398-0.373-2.423-0.124-1.553 0-2.113 0.59-3.262 1.833-3.386 6.586-4.536 9.258-2.268 0.559 0.435 1.087 0.684 1.212 0.528 0.249-0.249 10.004-14.322 10.439-15.037 0.124-0.217-2.144-0.311-7.208-0.311h-7.394l-6.68 9.662z" fill="#000000"></path>
<path d="M17.118 16.404c-2.144 1.149-2.796 4.163-1.491 6.897 0.932 1.957 3.293 4.629 5.872 6.68l2.517 1.988 1.429-0.963c2.237-1.522 6.027-5.53 6.866-7.239 2.144-4.412 0.249-8.14-4.008-7.829-1.46 0.093-1.833 0.28-2.641 1.212-0.528 0.59-1.118 1.336-1.305 1.647-0.28 0.528-0.373 0.466-0.994-0.559-1.305-2.237-4.008-3.014-6.245-1.833z" fill="#000000"></path>
</svg>
