<?xml version="1.0" encoding="utf-8"?>
<!DOCTYPE svg PUBLIC "-//W3C//DTD SVG 1.1//EN" "http://www.w3.org/Graphics/SVG/1.1/DTD/svg11.dtd">
<svg version="1.1" xmlns="http://www.w3.org/2000/svg" xmlns:xlink="http://www.w3.org/1999/xlink" width="34" height="32" viewBox="0 0 34 32">
<path d="M15.036 0.578c-5.012 1.581-7.48 6.708-5.282 10.988 2.776 5.513 11.219 5.629 14.034 0.231 0.925-1.735 0.848-5.436-0.154-7.364-1.080-2.043-2.737-3.586-4.395-4.048-1.619-0.463-2.043-0.463-4.202 0.193z" fill="#000000"></path>
<path d="M4.202 18.622c-1.311 0.694-1.966 1.388-2.814 3.123-1.002 1.928-1.157 2.583-1.157 5.745l-0.039 3.547 7.325-0.154c4.048-0.039 7.402-0.154 7.48-0.231 0.116-0.116 0.771-7.133 0.81-8.79 0-0.424 0.308-0.655 0.964-0.655 1.041 0 0.964-0.193 1.851 5.783l0.463 3.277 4.241 0.116c2.352 0.077 5.706 0 7.48-0.116l3.239-0.27-0.231-3.161c-0.231-3.47-0.887-5.32-2.352-6.901-1.658-1.773-3.2-2.198-8.251-2.198h-4.627l-0.193 1.118c-0.193 0.887-0.463 1.157-1.465 1.272-1.080 0.154-1.272 0.039-1.735-1.118l-0.54-1.272h-4.395c-3.817 0-4.549 0.116-6.053 0.887zM29.34 23.017c-0.231 0.386-1.041 1.542-1.851 2.622-1.427 1.851-1.581 1.928-3.586 2.043-1.619 0.039-1.966 0-1.465-0.308 0.386-0.231 1.388-1.465 2.236-2.699 1.542-2.236 1.619-2.313 3.316-2.313 1.542 0 1.696 0.077 1.349 0.655z" fill="#000000"></path>
</svg>
