<?xml version="1.0" encoding="utf-8"?>
<!DOCTYPE svg PUBLIC "-//W3C//DTD SVG 1.1//EN" "http://www.w3.org/Graphics/SVG/1.1/DTD/svg11.dtd">
<svg version="1.1" xmlns="http://www.w3.org/2000/svg" xmlns:xlink="http://www.w3.org/1999/xlink" width="46" height="32" viewBox="0 0 46 32">
<path d="M0.31 4.49c0.155 2.477 0.568 9.652 0.929 15.897l0.568 11.355h3.252c1.755-0.052 11.665-0.103 22.039-0.155l18.839-0.103v-29.781l-7.587-0.31c-4.232-0.206-12.748-0.465-18.994-0.619s-13.161-0.413-15.329-0.568l-4.026-0.258 0.31 4.542zM36.077 7.535c0.619 0.774 1.084 1.755 1.084 2.271s-0.465 1.497-1.084 2.271c-2.065 2.632-6.297 1.135-6.297-2.271s4.232-4.903 6.297-2.271zM23.639 16.671c1.497 1.6 2.89 2.942 3.045 2.942 0.206 0 1.445-0.723 2.787-1.6 1.394-0.877 2.684-1.445 2.942-1.29 0.826 0.516 8 10.116 7.742 10.374-0.155 0.155-7.69 0.206-16.826 0.155l-16.568-0.155 8.361-19.51 2.89 3.045c1.6 1.703 4.129 4.387 5.626 6.039z" fill="#000000"></path>
</svg>
