<?xml version="1.0" encoding="utf-8"?>
<!DOCTYPE svg PUBLIC "-//W3C//DTD SVG 1.1//EN" "http://www.w3.org/Graphics/SVG/1.1/DTD/svg11.dtd">
<svg version="1.1" xmlns="http://www.w3.org/2000/svg" xmlns:xlink="http://www.w3.org/1999/xlink" width="20" height="32" viewBox="0 0 20 32">
<path d="M0.193 3.614c-0.11 1.848-0.11 6.29-0.028 9.876l0.166 6.51 2.4 5.49c1.959 4.524 2.51 5.572 3.2 5.986 0.745 0.469 1.462 0.524 6.262 0.524h5.434l0.717-1.048c2.041-2.979 2.4-8.607 0.607-9.848-0.662-0.469-4.662-0.552-8.993-0.166l-2.317 0.193-0.497-0.828c-0.276-0.469-0.469-0.855-0.441-0.91 0.055-0.028 1.821-0.441 3.917-0.91 2.124-0.469 4.083-0.91 4.359-0.993 0.579-0.193 0.662-1.821 0.083-2.29-0.276-0.221-1.876-0.303-5.186-0.276l-4.772 0.028-0.359-1.324c-0.248-0.883-0.303-2.234-0.221-3.779 0.11-2.124 0.248-2.593 0.966-3.697 0.469-0.717 0.855-1.434 0.855-1.628 0-0.717-0.524-1.683-1.655-2.952s-1.186-1.297-2.731-1.297h-1.6l-0.166 3.338z" fill="#000000"></path>
</svg>
