<?xml version="1.0" encoding="utf-8"?>
<!DOCTYPE svg PUBLIC "-//W3C//DTD SVG 1.1//EN" "http://www.w3.org/Graphics/SVG/1.1/DTD/svg11.dtd">
<svg version="1.1" xmlns="http://www.w3.org/2000/svg" xmlns:xlink="http://www.w3.org/1999/xlink" width="26" height="32" viewBox="0 0 26 32">
<path d="M5.851 0.334c-1.29 0.573-1.91 1.481-1.91 2.794 0 1.552 0.955 2.603 2.555 2.77 2.531 0.287 4.036-1.982 2.913-4.37-0.669-1.385-2.078-1.839-3.558-1.194z" fill="#000000"></path>
<path d="M2.699 6.902c-0.502 0.31-0.86 0.788-1.027 1.385-0.263 0.955-1.433 8.597-1.433 9.385 0 0.334 0.382 0.573 1.552 0.955l1.552 0.525v12.37h7.164l0.048-6.257 0.072-6.233 1.433-0.478c0.788-0.263 1.457-0.478 1.481-0.502 0 0-0.215-1.6-0.525-3.534s-0.621-4.179-0.716-4.991c-0.143-1.122-0.334-1.648-0.836-2.221l-0.669-0.74-3.678-0.072c-3.296-0.048-3.725-0.024-4.418 0.406z" fill="#000000"></path>
<path d="M18.436 14.376c-0.167 0.167-0.287 1.027-0.287 2.149v1.863h-3.415l0.167 0.884c0.072 0.502 0.143 3.248 0.143 6.090 0 4.346 0.048 5.206 0.334 5.206 0.191 0 0.382 0.239 0.43 0.525 0.048 0.43 0.263 0.573 0.836 0.621 0.597 0.072 0.788-0.024 0.907-0.478 0.263-0.836 0.525-0.907 2.985-0.907h2.293l-0.024 0.669c0 0.502 0.119 0.669 0.549 0.716 0.716 0.119 1.29-0.382 1.122-0.931-0.119-0.358-0.024-0.454 0.478-0.454h0.645l-0.143-4.346c-0.096-2.412-0.215-5.158-0.287-6.113l-0.143-1.719h-3.534v-1.887c0-1.504-0.072-1.91-0.382-2.030-0.645-0.239-2.364-0.167-2.675 0.143zM20.728 16.525l-0.072 1.743h-1.672l-0.072-1.409c-0.096-1.839 0-2.054 1.027-2.054h0.86l-0.072 1.719zM22.925 19.701c0 0.239-0.239 0.358-0.693 0.358-0.645 0-0.716 0.096-0.86 1.003-0.096 0.573-0.072 1.051 0.048 1.075 0.119 0.048 0.119 0.836-0.024 1.982-0.215 1.863-0.239 1.91-0.86 1.91-0.358 0-0.693-0.048-0.74-0.096-0.072-0.072-0.048-0.931 0.048-1.958 0.096-1.337 0.239-1.887 0.525-2.054 0.263-0.143 0.406-0.525 0.406-1.027v-0.836h-1.91c-2.579 0-2.436-0.43 0.191-0.549 1.146-0.024 2.484-0.096 2.985-0.119 0.645-0.024 0.884 0.048 0.884 0.31z" fill="#000000"></path>
</svg>
