<?xml version="1.0" encoding="utf-8"?>
<!DOCTYPE svg PUBLIC "-//W3C//DTD SVG 1.1//EN" "http://www.w3.org/Graphics/SVG/1.1/DTD/svg11.dtd">
<svg version="1.1" xmlns="http://www.w3.org/2000/svg" xmlns:xlink="http://www.w3.org/1999/xlink" width="47" height="32" viewBox="0 0 47 32">
<path d="M14.933 2.987c-0.587 1.333-1.067 2.667-1.067 2.933s-1.387 0.48-3.040 0.48c-1.707 0-4.747 0.16-6.72 0.373l-3.627 0.32 0.16 11.627c0.107 6.347 0.32 11.733 0.48 11.893 0.16 0.213 10.24 0.48 22.453 0.693l22.080 0.32 0.693-9.813c0.32-5.387 0.747-10.827 0.907-12l0.32-2.187-5.28-0.64c-2.88-0.373-5.6-0.747-6.080-0.907-0.48-0.107-1.387-1.44-2.080-2.88l-1.227-2.667h-16.96l-1.013 2.453zM28.16 11.947c2.507 1.28 3.947 3.307 4.213 5.76 0.213 2.027 0.053 2.613-1.227 4.107-1.707 2.080-5.067 3.733-7.413 3.787-1.92 0-4.693-1.6-5.867-3.413-1.227-1.867-1.707-6.987-0.747-8.107 2.027-2.507 8.107-3.627 11.040-2.133z" fill="#000000"></path>
<path d="M5.333 2.933v1.92l2.56-0.16c2.4-0.16 2.507-0.213 2.507-1.76s-0.107-1.6-2.507-1.76l-2.56-0.16v1.92z" fill="#000000"></path>
</svg>
