<?xml version="1.0" encoding="utf-8"?>
<!DOCTYPE svg PUBLIC "-//W3C//DTD SVG 1.1//EN" "http://www.w3.org/Graphics/SVG/1.1/DTD/svg11.dtd">
<svg version="1.1" xmlns="http://www.w3.org/2000/svg" xmlns:xlink="http://www.w3.org/1999/xlink" width="33" height="32" viewBox="0 0 33 32">
<path d="M14.989 0.707c-3.503 0.101-6.973 0.236-7.646 0.269-1.213 0.034-1.28 0.067-1.28 1.213v1.179h-5.827l0.202 2.863c0.269 3.672 1.347 7.747 2.695 10.004 1.381 2.257 3.941 4.076 7.276 5.12 1.415 0.472 3.133 1.078 3.84 1.381l1.28 0.539-0.775 1.078c-0.404 0.606-2.122 2.493-3.773 4.177l-2.998 3.133h17.112l-2.594-2.358c-2.459-2.257-4.985-5.288-4.985-5.962 0-0.202 1.549-0.876 3.436-1.482 5.625-1.853 8.185-3.874 9.667-7.579 0.842-2.223 1.718-6.737 1.718-9.095v-1.819h-5.389v-3.032l-2.762 0.067c-1.549 0.034-5.659 0.168-9.196 0.303zM6.4 6.737c0 2.122 1.482 7.276 3.267 11.385 0.371 0.842-2.425-0.842-3.638-2.189-1.28-1.415-2.459-4.581-2.931-7.949l-0.303-1.92h1.819c1.583 0 1.785 0.067 1.785 0.674zM29.777 7.141c-1.112 6.602-2.425 9.128-5.592 10.745-0.707 0.371-1.28 0.606-1.28 0.539 0-0.101 0.438-1.112 0.977-2.291 0.808-1.785 1.92-5.76 2.594-9.331 0.135-0.64 0.337-0.741 1.819-0.741h1.684l-0.202 1.078z" fill="#000000"></path>
</svg>
