<?xml version="1.0" encoding="utf-8"?>
<!DOCTYPE svg PUBLIC "-//W3C//DTD SVG 1.1//EN" "http://www.w3.org/Graphics/SVG/1.1/DTD/svg11.dtd">
<svg version="1.1" xmlns="http://www.w3.org/2000/svg" xmlns:xlink="http://www.w3.org/1999/xlink" width="31" height="32" viewBox="0 0 31 32">
<path d="M16 0.466c-3.915 0.217-7.332 0.404-7.518 0.435-0.28 0.031-0.404 0.559-0.404 1.584v1.553h15.223v-2.019c0-1.118-0.031-1.988-0.062-1.988-0.062 0.031-3.293 0.249-7.239 0.435z" fill="#000000"></path>
<path d="M0.932 6.524c-0.59 0.59-0.621 1.025-0.621 6.151 0 6.866-0.217 6.524 4.349 6.649l3.262 0.093 0.093 6.151 0.062 6.12h1.988c1.056 0 4.474-0.093 7.581-0.217l5.654-0.186 0.062-5.934 0.093-5.934 3.511-0.155c2.641-0.124 3.573-0.28 3.79-0.621 0.155-0.249 0.311-2.951 0.311-5.996 0-5.095-0.031-5.53-0.621-6.12s-1.025-0.621-14.757-0.621c-13.732 0-14.167 0.031-14.757 0.621zM4.909 7.829c0.59 0.59 0.435 1.429-0.404 1.988-0.746 0.497-0.839 0.497-1.398-0.031-0.746-0.684-0.777-1.025-0.093-1.771 0.59-0.652 1.367-0.715 1.895-0.186zM21.313 18.858c-0.093 1.864-0.28 4.94-0.373 6.835l-0.217 3.511h-10.781v-13.67h11.588l-0.217 3.324z" fill="#000000"></path>
</svg>
