<?xml version="1.0" encoding="utf-8"?>
<!DOCTYPE svg PUBLIC "-//W3C//DTD SVG 1.1//EN" "http://www.w3.org/Graphics/SVG/1.1/DTD/svg11.dtd">
<svg version="1.1" xmlns="http://www.w3.org/2000/svg" xmlns:xlink="http://www.w3.org/1999/xlink" width="39" height="32" viewBox="0 0 39 32">
<path d="M12.841 0.405c-2.471 0.446-5.023 1.701-6.886 3.362-2.106 1.863-4.010 7.048-3.848 10.329l0.122 2.349 18.228-3.808c10.046-2.106 18.309-3.889 18.39-3.97 0.648-0.608-1.377-1.134-5.833-1.62l-5.144-0.527-2.187-2.066c-3.646-3.484-8.142-4.901-12.841-4.051z" fill="#000000"></path>
<path d="M26.208 13.043c-0.851 0.324-1.053 0.567-0.851 1.094 0.162 0.365 0.365 1.985 0.486 3.605 0.162 2.552 0.041 3.2-0.891 5.144-1.175 2.349-2.592 3.767-5.266 5.185-2.552 1.337-7.413 1.256-10.167-0.203-3.281-1.742-5.711-4.861-6.481-8.344-0.243-1.175-0.446-1.337-1.337-1.215-1.458 0.162-1.58 1.215-0.446 4.213 1.256 3.281 4.901 6.967 8.182 8.182 6.562 2.471 14.582-0.324 17.661-6.157 1.418-2.714 1.863-5.63 1.377-8.628-0.284-1.458-0.608-2.795-0.81-2.957-0.162-0.162-0.851-0.122-1.458 0.081z" fill="#000000"></path>
<path d="M8.425 17.458c-0.851 0.486-0.972 2.39-0.243 3.119s2.147 0.608 2.876-0.243c0.891-0.972 0.851-1.539-0.122-2.511-0.891-0.891-1.499-0.972-2.511-0.365z" fill="#000000"></path>
<path d="M18.957 17.458c-1.539 0.891-0.365 3.767 1.418 3.524 0.486-0.081 1.134-0.648 1.499-1.256 0.567-1.094 0.567-1.175-0.365-1.944-1.053-0.851-1.539-0.932-2.552-0.324z" fill="#000000"></path>
</svg>
