<?xml version="1.0" encoding="utf-8"?>
<!DOCTYPE svg PUBLIC "-//W3C//DTD SVG 1.1//EN" "http://www.w3.org/Graphics/SVG/1.1/DTD/svg11.dtd">
<svg version="1.1" xmlns="http://www.w3.org/2000/svg" xmlns:xlink="http://www.w3.org/1999/xlink" width="37" height="32" viewBox="0 0 37 32">
<path d="M30.971 0.852c-0.708 0.868-1.206 1.962-1.222 2.637 0 0.498-0.032 0.531-0.563 0.531-0.675 0-0.708-0.209-0.177-1.013 0.482-0.691 0.37-0.756-1.061-0.579-3.071 0.37-5.098 2.701-6.48 7.477-0.225 0.788-0.74 3.023-1.126 4.985-0.788 3.972-1.158 5.532-1.383 5.757-0.080 0.096-0.145-3.168-0.145-8.41v-8.587l-1.077 0.113c-1.56 0.161-3.859 0.981-5.371 1.914-1.705 1.045-3.506 2.766-4.503 4.293l-0.804 1.222-0.852-0.161c-0.466-0.096-0.868-0.209-0.901-0.257s0.322-0.836 0.772-1.769c0.901-1.881 1.319-3.473 1.319-5.049 0-1.319-0.225-1.367-0.884-0.225-0.884 1.495-3.666 4.117-5.757 5.419-0.515 0.322-0.82 0.82-0.466 0.82 0.193-0.016 2.83-1.962 3.859-2.862 0.531-0.466 1.399-1.383 1.914-2.042 0.498-0.643 0.949-1.158 0.981-1.142 0.096 0.096-0.306 2.267-0.547 3.071-0.322 1.013-1.254 2.878-1.785 3.57l-0.402 0.515 0.386 0.080c0.193 0.048 0.788 0.161 1.286 0.257l0.901 0.177-0.289 0.675c-0.161 0.37-0.418 1.126-0.579 1.672-0.273 0.981-0.273 0.997-1.335 1.528-1.56 0.788-2.943 2.155-3.682 3.634-0.563 1.158-0.595 1.302-0.595 2.75 0 1.335 0.064 1.672 0.418 2.428 1.11 2.364 3.843 3.682 7.204 3.489l1.367-0.080 1.013 0.868c4.374 3.699 10.147 4.454 15.276 1.994 2.412-1.174 5.001-3.57 6.818-6.336 0.531-0.788 0.949-1.367 0.949-1.286 0 0.466-1.705 4.872-1.994 5.162-0.016 0.032-0.306-0.064-0.627-0.193-0.82-0.338-0.868-0.322-1.238 0.402-0.177 0.338-0.788 1.254-1.351 2.010-1.19 1.56-1.142 1.64 0.724 1.045 4.358-1.367 7.831-6.448 7.912-11.578 0.016-0.836-0.032-1.624-0.096-1.737-0.080-0.113-0.498-0.193-1.126-0.193-1.029 0-2.155 0.402-3.184 1.142-0.273 0.193-0.498 0.322-0.531 0.289s-0.129-0.611-0.241-1.27c-0.354-2.187-0.933-3.538-2.219-5.13-0.45-0.563-0.338-0.547 0.45 0.016 0.225 0.177 1.158 0.611 2.090 0.981 1.528 0.627 1.688 0.724 1.833 1.206 0.145 0.498 0.161 0.515 1.077 0.515 0.515 0 0.933-0.048 0.933-0.113 0-0.482-2.46-8.265-3.136-9.97-0.949-2.364-1.27-3.682-1.11-4.695 0.064-0.37 0.064-0.659 0.016-0.659s-0.354 0.306-0.659 0.691zM32.225 5.419c0.402 0.997 0.74 1.865 0.74 1.962 0 0.080-0.257 0.289-0.563 0.482l-0.563 0.322-0.997-0.691c-1.544-1.045-2.605-2.637-2.042-3.007 0.129-0.080 0.531-0.129 0.884-0.113 0.627 0.048 0.659 0.032 0.515-0.289-0.193-0.402 0.048-1.367 0.547-2.155l0.338-0.563 0.193 1.126c0.113 0.611 0.531 1.93 0.949 2.927zM28.334 3.441c-0.209 0.579-0.386 0.756-1.029 1.061-1.898 0.901-3.232 3.313-4.872 8.764-0.595 1.946-1.286 4.068-1.544 4.744-0.498 1.302-1.367 2.814-1.206 2.090 0.064-0.225 0.498-2.38 0.981-4.792 1.383-6.866 2.267-9.15 4.197-10.951 0.804-0.756 1.254-1.045 2.026-1.286 0.563-0.177 1.174-0.322 1.351-0.322 0.338-0.016 0.338 0 0.096 0.691zM18.492 5.95c0 1.705-0.016 1.769-0.354 1.833-1.753 0.338-2.283 0.482-3.12 0.884-1.399 0.675-2.862 1.833-3.698 2.975l-0.74 0.997-0.884-0.45c-0.498-0.241-1.174-0.531-1.528-0.643-0.338-0.096-0.611-0.225-0.611-0.289s0.306-0.579 0.675-1.142c1.206-1.849 3.264-3.634 5.387-4.712 1.11-0.547 3.329-1.206 4.197-1.206l0.675-0.016v1.769zM28.285 5.178c0.306 0.868 0.981 1.705 1.962 2.444 0.515 0.402 1.029 0.74 1.142 0.772 0.129 0.048 0.080 0.209-0.161 0.531-0.579 0.724-0.45 0.917 0.338 0.482 0.402-0.241 0.933-0.402 1.335-0.402h0.659l0.852 2.927c0.466 1.624 0.884 3.039 0.917 3.136 0.064 0.145-0.080 0.209-0.418 0.209-0.273 0-0.498-0.064-0.498-0.145 0-0.418-0.884-1.126-1.801-1.463-1.479-0.531-2.75-1.238-3.361-1.865-0.482-0.498-0.547-0.659-0.547-1.431 0-0.724 0.064-0.933 0.466-1.351 0.547-0.579 0.418-1.029-0.145-0.498s-0.884 1.319-0.884 2.155c0 0.965 0.273 1.592 1.174 2.701 0.402 0.482 0.836 1.11 0.981 1.383 0.418 0.804 1.029 3.12 1.158 4.342l0.113 1.158 0.563-0.515c0.901-0.772 2.541-1.479 3.489-1.495h0.804l-0.016 1.688c-0.016 1.351-0.113 1.962-0.466 3.055-1.174 3.666-3.377 6.352-6.239 7.638-1.64 0.74-1.672 0.708-0.691-0.643 0.482-0.675 0.933-1.383 0.981-1.544 0.129-0.37 0.241-0.386 0.981-0.032 0.547 0.273 0.579 0.273 0.804-0.016 0.402-0.547 1.672-3.763 1.994-5.017 0.338-1.319 0.418-2.316 0.177-2.316-0.080 0-0.45 0.563-0.82 1.238-1.061 1.962-2.364 3.666-4.036 5.258-1.753 1.656-3.313 2.621-5.419 3.361-1.206 0.418-1.688 0.498-3.506 0.563-1.64 0.048-2.396 0.016-3.361-0.209-2.316-0.515-4.454-1.56-6.046-2.959l-0.82-0.708 1.351-0.386c3.715-1.077 6.947-3.57 8.925-6.866 0.788-1.335 1.319-2.782 3.087-8.378 1.286-4.068 2.492-6.191 4.020-6.995 0.756-0.402 0.756-0.402 0.965 0.193zM33.286 8.185c0 0.080-0.177 0.177-0.402 0.209-0.386 0.080-0.515-0.032-0.289-0.241 0.145-0.161 0.691-0.129 0.691 0.032zM18.492 10.050v1.833l-0.675 0.193c-1.688 0.45-2.943 1.463-3.731 3.039-0.595 1.19-0.852 2.509-0.675 3.457 0.193 0.965 0.37 0.611 0.45-0.852 0.064-1.093 0.161-1.576 0.482-2.203 0.659-1.27 1.495-2.107 2.621-2.653 1.656-0.788 1.528-1.174 1.528 4.374v4.872l-1.254 1.206c-1.93 1.849-4.76 3.361-7.14 3.779-0.563 0.113-0.611 0.080-1.335-0.836-1.013-1.27-2.090-3.538-2.509-5.274-0.354-1.463-0.498-4.551-0.241-5.339 0.145-0.434 0.852-0.675 2.444-0.804l1.142-0.096-0.209 1.029c-0.306 1.415-0.306 3.2 0 3.2 0.177 0 0.225-0.273 0.225-1.206 0-0.659 0.096-1.608 0.209-2.090l0.193-0.884h0.675c0.37 0 1.061 0.080 1.528 0.161 0.466 0.096 0.9 0.129 0.949 0.080s-0.418-0.563-1.013-1.142c-1.061-1.013-1.093-1.061-0.884-1.463 0.37-0.691 1.817-2.074 2.878-2.766 1.045-0.675 3.104-1.447 3.908-1.463h0.434v1.849zM8.667 12.221c1.592 0.627 1.721 0.756 1.351 1.512-0.225 0.498-0.338 0.579-0.836 0.579-0.322 0.016-1.077 0.113-1.705 0.225-0.611 0.129-1.158 0.193-1.19 0.161-0.145-0.129 0.868-2.959 1.061-2.959 0.032 0 0.627 0.225 1.319 0.482zM11.514 13.926l0.627 0.563-0.884-0.096c-0.482-0.048-0.9-0.129-0.933-0.145-0.080-0.080 0.338-0.9 0.45-0.9 0.064 0 0.386 0.257 0.74 0.579zM5.564 17.801c0 1.898 0.080 2.637 0.354 3.618 0.434 1.592 1.351 3.473 2.316 4.76 0.434 0.563 0.772 1.061 0.772 1.11s-0.852 0.048-1.881 0.016c-1.431-0.064-2.123-0.161-2.83-0.434-3.988-1.544-4.76-6.062-1.608-9.359 0.498-0.531 1.351-1.222 1.897-1.512 0.531-0.306 0.965-0.563 0.965-0.563s0 1.061 0.016 2.364z" fill="#000000"></path>
</svg>
