<?xml version="1.0" encoding="utf-8"?>
<!DOCTYPE svg PUBLIC "-//W3C//DTD SVG 1.1//EN" "http://www.w3.org/Graphics/SVG/1.1/DTD/svg11.dtd">
<svg version="1.1" xmlns="http://www.w3.org/2000/svg" xmlns:xlink="http://www.w3.org/1999/xlink" width="18" height="32" viewBox="0 0 18 32">
<path d="M6.974 0.369c-3.569 0.78-6.113 3.282-6.441 6.318l-0.205 1.764 2.297 0.41 2.297 0.451 0.451-1.395c1.149-3.528 5.703-3.405 5.703 0.164 0 0.944-0.615 2.010-2.297 4.103-2.79 3.364-3.446 4.8-3.446 7.508v2.051h5.292l0.287-1.846c0.123-1.026 0.738-2.503 1.354-3.241 0.574-0.78 1.887-2.462 2.872-3.733 1.518-1.928 1.846-2.667 2.010-4.513 0.246-3.2-0.041-3.897-2.503-6.031-1.846-1.6-2.585-1.969-4.226-2.133-1.108-0.082-2.667-0.041-3.446 0.123z" fill="#000000"></path>
<path d="M5.949 25.641c-0.738 0.697-1.026 1.436-1.026 2.585 0 4.308 6.113 4.677 7.18 0.451 0.205-0.862 0-1.395-1.026-2.585-1.641-1.846-3.569-2.010-5.128-0.451z" fill="#000000"></path>
</svg>
