<?xml version="1.0" encoding="utf-8"?>
<!DOCTYPE svg PUBLIC "-//W3C//DTD SVG 1.1//EN" "http://www.w3.org/Graphics/SVG/1.1/DTD/svg11.dtd">
<svg version="1.1" xmlns="http://www.w3.org/2000/svg" xmlns:xlink="http://www.w3.org/1999/xlink" width="29" height="32" viewBox="0 0 29 32">
<path d="M20.472 1.986l-1.388 1.831-0.925-0.289c-1.427-0.443-4.511-0.54-6.304-0.193-2.101 0.405-3.47 0.945-5.147 2.043-2.949 1.928-5.012 4.646-6.053 8.019-0.289 0.906-0.366 1.774-0.347 4.048 0 2.622 0.039 3.026 0.52 4.434 0.694 2.082 1.716 3.759 3.296 5.436 2.93 3.123 6.863 4.684 11.104 4.434 2.294-0.135 3.72-0.501 5.687-1.484 3.74-1.831 6.496-5.263 7.537-9.349 0.559-2.275 0.347-7.306-0.328-7.73-0.116-0.058-1.446 0.424-2.949 1.080l-2.757 1.214v1.754c0 1.349-0.096 2.005-0.424 2.834-0.617 1.639-1.504 2.834-2.757 3.759-1.561 1.157-2.757 1.523-4.896 1.523-1.619 0-1.831-0.058-3.2-0.733-1.812-0.887-3.373-2.487-4.048-4.125-0.366-0.925-0.443-1.465-0.443-3.142 0.019-1.774 0.077-2.159 0.52-3.142 1.041-2.217 3.354-4.067 5.725-4.588 1.851-0.386 1.928-0.27 0.694 1.369l-1.080 1.446 6.207 0.058c3.412 0.019 6.246 0 6.284-0.039 0.077-0.077-2.737-11.296-2.988-11.933-0.116-0.308-0.386-0.039-1.542 1.465z" fill="#000000"></path>
</svg>
