<?xml version="1.0" encoding="utf-8"?>
<!DOCTYPE svg PUBLIC "-//W3C//DTD SVG 1.1//EN" "http://www.w3.org/Graphics/SVG/1.1/DTD/svg11.dtd">
<svg version="1.1" xmlns="http://www.w3.org/2000/svg" xmlns:xlink="http://www.w3.org/1999/xlink" width="38" height="32" viewBox="0 0 38 32">
<path d="M15.209 0.376c-1.054 0.414-2.033 1.807-2.033 2.899 0 0.678 0.226 0.866 0.941 0.866 0.678 0 0.941-0.188 0.941-0.753 0-1.242 1.242-1.581 4.631-1.28 3.275 0.264 4.028 0.565 4.028 1.694 0 0.527 0.264 0.715 0.941 0.715 0.753 0 0.941-0.188 0.941-0.979 0-2.522-1.882-3.539-6.475-3.501-1.732 0-3.501 0.151-3.915 0.339z" fill="#000000"></path>
<path d="M3.049 5.12c-1.958 0.828-2.485 1.845-2.598 5.195-0.188 4.179 0.791 6.776 3.539 9.562 2.071 2.033 4.179 3.2 7.492 4.066 3.238 0.866 3.275 0.828 3.125-1.656l-0.113-2.146h9.035l-0.113 2.146-0.151 2.184h1.092c1.393 0 4.744-0.979 6.588-1.92 4.405-2.221 7.078-6.814 7.078-11.972 0-2.56-0.979-4.367-2.748-5.12-1.619-0.678-30.72-0.979-32.226-0.339z" fill="#000000"></path>
<path d="M2.108 23.831c-0.113 1.242-0.226 3.501-0.226 5.007v2.786h5.572c3.049 0 10.729 0.113 17.129 0.264l11.558 0.226v-10.729l-1.393 1.205c-1.769 1.581-4.555 2.861-7.868 3.614-1.431 0.339-2.824 0.678-3.049 0.753-0.264 0.075-0.489 0.565-0.489 1.092 0 0.866-0.151 0.941-1.581 0.941-0.904 0-2.748-0.113-4.141-0.264-2.296-0.188-2.56-0.301-2.56-1.054 0-0.715-0.301-0.866-2.522-1.28-3.162-0.565-6.099-1.807-8.433-3.539l-1.732-1.28-0.264 2.259z" fill="#000000"></path>
<path d="M15.962 23.191c0.113 0.979 0.226 2.334 0.226 3.012v1.28h6.024v-6.024h-6.513l0.264 1.732z" fill="#000000"></path>
</svg>
