<?xml version="1.0" encoding="utf-8"?>
<!DOCTYPE svg PUBLIC "-//W3C//DTD SVG 1.1//EN" "http://www.w3.org/Graphics/SVG/1.1/DTD/svg11.dtd">
<svg version="1.1" xmlns="http://www.w3.org/2000/svg" xmlns:xlink="http://www.w3.org/1999/xlink" width="25" height="32" viewBox="0 0 25 32">
<path d="M7.579 4.674c-2.905 2.316-5.684 4.589-6.232 5.011l-1.011 0.8 1.137 10.653c0.589 5.853 1.137 10.695 1.221 10.737 0.084 0.084 1.768 0 3.789-0.126l3.621-0.295v-10.4h5.474v10.484l4.126-0.253c2.232-0.126 4.126-0.295 4.211-0.337 0.042-0.042 0.211-4.716 0.295-10.358l0.253-10.274-5.558-4.842c-3.032-2.653-5.642-4.884-5.811-4.968-0.126-0.042-2.653 1.811-5.516 4.168z" fill="#000000"></path>
</svg>
