<?xml version="1.0" encoding="utf-8"?>
<!DOCTYPE svg PUBLIC "-//W3C//DTD SVG 1.1//EN" "http://www.w3.org/Graphics/SVG/1.1/DTD/svg11.dtd">
<svg version="1.1" xmlns="http://www.w3.org/2000/svg" xmlns:xlink="http://www.w3.org/1999/xlink" width="29" height="32" viewBox="0 0 29 32">
<path d="M9.877 5.768c-2.054 2.963-3.793 5.57-3.872 5.728-0.079 0.198 1.185 0.237 2.844 0.079l3.002-0.237v12.049l2.884-0.277c1.541-0.158 2.884-0.316 2.923-0.356s-0.198-1.936-0.474-4.188c-0.316-2.291-0.593-4.82-0.593-5.61v-1.462l5.175-0.237-3.793-5.333c-2.054-2.923-3.911-5.373-4.069-5.452-0.158-0.039-1.975 2.331-4.030 5.294z" fill="#000000"></path>
<path d="M0.395 22.242c0 1.185 0.119 3.753 0.237 5.728l0.277 3.635h27.654l-0.277-3.279c-0.119-1.778-0.356-4.306-0.474-5.61l-0.237-2.37-3.319 0.119c-3.714 0.158-3.516-0.040-2.963 3.358 0.158 1.027 0.198 1.936 0.079 2.015-0.553 0.356-14.262 1.541-14.538 1.264-0.158-0.158-0.395-1.738-0.514-3.516l-0.198-3.239-5.728-0.237v2.133z" fill="#000000"></path>
</svg>
