<?xml version="1.0" encoding="utf-8"?>
<!DOCTYPE svg PUBLIC "-//W3C//DTD SVG 1.1//EN" "http://www.w3.org/Graphics/SVG/1.1/DTD/svg11.dtd">
<svg version="1.1" xmlns="http://www.w3.org/2000/svg" xmlns:xlink="http://www.w3.org/1999/xlink" width="30" height="32" viewBox="0 0 30 32">
<path d="M12.381 0.381c-5.371 0.8-9.333 5.257-9.333 10.476 0 1.257 0.267 3.314 0.571 4.571s0.533 2.4 0.571 2.514c0 0.152-0.762 0.457-1.714 0.686-0.914 0.229-1.867 0.724-2.057 1.143-0.495 0.876 1.295 10.629 2.057 11.429 0.61 0.648 4.038 0.61 5.219 0 0.648-0.343 0.762-0.686 0.61-2.286-0.152-1.486-0.076-1.867 0.381-1.867 0.8 0 0.419-2.629-1.219-8.305-2.324-8.038-2.21-10.286 0.648-13.181 1.829-1.79 3.771-2.514 6.781-2.514 4.114 0 6.971 1.638 8.381 4.762 1.067 2.286 0.876 4.533-0.762 10.362-1.79 6.21-2.248 8.876-1.562 8.876 0.305 0 0.381 0.381 0.229 1.257-0.267 1.524 0.267 2.286 2.019 2.895 1.714 0.571 3.276 0.533 3.81-0.076 0.229-0.305 0.952-2.895 1.6-5.79l1.219-5.257-0.876-0.724c-0.457-0.381-1.219-0.686-1.676-0.686-1.562 0-1.752-0.419-1.143-2.857 0.762-3.276 0.686-7.276-0.19-9.181-0.762-1.638-4.305-4.876-6.324-5.676-1.6-0.648-4.952-0.914-7.238-0.571z" fill="#000000"></path>
</svg>
