<?xml version="1.0" encoding="utf-8"?>
<!DOCTYPE svg PUBLIC "-//W3C//DTD SVG 1.1//EN" "http://www.w3.org/Graphics/SVG/1.1/DTD/svg11.dtd">
<svg version="1.1" xmlns="http://www.w3.org/2000/svg" xmlns:xlink="http://www.w3.org/1999/xlink" width="53" height="32" viewBox="0 0 53 32">
<path d="M0.693 4.587c0.213 2.293 0.64 9.227 0.96 15.413 0.373 6.133 0.8 11.413 1.013 11.627s11.467 0.267 25.013 0.053l24.587-0.373v-29.547l-9.707-0.32c-5.387-0.213-17.067-0.533-25.973-0.693l-16.213-0.373 0.32 4.213zM10.667 8v2.667h-5.333v-2.293c0-1.28 0.16-2.507 0.373-2.667 0.16-0.213 1.387-0.373 2.667-0.373h2.293v2.667zM18.667 8v2.667h-5.333v-2.293c0-1.28 0.16-2.507 0.373-2.667 0.16-0.213 1.387-0.373 2.667-0.373h2.293v2.667zM26.56 8.107l0.16 2.56h-5.387v-5.387l5.067 0.32 0.16 2.507zM34.133 8v2.667h-5.333v-2.293c0-1.28 0.16-2.507 0.373-2.667 0.16-0.213 1.387-0.373 2.667-0.373h2.293v2.667zM47.36 8.107l0.16 2.56h-10.72v-5.387l10.4 0.32 0.16 2.507zM13.333 16.053v2.667l-2.507-0.16c-2.453-0.16-2.56-0.213-2.72-1.92-0.267-2.827 0.107-3.307 2.827-3.307h2.4v2.72zM21.333 16v2.667h-5.333v-5.333h5.333v2.667zM28.8 16v2.667h-4.8v-5.333h4.8v2.667zM36.8 16.053v2.667l-2.507-0.16c-2.453-0.16-2.56-0.213-2.72-1.92-0.267-2.827 0.107-3.307 2.827-3.307h2.4v2.72zM44.533 16v2.4l-5.067 0.32v-5.44l5.067 0.32v2.4zM10.667 24.053v2.667l-5.067-0.32-0.16-2.56-0.16-2.507h5.387v2.72zM39.36 23.84l-0.16 2.56h-25.6l-0.16-2.56-0.16-2.507h26.24l-0.16 2.507zM47.36 23.84l-0.16 2.56-5.067 0.32v-5.387h5.387l-0.16 2.507z" fill="#000000"></path>
</svg>
