<?xml version="1.0" encoding="utf-8"?>
<!DOCTYPE svg PUBLIC "-//W3C//DTD SVG 1.1//EN" "http://www.w3.org/Graphics/SVG/1.1/DTD/svg11.dtd">
<svg version="1.1" xmlns="http://www.w3.org/2000/svg" xmlns:xlink="http://www.w3.org/1999/xlink" width="45" height="32" viewBox="0 0 45 32">
<path d="M0.478 15.952v16.048l2.054-0.239c1.099-0.143 9.982-0.573 19.678-0.955 9.743-0.43 18.77-0.86 20.107-1.003l2.436-0.239-0.239-13.707c-0.096-7.546-0.334-13.851-0.525-13.994-0.143-0.191-8.215-0.573-17.958-0.86-9.696-0.287-19.439-0.669-21.588-0.812l-3.964-0.239v16zM37.636 5.493c0.43 0.143 0.573 2.579 0.573 9.934v9.743l-12.752 0.573c-7.069 0.287-14.042 0.669-15.522 0.812l-2.77 0.287v-10.698c0-5.922 0.096-10.842 0.239-10.985 0.287-0.287 29.278 0.048 30.233 0.334z" fill="#000000"></path>
</svg>
