<?xml version="1.0" encoding="utf-8"?>
<!DOCTYPE svg PUBLIC "-//W3C//DTD SVG 1.1//EN" "http://www.w3.org/Graphics/SVG/1.1/DTD/svg11.dtd">
<svg version="1.1" xmlns="http://www.w3.org/2000/svg" xmlns:xlink="http://www.w3.org/1999/xlink" width="32" height="32" viewBox="0 0 32 32">
<path d="M15.086 0.2l-1.657 0.114v4.4l-1.486 0.543-1.486 0.514-1.629-1.8-1.6-1.8-2.314 1.8c-1.286 1-2.343 1.914-2.343 2.029s0.2 0.371 0.429 0.571c0.257 0.2 1.086 1.114 1.857 2l1.429 1.657-0.543 1.257-0.543 1.286-2.343 0.171c-1.314 0.114-2.4 0.229-2.429 0.257-0.029 0.057-0.143 1.343-0.257 2.886l-0.171 2.771 2.657-0.171 2.657-0.2 0.371 1.2 0.343 1.2-1.6 1.857c-1.029 1.143-1.543 1.943-1.4 2.171 0.286 0.457 2.771 3.457 3.029 3.657 0.086 0.086 1.229-0.486 2.486-1.257 2.086-1.257 2.429-1.371 3.229-1.143 1 0.286 1.171 0.714 1.514 3.886l0.171 1.657h5.886l0.2-2.914c0.171-2.857 0.429-3.543 1.229-3.229 0.171 0.057 1.257 0.771 2.371 1.6l2.057 1.486 1.829-1.829c1-1 1.829-1.886 1.829-1.971s-0.771-1.086-1.686-2.257c-1.629-2.057-1.686-2.171-1.314-2.886 0.429-0.8 1.429-1.114 3.571-1.143 2.286-0.029 2.343-0.086 2.229-2.743-0.029-1.286-0.171-2.429-0.286-2.543s-1.314-0.286-2.657-0.371c-3.829-0.229-4.2-1.086-1.714-3.914 0.857-1 1.571-1.914 1.571-2.057s-0.743-0.971-1.629-1.857l-1.657-1.629-1.543 1.286c-1.6 1.343-1.8 1.371-3.629 0.686-0.743-0.286-0.743-0.314-0.629-2.857l0.086-2.571-1.429 0.057c-0.771 0.029-2.171 0.086-3.057 0.143zM18.229 10.829c0.571 0.314 1.486 1 2.029 1.543l0.971 1.029-0.143 2.4c-0.143 2.8-0.543 3.629-2.171 4.457-1.657 0.829-3.057 0.971-4.743 0.486-2.629-0.771-3.857-2.771-3.514-5.771 0.4-3.571 4.429-5.771 7.571-4.143z" fill="#000000"></path>
</svg>
