<?xml version="1.0" encoding="utf-8"?>
<!DOCTYPE svg PUBLIC "-//W3C//DTD SVG 1.1//EN" "http://www.w3.org/Graphics/SVG/1.1/DTD/svg11.dtd">
<svg version="1.1" xmlns="http://www.w3.org/2000/svg" xmlns:xlink="http://www.w3.org/1999/xlink" width="41" height="32" viewBox="0 0 41 32">
<path d="M12.473 0.582c-0.655 0.291-1.2 0.655-1.2 0.836s1.127 2.727 2.509 5.6l2.509 5.273-9.091 3.418-3.455-3.382-1.673 0.473c-0.945 0.255-1.709 0.545-1.709 0.655 0 0.255 4.655 12.291 4.909 12.727 0.109 0.182 0.691 0.145 1.273-0.073 1.164-0.4 1.273-0.691 1.745-3.927l0.255-1.964 4.691-0.655c2.618-0.364 4.8-0.582 4.873-0.473 0.109 0.109 0.655 2.909 1.2 6.218 0.545 3.345 1.091 6.109 1.2 6.218 0.145 0.145 0.909-0.182 1.927-0.873 0.218-0.145 1.164-3.309 2.109-7.018s1.855-6.836 2-7.018c0.109-0.145 2.655-1.018 5.636-1.927 7.855-2.4 8.909-3.055 8.909-5.564 0-1.455-1.455-2.582-3.345-2.582-0.8 0-4.145 0.836-7.455 1.818l-6.036 1.818-5.055-4.982c-2.764-2.764-5.164-5.055-5.309-5.091s-0.8 0.182-1.418 0.473z" fill="#000000"></path>
</svg>
