<?xml version="1.0" encoding="utf-8"?>
<!-- Generated by IcoMoon.io -->
<!DOCTYPE svg PUBLIC "-//W3C//DTD SVG 1.1//EN" "http://www.w3.org/Graphics/SVG/1.1/DTD/svg11.dtd">
<svg version="1.1" xmlns="http://www.w3.org/2000/svg" xmlns:xlink="http://www.w3.org/1999/xlink" width="500" height="500" viewBox="0 0 500 500">
<path fill="#000000" d="M141.216 443.795c0-11.302 2.777-18.723 7.716-20.618 11.264-4.322 13.337 0.077 9.55 20.264-4.502 24-17.266 24.262-17.266 0.354zM246.216 441.453c0-14.444 2.083-20 7.5-20s7.5 5.556 7.5 20c0 14.444-2.083 20-7.5 20s-7.5-5.556-7.5-20zM349.368 450.203c-4.947-18.459-3.582-28.75 3.813-28.75 8.062 0 13.035 10.648 13.035 27.909 0 15.35-12.789 15.988-16.849 0.841zM24.709 442.703c-3.063-5.476 10.712-36.25 16.227-36.25 8.551 0 10.228 8.659 4.732 24.426-5.025 14.416-16.035 20.627-20.958 11.824zM461.64 430.518c-3.751-10.761-3.91-17.579-0.489-21 7.047-7.047 14.157 1.141 18.097 20.841 4.401 22.006-9.947 22.136-17.608 0.159zM151.293 382.703c0.042-7.563 2.198-17.106 4.792-21.208 7.794-12.328 16.726 1.318 12.74 19.464-4.287 19.518-17.638 20.846-17.532 1.744zM246.216 376.453c0-14.444 2.083-20 7.5-20s7.5 5.556 7.5 20c0 14.444-2.083 20-7.5 20s-7.5-5.556-7.5-20zM338.272 383.964c-3.466-13.81 0.122-27.511 7.204-27.511 4.858 0 10.558 16.692 10.672 31.25 0.104 13.41-14.329 10.391-17.875-3.739zM46.216 379.188c0-10.49 10.845-32.735 15.959-32.735 7.548 0 9.642 12.768 4.368 26.638-5.341 14.049-20.328 18.544-20.328 6.098zM441.093 373.627c-6.808-17.907-6.080-27.174 2.135-27.174 7.577 0 19.622 28.313 15.134 35.574-5.020 8.122-12.341 4.561-17.269-8.4zM164.55 333.119c-6.518-6.518-3.324-31.984 4.382-34.941 11.264-4.322 13.337 0.077 9.55 20.264-3.285 17.511-7.090 21.52-13.933 14.678zM329.368 325.203c-5.024-18.748-3.544-28.75 4.253-28.75 8.283 0 15.231 20.919 10.792 32.489-4.22 10.998-11.586 9.167-15.045-3.739zM246.216 313.953c0-12.222 2.262-17.5 7.5-17.5s7.5 5.278 7.5 17.5c0 12.222-2.262 17.5-7.5 17.5s-7.5-5.278-7.5-17.5zM69.169 322.185c-4.063-6.575 8.46-35.733 15.348-35.733 10.060 0 11.184 6.698 3.994 23.799-6.671 15.865-14.084 20.439-19.342 11.933zM417.609 309.232c-5.428-17.686-4.063-22.779 6.102-22.779 6.28 0 18.216 32.623 13.619 37.221-7.050 7.050-14.885 1.312-19.72-14.441zM171.216 259.361c0-17.261 4.973-27.909 13.035-27.909 7.396 0 8.76 10.291 3.813 28.75-4.060 15.147-16.849 14.509-16.849-0.841zM246.216 251.453c0-14.444 2.083-20 7.5-20s7.5 5.556 7.5 20c0 14.444-2.083 20-7.5 20s-7.5-5.556-7.5-20zM319.251 263.543c-5.447-14.195-3.283-32.091 3.882-32.091 6.864 0 12.884 14.453 13.015 31.25 0.085 10.909-12.788 11.549-16.897 0.841zM89.458 262.653c-3.396-5.496 10.363-36.201 16.222-36.201 8.802 0 10.538 8.503 4.987 24.426-5.063 14.524-15.819 20.496-21.209 11.775zM396.64 250.518c-3.751-10.761-3.91-17.579-0.489-21 7.047-7.047 14.157 1.141 18.097 20.841 4.401 22.006-9.947 22.136-17.608 0.159zM186.816 206.823c-4.396-2.717-6.070-9.903-4.615-19.817 2.274-15.493 2.192-15.554-20.847-15.554-21.895 0-23.467 0.934-29.458 17.5-7.82 21.625-23.787 24.907-18.244 3.75 1.981-7.563 5.056-33.21 6.833-56.994 4.362-58.396 9.743-64.256 59.005-64.256h36.725v-45h75v45h36.725c49.752 0 54.684 5.581 59.005 66.764 1.776 25.155 4.911 51.025 6.965 57.49 3.095 9.74 2.144 11.448-5.552 9.966-5.434-1.046-11.218-8.518-13.938-18.004-4.419-15.408-5.854-16.216-28.802-16.216h-24.152l3.101 15.506c2.1 10.498 0.891 16.873-3.743 19.736-8.632 5.335-14.43-3.24-14.532-21.492-0.072-12.952-1.383-13.75-22.577-13.75-22.381 0-22.5 0.093-22.5 17.5 0 12.222-2.262 17.5-7.5 17.5s-7.5-5.278-7.5-17.5c0-17.407-0.119-17.5-22.5-17.5-19.896 0-22.541 1.302-22.852 11.25-0.591 18.907-6.386 28.857-14.048 24.121z"></path>
</svg>
