<?xml version="1.0" encoding="utf-8"?>
<!DOCTYPE svg PUBLIC "-//W3C//DTD SVG 1.1//EN" "http://www.w3.org/Graphics/SVG/1.1/DTD/svg11.dtd">
<svg version="1.1" xmlns="http://www.w3.org/2000/svg" xmlns:xlink="http://www.w3.org/1999/xlink" width="15" height="32" viewBox="0 0 15 32">
<path d="M4.938 0.869c-1.462 0.79-2.173 2.054-2.173 3.793 0 1.462 0.237 1.975 1.304 3.042 1.699 1.699 4.148 2.449 5.768 1.817 2.133-0.909 3.2-5.057 1.778-7.072-1.264-1.817-4.741-2.647-6.677-1.58z" fill="#000000"></path>
<path d="M0.395 13.788c0 0.198 0.593 0.869 1.343 1.501l1.383 1.106 0.277 5.452 0.277 5.412-1.659 1.936c-0.869 1.067-1.62 2.133-1.62 2.37 0 0.316 2.331 0.435 7.111 0.435 3.911 0 7.111-0.158 7.111-0.316s-0.711-0.988-1.541-1.817l-1.541-1.501-0.237-5.57c-0.158-3.081-0.356-6.439-0.474-7.506l-0.237-1.857h-5.096c-2.884 0-5.096 0.158-5.096 0.356z" fill="#000000"></path>
</svg>
