<?xml version="1.0" encoding="utf-8"?>
<!DOCTYPE svg PUBLIC "-//W3C//DTD SVG 1.1//EN" "http://www.w3.org/Graphics/SVG/1.1/DTD/svg11.dtd">
<svg version="1.1" xmlns="http://www.w3.org/2000/svg" xmlns:xlink="http://www.w3.org/1999/xlink" width="26" height="32" viewBox="0 0 26 32">
<path d="M18.015 0.77c-0.8 0.237-1.867 0.889-2.43 1.452l-1.037 1.037-6.607-0.296c-3.644-0.148-6.844-0.296-7.111-0.296-0.415 0-0.533 0.237-0.533 1.037v1.037h14.43l0.681 0.711c1.481 1.6 5.807 2.163 8.178 1.096 2.252-1.037 2.815-2.815 1.393-4.504-1.481-1.719-3.97-2.193-6.963-1.274z" fill="#000000"></path>
<path d="M4.237 10.815c-1.6 0.681-1.867 1.63-1.867 6.815v4.593h1.185c1.422 0 1.363 0.267 0.711-5.096-0.504-4.119-0.356-4.83 0.889-5.156 0.385-0.089 1.096-0.119 1.541-0.059l0.859 0.089 0.148 6.074c0.089 3.348 0.267 6.281 0.385 6.548 0.119 0.237 0.622 0.681 1.067 0.948 0.711 0.415 1.689 0.504 6.015 0.504 5.719 0 6.311-0.148 7.141-1.778 0.444-0.919 0.504-1.807 0.444-7.407l-0.089-6.37-8.741-0.059c-6.933-0.059-8.948 0.030-9.689 0.356z" fill="#000000"></path>
<path d="M0.889 30.519c0 0.919 0.119 1.185 0.533 1.185 0.267 0 4.77-0.207 9.985-0.444s10.311-0.444 11.348-0.444c1.748 0 1.837-0.030 1.837-0.741v-0.741h-23.704v1.185z" fill="#000000"></path>
</svg>
