<?xml version="1.0" encoding="utf-8"?>
<!DOCTYPE svg PUBLIC "-//W3C//DTD SVG 1.1//EN" "http://www.w3.org/Graphics/SVG/1.1/DTD/svg11.dtd">
<svg version="1.1" xmlns="http://www.w3.org/2000/svg" xmlns:xlink="http://www.w3.org/1999/xlink" width="27" height="32" viewBox="0 0 27 32">
<path d="M8 0.945c-2.4 0.618-5.564 2.109-6.218 2.909-0.291 0.364-0.727 2.873-1.055 6.145-0.473 4.691-0.473 6.545-0.109 12.036 0.218 3.6 0.436 6.545 0.436 6.618 0.036 0.073 0.655 0.073 1.382 0 1.236-0.109 1.345-0.036 1.564 1.018 0.364 1.6 0.655 1.964 1.673 1.964 1.455 0 2.291-0.655 2.545-2l0.218-1.273h5.782c5.782 0 5.782 0 5.782 0.836 0 1.309 0.982 2.436 2.182 2.436 1.345 0 2.182-0.873 2.182-2.218 0-0.945 0.145-1.055 1.091-1.055 1.345 0 1.345-0.036 1.6-7.2 0.145-4.655 0.036-6.509-0.691-11.2-0.545-3.6-1.055-5.891-1.418-6.291-2.473-2.727-11.455-4.182-16.945-2.727zM21.382 4.255c-0.109 0.873-0.255 1.018-1.273 0.982-0.655 0-4.145-0.036-7.745-0.073l-6.545-0.073v-1.818h15.673l-0.109 0.982zM23.418 8.073c0.109 0.655 0.291 2.691 0.436 4.509l0.255 3.309-7.745 0.218c-4.255 0.145-9.018 0.255-10.582 0.255h-2.836l0.218-2.473c0.109-1.345 0.291-3.345 0.436-4.436l0.218-2 9.273-0.182c5.091-0.109 9.455-0.255 9.673-0.291 0.255-0.036 0.509 0.473 0.655 1.091zM6.727 20.182c1.055 1.018 1.164 2.073 0.327 2.873-1.564 1.6-4.145 0.764-4.145-1.309 0-2.364 2.182-3.236 3.818-1.564zM23.782 20.073c0.982 1.6 1.018 2.4 0.182 3.236-1.345 1.345-4.327 0.436-4.327-1.309 0-2.255 3.018-3.673 4.145-1.927z" fill="#000000"></path>
</svg>
