<?xml version="1.0" encoding="utf-8"?>
<!DOCTYPE svg PUBLIC "-//W3C//DTD SVG 1.1//EN" "http://www.w3.org/Graphics/SVG/1.1/DTD/svg11.dtd">
<svg version="1.1" xmlns="http://www.w3.org/2000/svg" xmlns:xlink="http://www.w3.org/1999/xlink" width="83" height="32" viewBox="0 0 83 32">
<path d="M6.095 1.676c-1.27 0.66-2.946 2.184-3.81 3.352l-1.524 2.184v7.416c0 8.33 0.559 10.362 3.911 13.765 3.454 3.556 1.371 3.352 36.368 3.505 21.79 0.102 32.254-0.051 33.676-0.406 2.692-0.711 6.095-4.165 6.959-6.908 0.356-1.219 0.61-4.978 0.61-8.787 0-7.365-0.508-9.143-3.403-11.784-3.657-3.403-1.575-3.251-37.74-3.403l-32.813-0.152-2.235 1.219zM44.698 6.603c8.787 0.305 16 0.61 16.051 0.66 0.203 0.254-1.676 18.641-1.93 18.895-0.152 0.152-7.568 0.051-16.457-0.203-8.94-0.305-17.27-0.559-18.59-0.559-2.286 0-2.387-0.051-2.641-1.676-0.152-0.863-0.356-5.232-0.457-9.651l-0.254-7.975h4.165c2.235 0 11.327 0.254 20.114 0.508zM12.698 12.14c0 1.981 0.051 2.032 1.93 2.184 1.524 0.102 1.93 0.356 2.032 1.27 0.152 1.016-0.051 1.168-1.625 1.168-1.778 0-1.829 0.051-1.829 2.032 0 1.27-0.254 2.032-0.61 2.032s-1.168 0.152-1.778 0.305c-1.067 0.305-1.168 0.152-1.168-1.778 0-2.032-0.051-2.083-1.778-2.083-1.625 0-1.778-0.102-1.778-1.524s0.152-1.524 1.778-1.524c1.727 0 1.778-0.051 1.778-2.032 0-1.93 0.102-2.032 1.524-2.032s1.524 0.102 1.524 1.981zM72.635 10.921c1.321 1.625-0.66 4.114-2.387 2.997-1.168-0.711-1.422-2.083-0.66-2.997 0.813-0.965 2.235-0.965 3.048 0zM68.064 14.73c0.762 1.422-0.203 3.048-1.778 3.048-1.321 0-2.286-1.321-1.879-2.54 0.61-1.727 2.844-2.032 3.657-0.508zM76.19 15.746c1.829 1.829-0.356 4.216-2.489 2.743-1.27-0.914-1.321-1.575-0.203-2.844 1.067-1.168 1.422-1.168 2.692 0.102zM71.213 19.149c1.219 1.067 1.168 1.93-0.203 2.895-1.981 1.422-4.013-0.66-2.641-2.692 0.914-1.27 1.575-1.321 2.844-0.203zM10.057 25.803c0.203 1.422-1.219 2.032-2.286 0.965-0.711-0.66-0.711-0.965-0.152-1.625 0.914-1.117 2.235-0.762 2.438 0.66zM15.187 25.346c0.406 0.711 0.356 1.117-0.203 1.575-0.965 0.813-2.286 0.305-2.286-0.914 0-1.829 1.676-2.286 2.489-0.66z" fill="#000000"></path>
</svg>
