<?xml version="1.0" encoding="utf-8"?>
<!DOCTYPE svg PUBLIC "-//W3C//DTD SVG 1.1//EN" "http://www.w3.org/Graphics/SVG/1.1/DTD/svg11.dtd">
<svg version="1.1" xmlns="http://www.w3.org/2000/svg" xmlns:xlink="http://www.w3.org/1999/xlink" width="29" height="32" viewBox="0 0 29 32">
<path d="M14.923 0.431c-1.723 0.769-2.923 2.769-2.923 4.831 0 1.354 1.354 4.462 3.2 7.323l1.631 2.554 1.323-2.092c2.154-3.446 3.385-6.246 3.385-7.815 0-3.815-3.354-6.246-6.615-4.8zM18.338 3.877c1.138 1.692-0.769 3.6-2.462 2.462-1.569-1.015-0.677-3.262 1.262-3.262 0.4 0 0.923 0.338 1.2 0.8z" fill="#000000"></path>
<path d="M8.308 8.338c-0.431 0.154-2.4 0.923-4.369 1.692l-3.631 1.415v10.154c0 8.154 0.092 10.123 0.4 10.031 0.215-0.062 2.215-0.8 4.462-1.631l4.062-1.538v-10.246c0-5.6-0.031-10.215-0.062-10.185-0.062 0-0.431 0.154-0.862 0.308z" fill="#000000"></path>
<path d="M25.231 9.354l-3.231 1.292-0.092 10.246c-0.031 5.631 0.031 10.185 0.185 10.123 0.123-0.031 1.723-0.646 3.538-1.323l3.292-1.231v-10.246c0-5.6-0.092-10.215-0.215-10.185-0.154 0.031-1.692 0.615-3.477 1.323z" fill="#000000"></path>
<path d="M11.138 18.831l0.092 10.215 4 1.292c2.215 0.738 4.185 1.323 4.4 1.323 0.277 0.031 0.369-2.154 0.369-9.908l-0.031-9.908-1.2 2.277c-0.646 1.262-1.323 2.4-1.477 2.554-0.369 0.369-2.092-1.969-3.785-5.138-1.262-2.338-1.692-2.923-2.215-2.923-0.123 0-0.185 4.585-0.154 10.215z" fill="#000000"></path>
</svg>
