<?xml version="1.0" encoding="utf-8"?>
<!DOCTYPE svg PUBLIC "-//W3C//DTD SVG 1.1//EN" "http://www.w3.org/Graphics/SVG/1.1/DTD/svg11.dtd">
<svg version="1.1" xmlns="http://www.w3.org/2000/svg" xmlns:xlink="http://www.w3.org/1999/xlink" width="29" height="32" viewBox="0 0 29 32">
<path d="M9.565 0.738c-0.668 0.211-1.864 1.020-2.708 1.864-2.321 2.321-2.673 5.345-1.090 9.002 0.176 0.387-0.246 0.879-1.336 1.653-3.341 2.356-4.818 5.908-4.114 9.811 1.020 5.451 5.767 8.932 11.64 8.51 2.040-0.141 4.009-0.844 6.716-2.286 0.141-0.070 0.563 0.422 0.949 1.125l0.738 1.231h7.771v-6.084l-2.11 0.211c-2.673 0.246-3.165-0.211-2.356-2.145 0.316-0.703 0.774-1.969 0.985-2.778 0.422-1.442 0.492-1.512 1.758-1.512 1.231 0 1.371-0.105 1.547-1.16 0.105-0.598 0.316-1.899 0.492-2.884 0.176-0.949 0.281-1.793 0.211-1.864-0.105-0.105-5.767 0.563-7.103 0.809-0.598 0.141-0.844 0.563-1.16 2.040-0.211 0.985-0.598 2.286-0.809 2.848l-0.457 1.020-2.145-2.919-2.18-2.919 2.075-1.336c2.215-1.407 3.024-2.567 3.376-4.818 0.422-2.743-1.442-5.873-4.255-7.138-1.547-0.703-4.501-0.844-6.435-0.281zM13.996 5.837c1.442 0.985 0.879 2.532-1.301 3.657-0.774 0.387-0.949 0.352-1.512-0.352-1.266-1.547-0.387-3.868 1.477-3.868 0.316 0 0.914 0.246 1.336 0.563zM12.624 20.677c1.582 2.18 2.778 4.114 2.673 4.29-0.527 0.879-2.462 1.477-4.079 1.336-3.376-0.352-5.837-3.622-4.923-6.576 0.422-1.442 2.743-3.833 3.2-3.305 0.141 0.141 1.547 2.075 3.13 4.255z" fill="#000000"></path>
</svg>
