<?xml version="1.0" encoding="utf-8"?>
<!DOCTYPE svg PUBLIC "-//W3C//DTD SVG 1.1//EN" "http://www.w3.org/Graphics/SVG/1.1/DTD/svg11.dtd">
<svg version="1.1" xmlns="http://www.w3.org/2000/svg" xmlns:xlink="http://www.w3.org/1999/xlink" width="32" height="32" viewBox="0 0 32 32">
<path d="M14.309 0.571c-0.754 0.526-0.983 0.549-2.377 0.434-1.44-0.137-1.6-0.114-2.286 0.48-0.389 0.343-0.731 0.731-0.731 0.891 0 0.366-0.983 0.823-1.737 0.823-1.189 0-2.354 1.029-2.377 2.080 0 0.617-0.731 1.44-1.509 1.669-0.914 0.274-1.326 1.006-1.463 2.606-0.137 1.326-0.251 1.623-0.869 2.263-0.594 0.594-0.731 0.891-0.731 1.737 0 0.571 0.183 1.349 0.389 1.737 0.389 0.686 0.389 0.731 0 1.417-0.206 0.389-0.389 1.166-0.389 1.737 0 0.846 0.137 1.143 0.731 1.737 0.617 0.64 0.731 0.937 0.869 2.309 0.114 1.326 0.229 1.646 0.777 2.103 0.343 0.297 0.754 0.549 0.937 0.549 0.434 0 1.257 1.097 1.257 1.691 0.023 0.937 1.234 1.966 2.377 1.966 0.846 0 1.646 0.434 1.92 1.051 0.457 0.983 1.28 1.303 2.903 1.143 1.303-0.137 1.577-0.091 2.126 0.32 1.074 0.777 2.286 0.823 3.314 0.137 0.8-0.549 1.006-0.594 2.446-0.457l1.6 0.16 1.143-1.189c0.869-0.914 1.28-1.166 1.829-1.166 1.371 0 2.217-0.731 2.651-2.286 0.206-0.8 0.503-1.12 1.371-1.486 1.074-0.434 1.531-1.303 1.577-2.88 0.023-1.143 0.114-1.394 0.64-1.806 0.891-0.709 1.211-1.966 0.754-3.063-0.411-0.96-0.48-2.103-0.16-2.286 0.709-0.434 0.32-2.606-0.594-3.337-0.526-0.411-0.617-0.663-0.64-1.806-0.046-1.577-0.503-2.446-1.577-2.88-0.937-0.411-1.166-0.686-1.486-1.874-0.32-1.166-1.234-1.897-2.4-1.897-0.709 0-1.029-0.183-1.966-1.166l-1.143-1.189-1.6 0.16c-1.44 0.114-1.646 0.091-2.423-0.434-0.457-0.32-1.166-0.571-1.577-0.571s-1.12 0.251-1.577 0.571zM18.469 4.914c5.189 1.234 8.754 5.76 8.754 11.109 0 7.109-6.651 12.594-13.554 11.154-5.234-1.097-9.097-5.851-9.097-11.2 0-7.314 6.811-12.731 13.897-11.063z" fill="#000000"></path>
<path d="M14.309 5.966c-4.777 0.686-8.594 5.12-8.594 10.034 0 2.629 1.349 5.737 3.269 7.429 0.617 0.571 1.806 1.349 2.629 1.76 1.463 0.731 1.623 0.754 4.274 0.754 2.743 0 2.789 0 4.48-0.846 2.697-1.326 4.594-3.634 5.326-6.469 1.874-7.154-4-13.691-11.383-12.663z" fill="#000000"></path>
</svg>
