<?xml version="1.0" encoding="utf-8"?>
<!DOCTYPE svg PUBLIC "-//W3C//DTD SVG 1.1//EN" "http://www.w3.org/Graphics/SVG/1.1/DTD/svg11.dtd">
<svg version="1.1" xmlns="http://www.w3.org/2000/svg" xmlns:xlink="http://www.w3.org/1999/xlink" width="18" height="32" viewBox="0 0 18 32">
<path d="M15.481 0.894c-1.009 0.75-2.364 3.69-2.796 5.939-0.231 1.095-0.317 3.142-0.231 5.189 0.173 3.892 0.778 5.91 2.277 7.467l0.923 0.951-0.173 5.795-0.173 5.766h1.413c0.778 0 1.47-0.087 1.528-0.202 0.058-0.144-0.058-3.027-0.259-6.429s-0.375-10.436-0.375-15.654l-0.029-9.427h-0.692c-0.375 0-1.009 0.259-1.413 0.605z" fill="#000000"></path>
<path d="M7.323 6.458l0.202 4.728-0.807 0.144c-0.432 0.086-0.865 0.115-0.923 0.058s-0.231-2.133-0.404-4.613c-0.231-3.373-0.404-4.555-0.692-4.67-0.923-0.375-1.038 0.375-0.663 4.584 0.202 2.277 0.375 4.238 0.404 4.411 0.029 0.144-0.375 0.317-0.865 0.375-0.865 0.086-0.923 0.029-1.067-1.153-0.115-0.692-0.259-2.479-0.346-3.978-0.231-3.805-0.317-4.036-1.153-4.036-0.894 0-0.894-0.231 0 6.025 0.75 5.305 1.038 6.112 2.508 6.89l0.865 0.49-0.115 8.072-0.087 8.072 3.315 0.173v-0.951c0-0.519-0.259-3.892-0.577-7.438-0.721-8.187-0.721-8.245-0.029-8.447 0.317-0.086 0.836-0.577 1.153-1.095 0.548-0.894 0.605-1.441 0.605-6.688v-5.679h-1.528l0.202 4.728z" fill="#000000"></path>
</svg>
