<?xml version="1.0" encoding="utf-8"?>
<!DOCTYPE svg PUBLIC "-//W3C//DTD SVG 1.1//EN" "http://www.w3.org/Graphics/SVG/1.1/DTD/svg11.dtd">
<svg version="1.1" xmlns="http://www.w3.org/2000/svg" xmlns:xlink="http://www.w3.org/1999/xlink" width="72" height="32" viewBox="0 0 72 32">
<path d="M29.302 0.753c-0.094 0.22 0.282 2.824 0.784 5.773 0.533 2.949 0.973 5.49 0.973 5.647 0 0.22-6.745 1.004-8.784 1.004-0.627 0-0.973-0.376-1.882-2.039l-1.098-2.039h-1.788c-1.192 0-1.82 0.126-1.82 0.376 0 0.565 1.318 13.584 1.38 13.647 0.031 0.031 0.596 0 1.255-0.125 1.161-0.188 1.255-0.314 2.322-2.573 0.596-1.318 1.098-2.416 1.129-2.447 0.063-0.063 9.412 1.161 9.474 1.255 0 0.031-0.22 2.447-0.533 5.396-0.314 2.918-0.565 5.773-0.565 6.306-0.031 0.973 0 1.004 1.098 0.753 0.596-0.157 1.192-0.345 1.318-0.471 0.094-0.094 1.757-2.886 3.671-6.212l3.482-6.024 5.176-0.157c4.675-0.157 5.396-0.282 7.812-1.129s2.667-1.035 2.761-1.82c0.22-1.694-0.188-2.384-1.757-3.075-1.38-0.627-1.851-0.659-7.906-0.471l-6.463 0.188-3.576-6.086-3.608-6.118h-1.349c-0.847 0-1.412 0.157-1.506 0.439z" fill="#000000"></path>
<path d="M0.314 16v1.569h4.706v-3.137h-4.706v1.569z" fill="#000000"></path>
<path d="M8.784 16v1.569h5.020v-3.137h-5.020v1.569z" fill="#000000"></path>
<path d="M58.353 16v1.569h5.020v-3.137h-5.020v1.569z" fill="#000000"></path>
<path d="M67.137 16v1.569h4.706v-3.137h-4.706v1.569z" fill="#000000"></path>
</svg>
