<?xml version="1.0" encoding="utf-8"?>
<!DOCTYPE svg PUBLIC "-//W3C//DTD SVG 1.1//EN" "http://www.w3.org/Graphics/SVG/1.1/DTD/svg11.dtd">
<svg version="1.1" xmlns="http://www.w3.org/2000/svg" xmlns:xlink="http://www.w3.org/1999/xlink" width="42" height="32" viewBox="0 0 42 32">
<path d="M21.403 0.498c-0.131 0.21-0.315 1.967-0.367 3.882l-0.131 3.489-1.469 0.026c-3.148 0.026-4.669 0.708-2.938 1.311 0.866 0.315 0.866 0.289 1.469 3.515 0.472 2.571 0.472 2.492-0.026 2.492-0.236 0-0.367 0.184-0.315 0.446 0.052 0.341 0.472 0.525 1.39 0.656 2.702 0.42 2.492 0.21 2.492 2.649v2.151l5.98-0.157-0.131-2.046-0.157-2.046 1.941-0.472c2.125-0.498 2.675-0.813 2.098-1.18-0.341-0.184-0.315-0.577 0.079-2.78 0.525-2.911 0.551-2.99 1.154-2.99 0.262 0 0.734-0.184 1.075-0.42 0.551-0.393 0.551-0.472 0.184-0.682-0.525-0.289-9.652-0.839-10.833-0.63l-0.866 0.131-0.026-1.233c-0.105-3.541-0.393-6.452-0.603-6.111zM23.816 11.987l-0.079 2.046h-1.941c-2.203 0-2.098 0.105-2.492-2.544-0.21-1.443-0.21-1.443 2.675-1.495l1.915-0.026-0.079 2.020zM30.033 10.282c0.079 0.079 0 0.97-0.157 2.020l-0.315 1.862h-4.38v-1.128c0-0.603 0.079-1.548 0.184-2.125l0.157-0.997 2.177 0.105c1.207 0.052 2.256 0.184 2.334 0.262z" fill="#000000"></path>
<path d="M0.262 18.675c0 0.603 2.728 7.764 3.043 8 0.393 0.289 4.669 1.364 7.685 1.915 0.761 0.131 2.046 0.262 2.833 0.262h1.39l-0.42 0.656c-0.21 0.341-0.341 0.761-0.236 0.892 0.105 0.184-2.020 0.315-6.479 0.341-6.085 0.079-6.636 0.105-6.715 0.551-0.079 0.42 1.023 0.446 20.144 0.446s20.223-0.026 20.144-0.446c-0.079-0.42-0.472-0.472-3.174-0.551-3.043-0.079-3.069-0.079-3.069-0.708 0-0.341-0.105-0.708-0.262-0.787-0.131-0.079-0.262-0.367-0.262-0.63 0-0.367 0.289-0.525 1.18-0.63 1.416-0.21 3.148-1.049 3.384-1.626 0.551-1.495-0.289-2.439-3.751-4.144-1.6-0.787-1.889-0.839-4.223-0.813-1.364 0.026-5.377 0.42-8.918 0.866-3.541 0.472-7.869 0.918-9.6 0.997l-3.2 0.157-2.938-2.282c-2.256-1.705-3.148-2.256-3.777-2.256-0.446 0-1.259-0.079-1.784-0.157-0.551-0.105-0.997-0.105-0.997-0.052zM34.282 28.485c0.105 0.262 0 0.525-0.262 0.682-0.262 0.131-0.446 0.525-0.446 0.866v0.656h-2.885c-2.885 0-2.885 0-2.885-0.63 0-1.207-0.262-1.469-1.548-1.521-0.656-0.026 0.446-0.131 2.466-0.21s4.066-0.184 4.538-0.21c0.577-0.026 0.918 0.079 1.023 0.367zM23.161 28.774c-1.6 0.105-1.626 0.105-1.705 0.944l-0.079 0.839-2.544 0.079c-2.23 0.052-2.544 0.026-2.413-0.341 0.105-0.236-0.026-0.63-0.289-0.918-0.42-0.472-0.42-0.498 0.315-0.603 0.393-0.052 2.439-0.105 4.538-0.105 2.098 0.026 3.069 0.052 2.177 0.105z" fill="#000000"></path>
</svg>
