<?xml version="1.0" encoding="utf-8"?>
<!DOCTYPE svg PUBLIC "-//W3C//DTD SVG 1.1//EN" "http://www.w3.org/Graphics/SVG/1.1/DTD/svg11.dtd">
<svg version="1.1" xmlns="http://www.w3.org/2000/svg" xmlns:xlink="http://www.w3.org/1999/xlink" width="42" height="32" viewBox="0 0 42 32">
<path d="M23.834 0.497c-1.324 0.634-2.207 1.655-2.621 3.117-0.883 2.869 2.124 7.476 7.559 11.531l1.572 1.186 1.6-1.159c2.51-1.903 5.628-5.214 6.621-7.062 1.131-2.179 1.241-4.469 0.248-5.931-0.662-1.021-2.676-2.179-3.779-2.179-1.572 0-3.669 1.545-4.524 3.393-0.138 0.248-0.193 0.248-0.331 0-1.297-2.759-4-3.972-6.345-2.897zM37.076 4.193c-0.883 1.517-3.862 5.545-4.331 5.876-0.414 0.303-1.269 0.414-2.952 0.386-1.903 0-2.207-0.055-1.6-0.303 0.524-0.166 1.462-1.269 2.869-3.283l2.069-3.007h2.069c1.572 0 2.014 0.083 1.876 0.331z" fill="#000000"></path>
<path d="M10.29 15.421c-0.634 0.276-3.062 1.6-5.407 2.897l-4.276 2.372-0.166 3.807c-0.11 2.069-0.248 4.634-0.331 5.655l-0.166 1.876 4.083-2.041c2.262-1.131 4.938-2.372 5.931-2.759l1.821-0.717 3.697 0.524c2.041 0.303 5.848 0.938 8.441 1.434l4.772 0.855 2.29-1.131c3.117-1.545 6.4-3.945 8.055-5.876 3.448-4.055 3.834-6.593 0.993-6.593-0.69 0-0.966 0.248-2.041 1.848-0.662 1.048-1.379 2.152-1.545 2.483-0.303 0.579-4.634 3.338-6.152 3.917-0.552 0.221-1.766 0-5.49-0.966-2.648-0.662-4.8-1.214-4.828-1.214 0 0 0.028-0.386 0.11-0.855 0.083-0.634 0.221-0.8 0.579-0.662 2.069 0.8 6.345 1.848 8 1.986 1.793 0.138 2.097 0.11 2.4-0.331 0.469-0.662 0.497-2.179 0.055-2.566-0.441-0.331-9.048-2.621-13.241-3.503-4.772-0.993-6.207-1.076-7.586-0.441z" fill="#000000"></path>
</svg>
