<?xml version="1.0" encoding="utf-8"?>
<!DOCTYPE svg PUBLIC "-//W3C//DTD SVG 1.1//EN" "http://www.w3.org/Graphics/SVG/1.1/DTD/svg11.dtd">
<svg version="1.1" xmlns="http://www.w3.org/2000/svg" xmlns:xlink="http://www.w3.org/1999/xlink" width="21" height="32" viewBox="0 0 21 32">
<path d="M0.469 1.848c-0.414 3.724-0.497 8.414-0.248 11.034 0.248 2.455 0.386 2.979 1.131 4.055 1.572 2.262 4.11 3.972 8.276 5.517 4.331 1.6 6.924 3.807 8.193 6.897 0.303 0.69 0.607 1.269 0.69 1.269 0.303 0 1.021-1.903 1.49-3.945 0.662-3.007 0.497-7.586-0.359-9.214-0.524-1.021-0.745-1.159-1.876-1.352-1.159-0.166-4.634-0.028-8.552 0.331l-1.683 0.166-0.579-2.041c-0.331-1.103-0.745-3.31-0.883-4.883-0.248-2.428-0.248-2.924 0.11-3.31 1.269-1.407 1.131-2.869-0.552-4.883l-0.966-1.214h-4.028l-0.166 1.572z" fill="#000000"></path>
<path d="M0.938 19.614c0.11 0.359 0.662 3.090 1.297 6.041 0.855 4.193 1.241 5.49 1.683 5.876 0.497 0.414 1.269 0.469 6.897 0.469h6.317l-0.193-0.607c-0.331-1.076-1.269-2.814-2.069-3.834-1.103-1.379-2.924-2.51-6.041-3.697-3.145-1.214-4.993-2.234-6.731-3.752-1.159-1.021-1.269-1.076-1.159-0.497z" fill="#000000"></path>
</svg>
