<?xml version="1.0" encoding="utf-8"?>
<!DOCTYPE svg PUBLIC "-//W3C//DTD SVG 1.1//EN" "http://www.w3.org/Graphics/SVG/1.1/DTD/svg11.dtd">
<svg version="1.1" xmlns="http://www.w3.org/2000/svg" xmlns:xlink="http://www.w3.org/1999/xlink" width="38" height="32" viewBox="0 0 38 32">
<path d="M19.965 1.55c-0.423 0.382-3.663 9.077-3.663 9.841 0 0.221 0.161 0.564 0.362 0.745 0.302 0.282 6.762 2.757 7.185 2.757 0.081 0 0.564-0.342 1.087-0.785 1.409-1.167 2.174-1.489 3.542-1.509 0.845 0 1.449 0.121 2.033 0.423 1.429 0.765 1.429 0.845 0.181 2.475-0.624 0.785-1.107 1.469-1.067 1.509 0.181 0.201 2.898 1.107 3.26 1.107 0.242 0 0.604-0.121 0.805-0.262 0.322-0.241 3.743-9.258 3.743-9.882 0-0.785-0.886-1.187-8.433-3.945-4.247-1.55-7.909-2.818-8.171-2.818s-0.644 0.161-0.865 0.342zM30.048 7.587c0.765 0.282 1.308 0.584 1.208 0.664-0.725 0.644-4.488 3.12-5.072 3.361-0.684 0.262-0.825 0.242-2.616-0.403l-1.892-0.684 0.785-0.121c0.543-0.101 1.55-0.664 3.2-1.831 1.429-1.026 2.536-1.67 2.717-1.61 0.161 0.060 0.926 0.342 1.67 0.624z" fill="#000000"></path>
<path d="M15.175 9.701c-0.322 0.362-1.55 2.294-2.757 4.287-2.616 4.387-3.441 5.494-4.488 6.078-0.503 0.282-1.852 0.624-3.663 0.926-1.57 0.262-2.898 0.523-2.958 0.564-0.101 0.121 1.449 9.057 1.61 9.197 0.161 0.181 7.829-1.147 10.365-1.791 4.75-1.187 7.829-3.2 11.27-7.326 1.892-2.294 5.836-7.306 5.836-7.447 0-0.221-1.389-0.704-1.952-0.704-1.248 0.020-2.254 0.704-5.696 3.925-1.61 1.509-2.294 1.65-3.24 0.704-0.745-0.745-0.664-1.167 0.463-2.355 0.946-0.966 1.067-0.845-1.811-1.872-2.616-0.926-3.2-1.771-2.596-3.683 0.181-0.564 0.302-1.047 0.262-1.087s-0.322 0.221-0.644 0.584z" fill="#000000"></path>
</svg>
