<?xml version="1.0" encoding="utf-8"?>
<!DOCTYPE svg PUBLIC "-//W3C//DTD SVG 1.1//EN" "http://www.w3.org/Graphics/SVG/1.1/DTD/svg11.dtd">
<svg version="1.1" xmlns="http://www.w3.org/2000/svg" xmlns:xlink="http://www.w3.org/1999/xlink" width="29" height="32" viewBox="0 0 29 32">
<path d="M11.852 6.281v5.886l-3.042-0.198-3.042-0.237 1.778 2.528c0.988 1.383 2.844 3.99 4.109 5.807s2.41 3.16 2.607 2.963c0.158-0.158 1.936-2.647 3.911-5.452l3.595-5.136-2.291-0.119c-1.264-0.079-2.449-0.277-2.607-0.435-0.198-0.198-0.040-2.686 0.316-5.57 0.514-4.306 0.553-5.333 0.119-5.57-0.277-0.198-1.62-0.356-2.963-0.356h-2.489v5.886z" fill="#000000"></path>
<path d="M0.593 24.77c0.119 2.37 0.316 4.938 0.435 5.768l0.237 1.462h27.259l-0.277-5.452c-0.158-2.963-0.395-5.57-0.474-5.768-0.198-0.316-6.321-0.119-6.637 0.237-0.079 0.040 0.040 1.146 0.237 2.449 0.198 1.264 0.316 2.41 0.237 2.489-0.119 0.119-13.748 1.699-14.736 1.699-0.040 0-0.198-1.62-0.356-3.556l-0.277-3.556h-5.926l0.277 4.227z" fill="#000000"></path>
</svg>
