<?xml version="1.0" encoding="utf-8"?>
<!DOCTYPE svg PUBLIC "-//W3C//DTD SVG 1.1//EN" "http://www.w3.org/Graphics/SVG/1.1/DTD/svg11.dtd">
<svg version="1.1" xmlns="http://www.w3.org/2000/svg" xmlns:xlink="http://www.w3.org/1999/xlink" width="37" height="32" viewBox="0 0 37 32">
<path d="M27.52 0.939c-2.389 1.579-8.96 4.523-12.203 5.461-3.2 0.939-3.285 0.981-3.541 2.517-0.299 1.963-0.299 6.229 0 8.192 0.256 1.536 0.341 1.579 3.541 2.517 3.413 0.981 10.325 4.053 12.373 5.504 1.621 1.152 4.736 1.237 5.717 0.128 4.267-4.693 3.883-22.443-0.512-24.832-1.323-0.683-3.968-0.427-5.376 0.512zM32.768 4.565c1.067 2.304 1.152 2.859 1.152 8.448s-0.085 6.144-1.152 8.405c-1.237 2.645-2.005 3.029-3.115 1.493-1.109-1.579-2.773-7.467-2.773-9.899s1.664-8.32 2.773-9.941c1.109-1.493 1.877-1.109 3.115 1.493z" fill="#000000"></path>
<path d="M5.12 8.064c-3.157 0.256-3.157 0.256-4.139 1.963-1.28 2.219-1.237 4.096 0.085 6.187 1.067 1.707 1.109 1.707 3.755 1.707 1.451 0 3.029 0.128 3.499 0.256 0.853 0.213 0.896 0.043 0.896-5.12 0-3.627-0.128-5.333-0.427-5.291-0.256 0.043-1.92 0.171-3.669 0.299z" fill="#000000"></path>
<path d="M10.112 25.515c0.811 3.2 1.621 6.016 1.792 6.187 0.384 0.384 4.651-1.152 5.461-1.963 0.427-0.384 0.043-1.451-1.749-4.779-2.347-4.352-2.389-4.395-5.632-5.035l-1.365-0.256 1.493 5.845z" fill="#000000"></path>
</svg>
