<?xml version="1.0" encoding="utf-8"?>
<!DOCTYPE svg PUBLIC "-//W3C//DTD SVG 1.1//EN" "http://www.w3.org/Graphics/SVG/1.1/DTD/svg11.dtd">
<svg version="1.1" xmlns="http://www.w3.org/2000/svg" xmlns:xlink="http://www.w3.org/1999/xlink" width="52" height="32" viewBox="0 0 52 32">
<path d="M0.516 16.258v15.742h36.129v-31.484h-36.129v15.742zM23.381 3.406c1.29 0.465 3.355 1.755 4.49 2.89 2.942 2.839 4.129 5.574 4.129 9.755 0.052 14.761-19.923 18.787-25.91 5.213-1.135-2.529-1.342-7.226-0.413-9.652 1.445-3.819 5.11-7.484 8.568-8.516 2.426-0.723 6.555-0.568 9.135 0.31z" fill="#000000"></path>
<path d="M15.845 6.194c-5.265 2.065-8.103 5.729-8.103 10.529 0 9.239 12.077 14.090 19.148 7.69 5.419-4.903 3.923-14.916-2.735-18.168-2.787-1.342-5.058-1.342-8.31-0.052zM23.639 8c0.413 0.361-1.6 2.839-2.271 2.839-0.723 0-1.032-2.632-0.361-3.252 0.31-0.31 2.168 0 2.632 0.413zM27.665 11.974c1.135 2.219 0.929 2.994-0.774 2.994-1.187 0-1.755-0.361-2.477-1.548-0.465-0.877-1.084-1.548-1.342-1.548s0.052-0.723 0.671-1.6c1.135-1.497 1.187-1.548 2.168-0.619 0.568 0.516 1.342 1.548 1.755 2.323z" fill="#000000"></path>
<path d="M44.8 6.503c-5.884 5.729-6.090 5.987-6.090 8.103s0.206 2.426 6.452 8.619l6.452 6.452-0.052-9.548c-0.052-5.265-0.206-11.768-0.413-14.555l-0.31-4.955-6.039 5.884z" fill="#000000"></path>
</svg>
