<?xml version="1.0" encoding="utf-8"?>
<!DOCTYPE svg PUBLIC "-//W3C//DTD SVG 1.1//EN" "http://www.w3.org/Graphics/SVG/1.1/DTD/svg11.dtd">
<svg version="1.1" xmlns="http://www.w3.org/2000/svg" xmlns:xlink="http://www.w3.org/1999/xlink" width="32" height="32" viewBox="0 0 32 32">
<path d="M15.461 0.824c-1.109 0.57-1.521 1.362-1.521 2.82 0 1.616 1.204 2.693 3.042 2.693 1.109 0 1.489-0.158 2.186-1.014 0.697-0.824 0.824-1.236 0.697-2.249-0.317-2.408-2.313-3.422-4.404-2.249z" fill="#000000"></path>
<path d="M12.198 7.414c-1.172 0.507-1.743 1.648-1.743 3.517v1.426h2.661c1.489 0 2.788-0.127 2.883-0.317 0.095-0.158 0.285-1.014 0.38-1.901 0.253-2.154 0.919-2.091 1.204 0.158l0.19 1.743h5.671v-1.267c0-2.63-1.362-3.802-4.309-3.802-1.077 0-1.394 0.127-1.552 0.634-0.095 0.348-0.412 0.634-0.634 0.634-0.253 0-0.602-0.285-0.792-0.634-0.412-0.76-2.44-0.855-3.96-0.19zM21.164 9.885c-0.507 0.634-1.141 1.077-1.679 1.141l-0.855 0.127 0.855-1.141c0.602-0.792 1.109-1.141 1.648-1.141h0.824l-0.792 1.014z" fill="#000000"></path>
<path d="M0.444 19.232c0.095 3.295 0.285 7.477 0.412 9.347l0.19 3.422h29.624l0.19-2.44c0.095-1.362 0.253-5.481 0.38-9.156l0.19-6.685-6.432-0.19c-3.549-0.127-10.582-0.222-15.62-0.222h-9.156l0.222 5.925zM22.717 17.838c-0.507 1.299-5.45 7.889-6.242 8.301-0.634 0.317-1.869 0.475-4.024 0.475h-3.105l1.236-0.729c0.887-0.507 2.028-1.806 3.96-4.594l2.693-3.865h2.82c2.186 0 2.788 0.095 2.661 0.412z" fill="#000000"></path>
</svg>
