<?xml version="1.0" encoding="utf-8"?>
<!DOCTYPE svg PUBLIC "-//W3C//DTD SVG 1.1//EN" "http://www.w3.org/Graphics/SVG/1.1/DTD/svg11.dtd">
<svg version="1.1" xmlns="http://www.w3.org/2000/svg" xmlns:xlink="http://www.w3.org/1999/xlink" width="31" height="32" viewBox="0 0 31 32">
<path d="M18.265 0.324c-1.402 0.467-3.524 1.834-3.524 2.265 0 0.252-2.409 0.324-7.083 0.252l-7.119-0.144-0.108 0.791-0.108 0.827h7.011c6.939 0 7.011 0 7.874 0.863 2.445 2.445 9.133 1.942 9.816-0.719 0.324-1.258-0.18-2.625-1.294-3.452-1.043-0.755-4.027-1.151-5.465-0.683z" fill="#000000"></path>
<path d="M2.625 12.009l-1.007 0.863-0.216 11.218h1.438c1.402 0 1.438-0.036 1.294-1.007-0.431-2.517-0.899-6.76-0.899-8.162 0-1.834 0.575-2.337 2.661-2.337h1.294v6.472c0 8.845 0.288 9.348 5.142 9.348h2.697l-0.36-1.69c-0.216-0.971-0.719-2.121-1.187-2.625-1.151-1.258-1.618-2.301-1.618-3.56 0-1.474 1.798-2.805 4.566-3.38 1.33-0.252 2.589-0.791 3.308-1.438 1.151-0.935 1.87-1.151 3.56-1.007 0.719 0.072 0.791-0.072 0.791-1.762v-1.798h-20.458l-1.007 0.863z" fill="#000000"></path>
<path d="M20.782 16.036c-0.575 0.288-1.007 0.647-1.007 0.827s-0.611 0.431-1.33 0.575c-4.207 0.791-6.148 3.883-3.883 6.148 1.834 1.834 3.955 2.481 8.090 2.481 3.236 0 4.027-0.108 5.501-0.863 3.056-1.474 3.452-3.775 1.007-5.789-0.719-0.611-1.762-1.582-2.373-2.121-2.013-1.942-4.027-2.337-6.005-1.258zM23.73 18.876c-0.431 0.503-1.654 0.324-2.049-0.288-0.108-0.18 0.072-0.575 0.431-0.827 0.575-0.431 0.755-0.395 1.33 0.108 0.467 0.395 0.539 0.719 0.288 1.007zM18.625 20.674c0.36 0.791 0.324 0.899-0.467 1.115-1.294 0.324-1.69-0.108-1.043-1.151 0.719-1.079 1.007-1.079 1.51 0.036zM28.153 22.724c-0.216 0.431-1.474 0.36-1.726-0.072-0.144-0.216 0.036-0.827 0.395-1.366l0.647-0.971 0.431 1.079c0.252 0.611 0.36 1.187 0.252 1.33zM22.867 21.429c1.007 0.252 0.755 1.366-0.431 1.906-1.222 0.539-1.222 0.539-1.222-0.863 0-1.294 0.216-1.438 1.654-1.043z" fill="#000000"></path>
<path d="M15.604 26.571c0.575 3.344 0.575 3.308 2.481 4.207 2.301 1.043 5.825 1.151 7.91 0.216 1.187-0.503 1.546-0.971 2.409-3.092 0.611-1.366 1.007-2.553 0.971-2.589-0.072-0.072-1.151 0.324-2.409 0.827-3.344 1.33-7.011 1.366-9.672 0.036l-1.906-0.935 0.216 1.33z" fill="#000000"></path>
</svg>
