<?xml version="1.0" encoding="utf-8"?>
<!DOCTYPE svg PUBLIC "-//W3C//DTD SVG 1.1//EN" "http://www.w3.org/Graphics/SVG/1.1/DTD/svg11.dtd">
<svg version="1.1" xmlns="http://www.w3.org/2000/svg" xmlns:xlink="http://www.w3.org/1999/xlink" width="46" height="32" viewBox="0 0 46 32">
<path d="M0.586 6.175c0.18 3.425 0.451 9.825 0.586 14.242l0.315 8.023 2.073-0.225c1.127-0.135 11.268-0.586 22.49-1.037l20.372-0.766v-26.411h-46.107l0.27 6.175zM36.868 3.561l1.442 0.045v19.696l-5.724 0.27c-3.2 0.18-9.555 0.451-14.152 0.586l-8.428 0.316-0.225-1.758c-0.18-0.946-0.406-5.904-0.586-10.997l-0.27-9.239 13.206 0.541c7.301 0.27 13.927 0.541 14.738 0.541z" fill="#000000"></path>
<path d="M13.837 30.377c-0.135 0.361-0.135 0.766 0 0.901 0.18 0.135 4.913 0.27 10.592 0.27 9.961 0 10.276-0.045 10.276-0.901s-0.316-0.901-10.321-0.901c-8.428 0-10.366 0.135-10.546 0.631z" fill="#000000"></path>
</svg>
