<?xml version="1.0" encoding="utf-8"?>
<!DOCTYPE svg PUBLIC "-//W3C//DTD SVG 1.1//EN" "http://www.w3.org/Graphics/SVG/1.1/DTD/svg11.dtd">
<svg version="1.1" xmlns="http://www.w3.org/2000/svg" xmlns:xlink="http://www.w3.org/1999/xlink" width="37" height="32" viewBox="0 0 37 32">
<path d="M7.467 0.996c-0.889 0.924-1.067 1.351-1.067 2.844 0 1.956-0.32 2.204-2.916 2.204-1.031 0-1.351 0.142-1.351 0.604 0 0.356-0.391 5.76-0.889 12.018s-0.889 11.733-0.889 12.16v0.818h27.022l-0.178-0.818c-0.107-0.427-0.32-1.387-0.462-2.169-0.249-1.209-0.427-1.422-1.991-2.027-2.169-0.818-4.231-2.773-5.476-5.12-1.849-3.556-0.889-9.209 2.098-12.373 1.28-1.316 1.387-1.6 1.209-2.809l-0.249-1.351h-4.089l-0.213-1.636c-0.284-2.738-0.996-3.129-5.582-3.271l-3.911-0.142-1.067 1.067zM15.111 4.089c0 1.067 0 1.067-2.489 1.316-1.351 0.142-2.702 0.178-2.916 0.107-0.498-0.178-0.64-2.027-0.213-2.453 0.142-0.142 1.458-0.178 2.951-0.142l2.667 0.107v1.067z" fill="#000000"></path>
<path d="M25.244 8.711c-1.636 0.747-3.093 2.169-4.018 3.911-1.067 2.027-1.102 6.507-0.036 8.533 0.889 1.742 3.236 3.591 5.191 4.089 3.271 0.889 7.147-0.711 9.316-3.84 1.458-2.098 1.707-5.333 0.569-7.68-1.884-3.947-7.609-6.542-11.022-5.013zM27.378 14.4l1.28 1.244 1.458-1.209c1.031-0.889 1.529-1.138 1.813-0.853s0.071 0.782-0.818 1.884l-1.244 1.493 1.244 1.173c1.173 1.138 1.209 1.244 0.64 1.849-0.604 0.64-0.64 0.64-1.742-0.676l-1.138-1.351-1.387 1.316c-1.316 1.28-1.422 1.316-1.991 0.747s-0.533-0.676 0.676-1.92l1.28-1.316-1.138-1.422c-0.64-0.782-1.031-1.6-0.889-1.813 0.356-0.604 0.569-0.498 1.956 0.853z" fill="#000000"></path>
</svg>
