<?xml version="1.0" encoding="utf-8"?>
<!DOCTYPE svg PUBLIC "-//W3C//DTD SVG 1.1//EN" "http://www.w3.org/Graphics/SVG/1.1/DTD/svg11.dtd">
<svg version="1.1" xmlns="http://www.w3.org/2000/svg" xmlns:xlink="http://www.w3.org/1999/xlink" width="39" height="32" viewBox="0 0 39 32">
<path d="M5.895 0.842c-3.402 1.246-5.659 4.547-5.659 8.219-0.034 1.28 0.236 2.998 0.573 3.975 1.381 4.143 6.467 10.24 12.733 15.293 4.749 3.806 4.244 3.705 7.276 1.482 1.415-1.011 3.099-2.324 3.705-2.897l1.145-1.011-1.684-1.752c-1.92-2.055-2.56-3.672-2.56-6.467 0.034-3.941 1.752-7.276 4.682-9.095 1.448-0.909 1.92-1.011 4.177-1.011 1.92 0 2.964 0.202 4.211 0.775l1.651 0.741-0.202-1.314c-0.539-4.143-3.84-7.074-8.253-7.377-1.853-0.135-2.392-0.034-4.278 0.909-2.257 1.112-3.84 2.829-4.615 4.985-0.236 0.606-0.505 1.112-0.606 1.112-0.135 0-0.539-0.64-0.876-1.448-0.842-1.886-2.627-3.84-4.312-4.682-1.785-0.909-5.255-1.112-7.107-0.438z" fill="#000000"></path>
<path d="M28.16 9.566c-1.617 0.606-3.065 1.987-3.975 3.739-0.943 1.785-1.213 5.625-0.539 7.242 2.055 4.851 7.747 6.467 11.992 3.368 2.695-1.954 3.907-4.952 3.301-8.219-0.741-4.008-6.939-7.512-10.779-6.131zM32.337 14.451v1.684l1.617 0.101c1.448 0.101 1.583 0.168 1.583 0.943 0 0.741-0.168 0.842-1.246 0.943l-1.28 0.101v1.617c0 1.549-0.034 1.651-1.044 1.853-1.92 0.371-1.987 0.337-1.987-1.516v-1.684l-1.482 0.202-1.482 0.236-0.135-1.213c-0.067-0.674-0.067-1.314 0.034-1.381 0.067-0.101 0.775-0.168 1.549-0.168h1.448l-0.168-1.482c-0.202-1.583-0.034-1.752 1.853-1.853 0.674-0.034 0.741 0.101 0.741 1.617z" fill="#000000"></path>
</svg>
