<?xml version="1.0" encoding="utf-8"?>
<!DOCTYPE svg PUBLIC "-//W3C//DTD SVG 1.1//EN" "http://www.w3.org/Graphics/SVG/1.1/DTD/svg11.dtd">
<svg version="1.1" xmlns="http://www.w3.org/2000/svg" xmlns:xlink="http://www.w3.org/1999/xlink" width="43" height="32" viewBox="0 0 43 32">
<path d="M0.716 0.382c0.287 0.239 5.158 3.582 10.89 7.403l10.412 6.925 20.107-13.039-2.818-0.287c-1.528-0.191-8.454-0.43-15.427-0.621-6.973-0.143-15.14-0.43-18.149-0.573-3.63-0.191-5.349-0.143-5.015 0.191z" fill="#000000"></path>
<path d="M0.143 5.063c0.191 1.576 0.573 8.119 0.86 14.615l0.621 11.845h20.203c15.857 0 20.299-0.143 20.442-0.621 0.143-0.334 0.191-6.543 0.143-13.803l-0.143-13.23-9.887 6.4c-5.445 3.534-10.125 6.448-10.412 6.448s-5.349-3.248-11.319-7.212l-10.794-7.212 0.287 2.77z" fill="#000000"></path>
</svg>
