<?xml version="1.0" encoding="utf-8"?>
<!DOCTYPE svg PUBLIC "-//W3C//DTD SVG 1.1//EN" "http://www.w3.org/Graphics/SVG/1.1/DTD/svg11.dtd">
<svg version="1.1" xmlns="http://www.w3.org/2000/svg" xmlns:xlink="http://www.w3.org/1999/xlink" width="32" height="32" viewBox="0 0 32 32">
<path d="M0.231 0.561c-0.132 0.099-0.231 0.858-0.231 1.617v1.419l3.431 0.198 1.913 8.577c1.023 4.718 1.88 9.27 1.88 10.095l0.033 1.518 8.181 0.231c4.487 0.099 9.798 0.297 11.81 0.396 4.091 0.231 3.761 0.396 4.256-2.045l0.198-1.023-6.004-0.198c-3.299-0.132-7.72-0.231-9.831-0.231-4.586 0-5.311-0.165-5.311-1.122 0-0.627 0.726-0.858 9.897-3.002 5.443-1.254 10.062-2.375 10.227-2.474 0.297-0.198 1.188-9.171 0.924-9.402-0.033-0.033-4.025-0.264-8.841-0.462s-10.326-0.462-12.272-0.594l-3.563-0.198v-3.53h-3.233c-1.781 0-3.365 0.099-3.464 0.231z" fill="#000000"></path>
<path d="M6.631 26.194c-0.396 0.429-0.825 1.386-0.924 2.111-0.132 1.089-0.033 1.452 0.792 2.375 1.32 1.452 3.299 1.518 4.718 0.165 2.375-2.276 1.023-5.41-2.342-5.443-1.155 0-1.682 0.165-2.243 0.792z" fill="#000000"></path>
<path d="M24.379 25.831c-1.946 1.485-1.616 4.619 0.594 5.674 2.705 1.287 5.641-1.682 4.52-4.619-0.495-1.254-3.926-1.979-5.113-1.056z" fill="#000000"></path>
</svg>
