<?xml version="1.0" encoding="utf-8"?>
<!DOCTYPE svg PUBLIC "-//W3C//DTD SVG 1.1//EN" "http://www.w3.org/Graphics/SVG/1.1/DTD/svg11.dtd">
<svg version="1.1" xmlns="http://www.w3.org/2000/svg" xmlns:xlink="http://www.w3.org/1999/xlink" width="37" height="32" viewBox="0 0 37 32">
<path d="M0.97 0.97c-1.261 1.261-1.212 2.667 0.048 3.927 1.164 1.164 3.152 0.97 4.218-0.388 2.133-2.812-1.745-6.061-4.267-3.539z" fill="#000000"></path>
<path d="M9.212 0.485c0 0.242 0.242 1.552 0.533 2.958l0.533 2.521 4.945-0.291c2.667-0.194 8.679-0.485 13.285-0.63l8.339-0.339v-4.703h-13.818c-8.388 0-13.818 0.194-13.818 0.485z" fill="#000000"></path>
<path d="M0.679 14.303c-0.679 1.018-0.679 1.455-0.194 2.667 1.067 2.57 4.461 2.376 5.139-0.242 0.776-3.055-3.248-4.994-4.945-2.424z" fill="#000000"></path>
<path d="M9.212 15.467v2.327l5.479 0.291c2.958 0.194 9.067 0.485 13.576 0.63l8.097 0.339v-1.164c0-0.63 0.145-1.988 0.291-3.006l0.339-1.794h-27.782v2.376z" fill="#000000"></path>
<path d="M1.261 27.2c-1.455 1.115-1.6 2.182-0.485 3.733 0.921 1.309 3.103 1.406 4.218 0.194 1.164-1.261 1.018-3.297-0.242-4.17-1.406-1.018-1.939-0.97-3.491 0.242z" fill="#000000"></path>
<path d="M9.212 29.091v2.909h27.685l-0.339-1.067c-0.194-0.63-0.582-1.891-0.921-2.812l-0.582-1.697-12.945-0.145-12.897-0.097v2.909z" fill="#000000"></path>
</svg>
