<?xml version="1.0" encoding="utf-8"?>
<!DOCTYPE svg PUBLIC "-//W3C//DTD SVG 1.1//EN" "http://www.w3.org/Graphics/SVG/1.1/DTD/svg11.dtd">
<svg version="1.1" xmlns="http://www.w3.org/2000/svg" xmlns:xlink="http://www.w3.org/1999/xlink" width="39" height="32" viewBox="0 0 39 32">
<path d="M0.163 3.951c0.294 6.335 0.816 22.367 0.816 25.175v2.547h19.265v-30.629l-2.514-0.196c-1.404-0.098-4.833-0.261-7.608-0.359s-6.204-0.261-7.608-0.359l-2.547-0.196 0.196 4.016z" fill="#000000"></path>
<path d="M27.951 3.788c-0.294 0.261-0.522 0.947-0.522 1.469 0 0.947 0 0.947-1.959 0.947h-1.959v9.469h13.061v-9.796h-1.796c-1.763 0-1.796-0.033-1.796-0.914 0-0.49-0.163-1.078-0.392-1.306-0.588-0.588-4.016-0.49-4.637 0.131zM31.673 5.388c0 0.294-0.294 0.49-0.784 0.49-0.424 0-1.012 0.098-1.306 0.196-0.392 0.131-0.522 0-0.522-0.49 0-0.588 0.196-0.686 1.306-0.686 0.947 0 1.306 0.131 1.306 0.49z" fill="#000000"></path>
<path d="M31.347 16.653c-3.69 0.131-7.184 0.261-7.739 0.294-0.718 0.033-1.078 0.196-1.078 0.522 0 0.424 1.078 0.49 7.837 0.49h7.837v-0.816c0-0.457-0.033-0.784-0.065-0.751-0.065 0.033-3.102 0.163-6.792 0.261z" fill="#000000"></path>
<path d="M20.898 24.98v6.367h17.959v-2.873c0-1.6 0.098-4.473 0.229-6.367l0.196-3.494h-18.384v6.367z" fill="#000000"></path>
</svg>
