<?xml version="1.0" encoding="utf-8"?>
<!DOCTYPE svg PUBLIC "-//W3C//DTD SVG 1.1//EN" "http://www.w3.org/Graphics/SVG/1.1/DTD/svg11.dtd">
<svg version="1.1" xmlns="http://www.w3.org/2000/svg" xmlns:xlink="http://www.w3.org/1999/xlink" width="45" height="32" viewBox="0 0 45 32">
<path d="M0.75 1.15c-0.15 0.35-0.2 7.25-0.15 15.35l0.15 14.75 21.45 0.15c16.85 0.1 21.55 0 21.9-0.5 0.45-0.75 0.55-28.4 0.1-29.6-0.25-0.7-2.65-0.8-21.75-0.8-16.85 0-21.55 0.15-21.7 0.65zM6.4 7.1c-0.15 2.1-0.2 2.15-2 2.3l-1.9 0.15v-4.55h4.050l-0.15 2.1zM42.5 7.25v2.25h-4v-4.5h4v2.25zM27.1 17.55c-0.2 0.2-2.25 1.95-4.6 3.9l-4.25 3.5-0.3-4.6c-0.2-2.55-0.35-6.5-0.4-8.85l-0.050-4.25 5 5c2.75 2.75 4.8 5.1 4.6 5.3zM6.4 16.1c-0.15 2.1-0.2 2.15-2 2.3l-1.9 0.15v-4.55h4.050l-0.15 2.1zM42.5 16.25v2.25h-4v-4.5h4v2.25zM6.5 25v2h-4v-4h4v2zM42.5 25v2h-4v-4h4v2z" fill="#000000"></path>
</svg>
