<?xml version="1.0" encoding="utf-8"?>
<!DOCTYPE svg PUBLIC "-//W3C//DTD SVG 1.1//EN" "http://www.w3.org/Graphics/SVG/1.1/DTD/svg11.dtd">
<svg version="1.1" xmlns="http://www.w3.org/2000/svg" xmlns:xlink="http://www.w3.org/1999/xlink" width="14" height="32" viewBox="0 0 14 32">
<path d="M5.532 0.769c-1.761 1.116-1.96 3.324-0.422 4.688 0.719 0.62 1.067 0.744 2.109 0.744s1.364-0.124 1.96-0.719c1.29-1.265 1.29-3.25 0-4.54-0.868-0.868-2.431-0.943-3.646-0.174z" fill="#000000"></path>
<path d="M2.778 7.095c-0.298 0.198-0.67 0.595-0.819 0.868-0.198 0.397-1.712 9.352-1.712 10.171 0 0.099 0.719 0.422 1.612 0.719l1.612 0.546v12.602h7.194v-12.602l1.439-0.496 1.414-0.471-0.025-1.091c-0.025-0.992-0.918-7.541-1.216-8.806-0.050-0.273-0.422-0.819-0.769-1.166-0.67-0.67-0.695-0.67-4.415-0.67-3.002 0-3.87 0.074-4.316 0.397z" fill="#000000"></path>
</svg>
