<?xml version="1.0" encoding="utf-8"?>
<!DOCTYPE svg PUBLIC "-//W3C//DTD SVG 1.1//EN" "http://www.w3.org/Graphics/SVG/1.1/DTD/svg11.dtd">
<svg version="1.1" xmlns="http://www.w3.org/2000/svg" xmlns:xlink="http://www.w3.org/1999/xlink" width="32" height="32" viewBox="0 0 32 32">
<path d="M14.459 5.886l-1.936 5.689-6.163-0.277c-5.926-0.237-6.123-0.237-5.333 0.435 5.531 4.583 8.059 7.032 7.901 7.585-0.395 1.264-2.923 12.089-2.844 12.168 0.040 0.040 2.37-1.857 5.175-4.188l5.096-4.267 4.385 3.16c2.37 1.738 4.543 3.319 4.78 3.477 0.237 0.198-0.040-1.936-0.672-4.859-0.632-2.884-1.146-5.452-1.146-5.689s1.857-2.015 4.109-3.951l4.109-3.516-11.97-0.237-1.817-5.61-1.778-5.61-1.896 5.689z" fill="#000000"></path>
</svg>
