<?xml version="1.0" encoding="utf-8"?>
<!DOCTYPE svg PUBLIC "-//W3C//DTD SVG 1.1//EN" "http://www.w3.org/Graphics/SVG/1.1/DTD/svg11.dtd">
<svg version="1.1" xmlns="http://www.w3.org/2000/svg" xmlns:xlink="http://www.w3.org/1999/xlink" width="56" height="32" viewBox="0 0 56 32">
<path d="M21.132 1.328c-6.219 2.174-13.826 7.185-18.898 12.438l-2.294 2.355 4.045 3.804c8.755 8.151 17.932 12.559 24.936 11.894 4.408-0.362 9.66-2.475 14.913-6.038 5.011-3.321 11.109-8.694 11.109-9.721 0-1.087-8.272-8.030-12.8-10.747-8.211-5.011-14.611-6.219-21.011-3.985zM32.483 7.004c4.408 1.811 7.366 5.736 7.366 9.781 0 2.959-2.596 8.211-4.891 9.781-6.46 4.649-17.872 1.449-19.804-5.615-1.449-5.132 1.208-10.566 6.521-13.283 3.804-1.872 7.366-2.113 10.808-0.664z" fill="#000000"></path>
<path d="M25.057 13.404c-4.589 2.657-3.14 8.332 2.113 8.332 3.079 0 4.83-1.63 4.83-4.468 0-3.502-3.864-5.615-6.943-3.864z" fill="#000000"></path>
</svg>
