<?xml version="1.0" encoding="utf-8"?>
<!DOCTYPE svg PUBLIC "-//W3C//DTD SVG 1.1//EN" "http://www.w3.org/Graphics/SVG/1.1/DTD/svg11.dtd">
<svg version="1.1" xmlns="http://www.w3.org/2000/svg" xmlns:xlink="http://www.w3.org/1999/xlink" width="25" height="32" viewBox="0 0 25 32">
<path d="M5.926 1.146c-2.133 1.106-2.844 2.686-3.081 6.795l-0.198 3.516h-1.106c-1.106 0-1.146 0.079-1.146 1.857 0 1.896 0.83 18.41 0.948 18.568 0.040 0.040 5.136-0.198 11.299-0.474 6.202-0.316 11.496-0.593 11.773-0.593 0.356 0 0.474-2.212 0.474-9.679v-9.679h-1.146c-1.106 0-1.106 0-1.343-3.2-0.316-3.793-1.146-5.728-3.002-6.953-1.225-0.83-1.778-0.909-6.716-0.909-4.504 0-5.61 0.119-6.756 0.751zM17.659 3.358c0.948 0.672 1.699 3.319 1.699 6.084v2.015h-13.432v-2.291c0-2.963 0.593-5.057 1.699-5.807 1.185-0.83 8.81-0.83 10.035 0zM15.131 19.635c1.106 1.027 0.909 3.437-0.356 4.425-1.501 1.185-3.161 1.067-4.543-0.316-0.632-0.632-1.146-1.462-1.146-1.817 0-2.686 3.951-4.148 6.044-2.291z" fill="#000000"></path>
</svg>
