<?xml version="1.0" encoding="utf-8"?>
<!DOCTYPE svg PUBLIC "-//W3C//DTD SVG 1.1//EN" "http://www.w3.org/Graphics/SVG/1.1/DTD/svg11.dtd">
<svg version="1.1" xmlns="http://www.w3.org/2000/svg" xmlns:xlink="http://www.w3.org/1999/xlink" width="26" height="32" viewBox="0 0 26 32">
<path d="M1.936 0.856c-0.143 0.917-1.732 14.125-1.732 14.532 0 0.265 1.345 0.306 12.025 0.306 11.006 0 12.025-0.020 12.025-0.326 0-0.408 1.59-13.799 1.732-14.614l0.102-0.55h-24.031l-0.122 0.652z" fill="#000000"></path>
<path d="M0.204 16.489c0 0.265 1.386 13.35 1.549 14.553l0.122 0.958h24.031l-0.122-0.876c-0.143-1.141-1.529-14.186-1.529-14.532 0-0.245-1.997-0.285-12.025-0.285-7.338 0-12.025 0.082-12.025 0.183zM3.975 18.67c0.489 0.51 0.306 1.162-0.448 1.508-0.367 0.163-0.673 0.428-0.673 0.55 0 0.143-0.183 0.265-0.408 0.265-0.367 0-0.408-0.143-0.408-1.182 0-0.652 0.061-1.264 0.143-1.325 0.265-0.265 1.468-0.143 1.794 0.183zM7.093 19.669c0.611 1.243 0.632 1.325 0.245 1.325-0.224 0-0.408-0.082-0.408-0.183s-0.306-0.224-0.652-0.306c-0.489-0.102-0.734-0.041-0.917 0.204-0.122 0.183-0.367 0.285-0.53 0.245-0.224-0.041-0.163-0.326 0.285-1.345 0.754-1.692 1.121-1.671 1.977 0.061zM9.661 18.466c0.469 0.183 0.183 0.489-0.448 0.51-0.51 0-0.53 0.020-0.163 0.245 0.224 0.143 0.571 0.408 0.775 0.611 0.775 0.734-0.347 1.488-1.549 1.040-0.53-0.204-0.143-0.632 0.489-0.53 0.795 0.122 0.775-0.020-0.102-0.55-0.795-0.469-0.856-0.652-0.387-1.121 0.326-0.346 0.836-0.408 1.386-0.204zM12.189 18.69c0.041 0.163-0.122 0.265-0.448 0.265-0.713 0-0.673 0.265 0.082 0.55 0.652 0.245 0.815 0.795 0.367 1.243s-1.855 0.245-1.671-0.245c0.061-0.163 0.326-0.224 0.652-0.183l0.55 0.102-0.652-0.55c-0.713-0.571-0.815-0.897-0.428-1.284 0.326-0.326 1.427-0.245 1.549 0.102zM14.675 18.711c0.591 0.489 0.387 1.223-0.428 1.508-0.326 0.102-0.591 0.326-0.591 0.489s-0.183 0.285-0.408 0.285c-0.367 0-0.408-0.143-0.408-1.325v-1.325h0.693c0.387 0 0.897 0.163 1.141 0.367zM17.631 18.854c0.611 0.591 0.632 0.917 0.082 1.61-0.795 0.999-2.425 0.53-2.425-0.734s1.427-1.814 2.344-0.876zM20.403 18.772c0.367 0.367 0.387 0.469 0.122 0.856-0.245 0.387-0.245 0.51 0.020 0.917s0.265 0.448-0.143 0.448c-0.224 0-0.53-0.183-0.673-0.408s-0.326-0.408-0.408-0.408c-0.102 0-0.163 0.183-0.163 0.408 0 0.265-0.143 0.408-0.408 0.408-0.367 0-0.408-0.143-0.408-1.182 0-0.652 0.061-1.264 0.143-1.325 0.285-0.306 1.508-0.122 1.916 0.285zM23.195 18.69c0.041 0.163-0.102 0.265-0.346 0.265-0.367 0-0.428 0.122-0.428 1.019 0 0.775-0.082 1.019-0.306 1.019s-0.306-0.245-0.306-1.019c0-0.876-0.061-1.019-0.408-1.019-0.224 0-0.408-0.143-0.408-0.326 0-0.245 0.204-0.285 1.060-0.245 0.611 0.041 1.080 0.163 1.141 0.306zM9.254 22.869c0.163 0.693 0.734 6.482 0.734 7.256v0.652l-3.506-0.041-3.526-0.061-0.408-4.036c-0.224-2.222-0.387-4.076-0.326-4.138 0.041-0.041 1.631-0.082 3.506-0.082 3.404 0 3.445 0 3.526 0.448zM22.624 23.847c0 0.408-0.143 0.408-5.605 0.408s-5.605 0-5.605-0.408c0-0.408 0.143-0.408 5.605-0.408s5.605 0 5.605 0.408zM22.828 26.089c0 0.408-0.143 0.408-5.605 0.408s-5.605 0-5.605-0.408c0-0.408 0.143-0.408 5.605-0.408s5.605 0 5.605 0.408zM16.306 28.433v0.51h-4.28v-1.019h4.28v0.51z" fill="#000000"></path>
<path d="M2.853 19.363c0 0.448 0.143 0.51 0.591 0.224 0.326-0.204 0.122-0.632-0.306-0.632-0.163 0-0.285 0.183-0.285 0.408z" fill="#000000"></path>
<path d="M5.829 19.465c-0.163 0.448-0.061 0.571 0.387 0.469 0.285-0.061 0.285-0.102 0.041-0.448-0.265-0.367-0.285-0.367-0.428-0.020z" fill="#000000"></path>
<path d="M13.656 19.383c0 0.489 0.469 0.428 0.571-0.082 0.041-0.204-0.061-0.346-0.245-0.346-0.204 0-0.326 0.183-0.326 0.428z" fill="#000000"></path>
<path d="M16.082 19.282c-0.347 0.428 0 0.999 0.652 0.999 0.367 0 0.51-0.122 0.55-0.489 0.122-0.775-0.693-1.121-1.203-0.51z" fill="#000000"></path>
<path d="M19.159 19.261c0 0.204 0.143 0.306 0.346 0.265 0.183-0.041 0.346-0.163 0.346-0.265 0-0.122-0.163-0.224-0.346-0.265-0.204-0.041-0.346 0.061-0.346 0.265z" fill="#000000"></path>
<path d="M4.81 24.479c-0.958 0.754-0.632 2.222 0.632 2.752 1.855 0.775 3.139-1.162 1.712-2.589-0.713-0.713-1.569-0.775-2.344-0.163z" fill="#000000"></path>
<path d="M3.873 28.311c-0.102 0.224-0.204 0.734-0.204 1.162v0.754l2.181-0.122c1.182-0.082 2.466-0.143 2.853-0.143 0.55 0 0.673-0.082 0.673-0.428 0-0.469-0.367-1.223-0.693-1.447-0.122-0.082-1.203-0.163-2.405-0.163-1.957 0-2.201 0.041-2.405 0.387z" fill="#000000"></path>
</svg>
