<?xml version="1.0" encoding="utf-8"?>
<!DOCTYPE svg PUBLIC "-//W3C//DTD SVG 1.1//EN" "http://www.w3.org/Graphics/SVG/1.1/DTD/svg11.dtd">
<svg version="1.1" xmlns="http://www.w3.org/2000/svg" xmlns:xlink="http://www.w3.org/1999/xlink" width="50" height="32" viewBox="0 0 50 32">
<path d="M2.156 0.674c-0.371 0.135-0.943 0.674-1.246 1.145-0.505 0.775-0.573 2.257-0.573 14.248 0 14.888-0.067 14.518 2.223 15.461 1.684 0.707 43.419 0.707 45.103 0 2.156-0.909 2.189-1.044 2.189-15.731v-13.171l-2.291-2.291-22.333 0.034c-12.295 0-22.669 0.135-23.074 0.303zM18.189 16.168v8.421h-14.147v-16.842h14.147v8.421zM27.284 16.168v8.455l-4.547-0.202-0.101-8.354-0.067-8.32h4.716v8.421zM40.084 8.118c2.088 0.438 4.244 2.021 5.187 3.84 1.011 1.886 0.977 5.861-0.034 7.747-1.819 3.402-4.278 4.547-10.274 4.817l-4.312 0.168v-16.943h3.874c2.088 0 4.615 0.168 5.558 0.371z" fill="#000000"></path>
<path d="M9.937 11.251c-2.493 1.112-3.166 3.739-1.415 5.491 0.775 0.775 1.213 0.943 2.627 0.943 1.448 0 1.819-0.135 2.526-0.943 1.482-1.718 0.943-4.547-1.112-5.592-0.909-0.472-1.381-0.438-2.627 0.101z" fill="#000000"></path>
<path d="M6.568 19.267c-0.606 0.539-0.909 1.246-1.044 2.358l-0.236 1.617h1.853c1.011 0 3.705-0.101 5.996-0.236l4.109-0.202-0.168-1.381c-0.135-0.909-0.505-1.651-1.078-2.122-0.808-0.707-1.213-0.775-4.716-0.775s-3.907 0.067-4.716 0.741z" fill="#000000"></path>
<path d="M35.368 16.168v4.379h1.179c2.796 0 4.884-1.92 4.884-4.48 0-2.695-1.684-4.278-4.547-4.278h-1.516v4.379z" fill="#000000"></path>
</svg>
