<?xml version="1.0" encoding="utf-8"?>
<!DOCTYPE svg PUBLIC "-//W3C//DTD SVG 1.1//EN" "http://www.w3.org/Graphics/SVG/1.1/DTD/svg11.dtd">
<svg version="1.1" xmlns="http://www.w3.org/2000/svg" xmlns:xlink="http://www.w3.org/1999/xlink" width="1024" height="1024" viewBox="0 0 1024 1024"><g id="icomoon-ignore">
</g>
<path d="M456.032 788.108c102.425 0 180.384-72.171 180.384-174.575 0-102.425-84.368-201.88-185.435-185.435-93.455 15.211-185.443 83.010-185.443 185.435 0 102.403 88.090 174.575 190.493 174.575z"></path>
<path d="M655.25 796.063l-401.358 23.137c-112.826 0-211.47 81.098-211.47 193.909l817.117-12.788c0-112.782-91.462-204.259-204.288-204.259z"></path>
<path d="M973.379 447.060h-98.907l-5.525-108.337-84.528 5.518 5.518 102.819h-98.907l5.525 84.536 93.382-11.050 5.525 106.571 95.579-11.021-5.525-101.068 87.864-11.065v-56.902z"></path>
</svg>
