<?xml version="1.0" encoding="utf-8"?>
<!-- Generated by IcoMoon.io -->
<!DOCTYPE svg PUBLIC "-//W3C//DTD SVG 1.1//EN" "http://www.w3.org/Graphics/SVG/1.1/DTD/svg11.dtd">
<svg version="1.1" xmlns="http://www.w3.org/2000/svg" xmlns:xlink="http://www.w3.org/1999/xlink" width="735" height="500" viewBox="0 0 735 500">
<path fill="#000000" d="M338.501 454.668c-11.187-11.187-13.106-29.894-4-39 9.257-9.257 32.892-7.108 44 4 12.946 12.946 12.605 17.85-2.273 32.727-14.888 14.888-24.531 15.469-37.727 2.273zM589.613 456.884c-12.243-8.575-15.058-31.271-5.113-41.216 7.371-7.371 26.353-7.769 39.329-0.824 19.731 10.56 5.681 49.824-17.829 49.824-2.901 0-10.275-3.502-16.387-7.784zM77.288 451.815l-13.713-7.428 14.649-26.109c8.057-14.36 24.531-44.676 36.609-67.369l21.961-41.259 31.121 43.334-34.678 52.083c-19.073 28.646-36.378 52.554-38.456 53.13s-9.949-2.295-17.492-6.381zM194.075 377.388c-25.442-45.254-48.737-90.816-51.766-101.25-8.146-28.058-7.643-123.325 0.704-133.382 8.366-10.081 39.596-10.656 53.404-0.984 5.578 3.907 25.435 29.497 44.127 56.867 30.514 44.68 33.372 50.911 27.973 60.998-5.903 11.029-6.551 10.702-35.515-17.96l-29.502-29.194v92.32l35.3 70.466c19.415 38.756 34.603 71.047 33.75 71.756-4.58 3.81-24.007 12.645-27.805 12.645-2.427 0-25.229-37.026-50.671-82.28zM343.501 383.674c0-6.046-7.192-32.937-15.983-59.756-15.285-46.632-16.651-48.829-31.25-50.257-12.564-1.229-15.551-3.973-16.874-15.503l-1.607-14.010 29.107 1.51c28.287 1.468 29.149 1.933 30.596 16.51 0.819 8.25 8.317 35.813 16.662 61.25l15.173 46.25h149.588c87.509 0 149.588 1.905 149.588 4.591 0 20.57 1.307 20.409-165.535 20.409h-159.465v-10.993zM393.501 297.168v-57.5h25c23.137 0 25-0.905 25-12.143 0-17.13 12.779-27.857 33.186-27.857 24.003 0 36.814 7.891 36.814 22.676 0 11.273 1.919 12.324 22.5 12.324h22.5v120h-165v-57.5zM493.501 227.168c0-5.238-5.278-7.5-17.5-7.5s-17.5 2.262-17.5 7.5c0 5.238 5.278 7.5 17.5 7.5s17.5-2.262 17.5-7.5zM571.778 321.115c-5.473-57.95-4.948-61.447 9.223-61.447 10.122 0 12.643-2.616 13.249-13.75l0.749-13.75 2.083 13.75c1.948 12.86 3.679 13.75 26.751 13.75h24.668v42.5c0 23.375 0.563 44.188 1.25 46.25s-15.854 4.401-36.759 5.197l-38.009 1.447-3.206-33.947zM620.466 311.759c1.669-4.35 3.035-14.475 3.035-22.5s2.25-14.591 5-14.591c2.75 0 5-2.25 5-5s-11.25-5-25-5c-13.75 0-25 2.25-25 5s5.492 5 12.205 5c13.307 0 20.994 7.433 12.876 12.45-7.873 4.866-6.271 32.55 1.883 32.55 3.831 0 8.331-3.559 10-7.909zM599.855 226.647c1.662-1.662 5.974-1.839 9.583-0.395 3.989 1.596 2.804 2.781-3.021 3.021-5.271 0.217-8.224-0.965-6.563-2.626zM164.795 121.145c-25.106-4.842-35.505-47.266-16.294-66.477 5.5-5.5 16.401-10 24.225-10 7.875 0 18.265 4.464 23.275 10 4.978 5.5 14.459 10 21.070 10 6.74 0 10.663 2.196 8.93 5-1.7 2.75-7.083 5-11.962 5-6.621 0-8.872 4.002-8.872 15.779 0 14.388-16.408 35.577-25.971 33.54-1.758-0.375-8.239-1.653-14.402-2.842z"></path>
</svg>
