<?xml version="1.0" encoding="utf-8"?>
<!DOCTYPE svg PUBLIC "-//W3C//DTD SVG 1.1//EN" "http://www.w3.org/Graphics/SVG/1.1/DTD/svg11.dtd">
<svg version="1.1" xmlns="http://www.w3.org/2000/svg" xmlns:xlink="http://www.w3.org/1999/xlink" width="33" height="32" viewBox="0 0 33 32">
<path d="M14.641 0.209c-4.434 0.544-8.826 2.824-11.21 5.814-1.129 1.443-2.259 3.66-2.719 5.375-0.795 3.054-0.586 7.467 0.523 10.583 0.837 2.342 1.799 3.848 3.681 5.731 3.305 3.305 7.446 4.685 12.277 4.099 6.776-0.837 12.089-4.183 14.41-9.119 1.129-2.405 1.506-4.413 1.38-7.613-0.146-4.162-0.146-4.183-4.309-9.244-2.259-2.74-3.744-4.392-4.141-4.539-2.091-0.816-7.341-1.401-9.893-1.088zM27.043 9.391c0.774 0.753 1.38 1.443 1.359 1.527-0.084 0.209-7.676 7.906-7.822 7.906-0.063 0-0.084-0.878-0.063-1.945l0.063-1.924-5.731-0.126v-7.278l6.17-0.125 0.063-1.736 0.063-1.757 2.238 2.071c1.234 1.129 2.865 2.656 3.66 3.388zM12.319 15.624l0.021 0.899h6.065v7.529h-5.647v4.078l-3.974-3.974c-2.196-2.175-3.974-4.037-3.974-4.12s1.631-1.652 3.618-3.493l3.597-3.325 0.146 0.753c0.084 0.439 0.146 1.171 0.146 1.652z" fill="#000000"></path>
<path d="M20.79 8.554c-0.356 0.209-0.837 0.627-1.046 0.92-0.23 0.293-0.607 0.544-0.816 0.586-0.544 0.105-0.627 0.523-0.105 0.669 0.544 0.146 0.544 0.774 0 0.774-0.23 0-0.418 0.146-0.418 0.314s0.167 0.314 0.397 0.314c0.209 0 0.565 0.251 0.774 0.565 0.565 0.878 1.129 1.276 2.175 1.527 1.192 0.272 2.175 0.021 2.259-0.586 0.063-0.397 0-0.418-1.046-0.314-0.92 0.084-1.192 0.042-1.673-0.356-0.335-0.251-0.586-0.544-0.586-0.648s0.669-0.188 1.464-0.188c1.171 0 1.464-0.063 1.464-0.314s-0.335-0.314-1.673-0.314c-1.527 0-1.673-0.042-1.673-0.418s0.146-0.418 1.694-0.418c1.255 0 1.673-0.063 1.61-0.272-0.063-0.146-0.648-0.293-1.548-0.356l-1.443-0.105 0.627-0.502c0.544-0.418 0.795-0.46 1.736-0.376 1.046 0.105 1.108 0.084 1.046-0.335-0.063-0.397-0.209-0.46-1.318-0.523-0.941-0.042-1.422 0.042-1.903 0.356z" fill="#000000"></path>
<path d="M10.248 16.837c0 0.167-0.335 0.46-0.732 0.648-0.816 0.376-1.108 1.088-0.816 1.945 0.146 0.397 0.586 0.732 1.61 1.234 1.192 0.565 1.422 0.753 1.359 1.129-0.084 0.607-0.899 0.816-1.82 0.439-0.837-0.314-1.276-0.23-1.276 0.251 0 0.209 0.335 0.481 0.837 0.669 0.648 0.251 0.837 0.439 0.837 0.837 0 0.335 0.126 0.481 0.418 0.481s0.418-0.146 0.418-0.481c0-0.356 0.209-0.586 0.732-0.837 0.962-0.46 1.297-1.171 0.941-2.008-0.23-0.586-0.607-0.837-2.342-1.569-0.565-0.209-0.795-0.439-0.795-0.753 0-0.753 1.443-0.983 2.259-0.356 0.209 0.167 0.335 0.146 0.481-0.084 0.293-0.481 0.23-0.607-0.544-0.941-0.397-0.167-0.732-0.439-0.732-0.607s-0.188-0.314-0.418-0.314c-0.23 0-0.418 0.146-0.418 0.314z" fill="#000000"></path>
</svg>
