<?xml version="1.0" encoding="utf-8"?>
<!DOCTYPE svg PUBLIC "-//W3C//DTD SVG 1.1//EN" "http://www.w3.org/Graphics/SVG/1.1/DTD/svg11.dtd">
<svg version="1.1" xmlns="http://www.w3.org/2000/svg" xmlns:xlink="http://www.w3.org/1999/xlink" width="33" height="32" viewBox="0 0 33 32">
<path d="M23.181 1.153c-1.079 0.409-1.972 0.856-1.972 1.005s0.781 0.819 1.674 1.488c1.563 1.191 1.712 1.228 2.977 0.781 0.707-0.26 1.228-0.67 1.154-0.893-0.112-0.186-0.372-1.005-0.633-1.786-0.521-1.6-0.595-1.6-3.2-0.595z" fill="#000000"></path>
<path d="M15.367 4.167c-1.079 0.409-1.898 0.856-1.823 1.005 0.112 0.149 0.893 0.744 1.786 1.414l1.6 1.154 2.009-0.781 2.047-0.744-1.674-1.414c-0.893-0.781-1.712-1.414-1.823-1.414s-1.079 0.372-2.121 0.781z" fill="#000000"></path>
<path d="M8.744 6.698c-0.409 0.149-1.228 0.484-1.86 0.744l-1.116 0.409 1.488 1.265c1.749 1.488 2.009 1.526 4.428 0.595l1.823-0.67-1.786-1.377c-1.935-1.451-1.898-1.451-2.977-0.967z" fill="#000000"></path>
<path d="M0.893 9.786c-0.781 0.447-0.781 0.447-0.074 2.046 0.595 1.377 0.819 1.563 1.526 1.34 1.526-0.447 3.349-1.265 3.2-1.414-0.819-0.819-3.126-2.456-3.46-2.456-0.223 0.037-0.744 0.223-1.191 0.484z" fill="#000000"></path>
<path d="M26.344 9.935c-0.335 0.074-0.893 0.93-1.228 1.972-0.633 1.898-1.042 2.233-2.828 2.233-1.228 0-1.302-0.149-0.484-2.046l0.558-1.377-1.6 0.26c-2.642 0.409-2.791 0.521-3.572 2.381-0.707 1.712-0.819 1.823-2.344 1.972-0.893 0.112-1.674 0.149-1.749 0.112-0.037-0.037 0.186-0.707 0.484-1.488 0.335-0.744 0.521-1.451 0.409-1.563-0.074-0.112-1.079 0-2.158 0.223-1.898 0.409-2.046 0.521-2.567 2.009-0.521 1.377-0.744 1.6-2.158 1.86-0.893 0.186-1.674 0.223-1.786 0.149-0.074-0.112 0.112-0.707 0.409-1.34 0.819-1.563 0.781-1.637-1.005-1.34-2.902 0.447-2.902 0.447-2.605 2.158 0.112 0.856 0.372 1.637 0.521 1.749 0.186 0.112 0.93 3.126 1.712 6.66 1.116 5.098 1.563 6.549 2.158 6.958 0.633 0.409 2.53 0.186 12.428-1.414 6.437-1.005 12.093-2.009 12.577-2.195 1.451-0.558 1.451-1.898-0.037-8.484-0.744-3.386-1.526-6.251-1.712-6.363s-0.447-0.93-0.595-1.786c-0.223-1.377-0.335-1.563-1.228-1.526-0.521 0.037-1.265 0.112-1.6 0.223z" fill="#000000"></path>
</svg>
