<?xml version="1.0" encoding="utf-8"?>
<!DOCTYPE svg PUBLIC "-//W3C//DTD SVG 1.1//EN" "http://www.w3.org/Graphics/SVG/1.1/DTD/svg11.dtd">
<svg version="1.1" xmlns="http://www.w3.org/2000/svg" xmlns:xlink="http://www.w3.org/1999/xlink" width="49" height="32" viewBox="0 0 49 32">
<path d="M8.548 9.293c0.132 4.91 0.351 9.907 0.482 11.090l0.219 2.192 7.233 4.559c3.989 2.499 7.364 4.427 7.496 4.296s0.088-5.216-0.088-11.266l-0.351-11.003-3.551-2.323c-3.463-2.323-10.652-6.356-11.353-6.4-0.175 0-0.219 3.989-0.088 8.855z" fill="#000000"></path>
<path d="M34.849 3.989c-2.674 1.49-5.742 3.332-6.838 4.164l-2.016 1.447-0.263 6.663c-0.175 3.682-0.307 8.504-0.307 10.74v4.077l6.97-4.384 6.97-4.427 0.263-3.112c0.438-5.611 0.658-17.841 0.351-17.841-0.175 0-2.499 1.184-5.129 2.674z" fill="#000000"></path>
<path d="M0.132 5.786c0.132 0.57 1.052 6.049 2.104 12.186 1.271 7.759 2.060 11.353 2.499 11.704s2.104 0.57 4.427 0.57c2.060 0.044 5.26 0.219 7.058 0.438 1.797 0.175 3.332 0.307 3.375 0.263 0.175-0.131-8.504-4.427-10.696-5.304-1.666-0.658-1.885-0.921-2.060-2.542-0.351-2.542-1.578-16.219-1.578-17.359 0-0.833-0.219-0.921-2.674-0.921-2.542 0-2.674 0.044-2.455 0.964z" fill="#000000"></path>
<path d="M44.142 6.005c-0.088 0.219-0.57 4.427-0.964 9.425-0.745 8.504-0.877 9.118-1.71 9.381-1.578 0.482-10.389 4.69-10.17 4.866 0.131 0.131 13.063-1.578 13.282-1.797 0.088-0.088 4.077-21.085 4.077-21.655s-4.164-0.789-4.515-0.219z" fill="#000000"></path>
</svg>
