<?xml version="1.0" encoding="utf-8"?>
<!DOCTYPE svg PUBLIC "-//W3C//DTD SVG 1.1//EN" "http://www.w3.org/Graphics/SVG/1.1/DTD/svg11.dtd">
<svg version="1.1" xmlns="http://www.w3.org/2000/svg" xmlns:xlink="http://www.w3.org/1999/xlink" width="77" height="32" viewBox="0 0 77 32">
<path d="M44.718 2.051l-8.205 1.969-7.138-1.559c-9.6-2.133-16.903-2.051-23.631 0.246-5.087 1.805-5.333 2.051-5.58 4.677-0.738 7.795 3.692 19.2 8.697 22.318 5.99 3.692 18.544 1.477 23.22-4.020 2.708-3.2 5.251-4.595 7.385-3.938 0.903 0.328 3.692 2.38 6.236 4.595 8.369 7.303 16.903 7.549 22.81 0.656 3.2-3.774 7.138-12.39 7.549-16.656 0.492-4.267-0.82-5.497-8.369-7.795-8.369-2.626-13.785-2.708-22.974-0.492zM26.338 12.636c5.744 5.005 4.677 7.959-3.2 8.533-6.892 0.492-11.651-2.297-11.651-6.81 0-1.805 4.513-3.61 9.026-3.61 2.708 0 4.267 0.492 5.826 1.887zM61.538 12.8c3.774 1.559 4.185 3.282 1.395 6.482-2.872 3.446-11.651 3.856-15.672 0.82-1.559-1.231-1.559-1.313 1.149-4.103 2.544-2.626 5.744-4.185 8.779-4.431 0.574-0.082 2.544 0.492 4.349 1.231z" fill="#000000"></path>
</svg>
