<?xml version="1.0" encoding="utf-8"?>
<!-- Generated by IcoMoon.io -->
<!DOCTYPE svg PUBLIC "-//W3C//DTD SVG 1.1//EN" "http://www.w3.org/Graphics/SVG/1.1/DTD/svg11.dtd">
<svg version="1.1" xmlns="http://www.w3.org/2000/svg" xmlns:xlink="http://www.w3.org/1999/xlink" width="656" height="500" viewBox="0 0 656 500">
<path fill="#000000" d="M352.235 402.4c-1.706-51.089-2.449-141.135-1.651-200.101l1.45-107.211 36.697 27.155c20.184 14.935 38.893 28.488 41.575 30.118s42.501-7.959 88.485-21.308l83.607-24.271-2.683 37.144c-1.476 20.429-5.61 89.602-9.187 153.717s-8.129 118.018-10.114 119.784c-2.975 2.645-219.012 77.863-223.635 77.863-0.793 0-2.838-41.8-4.544-92.89zM453.247 311.105c12.673-11.343 14.913-10.702 12.2 3.49-2.064 10.8-1.388 11.485 6.943 7.026 5.077-2.717 13.833-14.811 19.458-26.875 6.105-13.095 22.974-33.953 41.858-51.758 23.607-22.258 31.631-32.897 31.631-41.94 0-12.936-7.086-17.686-26.385-17.686-9.123 0-23.255 11.842-61.019 51.133-43.098 44.84-50.482 50.715-60 47.736-42.541-13.313-50.566-5.388-28.771 28.408l15.521 24.066 19.547-7.562c10.751-4.159 23.809-11.376 29.017-16.039zM213.305 436.706l-115.792-53.802-0.066-231.651h11.1c6.105 0 40.219 4.255 75.809 9.457l64.708 9.457 41.405-35.833c22.772-19.708 43.687-36.63 46.477-37.604 3.587-1.252 4.188 8.689 2.053 33.949-1.661 19.646-3.020 108.688-3.020 197.872s-1.548 162.108-3.44 162.055c-1.892-0.054-55.547-24.308-119.233-53.899zM123.544 141.884c-57.55-7.143-106.917-13.748-109.704-14.677s15.764-15.781 41.225-33.004l46.292-31.315 109.283 8.179c60.106 4.499 111.981 9.563 115.279 11.254 8.158 4.185-76.040 73.685-88.479 73.034-5.093-0.267-56.347-6.329-113.896-13.472zM391.403 113.478c-21.237-15.525-36.718-28.798-34.404-29.496 11.434-3.447 220.592-47.378 225.638-47.392 5.781-0.016 66.891 45.836 64.315 48.257-1.848 1.738-210.082 57.276-213.879 57.044-1.682-0.103-20.433-12.889-41.67-28.414zM217.927 64.333c-48.529-4.26-89.246-8.757-90.48-9.992s43.175-12.968 98.689-26.073l100.935-23.827 116.839 12.439c64.262 6.842 116.839 13.656 116.839 15.144 0 4.896-208.201 41.57-231.651 40.804-12.615-0.412-62.642-4.234-111.171-8.495z"></path>
</svg>
