<?xml version="1.0" encoding="utf-8"?>
<!DOCTYPE svg PUBLIC "-//W3C//DTD SVG 1.1//EN" "http://www.w3.org/Graphics/SVG/1.1/DTD/svg11.dtd">
<svg version="1.1" xmlns="http://www.w3.org/2000/svg" xmlns:xlink="http://www.w3.org/1999/xlink" width="19" height="32" viewBox="0 0 19 32">
<path d="M0 15.297v15.297l0.774 0.141c0.457 0.105 3.727 0.352 7.314 0.563s7.244 0.457 8.123 0.563l1.653 0.211 0.211-5.767c0.105-3.165 0.246-10.374 0.352-16.035l0.141-10.268h-18.567v15.297zM16.774 2.251c0.211 0.211-0.563 24.545-0.774 24.756-0.105 0.141-9.881-0.809-12.73-1.196l-1.512-0.211v-23.947l7.42 0.176c4.044 0.105 7.49 0.316 7.596 0.422zM10.725 27.921c0.985 1.512-0.633 3.2-2.215 2.356-1.020-0.527-1.196-1.723-0.387-2.532 0.914-0.914 1.934-0.844 2.602 0.176z" fill="#000000"></path>
</svg>
