<?xml version="1.0" encoding="utf-8"?>
<!DOCTYPE svg PUBLIC "-//W3C//DTD SVG 1.1//EN" "http://www.w3.org/Graphics/SVG/1.1/DTD/svg11.dtd">
<svg version="1.1" xmlns="http://www.w3.org/2000/svg" xmlns:xlink="http://www.w3.org/1999/xlink" width="35" height="32" viewBox="0 0 35 32">
<path d="M17.318 0.314c-0.376 0.157-0.847 0.69-1.067 1.161-0.188 0.471-1.631 2.165-3.169 3.765l-2.824 2.855-4.957-0.157-4.988-0.188v1.067c0 0.596 0.282 5.929 0.627 11.89s0.627 10.949 0.627 11.106c0 0.22 33.224-0.031 33.474-0.251 0.031-0.031 0.094-5.145 0.157-11.388l0.094-11.325-8.314-0.251-3.263-3.231c-1.82-1.82-3.357-3.576-3.451-3.953s-0.533-0.847-0.973-1.035c-0.941-0.439-1.004-0.439-1.976-0.063zM21.678 8.408c-0.973 0.031-3.231-0.031-5.051-0.157l-3.294-0.251 2.478-2.573 2.447-2.604 2.604 2.761 2.604 2.729-1.788 0.094zM17.255 10.51c7.686 0.251 14.337 0.471 14.839 0.471h0.847v18.416l-14.463 0.22c-7.937 0.157-14.525 0.157-14.651 0.063-0.094-0.125-0.345-3.42-0.565-7.341s-0.471-8.282-0.565-9.726c-0.126-1.882-0.063-2.573 0.22-2.573 0.22 0 6.651 0.22 14.337 0.471z" fill="#000000"></path>
<path d="M24.408 13.051c-1.067 0.565-1.506 1.349-1.506 2.729 0 1.631 1.192 2.729 2.886 2.729 1.443-0.031 2.133-0.376 2.698-1.474 0.784-1.443 0.125-3.451-1.349-4.11-1.067-0.471-1.694-0.471-2.729 0.126z" fill="#000000"></path>
<path d="M8.126 20.8l-3.357 7.906 13.522 0.094c7.404 0.031 13.553 0 13.616-0.063 0.094-0.063-1.349-2.133-3.2-4.58-3.2-4.267-3.357-4.424-4.016-3.984-0.376 0.251-1.412 0.878-2.322 1.443l-1.6 1.004-1.726-1.82c-0.941-1.004-2.949-3.2-4.455-4.894-1.506-1.663-2.855-3.043-2.949-3.043s-1.694 3.576-3.514 7.937z" fill="#000000"></path>
</svg>
