<?xml version="1.0" encoding="utf-8"?>
<!DOCTYPE svg PUBLIC "-//W3C//DTD SVG 1.1//EN" "http://www.w3.org/Graphics/SVG/1.1/DTD/svg11.dtd">
<svg version="1.1" xmlns="http://www.w3.org/2000/svg" xmlns:xlink="http://www.w3.org/1999/xlink" width="49" height="32" viewBox="0 0 49 32">
<path d="M2.333 0.233c-0.267 0.1-0.833 0.5-1.267 0.867l-0.733 0.667v28.533l0.867 0.667c0.867 0.7 1.133 0.7 23.533 0.7h22.633l0.8-0.833 0.833-0.8v-28l-1.6-1.867-22.3-0.067c-12.233-0.033-22.5 0.033-22.767 0.133zM44.167 3.167c0.6 0.633 1.5 1.233 1.967 1.367 1.067 0.267 1.667 1.233 1.333 2.233-0.267 0.9-0.733 1.233-1.7 1.233-0.4 0-1.3 0.4-2 0.867-2.733 1.867-6.433 0.233-6.433-2.833 0-2.233 2.033-4 4.633-4.033 0.867 0 1.367 0.267 2.2 1.167zM11.267 3.167c0.067 0.067 0 1.467-0.1 3.133l-0.267 3.033h-3.8c-3.833 0-3.833 0-3.633-0.767 0.1-0.4 0.2-1.9 0.2-3.333v-2.6l3.767 0.233c2.033 0.133 3.767 0.267 3.833 0.3zM21.533 11.267c4.4 2.267 6.667 8.867 4.5 13.067-1 1.9-2.833 3.867-4.533 4.767-1.067 0.567-1.9 0.733-4.167 0.733-2.433 0-3.1-0.133-4.733-0.933-3.4-1.667-5.933-5.333-5.933-8.567 0-1.967 0.967-4.233 2.467-5.8 3.667-3.767 8.8-5.1 12.4-3.267zM39.667 16.6c0 3.1 0.1 7.467 0.233 9.667l0.2 4.067h-1.967l0.133-3.533c0.133-2.9 0.067-3.567-0.4-3.9-2.067-1.567-1.967-8.833 0.167-11.1 1.5-1.6 1.633-1.233 1.633 4.8zM32.133 13.733c0.1 0.967 0.2 2.267 0.2 2.833 0 0.8 0.167 1.1 0.533 1.1 0.5 0 0.533-0.367 0.4-2.833-0.167-2.667-0.167-2.833 0.467-2.833s0.667 0.2 0.533 3.7c-0.1 3.3-0.167 3.767-0.8 4.267-0.767 0.6-0.767 1.467 0 8.767l0.167 1.6h-2.3v-4.9c0-4.567-0.033-4.933-0.733-5.667-0.5-0.533-0.833-1.567-1.133-3.667-0.567-3.667-0.567-3.767 0-3.767 0.6 0 0.867 1.033 0.867 3.4 0 1.7 0.067 1.933 0.667 1.933 0.367 0 0.6-0.167 0.5-0.433-0.067-0.2-0.2-1.5-0.333-2.833-0.167-1.933-0.133-2.4 0.267-2.4 0.333 0 0.533 0.567 0.7 1.733z" fill="#000000"></path>
</svg>
