<?xml version="1.0" encoding="utf-8"?>
<!DOCTYPE svg PUBLIC "-//W3C//DTD SVG 1.1//EN" "http://www.w3.org/Graphics/SVG/1.1/DTD/svg11.dtd">
<svg version="1.1" xmlns="http://www.w3.org/2000/svg" xmlns:xlink="http://www.w3.org/1999/xlink" width="11" height="32" viewBox="0 0 11 32">
<path d="M3.018 0.59c-0.068 0.182 0.045 0.681 0.272 1.089 0.318 0.613 0.363 0.953 0.204 1.861-0.182 0.931-0.136 1.18 0.182 1.498 0.272 0.272 0.409 0.772 0.409 1.475 0 0.613 0.113 3.835 0.227 7.194 0.204 5.583 0.204 6.15-0.136 6.536-0.681 0.726-2.133 0.318-2.133-0.635 0-0.182-0.204-0.318-0.477-0.318-0.431 0-0.454 0.091-0.363 1.089 0.477 3.994 0.477 3.722-0.272 5.356-1.43 3.109-0.658 4.698 2.792 5.696 3.631 1.044 7.217-0.613 6.854-3.177-0.068-0.522-0.431-1.611-0.817-2.451-0.931-1.952-1.044-2.882-0.567-4.698 0.431-1.679 0.499-3.472 0.136-4.38-0.409-1.021-0.862-0.749-1.157 0.658-0.272 1.294-0.862 2.133-1.475 2.133-0.204 0-0.409-0.136-0.454-0.272-0.068-0.159-0.25-3.2-0.431-6.763-0.295-6.173-0.295-6.491 0.113-7.194 0.363-0.658 0.386-0.749 0.068-0.749-0.25 0-0.295-0.136-0.204-0.454 0.091-0.272 0.045-0.454-0.113-0.454s-0.227-0.136-0.159-0.318c0.068-0.182-0.023-0.386-0.227-0.454-0.272-0.113-0.295-0.204-0.068-0.477s0.204-0.34-0.113-0.34c-0.25 0-0.34-0.113-0.25-0.34 0.159-0.408-0.794-1.475-1.316-1.475-0.204 0-0.431 0.159-0.522 0.363z" fill="#000000"></path>
</svg>
