<?xml version="1.0" encoding="iso-8859-1"?>
<!-- Generator: Adobe Illustrator 18.1.1, SVG Export Plug-In . SVG Version: 6.00 Build 0)  -->
<!DOCTYPE svg PUBLIC "-//W3C//DTD SVG 1.1//EN" "http://www.w3.org/Graphics/SVG/1.1/DTD/svg11.dtd">
<svg version="1.1" xmlns="http://www.w3.org/2000/svg" xmlns:xlink="http://www.w3.org/1999/xlink" x="0px" y="0px"
	 viewBox="0 0 272.01 280" style="enable-background:new 0 0 272.01 280;" xml:space="preserve">
<g id="changer-de-vol">
	<path style="fill:#1B2755;" d="M248.112,119.363H171.12l99.363-103.339L253.821,0l-97.013,100.897l-37.262-68.262
		c0,0-10.679-0.178-15.79-0.178c-5.409,0-6.693,0-8.333,1.662c-2.245,2.199-2.245,2.199,1.292,18.516
		c1.747,8.046,12.833,58,14.596,65.888l-72.679,3.771L19.968,94.729H3.505v88.185h16.463l18.664-27.557l62.683,3.252L0,263.978
		L16.665,280l88.134-91.662c-0.532,2.391-6.337,28.625-8.084,36.674c-3.537,16.319-3.537,16.319-1.358,18.446
		c1.707,1.734,2.991,1.734,8.4,1.734c5.111,0,15.79-0.181,15.79-0.181l47.34-86.725h81.226c9.155,0,23.898-12.009,23.898-19.465
		C272.01,131.366,257.268,119.363,248.112,119.363"/>
</g>
<g id="Calque_1">
</g>
</svg>
