<?xml version="1.0" encoding="utf-8"?>
<!DOCTYPE svg PUBLIC "-//W3C//DTD SVG 1.1//EN" "http://www.w3.org/Graphics/SVG/1.1/DTD/svg11.dtd">
<svg version="1.1" xmlns="http://www.w3.org/2000/svg" xmlns:xlink="http://www.w3.org/1999/xlink" width="32" height="32" viewBox="0 0 32 32">
<path d="M11.933 4.773c-5.547 0.467-9.667 4.347-10.293 9.693-0.147 1.16-0.093 3.093 0.107 4.040l0.147 0.707 1.013-0.16 0.093 0.64c0.293 2.013 2.093 4.72 3.987 6.027 5.827 4.013 13.8 1.093 15.56-5.707 0.347-1.293 0.373-3.56 0.067-4.867-0.12-0.507-0.2-0.933-0.187-0.947 0.027-0.027 1.773-0.467 3.893-0.987s3.907-1.013 3.973-1.107c0.213-0.347 0.107-0.907-0.253-1.307l-0.373-0.413-3.6-0.253c-1.973-0.147-3.667-0.267-3.76-0.267s-0.387-0.253-0.667-0.573c-2.96-3.307-6.2-4.827-9.707-4.52zM21.453 15.027c1 3.72-0.413 7.707-3.493 9.8-1.693 1.147-3.213 1.627-5.227 1.613-3.427 0-6.52-1.973-8.013-5.067-0.547-1.173-0.907-2.56-0.68-2.64 0.413-0.147 2.893-0.733 3.080-0.733 0.12 0 0.173 0.080 0.133 0.2-0.107 0.267 0.173 1.053 0.467 1.32 0.347 0.307 1.133 0.413 1.613 0.213 0.733-0.307 1.053-1.453 0.587-2.107-0.16-0.24-0.173-0.307-0.027-0.36 0.093-0.027 2.067-0.52 4.373-1.080s4.707-1.16 5.333-1.333c1.6-0.427 1.693-0.427 1.853 0.173z" fill="#000000"></path>
<path d="M16.267 17.16c-0.533 0.28-0.8 0.72-0.8 1.347 0 0.347 0.12 0.573 0.467 0.92 0.44 0.44 0.52 0.467 1.080 0.4 1.027-0.107 1.547-0.88 1.267-1.84-0.267-0.88-1.173-1.253-2.013-0.827z" fill="#000000"></path>
<path d="M15.453 23.627c-1.32 0.693-2.853 0.787-4.467 0.307-0.227-0.067-0.307 0-0.44 0.32-0.093 0.213-0.133 0.453-0.093 0.52 0.16 0.253 1.693 0.467 2.907 0.4 1.28-0.080 2.253-0.36 3.213-0.947l0.507-0.307-0.28-0.36c-0.347-0.427-0.387-0.427-1.347 0.067z" fill="#000000"></path>
</svg>
