<?xml version="1.0" encoding="utf-8"?>
<!DOCTYPE svg PUBLIC "-//W3C//DTD SVG 1.1//EN" "http://www.w3.org/Graphics/SVG/1.1/DTD/svg11.dtd">
<svg version="1.1" xmlns="http://www.w3.org/2000/svg" xmlns:xlink="http://www.w3.org/1999/xlink" width="32" height="32" viewBox="0 0 32 32">
<path d="M1.088 6c-0.16 0.352-0.128 0.464 0.208 0.848 0.976 1.104 1.648 1.776 1.744 1.712 0.064-0.048 0.72-0.72 1.44-1.52l1.312-1.44h-2.256c-2.256 0-2.256 0-2.448 0.4z" fill="#000000"></path>
<path d="M10.16 7.12c0.768 0.832 1.456 1.488 1.52 1.44s0.72-0.72 1.44-1.52l1.312-1.44h-5.664l1.392 1.52z" fill="#000000"></path>
<path d="M18.72 7.040c0.72 0.8 1.376 1.472 1.44 1.52s0.752-0.608 1.52-1.44l1.392-1.52h-5.664l1.312 1.44z" fill="#000000"></path>
<path d="M27.36 7.040c0.72 0.8 1.376 1.472 1.44 1.52 0.096 0.064 0.624-0.448 1.824-1.776 0.368-0.432 0.416-0.56 0.272-0.848-0.176-0.32-0.32-0.336-2.512-0.336h-2.336l1.312 1.44z" fill="#000000"></path>
<path d="M5.552 7.6c-0.944 1.024-1.712 1.936-1.68 2 0.032 0.080 0.8 0.976 1.728 2l1.68 1.872 0.848-0.944c2.784-3.072 2.656-2.896 2.384-3.28-0.144-0.208-0.928-1.088-1.744-1.952l-1.504-1.584-1.712 1.888z" fill="#000000"></path>
<path d="M14.192 7.584c-0.96 1.024-1.712 1.936-1.68 2.016 0.032 0.064 0.8 0.976 1.728 2l1.68 1.872 0.64-0.72c0.352-0.384 1.136-1.264 1.744-1.936 1.296-1.424 1.376-1.12-0.896-3.52l-1.504-1.584-1.712 1.872z" fill="#000000"></path>
<path d="M22.832 7.584c-0.96 1.024-1.712 1.936-1.68 2.016s0.8 0.992 1.728 2.016l1.68 1.856 0.64-0.72c0.352-0.384 1.136-1.264 1.744-1.936l1.088-1.216-0.4-0.512c-0.224-0.288-1.008-1.168-1.744-1.952l-1.344-1.424-1.712 1.872z" fill="#000000"></path>
<path d="M30.352 8.768c-0.32 0.336-0.592 0.672-0.592 0.752 0.016 0.096 0.304 0.48 0.64 0.88l0.64 0.72v-1.488c0-0.8-0.016-1.472-0.048-1.472s-0.32 0.272-0.64 0.608z" fill="#000000"></path>
<path d="M0.96 9.6v1.328l0.56-0.624c0.304-0.336 0.544-0.704 0.56-0.8 0-0.080-0.256-0.4-0.56-0.704l-0.56-0.544v1.344z" fill="#000000"></path>
<path d="M1.968 11.504l-1.008 1.104v3.408l0.928 1.008c0.496 0.576 0.992 1.024 1.072 1.008 0.192-0.032 3.44-3.536 3.44-3.712 0-0.064-0.56-0.736-1.232-1.488-0.688-0.752-1.456-1.6-1.728-1.888l-0.48-0.544-0.992 1.104z" fill="#000000"></path>
<path d="M9.888 12.304c-0.96 1.056-1.728 1.952-1.728 2.016 0 0.192 3.264 3.68 3.44 3.68s3.44-3.488 3.44-3.68c0-0.112-0.88-1.104-3.184-3.632-0.24-0.256-0.384-0.144-1.968 1.616z" fill="#000000"></path>
<path d="M18.528 12.304c-0.96 1.056-1.728 1.952-1.728 2.016 0 0.176 3.248 3.68 3.44 3.712 0.16 0.032 3.44-3.504 3.44-3.712 0-0.112-0.864-1.104-3.184-3.632-0.24-0.256-0.384-0.144-1.968 1.616z" fill="#000000"></path>
<path d="M27.184 12.272c-0.912 1.008-1.696 1.904-1.712 1.984-0.064 0.176 3.152 3.728 3.408 3.776 0.080 0.016 0.608-0.48 1.168-1.088l0.992-1.136v-1.536l-0.016-1.552-2.176-2.304-1.664 1.856z" fill="#000000"></path>
<path d="M5.6 17.024c-0.928 1.024-1.696 1.92-1.728 2-0.016 0.064 0.736 0.976 1.68 2.016l1.712 1.888 1.344-1.424c0.736-0.784 1.52-1.664 1.744-1.952l0.4-0.512-0.72-0.848c-0.4-0.448-1.184-1.328-1.744-1.936l-1.008-1.104-1.68 1.872z" fill="#000000"></path>
<path d="M14.24 17.024c-0.928 1.008-1.696 1.904-1.728 1.984-0.016 0.064 0.736 0.992 1.68 2.032l1.712 1.888 1.184-1.264c0.64-0.688 1.424-1.568 1.744-1.952l0.56-0.672-0.88-1.008c-0.496-0.544-1.28-1.408-1.744-1.936l-0.848-0.928-1.68 1.856z" fill="#000000"></path>
<path d="M22.832 17.056c-0.944 1.040-1.712 1.952-1.712 2.016 0 0.048 0.768 0.944 1.712 1.984l1.712 1.872 1.184-1.264c0.64-0.688 1.424-1.568 1.744-1.952l0.56-0.672-0.88-1.008c-0.496-0.544-1.28-1.408-1.744-1.936l-0.848-0.944-1.728 1.904z" fill="#000000"></path>
<path d="M30.336 18.32l-0.592 0.72 0.304 0.448c0.176 0.24 0.464 0.576 0.656 0.736l0.336 0.304v-1.456c0-0.816-0.032-1.472-0.064-1.472s-0.32 0.32-0.64 0.72z" fill="#000000"></path>
<path d="M0.976 19.040v1.36l0.544-0.624c0.304-0.352 0.56-0.672 0.56-0.72-0.016-0.048-0.256-0.384-0.56-0.736l-0.56-0.64 0.016 1.36z" fill="#000000"></path>
<path d="M1.952 21.040c-0.816 0.896-0.992 1.184-0.992 1.632 0 1.152 0.032 1.168 2.88 1.168 1.408 0 2.56-0.048 2.56-0.128-0.016-0.064-0.784-0.928-1.728-1.936l-1.728-1.824-0.992 1.088z" fill="#000000"></path>
<path d="M9.872 21.808c-0.944 1.024-1.712 1.904-1.712 1.952s1.552 0.080 3.44 0.080c3.248 0 3.44-0.016 3.296-0.288-0.096-0.144-0.88-1.024-1.744-1.936l-1.568-1.664-1.712 1.856z" fill="#000000"></path>
<path d="M18.512 21.808c-0.944 1.024-1.712 1.904-1.712 1.952s1.552 0.080 3.44 0.080c3.248 0 3.44-0.016 3.296-0.288-0.096-0.144-0.88-1.024-1.744-1.936l-1.568-1.664-1.712 1.856z" fill="#000000"></path>
<path d="M27.12 21.792c-0.88 0.976-1.616 1.84-1.648 1.904-0.032 0.080 1.136 0.144 2.592 0.144 2.448 0 2.656-0.016 2.816-0.304 0.368-0.72 0.192-1.184-0.896-2.384-0.576-0.64-1.104-1.152-1.152-1.136-0.064 0-0.832 0.8-1.712 1.776z" fill="#000000"></path>
<path d="M1.104 25.696c-0.144 0.176-0.16 0.32-0.032 0.512 0.144 0.256 1.328 0.272 14.928 0.272s14.784-0.016 14.928-0.272c0.128-0.192 0.112-0.336-0.032-0.512-0.192-0.224-1.696-0.256-14.896-0.256s-14.704 0.032-14.896 0.256z" fill="#000000"></path>
</svg>
