<?xml version="1.0" encoding="utf-8"?>
<!DOCTYPE svg PUBLIC "-//W3C//DTD SVG 1.1//EN" "http://www.w3.org/Graphics/SVG/1.1/DTD/svg11.dtd">
<svg version="1.1" xmlns="http://www.w3.org/2000/svg" xmlns:xlink="http://www.w3.org/1999/xlink" width="32" height="32" viewBox="0 0 32 32">
<path d="M15.6 3.44c-2.144 0.784-2.4 3.856-0.384 4.88 1.808 0.928 3.776-0.144 3.952-2.144 0.048-0.704 0-0.992-0.304-1.536-0.656-1.168-2-1.664-3.264-1.2z" fill="#000000"></path>
<path d="M20.384 7.024c-0.608 0.368-1.232 1.184-1.488 1.92-0.096 0.32-0.176 1.664-0.176 3.296v2.752l-0.928 1.024c-2 2.224-2.112 2.384-2.112 2.832 0 0.8 0.88 1.44 1.68 1.248 0.224-0.064 1.232-1.024 2.32-2.224l1.92-2.112v-2.672l2.608 1.36 2.592 1.36 0.048 6.656 0.032 6.656h3.84v-8.24c0-9.104 0.016-8.928-1.008-9.776-0.592-0.48-4.912-3.104-6.48-3.92-1.040-0.56-2.112-0.608-2.848-0.16z" fill="#000000"></path>
<path d="M5.472 12.752c-0.752 0.368-1.2 1.072-1.264 2.032-0.080 1.072 0.304 1.808 1.248 2.304 2.128 1.136 4.416-1.040 3.36-3.2-0.592-1.248-2.096-1.76-3.344-1.136z" fill="#000000"></path>
<path d="M11.504 13.664c-0.656 0.704-2.352 3.056-2.672 3.712-0.352 0.736-0.144 1.264 0.656 1.728 0.848 0.48 3.024 1.040 4.576 1.168l1.168 0.096-0.256-0.496c-0.544-1.072-0.256-1.856 1.328-3.6 1.12-1.216 1.136-1.264 1.136-2.112 0-0.48-0.064-0.88-0.128-0.88-0.528 0-2.352 1.808-2.528 2.48-0.080 0.336-0.192 0.4-0.704 0.4-0.32 0-0.816-0.080-1.088-0.176l-0.512-0.176 0.56-0.72c0.656-0.864 0.688-1.152 0.192-1.616-0.544-0.512-1.12-0.448-1.728 0.192z" fill="#000000"></path>
<path d="M1.472 17.312c-0.32 0.32-0.224 0.72 0.256 1.056 0.768 0.544 3.888 2.048 5.536 2.672 3.232 1.2 7.36 2.064 9.456 1.968l1.12-0.048v-0.48c0-0.48-0.016-0.48-1.12-0.608-5.088-0.544-9.808-1.968-13.44-4.048-1.344-0.752-1.52-0.8-1.808-0.512z" fill="#000000"></path>
</svg>
