<?xml version="1.0" encoding="utf-8"?>
<!DOCTYPE svg PUBLIC "-//W3C//DTD SVG 1.1//EN" "http://www.w3.org/Graphics/SVG/1.1/DTD/svg11.dtd">
<svg version="1.1" xmlns="http://www.w3.org/2000/svg" xmlns:xlink="http://www.w3.org/1999/xlink" width="32" height="32" viewBox="0 0 32 32">
<path d="M5.776 6.944c-0.528 0.288-0.8 0.848-0.816 1.632 0 0.832 0.448 1.44 1.28 1.68 1.328 0.4 2.656-0.928 2.256-2.256-0.336-1.104-1.68-1.632-2.72-1.056z" fill="#000000"></path>
<path d="M26.192 7.84c-0.768 0.608-0.864 1.984-0.176 2.736 0.432 0.48 1.248 0.672 1.904 0.464 0.8-0.272 1.2-0.848 1.2-1.776 0-0.64-0.080-0.832-0.496-1.248s-0.608-0.496-1.248-0.496c-0.544 0-0.896 0.096-1.184 0.32z" fill="#000000"></path>
<path d="M23.584 10.624c-0.416 0.304-1.856 2.496-2.4 3.664-0.384 0.816-0.384 0.88-0.384 5.744v4.928h3.2v-7.632l0.976-1.632c0.544-0.896 1.040-1.616 1.12-1.584s1.040 0.544 2.128 1.168l2 1.12 0.016 4.112c0 4.016 0.016 4.128 0.32 4.128 0.32 0 0.32-0.112 0.32-4.352 0-2.928 0.064-4.512 0.192-4.864 0.144-0.416 0.144-0.576-0.032-0.8-0.128-0.144-1.456-1.136-2.944-2.192-2.336-1.664-2.816-1.936-3.44-1.984-0.496-0.048-0.848 0.016-1.072 0.176z" fill="#000000"></path>
<path d="M4.8 10.736c-0.288 0.096-0.88 0.944-2.128 2.992-0.944 1.552-1.712 2.96-1.712 3.104 0 0.496 0.592 0.928 1.264 0.928 0.592 0 0.656-0.048 1.328-1.088l0.688-1.072 0.048 4.672 0.032 4.688h4.8l0.016-1.808c0.016-1.728 0.016-1.76 0.208-1.072 0.704 2.544 2.88 3.824 5.264 3.136 0.576-0.16 1.504-0.256 2.656-0.256h1.776v-3.168c0-3.888 0.096-3.712-2.048-3.712h-1.472v-1.36c0-1.248-0.032-1.408-0.4-1.76-0.32-0.336-0.544-0.4-1.376-0.4-0.88 0-1.024 0.048-1.424 0.48l-0.448 0.48-1.376-2.304c-1.136-1.904-1.456-2.336-1.872-2.48-0.608-0.208-3.264-0.208-3.824 0zM9.92 16.64c0.304 0.528 0.688 1.008 0.864 1.056 0.256 0.080 0.224 0.16-0.272 0.688-0.656 0.672-0.896 1.12-1.168 2.096-0.176 0.656-0.192 0.448-0.208-2.048-0.016-1.504 0.032-2.752 0.112-2.752 0.064 0 0.368 0.432 0.672 0.96z" fill="#000000"></path>
<path d="M12.544 11.008c-0.72 0.576-0.912 1.568-0.48 2.4 0.64 1.232 2.576 1.136 3.264-0.144 0.336-0.624 0.128-1.6-0.448-2.112-0.384-0.336-0.64-0.432-1.248-0.432-0.464 0-0.88 0.112-1.088 0.288z" fill="#000000"></path>
</svg>
