<?xml version="1.0" encoding="utf-8"?>
<!-- Generated by IcoMoon.io -->
<!DOCTYPE svg PUBLIC "-//W3C//DTD SVG 1.1//EN" "http://www.w3.org/Graphics/SVG/1.1/DTD/svg11.dtd">
<svg version="1.1" xmlns="http://www.w3.org/2000/svg" xmlns:xlink="http://www.w3.org/1999/xlink" width="66" height="32" viewBox="0 0 66 32">
<path fill="#444444" d="M17.976 31.892c-1.263-0.272-2.432-0.922-3.381-1.879-0.964-0.972-1.503-1.917-1.836-3.222-0.297-1.16-0.297-2.136 0-3.296 0.324-1.267 0.873-2.241 1.795-3.181l0.785-0.801h-1.82l-3.423 7.143-4.374-0.074c-2.406-0.041-4.393-0.093-4.415-0.115s-0.332-2.543-0.687-5.601c-0.355-3.058-0.662-5.64-0.681-5.738s0.952-3.524 2.157-7.615l2.192-7.437h22.579v8.622l7.378 0.063c11.347 0.097 20.072 0.745 26.815 1.989 1.446 0.267 4.35 1 4.696 1.185 0.194 0.104 0.222 0.266 0.222 1.27-0 2.013-0.329 4.892-0.903 7.907-0.415 2.177-0.282 1.971-1.244 1.931l-0.825-0.035-3.376-6.993-6.663-0.031c-3.789-0.017-6.663 0.014-6.663 0.074 0 0.057-0.72 1.604-1.6 3.436l-1.6 3.331v3.797h-13.155l-3.557-7.111h-2.813l0.785 0.801c0.922 0.941 1.471 1.914 1.795 3.181 1.255 4.907-3.192 9.472-8.181 8.396zM7.623 23.81c0.101-0.244 1.351-3.232 2.779-6.64s2.596-6.248 2.596-6.312c0-0.076-1.698-0.106-4.822-0.086l-4.822 0.031-1.375 4.267 0.413 3.89c0.227 2.14 0.413 4.171 0.413 4.514s0.036 0.659 0.079 0.703c0.043 0.043 1.086 0.079 2.317 0.079h2.238l0.183-0.444zM38.768 18.617c0.24-0.24 0.236-0.51-0.010-0.782-0.18-0.199-0.443-0.217-3.28-0.217-2.703 0-3.11 0.024-3.3 0.196-0.266 0.241-0.278 0.555-0.031 0.803 0.16 0.16 0.628 0.186 3.31 0.186s3.15-0.026 3.31-0.186zM38.768 17.194c0.24-0.24 0.236-0.51-0.010-0.782-0.18-0.199-0.443-0.217-3.28-0.217-2.703 0-3.11 0.024-3.3 0.196-0.266 0.241-0.278 0.555-0.031 0.803 0.16 0.16 0.628 0.186 3.31 0.186s3.15-0.026 3.31-0.186zM38.737 15.762c0.266-0.241 0.278-0.555 0.031-0.803-0.16-0.16-0.628-0.186-3.31-0.186s-3.15 0.026-3.31 0.186c-0.24 0.24-0.236 0.51 0.010 0.782 0.18 0.199 0.443 0.217 3.28 0.217 2.703 0 3.11-0.024 3.3-0.196zM38.737 14.34c0.266-0.241 0.278-0.555 0.031-0.803-0.16-0.16-0.628-0.186-3.31-0.186s-3.15 0.026-3.31 0.186c-0.24 0.24-0.236 0.51 0.010 0.782 0.18 0.199 0.443 0.217 3.28 0.217 2.703 0 3.11-0.024 3.3-0.196zM21.385 8.581c-0.029-0.081-0.449-1.574-0.931-3.317l-0.878-3.169h-13.274l-0.878 3.169c-0.483 1.743-0.902 3.236-0.931 3.317-0.043 0.118 1.697 0.148 8.446 0.148s8.488-0.030 8.446-0.148zM25.799 5.055v-2.963h-1.968c-1.524 0-1.956 0.033-1.915 0.148 0.029 0.081 0.394 1.415 0.809 2.963l0.756 2.815h2.318v-2.963zM51.576 31.909c-1.153-0.267-1.994-0.632-2.86-1.24-1.426-1.002-2.432-2.349-2.97-3.975-0.272-0.823-0.316-1.157-0.316-2.38 0-1.228 0.044-1.555 0.321-2.396 0.768-2.326 2.649-4.203 4.986-4.975 0.823-0.272 1.157-0.316 2.38-0.316s1.556 0.044 2.38 0.316c2.337 0.772 4.218 2.649 4.986 4.975 0.278 0.841 0.321 1.168 0.321 2.396s-0.044 1.555-0.321 2.396c-0.77 2.333-2.672 4.226-4.986 4.964-1.184 0.377-2.871 0.479-3.92 0.236z"></path>
</svg>
