<?xml version="1.0" encoding="utf-8"?>
<!DOCTYPE svg PUBLIC "-//W3C//DTD SVG 1.1//EN" "http://www.w3.org/Graphics/SVG/1.1/DTD/svg11.dtd">
<svg version="1.1" xmlns="http://www.w3.org/2000/svg" xmlns:xlink="http://www.w3.org/1999/xlink" width="77" height="32" viewBox="0 0 77 32">
<path d="M44.718 2.051l-8.205 1.969-7.138-1.559c-9.6-2.133-16.903-2.051-23.631 0.246-5.087 1.805-5.333 2.051-5.58 4.677-0.41 4.349 1.395 12.226 3.774 16.656 2.954 5.579 6.4 7.467 13.374 7.303 6.81-0.082 10.585-1.641 15.59-6.318 2.215-2.051 4.349-3.692 4.841-3.692 1.641 0 4.431 1.805 8.451 5.415 7.713 6.892 16.574 6.974 22.318 0.246 3.2-3.774 7.138-12.39 7.549-16.656 0.492-4.267-0.82-5.497-8.369-7.795-8.369-2.626-13.785-2.708-22.974-0.492zM27.405 14.031c1.723 1.805 2.872 3.774 2.708 4.267-0.903 2.954-10.174 4.103-14.523 1.805-2.544-1.313-4.103-3.528-4.103-5.744 0-1.805 4.513-3.61 9.108-3.692 3.446 0 4.103 0.328 6.81 3.364zM61.538 12.8c3.774 1.559 4.185 3.282 1.395 6.482-2.872 3.446-11.651 3.856-15.672 0.82-1.559-1.231-1.559-1.313 1.149-4.103 2.544-2.626 5.744-4.185 8.779-4.431 0.574-0.082 2.544 0.492 4.349 1.231z" fill="#000000"></path>
</svg>
