<?xml version="1.0" encoding="utf-8"?>
<!-- Generated by IcoMoon.io -->
<!DOCTYPE svg PUBLIC "-//W3C//DTD SVG 1.1//EN" "http://www.w3.org/Graphics/SVG/1.1/DTD/svg11.dtd">
<svg version="1.1" xmlns="http://www.w3.org/2000/svg" xmlns:xlink="http://www.w3.org/1999/xlink" width="55" height="32" viewBox="0 0 55 32">
<path fill="#444444" d="M9.815 31.352c-1.353-0.364-2.733-1.457-3.378-2.675-1.157-2.185-0.771-4.857 0.949-6.577 2.152-2.152 5.668-2.152 7.82 0s2.152 5.668 0 7.82c-0.691 0.691-1.57 1.202-2.474 1.437-0.75 0.195-2.18 0.193-2.917-0.005zM40.683 31.352c-1.353-0.364-2.733-1.457-3.378-2.675-1.157-2.185-0.771-4.857 0.949-6.577 2.152-2.152 5.668-2.152 7.82 0 1.068 1.068 1.595 2.36 1.595 3.91 0 0.457-0.071 1.104-0.158 1.436-0.485 1.863-2.048 3.426-3.911 3.911-0.75 0.195-2.18 0.193-2.917-0.005zM1.722 25.849c-0.465-0.135-1.132-0.755-1.322-1.229-0.272-0.68-0.402-3.631-0.339-7.665 0.079-5.007 0.443-8.251 1.258-11.225 0.46-1.677 0.916-2.544 1.751-3.325 0.983-0.919 1.709-1.231 4.161-1.786l0.977-0.221 45.499-0.064 0.552 0.288c0.448 0.234 0.606 0.392 0.839 0.837l0.286 0.548v22.281l-0.286 0.548c-0.232 0.444-0.391 0.603-0.835 0.835l-0.548 0.287h-5.327v-0.509c0-1.066-0.705-2.673-1.639-3.737-0.54-0.615-1.773-1.377-2.705-1.671-1.701-0.537-3.742-0.281-5.184 0.651-0.916 0.592-1.324 0.988-1.889 1.833-0.583 0.872-1.033 2.145-1.033 2.924v0.509h-18.418v-0.509c0-1.175-0.957-3.173-1.928-4.025-1.268-1.114-2.661-1.648-4.298-1.648s-3.029 0.534-4.298 1.648c-0.971 0.852-1.928 2.85-1.928 4.025v0.509l-1.518-0.009c-0.835-0.005-1.658-0.050-1.83-0.1zM30.186 19.116c-0.062-1.471-0.112-2.965-0.112-3.318 0-0.357-0.045-0.643-0.102-0.643-0.163 0-7.101 2.907-7.099 2.974 0.001 0.034 1.656 1.017 3.678 2.186l3.677 2.125 0.035-0.324c0.019-0.178-0.016-1.528-0.077-3zM3.286 11.399c0.841-1.502 1.127-1.904 1.357-1.904 0.3 0 0.887 0.446 0.924 0.701 0.020 0.137-0.2 0.648-0.54 1.258-0.315 0.565-0.574 1.049-0.574 1.077s1.806 0.050 4.013 0.050c3.876 0 4.020-0.007 4.219-0.206 0.2-0.2 0.206-0.343 0.206-4.928 0-4.495-0.009-4.733-0.197-4.965-0.188-0.233-0.262-0.244-1.76-0.278-1.785-0.040-3.217 0.099-4.589 0.447-1.525 0.387-3.022 1.218-3.519 1.955-0.626 0.927-1.254 4.305-1.254 6.745 0 0.826 0.021 0.924 0.232 1.073 0.127 0.090 0.37 0.151 0.54 0.134 0.277-0.026 0.374-0.146 0.942-1.161zM25.649 12.376c0.2-0.2 0.206-0.343 0.206-4.939 0-5.524 0.077-5.152-1.044-5.082-0.36 0.022-2.738 0.112-5.284 0.199-4.453 0.152-4.637 0.166-4.81 0.371-0.166 0.196-0.18 0.577-0.18 4.729 0 4.379 0.006 4.522 0.206 4.722s0.343 0.206 5.453 0.206 5.253-0.005 5.453-0.206zM38.823 12.372c0.195-0.195 0.206-0.299 0.154-1.518-0.030-0.72-0.084-2.822-0.118-4.673-0.055-2.933-0.084-3.384-0.231-3.515-0.139-0.125-0.872-0.161-4.233-0.213-2.235-0.034-4.558-0.088-5.162-0.12-1.678-0.088-1.526-0.599-1.526 5.103 0 4.596 0.006 4.739 0.206 4.939s0.343 0.206 5.453 0.206c5.14 0 5.252-0.004 5.457-0.209zM51.436 12.318c0.156-0.117 0.38-0.34 0.496-0.496 0.206-0.276 0.212-0.404 0.212-4.385s-0.006-4.109-0.212-4.385c-0.117-0.156-0.34-0.38-0.496-0.496-0.276-0.206-0.421-0.213-4.943-0.241-4.34-0.027-4.674-0.016-4.878 0.154-0.21 0.175-0.228 0.353-0.425 4.299-0.281 5.618-0.28 5.507-0.046 5.678 0.159 0.116 1.068 0.136 5.101 0.113 4.773-0.028 4.916-0.034 5.192-0.241z"></path>
</svg>
