<?xml version="1.0" encoding="utf-8"?>
<!DOCTYPE svg PUBLIC "-//W3C//DTD SVG 1.1//EN" "http://www.w3.org/Graphics/SVG/1.1/DTD/svg11.dtd">
<svg version="1.1" xmlns="http://www.w3.org/2000/svg" xmlns:xlink="http://www.w3.org/1999/xlink" width="32" height="32" viewBox="0 0 32 32">
<path d="M12.867 9.32c-0.253 0.52-0.467 1-0.467 1.080 0 0.24 0.387 0.147 0.533-0.133 0.107-0.2 0.28-0.267 0.733-0.267 0.467 0 0.6 0.053 0.667 0.267 0.080 0.24 0.6 0.4 0.6 0.16 0-0.053-0.227-0.52-0.507-1.027-0.693-1.307-0.933-1.32-1.56-0.080zM13.707 9.573c-0.36 0.067-0.427-0.027-0.24-0.387l0.173-0.293 0.173 0.32c0.147 0.293 0.147 0.32-0.107 0.36z" fill="#000000"></path>
<path d="M15.36 8.56c-0.36 0.36-0.067 0.893 0.613 1.093 0.16 0.053 0.293 0.187 0.293 0.307 0 0.2-0.133 0.2-0.787 0.027-0.107-0.027-0.213 0.053-0.253 0.173-0.027 0.173 0.080 0.253 0.44 0.32 1.147 0.213 1.587-0.693 0.573-1.187-0.627-0.307-0.653-0.533-0.067-0.467 0.307 0.027 0.427-0.013 0.427-0.16 0-0.253-1-0.347-1.24-0.107z" fill="#000000"></path>
<path d="M17.2 9.467c0 0.973 0.027 1.067 0.267 1.067s0.267-0.093 0.267-1.067c0-0.973-0.027-1.067-0.267-1.067s-0.267 0.093-0.267 1.067z" fill="#000000"></path>
<path d="M18.267 9.467v1.067h0.733c0.56 0 0.733-0.040 0.733-0.2 0-0.147-0.147-0.2-0.547-0.2-0.44 0-0.533-0.040-0.493-0.24 0.027-0.147 0.187-0.24 0.48-0.267 0.613-0.067 0.573-0.427-0.040-0.427-0.32 0-0.467-0.067-0.467-0.2 0-0.147 0.147-0.2 0.533-0.2s0.533-0.053 0.533-0.2c0-0.16-0.173-0.2-0.733-0.2h-0.733v1.067z" fill="#000000"></path>
<path d="M14.667 12.453c-1.067 0.293-1.653 0.64-2.533 1.533s-1.32 1.72-1.547 2.867l-0.080 0.48h-4.587c-4.387 0-4.587 0.013-4.72 0.253-0.333 0.627-0.027 1.027 0.893 1.133 0.36 0.040 1.173 0.107 1.827 0.16l1.173 0.080-0.067 0.453c-0.16 0.96 0.373 1.813 1.267 2.067 0.427 0.107 0.613 0.080 1.093-0.133 0.693-0.293 1.013-0.813 1.013-1.6v-0.533l0.84 0.067c0.453 0.040 1.333 0.12 1.96 0.16 0.933 0.080 1.133 0.133 1.173 0.32 0.040 0.213-0.067 0.24-0.76 0.24h-0.8l0.227 0.493c0.6 1.333 2.027 2.733 3.147 3.107 2.453 0.8 4.787-0.040 6.227-2.24 0.36-0.547 0.653-1.080 0.653-1.173 0-0.133-0.2-0.187-0.747-0.187-0.627 0-0.733-0.040-0.693-0.24 0.040-0.187 0.24-0.24 1.173-0.32 0.627-0.040 1.507-0.12 1.973-0.16l0.827-0.093v0.547c0 0.8 0.32 1.307 1.013 1.613 0.48 0.213 0.667 0.24 1.093 0.133 0.893-0.253 1.427-1.107 1.267-2.067l-0.067-0.453 1.173-0.080c1.933-0.147 2.453-0.227 2.653-0.44 0.24-0.24 0.253-0.587 0.040-0.88-0.16-0.2-0.64-0.227-4.773-0.253l-4.587-0.040-0.107-0.6c-0.24-1.427-1.613-3.227-2.933-3.84-1.213-0.56-2.533-0.693-3.707-0.373zM14.2 16.84l1.2 0.16 0.040 0.627c0.027 0.453-0.013 0.64-0.133 0.64-0.28 0-2.693-0.693-2.827-0.813-0.067-0.067-0.133-0.267-0.147-0.453-0.013-0.387 0.027-0.387 1.867-0.16zM19.573 17.093c-0.040 0.413-0.067 0.427-1.373 0.787-0.733 0.213-1.413 0.387-1.507 0.387-0.12 0-0.16-0.173-0.133-0.64l0.040-0.627 1.133-0.147c1.907-0.253 1.893-0.253 1.84 0.24zM7.173 19.36c0.373 0.373 0.093 1.040-0.44 1.040-0.36 0-0.6-0.24-0.6-0.6s0.24-0.6 0.6-0.6c0.16 0 0.347 0.067 0.44 0.16zM25.707 19.36c0.093 0.093 0.16 0.28 0.16 0.44s-0.067 0.347-0.16 0.44c-0.093 0.093-0.28 0.16-0.44 0.16s-0.347-0.067-0.44-0.16c-0.093-0.093-0.16-0.28-0.16-0.44s0.067-0.347 0.16-0.44c0.093-0.093 0.28-0.16 0.44-0.16s0.347 0.067 0.44 0.16z" fill="#000000"></path>
</svg>
