<?xml version="1.0" encoding="utf-8"?>
<!-- Generated by IcoMoon.io -->
<!DOCTYPE svg PUBLIC "-//W3C//DTD SVG 1.1//EN" "http://www.w3.org/Graphics/SVG/1.1/DTD/svg11.dtd">
<svg version="1.1" xmlns="http://www.w3.org/2000/svg" xmlns:xlink="http://www.w3.org/1999/xlink" width="47" height="32" viewBox="0 0 47 32">
<path fill="#444444" d="M24.703 31.776c-0.33-0.154-0.557-0.342-0.736-0.613-0.251-0.379-0.26-0.433-0.29-1.8l-0.031-1.409h-2.19l-0.001-6.736c-0.001-5.43 0.026-6.932 0.135-7.747 0.075-0.556 0.265-2.005 0.422-3.218 0.734-5.668 0.786-5.975 1.108-6.579 0.385-0.722 0.897-1.165 1.998-1.729 2.062-1.056 6.207-1.89 9.394-1.89 3.152 0 7.082 0.779 9.241 1.833 1.248 0.609 1.755 1.037 2.152 1.819 0.34 0.67 0.324 0.571 1.349 8.524l0.314 2.437 0.001 13.287h-2.19l-0.031 1.409c-0.030 1.367-0.039 1.421-0.29 1.8-0.305 0.461-1.013 0.834-1.585 0.836-0.502 0.001-1.229-0.376-1.502-0.78-0.291-0.43-0.369-0.888-0.374-2.184l-0.004-1.080h-14.136l-0.046 1.31c-0.052 1.482-0.145 1.804-0.653 2.249-0.595 0.523-1.303 0.613-2.056 0.263zM26.216 23.582c1.454-0.608 1.496-2.611 0.067-3.27-0.811-0.374-1.762-0.104-2.256 0.641-0.225 0.339-0.273 0.507-0.273 0.952 0 0.597 0.128 0.912 0.521 1.285 0.539 0.512 1.29 0.663 1.941 0.392zM44.215 23.55c0.696-0.322 1.057-0.876 1.057-1.619s-0.362-1.297-1.057-1.619c-1.456-0.674-3.004 0.81-2.386 2.287 0.397 0.95 1.467 1.376 2.386 0.95zM36.911 23.303c0.088-0.106 0.094-0.188 0.024-0.299-0.086-0.136-0.352-0.153-2.421-0.153s-2.335 0.017-2.421 0.153c-0.070 0.111-0.063 0.193 0.024 0.299 0.104 0.126 0.432 0.146 2.397 0.146s2.293-0.020 2.397-0.146zM36.911 22.291c0.088-0.106 0.094-0.188 0.024-0.299-0.086-0.136-0.352-0.153-2.421-0.153s-2.335 0.017-2.421 0.153c-0.070 0.111-0.063 0.193 0.024 0.299 0.104 0.126 0.432 0.146 2.397 0.146s2.293-0.020 2.397-0.146zM36.911 21.28c0.088-0.106 0.094-0.188 0.024-0.299-0.086-0.136-0.352-0.153-2.421-0.153s-2.335 0.017-2.421 0.153c-0.070 0.111-0.063 0.193 0.024 0.299 0.104 0.126 0.432 0.146 2.397 0.146s2.293-0.020 2.397-0.146zM45.004 15.194c0.344-0.385 0.343-0.536-0.010-3-0.889-6.204-0.808-5.783-1.169-6.143-0.204-0.204-0.4-0.285-0.857-0.356-0.891-0.138-17.069-0.073-17.388 0.070-0.344 0.154-0.616 0.472-0.717 0.838-0.048 0.172-0.191 1.044-0.319 1.936s-0.358 2.496-0.511 3.564c-0.393 2.743-0.376 2.977 0.236 3.298 0.235 0.123 1.472 0.137 10.367 0.117l10.099-0.023 0.268-0.3zM0.373 30.874c0.136-0.367 1.74-4.639 3.565-9.494l3.319-8.828h6.423l3.563 9.471c1.96 5.209 3.564 9.482 3.566 9.494s-1.382 0.023-3.074 0.023h-3.076l-0.273-0.897c-0.15-0.493-0.363-1.197-0.473-1.563l-0.199-0.667h-6.659l-0.899 3.126h-6.029l0.247-0.667zM12.444 24.219c0-0.127-1.957-6.431-2.016-6.496-0.054-0.059-2.042 6.281-2.033 6.484 0.004 0.082 4.049 0.094 4.049 0.012z"></path>
</svg>
