<?xml version="1.0" encoding="utf-8"?>
<!DOCTYPE svg PUBLIC "-//W3C//DTD SVG 1.1//EN" "http://www.w3.org/Graphics/SVG/1.1/DTD/svg11.dtd">
<svg version="1.1" xmlns="http://www.w3.org/2000/svg" xmlns:xlink="http://www.w3.org/1999/xlink" width="32" height="32" viewBox="0 0 32 32">
<path d="M13.568 1.424c-1.2 0.384-2.368 1.152-3.184 2.080-0.72 0.784-1.52 2.32-1.68 3.168l-0.096 0.528h-4.608v2.88h12.592l0.416-0.416c1.312-1.296 0.080-3.472-1.664-2.96-0.752 0.224-1.264 0.848-1.264 1.552v0.544h-2.768l0.096-0.864c0.304-2.96 3.584-4.816 6.272-3.552 2.896 1.376 3.44 5.296 1.008 7.36-1.2 1.024-1.392 1.056-8.4 1.056h-6.288v1.44h24.16v-1.44h-8.32l0.64-0.848c0.352-0.448 0.72-1.072 0.816-1.36l0.176-0.512h6.688v-2.88l-2.592-0.032-2.592-0.048-0.128-0.624c-0.336-1.6-1.904-3.616-3.504-4.48-1.68-0.928-4-1.152-5.776-0.592z" fill="#000000"></path>
<path d="M4 24v7.040h24.16v-14.080h-24.16v7.040z" fill="#000000"></path>
</svg>
