<?xml version="1.0" encoding="utf-8"?>
<!DOCTYPE svg PUBLIC "-//W3C//DTD SVG 1.1//EN" "http://www.w3.org/Graphics/SVG/1.1/DTD/svg11.dtd">
<svg version="1.1" xmlns="http://www.w3.org/2000/svg" xmlns:xlink="http://www.w3.org/1999/xlink" width="32" height="32" viewBox="0 0 32 32">
<path d="M12.533 9.467v1.067h0.613c0.333 0 0.72-0.067 0.867-0.133 0.267-0.147 0.347-0.72 0.12-0.867-0.107-0.067-0.093-0.147 0-0.267 0.213-0.267 0.040-0.693-0.307-0.787-0.16-0.040-0.52-0.080-0.787-0.080h-0.507v1.067zM13.6 9.080c0 0.067-0.12 0.12-0.267 0.12-0.253 0-0.347-0.147-0.187-0.307 0.107-0.107 0.453 0.040 0.453 0.187zM13.667 9.72c0.040 0.080-0.040 0.2-0.187 0.28-0.28 0.147-0.493-0.027-0.347-0.267 0.107-0.173 0.427-0.173 0.533-0.013z" fill="#000000"></path>
<path d="M14.533 8.667c0 0.2 0.093 0.267 0.333 0.267 0.413 0 0.413 0.107 0 0.933l-0.333 0.667h0.32c0.267 0 0.387-0.147 0.733-0.88 0.573-1.213 0.56-1.253-0.32-1.253-0.64 0-0.733 0.027-0.733 0.267z" fill="#000000"></path>
<path d="M16.667 9c-0.52 0.747-0.48 1.053 0.107 1.107 0.24 0.027 0.48 0.133 0.52 0.24 0.093 0.24 0.44 0.24 0.44 0 0-0.107 0.080-0.213 0.173-0.253 0.133-0.040 0.133-0.12 0-0.347-0.093-0.147-0.173-0.52-0.173-0.813 0-0.48-0.040-0.533-0.333-0.533-0.227 0-0.44 0.16-0.733 0.6zM17.24 9.467c-0.040 0.147-0.16 0.267-0.253 0.267-0.227 0-0.227-0.067-0.027-0.387s0.373-0.24 0.28 0.12z" fill="#000000"></path>
<path d="M18.267 8.667c0 0.213 0.093 0.267 0.4 0.267 0.227 0 0.4 0.027 0.4 0.053s-0.147 0.32-0.333 0.627c-0.4 0.707-0.413 0.92-0.067 0.92 0.187 0 0.373-0.227 0.667-0.8 0.213-0.44 0.4-0.92 0.4-1.067 0-0.24-0.080-0.267-0.733-0.267-0.64 0-0.733 0.027-0.733 0.267z" fill="#000000"></path>
<path d="M14.533 12.52c-1.827 0.587-3.173 2.027-3.653 3.92l-0.173 0.693-4.493 0.067c-4.267 0.067-4.507 0.080-4.693 0.32-0.24 0.333-0.24 0.387 0.067 0.76 0.227 0.28 0.413 0.32 2.013 0.44l1.76 0.133-0.080 0.507c-0.107 0.627 0.16 1.293 0.653 1.68 0.44 0.347 1.36 0.387 1.92 0.093 0.453-0.227 0.813-0.933 0.813-1.56v-0.44l1.64 0.107c2.027 0.133 2.253 0.173 2.2 0.453-0.027 0.187-0.173 0.227-0.747 0.187-0.693-0.027-0.72-0.027-0.627 0.28 0.32 1.053 1.747 2.573 2.973 3.147 0.653 0.307 0.933 0.36 2.027 0.36s1.373-0.053 2.013-0.347c1.227-0.573 2.347-1.76 2.867-3l0.2-0.493-0.667 0.067c-0.48 0.053-0.72 0.013-0.827-0.12-0.093-0.093-0.12-0.213-0.067-0.267 0.080-0.093 2.28-0.293 3.32-0.307 0.613 0 0.627 0.013 0.627 0.413 0 1.013 0.72 1.72 1.773 1.72 1.067 0 1.787-0.933 1.6-2.053l-0.067-0.44 1.44-0.093c2.053-0.133 2.267-0.173 2.44-0.573 0.12-0.267 0.12-0.4-0.053-0.653l-0.2-0.32h-9.027l-0.093-0.533c-0.12-0.76-0.693-1.893-1.293-2.587-1.387-1.573-3.613-2.2-5.587-1.56zM14.067 16.733c0.733 0.107 1.373 0.2 1.44 0.2 0.053 0 0.093 0.267 0.093 0.6 0 0.733 0.013 0.72-1.747 0.24l-1.32-0.373v-0.427c0-0.24 0.040-0.44 0.107-0.44 0.053 0 0.693 0.093 1.427 0.2zM19.707 16.96c-0.040 0.427-0.067 0.44-1.307 0.8-1.747 0.493-1.733 0.493-1.733-0.227 0-0.333 0.040-0.6 0.107-0.613 0.053 0 0.64-0.080 1.293-0.173 1.8-0.267 1.693-0.28 1.64 0.213zM7.387 19.28c0.253 0.24 0.267 0.373 0.080 0.733-0.173 0.32-0.867 0.347-0.987 0.040-0.293-0.76 0.36-1.32 0.907-0.773zM25.707 19.227c0.093 0.093 0.16 0.28 0.16 0.44s-0.067 0.347-0.16 0.44c-0.36 0.36-1.040 0.093-1.040-0.387 0-0.52 0.693-0.84 1.040-0.493z" fill="#000000"></path>
</svg>
