<?xml version="1.0" encoding="iso-8859-1"?>
<!-- Generator: Adobe Illustrator 18.1.1, SVG Export Plug-In . SVG Version: 6.00 Build 0)  -->
<!DOCTYPE svg PUBLIC "-//W3C//DTD SVG 1.1//EN" "http://www.w3.org/Graphics/SVG/1.1/DTD/svg11.dtd">
<svg version="1.1" xmlns="http://www.w3.org/2000/svg" xmlns:xlink="http://www.w3.org/1999/xlink" x="0px" y="0px"
	 viewBox="0 0 185.68 280" style="enable-background:new 0 0 185.68 280;" xml:space="preserve">
<g id="Calque_1_1_">
	<g>
		<path style="fill:#0B143A;" d="M185.68,148.772l-5.733-9.366l-12.804-1.566l11.569-14.844l-13.308-3.432l-11.616,15.194
			l-7.162-0.519l12.53-19.78l-13.253-0.902l-14.187,18.502l-7.382-1.63l-7.913-15.048l8.152-10.564l19.052,3.763l7.398-10.289
			l-16.824-4.222l5.181-6.956l19.183,2.705l8.382-9.451l-18.292-4.045l5.315-5.132l0.646-11.116l-11.392-1.387l-7.188,8.51
			l-7.736-16.485l-8.467,10.165l6.585,17.059l-7.015,7.096l-6.318-19.196l-8.953,11.192l7.295,17.147l-8.481,10.76l-20.991-3.162
			l-3.971-5.908l10.321-13.551l-6.344-10.169l-9.755,11.816L69.218,78.9l7.684-18.568l-6.421-9.463l-7.969,14.924L57.63,55.439
			l-9.152-1.842l-4.321,8.51l6.54,11.639l-13.372,3.061l5.315,9.679l14.632-1.462l2.106,6.398l-14,2.265l4.959,9.636l17.31,0.309
			l3.697,5.146l-12.985,17.559l-7.122-0.869l-6.176-14.479l-13.039-2.678l5.113,14.352l-8.866-1.447l-5.857-11.192l-9.597-1.171
			l5.052,11.814l-12.417-1.879L0,124.982l3.71,8.043l9.43,2.6l-6.865,8.917l10.023,0.863l9.57-10.393l8.23,0.644l-6.768,11.098
			l10.63,1.663l8.162-10.566l9.56,1.529l8.318,19.105l-6.122,7.477l-22.845-6.118l-7.966,9.636l21.758,6.661l-5.228,7.312
			l-21.814-4.955l-6.809,9.77l20.781,5.821l-13.881,16.328l2.752,7.322l8.847-0.152l12.232-14.558l7.979,13.24l6.793-8.207
			l-7.763-14.85l7.534-8.473l8.405,14.035l6.283-10.07l-7.798-12.028l5.57-6.937l23.403,2.404l2.238,5.334l-6.488,20.521
			l8.845,13.364l6.278-15.851l6.429,9.459l-4.677,14.599l8.563,9.718l8.067-12.748l5.173,7.861l11.478,0.681l0.683-11.476
			l-5.214-4.615l11.505-5.459l-4.512-7.415l-18.502,0.634l-4.87-7.462l20.19-2.583l-8.032-11.104l-18.592,1.334l-5.677-9.718
			l13.479-15.696l8.814,1.797l8.141,16.172l11.427,1.038l-6.048-18.44l7.872,0.597l9.564,16.345l10.449,0.198l-7.024-16.396
			l13.133,1.966L185.68,148.772z M100.696,160.638l-24.597-3.009l-9.696-22.815l14.899-19.795l24.605,3.009l9.7,22.804
			L100.696,160.638z"/>
	</g>
</g>
<g id="Calque_1">
</g>
</svg>
