<?xml version="1.0" encoding="utf-8"?>
<!DOCTYPE svg PUBLIC "-//W3C//DTD SVG 1.1//EN" "http://www.w3.org/Graphics/SVG/1.1/DTD/svg11.dtd">
<svg version="1.1" xmlns="http://www.w3.org/2000/svg" xmlns:xlink="http://www.w3.org/1999/xlink" width="56" height="32" viewBox="0 0 56 32">
<path d="M45.43 0.533c-2.473 0.582-3.297 1.018-14.255 7.903-5.285 3.297-10.958 6.691-12.655 7.515l-3.055 1.551-5.236-1.067c-5.091-1.067-5.236-1.067-7.467-0.194-1.261 0.485-2.279 1.018-2.279 1.212 0 0.145 1.842 2.085 4.073 4.267 2.764 2.715 4.412 3.976 5.188 3.976 0.63 0 3.539-0.533 6.4-1.212 4.364-0.97 7.079-1.939 11.151-4.024 0.194-0.097-0.097 0.824-0.63 2.085s-0.97 2.327-0.97 2.424c0 0.388 4.024-1.212 5.624-2.23 0.873-0.533 2.667-2.376 3.927-4.121 2.133-2.909 2.764-3.345 8.388-6.351 8.582-4.509 10.861-6.061 11.588-7.855 1.164-2.715 0.097-3.588-5.042-4.073-1.6-0.145-3.733-0.048-4.752 0.194z" fill="#000000"></path>
<path d="M9.552 30.836c-0.921 0.97 1.261 1.164 11.588 1.164 9.745 0 11.345-0.097 11.345-0.727s-1.6-0.727-11.297-0.727c-6.255 0-11.491 0.145-11.636 0.291z" fill="#000000"></path>
</svg>
