<?xml version="1.0" encoding="utf-8"?>
<!DOCTYPE svg PUBLIC "-//W3C//DTD SVG 1.1//EN" "http://www.w3.org/Graphics/SVG/1.1/DTD/svg11.dtd">
<svg version="1.1" xmlns="http://www.w3.org/2000/svg" xmlns:xlink="http://www.w3.org/1999/xlink" width="32" height="32" viewBox="0 0 32 32">
<path d="M19.84 4.88v1.2h6.56v-2.4h-6.56v1.2z" fill="#000000"></path>
<path d="M19.872 8.080c0.048 0.816 0.16 1.168 0.528 1.696 0.944 1.328 2.608 1.76 4.128 1.056 1.216-0.544 1.76-1.376 1.84-2.768l0.064-1.024h-6.624l0.064 1.040z" fill="#000000"></path>
<path d="M2.496 7.328c-0.032 0.064-0.24 1.488-0.432 3.152-0.368 3.024-0.368 3.040-0.080 5.92 0.16 1.584 0.32 3.040 0.368 3.232l0.080 0.368h8.176l1.856 1.184c2.24 1.424 2.464 1.536 2.672 1.408 0.096-0.064 1.12-1.344 2.304-2.832 1.168-1.504 2.16-2.752 2.192-2.784 0.016-0.032 0.048 2.32 0.048 5.232v5.312h-18.56v0.96h29.6v-0.96h-4.32v-5.36c0-5.248 0-5.36 0.32-5.36s0.32 0.112 0.32 4.72v4.72h1.056c1.808 0 1.664 0.56 1.664-6.208 0-5.36-0.032-5.936-0.304-6.512-0.688-1.52-1.232-1.664-5.936-1.68h-3.76l-2.8 3.344-2.784 3.344-0.64-0.4c-1.568-0.976-1.472-0.816-1.664-2.8-0.176-1.632-0.16-2.096 0.192-4.848 0.208-1.68 0.336-3.088 0.304-3.168-0.096-0.16-9.76-0.144-9.872 0.016zM11.040 13.76c0 0.096-1.552 0.16-4.32 0.16s-4.32-0.064-4.32-0.16c0-0.096 1.552-0.16 4.32-0.16s4.32 0.064 4.32 0.16zM6.032 15.312c0.032 0.096-0.048 0.208-0.192 0.256-0.16 0.080-0.24 0-0.24-0.224 0-0.336 0.336-0.352 0.432-0.032zM7.072 15.152c-0.16 0.064-0.144 0.128 0.064 0.272 0.208 0.16 0.224 0.24 0.064 0.336-0.128 0.080-0.176 0.064-0.112-0.032s0-0.224-0.144-0.272c-0.272-0.096-0.16-0.416 0.144-0.4 0.128 0 0.128 0.032-0.016 0.096zM7.616 15.184c-0.176 0.272 0.304 0.288 0.512 0.032 0.144-0.16 0.176-0.176 0.096-0.032-0.080 0.16-0.048 0.208 0.112 0.144 0.128-0.048 0.352-0.144 0.496-0.208 0.336-0.128 0.576 0.336 0.32 0.592-0.128 0.128-0.144 0.080-0.080-0.176 0.048-0.192 0.016-0.336-0.096-0.336-0.096 0-0.176 0.080-0.176 0.192 0 0.096-0.048 0.144-0.096 0.080-0.064-0.048-0.32 0.016-0.576 0.144-0.272 0.144-0.512 0.208-0.576 0.16-0.048-0.048 0.016-0.096 0.144-0.096 0.16-0.016 0.144-0.064-0.064-0.176-0.24-0.144-0.256-0.464-0.016-0.464 0.048 0 0.048 0.064 0 0.144zM9.712 15.152c-0.064 0.048 0 0.176 0.144 0.272 0.208 0.16 0.208 0.192-0.080 0.192-0.224 0-0.336-0.112-0.336-0.288 0-0.16 0.080-0.288 0.192-0.288 0.096 0 0.128 0.048 0.080 0.112zM10.448 15.36c-0.048 0.176-0.112 0.32-0.128 0.32s-0.080-0.144-0.128-0.32c-0.048-0.192 0-0.32 0.128-0.32s0.176 0.128 0.128 0.32zM5.2 16.272c0.064 0.608 0.144 1.216 0.176 1.36 0.080 0.256-0.048 0.288-1.12 0.288-1.376 0-1.28 0.112-1.456-1.728l-0.096-0.992h2.384l0.112 1.072zM6.464 15.44c-0.064 0.128-0.128 0.24-0.16 0.24s-0.064-0.112-0.064-0.24c0-0.128 0.064-0.24 0.16-0.24 0.080 0 0.112 0.112 0.064 0.24zM9.12 16.56c-0.144 0.176-0.56 0.24-1.616 0.24-1.152 0-1.424-0.048-1.424-0.24s0.288-0.24 1.616-0.24c1.424 0 1.6 0.032 1.424 0.24zM8.64 17.36c0 0.192-0.256 0.24-1.28 0.24-1.168 0-1.456-0.096-1.168-0.368 0.048-0.064 0.624-0.112 1.28-0.112 0.928 0 1.168 0.048 1.168 0.24zM8.448 18.192c0.048 0.16-0.24 0.208-1.072 0.208-0.912 0-1.136-0.048-1.136-0.24 0-0.208 0.192-0.24 1.072-0.208 0.672 0.032 1.088 0.128 1.136 0.24z" fill="#000000"></path>
<path d="M3.584 16.064c-0.048 0.128-0.064 0.368-0.032 0.528s-0.080 0.416-0.24 0.576c-0.432 0.432-0.192 0.592 0.928 0.592 0.928 0 1.008-0.032 0.928-0.32-0.048-0.176-0.256-0.368-0.448-0.416-0.256-0.064-0.336-0.176-0.288-0.4 0.16-0.576-0.64-1.088-0.848-0.56z" fill="#000000"></path>
</svg>
