<?xml version="1.0" encoding="utf-8"?>
<!DOCTYPE svg PUBLIC "-//W3C//DTD SVG 1.1//EN" "http://www.w3.org/Graphics/SVG/1.1/DTD/svg11.dtd">
<svg version="1.1" xmlns="http://www.w3.org/2000/svg" xmlns:xlink="http://www.w3.org/1999/xlink" width="32" height="32" viewBox="0 0 32 32">
<path d="M10.256 8.464c-4.656 0.512-5.36 0.624-5.552 0.896-0.144 0.192-0.224 0.736-0.224 1.536 0 1.104 0.048 1.28 0.352 1.488 0.32 0.224 1.296 0.256 7.44 0.256 7.008 0 7.088 0 7.424-0.336 0.272-0.272 0.32-0.464 0.24-0.912-0.096-0.624-0.96-1.984-1.872-2.944-0.544-0.576-0.624-0.608-1.52-0.592-0.512 0.016-3.344 0.288-6.288 0.608zM17.328 9.264c0.464 0.784 0.384 0.832-1.040 0.784-1.312-0.048-1.328-0.048-1.376-0.48-0.048-0.448 0.016-0.48 1.488-0.656 0.272-0.032 0.512-0.080 0.56-0.096 0.048 0 0.208 0.192 0.368 0.448z" fill="#000000"></path>
<path d="M15.392 13.968c-0.144 0.16-0.016 0.384 0.528 0.912l0.72 0.704-0.416 0.432c-0.384 0.4-0.384 0.448-0.112 0.512 0.544 0.176 2.176 0.432 2.24 0.368s-0.224-1.84-0.368-2.32c-0.048-0.176-0.16-0.128-0.464 0.144l-0.4 0.384-0.688-0.672c-0.752-0.752-0.8-0.768-1.040-0.464z" fill="#000000"></path>
<path d="M20.976 16.080l-1.168 2h-1.952c-1.056 0-2.208 0.080-2.544 0.176-1.184 0.32-1.184 1.568 0 1.888 0.336 0.096 1.488 0.176 2.544 0.176h1.952l1.168 2c1.184 1.984 1.184 2 1.792 2 0.416 0 0.592-0.064 0.592-0.24 0-0.192-0.144-0.88-0.72-3.392-0.080-0.32 0-0.352 1.008-0.432 0.592-0.064 1.312-0.128 1.6-0.176 0.48-0.064 0.544-0.016 0.864 0.656 0.32 0.656 0.4 0.704 0.96 0.704h0.608v-4.48h-0.608c-0.56 0-0.64 0.048-0.944 0.704l-0.352 0.704-0.768-0.080c-2.464-0.208-2.448-0.208-2.368-0.576 0.576-2.496 0.72-3.2 0.72-3.392 0-0.176-0.176-0.24-0.592-0.24-0.608 0-0.608 0.016-1.792 2z" fill="#000000"></path>
</svg>
