<?xml version="1.0" encoding="iso-8859-1"?>
<!-- Generator: Adobe Illustrator 16.0.0, SVG Export Plug-In . SVG Version: 6.00 Build 0)  -->
<!DOCTYPE svg PUBLIC "-//W3C//DTD SVG 1.1//EN" "http://www.w3.org/Graphics/SVG/1.1/DTD/svg11.dtd">
<svg version="1.1" xmlns="http://www.w3.org/2000/svg" xmlns:xlink="http://www.w3.org/1999/xlink" x="0px" y="0px" width="360px"
	 height="280px" viewBox="0 0 360 280" style="enable-background:new 0 0 360 280;" xml:space="preserve">
<g id="cle-mixte">
	<path style="fill:#0B143A;" d="M19.643,226.256c-1.75-0.69-2.902-2.374-2.902-4.248l0,0c-0.006-1.878,1.139-3.567,2.883-4.255l0,0
		c0.019-0.01,7.898-3.115,16.446-6.683l0,0c8.044-3.31,17.152-7.357,19.43-8.776l0,0c0.02-0.054,0.032-0.121,0.051-0.194l0,0
		c0.133-0.598,0.242-1.68,0.242-2.963l0,0c0.013-5.444-1.565-13.257-1.884-16.875l0,0c-0.025-0.054-0.064-0.124-0.108-0.207l0,0
		c-0.21-0.378-0.624-1.002-1.165-1.695l0,0c-1.076-1.42-2.654-3.157-4.226-4.783l0,0c-1.636-1.687-3.258-3.256-4.461-4.382l0,0
		L5.94,183.156c-1.795,0.557-3.755-0.035-4.926-1.496l0,0c-1.184-1.457-1.343-3.503-0.414-5.13l0,0
		c0.089-0.146,6.148-10.759,15.37-21.556l0,0c9.279-10.66,21.423-22.187,35.953-22.455l0,0c2.909,0,5.862,0.525,8.713,1.665l0,0
		c10.489,4.175,17.999,10.768,23.217,17.289l0,0l179.038-61.792c-0.121-1.546-0.191-3.16-0.191-4.833l0,0
		c-0.006-8.484,1.788-18.568,7.612-28.561l0,0c6.18-10.457,17.991-13.298,29.231-13.276l0,0c21.041,0.057,43.876,9.505,44.144,9.572
		l0,0c1.73,0.704,2.87,2.412,2.845,4.287l0,0c-0.025,1.875-1.203,3.551-2.959,4.216l0,0l-37.29,14.03
		c-0.483,3.154-1.215,8.576-1.209,12.284l0,0c-0.013,1.161,0.108,2.167,0.179,2.526l0,0c1.317,2.024,3.073,5.419,5.263,9.015l0,0
		c2.03,3.495,4.723,7.014,5.824,7.781l0,0c1.024-0.14,3.831-0.672,6.873-1.432l0,0c3.863-0.93,8.611-2.199,13.2-3.459l0,0
		c9.177-2.537,17.705-5.066,17.725-5.073l0,0c1.795-0.535,3.742,0.095,4.9,1.569l0,0c1.152,1.477,1.279,3.52,0.331,5.136l0,0
		c-0.038,0.055-4.493,7.603-10.349,15.876l0,0c-6.021,8.309-12.665,17.19-19.8,20.821l0,0c-5.563,2.607-12.62,4.064-19.818,4.081
		l0,0c-8.7-0.048-17.827-2.075-24.032-8.447l0,0c-2.202-2.304-4.296-4.964-6.256-7.71l0,0c-0.376,0.143-0.758,0.28-1.14,0.413l0,0
		L97.626,190.732c0.28,3.084,0.471,6.314,0.471,9.468l0,0c0,1.988-0.076,3.952-0.261,5.855l0,0
		c-0.853,8.057-5.906,14.784-11.908,20.003l0,0c-6.078,5.213-13.289,8.977-19.953,10.495l0,0c-1.47,0.321-2.979,0.436-4.563,0.436
		l0,0C46.208,236.834,19.948,226.278,19.643,226.256L19.643,226.256z M315.829,111.327l0.096-2.842L315.829,111.327L315.829,111.327
		z"/>
</g>
<g id="Calque_1">
</g>
</svg>
