<?xml version="1.0" encoding="utf-8"?>
<!DOCTYPE svg PUBLIC "-//W3C//DTD SVG 1.1//EN" "http://www.w3.org/Graphics/SVG/1.1/DTD/svg11.dtd">
<svg version="1.1" xmlns="http://www.w3.org/2000/svg" xmlns:xlink="http://www.w3.org/1999/xlink" width="32" height="32" viewBox="0 0 32 32">
<path d="M9.216 1.36c-0.832 0.288-1.792 1.264-2.128 2.144-0.256 0.672-0.288 1.488-0.288 8.736 0 9.136-0.016 8.976 1.312 10.144 1.072 0.96 1.488 1.008 8.304 0.944l5.936-0.048 0.784-0.48c0.48-0.304 0.96-0.784 1.264-1.264l0.48-0.784 0.048-8.144c0.032-5.232-0.016-8.352-0.128-8.752-0.256-0.992-1.040-1.92-1.968-2.352l-0.832-0.384-6.080 0.016c-4.768 0-6.208 0.048-6.704 0.224zM18.048 3.232c0.256 0.256 0.256 1.76 0 2.016-0.128 0.128-0.832 0.192-2.112 0.192-2.288 0-2.496-0.112-2.496-1.296 0-0.56 0.080-0.816 0.288-0.928 0.4-0.24 4.080-0.224 4.32 0.016zM21.984 6.256l0.416 0.32v2.576c0 2.176-0.048 2.624-0.272 2.88-0.24 0.272-0.64 0.288-6.192 0.288-3.264 0-6.016-0.064-6.112-0.128-0.432-0.288-0.544-0.896-0.544-2.976 0-2.336 0.128-2.912 0.672-3.136 0.208-0.080 2.896-0.144 5.984-0.144 5.456-0.016 5.632 0 6.048 0.32zM12.256 17.936c1.072 1.008 0.24 2.864-1.312 2.864-0.624 0-1.504-0.944-1.504-1.632 0.016-1.104 0.768-1.792 1.808-1.664 0.352 0.032 0.8 0.224 1.008 0.432zM21.904 17.984c0.32 0.336 0.416 0.576 0.416 1.136 0 0.912-0.544 1.504-1.488 1.632-0.592 0.080-0.72 0.032-1.232-0.48-0.432-0.432-0.56-0.688-0.56-1.152s0.128-0.72 0.56-1.152c0.512-0.512 0.64-0.56 1.232-0.48 0.416 0.048 0.816 0.24 1.072 0.496z" fill="#000000"></path>
<path d="M8.576 27.344c-1.376 1.488-2.496 2.784-2.496 2.864s0.192 0.272 0.416 0.432l0.416 0.272 2.24-2.432h13.472l1.152 1.232 1.152 1.248 0.848-0.816-2.528-2.752-2.528-2.736-4.816-0.016h-4.832l-2.496 2.704zM20.816 26.512l0.704 0.768-5.504 0.048c-3.024 0.016-5.536 0-5.584-0.048-0.048-0.032 0.208-0.4 0.544-0.784l0.624-0.704 8.512-0.032 0.704 0.752z" fill="#000000"></path>
</svg>
