<?xml version="1.0" encoding="utf-8"?>
<!DOCTYPE svg PUBLIC "-//W3C//DTD SVG 1.1//EN" "http://www.w3.org/Graphics/SVG/1.1/DTD/svg11.dtd">
<svg version="1.1" xmlns="http://www.w3.org/2000/svg" xmlns:xlink="http://www.w3.org/1999/xlink" width="16" height="32" viewBox="0 0 16 32">
<path d="M7.051 0.597c-0.027 3.308-1.329 13.668-2.332 18.522-0.814 3.797-2.441 8.868-3.607 11.227l-0.841 1.654h1.898c1.817 0 1.898-0.027 1.898-0.651 0-0.841 1.030-2.305 2.142-3.064 2.197-1.492 5.424-0.027 5.966 2.739 0.163 0.705 0.325 0.841 1.112 0.922 0.488 0.054 1.329 0.027 1.817-0.081l0.895-0.163-0.976-1.925c-2.685-5.315-5.261-16.542-5.939-25.844-0.271-3.769-0.325-3.932-1.247-3.932-0.624 0-0.786 0.108-0.786 0.597zM9.492 20.664c0.163 0.651 0.488 1.763 0.705 2.495s0.38 1.383 0.38 1.437c0 0.054-1.112 0.081-2.468 0.081-2.441 0-2.468 0-2.305-0.624 0.081-0.325 0.353-1.492 0.624-2.576l0.461-1.953h1.139c1.139 0 1.166 0.027 1.464 1.139z" fill="#000000"></path>
</svg>
