<?xml version="1.0" encoding="utf-8"?>
<!DOCTYPE svg PUBLIC "-//W3C//DTD SVG 1.1//EN" "http://www.w3.org/Graphics/SVG/1.1/DTD/svg11.dtd">
<svg version="1.1" xmlns="http://www.w3.org/2000/svg" xmlns:xlink="http://www.w3.org/1999/xlink" width="32" height="32" viewBox="0 0 32 32">
<path d="M14.448 2c-1.344 0.816-1.712 2.672-0.8 4.048 0.512 0.784 1.28 1.152 2.4 1.152 2.4 0 3.648-2.784 2.096-4.64-0.592-0.688-1.2-0.96-2.176-0.96-0.624 0-1.024 0.112-1.52 0.4z" fill="#000000"></path>
<path d="M12.032 7.792c-0.288 0.144-0.688 0.48-0.88 0.752-0.336 0.48-0.352 0.624-0.4 5.584-0.032 3.712 0 5.168 0.144 5.328 0.112 0.128 0.496 0.224 0.96 0.224h0.784v6.4h-10.080v1.12h10.080v3.52h2.704l0.048-1.712 0.048-1.728 0.528-0.048 0.512-0.048v3.536h2.88v-3.52h10.080v-1.12h-10.080v-6.4h0.704c1.248 0 1.216 0.144 1.216-5.328 0-7.008 0.144-6.832-5.36-6.832-2.768 0-3.456 0.048-3.888 0.272zM16.48 23.216v2.88l-0.512-0.048-0.528-0.048-0.048-2.848-0.032-2.832h1.12v2.896z" fill="#000000"></path>
</svg>
