<?xml version="1.0" encoding="utf-8"?>
<!DOCTYPE svg PUBLIC "-//W3C//DTD SVG 1.1//EN" "http://www.w3.org/Graphics/SVG/1.1/DTD/svg11.dtd">
<svg version="1.1" xmlns="http://www.w3.org/2000/svg" xmlns:xlink="http://www.w3.org/1999/xlink" width="32" height="32" viewBox="0 0 32 32">
<path d="M19.107 3.56l0.027 1.44-1.907 0.133 1.16 1.653c0.64 0.92 1.213 1.68 1.293 1.693 0.067 0.027 0.653-0.733 1.293-1.68l1.173-1.733h-1.88v-2.933h-1.173l0.013 1.427z" fill="#000000"></path>
<path d="M4.48 3.8c-0.6 0.213-1.2 0.747-1.413 1.28-0.12 0.267-0.147 1.2-0.107 3.093l0.040 2.707 0.733 1.173c0.4 0.64 1.093 1.52 1.533 1.973 2.053 2.053 5.84 3.947 10.533 5.267 4.48 1.253 6.067 1.88 8.040 3.147 1.227 0.8 2.76 2.36 3.427 3.493 0.627 1.067 0.52 1.24 1.147-2 0.92-4.88 0.253-8.147-1.907-9.347l-0.707-0.387-3.933 0.040c-3.64 0.053-8.653-0.133-9.733-0.36-0.533-0.107-0.373 0.253-2.427-5.413-0.747-2.053-1.44-3.867-1.56-4.027-0.533-0.733-2.453-1.080-3.667-0.64z" fill="#000000"></path>
<path d="M9.333 4.533c0 0.16 1.693 4.88 1.853 5.173 0.107 0.187 0.187 0.147 0.587-0.253 1.293-1.293 0.747-3.947-1-4.867-0.413-0.213-1.44-0.253-1.44-0.053z" fill="#000000"></path>
<path d="M3.28 14.827c0.027 0.24 0.147 1.333 0.253 2.44 0.493 4.813 1.227 8.507 2.227 11.36l0.533 1.507h20.667l-0.093-0.56c-0.32-1.867-1.080-3.267-2.533-4.627-1.813-1.693-3.693-2.587-7.72-3.693-1.467-0.413-3.333-0.987-4.147-1.28-3.387-1.24-6.52-3.013-8.307-4.72-0.493-0.467-0.907-0.853-0.92-0.853s0 0.2 0.040 0.427z" fill="#000000"></path>
</svg>
