<?xml version="1.0" encoding="utf-8"?>
<!DOCTYPE svg PUBLIC "-//W3C//DTD SVG 1.1//EN" "http://www.w3.org/Graphics/SVG/1.1/DTD/svg11.dtd">
<svg version="1.1" xmlns="http://www.w3.org/2000/svg" xmlns:xlink="http://www.w3.org/1999/xlink" width="37" height="32" viewBox="0 0 37 32">
<path d="M7.431 1.031c-0.853 0.889-1.031 1.351-1.031 2.809 0 1.956-0.32 2.204-2.916 2.204-1.031 0-1.351 0.142-1.351 0.604 0 0.356-0.391 5.76-0.889 12.018s-0.889 11.733-0.889 12.16v0.818h27.022l-0.178-0.818c-0.107-0.427-0.32-1.387-0.462-2.169-0.249-1.209-0.427-1.422-1.991-2.027-3.129-1.173-5.831-4.587-6.436-8.036-0.498-3.058 1.244-8.036 3.484-9.92 0.924-0.782 0.996-0.996 0.782-2.276l-0.249-1.422h-4.089l-0.213-1.671c-0.142-1.244-0.427-1.884-1.138-2.489-0.853-0.747-1.28-0.818-4.658-0.818-3.662 0-3.769 0.036-4.8 1.031zM15.111 4.089c0 1.067 0 1.067-2.489 1.316-1.351 0.142-2.702 0.178-2.916 0.107-0.498-0.178-0.64-2.027-0.213-2.453 0.142-0.142 1.458-0.178 2.951-0.142l2.667 0.107v1.067z" fill="#000000"></path>
<path d="M25.244 8.711c-2.844 1.28-4.622 4.018-4.907 7.502-0.284 3.662 1.067 6.436 3.947 8.107 2.098 1.209 4.089 1.458 6.364 0.782 6.507-1.884 8.498-9.778 3.556-14.116-2.631-2.311-6.613-3.307-8.96-2.276zM27.378 14.4l1.28 1.244 1.316-1.102c0.782-0.64 1.564-0.996 1.884-0.889 0.427 0.178 0.32 0.498-0.711 1.742l-1.28 1.564 1.244 1.173c1.173 1.138 1.209 1.244 0.64 1.849-0.604 0.64-0.64 0.64-1.742-0.676l-1.138-1.351-1.387 1.316c-1.316 1.28-1.422 1.316-1.991 0.747s-0.533-0.676 0.676-1.92l1.28-1.316-1.138-1.422c-0.64-0.782-1.031-1.6-0.889-1.813 0.356-0.604 0.569-0.498 1.956 0.853z" fill="#000000"></path>
</svg>
