<?xml version="1.0" encoding="utf-8"?>
<!DOCTYPE svg PUBLIC "-//W3C//DTD SVG 1.1//EN" "http://www.w3.org/Graphics/SVG/1.1/DTD/svg11.dtd">
<svg version="1.1" xmlns="http://www.w3.org/2000/svg" xmlns:xlink="http://www.w3.org/1999/xlink" width="32" height="32" viewBox="0 0 32 32">
<path d="M2.144 4.432c-0.192 0.032-0.512 0.24-0.72 0.464l-0.384 0.416-0.048 10.576c-0.032 7.76 0.016 10.704 0.144 11.040 0.384 0.928 0.256 0.912 7.472 0.912h6.624l0.928-0.928v-21.472l-0.464-0.512-0.464-0.528-6.384-0.016c-3.504-0.016-6.528 0-6.704 0.048z" fill="#000000"></path>
<path d="M22.4 5.472c-0.224 0.256-0.32 0.56-0.32 1.12v0.768h-1.088c-1.664 0-1.632-0.064-1.632 3.728 0 3.056 0.016 3.136 0.352 3.376 0.304 0.224 1.024 0.256 4.544 0.256h4.208l0.32-0.416c0.32-0.4 0.336-0.64 0.336-3.328 0-3.552 0.032-3.504-1.632-3.616l-1.168-0.080-0.048-0.8c-0.080-1.216-0.288-1.36-2.048-1.36-1.328 0-1.52 0.032-1.824 0.352zM25.12 6.8v0.576l-0.912-0.048c-0.912-0.048-0.928-0.048-0.976-0.576l-0.048-0.512h1.936v0.56z" fill="#000000"></path>
<path d="M18.24 16.4v0.56h11.84v-1.12h-11.84v0.56z" fill="#000000"></path>
<path d="M17.936 18.496l-0.496 0.416v8.096l0.496 0.416 0.496 0.432 5.904-0.048c5.888-0.048 5.888-0.048 6.256-0.416 0.368-0.352 0.368-0.416 0.368-4.432s0-4.080-0.368-4.432c-0.368-0.368-0.368-0.368-6.256-0.416l-5.904-0.048-0.496 0.432z" fill="#000000"></path>
</svg>
