<?xml version="1.0" encoding="utf-8"?>
<!DOCTYPE svg PUBLIC "-//W3C//DTD SVG 1.1//EN" "http://www.w3.org/Graphics/SVG/1.1/DTD/svg11.dtd">
<svg version="1.1" xmlns="http://www.w3.org/2000/svg" xmlns:xlink="http://www.w3.org/1999/xlink" width="32" height="32" viewBox="0 0 32 32">
<path d="M13.568 1.584c-1.216 0.4-2.368 1.152-3.184 2.080-0.72 0.784-1.52 2.32-1.68 3.168l-0.096 0.528h-4.608v2.88h6.016c6.544 0 6.848-0.032 7.248-0.896 0.224-0.512 0.224-1.52-0.032-1.824-1.072-1.376-3.136-0.816-3.152 0.832v0.608h-2.752l0.064-0.848c0.256-3.056 3.504-4.912 6.256-3.568 1.616 0.784 2.416 2.096 2.432 3.936 0 1.040-0.064 1.312-0.464 2.048-0.512 0.912-1.296 1.632-2.288 2.080-0.544 0.24-1.344 0.272-6.96 0.32l-6.368 0.048v1.264h24v-1.28h-8.352l0.48-0.608c0.272-0.32 0.64-0.944 0.848-1.36l0.368-0.752h6.656v-2.88h-5.088l-0.336-1.12c-0.608-1.968-2.288-3.744-4.336-4.56-1.104-0.432-3.52-0.48-4.672-0.096z" fill="#000000"></path>
<path d="M4 17.6v0.64h24v-1.28h-24v0.64z" fill="#000000"></path>
<path d="M4 21.68v0.72h24v-1.44h-24v0.72z" fill="#000000"></path>
<path d="M4 27.92v2.96h24v-5.92h-24v2.96z" fill="#000000"></path>
</svg>
