<?xml version="1.0" encoding="utf-8"?>
<!DOCTYPE svg PUBLIC "-//W3C//DTD SVG 1.1//EN" "http://www.w3.org/Graphics/SVG/1.1/DTD/svg11.dtd">
<svg version="1.1" xmlns="http://www.w3.org/2000/svg" xmlns:xlink="http://www.w3.org/1999/xlink" width="32" height="32" viewBox="0 0 32 32">
<path d="M23.792 6.192c-0.208 0.336-0.896 1.488-1.552 2.56l-1.168 1.968h-2.624c-2.096 0-2.752 0.048-3.184 0.256-0.864 0.416-0.96 1.456-0.208 2.016 0.368 0.272 0.8 0.336 3.28 0.416l2.848 0.112 1.456 2.432 1.44 2.432 0.768 0.016c0.416 0 0.752-0.064 0.752-0.144s-0.208-1.088-0.48-2.256c-0.256-1.168-0.48-2.208-0.48-2.32 0-0.24 0.544-0.336 2.56-0.496l1.36-0.096 0.432 0.896c0.448 0.896 0.448 0.896 1.168 0.896h0.72v-5.6h-0.704c-0.704 0-0.72 0.016-1.168 0.832-0.24 0.464-0.512 0.848-0.608 0.848-0.080 0-0.976-0.064-1.952-0.144-1.392-0.096-1.808-0.176-1.808-0.352 0-0.128 0.224-1.2 0.48-2.384 0.272-1.184 0.48-2.224 0.48-2.32 0-0.080-0.32-0.16-0.72-0.16-0.656 0-0.752 0.048-1.088 0.592z" fill="#000000"></path>
<path d="M17.808 16.352l-0.832 0.832-0.464-0.432c-0.352-0.336-0.496-0.4-0.56-0.224-0.144 0.4-0.48 2.672-0.4 2.768 0.048 0.048 0.752-0.048 1.568-0.192l1.472-0.272-0.992-0.992 0.912-0.912c0.768-0.784 0.864-0.944 0.688-1.152-0.32-0.4-0.496-0.32-1.392 0.576z" fill="#000000"></path>
<path d="M8.976 21.456c-8.48 0.928-7.856 0.688-7.856 2.96 0 1.2 0.048 1.536 0.304 1.84l0.304 0.384h17.984l0.304-0.384c0.624-0.768 0.32-1.68-1.28-3.808-0.976-1.28-1.328-1.568-2.176-1.696-0.256-0.048-3.68 0.272-7.584 0.704zM17.104 22.656c0.192 0.304 0.336 0.592 0.336 0.64 0 0.032-0.768 0.064-1.696 0.064h-1.68l0.048-0.528c0.048-0.464 0.112-0.528 0.688-0.608 0.352-0.048 0.944-0.112 1.312-0.128 0.592-0.016 0.688 0.032 0.992 0.56z" fill="#000000"></path>
</svg>
