<?xml version="1.0" encoding="utf-8"?>
<!DOCTYPE svg PUBLIC "-//W3C//DTD SVG 1.1//EN" "http://www.w3.org/Graphics/SVG/1.1/DTD/svg11.dtd">
<svg version="1.1" xmlns="http://www.w3.org/2000/svg" xmlns:xlink="http://www.w3.org/1999/xlink" width="32" height="32" viewBox="0 0 32 32">
<path d="M23.653 3.48l-2.147 2.147-1.107-0.413c-4.12-1.587-8.947-0.613-12.16 2.467-1.947 1.867-3.213 4.28-3.56 6.787-0.253 1.8-0.347 1.667 1.107 1.667h1.24l0.093-0.933c0.253-2.573 1.72-5.027 3.867-6.507 2.347-1.627 5.107-2.133 7.653-1.427 0.453 0.133 0.827 0.28 0.827 0.32 0 0.053-0.867 0.947-1.92 2-1.053 1.040-1.853 1.92-1.76 1.947 0.080 0.027 0.773 0.107 1.547 0.187s3.28 0.36 5.587 0.613c2.307 0.253 4.213 0.44 4.253 0.4 0.053-0.053-0.48-4.853-0.707-6.333-0.027-0.187-0.173-1.36-0.333-2.6-0.147-1.253-0.293-2.307-0.307-2.373-0.013-0.053-1 0.867-2.173 2.053z" fill="#000000"></path>
<path d="M24.76 16.227c-0.040 0.053-0.067 0.387-0.067 0.733-0.040 2-1.4 4.693-3.133 6.16-1.707 1.44-3.333 2.080-5.48 2.187-1.493 0.067-3.067-0.12-3.48-0.413-0.187-0.147 0.040-0.413 1.693-2.053 1.040-1.040 1.867-1.92 1.84-1.96-0.12-0.107-11.427-1.36-11.52-1.267-0.053 0.053 1.133 9.973 1.32 11.040l0.093 0.453 4.347-4.347 1.107 0.413c1.573 0.56 2.907 0.747 4.693 0.653 1.653-0.093 2.64-0.32 4.027-0.92 4.187-1.827 6.933-5.907 7.067-10.507 0-0.16-0.24-0.213-1.227-0.24-0.667-0.013-1.24 0.013-1.28 0.067z" fill="#000000"></path>
</svg>
