<?xml version="1.0" encoding="utf-8"?>
<!DOCTYPE svg PUBLIC "-//W3C//DTD SVG 1.1//EN" "http://www.w3.org/Graphics/SVG/1.1/DTD/svg11.dtd">
<svg version="1.1" xmlns="http://www.w3.org/2000/svg" xmlns:xlink="http://www.w3.org/1999/xlink" width="32" height="32" viewBox="0 0 32 32">
<path d="M3.36 5.456c0 0.512 0.064 0.672 0.32 0.736 0.48 0.128 0.384 0.368-0.144 0.368-0.272 0-0.496 0.096-0.56 0.256-0.176 0.448-0.096 2.080 0.096 2.272 0.144 0.144 0.064 0.192-0.384 0.192-1.136 0-1.088-0.464-1.088 9.024 0 8.064 0.016 8.544 0.288 8.784 0.24 0.224 0.656 0.272 2.224 0.272 1.648 0 1.952-0.048 2.176-0.288 0.24-0.272 0.272-1.12 0.272-8.8 0-9.44 0.048-8.992-1.088-8.992-0.448 0-0.528-0.048-0.384-0.192 0.192-0.192 0.272-1.824 0.096-2.272-0.064-0.16-0.288-0.256-0.56-0.256-0.528 0-0.624-0.24-0.144-0.368 0.256-0.064 0.32-0.224 0.32-0.736v-0.656h-1.44v0.656zM4.4 8.432c-0.080 0.24-0.496 0.272-0.624 0.064-0.048-0.080-0.048-0.496 0.016-0.912l0.112-0.784 0.112 0.56 0.096 0.56 0.048-0.64 0.032-0.64 0.144 0.8c0.080 0.432 0.112 0.896 0.064 0.992z" fill="#000000"></path>
<path d="M8.336 9.456c-0.816 0.336-0.8 0.128-0.816 8.912v8.208l0.4 0.384 0.384 0.4h5.056c4.8 0 5.056-0.016 5.36-0.32 0.176-0.176 0.352-0.48 0.4-0.672 0.048-0.208 0.064-3.952 0.048-8.32l-0.048-7.952-0.368-0.368c-0.352-0.368-0.4-0.368-5.2-0.4-2.88-0.016-4.992 0.032-5.216 0.128z" fill="#000000"></path>
<path d="M23.952 11.168c-0.16 0.16-0.272 0.416-0.272 0.56 0 0.224-0.16 0.272-0.848 0.272-0.464 0-0.928 0.080-1.040 0.192-0.128 0.128-0.192 0.944-0.192 2.608s0.064 2.48 0.192 2.608c0.144 0.144 1.136 0.192 3.504 0.192 4.112 0 3.824 0.208 3.824-2.8 0-2.608-0.096-2.8-1.376-2.8-0.752 0-0.864-0.048-0.864-0.304 0-0.592-0.432-0.816-1.584-0.816-0.848 0-1.152 0.064-1.344 0.288zM25.648 11.952c-0.208 0.032-0.528 0.032-0.72 0-0.208-0.032-0.048-0.064 0.352-0.064s0.56 0.032 0.368 0.064z" fill="#000000"></path>
<path d="M20.8 18.8v0.4h8.96v-0.8h-8.96v0.4z" fill="#000000"></path>
<path d="M20.512 20.096c-0.336 0.24-0.352 0.32-0.352 3.424 0 3.408 0.032 3.568 0.848 3.76 0.192 0.048 2.288 0.080 4.64 0.048 4.304-0.048 4.304-0.048 4.608-0.432 0.272-0.336 0.304-0.656 0.304-3.328 0-2.912 0-2.944-0.4-3.328l-0.384-0.4h-4.448c-3.776 0-4.512 0.032-4.816 0.256z" fill="#000000"></path>
</svg>
