<?xml version="1.0" encoding="utf-8"?>
<!DOCTYPE svg PUBLIC "-//W3C//DTD SVG 1.1//EN" "http://www.w3.org/Graphics/SVG/1.1/DTD/svg11.dtd">
<svg version="1.1" xmlns="http://www.w3.org/2000/svg" xmlns:xlink="http://www.w3.org/1999/xlink" width="32" height="32" viewBox="0 0 32 32">
<path d="M15.2 5.68v2.32h-6.384l-0.048 1.472-0.048 1.488-3.392 0.048-3.408 0.032v4.64h3.2v11.84h-4v1.28h29.6v-1.28h-4.16l0.032-5.888 0.048-5.872 3.28-0.096v-4.624l-3.392-0.032-3.408-0.048-0.048-1.488-0.048-1.472h-6.544v-4.64h-1.28v2.32zM7.488 21.632l0.032 5.888h-1.12v-11.856l0.528 0.048 0.512 0.048 0.048 5.872zM11.040 21.6v5.92h-1.12v-5.808c0-3.2 0.048-5.872 0.112-5.92 0.048-0.064 0.304-0.112 0.56-0.112h0.448v5.92zM14.56 21.6v5.92h-0.96v-11.84h0.96v5.92zM18.24 21.6v5.92h-1.12v-11.84h1.12v5.92zM21.76 21.6v5.92h-1.12v-5.808c0-3.2 0.048-5.872 0.112-5.92 0.048-0.064 0.304-0.112 0.56-0.112h0.448v5.92zM25.408 21.632l0.032 5.888h-1.12v-11.856l0.528 0.048 0.512 0.048 0.048 5.872z" fill="#000000"></path>
</svg>
