<?xml version="1.0" encoding="utf-8"?>
<!DOCTYPE svg PUBLIC "-//W3C//DTD SVG 1.1//EN" "http://www.w3.org/Graphics/SVG/1.1/DTD/svg11.dtd">
<svg version="1.1" xmlns="http://www.w3.org/2000/svg" xmlns:xlink="http://www.w3.org/1999/xlink" width="21" height="32" viewBox="0 0 21 32">
<path d="M0.359 2.4c-0.11 1.186-0.193 4.441-0.193 7.255 0.028 5.931 0.166 6.428 2.455 8.69 1.683 1.71 3.697 2.869 7.034 4.138 4.303 1.572 6.897 3.779 8.166 6.869 0.303 0.69 0.607 1.269 0.717 1.269 0.331 0 0.966-1.71 1.462-4 0.662-2.952 0.469-7.531-0.359-9.159-0.552-1.021-0.745-1.159-1.876-1.352-1.159-0.166-4.634-0.028-8.552 0.331l-1.683 0.166-0.579-2.041c-0.331-1.103-0.745-3.31-0.883-4.883-0.276-2.455-0.248-2.924 0.11-3.31 1.297-1.434 1.076-3.117-0.662-5.076-0.855-0.993-0.91-1.021-2.897-1.021h-2.014l-0.248 2.124z" fill="#000000"></path>
<path d="M0.938 19.614c0.11 0.359 0.662 3.090 1.297 6.041 0.855 4.193 1.241 5.49 1.683 5.876 0.497 0.414 1.269 0.469 6.897 0.469h6.317l-0.193-0.607c-0.331-1.076-1.269-2.814-2.069-3.834-1.103-1.379-2.924-2.51-6.041-3.697-3.145-1.214-4.993-2.234-6.731-3.752-1.159-1.021-1.269-1.076-1.159-0.497z" fill="#000000"></path>
</svg>
