<?xml version="1.0" encoding="utf-8"?>
<!DOCTYPE svg PUBLIC "-//W3C//DTD SVG 1.1//EN" "http://www.w3.org/Graphics/SVG/1.1/DTD/svg11.dtd">
<svg version="1.1" xmlns="http://www.w3.org/2000/svg" xmlns:xlink="http://www.w3.org/1999/xlink" width="32" height="32" viewBox="0 0 32 32">
<path d="M11.376 1.232c-0.592 1.12-1.088 4.048-1.312 7.616-0.256 4.192 0 8.784 1.072 19.504l0.288 2.848h9.376l0.064-0.368c0.128-0.608 1.040-10.112 1.232-12.864 0.096-1.488 0.144-4.512 0.096-7.12-0.080-4.784-0.256-6.4-0.96-8.624l-0.368-1.184-4.656-0.048c-4.336-0.032-4.688-0.016-4.832 0.24zM19.936 6.304c0.272 0.208 0.304 0.48 0.352 2.688 0.048 2.304 0.032 2.48-0.288 2.896l-0.336 0.432h-7.008l-0.32-0.416c-0.304-0.384-0.336-0.64-0.336-2.8 0-3.264-0.32-3.024 4.128-3.024 2.752 0 3.552 0.048 3.808 0.224zM15.456 13.344c0.24 0.192 0.272 0.288 0.128 0.528-0.16 0.24-0.4 0.288-1.664 0.288s-1.504-0.048-1.664-0.288c-0.304-0.496 0.272-0.752 1.664-0.752 0.816 0 1.328 0.080 1.536 0.224zM20.080 14.48v1.12h-2.24l-0.048-0.944c-0.064-1.376-0.048-1.392 1.2-1.344l1.088 0.048v1.12z" fill="#000000"></path>
</svg>
