<?xml version="1.0" encoding="utf-8"?>
<!DOCTYPE svg PUBLIC "-//W3C//DTD SVG 1.1//EN" "http://www.w3.org/Graphics/SVG/1.1/DTD/svg11.dtd">
<svg version="1.1" xmlns="http://www.w3.org/2000/svg" xmlns:xlink="http://www.w3.org/1999/xlink" width="37" height="32" viewBox="0 0 37 32">
<path d="M30.971 0.852c-0.708 0.868-1.206 1.962-1.222 2.637 0 0.498-0.032 0.531-0.563 0.531-0.675 0-0.708-0.209-0.177-1.013 0.482-0.691 0.37-0.756-1.077-0.579-2.669 0.322-4.695 2.332-5.966 5.902-0.579 1.64-0.981 3.296-1.785 7.349-1.319 6.577-1.286 6.657-1.335-3.361l-0.032-8.667-1.077 0.113c-1.56 0.161-3.859 0.981-5.371 1.914-1.705 1.045-3.506 2.766-4.503 4.293l-0.804 1.222-0.852-0.161c-0.466-0.096-0.868-0.209-0.901-0.257s0.322-0.836 0.772-1.769c0.901-1.881 1.319-3.473 1.319-5.049 0-1.254-0.225-1.367-0.756-0.418-0.917 1.592-3.473 4.068-5.644 5.451-0.45 0.289-0.836 0.627-0.836 0.756 0 0.354 0.161 0.273 1.672-0.804 1.897-1.367 3.57-2.894 4.358-4.004 0.354-0.498 0.691-0.901 0.772-0.917 0.145 0 0.016 1.013-0.306 2.332-0.273 1.126-1.11 2.975-1.833 4.020l-0.498 0.708 0.37 0.080c0.209 0.048 0.788 0.161 1.286 0.257l0.901 0.177-0.289 0.675c-0.161 0.37-0.418 1.126-0.579 1.672-0.273 0.981-0.273 0.997-1.303 1.495-1.495 0.74-2.975 2.187-3.682 3.602-1.351 2.75-0.675 5.885 1.608 7.429 1.351 0.917 2.605 1.238 4.856 1.27l1.962 0.016 0.997 0.836c4.277 3.57 9.922 4.39 14.89 2.123 2.492-1.126 5.274-3.634 7.108-6.416 0.547-0.836 0.997-1.447 0.997-1.367 0 0.466-1.705 4.872-1.994 5.162-0.016 0.032-0.306-0.064-0.627-0.193-0.82-0.338-0.868-0.322-1.238 0.402-0.177 0.338-0.788 1.254-1.351 2.010-1.19 1.56-1.142 1.64 0.724 1.045 4.358-1.367 7.831-6.448 7.912-11.578 0.016-0.836-0.032-1.624-0.096-1.737-0.080-0.113-0.498-0.193-1.126-0.193-1.029 0-2.155 0.402-3.184 1.142-0.273 0.193-0.498 0.322-0.531 0.289s-0.129-0.579-0.225-1.206c-0.354-2.203-0.949-3.586-2.235-5.21-0.45-0.547-0.45-0.563-0.048-0.273 0.675 0.466 2.139 1.174 2.991 1.463 0.933 0.306 1.512 0.772 1.512 1.222 0 0.289 0.113 0.322 0.965 0.322 0.531 0 0.965-0.048 0.965-0.096 0-0.482-2.46-8.314-3.152-10.002-0.933-2.348-1.254-3.682-1.093-4.679 0.064-0.37 0.064-0.659 0.016-0.659s-0.354 0.306-0.659 0.691zM32.225 5.419c0.402 0.997 0.74 1.865 0.74 1.962 0 0.080-0.257 0.306-0.579 0.482l-0.579 0.338-1.045-0.74c-1.512-1.077-2.525-2.605-1.962-2.975 0.129-0.080 0.531-0.129 0.884-0.113 0.627 0.048 0.659 0.032 0.515-0.289-0.193-0.402 0.048-1.367 0.547-2.155l0.338-0.563 0.193 1.126c0.113 0.611 0.531 1.93 0.949 2.927zM28.334 3.441c-0.209 0.579-0.386 0.756-1.029 1.061-0.981 0.466-1.994 1.576-2.75 3.007-0.788 1.495-1.093 2.364-2.219 6.062-0.531 1.769-1.19 3.763-1.447 4.454-0.547 1.351-1.367 2.782-1.206 2.074 0.064-0.225 0.498-2.364 0.981-4.744 1.367-6.85 2.267-9.198 4.197-10.999 0.804-0.756 1.254-1.045 2.026-1.286 0.563-0.177 1.174-0.322 1.351-0.322 0.338-0.016 0.338 0 0.096 0.691zM18.492 5.95c0 1.705-0.016 1.769-0.354 1.833-1.753 0.338-2.283 0.482-3.12 0.884-1.447 0.691-2.83 1.801-3.682 2.943l-0.756 1.029-0.884-0.45c-0.498-0.241-1.174-0.531-1.528-0.643-0.338-0.096-0.611-0.225-0.611-0.289 0-0.306 1.415-2.203 2.316-3.12 1.656-1.672 3.715-2.911 5.934-3.554 1.061-0.306 2.38-0.531 2.573-0.45 0.064 0.032 0.113 0.852 0.113 1.817zM28.285 5.178c0.306 0.868 0.981 1.705 1.962 2.444 0.515 0.402 1.029 0.74 1.142 0.772 0.129 0.048 0.080 0.209-0.161 0.531-0.579 0.724-0.45 0.917 0.338 0.482 0.402-0.241 0.933-0.402 1.335-0.402h0.659l0.852 2.927c0.466 1.624 0.884 3.039 0.917 3.136 0.064 0.145-0.080 0.209-0.402 0.209-0.338 0-0.531-0.096-0.579-0.289-0.177-0.531-0.788-0.965-2.139-1.479-3.2-1.222-4.39-2.927-3.087-4.406 0.563-0.659 0.482-1.126-0.096-0.579-0.563 0.531-0.884 1.319-0.884 2.155 0 0.965 0.273 1.592 1.174 2.701 0.402 0.482 0.836 1.11 0.981 1.383 0.418 0.804 1.029 3.12 1.158 4.342l0.113 1.142 0.659-0.547c1.013-0.82 2.444-1.431 3.393-1.447h0.804l-0.016 1.688c-0.032 2.428-0.788 4.647-2.316 6.915-0.933 1.383-2.701 2.943-4.052 3.586-1.994 0.965-2.042 0.949-1.029-0.45 0.482-0.675 0.933-1.383 0.981-1.544 0.129-0.37 0.241-0.386 0.981-0.032 0.547 0.273 0.579 0.273 0.804-0.016 0.402-0.547 1.672-3.763 1.994-5.017 0.338-1.319 0.418-2.316 0.177-2.316-0.080 0-0.45 0.563-0.82 1.238-1.061 1.962-2.364 3.666-4.036 5.258-1.753 1.656-3.313 2.621-5.419 3.361-1.222 0.418-1.672 0.498-3.57 0.563-1.817 0.048-2.396 0.016-3.586-0.273-2.251-0.531-4.358-1.624-5.95-3.055l-0.611-0.547 1.335-0.386c3.731-1.077 6.866-3.489 8.892-6.85 0.82-1.351 1.335-2.718 3.12-8.394 1.286-4.068 2.492-6.191 4.020-6.995 0.756-0.402 0.756-0.402 0.965 0.193zM33.286 8.185c0 0.080-0.177 0.177-0.402 0.209-0.386 0.080-0.515-0.032-0.289-0.241 0.145-0.161 0.691-0.129 0.691 0.032zM18.492 10.050v1.833l-0.675 0.193c-1.688 0.45-2.943 1.463-3.731 3.039-0.595 1.19-0.852 2.509-0.675 3.457 0.193 0.965 0.37 0.611 0.45-0.852 0.064-1.11 0.161-1.576 0.515-2.251 0.563-1.126 1.672-2.203 2.718-2.701 1.512-0.691 1.399-1.045 1.399 4.47v4.872l-1.254 1.206c-1.93 1.849-4.76 3.361-7.14 3.779-0.563 0.113-0.611 0.080-1.335-0.836-1.013-1.27-2.090-3.538-2.509-5.274-0.354-1.463-0.498-4.551-0.241-5.339 0.145-0.434 0.852-0.675 2.444-0.804l1.142-0.096-0.209 1.029c-0.306 1.415-0.306 3.2 0 3.2 0.177 0 0.225-0.273 0.225-1.206 0-0.659 0.096-1.608 0.209-2.090l0.193-0.884h0.675c0.37 0 1.061 0.080 1.528 0.161 0.466 0.096 0.9 0.129 0.949 0.080s-0.418-0.563-1.013-1.142c-1.061-1.013-1.093-1.061-0.884-1.463 0.37-0.691 1.817-2.074 2.878-2.766 1.045-0.675 3.104-1.447 3.908-1.463h0.434v1.849zM8.667 12.221c1.592 0.627 1.721 0.756 1.351 1.512-0.225 0.498-0.338 0.579-0.836 0.579-0.322 0.016-1.077 0.113-1.705 0.225-0.611 0.129-1.158 0.193-1.19 0.161-0.145-0.129 0.868-2.959 1.061-2.959 0.032 0 0.627 0.225 1.319 0.482zM11.514 13.926l0.627 0.563-0.884-0.096c-0.482-0.048-0.9-0.129-0.933-0.145-0.080-0.080 0.338-0.9 0.45-0.9 0.064 0 0.386 0.257 0.74 0.579zM5.564 17.801c0 1.898 0.080 2.637 0.354 3.602 0.45 1.656 1.335 3.457 2.3 4.744 0.434 0.579 0.788 1.093 0.788 1.142s-0.852 0.048-1.881 0.016c-1.431-0.064-2.123-0.161-2.83-0.434-3.988-1.544-4.76-6.062-1.608-9.359 0.498-0.531 1.351-1.222 1.897-1.512 0.531-0.306 0.965-0.563 0.965-0.563s0 1.061 0.016 2.364z" fill="#000000"></path>
</svg>
