<?xml version="1.0" encoding="utf-8"?>
<!DOCTYPE svg PUBLIC "-//W3C//DTD SVG 1.1//EN" "http://www.w3.org/Graphics/SVG/1.1/DTD/svg11.dtd">
<svg version="1.1" xmlns="http://www.w3.org/2000/svg" xmlns:xlink="http://www.w3.org/1999/xlink" width="62" height="32" viewBox="0 0 62 32">
<path d="M12.644 6.426c-0.078 0.26-0.39 1.587-0.676 2.94s-0.598 2.68-0.676 2.966c-0.156 0.442-0.026 0.468 1.613 0.39l1.795-0.104-0.078 6.764c-0.026 3.72-0.13 7.545-0.234 8.507-0.13 1.639-0.182 1.769-0.754 1.769-0.39 0-0.624 0.156-0.624 0.39 0 0.312 0.39 0.39 1.951 0.39 1.509 0 1.951-0.078 1.951-0.364 0-0.234-0.312-0.416-0.702-0.468l-0.728-0.078v-16.911l1.665-0.182c0.911-0.104 1.691-0.234 1.743-0.26 0.182-0.208-1.665-5.75-2.003-5.958-0.208-0.13-1.197-0.234-2.237-0.234-1.561 0-1.899 0.078-2.003 0.442z" fill="#000000"></path>
<path d="M20.033 16.702c0 0.494 0.078 1.457 0.156 2.133l0.182 1.197h2.524v3.122l9.626 0.052c5.307 0.026 9.99 0.052 10.407 0.078l0.781 0.052v-1.613c0-1.613 0-1.639 0.806-1.795 0.442-0.078 1.093-0.156 1.431-0.156 0.598 0 0.624-0.078 0.624-1.821v-1.821h-4.241c-2.341 0-8.325-0.078-13.268-0.182l-9.028-0.156v0.911z" fill="#000000"></path>
<path d="M46.231 20.475l-1.769 0.104 0.052 1.535c0.026 0.859 0 1.613-0.052 1.691-0.078 0.052-5.047 0.13-11.031 0.13l-10.927 0.052-0.13-1.665-0.13-1.639-4.111-0.156 0.156 2.393c0.104 1.327 0.182 3.538 0.182 4.969v2.55h30.439v-5.073c0-4.683-0.026-5.073-0.442-5.021-0.26 0.026-1.275 0.078-2.237 0.13z" fill="#000000"></path>
</svg>
