<?xml version="1.0" encoding="utf-8"?>
<!DOCTYPE svg PUBLIC "-//W3C//DTD SVG 1.1//EN" "http://www.w3.org/Graphics/SVG/1.1/DTD/svg11.dtd">
<svg version="1.1" xmlns="http://www.w3.org/2000/svg" xmlns:xlink="http://www.w3.org/1999/xlink" width="32" height="32" viewBox="0 0 32 32">
<path d="M14.56 1.136c-1.28 0.208-3.008 1.12-3.936 2.048-0.896 0.928-1.776 2.464-1.92 3.392l-0.096 0.608-4.688 0.096-0.048 1.392-0.048 1.408h12.624l0.496-0.416c1.36-1.152 0.288-3.376-1.472-3.040-0.752 0.144-1.392 0.896-1.392 1.632v0.544h-2.752l0.064-0.848c0.192-2.304 2.128-4.048 4.448-4.016 1.344 0 2.304 0.464 3.28 1.536 0.864 0.96 1.296 2.192 1.136 3.312-0.144 1.056-0.816 2.32-1.568 2.96-1.2 1.040-1.392 1.056-8.48 1.056h-6.368v18.4h24.32v-18.4h-8.32l0.64-0.848c0.352-0.448 0.72-1.072 0.816-1.36l0.176-0.512h6.688v-2.88h-5.088l-0.336-1.12c-1.024-3.36-4.608-5.536-8.176-4.944z" fill="#000000"></path>
</svg>
