<?xml version="1.0" encoding="utf-8"?>
<!DOCTYPE svg PUBLIC "-//W3C//DTD SVG 1.1//EN" "http://www.w3.org/Graphics/SVG/1.1/DTD/svg11.dtd">
<svg version="1.1" xmlns="http://www.w3.org/2000/svg" xmlns:xlink="http://www.w3.org/1999/xlink" width="32" height="32" viewBox="0 0 32 32">
<path d="M9.456 3.712c-2.24 1.2-1.424 4.608 1.104 4.608 0.992 0 1.76-0.448 2.208-1.296 1.168-2.176-1.136-4.48-3.312-3.312z" fill="#000000"></path>
<path d="M21.36 3.584c-1.296 0.576-1.872 2.112-1.264 3.408 0.848 1.76 3.488 1.792 4.4 0.048 1.088-2.032-1.056-4.384-3.136-3.456z" fill="#000000"></path>
<path d="M7.472 8.928c-0.416 0.256-1.056 1.376-1.776 3.12-0.144 0.336-0.304 0.592-0.368 0.56-0.080-0.032-0.8-0.4-1.6-0.816-0.816-0.416-1.536-0.752-1.616-0.752-0.064 0-0.256 0.256-0.416 0.56-0.224 0.4-0.256 0.608-0.128 0.752 0.096 0.112 1.072 0.672 2.144 1.232 2.48 1.28 2.592 1.28 3.312-0.304 0.288-0.672 0.592-1.12 0.736-1.12 0.208 0 0.24 1.008 0.24 8.24v8.24h2.24v-4.48c0-4.368 0-4.48 0.32-4.48s0.32 0.112 0.32 4.48v4.48h2.24v-8.24c0-8.112 0-8.24 0.32-8.24 0.304 0 0.32 0.128 0.352 3.392l0.048 3.408 0.48 0.096c0.912 0.16 0.88 0.32 0.88-4.608v-4.56l-1.248-1.248h-3.008c-2.576 0-3.088 0.048-3.472 0.288zM12.8 11.12c0 0.176-0.192 0.24-0.8 0.24s-0.8-0.064-0.8-0.24c0-0.176 0.192-0.24 0.8-0.24s0.8 0.064 0.8 0.24z" fill="#000000"></path>
<path d="M18.592 8.96c-0.944 0.576-1.008 0.944-0.96 5.728l0.048 4.272 1.36 0.096v-6.896h0.8v16.48h2.080v-8.96h0.8v8.96h2.064l0.048-0.528 0.048-0.512 2.752-0.080c1.504-0.048 2.768-0.112 2.816-0.16 0.352-0.4 0.432-1.040 0.432-3.504 0-3.648 0-3.648-2-3.728-0.912-0.048-0.96-0.064-1.008-0.496-0.032-0.256-0.24-0.576-0.528-0.784l-0.464-0.352v-4.208c0-5.92 0.224-5.648-4.592-5.648-2.896 0-3.216 0.032-3.696 0.32zM25.6 15.392v3.248l-0.4 0.192-0.4 0.176v-6.848h0.8v3.232zM26.88 19.92c0 0.176-0.176 0.24-0.64 0.24s-0.64-0.064-0.64-0.24c0-0.176 0.176-0.24 0.64-0.24s0.64 0.064 0.64 0.24z" fill="#000000"></path>
</svg>
