<?xml version="1.0" encoding="utf-8"?>
<!DOCTYPE svg PUBLIC "-//W3C//DTD SVG 1.1//EN" "http://www.w3.org/Graphics/SVG/1.1/DTD/svg11.dtd">
<svg version="1.1" xmlns="http://www.w3.org/2000/svg" xmlns:xlink="http://www.w3.org/1999/xlink" width="32" height="32" viewBox="0 0 32 32">
<path d="M19.080 8.427c-0.187 0.093-0.4 0.36-0.493 0.587-0.387 0.947 0.76 1.893 1.613 1.333 0.427-0.28 0.307-0.52-0.213-0.413-0.773 0.173-1.24-0.28-0.92-0.88 0.133-0.253 0.24-0.28 0.747-0.2 0.6 0.080 0.84-0.053 0.533-0.307-0.28-0.24-0.92-0.293-1.267-0.12z" fill="#000000"></path>
<path d="M9.547 9.307c0 0.507 0.053 0.987 0.107 1.067 0.147 0.24 0.347 0.053 0.347-0.32 0-0.28 0.067-0.32 0.467-0.32 0.32 0 0.467-0.067 0.467-0.2s-0.147-0.2-0.467-0.2c-0.373 0-0.467-0.053-0.467-0.267s0.093-0.267 0.467-0.267c0.32 0 0.467-0.067 0.467-0.2 0-0.147-0.16-0.2-0.693-0.2h-0.707l0.013 0.907z" fill="#000000"></path>
<path d="M11.36 9.427c0.040 1 0.267 1.427 0.347 0.667 0.053-0.48 0.28-0.453 0.707 0.067 0.253 0.293 0.413 0.387 0.587 0.32 0.227-0.080 0.213-0.107-0.067-0.413-0.28-0.293-0.28-0.333-0.080-0.627 0.44-0.627 0.107-1.040-0.867-1.040h-0.667l0.040 1.027zM12.467 9.067c0 0.307-0.653 0.267-0.707-0.040-0.040-0.2 0.027-0.24 0.333-0.2 0.227 0.027 0.373 0.12 0.373 0.24z" fill="#000000"></path>
<path d="M13.84 9.333c-0.28 0.507-0.507 0.987-0.507 1.067 0 0.253 0.36 0.133 0.573-0.173 0.16-0.253 0.293-0.293 0.707-0.253 0.32 0.027 0.6 0.16 0.747 0.347 0.16 0.2 0.267 0.24 0.373 0.133s0.013-0.413-0.347-1.093c-0.64-1.28-0.88-1.293-1.547-0.027zM14.933 9.493c0 0.053-0.147 0.107-0.333 0.107-0.373 0-0.4-0.040-0.187-0.427 0.147-0.28 0.16-0.28 0.333-0.040 0.107 0.133 0.187 0.293 0.187 0.36z" fill="#000000"></path>
<path d="M16.16 9.427c0.027 0.813 0.080 1.040 0.24 1.040 0.133 0 0.213-0.147 0.227-0.467 0.013-0.253 0.027-0.547 0.027-0.64 0.013-0.107 0.227 0.080 0.493 0.4 0.867 1.027 0.987 0.987 0.987-0.373 0-0.787-0.040-0.987-0.2-0.987-0.147 0-0.2 0.16-0.2 0.627l-0.013 0.64-0.56-0.64c-0.307-0.347-0.667-0.627-0.8-0.627-0.213 0-0.24 0.12-0.2 1.027z" fill="#000000"></path>
<path d="M20.96 9.427l0.040 1.040 0.667-0.013c0.48 0 0.667-0.053 0.667-0.2 0-0.12-0.16-0.187-0.467-0.2-0.32 0-0.48-0.067-0.507-0.213-0.027-0.173 0.080-0.227 0.467-0.267 0.627-0.053 0.667-0.28 0.053-0.373-0.64-0.093-0.68-0.373-0.067-0.427 0.84-0.067 0.72-0.373-0.147-0.373h-0.747l0.040 1.027z" fill="#000000"></path>
<path d="M14.533 12.467c-1.947 0.547-3.4 2.067-3.92 4.107l-0.173 0.693-4.507 0.040c-3.053 0.013-4.573 0.080-4.693 0.173-0.28 0.24-0.213 0.893 0.093 1.053 0.227 0.12 2.6 0.387 3.493 0.4 0.2 0 0.227 0.093 0.16 0.587-0.16 1.093 0.6 1.987 1.68 1.987 0.987 0 1.733-0.787 1.733-1.813v-0.453l0.907 0.053c2.72 0.2 3.027 0.24 3.027 0.44 0 0.147-0.187 0.213-0.76 0.24-0.427 0.027-0.773 0.067-0.773 0.107 0 0.267 0.773 1.48 1.333 2.093 2.013 2.2 5.387 2.28 7.44 0.187 0.507-0.52 1.493-2.013 1.493-2.253 0-0.053-0.32-0.107-0.707-0.107-0.773 0-0.907-0.067-0.813-0.333 0.053-0.12 0.573-0.213 1.76-0.28 2.307-0.16 2.227-0.16 2.2 0.147-0.107 0.853 0.48 1.72 1.307 1.933 0.44 0.12 0.627 0.107 1.107-0.12 0.76-0.333 1.067-0.88 0.987-1.76l-0.067-0.627 1.080-0.080c2.48-0.2 2.613-0.227 2.84-0.56 0.187-0.293 0.187-0.347-0.013-0.653l-0.213-0.333h-4.547c-3.507 0-4.533-0.040-4.573-0.173-0.693-2.52-1.693-3.8-3.547-4.507-0.973-0.36-2.387-0.44-3.333-0.187zM13.973 16.827l1.36 0.16v0.64c0 0.347-0.040 0.64-0.093 0.64-0.067 0-0.733-0.173-1.507-0.373-1.387-0.373-1.4-0.387-1.44-0.8-0.053-0.493-0.147-0.48 1.68-0.267zM19.573 17.093c-0.040 0.413-0.080 0.427-1.133 0.72-0.6 0.16-1.267 0.333-1.493 0.387l-0.413 0.093v-0.68c0-0.613 0.027-0.68 0.307-0.68 0.453-0.013 1.76-0.16 1.813-0.213 0.027-0.027 0.267-0.053 0.507-0.053 0.427 0 0.453 0.027 0.413 0.427zM7.12 19.413c0.12 0.107 0.213 0.293 0.213 0.387 0 0.253-0.373 0.6-0.627 0.6-0.267 0-0.707-0.387-0.707-0.613 0-0.253 0.387-0.587 0.667-0.587 0.133 0 0.347 0.093 0.453 0.213zM25.707 19.36c0.213 0.213 0.2 0.707-0.027 0.907-0.28 0.213-0.747 0.12-0.96-0.2-0.36-0.547 0.52-1.173 0.987-0.707z" fill="#000000"></path>
</svg>
