<?xml version="1.0" encoding="utf-8"?>
<!DOCTYPE svg PUBLIC "-//W3C//DTD SVG 1.1//EN" "http://www.w3.org/Graphics/SVG/1.1/DTD/svg11.dtd">
<svg version="1.1" xmlns="http://www.w3.org/2000/svg" xmlns:xlink="http://www.w3.org/1999/xlink" width="32" height="32" viewBox="0 0 32 32">
<path d="M1.76 16.16v8.32h28.8v-16.64h-28.8v8.32zM5.28 21.12v0.96h-1.28v-1.92h1.28v0.96zM7.968 21.072c-0.048 0.88-0.064 0.928-0.48 0.976-0.448 0.048-0.448 0.048-0.448-0.912v-0.976h0.976l-0.048 0.912zM10.080 21.12v0.96h-0.96v-1.92h0.96v0.96zM12.32 21.12v0.96h-0.96v-1.92h0.96v0.96zM15.2 21.12c0 0.752-0.048 0.96-0.24 0.96s-0.24-0.208-0.24-0.96c0-0.752 0.048-0.96 0.24-0.96s0.24 0.208 0.24 0.96zM17.6 21.12v0.96h-0.96v-1.92h0.96v0.96zM20.48 21.12v0.96h-0.96v-1.92h0.96v0.96zM24.64 21.12v0.96h-1.28v-1.92h1.28v0.96zM28 21.12v0.96h-0.96v-1.92h0.96v0.96z" fill="#000000"></path>
</svg>
