<?xml version="1.0" encoding="utf-8"?>
<!DOCTYPE svg PUBLIC "-//W3C//DTD SVG 1.1//EN" "http://www.w3.org/Graphics/SVG/1.1/DTD/svg11.dtd">
<svg version="1.1" xmlns="http://www.w3.org/2000/svg" xmlns:xlink="http://www.w3.org/1999/xlink" width="32" height="32" viewBox="0 0 32 32">
<path d="M9.264 0.944c-1.632 0.528-2.48 2.4-1.824 3.984 0.512 1.216 1.408 1.808 2.736 1.808 1.056 0 2.016-0.48 2.512-1.296l0.352-0.56 0.096 0.576c0.048 0.32 0.224 0.816 0.4 1.12l0.32 0.544h-3.76c-3.728 0-3.776 0-4.32 0.384-1.072 0.768-1.136 1.104-1.136 6.656 0 2.768 0.064 5.056 0.16 5.2 0.080 0.128 0.496 0.272 0.992 0.32l0.848 0.080 0.048 5.728 0.032 5.712h5.6v-11.696l0.528 0.048 0.512 0.048 0.048 5.792 0.032 5.808h5.12v-9.44h1.12v9.44h5.76v-9.12h0.64c0.48 0 0.752-0.112 1.056-0.4l0.4-0.4-0.048-5.008c-0.048-4.288-0.080-5.056-0.32-5.472-0.672-1.232-1.472-1.504-4.32-1.52-1.040 0-1.888-0.064-1.888-0.144s0.288-0.112 0.64-0.064c1.968 0.272 3.68-1.68 3.2-3.616-0.368-1.472-1.376-2.256-2.88-2.256-1.056 0-1.84 0.368-2.384 1.136l-0.432 0.592-0.208-0.736c-0.24-0.944-1.152-1.856-2.080-2.112-1.28-0.336-2.576 0.192-3.408 1.44l-0.272 0.4v-0.448c-0.016-0.704-0.608-1.68-1.28-2.112-0.656-0.448-1.904-0.64-2.592-0.416zM19.568 7.968c0.24 0.256 0.128 0.272-2.016 0.224-1.28-0.032-2.336-0.128-2.432-0.224-0.112-0.112 0.032-0.128 0.432-0.064 1.168 0.208 2.8-0.608 3.104-1.552 0.096-0.288 0.16-0.224 0.384 0.496 0.16 0.464 0.384 0.96 0.528 1.12z" fill="#000000"></path>
</svg>
