<?xml version="1.0" encoding="utf-8"?>
<!DOCTYPE svg PUBLIC "-//W3C//DTD SVG 1.1//EN" "http://www.w3.org/Graphics/SVG/1.1/DTD/svg11.dtd">
<svg version="1.1" xmlns="http://www.w3.org/2000/svg" xmlns:xlink="http://www.w3.org/1999/xlink" width="27" height="32" viewBox="0 0 27 32">
<path d="M0.395 13.037c0 6.953 0.119 12.642 0.237 12.642s4.504 0.711 9.719 1.58c5.215 0.909 9.6 1.501 9.719 1.383s0.948-6.519 1.857-14.222l1.62-14.025h-23.151v12.642zM18.173 7.862c0 0.672-0.514 0.751-6.281 1.027-3.477 0.158-6.479 0.158-6.677 0.040s-0.474-0.593-0.593-1.027c-0.198-0.751-0.040-0.79 6.677-0.79 6.439 0 6.874 0.040 6.874 0.751zM18.173 13.432c0 0.435-0.237 0.909-0.474 0.988-0.277 0.079-3.358 0.040-6.835-0.119-5.57-0.237-6.321-0.356-6.439-0.988s0.395-0.672 6.795-0.672c6.716 0 6.953 0.040 6.953 0.79zM17.778 18.37c0.435 0.514-0.316 0.593-6.479 0.593-5.926 0-6.953-0.079-6.953-0.593s0.988-0.593 6.479-0.593c5.254 0 6.558 0.119 6.953 0.593z" fill="#000000"></path>
<path d="M22.756 16.277c-0.83 7.23-1.58 13.235-1.699 13.353-0.119 0.158-14.736-2.094-16.988-2.647-0.711-0.158-0.909-0.040-0.909 0.593 0 0.435 0.316 0.909 0.672 1.027 1.541 0.435 19.042 3.16 19.2 3.002 0.119-0.119 0.83-5.886 1.62-12.84s1.541-13.314 1.659-14.143c0.237-1.383 0.198-1.462-0.909-1.462h-1.146l-1.501 13.116z" fill="#000000"></path>
</svg>
