<?xml version="1.0" encoding="utf-8"?>
<!DOCTYPE svg PUBLIC "-//W3C//DTD SVG 1.1//EN" "http://www.w3.org/Graphics/SVG/1.1/DTD/svg11.dtd">
<svg version="1.1" xmlns="http://www.w3.org/2000/svg" xmlns:xlink="http://www.w3.org/1999/xlink" width="32" height="32" viewBox="0 0 32 32">
<path d="M15.088 2.304c-0.576 1.152-0.592 1.136 0.768 1.312 0.8 0.112 0.816 0.096 1.552-0.608l0.752-0.704 1.264 0.080 1.264 0.096 0.256 0.688 0.24 0.672-0.752 0.768c-0.576 0.576-0.752 0.88-0.752 1.264 0 0.4 0.080 0.512 0.448 0.576 0.32 0.064 0.496 0.016 0.656-0.224 0.208-0.288 1.808-1.424 2.016-1.424 0.048 0 0.064 0.16 0.048 0.368-0.016 0.192 0.112 0.592 0.272 0.864 0.304 0.512 0.304 0.512-0.064 0.912-0.32 0.336-0.352 0.448-0.176 0.656s0.128 0.24-0.304 0.24c-0.528 0-0.608 0.144-0.336 0.656 0.16 0.272 0.032 0.368-1.040 0.896-0.656 0.336-1.2 0.672-1.2 0.768 0 0.080 0.064 0.4 0.144 0.688 0.144 0.48 0.128 0.512-0.224 0.512-0.32 0-0.416-0.112-0.56-0.624-0.16-0.608-0.176-0.608-1.072-0.72-0.752-0.080-0.96-0.064-1.104 0.144-0.128 0.176-0.32 0.224-0.624 0.144-0.336-0.080-0.528 0-0.976 0.432-0.304 0.288-0.544 0.576-0.544 0.656 0 0.064 0.224 0.368 0.48 0.656 0.368 0.416 0.48 0.704 0.48 1.2 0 1.104 0.416 1.28 3.968 1.664l2.992 0.32 1.008 0.672 1.024 0.656-0.224 3.2-4.576 4.64-0.336 1.456c-0.176 0.8-0.336 1.728-0.336 2.064 0 0.352-0.128 0.752-0.32 0.992l-0.32 0.416-0.72-1.552c-1.056-2.272-1.456-3.616-1.776-5.968l-0.272-2.112-1.248-1.072c-0.704-0.576-1.264-1.104-1.264-1.168s0.512-0.704 1.12-1.424l1.136-1.296-0.496-0.688c-0.448-0.624-0.592-0.704-1.696-0.96-1.504-0.352-2-0.624-3.056-1.616-0.464-0.432-0.848-0.752-0.848-0.688s0.144 0.384 0.32 0.736c0.4 0.768 0.4 0.96 0.048 0.96-0.192 0-0.528-0.432-0.976-1.28l-0.704-1.296 0.16-1.184c0.224-1.648-0.032-2.608-0.96-3.552-0.368-0.368-0.768-0.688-0.896-0.688-0.336 0-2.272 2.016-3.056 3.184-0.88 1.28-1.664 2.976-2.096 4.512-0.512 1.792-0.608 4.896-0.192 6.864 1.168 5.632 5.312 9.936 10.992 11.456 1.728 0.448 5.472 0.432 7.28-0.064 5.104-1.376 9.12-5.36 10.592-10.512 0.32-1.12 0.368-1.632 0.352-3.92 0-2.4-0.048-2.768-0.432-4.048-0.704-2.288-1.936-4.448-3.472-6.096-2.512-2.704-6.672-4.576-10.144-4.576h-0.992l-0.496 1.024z" fill="#000000"></path>
</svg>
