<?xml version="1.0" encoding="utf-8"?>
<!DOCTYPE svg PUBLIC "-//W3C//DTD SVG 1.1//EN" "http://www.w3.org/Graphics/SVG/1.1/DTD/svg11.dtd">
<svg version="1.1" xmlns="http://www.w3.org/2000/svg" xmlns:xlink="http://www.w3.org/1999/xlink" width="32" height="32" viewBox="0 0 32 32">
<path d="M14.128 1.52c-3.344 1.664-2.432 6.704 1.28 7.216 0.928 0.128 2.272-0.272 3.024-0.896 1.6-1.328 1.696-4.144 0.192-5.664-1.12-1.12-3.008-1.392-4.496-0.656z" fill="#000000"></path>
<path d="M14.32 9.312c-0.816 0.304-1.312 0.736-1.664 1.456-0.32 0.656-0.336 0.96-0.336 5.2v4.512h9.584l0.16 0.592c0.256 0.896 0.208 3.312-0.080 4.416-0.48 1.872-1.68 3.744-3.152 4.912l-0.8 0.64h9.008v-6.56c0-5.824-0.032-6.624-0.256-6.976-0.48-0.704-0.784-0.784-3.984-0.864l-3.040-0.080-0.080-2.72c-0.096-3.104-0.208-3.472-1.312-4.208-0.592-0.384-0.832-0.432-2.112-0.464-0.8-0.016-1.664 0.048-1.936 0.144z" fill="#000000"></path>
<path d="M9.904 15.824c-2.048 0.784-3.808 2.704-4.56 4.976-0.416 1.28-0.384 3.616 0.064 4.88 0.72 1.952 2.144 3.584 3.904 4.48 1.392 0.688 2.624 0.944 4.128 0.832 4.208-0.288 7.36-3.696 7.36-7.952v-0.96h-4.112c-2.384 0-4.384-0.080-4.736-0.176-1.024-0.272-1.136-0.64-1.232-3.68l-0.080-2.672-0.736 0.272z" fill="#000000"></path>
</svg>
