<?xml version="1.0" encoding="utf-8"?>
<!DOCTYPE svg PUBLIC "-//W3C//DTD SVG 1.1//EN" "http://www.w3.org/Graphics/SVG/1.1/DTD/svg11.dtd">
<svg version="1.1" xmlns="http://www.w3.org/2000/svg" xmlns:xlink="http://www.w3.org/1999/xlink" width="32" height="32" viewBox="0 0 32 32">
<path d="M22.464 1.248c-0.080 0.064-0.64 0.848-1.232 1.76l-1.072 1.648v5.584h1.408c0.88 0 1.472 0.064 1.6 0.192 0.144 0.144 0.192 2.672 0.192 10.4v10.208h5.76v-5.024c0-5.456 0.048-5.216-0.896-5.216h-0.384v-2.368c0-1.632-0.064-2.432-0.192-2.56-0.112-0.112-0.624-0.192-1.2-0.192h-1.008v-10.832l-0.992-1.584c-1.344-2.176-1.504-2.352-1.984-2.016z" fill="#000000"></path>
<path d="M5.408 7.52c-0.224 0.144-0.288 0.4-0.288 1.12v0.96h-1.040c-0.848 0-1.056 0.048-1.2 0.304-0.112 0.224-0.144 3.728-0.128 10.688l0.048 10.368h3.84l0.16-12.32 3.728-0.048 3.712-0.032-0.032-4.448-0.048-4.432-2.16-0.096v-0.832c0-1.344 0.096-1.312-3.312-1.36-1.888-0.016-3.104 0.032-3.28 0.128z" fill="#000000"></path>
<path d="M17.792 11.392c-0.144 0.144-0.192 2.56-0.192 9.92v9.728h4.64v-9.728c0-7.36-0.048-9.776-0.192-9.92-0.128-0.128-0.832-0.192-2.128-0.192s-2 0.064-2.128 0.192z" fill="#000000"></path>
<path d="M7.84 25.36v5.68h8.48v-11.36h-8.48v5.68z" fill="#000000"></path>
</svg>
