<?xml version="1.0" encoding="utf-8"?>
<!DOCTYPE svg PUBLIC "-//W3C//DTD SVG 1.1//EN" "http://www.w3.org/Graphics/SVG/1.1/DTD/svg11.dtd">
<svg version="1.1" xmlns="http://www.w3.org/2000/svg" xmlns:xlink="http://www.w3.org/1999/xlink" width="32" height="32" viewBox="0 0 32 32">
<path d="M11.136 2.032c-0.048 0.16 0.288 1.44 0.752 2.848 0.848 2.528 0.864 2.56 1.328 2.56 0.352 0 0.464-0.080 0.496-0.32 0.016-0.176-0.352-1.44-0.8-2.8-0.784-2.32-0.864-2.48-1.264-2.528-0.288-0.032-0.448 0.032-0.512 0.24z" fill="#000000"></path>
<path d="M22.272 2.912c-0.080 0.112-0.64 1.168-1.216 2.336-1.168 2.32-1.296 2.992-0.592 2.992 0.336 0 0.544-0.32 1.68-2.496 1.104-2.16 1.248-2.544 1.072-2.768-0.256-0.304-0.72-0.336-0.944-0.064z" fill="#000000"></path>
<path d="M2.624 9.2c-0.192 0.48 0.128 0.736 2.496 1.92 1.984 0.992 2.464 1.184 2.72 1.040 0.336-0.176 0.4-0.432 0.192-0.736-0.176-0.272-4.624-2.464-4.992-2.464-0.176 0-0.368 0.112-0.416 0.24z" fill="#000000"></path>
<path d="M14 9.728c-1.92 0.656-3.28 1.872-4.128 3.68-0.912 1.952-0.752 4.496 0.368 6.272 0.544 0.848 1.6 1.888 2.4 2.368 1.632 0.96 4.368 1.104 6.080 0.32 2.496-1.136 4-3.488 4-6.192 0-2.976-1.792-5.456-4.608-6.4-1.232-0.416-2.992-0.432-4.112-0.048z" fill="#000000"></path>
<path d="M27.2 12.064c-2.448 0.832-2.48 0.848-2.48 1.312 0 0.688 0.448 0.656 3.2-0.304 2.368-0.816 2.4-0.832 2.4-1.312 0-0.368-0.080-0.48-0.32-0.512-0.176-0.016-1.44 0.352-2.8 0.816z" fill="#000000"></path>
<path d="M4.16 19.264c-2.432 0.832-2.48 0.848-2.48 1.312 0 0.288 0.096 0.48 0.24 0.496 0.128 0.032 1.392-0.336 2.8-0.784 2.544-0.848 2.56-0.848 2.56-1.328 0-0.368-0.080-0.48-0.32-0.512-0.176-0.016-1.44 0.352-2.8 0.816z" fill="#000000"></path>
<path d="M23.936 20.4c-0.048 0.128-0.048 0.336-0.016 0.432 0.048 0.112 1.184 0.768 2.528 1.456 2.576 1.328 3.056 1.424 2.96 0.608-0.048-0.368-0.352-0.576-2.288-1.568-2.24-1.152-3.008-1.376-3.184-0.928z" fill="#000000"></path>
<path d="M11.264 24.128c-0.096 0.064-0.736 1.216-1.408 2.56-1.008 2-1.2 2.496-1.040 2.688 0.48 0.576 0.832 0.208 2.096-2.256 0.672-1.328 1.232-2.448 1.248-2.512 0-0.128-0.464-0.608-0.608-0.608-0.064 0-0.192 0.064-0.288 0.128z" fill="#000000"></path>
<path d="M18.304 25.024c-0.048 0.128 0.288 1.408 0.768 2.848 0.848 2.592 0.848 2.608 1.328 2.608 0.288 0 0.496-0.096 0.528-0.24 0.016-0.128-0.352-1.392-0.816-2.8-0.8-2.4-0.88-2.56-1.28-2.608-0.272-0.032-0.464 0.032-0.528 0.192z" fill="#000000"></path>
</svg>
