<?xml version="1.0" encoding="utf-8"?>
<!-- Generated by IcoMoon.io -->
<!DOCTYPE svg PUBLIC "-//W3C//DTD SVG 1.1//EN" "http://www.w3.org/Graphics/SVG/1.1/DTD/svg11.dtd">
<svg version="1.1" xmlns="http://www.w3.org/2000/svg" xmlns:xlink="http://www.w3.org/1999/xlink" width="46" height="32" viewBox="0 0 46 32">
<path fill="#444444" d="M6.219 31.696c-0.092-0.023-0.214-0.081-0.272-0.128-0.228-0.185-0.064-2.925 0.242-4.028 0.263-0.949 0.265-1 0.072-1.944-0.232-1.136-1.403-5.85-1.847-7.438-0.785-2.802-1.59-4.758-2.32-5.64-0.494-0.595-0.71-1.011-1.098-2.111-0.195-0.551-0.424-1.183-0.511-1.403-0.2-0.508-0.196-0.843 0.012-1.303 0.161-0.355 0.175-0.364 0.479-0.318 1.338 0.206 5.776 0.117 7.564-0.152 1.046-0.157 2.812-0.642 7.955-2.185 4.877-1.463 4.99-1.511 6.518-2.766 0.491-0.403 0.698-0.522 0.907-0.522 0.502 0 0.565 0.116 0.684 1.26 0.14 1.354 0.434 4.706 0.485 5.517l0.040 0.636-1.685 0.609c-3.257 1.177-6.216 2.399-7.951 3.285-1.684 0.86-2.454 1.794-2.53 3.073-0.034 0.561-0.011 0.696 0.191 1.146 0.307 0.684 0.997 1.343 1.671 1.596 0.728 0.273 3.361 0.895 7.269 1.718 1.884 0.396 3.478 0.748 3.542 0.782 0.135 0.072 1.006 1.985 1.009 2.217 0.002 0.137-0.043 0.151-0.353 0.107-1.426-0.2-2.536-0.249-3.521-0.156-1.054 0.099-1.471 0.198-1.471 0.348 0 0.164 0.45 0.192 1.534 0.096 1.613-0.144 3.118 0.042 4.326 0.533 0.577 0.234 0.745 0.256 0.887 0.114 0.128-0.128 0.019-0.328-0.473-0.87-0.342-0.376-1.261-1.972-1.261-2.188 0-0.071 2.549 0.407 2.629 0.493 0.015 0.016 0.206 0.292 0.425 0.614 0.441 0.648 1.256 1.667 1.532 1.914 0.224 0.201 0.225 0.45 0.002 0.909l-0.176 0.362-2.184 0.351c-2.603 0.419-3.43 0.514-4.468 0.515-0.706 0.001-0.898 0.039-2.047 0.414-1.596 0.52-2.108 0.646-4.735 1.166-1.172 0.232-2.456 0.517-2.854 0.633-0.735 0.214-0.958 0.302-3.997 1.574-2.26 0.946-3.619 1.322-4.219 1.169zM41.937 23.717c-2.55-0.438-17.278-3.477-22.809-4.706-2.943-0.654-3.964-0.933-4.399-1.201-0.424-0.262-0.806-0.889-0.848-1.394-0.050-0.608 0.095-0.968 0.624-1.539 0.377-0.407 0.646-0.59 1.517-1.032 3.051-1.546 9.844-4.1 12.24-4.601 0.305-0.064 0.708-0.096 0.895-0.070 0.614 0.082 0.809-0.126 0.998-1.062 0.188-0.935 0.765-1.566 2.145-2.347 1.697-0.96 2.096-1.615 1.733-2.841-0.268-0.904-0.733-1.242-1.709-1.246-0.954-0.003-2.020 0.431-2.849 1.161-0.426 0.375-0.501 0.4-0.652 0.218-0.259-0.312 0.776-1.257 2.087-1.907 0.691-0.342 0.732-0.352 1.546-0.352 0.889 0 1.191 0.098 1.857 0.605 0.657 0.501 0.964 1.887 0.644 2.917-0.21 0.677-0.961 1.419-2.055 2.031-0.983 0.549-1.668 1.135-1.995 1.706-0.553 0.964-0.228 1.428 1.299 1.851 0.921 0.255 1.23 0.396 1.867 0.85 1.539 1.098 5.688 4.718 8.067 7.037 2.943 2.869 3.335 3.451 2.919 4.328-0.17 0.359-0.922 0.929-1.733 1.313-0.758 0.359-0.834 0.375-1.385 0.28zM39.468 22.52c1.074-0.28 2.241-1.092 2.517-1.753 0.383-0.917-0.188-1.953-2.171-3.931-1.569-1.566-4.717-4.282-6.173-5.328-0.819-0.587-1.245-0.759-2.98-1.203l-1.465-0.374-0.46 0.143c-2.735 0.851-6.576 2.324-8.397 3.221-2.056 1.013-3.048 1.877-3.051 2.657-0.001 0.427 0.972 2.424 1.209 2.48 0.353 0.083 20.127 4.155 20.435 4.208 0.025 0.004 0.266-0.050 0.535-0.12zM26.661 19.181c-1.031-0.222-1.306-0.311-1.408-0.457-0.114-0.163-0.14-0.168-0.267-0.054s-0.425 0.068-2.979-0.453c-1.561-0.319-2.893-0.611-2.96-0.65-0.14-0.081-0.836-1.414-0.838-1.606-0.004-0.325 1.031-1.095 2.387-1.776 1.209-0.607 5.181-2.213 5.261-2.128 0.011 0.012 0.455 1.507 0.987 3.322s1.020 3.479 1.086 3.697c0.066 0.218 0.096 0.393 0.066 0.389s-0.631-0.132-1.336-0.284z"></path>
</svg>
