<?xml version="1.0" encoding="utf-8"?>
<!DOCTYPE svg PUBLIC "-//W3C//DTD SVG 1.1//EN" "http://www.w3.org/Graphics/SVG/1.1/DTD/svg11.dtd">
<svg version="1.1" xmlns="http://www.w3.org/2000/svg" xmlns:xlink="http://www.w3.org/1999/xlink" width="32" height="32" viewBox="0 0 32 32">
<path d="M0.48 11.232c0 0.048 0.272 0.832 0.608 1.744s0.816 2.208 1.056 2.896c0.24 0.672 0.56 1.328 0.704 1.456 0.288 0.256 1.712 0.656 4.592 1.264 1.376 0.288 2.224 0.368 3.888 0.352l2.128-0.032-1.088 1.008-1.088 0.992 1.28 0.112c2.224 0.208 3.104-0.032 5.84-1.584l1.2-0.672 3.44-0.192c6.176-0.352 7.088-0.512 8.048-1.408 0.464-0.464 0.576-1.216 0.224-1.664-0.56-0.72-3.12-2.096-4.4-2.368-1.296-0.272-2.048-0.224-7.104 0.448-6.736 0.912-8.816 1.136-10.448 1.136h-1.456l-4.56-3.376-1.44-0.096c-0.784-0.048-1.424-0.064-1.424-0.016zM12.16 17.040v1.040h-3.040v-2.080h3.040v1.040z" fill="#000000"></path>
</svg>
