<?xml version="1.0" encoding="utf-8"?>
<!DOCTYPE svg PUBLIC "-//W3C//DTD SVG 1.1//EN" "http://www.w3.org/Graphics/SVG/1.1/DTD/svg11.dtd">
<svg version="1.1" xmlns="http://www.w3.org/2000/svg" xmlns:xlink="http://www.w3.org/1999/xlink" width="32" height="32" viewBox="0 0 32 32">
<path d="M15.216 1.152c-0.816 0.224-1.264 0.576-1.696 1.328-0.816 1.376-0.352 3.232 0.976 4.016 1.392 0.816 3.44 0.304 4.144-1.040 0.88-1.712 0-3.824-1.792-4.32-0.704-0.208-0.896-0.208-1.632 0.016z" fill="#000000"></path>
<path d="M12.080 7.424c-0.592 0.256-1.12 0.832-1.344 1.424-0.112 0.288-0.176 2.304-0.176 5.472 0 5.008 0 5.024 0.352 5.264 0.192 0.144 0.624 0.256 0.96 0.256h0.608v11.36h3.040v-10.72h1.12v10.72h2.88v-11.36h0.72c0.512 0 0.816-0.096 1.056-0.336 0.32-0.32 0.32-0.448 0.272-5.408l-0.048-5.088-0.432-0.64c-0.72-1.088-1.056-1.168-5.040-1.168-2.544 0.016-3.616 0.064-3.968 0.224z" fill="#000000"></path>
</svg>
