<?xml version="1.0" encoding="utf-8"?>
<!DOCTYPE svg PUBLIC "-//W3C//DTD SVG 1.1//EN" "http://www.w3.org/Graphics/SVG/1.1/DTD/svg11.dtd">
<svg version="1.1" xmlns="http://www.w3.org/2000/svg" xmlns:xlink="http://www.w3.org/1999/xlink" width="70" height="32" viewBox="0 0 70 32">
<path d="M0.323 0.582c0 0.162 0.711 2.101 1.584 4.299 0.84 2.198 1.745 4.59 1.972 5.301 0.808 2.554 1.648 3.976 2.521 4.331 1.228 0.517 9.697 2.263 13.317 2.747 2.101 0.291 4.040 0.356 6.141 0.194 1.681-0.162 3.135-0.226 3.2-0.162 0.065 0.097-0.97 1.164-2.263 2.392l-2.392 2.263 4.073 0.032c5.010 0 6.141-0.323 10.796-3.006l3.556-2.069 7.919-0.549c10.958-0.776 13.834-1.099 15.612-1.875 3.038-1.325 4.040-3.782 2.23-5.527-1.325-1.293-5.786-3.717-8.113-4.428-3.103-0.97-6.044-0.808-18.424 0.97-14.255 2.036-18.909 2.586-22.4 2.586h-2.844l-4.913-3.62c-4.461-3.265-5.107-3.653-6.723-3.846-2.521-0.323-4.848-0.323-4.848-0.032z" fill="#000000"></path>
<path d="M12.057 30.578c-0.097 0.259-0.032 0.646 0.129 0.808s5.786 0.259 14.19 0.226c13.608-0.097 13.867-0.097 13.867-0.743s-0.259-0.646-13.996-0.743c-12.477-0.065-13.996-0.032-14.19 0.453z" fill="#000000"></path>
</svg>
