<?xml version="1.0" encoding="utf-8"?>
<!DOCTYPE svg PUBLIC "-//W3C//DTD SVG 1.1//EN" "http://www.w3.org/Graphics/SVG/1.1/DTD/svg11.dtd">
<svg version="1.1" xmlns="http://www.w3.org/2000/svg" xmlns:xlink="http://www.w3.org/1999/xlink" width="32" height="32" viewBox="0 0 32 32">
<path d="M3.813 2.467c-0.707 0.253-1.387 0.947-1.56 1.6-0.107 0.36-0.12 1.4-0.067 3.227l0.093 2.707 0.693 1.16c1.907 3.253 6.12 5.853 12.36 7.64 4.293 1.227 5.093 1.48 6.28 1.987 0.667 0.293 1.707 0.827 2.307 1.173 1.427 0.853 3.453 2.853 4.133 4.080 0.28 0.493 0.533 0.88 0.56 0.853 0.027-0.013 0.267-1.12 0.547-2.44 0.44-2.133 0.493-2.6 0.493-4.387 0-1.693-0.040-2.173-0.307-3.107-0.52-1.853-1.573-3.067-2.907-3.333-0.36-0.067-2.613-0.107-5.173-0.093-4.173 0.040-7.053-0.067-9.053-0.307l-0.773-0.093-0.733-2c-0.4-1.107-1.2-3.32-1.773-4.933-1.147-3.187-1.32-3.453-2.387-3.787-0.693-0.2-2.093-0.173-2.733 0.053z" fill="#000000"></path>
<path d="M8.933 3.133c0 0.12 1.867 5.413 2 5.667 0.093 0.147 0.227 0.080 0.64-0.333 1.667-1.667 0.413-5.187-1.92-5.373-0.4-0.027-0.72-0.013-0.72 0.040z" fill="#000000"></path>
<path d="M2.533 13.893c0 0.347 0.253 2.853 0.48 4.707 0.533 4.467 1.52 8.92 2.48 11.173l0.267 0.627h21.84v-0.44c0-1.027-0.707-2.72-1.667-3.96-1.667-2.173-4.507-3.733-8.8-4.867-6.387-1.68-11.107-3.933-13.693-6.547-0.533-0.52-0.907-0.813-0.907-0.693z" fill="#000000"></path>
</svg>
