<?xml version="1.0" encoding="utf-8"?>
<!DOCTYPE svg PUBLIC "-//W3C//DTD SVG 1.1//EN" "http://www.w3.org/Graphics/SVG/1.1/DTD/svg11.dtd">
<svg version="1.1" xmlns="http://www.w3.org/2000/svg" xmlns:xlink="http://www.w3.org/1999/xlink" width="32" height="32" viewBox="0 0 32 32">
<path d="M16.752 2.256c-1.456 0.768-1.968 2.864-1.024 4.272 1.2 1.824 4.016 1.728 5.088-0.192 0.8-1.424 0.24-3.392-1.184-4.080-0.88-0.432-2.064-0.432-2.88 0z" fill="#000000"></path>
<path d="M12.544 6.848c-1.056 0.496-2.368 2.32-4.064 5.648l-0.96 1.872v16.032h5.28v-12.592l1.024-1.696c1.488-2.432 2.16-3.472 2.272-3.472 0.048 0 1.44 0.784 3.104 1.76 1.664 0.96 3.184 1.76 3.36 1.76 0.32 0 0.32 0.080 0.32 6.88v6.88h1.12v-7.248c0.016-5.968 0.048-7.296 0.24-7.632 0.32-0.56 0.288-1.008-0.096-1.504-0.304-0.384-7.152-5.344-8.768-6.352-0.976-0.608-1.984-0.72-2.832-0.336z" fill="#000000"></path>
</svg>
