<?xml version="1.0" encoding="utf-8"?>
<!DOCTYPE svg PUBLIC "-//W3C//DTD SVG 1.1//EN" "http://www.w3.org/Graphics/SVG/1.1/DTD/svg11.dtd">
<svg version="1.1" xmlns="http://www.w3.org/2000/svg" xmlns:xlink="http://www.w3.org/1999/xlink" width="32" height="32" viewBox="0 0 32 32">
<path d="M12.736 10.336c-0.528 0.512-0.24 1.552 0.48 1.728 0.912 0.24 1.504-0.752 1.024-1.68-0.208-0.384-1.152-0.416-1.504-0.048zM13.92 11.040c0 0.448-0.432 0.72-0.72 0.48-0.304-0.256-0.304-0.56 0.016-0.88 0.304-0.288 0.704-0.064 0.704 0.4z" fill="#000000"></path>
<path d="M14.832 10.192c-0.064 0.048-0.112 0.256-0.112 0.448 0 0.256 0.16 0.416 0.608 0.592 0.512 0.208 0.56 0.256 0.288 0.368-0.208 0.096-0.336 0.064-0.384-0.048-0.032-0.112-0.208-0.192-0.384-0.192-0.4 0-0.304 0.336 0.208 0.608 0.544 0.32 1.264 0.016 1.264-0.512 0-0.304-0.128-0.432-0.56-0.576-0.304-0.096-0.56-0.256-0.56-0.336 0-0.208 0.384-0.176 0.592 0.032 0.272 0.272 0.592 0.016 0.352-0.272-0.192-0.224-1.12-0.32-1.312-0.112z" fill="#000000"></path>
<path d="M16.672 11.056c0.272 0.8 0.384 0.96 0.656 0.912 0.304-0.048 0.416-0.272 0.816-1.536 0.096-0.288 0.048-0.352-0.192-0.352-0.224 0-0.352 0.176-0.464 0.672l-0.144 0.688-0.208-0.688c-0.128-0.48-0.272-0.672-0.496-0.672-0.288 0-0.288 0.032 0.032 0.976z" fill="#000000"></path>
<path d="M3.296 12.032c0.064 0.192 0.352 1.232 0.64 2.272 0.512 1.792 0.88 2.656 1.152 2.656 0.064 0 0.864 0.176 1.792 0.4 1.888 0.432 2.144 0.368 1.984-0.48-0.144-0.768 0.144-1.2 0.8-1.2 0.672 0 0.96 0.32 0.848 0.992-0.048 0.4 0.032 0.672 0.352 1.12 0.384 0.56 0.464 0.608 1.264 0.608 0.448 0 0.832 0.048 0.832 0.112-0.016 0.080-0.384 0.416-0.832 0.752-0.992 0.784-0.864 0.864 1.232 0.88 1.104 0 1.6-0.064 2.128-0.304l0.688-0.304 0.144 0.384c0.272 0.704 1.216 0.896 1.792 0.352 0.112-0.096 0.432-0.272 0.688-0.352 0.336-0.112 0.528-0.32 0.64-0.688l0.144-0.512h3.088c3.2 0 3.856-0.112 4.56-0.752 0.464-0.416 0.368-1.072-0.24-1.584-0.928-0.832-2.096-1.472-3.136-1.76-0.976-0.272-1.2-0.272-5.6 0.016-2.512 0.176-5.632 0.32-6.912 0.32h-2.32l-1.68-1.408c-1.856-1.584-1.92-1.616-3.232-1.776-0.928-0.128-0.944-0.112-0.816 0.256z" fill="#000000"></path>
<path d="M9.328 15.952c-0.256 0.096-0.272 0.944-0.032 1.104 0.096 0.048 0.112 0.144 0.032 0.208-0.256 0.176-1.168 1.52-1.168 1.712 0 0.352 0.336 0.416 0.656 0.128 0.496-0.448 0.4 0.016-0.288 1.408l-0.608 1.232-3.152 0.016c-1.728 0-3.184 0.064-3.232 0.128-0.304 0.496 0.128 0.512 14.544 0.48 13.568-0.048 14.4-0.064 14.448-0.336 0.048-0.256-0.48-0.272-9.52-0.272h-9.584l-0.592-1.2c-0.32-0.672-0.592-1.328-0.592-1.472 0-0.24 0.016-0.24 0.288 0 0.16 0.16 0.368 0.272 0.464 0.272 0.416 0 0.304-0.528-0.288-1.344-0.528-0.736-0.608-0.944-0.464-1.2 0.208-0.4 0.208-0.432-0.096-0.72-0.256-0.256-0.464-0.304-0.816-0.144zM10 20.96c0.352 0.688 0.304 0.8-0.4 0.8-0.352 0-0.64-0.048-0.64-0.128 0-0.16 0.608-1.152 0.72-1.152 0.032 0 0.176 0.208 0.32 0.48z" fill="#000000"></path>
</svg>
