<?xml version="1.0" encoding="utf-8"?>
<!DOCTYPE svg PUBLIC "-//W3C//DTD SVG 1.1//EN" "http://www.w3.org/Graphics/SVG/1.1/DTD/svg11.dtd">
<svg version="1.1" xmlns="http://www.w3.org/2000/svg" xmlns:xlink="http://www.w3.org/1999/xlink" width="32" height="32" viewBox="0 0 32 32">
<path d="M25.776 7.536c-1.136 0.224-2.48 0.928-6.032 3.2-6.24 3.968-9.888 6.064-10.576 6.064-0.16 0-1.472-0.256-2.912-0.56l-2.624-0.56-1.328 0.512c-0.736 0.272-1.328 0.528-1.296 0.544 1.152 1.28 4.464 4.464 4.72 4.56 0.272 0.096 1.136-0.016 3.008-0.416 3.392-0.736 4.528-1.088 5.888-1.856 0.608-0.352 1.136-0.592 1.184-0.544 0.048 0.032-0.144 0.592-0.432 1.216-0.272 0.64-0.464 1.184-0.416 1.232 0.128 0.128 2.192-0.72 2.976-1.232 0.736-0.464 1.68-1.504 2.784-3.056 0.352-0.48 0.672-0.896 0.72-0.928 1.344-0.656 7.872-4.256 8.384-4.624 0.896-0.64 1.376-1.376 1.376-2.128 0-0.96-0.32-1.168-2.128-1.424-1.424-0.208-2.288-0.208-3.296 0z" fill="#000000"></path>
<path d="M9.808 24.256c-0.048 0.128-0.016 0.32 0.064 0.4s2.592 0.128 6.304 0.112c6.016-0.048 6.144-0.048 6.144-0.368s-0.128-0.32-6.208-0.368c-5.52-0.032-6.208-0.016-6.304 0.224z" fill="#000000"></path>
</svg>
