<?xml version="1.0" encoding="utf-8"?>
<!DOCTYPE svg PUBLIC "-//W3C//DTD SVG 1.1//EN" "http://www.w3.org/Graphics/SVG/1.1/DTD/svg11.dtd">
<svg version="1.1" xmlns="http://www.w3.org/2000/svg" xmlns:xlink="http://www.w3.org/1999/xlink" width="32" height="32" viewBox="0 0 32 32">
<path d="M12.667 9.4v1h0.72c0.413 0 0.773-0.067 0.853-0.173 0.16-0.187 0.147-1.4-0.013-1.667-0.067-0.093-0.4-0.16-0.84-0.16h-0.72v1zM13.707 8.96c-0.040 0.093-0.147 0.173-0.24 0.173s-0.2-0.080-0.227-0.173c-0.040-0.093 0.053-0.16 0.227-0.16s0.267 0.067 0.24 0.16zM13.84 9.76c-0.093 0.267-0.64 0.307-0.64 0.053 0-0.147 0.12-0.213 0.347-0.213 0.213 0 0.32 0.067 0.293 0.16z" fill="#000000"></path>
<path d="M14.667 8.6c0 0.12 0.12 0.2 0.333 0.2 0.413 0 0.413 0.16 0.013 0.96l-0.307 0.64h0.307c0.253 0 0.4-0.16 0.72-0.8 0.573-1.12 0.547-1.2-0.333-1.2-0.56 0-0.733 0.040-0.733 0.2z" fill="#000000"></path>
<path d="M16.4 8.587c0 0.12 0.16 0.213 0.4 0.24l0.4 0.040-0.387 0.76-0.4 0.773h0.32c0.267 0 0.4-0.147 0.733-0.8 0.573-1.12 0.547-1.2-0.333-1.2-0.547 0-0.733 0.053-0.733 0.187z" fill="#000000"></path>
<path d="M18.133 8.6c0 0.133 0.133 0.2 0.4 0.2 0.48 0 0.493 0.053 0.067 0.733-0.4 0.653-0.413 0.867-0.067 0.867 0.187 0 0.373-0.227 0.667-0.8 0.573-1.12 0.547-1.2-0.333-1.2-0.56 0-0.733 0.040-0.733 0.2z" fill="#000000"></path>
<path d="M14.44 12.453c-0.893 0.293-1.693 0.813-2.373 1.573-0.747 0.827-0.973 1.253-1.267 2.307l-0.227 0.8-4.52 0.067c-2.48 0.040-4.6 0.12-4.68 0.173-0.267 0.173-0.213 1 0.067 1.147 0.12 0.067 0.773 0.16 1.427 0.2 0.667 0.053 1.44 0.12 1.733 0.16l0.533 0.053v0.813c0 0.76 0.027 0.827 0.493 1.267 0.413 0.373 0.613 0.453 1.067 0.453 1.080 0 1.947-0.92 1.8-1.907l-0.053-0.387 1.080 0.080c1.773 0.133 2.813 0.24 2.907 0.307 0.053 0.027 0.053 0.147 0.013 0.253-0.067 0.16-0.227 0.2-0.787 0.16-0.48-0.040-0.72-0.013-0.72 0.093 0 0.333 0.987 1.773 1.64 2.387 1.093 1.027 1.88 1.333 3.493 1.333 1.2 0.013 1.413-0.027 2.107-0.373 0.413-0.2 1.067-0.653 1.427-0.987 0.627-0.587 1.6-2.027 1.6-2.36 0-0.107-0.227-0.133-0.68-0.093-0.64 0.040-0.907-0.067-0.92-0.387 0-0.053 0.493-0.12 1.107-0.173 0.6-0.040 1.52-0.12 2.027-0.16l0.933-0.080 0.013 0.587c0.027 1.027 0.72 1.707 1.747 1.707 1.067 0 1.933-1.12 1.64-2.12-0.107-0.373-0.093-0.4 0.373-0.467 0.28-0.040 1.107-0.107 1.867-0.16 1.187-0.067 1.387-0.12 1.56-0.36 0.253-0.36 0.253-0.507 0.013-0.84-0.187-0.24-0.427-0.253-4.76-0.32l-4.573-0.067-0.147-0.6c-0.44-1.68-1.52-3.053-2.973-3.76-0.787-0.373-1.053-0.427-2.16-0.467-0.813-0.027-1.467 0.027-1.827 0.147zM15.307 16.933c0.107 0 0.16 0.227 0.16 0.68 0 0.493-0.053 0.667-0.16 0.627-0.093-0.040-0.787-0.24-1.533-0.44-1.307-0.36-1.373-0.4-1.373-0.733 0-0.2 0.027-0.387 0.067-0.427 0.040-0.027 0.653 0.013 1.36 0.107 0.72 0.093 1.387 0.173 1.48 0.187zM19.733 17.053c0 0.347-0.053 0.387-1.293 0.733-0.72 0.2-1.413 0.4-1.533 0.427-0.2 0.067-0.24-0.027-0.24-0.6v-0.667l0.573-0.080c1.56-0.2 2.307-0.28 2.4-0.24 0.053 0.027 0.093 0.227 0.093 0.427zM7.2 19.333c0.32 0.32 0.32 0.387 0.053 0.773-0.24 0.347-0.547 0.373-0.88 0.067-0.32-0.293-0.307-0.653 0.053-0.893 0.387-0.267 0.453-0.267 0.773 0.053zM25.707 19.28c0.413 0.28 0.387 0.813-0.053 1.013-0.427 0.2-0.773 0.013-0.827-0.453-0.040-0.307 0.253-0.773 0.48-0.773 0.053 0 0.24 0.093 0.4 0.213z" fill="#000000"></path>
</svg>
