<?xml version="1.0" encoding="utf-8"?>
<!DOCTYPE svg PUBLIC "-//W3C//DTD SVG 1.1//EN" "http://www.w3.org/Graphics/SVG/1.1/DTD/svg11.dtd">
<svg version="1.1" xmlns="http://www.w3.org/2000/svg" xmlns:xlink="http://www.w3.org/1999/xlink" width="32" height="32" viewBox="0 0 32 32">
<path d="M10 9.333v1.067h0.667c0.507 0 0.667-0.053 0.667-0.2 0-0.133-0.147-0.2-0.467-0.2s-0.467-0.067-0.467-0.2c0-0.133 0.147-0.2 0.467-0.2s0.467-0.067 0.467-0.2c0-0.133-0.147-0.2-0.467-0.2-0.373 0-0.467-0.053-0.467-0.267s0.093-0.267 0.467-0.267c0.32 0 0.467-0.067 0.467-0.2 0-0.147-0.16-0.2-0.667-0.2h-0.667v1.067z" fill="#000000"></path>
<path d="M11.827 8.36c-0.133 0.133-0.107 1.173 0.027 1.547 0.173 0.453 0.773 0.64 1.32 0.413 0.24-0.093 0.427-0.28 0.44-0.413 0.053-1.173 0.013-1.573-0.16-1.573-0.133 0-0.213 0.213-0.253 0.72-0.067 0.76-0.307 1.067-0.72 0.907-0.16-0.067-0.213-0.267-0.213-0.893 0-0.573-0.053-0.8-0.173-0.8-0.107 0-0.227 0.040-0.267 0.093z" fill="#000000"></path>
<path d="M14.227 8.36c-0.053 0.040-0.093 0.52-0.093 1.067 0 0.88 0.027 0.973 0.267 0.973 0.2 0 0.267-0.093 0.267-0.333 0-0.187 0.067-0.333 0.147-0.333s0.267 0.147 0.413 0.333c0.147 0.187 0.373 0.333 0.52 0.333 0.32 0 0.32-0.107-0.013-0.467-0.24-0.267-0.253-0.307-0.067-0.467 0.293-0.24 0.24-0.747-0.093-0.987-0.293-0.213-1.187-0.293-1.347-0.12zM15.307 8.947c0.040 0.227-0.307 0.44-0.52 0.307-0.067-0.040-0.12-0.187-0.12-0.333 0-0.2 0.080-0.267 0.293-0.227 0.173 0.027 0.32 0.133 0.347 0.253z" fill="#000000"></path>
<path d="M16.56 8.48c-0.893 0.627-0.467 1.92 0.627 1.92 1.027 0 1.52-1.173 0.76-1.827-0.427-0.36-0.96-0.4-1.387-0.093zM17.627 8.893c0.293 0.267 0.307 0.547 0.013 0.867-0.267 0.293-0.547 0.307-0.867 0.013-0.293-0.267-0.307-0.547-0.013-0.867 0.267-0.293 0.547-0.307 0.867-0.013z" fill="#000000"></path>
<path d="M18.667 9.333c0 0.84 0.040 1.067 0.187 1.067 0.107 0 0.213-0.133 0.24-0.307 0.027-0.213 0.147-0.307 0.44-0.333 0.533-0.067 0.733-0.253 0.733-0.707 0-0.48-0.427-0.787-1.093-0.787h-0.507v1.067zM19.733 8.867c0.213 0.253 0.053 0.467-0.347 0.467-0.227 0-0.32-0.080-0.32-0.24 0-0.453 0.373-0.573 0.667-0.227z" fill="#000000"></path>
<path d="M20.667 9.32v1.080h0.667c0.507 0 0.667-0.053 0.667-0.2 0-0.133-0.147-0.2-0.467-0.2s-0.467-0.067-0.467-0.2c0-0.133 0.147-0.2 0.467-0.2 0.613 0 0.653-0.36 0.040-0.427-0.64-0.053-0.587-0.427 0.067-0.48 0.747-0.067 0.547-0.347-0.28-0.4l-0.693-0.040v1.067z" fill="#000000"></path>
<path d="M14.733 12.453c-1.107 0.267-1.693 0.613-2.6 1.533-0.88 0.893-1.32 1.72-1.547 2.867l-0.080 0.48h-4.507c-3.92 0-4.547 0.027-4.72 0.213-0.253 0.253-0.267 0.587-0.040 0.907 0.147 0.2 0.467 0.267 1.64 0.36 0.8 0.053 1.627 0.107 1.84 0.107 0.36 0.013 0.373 0.040 0.293 0.427-0.2 0.987 0.48 2.013 1.44 2.2 0.96 0.173 1.947-0.693 1.947-1.693 0-0.267 0.027-0.507 0.067-0.533 0.027-0.040 0.613-0.027 1.293 0.027s1.547 0.12 1.907 0.147c0.56 0.040 0.667 0.093 0.667 0.307 0 0.227-0.080 0.253-0.76 0.213l-0.773-0.027 0.213 0.507c0.733 1.733 2.333 3.040 4.16 3.373 2.093 0.373 4.293-0.76 5.48-2.813 0.573-1 0.547-1.080-0.28-1.040-0.627 0.040-0.707 0.013-0.707-0.213 0-0.213 0.107-0.267 0.667-0.307 0.373-0.027 1.227-0.093 1.907-0.147s1.267-0.067 1.293-0.027c0.040 0.027 0.067 0.32 0.067 0.653 0 0.493 0.080 0.667 0.44 1.027 0.587 0.587 1.24 0.707 1.907 0.387 0.76-0.387 1.040-0.84 1.013-1.72-0.013-0.68 0-0.733 0.28-0.733 0.16 0 0.987-0.067 1.827-0.133 1.573-0.133 1.867-0.253 1.867-0.787-0.013-0.613 0-0.613-4.88-0.68l-4.64-0.067-0.147-0.667c-0.48-2.133-2.187-3.8-4.32-4.2-0.893-0.16-1.36-0.16-2.213 0.053zM14.533 16.907l0.867 0.093 0.040 0.627c0.027 0.507 0 0.64-0.173 0.64-0.347 0-2.8-0.707-2.88-0.827-0.040-0.067-0.053-0.267-0.013-0.453 0.053-0.307 0.093-0.32 0.68-0.253 0.333 0.053 1 0.12 1.48 0.173zM19.573 17.093c-0.040 0.427-0.067 0.44-1.307 0.8-1.773 0.507-1.76 0.507-1.707-0.267l0.040-0.627 1.2-0.147c1.92-0.24 1.827-0.253 1.773 0.24zM7.12 19.413c0.4 0.4 0.173 0.987-0.387 0.987-0.36 0-0.6-0.24-0.6-0.6 0-0.56 0.587-0.787 0.987-0.387zM25.707 19.36c0.093 0.093 0.16 0.28 0.16 0.44s-0.067 0.347-0.16 0.44c-0.093 0.093-0.28 0.16-0.44 0.16s-0.347-0.067-0.44-0.16c-0.093-0.093-0.16-0.28-0.16-0.44s0.067-0.347 0.16-0.44c0.093-0.093 0.28-0.16 0.44-0.16s0.347 0.067 0.44 0.16z" fill="#000000"></path>
</svg>
