<?xml version="1.0" encoding="utf-8"?>
<!DOCTYPE svg PUBLIC "-//W3C//DTD SVG 1.1//EN" "http://www.w3.org/Graphics/SVG/1.1/DTD/svg11.dtd">
<svg version="1.1" xmlns="http://www.w3.org/2000/svg" xmlns:xlink="http://www.w3.org/1999/xlink" width="32" height="32" viewBox="0 0 32 32">
<path d="M25.28 4.253l-2.12 2.12-0.68-0.507c-1.573-1.173-3.133-1.667-5.28-1.667-1.653 0.013-2.32 0.16-3.733 0.867-2.053 1.027-3.68 3.387-4.187 6.093-0.107 0.573-0.187 1.053-0.16 1.067 0.013 0.013 0.413 0.067 0.88 0.12l0.867 0.080 0.24-1.040c0.8-3.373 3.067-5.373 6.093-5.387 1.453 0 3.213 0.587 4.2 1.387l0.4 0.333-0.493 0.493-0.48 0.493-0.573-0.48c-0.72-0.627-1.68-0.947-2.853-0.947-1.24-0.013-2.16 0.32-3 1.080-1.893 1.707-2.653 5.267-1.587 7.467l0.293 0.6-11.040 11.040 1.373 1.36 1.36 1.373 7.64-7.64c4.187-4.187 7.68-7.627 7.733-7.627 0.107 0 0.093 0.067-0.253 1.533-0.467 1.973-1.693 4.053-3.080 5.213-0.427 0.36-0.787 0.653-0.813 0.667-0.053 0.027 0.92 1.453 1.027 1.493 0.053 0.013 0.48-0.293 0.947-0.68 2.44-2.013 4.133-5.8 4.133-9.253v-1.053l0.573-0.56c0.307-0.307 0.627-0.56 0.68-0.56 0.067 0 0.080 0.853 0.040 1.893-0.093 2.24-0.467 4.040-1.253 6-1.707 4.187-5.213 7.44-8.040 7.44-0.707 0-1.64-0.373-1.773-0.707-0.080-0.213-1.48-0.56-1.707-0.413-0.2 0.12-0.053 1.040 0.253 1.547 0.267 0.467 1.227 1.093 1.96 1.293 1.667 0.453 4.040-0.187 5.947-1.6 4.053-3 6.773-9.2 6.467-14.72-0.040-0.813-0.133-1.68-0.2-1.947l-0.107-0.493 2.573-2.573c1.427-1.427 2.587-2.64 2.587-2.72 0-0.173-2.427-2.6-2.6-2.6-0.080 0-1.093 0.96-2.253 2.12zM18.867 9.52c0.333 0.2 0.6 0.4 0.6 0.453 0 0.12-4.84 4.96-4.96 4.96-0.147 0-0.373-0.947-0.373-1.627 0-1.147 0.8-3.013 1.6-3.68 0.773-0.667 2.107-0.707 3.133-0.107z" fill="#000000"></path>
</svg>
