<?xml version="1.0" encoding="utf-8"?>
<!DOCTYPE svg PUBLIC "-//W3C//DTD SVG 1.1//EN" "http://www.w3.org/Graphics/SVG/1.1/DTD/svg11.dtd">
<svg version="1.1" xmlns="http://www.w3.org/2000/svg" xmlns:xlink="http://www.w3.org/1999/xlink" width="32" height="32" viewBox="0 0 32 32">
<path d="M6.080 16.080v14.8h1.44v-12.144l0.528-0.4c0.288-0.224 0.96-0.608 1.472-0.848 0.848-0.384 1.152-0.448 2.56-0.448 1.456 0 1.776 0.064 3.648 0.688 4.16 1.392 7.728 1.456 9.84 0.16l0.512-0.32v-13.44l-0.352 0.112c-2.32 0.736-2.56 0.784-5.728 0.784-2.816 0.016-3.328-0.032-5.36-0.448-1.92-0.4-2.48-0.448-3.92-0.368-0.928 0.048-2 0.192-2.384 0.336s-0.72 0.256-0.752 0.256c-0.032 0-0.064-0.8-0.064-1.76v-1.76h-1.44v14.8z" fill="#000000"></path>
</svg>
