<?xml version="1.0" encoding="utf-8"?>
<!DOCTYPE svg PUBLIC "-//W3C//DTD SVG 1.1//EN" "http://www.w3.org/Graphics/SVG/1.1/DTD/svg11.dtd">
<svg version="1.1" xmlns="http://www.w3.org/2000/svg" xmlns:xlink="http://www.w3.org/1999/xlink" width="32" height="32" viewBox="0 0 32 32">
<path d="M9.936 1.888c-0.416 0.208-0.976 0.88-1.072 1.264 0 0.016-0.256-0.048-0.576-0.144-0.432-0.128-0.656-0.112-1.008 0.048-0.912 0.448-0.992 0.72-1.952 6.464-0.816 4.96-0.896 5.648-0.88 7.84 0 2.4 0.224 4.080 0.752 5.872l0.256 0.928h11.472l0.576-0.672c0.32-0.368 0.736-0.992 0.912-1.392 0.192-0.4 0.688-1.104 1.12-1.536 1.008-1.072 1.44-1.952 1.536-3.168 0.064-0.848 0.032-1.056-0.272-1.44-0.256-0.32-0.48-0.432-0.896-0.432-0.768 0-1.088 0.4-1.424 1.728-0.224 0.944-0.384 1.248-0.88 1.696-1.456 1.312-4.192 1.072-5.36-0.448-1.2-1.568-0.368-3.776 1.632-4.352 1.376-0.4 2.384-0.144 4.32 1.072 0.464 0.288 0.544 0.304 1.072 0.080 0.848-0.352 1.008-0.912 0.544-1.84-0.288-0.592-0.544-0.816-1.248-1.184-2.176-1.088-4.704-0.912-6.496 0.448l-0.528 0.4 0.080-0.592c0.352-2.496 1.632-4.208 3.376-4.464 0.736-0.112 1.52 0.064 3.136 0.688 0.688 0.256 0.8 0.272 1.2 0.048 0.336-0.208 0.448-0.384 0.48-0.912 0.048-0.592-0.016-0.704-0.496-1.072-1.2-0.912-1.968-1.136-3.952-1.136-1.568 0-1.952 0.048-2.624 0.368l-0.784 0.352 0.112-0.592c0.24-1.36 0.304-3.040 0.112-3.392s-1.056-0.816-1.488-0.816c-0.112 0-0.448 0.128-0.752 0.288z" fill="#000000"></path>
<path d="M21.168 13.088c0.336 0.352 0.336 0.512 0.064 0.512-0.336 0-0.752 0.544-0.752 0.976 0 0.928 1.056 1.408 1.76 0.784l0.4-0.336-0.592 0.080c-0.4 0.048-0.656 0-0.784-0.16-0.16-0.192-0.064-0.224 0.56-0.224 0.56 0 0.736-0.064 0.736-0.256 0-0.448-0.32-0.864-0.688-0.88-0.192 0-0.256-0.048-0.16-0.096 0.32-0.128-0.064-0.688-0.464-0.688-0.32 0-0.32 0.016-0.080 0.288zM21.888 14.208c0.032 0.112-0.112 0.192-0.368 0.192-0.384 0-0.416-0.032-0.24-0.24 0.224-0.272 0.496-0.256 0.608 0.048z" fill="#000000"></path>
<path d="M23.872 13.584c-0.112 0.064-0.384 0.096-0.608 0.048-0.368-0.064-0.384-0.048-0.384 0.912 0 0.864 0.032 0.976 0.32 0.976 0.224 0 0.32-0.112 0.32-0.368 0-0.608 0.192-1.072 0.416-1.072 0.16 0 0.224 0.208 0.224 0.72 0 0.608 0.048 0.72 0.304 0.72s0.32-0.128 0.368-0.688c0.032-0.464 0.128-0.672 0.288-0.672s0.256 0.208 0.288 0.672c0.048 0.56 0.112 0.688 0.368 0.688s0.304-0.112 0.304-0.768c0-1.136-0.112-1.232-1.312-1.136-0.112 0.016-0.32-0.016-0.448-0.080-0.128-0.048-0.336-0.032-0.448 0.048z" fill="#000000"></path>
<path d="M27.072 13.616c-0.784 0.288-0.864 1.536-0.112 1.872 0.576 0.272 0.784 0.24 1.216-0.144l0.384-0.32-0.592 0.080c-0.4 0.048-0.656 0-0.784-0.16-0.16-0.192-0.064-0.224 0.56-0.224 0.608 0 0.736-0.048 0.736-0.288 0-0.64-0.72-1.072-1.408-0.816zM27.808 14.208c0.032 0.112-0.096 0.192-0.272 0.192-0.336 0-0.432-0.176-0.224-0.384 0.144-0.144 0.416-0.032 0.496 0.192z" fill="#000000"></path>
<path d="M4.288 25.52c-0.56 0.304-0.768 0.704-0.768 1.424s0.512 1.136 1.728 1.392c1.12 0.24 1.472 0.416 1.472 0.704 0 0.624-1.28 0.688-1.6 0.080-0.144-0.256-0.336-0.32-0.976-0.32-0.816 0-0.816 0-0.704 0.432 0.16 0.688 0.672 1.12 1.552 1.328 1.44 0.352 2.864-0.112 3.264-1.056 0.448-1.072-0.128-1.872-1.536-2.144-0.48-0.096-1.040-0.288-1.264-0.416-0.368-0.256-0.384-0.272-0.096-0.48 0.4-0.304 0.608-0.288 1.088 0.096 0.256 0.208 0.64 0.32 1.056 0.32 0.544 0 0.656-0.048 0.656-0.304 0-0.176-0.176-0.528-0.384-0.768-0.368-0.416-0.48-0.448-1.728-0.496-0.96-0.032-1.456 0.032-1.76 0.208z" fill="#000000"></path>
<path d="M10.224 25.648c-0.656 0.432-1.264 1.568-1.264 2.352 0.016 0.832 0.528 1.824 1.136 2.208 1.248 0.752 2.976 0.576 3.824-0.384 0.256-0.304 0.48-0.624 0.48-0.704 0-0.272-1.472-0.176-1.792 0.112-0.432 0.384-1.232 0.336-1.6-0.096-0.592-0.736-0.448-0.816 1.632-0.816h1.92l-0.096-0.688c-0.24-1.552-1.136-2.352-2.704-2.352-0.768 0-1.12 0.080-1.536 0.368zM12.48 26.72c0.528 0.528 0.384 0.64-0.72 0.64-0.592 0-1.040-0.064-1.040-0.16 0-0.304 0.64-0.8 1.040-0.8 0.224 0 0.544 0.144 0.72 0.32z" fill="#000000"></path>
<path d="M15.36 27.92v2.64h1.6v-1.424c0-0.784 0.064-1.616 0.16-1.84 0.208-0.56 0.8-0.832 1.264-0.592 0.32 0.176 0.336 0.32 0.336 2.016v1.84h1.792l-0.064-2.256c-0.048-2.24-0.048-2.256-0.496-2.64-0.608-0.512-1.952-0.544-2.576-0.048l-0.416 0.32v-0.32c0-0.288-0.096-0.336-0.8-0.336h-0.8v2.64z" fill="#000000"></path>
<path d="M22.208 25.52c-0.544 0.304-0.768 0.704-0.768 1.36 0 0.72 0.576 1.2 1.696 1.456 1.152 0.24 1.504 0.4 1.504 0.704 0 0.624-1.28 0.688-1.6 0.080-0.128-0.256-0.336-0.32-0.96-0.32-0.864 0-0.928 0.080-0.56 0.8 0.368 0.704 1.104 1.024 2.32 1.024 1.296 0 2.016-0.336 2.336-1.12 0.448-1.072-0.144-1.888-1.568-2.16-0.528-0.112-1.104-0.32-1.296-0.48l-0.352-0.272 0.448-0.208c0.384-0.176 0.496-0.16 0.912 0.144 0.304 0.224 0.704 0.352 1.12 0.352 0.56 0 0.64-0.048 0.64-0.368 0-0.208-0.192-0.544-0.416-0.768-0.352-0.336-0.592-0.384-1.712-0.432-0.944-0.016-1.44 0.032-1.744 0.208z" fill="#000000"></path>
</svg>
