<?xml version="1.0" encoding="utf-8"?>
<!DOCTYPE svg PUBLIC "-//W3C//DTD SVG 1.1//EN" "http://www.w3.org/Graphics/SVG/1.1/DTD/svg11.dtd">
<svg version="1.1" xmlns="http://www.w3.org/2000/svg" xmlns:xlink="http://www.w3.org/1999/xlink" width="32" height="32" viewBox="0 0 32 32">
<path d="M15.328 1.152c-0.032 0.112-0.288 1.12-0.544 2.24-0.448 2.016-0.464 2.048-0.896 2.048h-0.448v1.456c0 1.312-0.032 1.456-0.32 1.536-0.304 0.080-0.32 0.224-0.32 3.664 0 3.472 0.016 3.584 0.32 3.584 0.32 0 0.32 0.112 0.32 7.76v7.76h5.12v-7.76c0-6.784 0.032-7.76 0.24-7.76s0.24-0.512 0.24-3.6c0-3.056-0.032-3.6-0.24-3.6-0.176 0-0.24-0.304-0.272-1.488-0.048-1.472-0.048-1.472-0.48-1.52-0.416-0.048-0.448-0.128-0.944-2.288l-0.528-2.224h-0.592c-0.32 0-0.624 0.096-0.656 0.192zM16.576 10.64c0.64 0.256 1.088 1.12 0.928 1.76-0.144 0.56-0.944 1.2-1.52 1.2-0.656 0-1.056-0.24-1.344-0.8-0.464-0.912-0.176-1.76 0.784-2.176 0.624-0.256 0.496-0.272 1.152 0.016z" fill="#000000"></path>
</svg>
