<?xml version="1.0" encoding="utf-8"?>
<!DOCTYPE svg PUBLIC "-//W3C//DTD SVG 1.1//EN" "http://www.w3.org/Graphics/SVG/1.1/DTD/svg11.dtd">
<svg version="1.1" xmlns="http://www.w3.org/2000/svg" xmlns:xlink="http://www.w3.org/1999/xlink" width="32" height="32" viewBox="0 0 32 32">
<path d="M7.36 2.64v1.36h0.896c1.136 0 1.504-0.192 1.504-0.8 0-0.256-0.080-0.512-0.16-0.56-0.112-0.064-0.112-0.208 0-0.416 0.128-0.208 0.112-0.4 0-0.624-0.144-0.272-0.336-0.32-1.2-0.32h-1.040v1.36zM8.896 1.936c0.112 0.192-0.192 0.464-0.528 0.464-0.112 0-0.208-0.144-0.208-0.32 0-0.352 0.544-0.448 0.736-0.144zM8.944 2.864c0.304 0.192 0.064 0.496-0.4 0.496-0.272 0-0.384-0.080-0.384-0.32 0-0.336 0.384-0.432 0.784-0.176z" fill="#000000"></path>
<path d="M10.24 2.64c0 1.248 0.032 1.36 0.32 1.36s0.32-0.112 0.32-1.36c0-1.248-0.032-1.36-0.32-1.36s-0.32 0.112-0.32 1.36z" fill="#000000"></path>
<path d="M11.2 1.6c0 0.24 0.112 0.32 0.4 0.32 0.384 0 0.4 0.032 0.4 1.040s0.016 1.040 0.4 1.040c0.384 0 0.4-0.032 0.4-1.040s0.016-1.040 0.4-1.040c0.288 0 0.4-0.080 0.4-0.32 0-0.288-0.112-0.32-1.2-0.32s-1.2 0.032-1.2 0.32z" fill="#000000"></path>
<path d="M15.664 1.712c-0.64 1.664-0.784 2.064-0.784 2.16 0 0.24 0.656 0.128 0.736-0.112 0.064-0.144 0.304-0.24 0.56-0.24 0.272 0 0.512 0.096 0.56 0.24 0.064 0.128 0.272 0.24 0.496 0.24 0.32 0 0.384-0.064 0.288-0.288-0.064-0.144-0.288-0.752-0.512-1.36-0.352-0.912-0.464-1.072-0.784-1.072-0.272 0-0.448 0.128-0.56 0.432zM16.48 2.832c0 0.112-0.112 0.208-0.24 0.208-0.24 0-0.336-0.496-0.128-0.688 0.128-0.128 0.368 0.192 0.368 0.48z" fill="#000000"></path>
<path d="M18.032 1.568c-0.16 0.16-0.272 0.384-0.272 0.48 0 0.272 0.496 0.24 0.704-0.064 0.112-0.144 0.288-0.192 0.464-0.128 0.368 0.128 0.352 0.336-0.048 0.464-0.176 0.048-0.32 0.192-0.32 0.32 0 0.112 0.144 0.24 0.32 0.288s0.32 0.16 0.32 0.256c0 0.32-0.48 0.384-0.784 0.112-0.384-0.352-0.832-0.336-0.704 0.016 0.224 0.688 1.376 0.944 1.872 0.432 0.288-0.272 0.336-0.96 0.096-1.104-0.112-0.064-0.112-0.208-0.016-0.384 0.416-0.752-1.024-1.36-1.632-0.688z" fill="#000000"></path>
<path d="M20.48 1.6c-0.176 0.176-0.32 0.432-0.32 0.56 0 0.32 0.48 0.304 0.72-0.032 0.224-0.304 0.768-0.176 0.624 0.144-0.048 0.112-0.368 0.4-0.704 0.64-0.384 0.272-0.64 0.576-0.64 0.768 0 0.288 0.112 0.32 1.040 0.32s1.040-0.032 1.040-0.32c0-0.256-0.112-0.32-0.592-0.32h-0.608l0.608-0.4c0.4-0.272 0.592-0.528 0.592-0.784 0-0.816-1.136-1.2-1.76-0.576z" fill="#000000"></path>
<path d="M22.88 1.6c-0.224 0.224-0.32 0.528-0.32 1.008 0 0.928 0.352 1.392 1.040 1.392s1.040-0.464 1.040-1.392c0-0.8-0.416-1.328-1.040-1.328-0.224 0-0.544 0.144-0.72 0.32zM24 2.64c0 0.768-0.208 1.024-0.56 0.72-0.288-0.24-0.32-1.136-0.064-1.392 0.352-0.352 0.624-0.032 0.624 0.672z" fill="#000000"></path>
<path d="M13.76 6.336c-0.8 0.16-2.464 0.736-3.264 1.136-6.96 3.488-8.992 12.336-4.256 18.624 1.456 1.936 3.792 3.52 6.4 4.32 1.744 0.544 4.976 0.544 6.72 0 5.456-1.696 8.96-6.336 8.96-11.856-0.016-5.52-3.296-10.016-8.64-11.84-0.832-0.288-1.472-0.368-3.28-0.4-1.232-0.032-2.416-0.016-2.64 0.016zM17.76 8.224c1.552 0.288 2.688 0.752 4.032 1.632 2.096 1.392 3.76 3.776 4.384 6.288 0.352 1.408 0.24 4.192-0.224 5.616-0.992 3.040-3.584 5.632-6.752 6.752-0.88 0.304-1.36 0.352-3.2 0.368-1.936 0-2.272-0.048-3.328-0.432-1.648-0.592-2.784-1.312-4.016-2.544-1.984-2-2.896-4.016-3.024-6.752-0.096-2.192 0.128-3.328 1.008-5.152 1.472-3.040 4.224-5.152 7.52-5.76 1.456-0.272 2.144-0.272 3.6-0.016z" fill="#000000"></path>
<path d="M14.16 9.44c-3.632 0.784-6.448 3.6-7.216 7.2-0.976 4.592 1.792 9.28 6.336 10.736 1.456 0.48 3.984 0.48 5.44 0 2.368-0.752 4.448-2.528 5.504-4.688 1.68-3.392 1.264-7.12-1.104-10.080-0.88-1.104-2.688-2.352-4.096-2.832-1.136-0.4-3.76-0.576-4.864-0.336zM16.496 10.72c0.080 0 0.144 0.816 0.144 1.792-0.016 1.408-0.064 1.872-0.272 2.128-0.24 0.32-0.24 0.32-0.16-0.032 0.048-0.208-0.192-1.104-0.544-2.080-0.336-0.944-0.624-1.728-0.624-1.744 0-0.080 0.88-0.176 1.088-0.112 0.128 0.016 0.288 0.048 0.368 0.048zM14.72 12.64c0.48 1.36 0.56 1.76 0.432 2.080l-0.16 0.4-0.112-0.496c-0.064-0.272-0.592-1.12-1.168-1.872l-1.072-1.36 0.608-0.24c0.32-0.144 0.656-0.24 0.736-0.208 0.080 0.016 0.416 0.784 0.736 1.696zM18.768 11.184c0.080 0.080-0.016 0.704-0.288 1.632-0.512 1.776-0.608 2-1.088 2.24-0.352 0.192-0.352 0.192-0.048-0.144 0.256-0.304 0.272-0.512 0.176-2.208l-0.128-1.872 0.608 0.096c0.336 0.064 0.672 0.16 0.768 0.256zM20.416 12.016c0.304 0.176 0.544 0.4 0.544 0.496 0 0.208-1.936 3.008-2.096 3.008-0.064 0-0.256 0.048-0.416 0.096-0.256 0.096-0.256 0.080 0.032-0.208 0.176-0.176 0.528-1.040 0.8-2.016 0.256-0.944 0.512-1.712 0.544-1.712s0.304 0.144 0.592 0.336zM12.944 13.312c0.864 1.12 1.136 1.584 1.12 1.952l-0.016 0.496-0.192-0.432c-0.112-0.256-0.784-0.848-1.616-1.424-0.8-0.544-1.472-1.024-1.52-1.056-0.064-0.064 0.944-1.008 1.072-1.008 0.016 0 0.544 0.656 1.152 1.472zM22.288 13.808l0.4 0.528-1.488 1.152c-1.056 0.816-1.632 1.152-1.952 1.152l-0.448-0.016 0.432-0.224c0.24-0.144 0.88-0.896 1.424-1.68 0.528-0.8 1.040-1.44 1.104-1.44s0.304 0.24 0.528 0.528zM12.96 15.696c0.24 0.432 0.192 0.544-0.112 0.272-0.16-0.128-1.008-0.448-1.888-0.688-0.88-0.256-1.648-0.496-1.712-0.56-0.064-0.048 0.064-0.352 0.288-0.672l0.432-0.592 1.424 0.976c0.784 0.528 1.488 1.104 1.568 1.264zM23.408 15.904l0.24 0.704-1.664 0.608c-1.424 0.496-1.744 0.56-2.192 0.416l-0.512-0.16 0.448-0.016c0.304-0.016 0.96-0.4 1.92-1.136 0.8-0.624 1.472-1.12 1.488-1.12s0.144 0.32 0.272 0.704zM10.624 16.144c0.912 0.272 1.648 0.576 1.776 0.752 0.256 0.368 0.176 0.496-0.16 0.224-0.176-0.144-0.736-0.176-2.080-0.128-1.328 0.048-1.84 0.016-1.84-0.112 0-0.416 0.368-1.2 0.56-1.2 0.112 0 0.896 0.208 1.744 0.464zM17.088 16.64c1.408 0.864 1.504 2.736 0.192 3.68-1.456 1.040-3.52-0.064-3.52-1.872 0-1.024 1.168-2.128 2.24-2.128 0.304 0 0.8 0.144 1.088 0.32zM23.84 18.304v0.688l-0.832 0.112c-1.568 0.176-2.736 0.112-3.136-0.192l-0.368-0.288 0.528 0.048c0.32 0.032 1.088-0.16 1.968-0.496 0.8-0.288 1.536-0.544 1.648-0.56 0.128-0.016 0.192 0.224 0.192 0.688zM12.096 18.176c0.304 0.24 0.304 0.24-0.032 0.144-0.176-0.048-1.104 0.192-2.112 0.56l-1.792 0.64v-1.6h1.808c1.392 0 1.888 0.064 2.128 0.256zM12.24 19.36c0.304 0.128 0.304 0.144 0.016 0.144-0.176 0.016-0.992 0.528-1.808 1.152-0.832 0.624-1.536 1.12-1.568 1.072-0.032-0.032-0.176-0.336-0.32-0.656-0.224-0.56-0.224-0.608 0.032-0.704 1.392-0.544 3.040-1.136 3.168-1.136 0.096 0 0.304 0.048 0.48 0.128zM21.776 20.016c1.568-0.032 1.904 0 1.904 0.192 0 0.288-0.32 1.232-0.432 1.232-0.176 0-3.040-0.848-3.28-0.976-0.16-0.080-0.368-0.304-0.464-0.512-0.176-0.32-0.176-0.336 0.080-0.112 0.224 0.176 0.704 0.224 2.192 0.176zM12.688 20.688c-0.192 0.112-0.8 0.848-1.344 1.632-0.528 0.8-1.008 1.472-1.040 1.52-0.096 0.096-0.848-0.832-0.864-1.056 0-0.32 2.736-2.304 3.184-2.304 0.416 0.016 0.416 0.016 0.064 0.208zM21.104 21.776c0.976 0.288 1.776 0.576 1.776 0.624s-0.208 0.336-0.448 0.64l-0.448 0.528-1.472-1.008c-1.072-0.736-1.504-1.152-1.616-1.504l-0.176-0.496 0.304 0.352c0.192 0.224 0.896 0.528 2.080 0.864zM13.456 21.712c-0.176 0.256-0.512 1.152-0.752 2-0.256 0.928-0.528 1.568-0.64 1.568s-0.416-0.176-0.656-0.384l-0.448-0.384 0.976-1.424c0.8-1.136 1.424-1.792 1.792-1.808 0.016 0-0.096 0.192-0.272 0.432zM19.712 23.104c0.784 0.528 1.456 1.008 1.504 1.072 0.096 0.16-0.72 0.928-0.976 0.928-0.080 0-0.64-0.64-1.232-1.424-0.784-1.024-1.088-1.552-1.072-1.872l0.016-0.448 0.16 0.4c0.096 0.256 0.736 0.784 1.6 1.344zM14.56 22.304c-0.144 0.192-0.16 0.72-0.080 2.096 0.064 1.008 0.064 1.84 0 1.84-0.368 0-1.36-0.4-1.36-0.544 0-0.528 0.992-3.376 1.232-3.552 0.352-0.256 0.48-0.16 0.208 0.16zM18.16 24.128c0.576 0.72 1.040 1.376 1.040 1.456 0 0.208-1.12 0.56-1.28 0.4-0.080-0.080-0.384-0.832-0.688-1.664-0.448-1.296-0.512-1.6-0.368-2l0.176-0.48 0.048 0.48c0.032 0.304 0.432 0.976 1.072 1.808zM15.856 22.432c-0.096 0.272 0.032 0.832 0.48 2.096 0.352 0.96 0.624 1.776 0.624 1.808 0 0.048-0.336 0.064-0.752 0.032l-0.768-0.048-0.048-1.744c-0.032-1.36 0.016-1.824 0.208-2.112 0.32-0.48 0.432-0.496 0.256-0.032z" fill="#000000"></path>
</svg>
