<?xml version="1.0" encoding="utf-8"?>
<!DOCTYPE svg PUBLIC "-//W3C//DTD SVG 1.1//EN" "http://www.w3.org/Graphics/SVG/1.1/DTD/svg11.dtd">
<svg version="1.1" xmlns="http://www.w3.org/2000/svg" xmlns:xlink="http://www.w3.org/1999/xlink" width="32" height="32" viewBox="0 0 32 32">
<path d="M12.24 9.408c-2.448 0.848-4.192 2.752-4.72 5.184l-0.208 0.928-3.216 0.032-3.216 0.048v0.96l3.216 0.048 3.216 0.032 0.192 0.944c0.256 1.312 0.896 2.48 1.856 3.456 1.36 1.36 3.552 2.256 5.184 2.128l0.64-0.048-3.056-3.248-3.056-3.232h-1.712v-1.104l1.84-0.096 2.928-3.072c1.6-1.696 2.912-3.12 2.912-3.168 0-0.192-2.064-0.048-2.8 0.208z" fill="#000000"></path>
<path d="M14.464 11.472c-1.232 1.312-2.592 2.752-3.008 3.2l-0.784 0.848 5.888-0.032 2.528-2.72c1.408-1.488 2.512-2.736 2.48-2.768-0.080-0.080-3.12-0.672-4.064-0.784l-0.8-0.096-2.24 2.352z" fill="#000000"></path>
<path d="M20.432 12.912l-2.352 2.528 5.52 0.096 1.568-1.632c0.848-0.912 1.552-1.696 1.552-1.744 0-0.16-3.504-1.76-3.84-1.76-0.064 0-1.168 1.136-2.448 2.512z" fill="#000000"></path>
<path d="M26.704 13.872c-1.744 1.824-1.904 1.648 1.536 1.648h3.008l-0.304-0.336c-0.32-0.352-2.96-2.384-3.104-2.384-0.048 0-0.56 0.48-1.136 1.072z" fill="#000000"></path>
<path d="M10.896 16.944c0.128 0.176 1.456 1.616 2.944 3.2l2.72 2.896 1.056-0.080c1.088-0.080 3.44-0.512 3.776-0.704 0.112-0.064-0.784-1.136-2.384-2.864l-2.576-2.752h-2.88c-2.816 0-2.864 0-2.656 0.304z" fill="#000000"></path>
<path d="M18.080 16.736c0 0.064 1.056 1.216 2.352 2.576 2.128 2.24 2.384 2.464 2.784 2.384 0.672-0.128 3.536-1.504 3.472-1.664-0.016-0.080-0.736-0.88-1.584-1.776l-1.536-1.616h-2.736c-1.52 0-2.752 0.048-2.752 0.096z" fill="#000000"></path>
<path d="M25.312 16.784c0.096 0.288 2.368 2.576 2.544 2.576 0.256 0 2.192-1.456 2.848-2.144l0.56-0.576h-3.008c-1.696 0-2.976 0.064-2.944 0.144z" fill="#000000"></path>
</svg>
