<?xml version="1.0" encoding="utf-8"?>
<!DOCTYPE svg PUBLIC "-//W3C//DTD SVG 1.1//EN" "http://www.w3.org/Graphics/SVG/1.1/DTD/svg11.dtd">
<svg version="1.1" xmlns="http://www.w3.org/2000/svg" xmlns:xlink="http://www.w3.org/1999/xlink" width="32" height="32" viewBox="0 0 32 32">
<path d="M24.528 1.632c-0.192 0.096-0.464 0.432-0.592 0.768-0.144 0.352-0.448 0.72-0.784 0.912-1.184 0.704-1.36 2.224-0.416 3.552l0.512 0.72-0.096 2.496c-0.080 2.208-0.384 4.144-0.816 5.28-0.080 0.208 0.256 0.32 1.84 0.608 1.056 0.208 1.952 0.352 1.984 0.32 0.128-0.128 0.704-3.68 0.896-5.488 0.272-2.768 0.048-6.624-0.512-8.768-0.16-0.576-0.176-0.592-0.912-0.576-0.416 0-0.912 0.080-1.104 0.176z" fill="#000000"></path>
<path d="M6.72 16.416c-0.928 0.656-1.68 1.264-1.68 1.36s0.768 0.704 1.728 1.36l1.712 1.2v-2.096h1.92v-0.48c0-0.48 0-0.48-0.96-0.48h-0.944l-0.096-2.048-1.68 1.184z" fill="#000000"></path>
<path d="M15.6 16.272c-1.856 0.144-2.368 0.256-2.656 0.544-0.336 0.336-0.384 0.976-0.144 1.696 0.176 0.48 0.176 0.48 1.728 0.576 1.568 0.096 3.152 0.496 4.192 1.056l0.56 0.304-0.48 0.192c-1.056 0.416-2.592 0.544-4.048 0.336-2.464-0.368-3.504-0.4-3.936-0.128-0.208 0.144-0.592 0.672-0.848 1.184-0.416 0.848-0.448 1.072-0.432 2.608 0 1.408 0.080 1.904 0.464 3.008 0.464 1.392 1.44 2.96 1.872 3.040 0.144 0.032 1.024-0.736 2.16-1.856l1.904-1.904 2.944-1.456c1.632-0.8 3.52-1.648 4.208-1.888 0.672-0.224 1.232-0.448 1.232-0.464 0-0.032 0.32-1.152 0.704-2.496 0.384-1.36 0.736-2.656 0.8-2.88l0.096-0.432-1.808-0.336c-2.48-0.464-6.992-0.832-8.512-0.704z" fill="#000000"></path>
<path d="M22.16 25.104c-1.696 0.72-4.4 2.048-5.392 2.672-0.368 0.24-1.264 1.008-1.968 1.728l-1.28 1.296 3.040 0.048c1.68 0.032 3.264 0 3.536-0.048 0.72-0.128 1.296-0.624 1.728-1.488 0.528-1.072 1.888-4.512 1.824-4.672-0.032-0.080-0.688 0.128-1.488 0.464z" fill="#000000"></path>
</svg>
