<?xml version="1.0" encoding="utf-8"?>
<!DOCTYPE svg PUBLIC "-//W3C//DTD SVG 1.1//EN" "http://www.w3.org/Graphics/SVG/1.1/DTD/svg11.dtd">
<svg version="1.1" xmlns="http://www.w3.org/2000/svg" xmlns:xlink="http://www.w3.org/1999/xlink" width="32" height="32" viewBox="0 0 32 32">
<path d="M13.76 2.608c0 1.36-0.048 1.584-0.48 2.368-0.256 0.48-0.592 1.408-0.72 2.064-0.144 0.656-0.384 1.408-0.528 1.68-0.192 0.336-0.288 1.008-0.352 2.24l-0.080 1.76-2.88 0.080c-3.056 0.080-3.344 0.144-3.856 0.912-0.288 0.416-0.304 0.896-0.352 7.648-0.032 3.952 0 7.52 0.048 7.904 0.080 0.512 0.256 0.864 0.64 1.248l0.528 0.528h10.176c11.040 0 10.768 0.016 11.36-0.864 0.224-0.368 0.256-1.232 0.256-8.176 0-8.528 0-8.464-0.96-8.96-0.368-0.192-1.072-0.24-3.28-0.24h-2.8v-3.040h0.64c0.848 0 1.44-0.544 1.44-1.344 0-0.512-0.096-0.624-1.248-1.424-1.376-0.96-2.192-1.808-2.528-2.608-0.128-0.32-0.224-1.104-0.224-1.904v-1.36h-1.168l0.080 1.744c0.064 1.504 0.128 1.824 0.48 2.432 0.496 0.832 1.648 1.952 2.72 2.624 0.432 0.272 0.768 0.528 0.768 0.592 0 0.272-0.688 0.096-1.488-0.352-1.392-0.784-1.584-0.672-1.712 0.96l-0.080 1.040-0.56 0.048c-0.768 0.080-3.056-0.416-3.664-0.784-0.4-0.24-0.496-0.416-0.496-0.816 0-0.912 0.416-2.304 0.944-3.232 0.496-0.88 0.512-0.96 0.464-2.544l-0.048-1.632-0.512-0.048-0.528-0.048v1.504zM15.68 11.136c1.792 0.336 2.832 0.24 3.312-0.32l0.368-0.432v2.416h-6.56v-2.672l0.768 0.384c0.416 0.208 1.36 0.48 2.112 0.624z" fill="#000000"></path>
</svg>
