<?xml version="1.0" encoding="utf-8"?>
<!DOCTYPE svg PUBLIC "-//W3C//DTD SVG 1.1//EN" "http://www.w3.org/Graphics/SVG/1.1/DTD/svg11.dtd">
<svg version="1.1" xmlns="http://www.w3.org/2000/svg" xmlns:xlink="http://www.w3.org/1999/xlink" width="32" height="32" viewBox="0 0 32 32">
<path d="M22.987 6.547l-3.347 3.347-1.427-0.16c-1.813-0.213-4.493-0.107-6.387 0.267-3.653 0.707-6.787 2.387-9.173 4.893-0.573 0.627-1.053 1.173-1.053 1.227 0 0.227 2.107 2.24 3.147 3.013 0.587 0.44 1.613 1.067 2.267 1.4s1.213 0.613 1.253 0.64c0.027 0.013-1.147 1.24-2.6 2.693l-2.667 2.667 2.467 2.467 3.387-3.387c2.747-2.733 3.44-3.36 3.64-3.28 0.427 0.187 4.987 0.24 6.213 0.080 2.8-0.373 5.453-1.32 7.573-2.707 1.093-0.707 3.587-2.947 3.867-3.467 0.12-0.213-0.053-0.453-1.173-1.547-1.32-1.32-2.867-2.44-4.44-3.227-0.48-0.24-0.893-0.453-0.933-0.493-0.027-0.027 1.133-1.24 2.587-2.693l2.64-2.64-1.227-1.213c-0.667-0.68-1.227-1.227-1.24-1.227s-1.533 1.507-3.373 3.347zM17.147 11.48c0.32 0.080 0.587 0.187 0.587 0.24s-0.24 0.333-0.533 0.613c-0.493 0.48-0.613 0.533-1.24 0.547-0.72 0.013-1.813 0.413-2.267 0.827-0.533 0.48-0.893 1.32-0.987 2.24-0.067 0.827-0.12 0.973-0.547 1.413-0.267 0.28-0.52 0.507-0.587 0.507-0.16 0-0.373-0.96-0.373-1.747 0-2.587 2.080-4.747 4.64-4.773 0.387-0.013 0.973 0.053 1.307 0.133zM10.8 12.12c0 0.080-0.067 0.173-0.133 0.213-0.24 0.147-0.773 1.32-1 2.213-0.32 1.173-0.213 2.72 0.253 3.853l0.347 0.867-0.32 0.32-0.333 0.32-1.133-0.547c-1.56-0.747-2.8-1.573-3.813-2.52l-0.84-0.787 0.973-0.84c1.227-1.053 2.44-1.84 3.8-2.44 1.653-0.733 2.2-0.893 2.2-0.653zM23.613 12.947c1.733 0.84 4.253 2.693 4.253 3.12 0 0.44-2.427 2.28-4.067 3.107-1.093 0.547-2.733 1.12-2.733 0.96 0-0.080 0.147-0.36 0.333-0.64 1-1.507 1.227-3.787 0.56-5.627-0.32-0.92-0.333-1-0.133-1.227 0.307-0.347 0.52-0.307 1.787 0.307zM20.613 15.293c0.333 2.2-0.987 4.493-3.013 5.253-0.6 0.227-0.96 0.267-1.96 0.227-1.573-0.067-1.733-0.2-1.053-0.893 0.467-0.467 0.573-0.52 1.387-0.573 1.080-0.080 1.84-0.44 2.413-1.133 0.493-0.587 0.88-1.76 0.76-2.333-0.067-0.32 0.013-0.48 0.48-0.987 0.507-0.547 0.573-0.587 0.733-0.373 0.093 0.12 0.2 0.493 0.253 0.813z" fill="#000000"></path>
</svg>
