<?xml version="1.0" encoding="utf-8"?>
<!DOCTYPE svg PUBLIC "-//W3C//DTD SVG 1.1//EN" "http://www.w3.org/Graphics/SVG/1.1/DTD/svg11.dtd">
<svg version="1.1" xmlns="http://www.w3.org/2000/svg" xmlns:xlink="http://www.w3.org/1999/xlink" width="32" height="32" viewBox="0 0 32 32">
<path d="M8.2 11.213c-2.413 0.16-5.027 0.84-6.76 1.747-0.747 0.4-0.973 0.64-0.6 0.64 0.107 0 2.667 0.36 5.707 0.8s6.4 0.933 7.48 1.080l1.96 0.28 2.373-0.347c1.307-0.187 4.48-0.64 7.040-1.013 4.333-0.627 5.667-0.867 5.667-1 0-0.147-1.573-0.907-2.627-1.253-3.867-1.307-8.667-1.267-11.52 0.067l-1.013 0.48-0.827-0.413c-1.613-0.827-4.267-1.227-6.88-1.067z" fill="#000000"></path>
<path d="M1.467 14.92c0 0.067 0.467 0.587 1.040 1.173 2.867 2.947 6.467 4.453 11.573 4.853 5.48 0.427 10.747-0.907 13.987-3.56 0.84-0.68 2.16-2.013 2.36-2.373 0.133-0.24 0.093-0.24-0.44-0.16-0.32 0.053-3.613 0.533-7.32 1.067l-6.733 0.973-6.733-0.973c-3.707-0.533-6.96-1-7.227-1.040-0.28-0.053-0.507-0.027-0.507 0.040z" fill="#000000"></path>
</svg>
