<?xml version="1.0" encoding="utf-8"?>
<!DOCTYPE svg PUBLIC "-//W3C//DTD SVG 1.1//EN" "http://www.w3.org/Graphics/SVG/1.1/DTD/svg11.dtd">
<svg version="1.1" xmlns="http://www.w3.org/2000/svg" xmlns:xlink="http://www.w3.org/1999/xlink" width="32" height="32" viewBox="0 0 32 32">
<path d="M11.072 10.432c0.048 0.128 0.416 0.224 0.912 0.256 0.72 0.048 0.848 0.096 0.976 0.448 0.096 0.224 0.16 1.856 0.16 3.616 0 2.688 0.048 3.264 0.24 3.504 0.24 0.24 0.224 0.32-0.144 0.88-0.208 0.352-0.56 0.784-0.752 0.976-0.432 0.448-0.448 1.296-0.048 1.6 1.088 0.784 2.304-0.704 1.248-1.536l-0.4-0.32 0.432-0.64 0.432-0.656h4.256l0.4 0.528c0.432 0.56 0.528 0.912 0.256 0.912-0.080 0-0.272 0.176-0.416 0.4-0.432 0.656 0.064 1.52 0.88 1.52 0.928 0 1.312-1.152 0.576-1.728-0.224-0.176-0.4-0.4-0.4-0.496 0-0.224-6.16-8.8-6.592-9.184-0.4-0.336-2.112-0.4-2.016-0.080z" fill="#000000"></path>
<path d="M23.040 10.64c0 0.16 0.16 0.24 0.448 0.24 0.752 0 0.832 0.208 0.832 2.4v2.016l-0.688 0.496c-1.008 0.704-1.44 1.68-1.36 3.008 0.080 1.264 0.656 2.192 1.728 2.768 0.608 0.32 0.896 0.368 1.792 0.32 1.312-0.064 2.224-0.624 2.816-1.728 0.32-0.608 0.368-0.896 0.32-1.808l-0.064-1.072h0.512c0.272 0 0.576 0.096 0.672 0.208 0.112 0.128 0.208 1.072 0.224 2.208l0.048 1.984 0.608 0.048c0.448 0.032 0.592 0 0.592-0.192 0-0.176-0.144-0.256-0.48-0.256h-0.48v-2.080c0-1.152-0.016-2.096-0.032-2.112-0.032-0.016-1.312-0.064-2.848-0.112l-2.8-0.096-0.080-2.928c-0.080-2.848-0.096-2.944-0.464-3.248-0.448-0.368-1.296-0.416-1.296-0.064z" fill="#000000"></path>
<path d="M2.4 10.88c-0.256 0.256-0.32 0.528-0.32 1.52 0 0.928-0.048 1.2-0.224 1.2-0.128 0-0.272 0.128-0.32 0.288-0.048 0.144-0.256 0.352-0.448 0.432-0.368 0.16-0.368 0.224-0.416 3.088-0.032 2.912 0.048 3.552 0.512 3.552 0.112 0 0.256 0.224 0.32 0.48l0.096 0.48 2.992-0.032c2.944-0.048 3.008-0.048 3.056-0.4 0.032-0.192 0.224-0.464 0.448-0.592l0.384-0.256v-2.944c0-2.928-0.048-3.456-0.352-3.456-0.080 0-0.368-0.208-0.624-0.464-0.416-0.432-0.464-0.576-0.464-1.584 0-1.568-0.096-1.632-2.448-1.632-1.664 0-1.904 0.032-2.192 0.32zM6.528 12.352c0.032 1.024 0 1.248-0.192 1.248-0.144 0-0.336-0.16-0.432-0.368-0.272-0.512-0.448-0.592-1.376-0.592-0.752 0-0.88 0.048-1.2 0.48-0.576 0.8-0.768 0.64-0.768-0.688 0-0.656 0.048-1.232 0.112-1.296 0.064-0.048 0.944-0.080 1.952-0.064l1.856 0.048 0.048 1.232zM5.408 13.392c0.048 0.144-0.192 0.208-0.832 0.208-0.832 0-1.056-0.112-0.784-0.384 0.192-0.176 1.536-0.032 1.616 0.176zM6.848 14.672c0.032 0.144-0.144 0.208-0.576 0.208-0.624 0-0.64 0.016-0.752 0.656-0.064 0.384-0.048 0.704 0.032 0.768 0.096 0.064 0.096 0.592 0 1.408l-0.16 1.328h-0.528c-0.464 0-0.544-0.064-0.544-0.368 0.016-0.752 0.304-2.4 0.448-2.496 0.096-0.048 0.192-0.352 0.208-0.656l0.064-0.56-1.28-0.048c-1.44-0.048-1.744-0.112-1.6-0.352 0.16-0.256 4.592-0.144 4.688 0.112z" fill="#000000"></path>
</svg>
