<?xml version="1.0" encoding="utf-8"?>
<!DOCTYPE svg PUBLIC "-//W3C//DTD SVG 1.1//EN" "http://www.w3.org/Graphics/SVG/1.1/DTD/svg11.dtd">
<svg version="1.1" xmlns="http://www.w3.org/2000/svg" xmlns:xlink="http://www.w3.org/1999/xlink" width="34" height="32" viewBox="0 0 34 32">
<path d="M13.79 0.762c-5.676 1.524-9.905 4.686-12.114 9.029-1.029 2.019-1.105 2.552-1.105 6.21 0 3.771 0.076 4.19 1.219 6.514 4 8.114 14.971 11.81 23.2 7.771 2.743-1.333 5.181-3.886 6.705-6.971 1.219-2.438 1.257-2.705 1.257-7.124 0-4.495-0.038-4.648-1.371-7.429-1.79-3.733-3.543-5.676-6.438-7.2-3.124-1.676-7.162-1.943-11.352-0.8zM17.067 6.171c0.305 0.305 0.457 2.019 0.457 5.143 0 2.59 0.076 4.686 0.19 4.686 0.076 0 1.943-0.838 4.152-1.867 3.352-1.562 4.076-1.79 4.457-1.333 0.686 0.838 0 1.371-5.181 3.771-3.962 1.829-4.838 2.133-5.333 1.714-0.457-0.381-0.571-1.486-0.571-6.057 0-5.257 0.229-6.514 1.143-6.514 0.114 0 0.419 0.19 0.686 0.457z" fill="#000000"></path>
</svg>
