<?xml version="1.0" encoding="utf-8"?>
<!DOCTYPE svg PUBLIC "-//W3C//DTD SVG 1.1//EN" "http://www.w3.org/Graphics/SVG/1.1/DTD/svg11.dtd">
<svg version="1.1" xmlns="http://www.w3.org/2000/svg" xmlns:xlink="http://www.w3.org/1999/xlink" width="32" height="32" viewBox="0 0 32 32">
<path d="M8.048 2.464c-0.784 0.656-2.032 2.64-2.608 4.096-0.96 2.528-1.52 5.152-1.728 8.24-0.112 1.504-0.128 1.6-0.48 1.648l-0.368 0.064 0.032 5.44 0.016 5.44-1.312 1.344 0.768 0.752c0.416 0.416 0.848 0.752 0.944 0.752s0.4-0.272 0.656-0.608l0.48-0.608 1.104 0.064c1.008 0.048 1.136 0.016 1.744-0.416 0.864-0.624 1.232-1.44 1.312-2.848 0.064-1.152 0.064-1.152 0.928-2l0.864-0.848v1.76c0 1.904 0.144 2.576 0.752 3.392 0.528 0.704 1.152 0.992 2.16 0.992 1.056 0 1.888-0.512 2.4-1.488 0.352-0.656 0.368-0.832 0.416-5.696l0.048-5.024 2.592-2.688c1.408-1.472 2.608-2.656 2.64-2.624s0.416 1.44 0.832 3.12c0.768 3.040 0.768 3.056 0.528 3.968-0.128 0.496-0.256 0.928-0.288 0.96-0.016 0.032-0.32-0.112-0.64-0.32-1.2-0.688-2.944-0.288-3.52 0.832-0.4 0.784-1.712 6.272-1.616 6.8 0.224 1.184 1.376 2.144 2.56 2.16 0.704 0 1.808-0.592 2.144-1.168 0.176-0.288 0.688-2.064 1.152-3.952s0.896-3.536 0.944-3.632c0.064-0.112 0.528 1.488 1.040 3.568 0.848 3.392 0.992 3.824 1.456 4.304 0.88 0.944 1.888 1.12 3.040 0.56 0.816-0.4 1.36-1.296 1.36-2.224 0-0.96-1.264-5.872-1.664-6.464-0.752-1.12-2.352-1.488-3.488-0.784-0.32 0.208-0.608 0.304-0.656 0.24-0.032-0.064-0.16-0.496-0.272-0.96-0.176-0.8-0.144-0.976 1.376-6.992l1.552-6.16 0.784-0.896 0.8-0.88-0.784-0.72c-0.416-0.384-0.816-0.704-0.88-0.72-0.048 0-1.328 1.264-2.816 2.816l-2.72 2.8-0.528-2.176c-0.288-1.2-0.576-2.256-0.64-2.352s-0.304-0.112-0.576-0.064l-0.48 0.112 0.672 2.688 0.672 2.704-4.512 4.736-0.080-1.92c-0.064-1.344-0.176-2.064-0.368-2.448-0.192-0.4-0.272-0.944-0.272-2.032v-1.472l-2.144-1.696c-1.184-0.928-2.192-1.696-2.24-1.696s-0.112 1.456-0.144 3.232c-0.032 2.576-0.096 3.376-0.32 3.888-0.224 0.544-0.256 1.344-0.272 5.44v4.816l-1.76 1.728-0.032-9.648-0.048-9.664-0.512 0.432zM13.488 5.44c0.88 0.688 0.912 0.752 0.912 1.456v0.752l-0.64-0.16c-0.432-0.112-0.784-0.112-1.12 0l-0.48 0.176v-1.6c0-1.808-0.096-1.76 1.328-0.624zM24.64 11.36c-0.56 2.208-1.072 3.92-1.136 3.808-0.176-0.352-1.136-4.416-1.088-4.592 0.112-0.288 3.056-3.392 3.152-3.312 0.048 0.048-0.384 1.888-0.928 4.096zM7.52 15.92v0.56h-1.344c-0.752 0-1.392-0.048-1.424-0.128-0.048-0.064-0.048-0.304 0-0.56 0.080-0.432 0.096-0.432 1.424-0.432h1.344v0.56zM20.88 21.056c0.128 0.064 0.352 0.304 0.48 0.544 0.192 0.384 0.16 0.64-0.368 2.736-0.512 2-0.64 2.32-1.008 2.528-0.528 0.288-1.184 0.128-1.52-0.384-0.24-0.384-0.224-0.528 0.32-2.688 0.704-2.672 1.056-3.136 2.096-2.736zM27.424 21.312c0.32 0.288 0.512 0.8 0.896 2.32 0.256 1.072 0.48 2.128 0.48 2.352 0 0.976-1.296 1.424-1.888 0.656-0.272-0.352-1.312-4.016-1.312-4.64 0-0.352 0.72-1.040 1.104-1.040 0.176 0 0.496 0.16 0.72 0.352z" fill="#000000"></path>
</svg>
