<?xml version="1.0" encoding="utf-8"?>
<!DOCTYPE svg PUBLIC "-//W3C//DTD SVG 1.1//EN" "http://www.w3.org/Graphics/SVG/1.1/DTD/svg11.dtd">
<svg version="1.1" xmlns="http://www.w3.org/2000/svg" xmlns:xlink="http://www.w3.org/1999/xlink" width="32" height="32" viewBox="0 0 32 32">
<path d="M10.976 3.216c-4.752 1.136-8.704 2.128-8.8 2.224-0.144 0.144 0.432 2.784 3.2 14.4 0.832 3.472 1.648 6.752 1.824 7.28 0.64 1.936 2.096 3.488 3.712 3.984 0.736 0.224 0.8 0.208 9.728-1.92 4.944-1.168 9.104-2.224 9.216-2.32 0.496-0.416 0.24-0.768-0.944-1.312-0.64-0.288-1.424-0.768-1.744-1.056-0.848-0.752-1.632-2.416-2.16-4.656-0.24-1.056-0.496-1.92-0.56-1.92-0.16 0-0.768 0.976-1.456 2.336-0.672 1.328-1.488 3.696-1.632 4.72-0.080 0.576-0.208 0.784-0.48 0.912-0.352 0.16-0.496 0.016-2.752-3.104-2.304-3.168-2.688-3.92-2.112-4.032 0.192-0.032 0.912 0.8 2.304 2.672 1.12 1.504 2.080 2.736 2.128 2.736 0.064 0 0.288-0.56 0.48-1.248 0.496-1.6 1.744-4.256 2.592-5.456l0.672-0.96-1.792-7.552c-0.976-4.16-1.808-7.616-1.856-7.696-0.048-0.064-0.272-0.128-0.512-0.112-0.24 0-4.32 0.944-9.056 2.080zM19.040 4.496c0 0.096-0.224 0.704-0.496 1.36-0.512 1.216-0.608 1.312-1.664 1.568l-0.48 0.128 0.336-0.384c0.176-0.208 0.496-0.8 0.704-1.328 0.512-1.328 0.512-1.328 1.488-1.504 0.064 0 0.112 0.064 0.112 0.16zM16.48 5.2c0 0.208-0.88 0.56-1.392 0.56-0.256 0-0.384 0.24-0.288 0.528 0.080 0.192 0.224 0.192 0.96 0.016 0.56-0.128 0.912-0.144 0.976-0.032 0.144 0.224 0.016 0.288-0.848 0.512-0.672 0.176-0.768 0.256-0.736 0.608 0.016 0.304-0.064 0.448-0.32 0.512-0.192 0.048-0.368 0.064-0.4 0.032-0.112-0.112-0.512-2.080-0.464-2.24 0.032-0.096 0.512-0.288 1.088-0.432 1.312-0.352 1.424-0.352 1.424-0.064zM13.264 7.040c0.864 0.8 0.992 0.96 0.752 1.056-0.16 0.064-0.528 0.032-0.816-0.080-0.64-0.224-2 0.048-2 0.4 0 0.224-0.608 0.624-0.752 0.48-0.048-0.032 0.16-0.688 0.432-1.44 0.48-1.248 0.56-1.376 0.944-1.376 0.272 0.016 0.752 0.32 1.44 0.96zM14.848 26.176c0.432 1.584 0.416 1.504 0.032 1.504-0.224 0-0.352-0.16-0.464-0.608-0.592-2.224-0.576-2.128-0.336-2.272 0.32-0.208 0.384-0.112 0.768 1.376zM13.344 25.232c0.608 2.048 0.72 2.624 0.48 2.72-0.352 0.128-0.432 0-0.8-1.44-0.256-0.96-0.304-1.344-0.176-1.424 0.288-0.192 0.4-0.144 0.496 0.144zM12.464 26.528c0.416 1.536 0.416 1.792 0.048 1.792-0.224 0-0.352-0.288-0.624-1.392-0.336-1.344-0.304-1.632 0.128-1.648 0.064 0 0.256 0.56 0.448 1.248zM11.344 26.976c0.352 1.376 0.336 1.664-0.048 1.664-0.24 0-0.976-2.624-0.816-2.896 0.272-0.432 0.544-0.048 0.864 1.232z" fill="#000000"></path>
<path d="M11.632 7.2c-0.064 0.224 0 0.32 0.192 0.32 0.4 0 0.528-0.176 0.32-0.432-0.256-0.288-0.416-0.256-0.512 0.112z" fill="#000000"></path>
</svg>
