<?xml version="1.0" encoding="utf-8"?>
<!DOCTYPE svg PUBLIC "-//W3C//DTD SVG 1.1//EN" "http://www.w3.org/Graphics/SVG/1.1/DTD/svg11.dtd">
<svg version="1.1" xmlns="http://www.w3.org/2000/svg" xmlns:xlink="http://www.w3.org/1999/xlink" width="32" height="32" viewBox="0 0 32 32">
<path d="M13.107 8.56c-0.16 0.187-0.973 1.787-0.973 1.907 0 0.16 0.547 0.053 0.613-0.133 0.053-0.133 0.267-0.2 0.6-0.2 0.347 0 0.56 0.067 0.6 0.2 0.080 0.2 0.72 0.293 0.72 0.093 0-0.053-0.227-0.507-0.507-1.027-0.493-0.933-0.787-1.173-1.053-0.84zM13.573 9.44c0.027 0.093-0.040 0.16-0.16 0.16s-0.213-0.093-0.213-0.213c0-0.227 0.293-0.187 0.373 0.053z" fill="#000000"></path>
<path d="M15.16 8.493c-0.347 0.093-0.2 0.36 0.213 0.413 0.4 0.053 0.48 0.227 0.16 0.347-0.293 0.107-0.24 0.44 0.080 0.52 0.44 0.12 0.16 0.387-0.307 0.293-0.333-0.080-0.387-0.053-0.347 0.16 0.027 0.173 0.187 0.253 0.613 0.28 0.48 0.040 0.573 0 0.707-0.28 0.107-0.227 0.107-0.4 0.013-0.573s-0.093-0.347-0.013-0.48c0.093-0.173 0.053-0.307-0.147-0.507-0.253-0.253-0.48-0.307-0.973-0.173z" fill="#000000"></path>
<path d="M16.933 8.653c-0.293 0.227-0.307 0.293-0.173 0.533 0.107 0.173 0.12 0.293 0.040 0.347-0.187 0.12-0.16 0.653 0.027 0.84 0.267 0.267 1.147 0.2 1.4-0.107 0.227-0.253 0.227-0.253 0.4 0 0.187 0.267 0.893 0.36 1.187 0.16 0.773-0.507 0.387-2.027-0.52-2.027-0.4 0-0.893 0.6-0.893 1.093 0 0.333-0.040 0.387-0.133 0.24-0.080-0.107-0.107-0.347-0.067-0.533 0.093-0.44-0.067-0.64-0.547-0.747-0.28-0.053-0.493 0-0.72 0.2zM17.667 8.92c0.093 0.16-0.16 0.32-0.333 0.213-0.147-0.093-0.053-0.333 0.133-0.333 0.067 0 0.147 0.053 0.2 0.12zM19.573 9.507c0.040 0.413 0 0.493-0.227 0.493-0.333 0-0.48-0.427-0.28-0.8 0.213-0.413 0.467-0.253 0.507 0.307zM17.733 9.933c0 0.107-0.12 0.2-0.267 0.2-0.267 0-0.347-0.147-0.173-0.307 0.16-0.173 0.44-0.093 0.44 0.107z" fill="#000000"></path>
<path d="M14.467 12.573c-0.587 0.2-1.547 0.76-2.053 1.213-0.56 0.507-1.307 1.787-1.547 2.68l-0.24 0.867h-4.48c-3.32 0-4.533 0.040-4.653 0.16-0.227 0.227-0.2 0.84 0.053 1.053 0.12 0.093 0.92 0.227 1.96 0.307l1.747 0.147-0.027 0.667c-0.080 1.693 1.68 2.52 2.867 1.333 0.24-0.24 0.453-0.587 0.453-0.76 0.013-0.16 0.027-0.453 0.040-0.64 0.013-0.307 0.053-0.32 0.68-0.28 1.28 0.067 3.16 0.267 3.227 0.333 0.040 0.040 0.040 0.16 0 0.267-0.067 0.16-0.227 0.187-0.76 0.12-0.827-0.093-0.84 0.013-0.2 1.107 0.88 1.48 2.213 2.44 3.827 2.733 0.747 0.133 1 0.12 1.827-0.080 1.2-0.293 2.373-1.053 3.080-1.987 0.453-0.6 0.933-1.507 0.933-1.76 0-0.040-0.32-0.053-0.693-0.027-0.56 0.027-0.707 0-0.747-0.173-0.027-0.16 0.093-0.24 0.4-0.293 0.613-0.107 3.36-0.28 3.44-0.213 0.027 0.027 0.067 0.293 0.080 0.573 0.040 0.64 0.387 1.133 1.040 1.467 0.667 0.333 1.32 0.2 1.92-0.4 0.413-0.413 0.44-0.493 0.413-1.213l-0.040-0.773 1.533-0.107c0.827-0.053 1.693-0.147 1.907-0.2 0.467-0.12 0.653-0.533 0.427-0.973l-0.16-0.32-4.547-0.040-4.56-0.027-0.147-0.573c-0.427-1.693-1.573-3.173-3.013-3.88-0.68-0.333-0.973-0.4-2.12-0.44-0.867-0.027-1.52 0.027-1.867 0.133zM14.067 16.867c1.56 0.16 1.533 0.147 1.533 0.813 0 0.72 0 0.72-1.76 0.227l-1.307-0.36v-0.453c0-0.413 0.027-0.44 0.373-0.373 0.2 0.040 0.72 0.107 1.16 0.147zM19.707 17.093c-0.040 0.427-0.067 0.44-1.307 0.8-1.733 0.507-1.733 0.507-1.733-0.227 0-0.333 0.013-0.6 0.040-0.613s2.573-0.333 2.867-0.373c0.12-0.013 0.16 0.12 0.133 0.413zM7.307 19.36c0.253 0.253 0.187 0.733-0.133 0.96-0.253 0.173-0.333 0.187-0.573 0.027-0.347-0.227-0.413-0.653-0.133-0.933 0.253-0.253 0.613-0.28 0.84-0.053zM25.747 19.333c0.493 0.267 0.24 1.067-0.347 1.067-0.573 0-0.84-0.773-0.36-1.053 0.293-0.173 0.387-0.173 0.707-0.013z" fill="#000000"></path>
</svg>
