<?xml version="1.0" encoding="utf-8"?>
<!DOCTYPE svg PUBLIC "-//W3C//DTD SVG 1.1//EN" "http://www.w3.org/Graphics/SVG/1.1/DTD/svg11.dtd">
<svg version="1.1" xmlns="http://www.w3.org/2000/svg" xmlns:xlink="http://www.w3.org/1999/xlink" width="32" height="32" viewBox="0 0 32 32">
<path d="M12.080 2.848c-1.008 0.464-1.264 0.992-1.36 2.672l-0.080 1.44-3.6 0.080c-3.408 0.080-3.632 0.096-4.096 0.432-1.024 0.736-1.024 0.672-1.024 10.896 0 8.688 0.016 9.264 0.304 9.792 0.16 0.304 0.528 0.72 0.816 0.912l0.528 0.368h25.024l0.544-0.368c1.136-0.752 1.104-0.4 1.104-10.832 0-8.8-0.016-9.392-0.304-9.92-0.16-0.304-0.528-0.72-0.816-0.928-0.512-0.336-0.656-0.352-4-0.352h-3.488l-0.064-1.408c-0.064-1.536-0.288-2.016-1.152-2.64-0.48-0.336-0.672-0.352-4.096-0.4-3.232-0.032-3.664 0-4.24 0.256zM19.792 4.352c0.32 0.304 0.368 0.496 0.368 1.504v1.168l-1.68 0.096-0.352 3.12c-0.448 3.984-0.464 3.664 0.112 3.776 0.352 0.080 0.48 0.192 0.48 0.448 0 0.528-1.104 8.944-1.184 9.024-0.16 0.144-3.456-0.336-3.456-0.512 0.016-0.096 0.288-2.224 0.608-4.736l0.592-4.56 0.512 0.048c0.624 0.064 0.592 0.176 0.928-3.168 0.128-1.36 0.288-2.72 0.32-2.992l0.096-0.512-5.056-0.096-0.048-1.072c-0.048-0.976 0-1.136 0.352-1.488l0.4-0.4h3.312c3.184 0 3.344 0.016 3.696 0.352z" fill="#000000"></path>
</svg>
