<?xml version="1.0" encoding="utf-8"?>
<!DOCTYPE svg PUBLIC "-//W3C//DTD SVG 1.1//EN" "http://www.w3.org/Graphics/SVG/1.1/DTD/svg11.dtd">
<svg version="1.1" xmlns="http://www.w3.org/2000/svg" xmlns:xlink="http://www.w3.org/1999/xlink" width="32" height="32" viewBox="0 0 32 32">
<path d="M13.28 1.136c-2.384 0.304-5.472 1.2-6.784 1.968-0.64 0.368-1.328 1.2-1.6 1.936-0.064 0.176-0.368 2.336-0.672 4.8-0.544 4.432-0.544 4.544-0.544 10.992v6.528h1.92v1.104c0 0.96 0.064 1.184 0.416 1.6 0.88 1.056 3.040 1.056 4.096 0.016 0.4-0.416 0.448-0.56 0.448-1.584v-1.136h11.2v1.088c0 1.28 0.224 1.696 1.184 2.128 0.832 0.384 1.76 0.384 2.592 0 0.96-0.432 1.184-0.848 1.184-2.128v-1.088h1.76v-7.040c0-6.88-0.016-7.136-0.496-10.976-0.256-2.176-0.592-4.224-0.736-4.56-0.512-1.312-2.224-2.304-5.312-3.104-2.48-0.64-6.128-0.864-8.656-0.544zM22.624 4.848c0.176 0.128 0.272 0.368 0.224 0.608l-0.048 0.384-6.592 0.048c-6.288 0.032-6.608 0.016-6.752-0.256-0.112-0.224-0.096-0.4 0.080-0.64 0.24-0.352 0.272-0.352 6.528-0.352 4.912 0 6.336 0.048 6.56 0.208zM24.56 8.32c0.24 0.256 0.384 0.992 0.656 3.248 0.208 1.6 0.4 3.12 0.448 3.36 0.064 0.336 0 0.544-0.304 0.848l-0.384 0.384h-17.6l-0.416-0.368-0.4-0.352 0.448-3.504c0.368-2.928 0.496-3.536 0.752-3.712 0.24-0.192 1.76-0.224 8.4-0.224 7.952 0 8.112 0 8.4 0.32zM9.872 18.544c2.112 0.96 1.248 4.192-1.040 3.968-1.232-0.128-2.176-1.424-1.888-2.576 0.144-0.592 0.864-1.36 1.424-1.52 0.72-0.208 0.752-0.208 1.504 0.128zM24.432 18.656c1.296 0.816 1.232 2.656-0.096 3.536-0.688 0.464-1.424 0.464-2.112 0-1.232-0.816-1.392-2.288-0.368-3.248 0.768-0.736 1.712-0.832 2.576-0.288z" fill="#000000"></path>
</svg>
