<?xml version="1.0" encoding="utf-8"?>
<!DOCTYPE svg PUBLIC "-//W3C//DTD SVG 1.1//EN" "http://www.w3.org/Graphics/SVG/1.1/DTD/svg11.dtd">
<svg version="1.1" xmlns="http://www.w3.org/2000/svg" xmlns:xlink="http://www.w3.org/1999/xlink" width="32" height="32" viewBox="0 0 32 32">
<path d="M13.264 6.064c-0.4 0.416-0.464 0.592-0.464 1.36v0.896h-4.448l-0.832 0.992v11.632l0.768 0.896 15.408 0.096 0.464-0.48 0.48-0.464v-5.92c0-5.584-0.016-5.936-0.304-6.288-0.288-0.368-0.432-0.384-2.608-0.464l-2.288-0.080-0.048-0.912c-0.048-0.784-0.112-0.96-0.528-1.328-0.48-0.384-0.56-0.4-2.816-0.4h-2.32l-0.464 0.464zM18.304 6.656c0.16 0.144 0.256 0.528 0.256 0.96v0.72l-4.88-0.096-0.048-0.608c-0.096-1.104 0.176-1.232 2.464-1.232 1.568 0 2.016 0.048 2.208 0.256z" fill="#000000"></path>
<path d="M2.432 13.696c-1.52 1.056-1.552 0.896 0.336 2.208l1.072 0.752v-1.616h1.36c1.344 0 1.36 0 1.36-0.4s-0.016-0.4-1.344-0.4h-1.36l-0.048-0.72-0.048-0.736-1.328 0.912z" fill="#000000"></path>
<path d="M28.32 13.504v0.736h-1.36c-1.344 0-1.36 0-1.36 0.4 0 0.384 0.032 0.384 1.328 0.432l1.312 0.048 0.048 0.672c0.032 0.384 0.096 0.688 0.144 0.688 0.24 0 2.608-1.808 2.496-1.92-0.144-0.112-2.080-1.456-2.4-1.648-0.16-0.096-0.208 0.048-0.208 0.592z" fill="#000000"></path>
<path d="M10.72 24.784v1.936h10.72v-3.84h-1.12v2.080h-8.464l-0.048-1.008c-0.048-0.992-0.048-0.992-0.56-1.040l-0.528-0.048v1.92z" fill="#000000"></path>
</svg>
