<?xml version="1.0" encoding="utf-8"?>
<!DOCTYPE svg PUBLIC "-//W3C//DTD SVG 1.1//EN" "http://www.w3.org/Graphics/SVG/1.1/DTD/svg11.dtd">
<svg version="1.1" xmlns="http://www.w3.org/2000/svg" xmlns:xlink="http://www.w3.org/1999/xlink" width="32" height="32" viewBox="0 0 32 32">
<path d="M15.76 9.664c-0.128 0.304-0.24 0.64-0.24 0.736 0 0.080-0.352 0.16-0.784 0.16-0.48 0-0.848 0.080-0.96 0.224-0.16 0.192-0.080 0.32 0.448 0.672 0.72 0.48 0.736 0.496 0.464 1.376-0.256 0.88-0.032 1.024 0.816 0.464l0.704-0.464 0.64 0.464c0.832 0.608 1.056 0.432 0.784-0.608-0.176-0.64-0.176-0.768 0.048-0.88 0.56-0.32 1.088-0.88 0.976-1.056-0.064-0.112-0.48-0.192-0.944-0.192h-0.848l-0.224-0.672c-0.304-0.864-0.592-0.944-0.88-0.224z" fill="#000000"></path>
<path d="M15.584 14.88c-0.32 0.128-1.12 1.072-1.008 1.2 0.032 0.032 0.336 0.096 0.656 0.16 0.544 0.096 0.608 0.080 0.688-0.288 0.064-0.208 0.080-0.576 0.048-0.8-0.032-0.32-0.096-0.368-0.384-0.272z" fill="#000000"></path>
<path d="M16.592 14.992c-0.064 0.048-0.112 0.352-0.112 0.672v0.576l0.496-0.512c0.272-0.272 0.448-0.576 0.4-0.672-0.128-0.192-0.624-0.24-0.784-0.064z" fill="#000000"></path>
<path d="M13.888 15.376c-0.16 0.080-0.288 0.224-0.288 0.304 0 0.272 0.4 0.176 0.608-0.16 0.208-0.352 0.112-0.4-0.32-0.144z" fill="#000000"></path>
<path d="M15.216 18.144c-2.272 2.272-2.752 2.832-2.672 3.104 0.128 0.384 1.28 1.472 1.584 1.472 0.112 0 1.456-1.248 2.976-2.784l2.784-2.784-0.288-0.448c-0.352-0.544-1.216-1.344-1.44-1.344-0.096 0-1.408 1.248-2.944 2.784z" fill="#000000"></path>
<path d="M12.496 16.8c-0.192 0.352-0.416 0.864-0.496 1.12-0.128 0.432-0.096 0.496 0.256 0.576 0.528 0.128 0.864-0.016 0.864-0.384 0-0.176 0.112-0.624 0.24-1.008 0.192-0.544 0.208-0.704 0.048-0.816-0.368-0.224-0.544-0.128-0.912 0.512z" fill="#000000"></path>
<path d="M0.8 16.72c0 0.432 0.352 1.008 0.752 1.184 0.24 0.112 1.824 0.176 4.528 0.176h4.144l0.16-0.608c0.096-0.32 0.176-0.688 0.176-0.8 0-0.144-1.088-0.192-4.88-0.192-4.16 0-4.88 0.032-4.88 0.24z" fill="#000000"></path>
<path d="M21.328 16.704c0.048 0.128 0.144 0.496 0.208 0.816l0.096 0.576 4.368-0.048c4.032-0.048 4.4-0.064 4.704-0.352 0.192-0.176 0.336-0.496 0.336-0.768v-0.448h-4.896c-4.176 0-4.88 0.032-4.816 0.224z" fill="#000000"></path>
<path d="M13.856 17.456c-0.304 1.024-0.32 1.264-0.048 1.264 0.224 0 1.984-1.712 1.856-1.808-0.032-0.048-0.4-0.128-0.816-0.176l-0.752-0.112-0.24 0.832z" fill="#000000"></path>
<path d="M19.52 18.32l-0.544 0.56h0.576c0.688 0 0.8-0.112 0.64-0.704l-0.112-0.432-0.56 0.576z" fill="#000000"></path>
<path d="M3.12 19.152c0.24 0.992 0.304 1.008 3.872 1.008h3.248v-1.44h-7.232l0.112 0.432z" fill="#000000"></path>
<path d="M21.76 18.944c0 0.112-0.048 0.448-0.096 0.72l-0.096 0.496h3.296c3.088 0 3.312-0.016 3.616-0.32 0.176-0.176 0.32-0.496 0.32-0.72v-0.4h-3.52c-2.88 0-3.52 0.032-3.52 0.224z" fill="#000000"></path>
<path d="M11.84 19.344c0 0.176 0.080 0.512 0.16 0.752l0.176 0.432 0.384-0.368c0.496-0.464 0.512-0.896 0.048-1.024-0.608-0.16-0.768-0.112-0.768 0.208z" fill="#000000"></path>
<path d="M18.976 20.032c-0.064 0.384-0.144 0.848-0.208 1.040-0.064 0.304-0.016 0.368 0.336 0.368 0.512 0 0.896-0.544 1.008-1.44l0.096-0.64h-0.56c-0.544 0-0.576 0.032-0.672 0.672z" fill="#000000"></path>
<path d="M17.536 20.304l-0.752 0.768 0.592 0.096c0.32 0.064 0.656 0.064 0.72 0.016 0.144-0.080 0.384-1.488 0.272-1.584-0.032-0.048-0.416 0.272-0.832 0.704z" fill="#000000"></path>
<path d="M5.456 21.472c0.24 0.88 0.432 0.928 3.216 0.928h2.528l-0.704-1.44h-5.2l0.16 0.512z" fill="#000000"></path>
<path d="M21.12 21.552c-0.128 0.336-0.256 0.656-0.288 0.72-0.032 0.080 1.088 0.128 2.496 0.128h2.576l0.32-0.416c0.192-0.24 0.336-0.56 0.336-0.72 0-0.288-0.176-0.304-2.608-0.304h-2.608l-0.224 0.592z" fill="#000000"></path>
<path d="M16.224 21.744c-0.032 0.032-0.064 0.384-0.064 0.768 0 0.608 0.048 0.688 0.368 0.688 0.192 0 0.432-0.064 0.528-0.128 0.24-0.176 0.704-0.88 0.704-1.088 0-0.176-1.376-0.4-1.536-0.24z" fill="#000000"></path>
<path d="M18.272 22.32c-0.192 0.4-0.192 0.4 0.208 0.144 0.432-0.288 0.528-0.544 0.192-0.544-0.128 0-0.304 0.176-0.4 0.4z" fill="#000000"></path>
<path d="M15.152 22.688c-0.272 0.288-0.272 0.32-0.016 0.416 0.352 0.128 0.416 0.048 0.352-0.384-0.048-0.352-0.048-0.352-0.336-0.032z" fill="#000000"></path>
</svg>
