<?xml version="1.0" encoding="utf-8"?>
<!DOCTYPE svg PUBLIC "-//W3C//DTD SVG 1.1//EN" "http://www.w3.org/Graphics/SVG/1.1/DTD/svg11.dtd">
<svg version="1.1" xmlns="http://www.w3.org/2000/svg" xmlns:xlink="http://www.w3.org/1999/xlink" width="32" height="32" viewBox="0 0 32 32">
<path d="M7.056 1.552c-0.72 2.736-0.8 7.792-0.208 11.568 0.208 1.28 0.4 2.352 0.432 2.384s0.736-0.064 1.552-0.208c0.816-0.144 1.712-0.304 1.984-0.336l0.496-0.080-0.224-1.008c-0.112-0.544-0.288-2.144-0.384-3.552-0.176-2.736-0.176-2.768 0.576-4 0.784-1.264 0.432-2.96-0.704-3.424-0.32-0.144-0.544-0.416-0.736-0.912-0.32-0.864-0.608-1.024-1.744-1.024h-0.88l-0.16 0.592z" fill="#000000"></path>
<path d="M17.888 3.472l-0.048 1.568-2.144 0.096 1.28 1.824c0.72 1.008 1.344 1.872 1.424 1.92 0.064 0.032 0.704-0.768 1.424-1.808l1.312-1.872-2.096-0.096v-3.184h-1.104l-0.048 1.552z" fill="#000000"></path>
<path d="M14.16 15.616c-0.352 0.048-1.936 0.256-3.52 0.464-1.6 0.224-2.944 0.4-3.008 0.4-0.224 0-0.096 0.608 0.72 3.456l0.832 2.912 1.68 0.672c2.64 1.056 6.432 2.96 7.504 3.76 0.544 0.416 1.616 1.424 2.4 2.256s1.536 1.504 1.664 1.504c0.352 0 1.024-0.944 1.648-2.288 1.2-2.656 1.312-5.456 0.272-7.36-0.672-1.264-1.296-1.44-3.6-0.992-1.648 0.32-4.128 0.304-5.2 0-0.464-0.144-0.832-0.304-0.832-0.384 0-0.224 1.856-0.976 2.992-1.216 0.608-0.128 1.632-0.24 2.304-0.24 1.328 0 1.28 0.032 1.6-1.040 0.224-0.72-0.080-1.456-0.704-1.68-0.512-0.192-5.44-0.352-6.752-0.224z" fill="#000000"></path>
<path d="M9.76 24.4c0 0.144 1.392 3.616 1.904 4.752s1.2 1.824 1.984 1.968c0.288 0.048 1.984 0.080 3.792 0.048l3.28-0.048-1.184-1.248c-1.744-1.824-3.68-3.008-7.92-4.816-1.776-0.768-1.856-0.784-1.856-0.656z" fill="#000000"></path>
</svg>
