<?xml version="1.0" encoding="utf-8"?>
<!DOCTYPE svg PUBLIC "-//W3C//DTD SVG 1.1//EN" "http://www.w3.org/Graphics/SVG/1.1/DTD/svg11.dtd">
<svg version="1.1" xmlns="http://www.w3.org/2000/svg" xmlns:xlink="http://www.w3.org/1999/xlink" width="32" height="32" viewBox="0 0 32 32">
<path d="M16.272 1.776c-1.472 0.224-2.928 0.992-4.112 2.208l-1.040 1.072-0.88-0.896c-1.008-1.008-2.096-1.648-3.44-2-0.96-0.24-2.336-0.288-3.2-0.096-0.432 0.096-0.48 0.16-0.432 0.656 0.016 0.304 0.064 0.56 0.080 0.576s0.432-0.032 0.912-0.128c1.12-0.208 2.48 0.048 3.696 0.704 0.88 0.464 2.288 1.728 1.696 1.52-1.392-0.496-3.456-0.416-5.072 0.192-0.864 0.32-2.72 1.648-2.72 1.92 0 0.096 0.208 0.304 0.464 0.48l0.448 0.32 0.464-0.48c0.256-0.272 0.912-0.704 1.472-0.976 1.296-0.64 3.024-0.784 4.416-0.384 0.512 0.16 0.896 0.304 0.848 0.352-0.032 0.048-0.528 0.144-1.088 0.24-2.256 0.368-4.368 1.92-5.392 3.968-0.592 1.2-0.656 1.776-0.208 1.776 0.176 0 0.416 0.048 0.56 0.096 0.16 0.064 0.256 0.016 0.256-0.128 0-0.128 0.224-0.672 0.48-1.2 0.864-1.744 2.752-3.12 4.576-3.344l0.784-0.096-0.768 0.512c-0.864 0.592-1.76 1.568-2.208 2.432-0.16 0.336-0.304 0.624-0.304 0.672 0 0.032 0.224 0.144 0.512 0.24 0.544 0.192 0.56 0.176 0.992-0.624 0.256-0.464 1.632-1.792 2.144-2.064l0.352-0.192v3.248l-0.016 3.248-2.24 1.504c-2 1.344-2.24 1.552-2.192 1.92l0.048 0.416 4.4 0.096v5.712l-0.544 0.096c-0.288 0.064-1.072 0.384-1.712 0.72-0.656 0.336-1.424 0.672-1.696 0.736-0.464 0.096-0.528 0.16-0.528 0.656s0.032 0.544 0.48 0.544c0.272 0 1.184-0.32 2.048-0.704 0.848-0.384 1.776-0.752 2.064-0.816 0.64-0.128 1.664 0.144 2.496 0.672 0.896 0.56 1.824 0.864 2.768 0.896 0.672 0.016 1.088-0.112 2.32-0.72 2.064-1.024 3.104-1.072 4.496-0.24 1.392 0.848 1.408 0.848 1.408 0.064-0.016-0.64-0.048-0.688-0.928-1.232-0.784-0.48-1.072-0.56-2.128-0.608-0.848-0.048-1.376 0.016-1.808 0.192-0.336 0.144-0.64 0.256-0.672 0.256s-0.064-1.408-0.064-3.12v-3.12h5.68c5.36 0 5.68-0.016 5.824-0.304 0.112-0.208 0.112-0.368-0.032-0.544s-10.784-7.344-11.904-8.016c-0.112-0.064-1.376 0.688-3.12 1.872-1.616 1.088-3.024 2.032-3.12 2.096-0.16 0.096-0.208-0.528-0.208-2.848 0-3.488-0.064-3.36 1.92-3.36 1.328-0.016 2.368 0.304 3.472 1.040l0.672 0.448 0.336-0.416c0.176-0.224 0.32-0.464 0.32-0.512 0-0.176-1.6-1.088-2.4-1.392-0.464-0.176-1.248-0.272-2.208-0.288-1.264-0.016-1.44-0.048-1.2-0.224 1.648-1.28 4.8-1.312 6.672-0.080l0.64 0.416 0.384-0.448c0.368-0.448 0.384-0.464 0.096-0.688-0.688-0.512-2.304-1.152-3.376-1.312-1.296-0.208-2.688-0.032-3.872 0.496-0.384 0.176-0.736 0.272-0.784 0.224-0.192-0.192 1.552-1.728 2.496-2.192 0.8-0.4 1.28-0.512 2.4-0.592l1.392-0.096 0.048-0.528c0.048-0.416 0-0.512-0.256-0.512-0.176 0-0.512-0.032-0.768-0.064s-0.88 0-1.392 0.080zM17.408 22.976c0.048 3.936 0.096 3.824-1.472 3.824-0.72 0-1.168-0.096-1.696-0.384-0.4-0.208-1.136-0.592-1.632-0.848l-0.928-0.464v-2.688c0-1.472 0.048-2.736 0.112-2.8 0.064-0.048 1.344-0.080 2.832-0.064l2.736 0.048 0.048 3.376z" fill="#000000"></path>
<path d="M9.76 27.824c-0.224 0.064-0.96 0.432-1.648 0.784-0.688 0.368-1.44 0.672-1.648 0.672-0.368 0-0.4 0.048-0.352 0.592 0.048 0.576 0.080 0.608 0.576 0.56 0.288-0.016 1.232-0.352 2.096-0.752 2.112-0.976 2.624-0.96 4.624 0.032 1.312 0.656 1.648 0.768 2.496 0.768s1.168-0.096 2.48-0.768c2.016-1.008 2.768-1.024 4.432-0.112 0.64 0.352 1.216 0.64 1.264 0.64s0.080-0.288 0.048-0.656c-0.048-0.608-0.112-0.688-0.976-1.232-1.568-0.96-3.264-0.896-5.12 0.24-1.584 0.96-2.752 0.928-4.528-0.144-0.96-0.576-1.232-0.672-2.224-0.704-0.608-0.032-1.296 0-1.52 0.080z" fill="#000000"></path>
</svg>
