<?xml version="1.0" encoding="utf-8"?>
<!DOCTYPE svg PUBLIC "-//W3C//DTD SVG 1.1//EN" "http://www.w3.org/Graphics/SVG/1.1/DTD/svg11.dtd">
<svg version="1.1" xmlns="http://www.w3.org/2000/svg" xmlns:xlink="http://www.w3.org/1999/xlink" width="32" height="32" viewBox="0 0 32 32">
<path d="M17.312 2.928c-1.168 0.672-1.168 2.544 0 3.168 0.496 0.272 1.44 0.224 1.92-0.080 0.88-0.576 0.992-2.032 0.224-2.784-0.448-0.464-1.584-0.624-2.144-0.304z" fill="#000000"></path>
<path d="M16.832 7.424l-0.592 0.544-0.048 3.024-0.048 3.008 2.016 2 2 2v-4.928c0-4.304-0.032-4.976-0.256-5.328-0.368-0.544-1.040-0.864-1.824-0.864-0.512 0-0.768 0.112-1.248 0.544z" fill="#000000"></path>
<path d="M3.76 9.36c-1.728 0.608-2.4 2.864-1.28 4.32 0.672 0.896 1.2 1.088 3.36 1.2 1.152 0.048 2.080 0.176 2.32 0.304 0.224 0.112 3.536 3.328 7.36 7.136 6.256 6.224 7.040 6.96 7.664 7.12 0.448 0.112 1.552 0.16 2.88 0.128 2.448-0.064 2.896-0.208 3.648-1.2 0.384-0.496 0.448-0.736 0.448-1.648s-0.064-1.152-0.448-1.648c-0.608-0.816-1.264-1.104-2.592-1.184-2.24-0.128-1.52 0.448-9.392-7.328-6.448-6.368-7.264-7.104-7.888-7.264-1.024-0.256-5.296-0.208-6.080 0.064z" fill="#000000"></path>
<path d="M2.592 18.912l-0.832 0.848 6 6-1.104 1.104c-1.040 1.056-1.088 1.12-0.72 1.2 1.040 0.24 6.944 1.2 6.992 1.136 0.064-0.064-1.104-7.152-1.2-7.264-0.032-0.048-0.544 0.4-1.136 0.992l-1.072 1.072-2.96-2.96c-1.632-1.632-2.992-2.96-3.040-2.96s-0.464 0.384-0.928 0.832z" fill="#000000"></path>
</svg>
