<?xml version="1.0" encoding="utf-8"?>
<!-- Generated by IcoMoon.io -->
<!DOCTYPE svg PUBLIC "-//W3C//DTD SVG 1.1//EN" "http://www.w3.org/Graphics/SVG/1.1/DTD/svg11.dtd">
<svg version="1.1" xmlns="http://www.w3.org/2000/svg" xmlns:xlink="http://www.w3.org/1999/xlink" width="55" height="32" viewBox="0 0 55 32">
<path fill="#444444" d="M11.64 31.614c-0.975-0.332-1.685-0.793-2.358-1.529-1.514-1.658-1.87-4.069-0.899-6.089 1.702-3.538 6.434-4.235 9.079-1.337 3.233 3.541 0.698 9.228-4.108 9.215-0.748-0.002-1.125-0.059-1.714-0.26zM42.508 31.614c-0.975-0.332-1.685-0.793-2.358-1.529-1.514-1.658-1.87-4.069-0.899-6.089 1.702-3.538 6.434-4.235 9.079-1.337 3.233 3.541 0.698 9.228-4.108 9.215-0.748-0.002-1.125-0.059-1.714-0.26zM1.437 26.156c-0.467-0.203-0.797-0.516-1.040-0.99-0.189-0.368-0.196-0.776-0.196-11.657s0.007-11.288 0.196-11.657c0.248-0.483 0.578-0.792 1.063-0.994 0.34-0.142 2.779-0.159 22.635-0.157 24.163 0.002 23.079-0.022 25.412 0.569 1.967 0.498 3.246 1.419 4.020 2.893 1.387 2.643 2.242 10.214 1.942 17.203-0.067 1.565-0.163 3.021-0.213 3.237-0.141 0.613-0.585 1.164-1.17 1.456-0.489 0.244-0.622 0.261-2.046 0.261h-1.523l-0.002-0.283c-0.001-0.156-0.070-0.607-0.153-1.003-0.467-2.222-2.333-4.154-4.57-4.732-0.848-0.219-2.255-0.219-3.103 0-2.237 0.577-4.104 2.51-4.57 4.732-0.083 0.396-0.152 0.848-0.153 1.003l-0.002 0.283h-18.315l-0.002-0.283c-0.001-0.156-0.070-0.607-0.153-1.003-0.466-2.222-2.333-4.154-4.57-4.732-0.848-0.219-2.255-0.219-3.103 0-2.237 0.577-4.104 2.51-4.57 4.732-0.083 0.396-0.152 0.848-0.153 1.003l-0.002 0.283-2.65-0.004c-2.133-0.003-2.72-0.034-3.009-0.16zM28.914 20.712c2.001-1.16 3.672-2.144 3.714-2.186s-1.521-0.742-3.474-1.554c-1.952-0.813-3.571-1.457-3.596-1.431s-0.091 1.154-0.145 2.506c-0.054 1.353-0.127 2.981-0.161 3.617s-0.043 1.158-0.019 1.158c0.024 0 1.68-0.949 3.681-2.11zM14.445 12.782c0.198-0.198 0.202 0.061-0.079-5.38-0.212-4.118-0.245-4.472-0.426-4.604-0.161-0.117-1.015-0.143-4.729-0.141-4.248 0.002-4.561 0.015-4.969 0.2-0.251 0.114-0.523 0.341-0.643 0.538-0.199 0.326-0.208 0.51-0.208 4.405s0.009 4.079 0.208 4.405c0.12 0.197 0.391 0.424 0.643 0.538 0.409 0.186 0.724 0.198 5.238 0.2 4.231 0.002 4.822-0.017 4.965-0.159zM27.578 12.837c0.192-0.103 0.199-0.267 0.199-4.983 0-4.346-0.018-4.895-0.166-5.042-0.142-0.142-0.366-0.158-1.569-0.11-0.772 0.031-3.104 0.084-5.181 0.119-2.781 0.046-3.825 0.097-3.954 0.192-0.158 0.115-0.185 0.49-0.253 3.512-0.124 5.467-0.117 6.070 0.070 6.257 0.143 0.143 0.776 0.162 5.409 0.162 3.42 0 5.316-0.037 5.446-0.107zM40.748 12.837c0.192-0.103 0.199-0.265 0.199-4.832 0-4.463-0.010-4.731-0.187-4.826-0.103-0.055-2.152-0.172-4.553-0.259-6.476-0.236-6.264-0.234-6.376-0.058-0.056 0.089-0.097 2.17-0.098 5.009-0.001 4.518 0.011 4.864 0.178 4.962 0.249 0.145 10.565 0.15 10.836 0.005zM51.031 12.842c0-0.056-0.258-0.564-0.574-1.129-0.638-1.142-0.648-1.308-0.103-1.645 0.704-0.435 0.745-0.398 1.941 1.788 0.554 1.011 0.617 1.088 0.907 1.088 0.679 0 0.71-0.068 0.708-1.573-0.003-1.978-0.301-3.972-0.84-5.624-0.161-0.493-0.338-0.783-0.69-1.133-0.821-0.815-2.491-1.536-4.332-1.87-1.082-0.196-4.944-0.196-5.18 0-0.154 0.128-0.17 0.609-0.17 5.062 0 4.578 0.013 4.928 0.18 5.026 0.243 0.141 8.154 0.15 8.154 0.009z"></path>
</svg>
