<?xml version="1.0" encoding="utf-8"?>
<!DOCTYPE svg PUBLIC "-//W3C//DTD SVG 1.1//EN" "http://www.w3.org/Graphics/SVG/1.1/DTD/svg11.dtd">
<svg version="1.1" xmlns="http://www.w3.org/2000/svg" xmlns:xlink="http://www.w3.org/1999/xlink" width="32" height="32" viewBox="0 0 32 32">
<path d="M3.792 3.152c-0.064 0.048-0.112 2.496-0.112 5.44v5.328h11.040l-0.032-5.408-0.048-5.392-5.376-0.048c-2.944-0.016-5.408 0.016-5.472 0.080zM8.48 5.36c0 0.56 0 0.56 0.72 0.56s0.72 0 0.72-0.56v-0.56h3.2v4.96h-0.976c-0.864 0-1.056 0.064-1.52 0.48-0.96 0.832-2.064 0.832-2.864 0-0.416-0.432-0.56-0.48-1.472-0.48h-1.008v-4.96h3.2v0.56z" fill="#000000"></path>
<path d="M8.32 9.008c0 0.352 0.352 0.592 0.88 0.592s0.88-0.24 0.88-0.592c0-0.144-0.272-0.208-0.88-0.208s-0.88 0.064-0.88 0.208z" fill="#000000"></path>
<path d="M17.6 4.72v1.664l0.64-0.224c2.72-0.96 6.656-0.928 9.28 0.064 0.48 0.192 0.896 0.336 0.928 0.336 0.016 0 0.032-0.8 0.032-1.76v-1.76h-10.88v1.68zM20.32 4.32v0.48h-2.080v-0.96h2.080v0.48zM27.84 4.32v0.48h-2.24v-0.96h2.24v0.48z" fill="#000000"></path>
<path d="M21.92 6.96c0 0.32-0.080 0.4-0.4 0.4-0.224 0-0.448 0.016-0.512 0.032-0.080 0.032-0.16-0.128-0.176-0.336-0.048-0.336-0.112-0.368-0.64-0.272-0.336 0.048-0.688 0.096-0.816 0.096-0.144 0-0.192 0.128-0.128 0.4 0.112 0.672-0.896 1.040-1.056 0.384-0.048-0.192-0.192-0.304-0.304-0.272-0.16 0.064-0.224 0.8-0.256 3.296l-0.032 3.232h4.96v-5.44h0.96v5.44h4.96v-3.104c0-2.784-0.032-3.12-0.272-3.2-0.176-0.080-0.352-0.016-0.464 0.144-0.128 0.176-0.32 0.224-0.624 0.144-0.336-0.080-0.4-0.176-0.336-0.464 0.080-0.304 0-0.384-0.528-0.528-0.944-0.288-1.136-0.256-1.136 0.224 0 0.32-0.064 0.4-0.256 0.32-0.144-0.048-0.352-0.096-0.48-0.096s-0.224-0.16-0.224-0.4c0-0.384-0.032-0.4-1.12-0.4s-1.12 0.016-1.12 0.4zM26.528 9.712l0.048 0.528h-2.256v-0.448c0-0.256 0.048-0.512 0.112-0.576s0.544-0.096 1.088-0.064c0.96 0.048 0.96 0.048 1.008 0.56zM26.56 12.32v0.48h-2.24v-0.96h2.24v0.48z" fill="#000000"></path>
<path d="M7.28 15.968c-1.12 0.528-2.96 2.832-3.968 4.96-0.448 0.944-0.512 1.232-0.512 2.448s0.048 1.44 0.448 2.032c1.040 1.568 2.32 1.952 6.688 1.952h3.152l0.528 0.512c1.536 1.424 3.344 1.424 4.992-0.016l0.528-0.464 3.504-0.064c3.888-0.080 4.464-0.192 5.584-1.12 0.816-0.672 1.216-1.568 1.216-2.784 0-1.904-1.248-4.352-3.28-6.4-1.232-1.248-1.76-1.472-2.816-1.184-0.848 0.224-1.264 0.816-1.264 1.76 0 0.736 0.048 0.832 1.28 2.176 0.704 0.768 1.472 1.792 1.712 2.272l0.432 0.88-0.368 0.288c-0.32 0.256-0.656 0.304-2.512 0.304h-2.144v-1.744c0-2.256-0.080-2.608-0.816-3.44-0.88-1.008-1.984-1.44-3.584-1.456-1.088 0-1.424 0.064-2.192 0.448-1.056 0.528-1.808 1.296-2.032 2.144-0.096 0.336-0.176 1.376-0.176 2.32v1.728h-2.096c-2.224 0-2.704-0.128-2.704-0.688 0-0.576 0.864-1.92 2.064-3.2 1.232-1.328 1.44-1.856 1.072-2.72-0.432-1.056-1.616-1.472-2.736-0.944z" fill="#000000"></path>
</svg>
