<?xml version="1.0" encoding="utf-8"?>
<!DOCTYPE svg PUBLIC "-//W3C//DTD SVG 1.1//EN" "http://www.w3.org/Graphics/SVG/1.1/DTD/svg11.dtd">
<svg version="1.1" xmlns="http://www.w3.org/2000/svg" xmlns:xlink="http://www.w3.org/1999/xlink" width="32" height="32" viewBox="0 0 32 32">
<path d="M11.92 2.304c-1.12 0.496-1.52 1.344-1.52 3.152v1.264h-3.632c-3.36 0-3.696 0.032-4.176 0.32-0.288 0.176-0.656 0.544-0.832 0.832-0.304 0.512-0.32 0.832-0.32 10.464v9.936l0.352 0.528c0.208 0.288 0.576 0.688 0.816 0.864 0.448 0.336 0.512 0.336 13.36 0.336 12.736 0 12.912 0 13.472-0.336 0.304-0.176 0.72-0.56 0.912-0.864l0.368-0.528v-9.936c0-9.632-0.016-9.952-0.32-10.464-0.176-0.288-0.544-0.656-0.832-0.832-0.48-0.288-0.816-0.32-4.16-0.32h-3.616l-0.064-1.488c-0.048-1.36-0.096-1.552-0.512-2.096-0.752-0.992-1.072-1.056-5.168-1.056-2.688 0.016-3.776 0.064-4.128 0.224zM19.936 3.92c0.368 0.368 0.4 0.496 0.352 1.552l-0.048 1.168h-8.32l-0.048-1.168c-0.048-1.056-0.016-1.184 0.352-1.552l0.4-0.4h6.912l0.4 0.4zM25.936 14.656c1.984 1.152 0.608 3.088-3.696 5.232-1.28 0.64-2.928 1.408-3.68 1.712-0.752 0.288-1.408 0.576-1.488 0.64-0.064 0.048-0.032 0.336 0.064 0.624 0.16 0.448 0.144 0.56-0.128 0.832-0.304 0.32-0.32 0.32-1.68 0.016l-1.376-0.304 0.032 0.464c0 0.304-0.096 0.56-0.256 0.672-0.24 0.144-0.736-0.048-2.8-1.104l-2.528-1.264h-1.792c-0.976-0.016-1.824-0.064-1.888-0.128s-0.064-0.368-0.016-0.688l0.112-0.56h2.944l1.376-2.528c1.168-2.144 1.424-2.512 1.776-2.56 0.272-0.032 0.496 0.064 0.64 0.272 0.224 0.32 0.256 0.288 1.168-0.624 1.168-1.168 1.584-1.248 1.952-0.352l0.24 0.624 1.696-0.384c4.512-1.024 8.176-1.248 9.328-0.592z" fill="#000000"></path>
<path d="M22.56 15.632c-1.696 0.16-3.392 0.448-5.664 0.944-1.392 0.304-2.64 0.528-2.752 0.48-0.128-0.048-0.288-0.24-0.352-0.416-0.112-0.304-0.224-0.24-1.136 0.72-1.056 1.088-1.136 1.136-1.616 0.88-0.256-0.144-0.384 0-0.96 1.056-0.368 0.672-0.64 1.248-0.592 1.28 0.128 0.128 3.136-0.464 4.992-1.008 2.56-0.72 4.368-1.456 6.912-2.784l2.128-1.088 0.256 0.48c0.128 0.272 0.208 0.576 0.176 0.688-0.112 0.272-4.336 2.352-6.192 3.056-1.536 0.592-5.072 1.568-6.4 1.776l-0.704 0.096 0.704 0.384c0.88 0.464 0.896 0.464 1.008 0.064 0.064-0.24 0.208-0.32 0.624-0.32 0.48 0 1.536 0.208 2.272 0.432 0.24 0.064 0.288 0.016 0.224-0.24-0.144-0.56 0.192-0.816 2.208-1.616 3.632-1.472 7.184-3.424 7.6-4.192 0.208-0.416 0.16-0.48-0.688-0.64-0.688-0.128-1.024-0.144-2.048-0.032z" fill="#000000"></path>
</svg>
