<?xml version="1.0" encoding="utf-8"?>
<!DOCTYPE svg PUBLIC "-//W3C//DTD SVG 1.1//EN" "http://www.w3.org/Graphics/SVG/1.1/DTD/svg11.dtd">
<svg version="1.1" xmlns="http://www.w3.org/2000/svg" xmlns:xlink="http://www.w3.org/1999/xlink" width="32" height="32" viewBox="0 0 32 32">
<path d="M12.467 9.467c-0.253 0.507-0.467 0.987-0.467 1.067 0 0.213 0.4 0.16 0.48-0.067 0.053-0.133 0.267-0.2 0.653-0.2s0.6 0.067 0.653 0.2c0.080 0.227 0.613 0.28 0.613 0.067 0-0.080-0.213-0.56-0.467-1.067-0.347-0.68-0.547-0.933-0.733-0.933s-0.387 0.253-0.733 0.933zM13.387 9.533c0.053 0.133-0.013 0.2-0.187 0.2-0.267 0-0.347-0.147-0.173-0.307 0.133-0.147 0.267-0.107 0.36 0.107z" fill="#000000"></path>
<path d="M14.893 8.627c-0.333 0.093-0.2 0.373 0.173 0.373 0.173 0 0.333 0.080 0.373 0.173 0.027 0.080-0.040 0.16-0.16 0.16-0.307 0-0.267 0.36 0.053 0.467 0.4 0.133 0.32 0.307-0.16 0.36-0.533 0.053-0.64 0.333-0.16 0.453 0.52 0.133 1.040-0.093 1.093-0.467 0.027-0.173-0.013-0.373-0.093-0.453-0.093-0.093-0.093-0.213 0-0.373 0.093-0.187 0.067-0.307-0.147-0.52-0.267-0.267-0.48-0.307-0.973-0.173z" fill="#000000"></path>
<path d="M16.6 8.707c-0.347 0.253-0.133 0.507 0.333 0.4 0.52-0.093 0.507 0.013-0.080 0.653-0.253 0.293-0.44 0.6-0.413 0.68 0.027 0.093 0.36 0.173 0.733 0.2 0.627 0.040 0.693 0.013 0.693-0.227 0-0.187-0.080-0.28-0.267-0.28-0.147 0-0.267-0.027-0.267-0.067s0.12-0.2 0.267-0.36c0.667-0.72-0.187-1.587-1-1z" fill="#000000"></path>
<path d="M18.453 8.64c-0.253 0.16-0.453 0.653-0.453 1.080 0 0.84 1.080 1.293 1.52 0.653 0.307-0.427 0.267-1.253-0.053-1.573-0.267-0.267-0.747-0.347-1.013-0.16zM19.133 9.613c0 0.32-0.067 0.467-0.227 0.493-0.293 0.053-0.467-0.56-0.24-0.84 0.267-0.32 0.467-0.16 0.467 0.347z" fill="#000000"></path>
<path d="M14.693 12.48c-1.853 0.493-3.307 1.973-3.84 3.88l-0.227 0.84h-4.32c-2.733 0-4.413 0.053-4.587 0.133-0.293 0.16-0.347 0.827-0.067 1.053 0.093 0.080 0.44 0.173 0.76 0.213 0.88 0.093 2 0.187 2.48 0.2 0.413 0 0.413 0 0.4 0.693-0.013 0.84 0.173 1.227 0.747 1.573 1.147 0.707 2.733-0.213 2.6-1.507l-0.040-0.427 0.867 0.040c2.387 0.133 3 0.227 3.040 0.453 0.040 0.2-0.067 0.24-0.693 0.24-0.88 0-0.893 0.067-0.36 1 1.787 3.067 5.467 3.747 7.987 1.467 0.56-0.507 1.333-1.613 1.573-2.24 0.067-0.2-0.013-0.227-0.667-0.227-0.64 0-0.747-0.040-0.747-0.253 0-0.227 0.16-0.253 1.707-0.333 0.933-0.053 1.8-0.133 1.933-0.16 0.187-0.067 0.227 0.013 0.227 0.48 0 1.013 0.693 1.733 1.667 1.733 1.067 0 1.72-0.72 1.653-1.84l-0.040-0.627 1.773-0.16c0.973-0.093 1.853-0.227 1.96-0.32 0.213-0.173 0.24-0.627 0.053-0.92-0.107-0.173-0.813-0.213-4.613-0.267l-4.48-0.067-0.293-0.947c-0.64-2.013-2.080-3.347-4.053-3.773-0.907-0.187-1.52-0.173-2.4 0.067zM14.333 16.8c0.52 0.067 0.973 0.133 1.040 0.133 0.053 0 0.093 0.267 0.093 0.6 0 0.72 0.013 0.72-1.733 0.227-1.28-0.36-1.48-0.52-1.28-1.040 0.053-0.147 0.2-0.173 0.507-0.12 0.24 0.040 0.867 0.133 1.373 0.2zM19.6 16.973v0.44l-1.36 0.36c-0.76 0.2-1.453 0.36-1.533 0.36-0.12 0-0.173-0.213-0.173-0.587v-0.6l0.573-0.080c1.373-0.187 2.173-0.307 2.333-0.32 0.093-0.013 0.16 0.16 0.16 0.427zM7.387 19.28c0.12 0.107 0.213 0.293 0.213 0.387s-0.093 0.28-0.213 0.387c-0.4 0.4-0.987 0.173-0.987-0.387s0.587-0.787 0.987-0.387zM25.573 19.227c0.093 0.093 0.16 0.28 0.16 0.44s-0.067 0.347-0.16 0.44c-0.093 0.093-0.28 0.16-0.44 0.16s-0.347-0.067-0.44-0.16c-0.093-0.093-0.16-0.28-0.16-0.44s0.067-0.347 0.16-0.44c0.093-0.093 0.28-0.16 0.44-0.16s0.347 0.067 0.44 0.16z" fill="#000000"></path>
</svg>
