<?xml version="1.0" encoding="utf-8"?>
<!DOCTYPE svg PUBLIC "-//W3C//DTD SVG 1.1//EN" "http://www.w3.org/Graphics/SVG/1.1/DTD/svg11.dtd">
<svg version="1.1" xmlns="http://www.w3.org/2000/svg" xmlns:xlink="http://www.w3.org/1999/xlink" width="32" height="32" viewBox="0 0 32 32">
<path d="M0.8 16.080v7.76h30.4v-15.52h-30.4v7.76zM12.72 9.808c0.192-0.112 0.432-0.112 0.72 0l0.432 0.16-0.64 0.608c-0.336 0.352-0.896 0.688-1.232 0.784s-0.656 0.256-0.688 0.368c-0.048 0.128-0.144 0.096-0.32-0.128-0.176-0.24-0.192-0.384-0.064-0.688 0.128-0.288 0.128-0.4-0.032-0.512-0.304-0.176-0.064-0.48 0.384-0.48 0.208 0 0.432-0.064 0.48-0.16 0.064-0.096 0.192-0.096 0.384 0.032 0.192 0.112 0.368 0.128 0.576 0.016zM21.52 10.048c0.176 0.032 0.4 0.144 0.512 0.224 0.112 0.096 0.56 0.112 1.024 0.048 0.496-0.064 1.072-0.032 1.504 0.080 0.576 0.16 0.752 0.144 1.168-0.064 0.656-0.336 0.944-0.208 0.96 0.496 0.016 0.304 0.096 0.656 0.192 0.768 0.128 0.16 0.128 0.24-0.016 0.336-0.224 0.128-0.784-0.48-0.784-0.88-0.016-0.224-0.032-0.224-0.224 0.016-0.112 0.16-0.352 0.288-0.528 0.288s-0.416 0.112-0.528 0.24c-0.16 0.192-0.144 0.24 0.112 0.24 0.352 0 1.088 0.896 0.848 1.040-0.080 0.048-0.112 0.32-0.064 0.608l0.080 0.512-0.368-0.448c-0.432-0.496-0.64-0.544-0.928-0.192-0.16 0.192-0.144 0.24 0.080 0.24 0.16 0 0.448 0.192 0.656 0.416 0.48 0.496 0.32 0.896-0.448 1.168-0.464 0.16-0.496 0.208-0.256 0.352 0.24 0.128 0.256 0.208 0.080 0.464-0.112 0.208-0.288 0.288-0.464 0.224-0.352-0.112-0.368 0.144-0.048 0.416 0.176 0.144 0.208 0.256 0.096 0.368-0.304 0.304-0.704-0.224-0.608-0.8 0.064-0.384 0.032-0.528-0.128-0.528-0.128 0-0.352-0.176-0.496-0.4-0.208-0.32-0.304-0.368-0.48-0.224-0.128 0.096-0.224 0.288-0.224 0.416s-0.112 0.448-0.256 0.72l-0.256 0.496-0.224-0.384c-0.112-0.208-0.288-0.544-0.368-0.72-0.208-0.48-1.088-0.96-1.936-1.088l-0.72-0.096 0.384 0.32c0.208 0.176 0.464 0.32 0.592 0.32 0.32 0 0.432 0.304 0.224 0.56-0.288 0.352-1.232 0.304-1.36-0.064-0.112-0.368-0.688-0.896-0.816-0.768-0.176 0.176 0.272 1.040 0.672 1.312 0.208 0.128 0.576 0.24 0.816 0.24h0.432l-0.608 0.624c-0.432 0.448-0.624 0.8-0.688 1.28-0.064 0.4-0.176 0.656-0.304 0.656s-0.224 0.16-0.224 0.384c0 0.272-0.176 0.496-0.576 0.752-0.32 0.192-0.72 0.496-0.896 0.688l-0.336 0.336 0.096-0.528c0.064-0.288 0.032-0.512-0.048-0.512-0.096 0-0.128-0.176-0.064-0.4 0.064-0.288 0.016-0.432-0.176-0.496-0.224-0.096-0.256-0.24-0.176-0.736 0.080-0.464 0.048-0.64-0.144-0.704-0.16-0.064-0.208-0.224-0.144-0.48 0.096-0.368 0.064-0.384-0.784-0.384-0.72 0-0.976-0.080-1.376-0.416-0.592-0.496-0.624-0.864-0.128-1.52 0.368-0.512 0.752-0.72 1.712-0.96 0.448-0.096 0.608-0.064 0.848 0.192 0.208 0.224 0.352 0.272 0.576 0.16 0.192-0.112 0.336-0.112 0.448 0 0.096 0.096 0.352 0.112 0.576 0.064 0.496-0.128 0.72-0.56 0.288-0.56-0.176 0-0.352-0.096-0.4-0.208-0.080-0.144-0.112-0.144-0.192 0.032s-0.176 0.128-0.4-0.16l-0.304-0.384v0.352c0 0.448-0.16 0.464-0.528 0.048-0.352-0.416-0.464-0.4-1.056 0.096-0.288 0.24-0.608 0.384-0.752 0.32-0.336-0.128-0.192-0.48 0.224-0.544 0.368-0.064 0.464-0.272 0.192-0.432-0.24-0.144-0.032-0.4 0.304-0.4 0.16 0 0.384-0.096 0.48-0.224 0.128-0.16 0.368-0.208 0.752-0.144 0.432 0.064 0.608 0.016 0.784-0.208 0.272-0.352 0.304-0.608 0.080-0.464-0.080 0.048-0.16-0.032-0.16-0.176 0-0.256-0.016-0.256-0.32 0.016-0.176 0.16-0.32 0.384-0.32 0.512 0 0.256-0.16 0.256-0.512-0.016-0.352-0.256-0.368-0.416-0.064-0.416 0.128 0 0.336-0.144 0.464-0.32s0.496-0.352 0.912-0.416c0.656-0.112 0.688-0.096 0.608 0.224-0.112 0.4 0.064 0.464 0.352 0.112 0.144-0.176 0.256-0.192 0.416-0.064 0.24 0.192 0.752 0.064 1.104-0.272 0.208-0.224 0.24-0.224 0.24 0 0 0.144 0.112 0.256 0.256 0.256 0.16 0 0.208-0.096 0.144-0.304-0.064-0.224 0.048-0.352 0.512-0.544 0.336-0.128 0.72-0.208 0.848-0.16s0.384 0.128 0.56 0.176zM5.536 10.224c1.36 0.416 2.256 0.528 2.608 0.336 0.208-0.112 0.432-0.128 0.512-0.048s-0.096 0.272-0.416 0.432c-0.384 0.208-0.56 0.416-0.56 0.672 0 0.608 0.304 0.608 0.88-0.032 0.368-0.384 0.56-0.512 0.56-0.352 0 0.144 0.144 0.288 0.32 0.336 0.624 0.16 0.336 0.784-0.384 0.816-0.224 0.016-0.336 0.128-0.336 0.336 0 0.176-0.112 0.32-0.256 0.32s-0.608 0.304-1.056 0.672c-0.464 0.384-0.864 0.624-0.944 0.544s-0.432-0.096-0.784-0.032c-0.496 0.080-0.656 0.176-0.688 0.464-0.032 0.256 0.032 0.352 0.24 0.352 0.352 0.016 0.912 0.736 0.752 0.992-0.080 0.128 0.112 0.144 0.672 0.080 0.624-0.064 0.944-0.016 1.6 0.288 0.496 0.24 0.864 0.528 0.912 0.72s0.208 0.32 0.432 0.32c0.192 0 0.48 0.080 0.656 0.176 0.256 0.128 0.304 0.272 0.224 0.672-0.192 0.912-0.256 1.056-0.576 1.152-0.16 0.064-0.304 0.24-0.304 0.4s-0.16 0.416-0.352 0.544c-0.496 0.352-0.752 1.040-0.56 1.504 0.112 0.24 0.112 0.416 0 0.528-0.32 0.32-1.328-1.76-1.328-2.736 0-0.304-0.192-0.64-0.576-1.024-0.544-0.544-0.576-0.624-0.48-1.296 0.096-0.64 0.080-0.72-0.192-0.72-0.176 0-0.384-0.192-0.528-0.496-0.144-0.352-0.4-0.56-0.784-0.688s-0.64-0.336-0.832-0.736c-0.24-0.512-0.272-0.528-0.288-0.176 0 0.624-0.304 0.192-0.464-0.688-0.144-0.752-0.128-0.768 0.384-1.072 0.416-0.256 0.544-0.448 0.608-0.992 0.064-0.432 0.032-0.704-0.096-0.784-0.192-0.112-0.272-0.112-1.024 0.112-0.272 0.080-0.368 0.032-0.368-0.144 0-0.144 0.208-0.288 0.56-0.352 0.304-0.048 0.624-0.192 0.736-0.32 0.208-0.256 0.848-0.288 1.52-0.080zM9.952 10.512c0.4 0.352 0.368 0.528-0.128 0.528-0.224 0-0.368-0.064-0.304-0.16 0.048-0.096 0.016-0.16-0.064-0.16-0.096 0-0.176-0.112-0.176-0.24 0-0.32 0.304-0.304 0.672 0.032zM14.32 11.68c0.064 0.192 0.016 0.432-0.080 0.56-0.224 0.272-0.64 0.32-0.64 0.080 0-0.096 0.080-0.16 0.16-0.16 0.096 0 0.16-0.176 0.16-0.4 0-0.48 0.256-0.528 0.4-0.080zM26.72 12.8c0 0.080-0.080 0.16-0.176 0.16-0.080 0-0.112-0.080-0.064-0.16 0.048-0.096 0.128-0.16 0.176-0.16 0.032 0 0.064 0.064 0.064 0.16zM26.72 13.744c-0.24 0.48-0.496 0.272-0.272-0.224 0.112-0.208 0.256-0.32 0.32-0.256 0.080 0.080 0.064 0.288-0.048 0.48zM25.872 15.632c-0.064 0.048-0.016 0.208 0.096 0.336 0.16 0.208 0.144 0.224-0.048 0.16-0.304-0.096-0.416-0.608-0.144-0.608 0.112 0 0.144 0.048 0.096 0.112zM25.76 17.12c0 0.432-0.432 0.72-0.704 0.496-0.192-0.16-0.192-0.256 0.032-0.656 0.192-0.336 0.32-0.416 0.464-0.288 0.112 0.096 0.208 0.288 0.208 0.448zM23.76 17.36c0.256 0.208 0.432 0.416 0.384 0.464-0.096 0.112-1.104-0.544-1.104-0.72 0-0.24 0.208-0.16 0.72 0.256zM28.368 17.872c0.656 0.416 0.8 0.768 0.24 0.608-0.208-0.064-0.432-0.176-0.512-0.256-0.096-0.080-0.272-0.144-0.4-0.144-0.256 0-0.976-0.608-0.976-0.816 0-0.176 0.944 0.16 1.648 0.608zM19.040 18.944c0 0.24-0.608 0.832-0.72 0.704-0.144-0.128 0.416-1.104 0.576-1.008 0.080 0.064 0.144 0.192 0.144 0.304zM27.36 18.88c0 0.272 0.048 0.304 0.304 0.16 0.432-0.224 0.496-0.208 0.496 0.16 0 0.192 0.112 0.56 0.256 0.832 0.24 0.448 0.224 0.496-0.080 0.832-0.192 0.208-0.608 0.448-0.928 0.544-0.576 0.176-0.624 0.16-1.056-0.304-0.304-0.352-0.496-0.448-0.64-0.336-0.336 0.272-1.2 0.352-1.376 0.128-0.272-0.32 0.528-1.28 1.44-1.696 0.432-0.208 0.784-0.432 0.784-0.512 0-0.064 0.176-0.128 0.4-0.128 0.288 0 0.4 0.080 0.4 0.32zM29.12 21.2c-0.112 0.128-0.272 0.24-0.352 0.24-0.096 0-0.080-0.112 0.032-0.24s0.272-0.24 0.352-0.24c0.096 0 0.080 0.112-0.032 0.24zM28.16 21.84c-0.112 0.128-0.32 0.24-0.464 0.24-0.176-0.016-0.128-0.080 0.144-0.24 0.512-0.288 0.56-0.288 0.32 0z" fill="#000000"></path>
</svg>
