<?xml version="1.0" encoding="utf-8"?>
<!DOCTYPE svg PUBLIC "-//W3C//DTD SVG 1.1//EN" "http://www.w3.org/Graphics/SVG/1.1/DTD/svg11.dtd">
<svg version="1.1" xmlns="http://www.w3.org/2000/svg" xmlns:xlink="http://www.w3.org/1999/xlink" width="18" height="32" viewBox="0 0 18 32">
<path d="M5.64 0.345c-0.115 0.046-0.829 0.138-1.542 0.23l-1.335 0.138v8.633l-0.668 0.645c-0.875 0.852-1.565 2.463-1.865 4.42-0.161 0.967-0.23 4.535-0.184 9.047l0.069 7.436 0.645 0.553c0.622 0.529 0.806 0.553 3.868 0.553 3.338 0 4.351-0.23 4.673-1.036 0.069-0.207 0.138-4.029 0.138-8.495 0-6.423-0.069-8.38-0.345-9.416-0.368-1.381-1.105-2.74-1.934-3.476-0.46-0.414-0.483-0.645-0.483-4.904 0-4.075-0.023-4.443-0.391-4.42-0.23 0-0.506 0.046-0.645 0.092z" fill="#000000"></path>
<path d="M13.882 17.658l-3.039 0.092-0.161 1.312c-0.184 1.542 0.161 3.591 0.783 4.42 0.23 0.322 0.806 0.783 1.243 1.036 0.99 0.529 1.105 0.921 1.105 4.052v2.279h-1.381c-1.312 0-1.381 0.023-1.381 0.576v0.576h6.446v-0.576c0-0.553-0.069-0.576-1.266-0.576h-1.266v-5.94l0.691-0.276c1.473-0.622 2.325-2.279 2.279-4.489-0.046-1.635-0.276-2.532-0.668-2.532-0.184-0.023-1.704 0.023-3.384 0.046z" fill="#000000"></path>
</svg>
