<?xml version="1.0" encoding="utf-8"?>
<!DOCTYPE svg PUBLIC "-//W3C//DTD SVG 1.1//EN" "http://www.w3.org/Graphics/SVG/1.1/DTD/svg11.dtd">
<svg version="1.1" xmlns="http://www.w3.org/2000/svg" xmlns:xlink="http://www.w3.org/1999/xlink" width="32" height="32" viewBox="0 0 32 32">
<path d="M15.136 4.176c-0.288 0.96-1.872 4.24-2.816 5.856l-0.48 0.848h-2.384l-0.048 2.272-0.048 2.288-2.336-0.016c-2.16-0.016-2.384-0.048-3.296-0.448-0.528-0.24-1.2-0.688-1.488-0.976l-0.528-0.544-0.448 0.352c-0.256 0.176-0.464 0.432-0.464 0.544 0 0.272 1.52 1.392 2.432 1.808 0.4 0.176 1.184 0.368 1.712 0.416l0.976 0.112v1.76l-0.816-0.112c-0.96-0.128-2.128-0.688-2.944-1.408l-0.576-0.496-0.432 0.416-0.416 0.432 0.544 0.56c0.752 0.768 2.256 1.488 3.568 1.712l1.072 0.176v9.392h8.32v-7.040h3.52v7.040h8.32v-9.424l0.768-0.096c1.584-0.208 3.104-0.944 4.080-1.968l0.448-0.48-0.48-0.352-0.496-0.352-0.592 0.528c-0.752 0.656-2.016 1.232-2.976 1.36l-0.752 0.112v-1.808h0.544c0.928 0 2.592-0.608 3.472-1.28 1.152-0.864 1.232-1.056 0.72-1.568l-0.416-0.416-0.592 0.576c-0.336 0.32-1.040 0.784-1.552 1.024-0.88 0.4-1.104 0.432-3.28 0.448l-2.336 0.016-0.048-2.288-0.048-2.272h-2.368l-0.896-1.616c-1.12-1.968-2.016-3.92-2.416-5.152-0.272-0.896-0.304-0.912-0.864-0.912-0.576 0-0.576 0.016-0.864 0.976z" fill="#000000"></path>
</svg>
