<?xml version="1.0" encoding="utf-8"?>
<!DOCTYPE svg PUBLIC "-//W3C//DTD SVG 1.1//EN" "http://www.w3.org/Graphics/SVG/1.1/DTD/svg11.dtd">
<svg version="1.1" xmlns="http://www.w3.org/2000/svg" xmlns:xlink="http://www.w3.org/1999/xlink" width="32" height="32" viewBox="0 0 32 32">
<path d="M2.272 10.4c-0.288 0.176-0.656 0.544-0.832 0.832-0.304 0.496-0.32 0.816-0.32 4.816 0 4.752 0.048 5.072 0.976 5.728l0.544 0.384h26.72l0.528-0.368c0.96-0.704 0.992-0.848 0.992-5.664 0-4.080-0.016-4.4-0.32-4.896-0.176-0.288-0.544-0.656-0.832-0.832-0.512-0.304-0.832-0.32-13.728-0.32s-13.216 0.016-13.728 0.32zM6.368 11.408c0.048 0.56 0.016 0.608-0.32 0.56-0.384-0.048-0.56-0.544-0.384-1.024 0.192-0.48 0.656-0.176 0.704 0.464zM6.368 13.808c0.048 0.56 0.016 0.608-0.32 0.56-0.384-0.048-0.56-0.544-0.384-1.024 0.192-0.48 0.656-0.176 0.704 0.464zM6.32 16.24c0 0.528-0.048 0.64-0.32 0.64-0.24 0-0.336-0.128-0.368-0.448-0.080-0.624 0.080-0.944 0.4-0.88 0.224 0.032 0.288 0.208 0.288 0.688zM6.368 18.672c-0.032 0.48-0.112 0.608-0.368 0.608s-0.336-0.128-0.368-0.608c-0.048-0.544-0.016-0.592 0.368-0.592s0.416 0.048 0.368 0.592zM6.4 21.136c0 0.576-0.032 0.64-0.352 0.592-0.304-0.032-0.384-0.16-0.416-0.656-0.048-0.544-0.016-0.592 0.352-0.592 0.384 0 0.416 0.064 0.416 0.656z" fill="#000000"></path>
</svg>
