<?xml version="1.0" encoding="utf-8"?>
<!DOCTYPE svg PUBLIC "-//W3C//DTD SVG 1.1//EN" "http://www.w3.org/Graphics/SVG/1.1/DTD/svg11.dtd">
<svg version="1.1" xmlns="http://www.w3.org/2000/svg" xmlns:xlink="http://www.w3.org/1999/xlink" width="32" height="32" viewBox="0 0 32 32">
<path d="M2.64 7.184c-0.736 0.176-1.296 0.608-1.584 1.216-0.208 0.448-0.256 1.248-0.256 4.96 0 4.768 0.016 4.88 0.88 5.68l0.432 0.4 17.728 0.080v-2.208c0-1.232 0.080-2.464 0.176-2.768 0.432-1.28 1.584-2.224 3.152-2.544 0.784-0.176 0.832-0.224 0.832-0.672 0-1.104 0.88-1.824 2.448-2 1.296-0.144 1.552-0.368 1.552-1.408v-0.88l-12.432 0.016c-6.848 0.016-12.672 0.064-12.928 0.128zM6.16 8.4c0 0.528-0.048 0.64-0.32 0.64-0.24 0-0.336-0.128-0.368-0.448-0.080-0.624 0.080-0.944 0.4-0.88 0.224 0.032 0.288 0.208 0.288 0.688zM6.208 10.912c0.048 0.56 0.016 0.608-0.352 0.608-0.384 0-0.416-0.064-0.416-0.656 0-0.576 0.032-0.64 0.368-0.592 0.288 0.032 0.368 0.16 0.4 0.64zM6.24 13.44c0 0.576-0.032 0.64-0.4 0.64-0.352 0-0.4-0.064-0.4-0.64s0.048-0.64 0.4-0.64c0.368 0 0.4 0.064 0.4 0.64zM6.16 15.92c0 0.528-0.048 0.64-0.32 0.64-0.24 0-0.336-0.128-0.368-0.448-0.080-0.624 0.080-0.944 0.4-0.88 0.224 0.032 0.288 0.208 0.288 0.688zM6.208 18.432c0.048 0.56 0.016 0.608-0.352 0.608-0.384 0-0.416-0.064-0.416-0.656 0-0.576 0.032-0.64 0.368-0.592 0.288 0.032 0.368 0.16 0.4 0.64z" fill="#000000"></path>
<path d="M28.8 7.696c0 0.88-0.368 1.68-0.912 1.952-0.24 0.128-0.832 0.272-1.296 0.336-1.088 0.144-1.552 0.352-1.776 0.848-0.336 0.736-0.224 0.96 0.56 1.152 1.472 0.368 2.72 1.296 3.088 2.304 0.096 0.256 0.176 1.536 0.176 2.848v2.384h0.544c0.688 0 1.536-0.576 1.904-1.28 0.256-0.496 0.272-1.008 0.24-5.072-0.048-4.272-0.064-4.528-0.384-4.944-0.448-0.608-1.008-0.976-1.616-1.088-0.528-0.080-0.528-0.080-0.528 0.56z" fill="#000000"></path>
<path d="M22.224 13.072c-1.072 0.56-1.584 1.264-1.584 2.224v0.704h3.36v-3.36h-0.448c-0.256 0-0.848 0.192-1.328 0.432z" fill="#000000"></path>
<path d="M24.64 14.32v1.68h3.36v-0.608c0-0.592-0.448-1.52-0.944-1.92-0.464-0.384-1.52-0.832-1.968-0.832h-0.448v1.68z" fill="#000000"></path>
<path d="M20.64 19.632c0 2.608 0.048 3.072 0.288 3.44 1.392 2.112 5.392 2.112 6.784 0 0.24-0.368 0.288-0.832 0.288-3.44v-2.992h-7.36v2.992z" fill="#000000"></path>
</svg>
