<?xml version="1.0" encoding="utf-8"?>
<!DOCTYPE svg PUBLIC "-//W3C//DTD SVG 1.1//EN" "http://www.w3.org/Graphics/SVG/1.1/DTD/svg11.dtd">
<svg version="1.1" xmlns="http://www.w3.org/2000/svg" xmlns:xlink="http://www.w3.org/1999/xlink" width="32" height="32" viewBox="0 0 32 32">
<path d="M17.040 9.613c-0.68 1.187-0.733 1.333-0.48 1.293 0.2-0.027 0.493-0.4 1-1.24 0.387-0.667 0.707-1.24 0.707-1.307 0-0.053-0.107-0.093-0.227-0.093-0.16 0.013-0.493 0.467-1 1.347z" fill="#000000"></path>
<path d="M8.96 8.693c-0.147 0.2-0.96 1.8-0.96 1.907 0 0.16 0.547 0.053 0.613-0.133 0.053-0.133 0.267-0.2 0.587-0.2 0.28 0 0.573 0.093 0.667 0.2 0.187 0.227 0.667 0.267 0.667 0.067 0-0.080-0.213-0.56-0.493-1.067-0.48-0.933-0.773-1.133-1.080-0.773zM9.44 9.573c0.027 0.093-0.040 0.16-0.16 0.16s-0.213-0.093-0.213-0.213c0-0.227 0.293-0.187 0.373 0.053z" fill="#000000"></path>
<path d="M10.947 8.653c-0.253 0.16-0.053 0.44 0.28 0.387 0.16-0.027 0.307 0.040 0.333 0.12 0.040 0.093-0.027 0.173-0.147 0.173-0.307 0-0.267 0.413 0.053 0.493 0.4 0.107 0.24 0.373-0.213 0.373-0.253 0-0.387 0.067-0.387 0.2 0 0.253 0.747 0.347 1.133 0.133 0.28-0.147 0.373-0.72 0.133-0.867-0.093-0.053-0.080-0.173 0.013-0.347 0.28-0.533-0.613-1.027-1.2-0.667z" fill="#000000"></path>
<path d="M12.68 8.653c-0.253 0.16-0.040 0.453 0.267 0.373 0.333-0.093 0.493 0.173 0.2 0.333s-0.267 0.333 0.067 0.44c0.387 0.12 0.24 0.4-0.227 0.4-0.253 0-0.387 0.067-0.387 0.2s0.173 0.213 0.56 0.24c0.44 0.027 0.587-0.013 0.76-0.267l0.213-0.293 0.213 0.293c0.267 0.387 0.987 0.4 1.333 0.013 0.373-0.413 0.333-1.28-0.067-1.6-0.613-0.493-1.48-0.133-1.48 0.627 0 0.213-0.067 0.32-0.16 0.28-0.173-0.067-0.187-0.147-0.040-0.507 0.173-0.467-0.733-0.853-1.253-0.533zM15.267 9.6c0 0.533-0.387 0.733-0.533 0.28-0.12-0.4 0.053-0.84 0.307-0.787 0.16 0.027 0.227 0.187 0.227 0.507z" fill="#000000"></path>
<path d="M18.773 8.64c-0.32 0.133-0.093 0.44 0.293 0.4 0.16-0.027 0.333 0.040 0.36 0.12 0.040 0.107-0.053 0.173-0.213 0.173-0.36 0-0.36 0.36 0 0.467 0.373 0.12 0.24 0.413-0.187 0.36-0.387-0.040-0.613 0.213-0.347 0.387 0.28 0.173 1 0.147 1.16-0.053 0.213-0.253 0.12-1.693-0.12-1.84-0.213-0.133-0.627-0.147-0.947-0.013z" fill="#000000"></path>
<path d="M21.040 8.76c-0.84 1-0.92 1.507-0.227 1.507 0.227 0 0.427 0.080 0.467 0.2 0.12 0.293 0.493 0.24 0.693-0.080l0.173-0.28 0.307 0.28c0.4 0.373 1.067 0.373 1.333-0.013 0.12-0.16 0.213-0.52 0.213-0.8 0-1.24-1.467-1.44-1.72-0.24-0.147 0.733-0.413 0.653-0.413-0.12 0-0.627-0.027-0.68-0.307-0.68-0.173 0-0.413 0.107-0.52 0.227zM23.333 9.267c0.227 0.28 0.053 0.893-0.24 0.84-0.24-0.040-0.373-0.52-0.24-0.853 0.093-0.24 0.267-0.24 0.48 0.013zM21.333 9.6c0 0.147-0.093 0.267-0.2 0.267-0.227 0-0.24-0.027-0.12-0.32 0.12-0.307 0.32-0.267 0.32 0.053z" fill="#000000"></path>
<path d="M14.827 12.547c-0.893 0.173-2.12 0.907-2.773 1.64-0.693 0.787-1.040 1.453-1.293 2.48l-0.187 0.733-4.507 0.040c-3.053 0.013-4.573 0.080-4.693 0.173-0.227 0.2-0.227 0.72 0.013 0.96 0.12 0.12 0.627 0.227 1.307 0.28 0.613 0.053 1.413 0.12 1.8 0.16l0.693 0.080-0.067 0.56c-0.267 1.933 2.32 2.747 3.213 1.013 0.107-0.213 0.2-0.6 0.2-0.867 0-0.253 0.053-0.467 0.133-0.467 0.36 0 3.56 0.293 3.693 0.333 0.093 0.027 0.133 0.147 0.080 0.267-0.053 0.173-0.227 0.213-0.787 0.173-0.427-0.027-0.72 0.013-0.72 0.093 0 0.347 1.067 1.893 1.707 2.48 0.987 0.907 1.92 1.253 3.427 1.253 1.080 0 1.293-0.040 2.107-0.427 1.040-0.493 2.133-1.533 2.587-2.453 0.467-0.96 0.467-0.96-0.4-0.933-0.693 0.027-0.773 0-0.733-0.213 0.040-0.253 0.133-0.267 2.88-0.493l1.093-0.093v0.48c0 1.040 0.733 1.8 1.733 1.8 1.080 0 1.84-0.867 1.68-1.947l-0.067-0.56 0.76-0.080c0.413-0.040 1.213-0.107 1.76-0.16 0.547-0.040 1.107-0.133 1.24-0.2 0.267-0.147 0.307-0.827 0.053-1.040-0.12-0.093-1.64-0.16-4.693-0.173l-4.507-0.040-0.307-0.987c-0.6-1.96-1.987-3.333-3.853-3.827-0.733-0.2-1.693-0.213-2.573-0.040zM14.133 16.947l1.333 0.16v0.64c0 0.36-0.027 0.653-0.080 0.653s-2.053-0.547-2.747-0.747c-0.307-0.093-0.333-0.853-0.040-0.853 0.107 0 0.787 0.067 1.533 0.147zM19.733 17.2c0 0.347-0.067 0.4-0.56 0.533-0.32 0.093-0.987 0.267-1.493 0.413-0.507 0.133-0.973 0.213-1.027 0.173-0.187-0.107-0.147-1.12 0.053-1.187 0.213-0.093 1.907-0.293 2.533-0.32 0.467-0.013 0.493 0.013 0.493 0.387zM7.36 19.667c0.12 0.28 0.107 0.373-0.093 0.6-0.133 0.147-0.347 0.267-0.467 0.267s-0.333-0.12-0.467-0.267c-0.36-0.4-0.093-0.933 0.467-0.933 0.307 0 0.44 0.080 0.56 0.333zM25.867 19.613c0.12 0.213 0.107 0.347-0.067 0.6-0.253 0.387-0.613 0.413-0.933 0.053-0.2-0.227-0.213-0.32-0.093-0.6 0.2-0.427 0.88-0.467 1.093-0.053z" fill="#000000"></path>
</svg>
