<?xml version="1.0" encoding="utf-8"?>
<!DOCTYPE svg PUBLIC "-//W3C//DTD SVG 1.1//EN" "http://www.w3.org/Graphics/SVG/1.1/DTD/svg11.dtd">
<svg version="1.1" xmlns="http://www.w3.org/2000/svg" xmlns:xlink="http://www.w3.org/1999/xlink" width="32" height="32" viewBox="0 0 32 32">
<path d="M12.528 2.4l-0.992 1.424 1.504 0.096 0.048 1.392c0.048 1.376 0.048 1.408 0.432 1.408s0.384-0.032 0.432-1.408l0.048-1.392 1.536-0.096-0.912-1.312c-0.512-0.72-0.96-1.36-1.008-1.424-0.048-0.048-0.544 0.544-1.088 1.312z" fill="#000000"></path>
<path d="M18.048 2.352l-0.048 1.408-1.536 0.16 0.992 1.408 0.976 1.408 0.944-1.36c0.512-0.736 0.944-1.392 0.944-1.44s-0.32-0.096-0.72-0.096h-0.72v-1.44c0-1.424 0-1.44-0.4-1.44-0.384 0-0.384 0.032-0.432 1.392z" fill="#000000"></path>
<path d="M5.92 20v11.2h20v-22.4h-20v11.2zM13.696 11.744c0.448 0.448 0.544 0.672 0.544 1.216s-0.096 0.768-0.544 1.216l-0.544 0.544h0.624c0.832 0 1.488 0.352 1.728 0.912 0.128 0.304 0.176 1.424 0.144 3.408l-0.048 2.944-0.512 0.16-0.528 0.144v6.352h-4.16v-6.368l-0.48-0.112c-0.272-0.064-0.56-0.24-0.64-0.4-0.208-0.384-0.208-5.024 0-5.776 0.24-0.832 0.656-1.152 1.696-1.232l0.88-0.080-0.48-0.288c-0.656-0.4-0.912-1.344-0.592-2.112 0.304-0.736 0.816-1.072 1.664-1.072 0.592 0 0.8 0.096 1.248 0.544zM20.736 11.744c0.448 0.448 0.544 0.672 0.544 1.216s-0.096 0.768-0.528 1.2l-0.528 0.528 0.88 0.064c0.704 0.064 0.944 0.16 1.248 0.512 0.368 0.432 0.368 0.48 0.336 3.584l-0.048 3.136-0.512 0.16-0.528 0.144v6.352h-4.16v-6.368l-0.496-0.112c-0.688-0.16-0.784-0.56-0.784-3.168 0.016-3.552 0.224-4.064 1.856-4.272 0.528-0.064 0.848-0.128 0.736-0.144-0.112 0-0.384-0.208-0.592-0.432-0.608-0.656-0.56-1.792 0.096-2.448 0.4-0.416 0.624-0.496 1.216-0.496 0.608 0 0.8 0.080 1.264 0.544z" fill="#000000"></path>
<path d="M11.936 12.336c-0.224 0.176-0.416 0.448-0.416 0.608 0 0.64 1.104 1.088 1.568 0.624 0.32-0.32 0.224-1.040-0.16-1.312-0.464-0.32-0.48-0.32-0.992 0.080z" fill="#000000"></path>
<path d="M10.24 15.984c-0.208 0.416-0.224 5.344 0 5.216 0.096-0.064 0.16-0.912 0.16-2.016v-1.904h0.8v10.4h0.8v-5.28h0.96v2.64c0 2.528 0.016 2.64 0.32 2.64 0.32 0 0.32-0.112 0.32-5.2v-5.2h0.944l0.064 2.032c0.048 1.984 0.048 1.968 0.080-0.608 0.016-1.872-0.016-2.688-0.16-2.832-0.128-0.128-0.848-0.192-2.16-0.192-1.776 0-1.968 0.032-2.128 0.304z" fill="#000000"></path>
<path d="M19.168 12.176c-0.16 0.080-0.368 0.304-0.464 0.48-0.384 0.72 0.832 1.504 1.424 0.912 0.32-0.32 0.224-1.040-0.16-1.312-0.416-0.304-0.432-0.304-0.8-0.080z" fill="#000000"></path>
<path d="M17.28 16.080c-0.208 0.56-0.208 5.040 0 5.040 0.096 0 0.16-0.752 0.16-1.92v-1.92h0.96v5.2c0 5.088 0 5.2 0.32 5.2 0.304 0 0.32-0.112 0.32-2.64v-2.64h0.96v2.64c0 2.528 0.016 2.64 0.32 2.64 0.32 0 0.32-0.112 0.32-5.2v-5.2h0.96v2.016c0 1.296 0.064 1.968 0.16 1.904 0.24-0.144 0.208-4.544-0.048-5.040-0.192-0.384-0.24-0.4-2.24-0.448l-2.032-0.048-0.16 0.416z" fill="#000000"></path>
</svg>
