<?xml version="1.0" encoding="utf-8"?>
<!DOCTYPE svg PUBLIC "-//W3C//DTD SVG 1.1//EN" "http://www.w3.org/Graphics/SVG/1.1/DTD/svg11.dtd">
<svg version="1.1" xmlns="http://www.w3.org/2000/svg" xmlns:xlink="http://www.w3.org/1999/xlink" width="32" height="32" viewBox="0 0 32 32">
<path d="M14.16 2.080c-2.656 0.528-4.896 2.288-6.128 4.816-0.56 1.184-0.608 1.232-1.216 1.312-1.104 0.16-2.864 1.152-3.776 2.128-0.944 1.056-1.344 1.776-1.68 3.056-0.992 3.792 1.28 7.6 5.12 8.624 0.592 0.16 2.192 0.224 6.128 0.224h5.328l-0.432 0.56c-0.256 0.336-0.448 0.848-0.512 1.28-0.096 0.976 0.24 1.36 1.184 1.36 0.864 0 1.184-0.4 1.184-1.456 0-0.416 0.048-0.96 0.096-1.232l0.096-0.496 3.712-0.048c4.16-0.048 4.512-0.128 5.856-1.344 1.008-0.912 1.488-1.968 1.568-3.52 0.064-1.168 0.016-1.408-0.368-2.288-0.864-1.904-2.816-3.136-4.8-3.024l-0.976 0.048v-1.44c0.016-5.488-5.008-9.632-10.384-8.56z" fill="#000000"></path>
<path d="M14 26.672c-1.424 0.768-2.128 1.824-1.92 2.88 0.112 0.608 0.464 0.848 1.248 0.848 0.768 0 1.024-0.368 1.152-1.6 0.048-0.576 0.128-1.344 0.176-1.728 0.096-0.736 0.048-0.768-0.656-0.4z" fill="#000000"></path>
<path d="M20.56 26.736c-1.264 0.672-1.84 1.456-1.84 2.512 0 0.768 0.384 1.152 1.168 1.152 0.96 0 1.152-0.336 1.296-2.32 0.032-0.624 0.128-1.248 0.176-1.408 0.144-0.352-0.032-0.352-0.8 0.064z" fill="#000000"></path>
</svg>
