<?xml version="1.0" encoding="utf-8"?>
<!DOCTYPE svg PUBLIC "-//W3C//DTD SVG 1.1//EN" "http://www.w3.org/Graphics/SVG/1.1/DTD/svg11.dtd">
<svg version="1.1" xmlns="http://www.w3.org/2000/svg" xmlns:xlink="http://www.w3.org/1999/xlink" width="32" height="32" viewBox="0 0 32 32">
<path d="M3.712 6.432l0.048 4.048 24.56 0.080v-8.16h-24.64l0.032 4.032zM17.408 3.44c1.52 0.64 2.176 2.064 1.568 3.504-0.384 0.928-1.728 1.648-2.256 1.216-0.16-0.128-0.304-0.128-0.544-0.016-1.072 0.592-2.208-0.624-1.872-2 0.064-0.24 0.32-0.624 0.576-0.88 0.512-0.528 1.312-0.624 1.872-0.224 0.304 0.208 0.352 0.208 0.432 0 0.048-0.128 0.24-0.24 0.432-0.24 0.304 0 0.336 0.064 0.24 0.512-0.064 0.288-0.16 0.864-0.208 1.28-0.080 0.64-0.048 0.768 0.16 0.768 0.368 0 0.592-0.496 0.592-1.312 0-1.424-0.96-2.16-2.576-2.016-1.216 0.128-2.064 1.104-2.064 2.4 0 0.8 0.576 1.824 1.184 2.112 0.672 0.32 2.112 0.32 2.656 0.016 0.224-0.128 0.576-0.224 0.784-0.24h0.384l-0.384 0.416c-0.208 0.24-0.608 0.528-0.896 0.64-0.656 0.288-1.984 0.288-2.656 0.016-0.992-0.432-2.032-1.936-2.032-2.992 0-0.592 0.384-1.504 0.848-2.032 0.944-1.072 2.48-1.456 3.76-0.928z" fill="#000000"></path>
<path d="M15.424 6.16c-0.56 0.848 0.432 1.648 1.104 0.912 0.16-0.16 0.272-0.432 0.272-0.608 0-0.768-0.944-0.96-1.376-0.304z" fill="#000000"></path>
<path d="M3.68 16.080v4.080h24.64v-8.16h-24.64v4.080zM20.288 13.792l-0.048 0.528-4.192 0.048-4.208 0.032v-1.12h8.496l-0.048 0.512z" fill="#000000"></path>
<path d="M3.68 25.76v4h24.64v-8h-24.64v4zM20.24 23.44v0.48l-4.192 0.048-4.208 0.032v-1.12l4.208 0.032 4.192 0.048v0.48z" fill="#000000"></path>
</svg>
