<?xml version="1.0" encoding="utf-8"?>
<!DOCTYPE svg PUBLIC "-//W3C//DTD SVG 1.1//EN" "http://www.w3.org/Graphics/SVG/1.1/DTD/svg11.dtd">
<svg version="1.1" xmlns="http://www.w3.org/2000/svg" xmlns:xlink="http://www.w3.org/1999/xlink" width="32" height="32" viewBox="0 0 32 32">
<path d="M21.248 6.192l-0.048 3.648-2.608 0.096-0.048-1.36c-0.064-1.248-0.096-1.392-0.544-1.856-0.704-0.736-1.264-0.832-4.592-0.768-2.72 0.048-3.024 0.080-3.44 0.384-0.704 0.512-1.008 1.28-1.008 2.496v1.072l-6.592 0.096-0.544 0.592-0.544 0.608v8.56c0 9.408-0.016 9.248 0.96 9.76 0.704 0.368 22.336 0.368 23.040 0 0.72-0.368 0.96-0.992 0.96-2.48v-1.28h4.48v-23.2h-9.44l-0.032 3.632zM30.208 5.792l0.032 2.688h-8.48v-2.608c0-1.44 0.048-2.672 0.112-2.72 0.064-0.064 1.952-0.096 4.192-0.080l4.096 0.048 0.048 2.672zM17.12 7.36c0.256 0.256 0.32 0.528 0.32 1.44v1.12h-7.36v-1.12c0-1.776-0.016-1.76 3.68-1.76 2.832 0 3.056 0.016 3.36 0.32zM30.24 17.12v8h-8.48v-16h8.48v8z" fill="#000000"></path>
<path d="M22.512 5.872c-0.288 0.752-0.256 1.056 0.080 0.72 0.24-0.24 0.768-0.256 0.768-0.032 0 0.080 0.112 0.16 0.256 0.16s0.208-0.096 0.16-0.208c-0.032-0.096-0.16-0.464-0.272-0.8-0.272-0.832-0.64-0.768-0.992 0.16zM23.2 5.92c0 0.080-0.064 0.16-0.16 0.16-0.080 0-0.16-0.080-0.16-0.16 0-0.096 0.080-0.16 0.16-0.16 0.096 0 0.16 0.064 0.16 0.16z" fill="#000000"></path>
<path d="M24 5.92c0 0.432 0.080 0.8 0.16 0.8 0.096 0 0.16-0.144 0.16-0.32 0-0.208 0.112-0.32 0.32-0.32 0.176 0 0.32-0.080 0.32-0.16 0-0.096-0.144-0.16-0.336-0.16-0.448 0-0.304-0.368 0.192-0.496 0.32-0.096 0.288-0.112-0.208-0.128l-0.608-0.016v0.8z" fill="#000000"></path>
<path d="M26.032 5.216c-0.16 0.16-0.144 1.056 0.032 1.312 0.064 0.128 0.304 0.192 0.512 0.16 0.336-0.048 0.384-0.128 0.384-0.768 0-0.656-0.032-0.72-0.4-0.768-0.224-0.032-0.464 0-0.528 0.064zM26.72 5.936c0 0.304-0.080 0.464-0.24 0.464-0.24 0-0.352-0.8-0.144-1.008 0.192-0.192 0.384 0.064 0.384 0.544z" fill="#000000"></path>
<path d="M27.312 5.232c-0.144 0.128-0.144 0.896-0.016 1.232 0.144 0.384 0.88 0.32 0.976-0.064 0.096-0.336 0.096-0.336 0.32 0 0.144 0.208 0.368 0.32 0.576 0.288 0.304-0.048 0.352-0.16 0.352-0.768 0-0.672-0.032-0.72-0.448-0.768-0.336-0.048-0.464 0.032-0.56 0.304l-0.144 0.368-0.080-0.352c-0.096-0.336-0.72-0.496-0.976-0.24zM28 5.936c0 0.304-0.080 0.464-0.24 0.464-0.24 0-0.352-0.8-0.144-1.008 0.192-0.192 0.384 0.064 0.384 0.544zM29.28 5.936c0 0.304-0.080 0.464-0.24 0.464-0.24 0-0.352-0.8-0.144-1.008 0.192-0.192 0.384 0.064 0.384 0.544z" fill="#000000"></path>
<path d="M22.72 11.12v0.72h6.56v-1.44h-6.56v0.72z" fill="#000000"></path>
<path d="M22.72 12.72v0.4h6.56v-0.8h-6.56v0.4z" fill="#000000"></path>
<path d="M22.72 14c0 0.208 0.464 0.24 3.28 0.24s3.28-0.032 3.28-0.24c0-0.208-0.464-0.24-3.28-0.24s-3.28 0.032-3.28 0.24z" fill="#000000"></path>
<path d="M22.72 14.96c0 0.208 0.464 0.24 3.28 0.24s3.28-0.032 3.28-0.24c0-0.208-0.464-0.24-3.28-0.24s-3.28 0.032-3.28 0.24z" fill="#000000"></path>
<path d="M22.72 17.52v1.52h6.56v-3.040h-6.56v1.52z" fill="#000000"></path>
<path d="M23.84 20.8c-0.096 0.176-0.352 0.368-0.56 0.416-0.608 0.144-0.544 0.704 0.080 0.704h0.48v1.2c0 1.168 0.016 1.2 0.4 1.2h0.4v-1.92c0-1.808-0.016-1.92-0.32-1.92-0.16 0-0.384 0.144-0.48 0.32z" fill="#000000"></path>
<path d="M25.92 22.4v1.92h0.4c0.368 0 0.4-0.064 0.4-0.736v-0.72l0.688 0.048c0.656 0.048 0.672 0.064 0.816 0.72 0.128 0.592 0.208 0.688 0.544 0.688 0.384 0 0.384-0.032 0.288-0.736-0.048-0.416-0.16-0.832-0.24-0.928-0.096-0.112-0.064-0.288 0.080-0.48 0.32-0.448 0.272-1.008-0.096-1.376-0.272-0.272-0.528-0.32-1.6-0.32h-1.28v1.92zM28.128 21.584c0.064 0.464-0.192 0.656-0.88 0.656-0.496 0-0.528-0.032-0.528-0.576v-0.56l0.688 0.048c0.576 0.048 0.688 0.112 0.72 0.432z" fill="#000000"></path>
</svg>
