<?xml version="1.0" encoding="utf-8"?>
<!-- Generated by IcoMoon.io -->
<!DOCTYPE svg PUBLIC "-//W3C//DTD SVG 1.1//EN" "http://www.w3.org/Graphics/SVG/1.1/DTD/svg11.dtd">
<svg version="1.1" xmlns="http://www.w3.org/2000/svg" xmlns:xlink="http://www.w3.org/1999/xlink" width="31" height="32" viewBox="0 0 31 32">
<path fill="#444444" d="M1.758 31.797c-1.178-0.058-1.682-0.134-1.682-0.254 0-0.065 0.157-0.261 0.35-0.434 0.715-0.646 1.476-1.080 2.584-1.472l1.112-0.394 0.056-8.533c0.066-10.053 0.164-11.826 0.771-13.918 0.475-1.64 1.673-3.491 2.937-4.541 1.162-0.964 2.894-1.64 5.1-1.989 1.237-0.196 7.463-0.292 9.026-0.14 1.855 0.181 3.117 0.612 4.847 1.656 3.502 2.112 4.95 4.981 3.402 6.74-0.967 1.099-2.644 1.514-8.002 1.98-5.174 0.45-7.718 1.101-8.71 2.227-0.711 0.808-0.703 1.641 0.031 3.105 0.221 0.441 0.403 0.878 0.404 0.971 0.001 0.106 0.049 0.151 0.128 0.121 1.212-0.465 5.204-1.601 8.193-2.331 3.459-0.845 4.789-1.115 5.291-1.074 0.64 0.052 1.259 0.443 1.615 1.020l0.275 0.445v12.742l-0.253 0.431c-0.139 0.237-0.399 0.53-0.577 0.651s-0.458 0.419-0.622 0.663c-0.686 1.018-2.287 2.12-3.275 2.253-0.286 0.039-0.247 0.014 0.182-0.115 1.848-0.556 3.346-2.095 3.817-3.921 0.193-0.747 0.193-1.993 0.001-2.735-0.187-0.721-0.558-1.464-1.032-2.063-0.201-0.255-0.348-0.488-0.326-0.518s0.015-0.037-0.015-0.015c-0.030 0.022-0.263-0.125-0.518-0.326-1.002-0.792-2.132-1.181-3.427-1.181-1.523 0-2.786 0.525-3.877 1.612-1.052 1.047-1.579 2.33-1.576 3.838 0.005 2.473 1.586 4.597 3.953 5.31 0.429 0.129 0.468 0.154 0.182 0.115-0.949-0.128-2.686-1.304-3.232-2.188l-0.192-0.31h-5.047c-5.679 0-5.379 0.035-6.023-0.696-0.384-0.437-0.993-1.55-1.223-2.237-0.287-0.856-0.35-1.61-0.197-2.344 0.222-1.065 0.502-1.526 1.657-2.723 1.627-1.688 3.318-3.060 4.439-3.603 0.35-0.169 0.634-0.338 0.631-0.375s-0.153-0.374-0.333-0.749c-0.399-0.832-0.636-1.696-0.649-2.368-0.022-1.118 1.194-2.67 2.53-3.228 0.869-0.363 4.927-1.016 8.14-1.309 3.586-0.328 4.966-0.572 5.895-1.042 0.844-0.427 1.11-1.023 0.922-2.058-0.149-0.821-0.49-1.458-1.178-2.203-1.043-1.128-2.832-2.276-4.336-2.782-2.17-0.729-7.954-0.825-11.148-0.183-3.748 0.752-6.583 3.647-7.11 7.261-0.334 2.288-0.497 7.151-0.498 14.84l-0.001 5.792 0.932 0.282c0.513 0.155 1.118 0.342 1.345 0.414 0.899 0.287 2.515 1.454 2.309 1.668-0.202 0.209-5.331 0.35-7.994 0.219zM22.737 31.793c0.138-0.021 0.343-0.020 0.455 0.001s-0.001 0.039-0.251 0.038c-0.25-0.001-0.341-0.018-0.203-0.039zM23.737 31.793c0.138-0.021 0.343-0.020 0.455 0.001s-0.001 0.039-0.251 0.038c-0.25-0.001-0.341-0.018-0.203-0.039zM22.212 30.245c-1.106-0.394-2.030-1.225-2.526-2.272-0.277-0.585-0.291-0.666-0.291-1.705s0.014-1.12 0.292-1.708c0.409-0.864 1.154-1.62 2.016-2.046 0.674-0.333 0.697-0.337 1.783-0.337s1.109 0.004 1.783 0.337c0.862 0.426 1.606 1.182 2.016 2.046 0.279 0.588 0.292 0.668 0.292 1.708s-0.014 1.12-0.292 1.708c-0.409 0.863-1.154 1.62-2.014 2.045-0.638 0.315-0.742 0.338-1.642 0.362-0.742 0.020-1.065-0.012-1.417-0.137z"></path>
</svg>
