<?xml version="1.0" encoding="utf-8"?>
<!DOCTYPE svg PUBLIC "-//W3C//DTD SVG 1.1//EN" "http://www.w3.org/Graphics/SVG/1.1/DTD/svg11.dtd">
<svg version="1.1" xmlns="http://www.w3.org/2000/svg" xmlns:xlink="http://www.w3.org/1999/xlink" width="32" height="32" viewBox="0 0 32 32">
<path d="M1.312 11.312l0.048 8.768 2.24 0.096 2.24 0.080 3.152 1.456c1.728 0.8 3.264 1.52 3.408 1.6 0.208 0.128-0.256 0.384-2.112 1.248-1.296 0.592-2.512 1.104-2.704 1.104-0.192 0.016-1.632 0.592-3.216 1.28l-2.88 1.28 0.32 0.768c0.176 0.432 0.368 0.752 0.432 0.736 2.032-0.816 5.904-2.656 5.856-2.784-0.080-0.192 5.76-2.896 6.048-2.816 0.784 0.224 5.696 2.56 5.728 2.72 0.032 0.176 4.592 2.352 5.6 2.688 0.192 0.064 0.368-0.096 0.608-0.592 0.192-0.368 0.288-0.72 0.208-0.8-0.24-0.24-5.552-2.544-5.872-2.544-0.448-0.016-4.832-2.016-4.768-2.176 0.112-0.256 8.576-4 9.712-4.288 0.624-0.16 1.552-0.496 2.080-0.752 3.616-1.696 3.664-4.4 0.112-7.216-0.576-0.464-1.568-1.36-2.192-1.984-2.448-2.48-6.032-4.256-10.96-5.408-3.152-0.752-7.456-1.216-11.152-1.216h-1.968l0.032 8.752zM24.192 9.968c0.576 0.64 1.040 1.168 1.008 1.2-0.016 0.032-0.8-0.032-1.728-0.144l-1.664-0.176-0.672-1.168c-0.352-0.64-0.656-1.2-0.656-1.232 0-0.048 0.592 0.016 1.328 0.144l1.312 0.24 1.072 1.136zM20.464 19.904c-0.032 0.032-1.488 0.72-3.232 1.504l-3.152 1.44-2.912-1.296-2.912-1.312 5.728-0.112c3.152-0.064 5.776-0.144 5.824-0.192s0.224-0.096 0.4-0.096c0.176 0 0.288 0.032 0.256 0.064z" fill="#000000"></path>
</svg>
