<?xml version="1.0" encoding="utf-8"?>
<!DOCTYPE svg PUBLIC "-//W3C//DTD SVG 1.1//EN" "http://www.w3.org/Graphics/SVG/1.1/DTD/svg11.dtd">
<svg version="1.1" xmlns="http://www.w3.org/2000/svg" xmlns:xlink="http://www.w3.org/1999/xlink" width="29" height="32" viewBox="0 0 29 32">
<path d="M9.741 0.703c-1.407 0.422-3.235 1.899-4.114 3.341-0.985 1.582-1.055 4.642-0.211 6.681 0.598 1.371 0.598 1.407-0.211 1.934-3.481 2.286-5.029 4.923-4.993 8.686 0.070 6.294 5.099 10.69 11.745 10.233 2.040-0.141 4.009-0.844 6.716-2.286 0.141-0.070 0.563 0.422 0.949 1.125l0.738 1.231h7.771v-6.084l-2.11 0.211c-2.673 0.246-3.165-0.211-2.356-2.145 0.316-0.703 0.774-1.969 0.985-2.778 0.422-1.442 0.492-1.512 1.758-1.512 1.231 0 1.371-0.105 1.547-1.16 0.105-0.598 0.316-1.899 0.492-2.884 0.176-0.949 0.281-1.793 0.211-1.864-0.105-0.105-5.767 0.563-7.103 0.809-0.598 0.141-0.844 0.563-1.16 2.040-0.211 0.985-0.598 2.286-0.809 2.848l-0.457 1.020-4.36-5.837 1.934-1.196c2.251-1.407 3.305-2.954 3.552-5.275 0.176-1.407 0.035-2.004-0.809-3.622-0.809-1.547-1.371-2.075-2.884-2.884-1.969-1.020-4.677-1.266-6.822-0.633zM13.996 5.837c1.442 0.985 0.879 2.532-1.301 3.657-0.774 0.387-0.949 0.352-1.512-0.352-1.266-1.547-0.387-3.868 1.477-3.868 0.316 0 0.914 0.246 1.336 0.563zM12.448 20.431c1.688 2.321 2.954 4.36 2.848 4.571-0.527 0.844-2.462 1.442-4.079 1.301-3.376-0.352-5.837-3.622-4.923-6.576 0.316-1.090 2.391-3.552 2.989-3.552 0.070 0 1.512 1.899 3.165 4.255z" fill="#000000"></path>
</svg>
