<?xml version="1.0" encoding="utf-8"?>
<!DOCTYPE svg PUBLIC "-//W3C//DTD SVG 1.1//EN" "http://www.w3.org/Graphics/SVG/1.1/DTD/svg11.dtd">
<svg version="1.1" xmlns="http://www.w3.org/2000/svg" xmlns:xlink="http://www.w3.org/1999/xlink" width="32" height="32" viewBox="0 0 32 32">
<path d="M2.24 10.208c-0.304 0.144-0.72 0.512-0.912 0.816-0.368 0.528-0.368 0.624-0.368 5.056s0 4.528 0.368 5.056c0.768 1.168-0.048 1.104 14.736 1.104 13.152 0 13.264 0 13.856-0.336 1.104-0.624 1.12-0.688 1.12-5.824s-0.016-5.2-1.12-5.824c-0.592-0.336-0.704-0.336-13.856-0.336-12.304 0-13.312 0.016-13.824 0.288zM21.6 11.12c0 0.608-0.048 0.72-0.32 0.72s-0.32-0.112-0.32-0.72c0-0.608 0.048-0.72 0.32-0.72s0.32 0.112 0.32 0.72zM21.6 13.6c0 0.528-0.048 0.64-0.32 0.64s-0.32-0.112-0.32-0.64c0-0.528 0.048-0.64 0.32-0.64s0.32 0.112 0.32 0.64zM23.504 14.192c0.128 0.336 0.256 0.704 0.288 0.8 0.048 0.112-0.032 0.208-0.176 0.208s-0.256-0.080-0.256-0.16c0-0.096-0.144-0.16-0.32-0.16s-0.32 0.064-0.32 0.16c0 0.080-0.112 0.16-0.256 0.16s-0.224-0.096-0.176-0.208c0.032-0.096 0.16-0.464 0.288-0.8 0.128-0.352 0.32-0.592 0.464-0.592s0.336 0.24 0.464 0.592zM25.12 13.76c0 0.080-0.176 0.16-0.4 0.16s-0.4 0.064-0.4 0.16c0 0.080 0.176 0.16 0.4 0.16s0.4 0.064 0.4 0.16c0 0.080-0.176 0.16-0.4 0.16-0.288 0-0.4 0.080-0.4 0.32 0 0.176-0.064 0.32-0.16 0.32-0.080 0-0.16-0.368-0.16-0.8v-0.8h0.56c0.304 0 0.56 0.064 0.56 0.16zM26.992 13.856c0.080 0.24 0.112 0.24 0.24 0 0.192-0.336 0.88-0.32 1.072 0.016 0.144 0.272 0.16 0.272 0.256 0 0.128-0.32 0.72-0.368 1.008-0.080s0.224 1.008-0.112 1.312c-0.32 0.288-0.736 0.208-0.88-0.176-0.080-0.192-0.144-0.176-0.384 0.112-0.256 0.304-0.352 0.336-0.64 0.176-0.192-0.096-0.352-0.272-0.352-0.352 0-0.096-0.128-0.016-0.288 0.176-0.256 0.304-0.352 0.336-0.64 0.176-0.272-0.144-0.352-0.336-0.352-0.8 0-0.336 0.048-0.656 0.112-0.704 0.208-0.208 0.864-0.112 0.96 0.144zM21.6 16.080c0 0.608-0.048 0.72-0.32 0.72s-0.32-0.112-0.32-0.72c0-0.608 0.048-0.72 0.32-0.72s0.32 0.112 0.32 0.72zM29.568 16.672c0.128 0.128 0.192 0.8 0.192 1.968s-0.064 1.84-0.192 1.968c-0.272 0.272-3.984 0.272-4.256 0-0.208-0.208-0.288-3.824-0.080-4.016 0.192-0.208 4.128-0.128 4.336 0.080zM21.6 18.56c0 0.528-0.048 0.64-0.32 0.64s-0.32-0.112-0.32-0.64c0-0.528 0.048-0.64 0.32-0.64s0.32 0.112 0.32 0.64zM21.6 21.12c0 0.528-0.048 0.64-0.32 0.64s-0.32-0.112-0.32-0.64c0-0.528 0.048-0.64 0.32-0.64s0.32 0.112 0.32 0.64z" fill="#000000"></path>
<path d="M22.88 14.384c0 0.096 0.080 0.176 0.16 0.176 0.096 0 0.16-0.032 0.16-0.064 0-0.048-0.064-0.128-0.16-0.176-0.080-0.048-0.16-0.016-0.16 0.064z" fill="#000000"></path>
<path d="M26.304 14.16c-0.128 0.304 0.032 0.72 0.256 0.72 0.080 0 0.16-0.224 0.16-0.48 0-0.496-0.256-0.656-0.416-0.24z" fill="#000000"></path>
<path d="M27.584 14.16c-0.128 0.304 0.032 0.72 0.256 0.72 0.080 0 0.16-0.224 0.16-0.48 0-0.496-0.256-0.656-0.416-0.24z" fill="#000000"></path>
<path d="M28.864 14.16c-0.128 0.304 0.032 0.72 0.256 0.72 0.080 0 0.16-0.224 0.16-0.48 0-0.496-0.256-0.656-0.416-0.24z" fill="#000000"></path>
<path d="M25.552 16.896c-0.064 0.064-0.112 0.864-0.112 1.776v1.648h4.016l-0.048-1.728-0.048-1.712-1.856-0.048c-1.008-0.016-1.888 0.016-1.952 0.064zM26.4 18.56c0 0.432-0.064 0.8-0.16 0.8-0.080 0-0.16-0.208-0.16-0.464s-0.096-0.496-0.192-0.544c-0.144-0.048-0.112-0.16 0.112-0.336 0.176-0.128 0.336-0.256 0.368-0.256 0.016 0 0.032 0.352 0.032 0.8zM27.424 17.856c0.336 0.128 0.32 0.528-0.016 0.896-0.24 0.272-0.24 0.288 0 0.288 0.16 0 0.272 0.064 0.272 0.16 0 0.176-0.848 0.224-1.008 0.048-0.064-0.064 0.064-0.304 0.304-0.544 0.256-0.272 0.352-0.464 0.24-0.528-0.096-0.064-0.176-0.032-0.176 0.048 0 0.096-0.112 0.176-0.24 0.176-0.208 0-0.224-0.064-0.080-0.32 0.176-0.336 0.304-0.384 0.704-0.224zM29.088 18.16c0.048 0.256 0.016 0.288-0.144 0.112-0.288-0.272-0.576-0.24-0.688 0.064-0.128 0.352 0.208 0.784 0.448 0.544 0.080-0.080 0.272-0.16 0.4-0.16 0.176 0 0.16 0.064-0.064 0.32-0.352 0.384-0.608 0.4-0.944 0.064-0.304-0.304-0.336-0.88-0.064-1.152 0.304-0.304 0.992-0.176 1.056 0.208z" fill="#000000"></path>
</svg>
