<?xml version="1.0" encoding="utf-8"?>
<!DOCTYPE svg PUBLIC "-//W3C//DTD SVG 1.1//EN" "http://www.w3.org/Graphics/SVG/1.1/DTD/svg11.dtd">
<svg version="1.1" xmlns="http://www.w3.org/2000/svg" xmlns:xlink="http://www.w3.org/1999/xlink" width="32" height="32" viewBox="0 0 32 32">
<path d="M12.88 2.192c-0.608 0.128-1.168 0.288-1.232 0.336-0.16 0.16 1.12 1.632 1.408 1.632 0.128 0 0.576-0.256 0.992-0.56 0.432-0.304 1.2-0.8 1.712-1.12l0.944-0.56-1.36 0.016c-0.736 0-1.84 0.112-2.464 0.256z" fill="#000000"></path>
<path d="M17.76 3.008c-1.648 0.912-3.36 2.080-3.36 2.256 0 0.192 1.648 1.312 3.072 2.080 1.136 0.624 1.232 0.656 1.376 0.384 0.32-0.592 2.112-4.704 2.112-4.832 0-0.144-1.328-0.656-1.664-0.656-0.096 0-0.784 0.352-1.536 0.768z" fill="#000000"></path>
<path d="M9.008 3.664c-1.264 0.704-2.256 1.472-3.344 2.608-1.152 1.2-2.224 2.752-2.096 3.056 0.192 0.496 3.456 2.4 3.584 2.080 0.256-0.672 2.464-3.712 3.536-4.848l1.28-1.376-0.96-0.992c-0.528-0.544-1.008-0.992-1.056-0.992-0.064 0-0.496 0.208-0.944 0.464z" fill="#000000"></path>
<path d="M22.176 3.872c-0.128 0.288-0.624 1.424-1.12 2.512-0.496 1.104-0.896 2.032-0.896 2.096s0.672 0.304 1.488 0.544c1.808 0.544 1.776 0.544 2.736 0.72l0.768 0.144-0.096-1.472c-0.064-0.8-0.176-1.92-0.272-2.496-0.16-1.136-0.432-1.456-1.744-2.208l-0.656-0.368-0.208 0.528z" fill="#000000"></path>
<path d="M11.904 7.392c-1.648 1.696-3.536 4.416-3.376 4.832 0.064 0.176 5.696 2.752 6.608 3.040 0.288 0.096 0.464-0.192 1.664-2.896 1.104-2.448 1.296-3.008 1.12-3.12-0.128-0.080-0.88-0.496-1.664-0.944s-1.808-1.088-2.272-1.44c-0.464-0.336-0.88-0.624-0.912-0.624s-0.56 0.528-1.168 1.152z" fill="#000000"></path>
<path d="M26.496 8.16c0.064 1.008 0.112 1.856 0.128 1.872 0 0.016 0.544 0.080 1.184 0.144l1.184 0.112-0.352-0.704c-0.368-0.72-1.328-2.144-1.92-2.864l-0.32-0.4 0.096 1.84z" fill="#000000"></path>
<path d="M19.12 10.752c-1.232 2.688-2.288 5.168-2.24 5.216 0.032 0.032 1.552 0.656 3.392 1.392l3.328 1.328 0.192-0.432c0.352-0.768 0.992-3.76 1.152-5.296 0.080-0.832 0.128-1.536 0.112-1.552s-0.72-0.176-1.568-0.368c-0.864-0.176-2.080-0.512-2.704-0.72-0.64-0.224-1.184-0.4-1.216-0.4s-0.24 0.384-0.448 0.832z" fill="#000000"></path>
<path d="M2.592 11.152c-0.608 1.568-0.752 2.416-0.752 4.768 0 1.312 0.048 2.656 0.128 2.976 0.112 0.56 0.128 0.56 1.328 0.768 0.672 0.112 1.232 0.176 1.248 0.144 0.032-0.032 0.176-0.736 0.32-1.568s0.56-2.384 0.912-3.424c0.336-1.040 0.608-1.92 0.592-1.936-0.032-0.016-0.48-0.256-1.008-0.544-0.528-0.304-1.296-0.784-1.728-1.072-0.416-0.304-0.784-0.544-0.816-0.544s-0.128 0.192-0.224 0.432z" fill="#000000"></path>
<path d="M26.48 12.496c-0.192 1.808-0.56 3.776-0.976 5.2-0.224 0.768-0.336 1.456-0.272 1.52s1.024 0.448 2.112 0.864c1.552 0.576 2.016 0.688 2.112 0.528 0.080-0.112 0.256-0.752 0.416-1.408 0.384-1.632 0.384-4.624 0-6.288l-0.288-1.232h-1.008c-0.56 0-1.232-0.048-1.504-0.096l-0.48-0.096-0.112 1.008z" fill="#000000"></path>
<path d="M7.376 14.512c-0.432 1.2-1.072 3.728-1.216 4.848l-0.112 0.896 1.664 0.448c0.896 0.256 2.32 0.704 3.152 0.992 0.832 0.304 1.52 0.528 1.552 0.512 0.112-0.128 2.304-5.184 2.304-5.328 0-0.080-1.488-0.832-3.312-1.648-1.84-0.816-3.408-1.52-3.504-1.568s-0.32 0.32-0.528 0.848z" fill="#000000"></path>
<path d="M14.976 20.048c-0.88 1.952-1.168 2.768-1.024 2.816 0.112 0.032 1.44 0.688 2.96 1.456l2.752 1.392 0.96-1.28c0.528-0.704 1.312-1.984 1.76-2.832l0.8-1.536-2.992-1.184c-1.648-0.64-3.216-1.264-3.488-1.376l-0.512-0.208-1.216 2.752z" fill="#000000"></path>
<path d="M23.664 22.256c-0.464 0.896-1.248 2.192-1.776 2.88-0.512 0.704-0.928 1.296-0.928 1.344 0 0.032 0.544 0.448 1.232 0.896l1.216 0.832 0.576-0.304c0.928-0.496 3.12-2.768 4-4.144 0.448-0.704 0.816-1.36 0.816-1.44 0-0.128-3.888-1.68-4.208-1.68-0.048 0-0.48 0.736-0.928 1.616z" fill="#000000"></path>
<path d="M2.56 21.040c0 0.192 0.896 1.936 1.344 2.64l0.576 0.88-0.048-1.6-0.032-1.584-0.912-0.192c-0.512-0.096-0.928-0.16-0.928-0.144z" fill="#000000"></path>
<path d="M5.968 24.032l0.080 2.288 0.752 0.672c0.704 0.64 2.608 1.904 2.704 1.792 0.128-0.192 2.176-4.928 2.176-5.072 0-0.080-0.496-0.336-1.104-0.56-1.072-0.4-4.336-1.392-4.576-1.392-0.080 0-0.080 1.024-0.032 2.272z" fill="#000000"></path>
<path d="M12.896 24.672c-0.112 0.288-0.624 1.456-1.136 2.592-0.528 1.216-0.848 2.112-0.768 2.192s0.848 0.304 1.696 0.496l1.536 0.352 1.152-0.8c0.64-0.432 1.616-1.216 2.208-1.76l1.040-0.976-2.624-1.296c-1.44-0.72-2.688-1.312-2.752-1.312s-0.224 0.24-0.352 0.512z" fill="#000000"></path>
<path d="M19.040 28.368c-0.4 0.368-1.072 0.976-1.504 1.344l-0.8 0.672 0.72-0.096c1.040-0.112 3.072-0.624 3.856-0.96l0.688-0.304-0.992-0.672c-0.544-0.368-1.056-0.672-1.12-0.672s-0.448 0.32-0.848 0.688z" fill="#000000"></path>
</svg>
