<?xml version="1.0" encoding="utf-8"?>
<!DOCTYPE svg PUBLIC "-//W3C//DTD SVG 1.1//EN" "http://www.w3.org/Graphics/SVG/1.1/DTD/svg11.dtd">
<svg version="1.1" xmlns="http://www.w3.org/2000/svg" xmlns:xlink="http://www.w3.org/1999/xlink" width="32" height="32" viewBox="0 0 32 32">
<path d="M14.467 1.947c-3.213 0.52-5.693 2.413-7.013 5.347-0.413 0.893-1.053 3.16-1.053 3.733 0 0.293 0.040 0.307 1.773 0.48 0.213 0.027 0.307-0.213 0.627-1.48 0.453-1.8 1.053-2.933 2.107-4.013 1.827-1.867 4.827-2.493 7.52-1.547 2.36 0.813 3.64 2.173 4.333 4.627 0.267 0.973 0.373 4.293 0.187 5.733-0.707 5.32-3.693 10.44-7.373 12.68-2.027 1.227-4.533 1.387-5.227 0.333-0.147-0.24-0.427-0.36-1.013-0.48-0.453-0.093-0.893-0.2-1-0.253-0.16-0.053-0.2 0.067-0.2 0.547 0 1.147 0.667 2.067 1.867 2.6 2.253 1 5.36 0.293 8.013-1.827 3.573-2.827 6.253-7.813 7.040-13.053 0.213-1.36 0.187-4.573-0.040-5.84-0.707-3.893-2.773-6.267-6.347-7.267-0.987-0.267-3.36-0.453-4.2-0.32z" fill="#000000"></path>
<path d="M14.467 5.653c-1.8 0.587-2.973 1.827-3.827 4.093-0.4 1.040-0.427 1.24-0.427 2.853l-0.013 1.747 0.507 1.013c0.267 0.56 0.68 1.173 0.907 1.373l0.427 0.347 0.587-0.88 0.587-0.867-0.32-0.44c-0.52-0.68-0.667-1.347-0.587-2.547 0.12-2.067 1.24-4.053 2.56-4.547 1.227-0.467 2.933 0.013 3.68 1.040 0.533 0.733 0.787 1.667 0.88 3.173 0.133 2.293-0.373 4.707-1.467 6.92-0.613 1.253-0.84 1.56-2.093 2.813l-1.4 1.413 0.507 0.773c0.267 0.427 0.52 0.813 0.56 0.84 0.12 0.12 1.067-0.613 1.973-1.52 2.48-2.48 3.867-5.92 4.053-9.987 0.187-4.253-1.213-6.84-4.093-7.6-0.827-0.213-2.36-0.227-3-0.013z" fill="#000000"></path>
</svg>
