<?xml version="1.0" encoding="utf-8"?>
<!DOCTYPE svg PUBLIC "-//W3C//DTD SVG 1.1//EN" "http://www.w3.org/Graphics/SVG/1.1/DTD/svg11.dtd">
<svg version="1.1" xmlns="http://www.w3.org/2000/svg" xmlns:xlink="http://www.w3.org/1999/xlink" width="32" height="32" viewBox="0 0 32 32">
<path d="M18.2 8.427c-0.667 0.387-0.787 1.080-0.293 1.64 0.44 0.52 1.213 0.52 1.64 0.013 0.84-0.96-0.24-2.28-1.347-1.653zM19.12 8.88c0.427 0.413 0.187 1.12-0.387 1.12-0.627 0-0.853-0.907-0.293-1.173 0.4-0.2 0.44-0.187 0.68 0.053z" fill="#000000"></path>
<path d="M12.64 9.36c-0.387 0.773-0.44 0.987-0.28 1.013 0.107 0.027 0.267-0.040 0.347-0.147 0.24-0.307 1.147-0.347 1.36-0.053 0.147 0.2 0.6 0.32 0.6 0.16 0-0.040-0.213-0.493-0.467-1-0.373-0.747-0.533-0.933-0.773-0.933-0.253 0-0.4 0.187-0.787 0.96zM13.613 9.507c-0.067 0.067-0.227 0.093-0.347 0.040-0.173-0.067-0.187-0.133-0.053-0.373 0.147-0.28 0.16-0.28 0.333-0.040 0.12 0.16 0.147 0.293 0.067 0.373z" fill="#000000"></path>
<path d="M14.933 9.4c0 0.907 0.027 1 0.267 1 0.227 0 0.267-0.093 0.267-0.533 0-0.613 0.067-0.653 0.413-0.24l0.24 0.307 0.667-0.8 0.013 0.627c0 0.547 0.040 0.64 0.267 0.64 0.24 0 0.267-0.093 0.267-1 0-0.92-0.027-1-0.267-1-0.16 0-0.427 0.16-0.613 0.36l-0.32 0.373-0.307-0.373c-0.16-0.2-0.44-0.36-0.6-0.36-0.28 0-0.293 0.053-0.293 1z" fill="#000000"></path>
<path d="M15.2 12.213c-0.667 0.133-1.68 0.507-2.133 0.787-1.147 0.72-2.093 2.080-2.467 3.533l-0.147 0.6-4.573 0.067c-3.853 0.053-4.573 0.093-4.68 0.267-0.173 0.28-0.16 0.573 0.040 0.853 0.147 0.2 0.493 0.267 2.013 0.387l1.84 0.147-0.093 0.56c-0.12 0.827 0.28 1.547 1.013 1.84 1.213 0.493 2.387-0.293 2.387-1.6v-0.493l1.64 0.093c2.080 0.12 2.387 0.173 2.333 0.453-0.040 0.187-0.187 0.213-0.813 0.187l-0.773-0.040 0.213 0.507c0.96 2.293 3.467 3.773 5.733 3.36 1.013-0.187 1.533-0.4 2.333-0.987 0.627-0.467 1.76-1.96 1.933-2.587 0.093-0.307 0.080-0.307-0.653-0.24-0.667 0.053-0.747 0.040-0.747-0.173 0-0.333 0.187-0.373 2.24-0.48l1.773-0.080-0.027 0.307c-0.080 0.933 0.373 1.627 1.213 1.853 1.173 0.32 2.187-0.533 2.12-1.8l-0.040-0.667 1.84-0.147c1.013-0.093 1.893-0.213 1.947-0.267 0.267-0.28 0.28-0.8 0.027-1.027-0.213-0.2-0.733-0.227-4.76-0.253l-4.52-0.040-0.107-0.533c-0.36-1.787-1.68-3.373-3.387-4.040-0.68-0.267-2.12-0.453-2.72-0.347zM13.573 16.667c0.493 0.067 1.107 0.147 1.36 0.173 0.453 0.040 0.467 0.067 0.507 0.667 0.053 0.76 0.067 0.76-1.773 0.24-1.307-0.36-1.333-0.373-1.373-0.787-0.053-0.493-0.053-0.493 1.28-0.293zM19.573 16.96c-0.040 0.427-0.067 0.44-1.307 0.787-1.787 0.507-1.76 0.52-1.707-0.253l0.040-0.627 1.133-0.147c1.92-0.253 1.893-0.253 1.84 0.24zM7.12 19.28c0.613 0.613-0.227 1.347-0.88 0.76-0.293-0.267-0.307-0.413-0.013-0.733 0.267-0.293 0.613-0.307 0.893-0.027zM25.613 19.2c0.293 0.173 0.333 0.693 0.067 0.933-0.28 0.213-0.747 0.12-0.96-0.2-0.16-0.24-0.147-0.32 0.027-0.573 0.227-0.32 0.467-0.36 0.867-0.16z" fill="#000000"></path>
</svg>
