<?xml version="1.0" encoding="utf-8"?>
<!DOCTYPE svg PUBLIC "-//W3C//DTD SVG 1.1//EN" "http://www.w3.org/Graphics/SVG/1.1/DTD/svg11.dtd">
<svg version="1.1" xmlns="http://www.w3.org/2000/svg" xmlns:xlink="http://www.w3.org/1999/xlink" width="32" height="32" viewBox="0 0 32 32">
<path d="M11.888 3.040c-0.992 0.512-1.232 0.96-1.328 2.64l-0.080 1.44-7.28 0.16-0.592 0.608-0.608 0.592-0.048 9.728-0.032 9.728 0.352 0.544c0.208 0.288 0.624 0.656 0.928 0.816 0.528 0.288 1.184 0.304 12.704 0.304 11.824 0 12.176-0.016 12.816-0.32 0.416-0.208 0.784-0.544 1.008-0.944 0.352-0.624 0.352-0.656 0.352-9.952 0-10.416 0.032-10.064-1.104-10.816-0.528-0.352-0.672-0.368-4.016-0.368h-3.488l-0.064-1.424c-0.048-1.536-0.24-1.968-1.152-2.64-0.416-0.32-0.688-0.336-4.064-0.384-3.424-0.032-3.664-0.016-4.304 0.288zM19.68 4.48c0.256 0.256 0.32 0.528 0.32 1.52v1.2h-8v-1.264c0-1.824-0.096-1.776 4.032-1.776 3.12 0 3.344 0.016 3.648 0.32zM16.816 9.792c1.408 0.48 2.144 1.568 2.032 3.024-0.048 0.64-0.176 1.104-0.416 1.424-0.192 0.256-0.352 0.512-0.352 0.56s0.56 0.080 1.248 0.080c1.152 0.016 1.264 0.048 1.824 0.528 0.56 0.496 0.608 0.624 1.76 4.992l1.2 4.48-8.080 0.048c-4.448 0.016-8.112 0.016-8.144-0.016s0.48-2.064 1.136-4.528c1.136-4.272 1.216-4.48 1.76-4.976 0.544-0.512 0.624-0.528 1.872-0.528h1.28l-0.32-0.464c-0.176-0.24-0.416-0.768-0.512-1.152-0.368-1.376 0.48-2.944 1.856-3.424 0.8-0.288 1.168-0.288 1.856-0.048z" fill="#000000"></path>
<path d="M15.52 11.152c-0.864 0.32-1.296 1.328-0.896 2.112 0.32 0.592 0.704 0.816 1.424 0.816 1.056 0 1.76-1.264 1.232-2.256-0.304-0.544-1.184-0.88-1.76-0.672z" fill="#000000"></path>
<path d="M11.68 19.52v2.56h0.4c0.384 0 0.4-0.032 0.4-1.216v-1.216l1.296 1.216c1.152 1.088 1.36 1.216 1.92 1.216h0.624l-1.296-1.248c-0.72-0.672-1.376-1.264-1.456-1.296-0.096-0.032 0.4-0.624 1.088-1.312l1.264-1.264h-0.544c-0.464 0-0.736 0.176-1.68 1.072l-1.136 1.088-0.048-1.088c-0.048-1.024-0.064-1.072-0.432-1.072h-0.4v2.56z" fill="#000000"></path>
<path d="M17.408 18.688c-0.592 0.352-0.976 1.2-0.848 1.792 0.24 1.104 1.472 1.808 2.512 1.456 0.448-0.16 0.464-0.144 0.416 0.256-0.080 0.688-0.72 0.976-1.664 0.72-0.608-0.16-0.784-0.16-0.896 0-0.064 0.112-0.128 0.256-0.128 0.304 0 0.224 0.88 0.464 1.696 0.464 0.768 0 0.96-0.064 1.36-0.464 0.464-0.464 0.464-0.48 0.464-2.48v-2.016l-0.416-0.16c-0.64-0.256-2.016-0.176-2.496 0.128zM19.264 19.136c0.192 0.080 0.256 0.32 0.256 1.024 0 1.008-0.096 1.12-0.976 1.12-1.040 0-1.488-1.28-0.688-1.904 0.432-0.336 0.928-0.416 1.408-0.24z" fill="#000000"></path>
</svg>
