<?xml version="1.0" encoding="utf-8"?>
<!DOCTYPE svg PUBLIC "-//W3C//DTD SVG 1.1//EN" "http://www.w3.org/Graphics/SVG/1.1/DTD/svg11.dtd">
<svg version="1.1" xmlns="http://www.w3.org/2000/svg" xmlns:xlink="http://www.w3.org/1999/xlink" width="21" height="32" viewBox="0 0 21 32">
<path d="M0 15.84c0 8.747 0.080 15.893 0.213 15.867 0.107 0 2.533-1.493 5.387-3.28l5.2-3.307 4.987 2.507c2.747 1.387 5.067 2.507 5.147 2.507s0.133-6.587 0.133-14.64v-14.64l-1.52-0.16c-0.853-0.080-4.773-0.213-8.747-0.293-3.947-0.080-8-0.213-8.987-0.293l-1.813-0.16v15.893zM10.347 9.2c0.907 1.84 1.653 3.387 1.653 3.467s-0.347 0.133-0.773 0.133c-0.587 0-0.827-0.16-1.093-0.8-0.32-0.773-0.373-0.8-2.267-0.8s-1.947 0.027-2.267 0.8c-0.267 0.64-0.507 0.8-1.093 0.8-0.427 0-0.773-0.053-0.773-0.133s0.747-1.627 1.653-3.467c1.6-3.173 1.707-3.333 2.48-3.333s0.88 0.16 2.48 3.333zM17.547 6.587c0.080 0.587 0 0.613-1.52 0.613h-1.627v1.84l1.413 0.080c1.173 0.080 1.387 0.16 1.387 0.613s-0.213 0.533-1.387 0.613l-1.413 0.080v1.2c0 1.12-0.027 1.173-0.8 1.173h-0.8v-6.96l2.347 0.080c2.187 0.080 2.32 0.107 2.4 0.667zM5.067 18.133v3.2h-1.6v-6.4h1.6v3.2zM7.947 18.053l-0.080 3.147-0.853 0.080-0.88 0.080v-6.427h1.893l-0.080 3.12zM10.667 18.16v3.2l-0.853-0.080-0.88-0.080-0.080-3.147-0.080-3.12h1.893v3.227zM13.547 18.053l-0.080 3.147-0.853 0.080-0.88 0.080v-6.427h1.893l-0.080 3.12zM17.6 18.133v3.2h-1.867v-6.4h1.867v3.2z" fill="#000000"></path>
<path d="M7.227 8.48c-0.293 0.587-0.56 1.227-0.56 1.387 0 0.133 0.533 0.267 1.2 0.267s1.2-0.080 1.2-0.213c-0.027-0.107-0.293-0.72-0.64-1.387l-0.613-1.173-0.587 1.12z" fill="#000000"></path>
</svg>
