<?xml version="1.0" encoding="utf-8"?>
<!DOCTYPE svg PUBLIC "-//W3C//DTD SVG 1.1//EN" "http://www.w3.org/Graphics/SVG/1.1/DTD/svg11.dtd">
<svg version="1.1" xmlns="http://www.w3.org/2000/svg" xmlns:xlink="http://www.w3.org/1999/xlink" width="32" height="32" viewBox="0 0 32 32">
<path d="M15.92 8.96l-2.88 4.8h-4.672c-5.456 0-6.096 0.096-6.96 0.96-0.496 0.496-0.608 0.72-0.608 1.216 0 0.832 0.464 1.536 1.216 1.904 0.72 0.352 3.344 0.528 8.176 0.544l2.912 0.016 5.664 9.44h2.464l-1.024-4.656c-0.56-2.56-1.008-4.688-0.976-4.704 0.032-0.032 1.52-0.176 3.328-0.304 1.808-0.144 3.552-0.288 3.872-0.336l0.576-0.080 0.912 1.68 0.896 1.68h2.384v-10.080h-2.496l-0.784 1.6c-0.784 1.584-0.8 1.6-1.36 1.584-1.12-0.016-7.184-0.56-7.28-0.64-0.064-0.080 1.264-6.464 1.904-9.152 0.064-0.24-0.080-0.272-1.168-0.272h-1.216l-2.88 4.8z" fill="#000000"></path>
</svg>
