<?xml version="1.0" encoding="utf-8"?>
<!DOCTYPE svg PUBLIC "-//W3C//DTD SVG 1.1//EN" "http://www.w3.org/Graphics/SVG/1.1/DTD/svg11.dtd">
<svg version="1.1" xmlns="http://www.w3.org/2000/svg" xmlns:xlink="http://www.w3.org/1999/xlink" width="32" height="32" viewBox="0 0 32 32">
<path d="M22.304 1.552c-0.592 0.112-0.944 0.656-0.944 1.44 0 0.88 0.448 1.328 1.36 1.328 0.784 0 1.28-0.56 1.28-1.424 0-0.56-0.448-1.296-0.8-1.296-0.064 0-0.224-0.032-0.352-0.064-0.112-0.032-0.368-0.016-0.544 0.016zM23.136 2.48c0.352 0.544 0.096 1.2-0.48 1.2-0.832 0-0.752-1.552 0.096-1.6 0.064 0 0.24 0.176 0.384 0.4z" fill="#000000"></path>
<path d="M8.32 2.96c0 1.248 0.032 1.36 0.304 1.36s0.32-0.128 0.368-0.768l0.048-0.752 0.4 0.752c0.288 0.576 0.48 0.768 0.752 0.768 0.352 0 0.368-0.048 0.368-1.36 0-1.248-0.032-1.36-0.32-1.36-0.272 0-0.32 0.112-0.32 0.752l-0.016 0.768-0.432-0.752c-0.32-0.56-0.528-0.768-0.784-0.768-0.352 0-0.368 0.064-0.368 1.36z" fill="#000000"></path>
<path d="M11.040 2.96c0 1.344 0 1.36 0.4 1.36s0.4-0.016 0.4-1.36c0-1.344 0-1.36-0.4-1.36s-0.4 0.016-0.4 1.36z" fill="#000000"></path>
<path d="M12.464 2.96c0.384 1.264 0.432 1.36 0.832 1.36s0.48-0.096 0.848-1.248c0.224-0.672 0.416-1.28 0.416-1.36 0-0.064-0.176-0.112-0.4-0.112-0.272 0-0.4 0.096-0.416 0.272 0 0.16-0.096 0.576-0.208 0.928l-0.208 0.64-0.272-0.928c-0.24-0.768-0.336-0.912-0.64-0.912h-0.368l0.416 1.36z" fill="#000000"></path>
<path d="M16 2.96c0 1.344 0 1.36 0.4 1.36 0.336 0 0.4-0.080 0.4-0.48 0-0.432 0.048-0.48 0.528-0.48 0.656 0 0.912-0.24 0.912-0.88 0-0.704-0.256-0.88-1.312-0.88h-0.928v1.36zM17.424 2.224c0.304 0.192 0.096 0.656-0.304 0.656-0.24 0-0.32-0.112-0.32-0.4 0-0.416 0.224-0.496 0.624-0.256z" fill="#000000"></path>
<path d="M18.72 2.96c0 1.248 0.032 1.36 0.32 1.36 0.256 0 0.32-0.112 0.32-0.496 0-0.432 0.048-0.48 0.448-0.432 0.336 0.032 0.448 0.144 0.48 0.48 0.048 0.352 0.144 0.448 0.416 0.448 0.352 0 0.368-0.048 0.256-0.624-0.064-0.336-0.080-0.848-0.032-1.12 0.112-0.752-0.176-0.976-1.264-0.976h-0.944v1.36zM20.144 2.224c0.112 0.080 0.16 0.224 0.112 0.32-0.16 0.256-0.896 0.224-0.896-0.032 0-0.416 0.368-0.56 0.784-0.288z" fill="#000000"></path>
<path d="M14.16 5.6c-6.128 0.976-10.64 6.256-10.64 12.464 0 4.944 2.608 9.152 6.96 11.312 2.144 1.056 3.12 1.264 5.76 1.248 2.096 0 2.336-0.032 3.76-0.528 5.36-1.824 8.672-6.416 8.672-12.016 0-2.96-0.816-5.36-2.608-7.744-1.536-2.016-4.336-3.856-6.864-4.48-1.296-0.32-3.76-0.448-5.040-0.256zM19.536 7.952c2.752 0.96 4.88 2.816 6.16 5.408 0.656 1.344 1.184 3.248 1.184 4.336v0.384h-21.632l0.112-0.848c0.608-4.816 3.6-8.336 8.144-9.568 1.744-0.464 4.208-0.352 6.032 0.288zM14.352 19.888c0.16 0.56 0.352 0.848 0.736 1.072 1.12 0.688 2.352 0.192 2.72-1.072l0.224-0.768h4.224c4.112 0 4.224 0.016 4.224 0.32s-0.128 0.32-3.856 0.368l-3.84 0.032-0.192 0.544c-0.256 0.704-1.12 1.472-1.904 1.68-1.184 0.336-2.704-0.496-3.088-1.664l-0.192-0.56h-3.808c-3.84 0-4.144-0.048-3.936-0.576 0.080-0.192 0.72-0.224 4.272-0.192l4.192 0.048 0.224 0.768zM8.576 22.352c0.32 0.432 0.288 0.496-0.448 0.864-0.64 0.32-0.672 0.32-0.88 0.048-0.288-0.4-0.288-0.416 0.4-0.8 0.752-0.432 0.688-0.432 0.928-0.112zM25.008 22.88c0.080 0.064 0.048 0.272-0.064 0.448-0.208 0.32-0.208 0.32-0.8 0.016-0.752-0.368-0.848-0.528-0.592-0.928 0.192-0.32 0.192-0.32 0.768 0.016 0.304 0.192 0.624 0.384 0.688 0.448zM9.184 24.432c-0.688 0.608-0.8 0.64-1.024 0.224-0.128-0.256-0.064-0.4 0.416-0.816 0.56-0.48 0.592-0.496 0.896-0.208 0.32 0.288 0.32 0.288-0.288 0.8zM23.984 24.672c-0.24 0.448-0.352 0.432-0.976-0.096-0.56-0.496-0.576-0.544-0.352-0.864l0.24-0.352 0.624 0.512c0.48 0.416 0.576 0.576 0.464 0.8zM10.608 24.752c0.224 0.272 0.192 0.336-0.272 0.88-0.496 0.56-0.544 0.576-0.864 0.352l-0.352-0.24 0.512-0.64c0.576-0.704 0.624-0.736 0.976-0.352zM22.464 25.136c0.496 0.592 0.512 0.72 0.112 0.944-0.256 0.128-0.4 0.064-0.8-0.432-0.368-0.448-0.448-0.64-0.304-0.8 0.272-0.32 0.544-0.256 0.992 0.288zM11.856 25.648c0.24 0.192 0.24 0.256-0.128 0.864-0.352 0.608-0.416 0.656-0.768 0.496-0.368-0.16-0.384-0.192-0.128-0.672 0.464-0.928 0.592-1.024 1.024-0.688zM21.12 26.080c0.4 0.768 0.384 0.752 0 0.96-0.272 0.144-0.368 0.080-0.72-0.496-0.4-0.624-0.416-0.656-0.128-0.88 0.432-0.32 0.496-0.288 0.848 0.416z" fill="#000000"></path>
<path d="M15.68 8.8c0 0.784 0.016 0.8 0.48 0.8s0.48-0.016 0.48-0.8c0-0.784-0.016-0.8-0.48-0.8s-0.48 0.016-0.48 0.8z" fill="#000000"></path>
<path d="M10.832 9.312c-0.224 0.192-0.224 0.272 0.16 0.88 0.448 0.752 0.496 0.784 0.928 0.48 0.272-0.208 0.272-0.24-0.080-0.88-0.4-0.704-0.576-0.8-1.008-0.48z" fill="#000000"></path>
<path d="M20.416 9.792c-0.384 0.64-0.4 0.704-0.144 0.88 0.432 0.32 0.576 0.256 0.992-0.464 0.368-0.64 0.368-0.672 0.080-0.88-0.416-0.304-0.48-0.272-0.928 0.464z" fill="#000000"></path>
<path d="M9.472 10.272c-0.288 0.288-0.24 0.48 0.304 1.072l0.496 0.528 0.64-0.64-0.448-0.576c-0.496-0.608-0.688-0.688-0.992-0.384z" fill="#000000"></path>
<path d="M21.776 10.704l-0.496 0.608 0.336 0.304c0.336 0.304 0.352 0.304 0.88-0.32 0.512-0.592 0.528-0.64 0.272-0.928-0.352-0.4-0.432-0.368-0.992 0.336z" fill="#000000"></path>
<path d="M8.224 11.536c-0.304 0.336-0.304 0.336 0.336 0.88 0.624 0.528 0.64 0.528 0.944 0.224 0.352-0.336 0.24-0.56-0.544-1.12-0.432-0.304-0.448-0.304-0.736 0.016z" fill="#000000"></path>
<path d="M22.896 11.856l-0.528 0.496 0.32 0.336 0.336 0.32 0.56-0.464c0.608-0.512 0.672-0.704 0.384-0.992s-0.48-0.24-1.072 0.304z" fill="#000000"></path>
<path d="M7.184 12.992c-0.208 0.368-0.064 0.544 0.848 1.024 0.4 0.208 0.448 0.192 0.608-0.080 0.24-0.48 0.208-0.544-0.48-0.944-0.768-0.432-0.752-0.432-0.976 0z" fill="#000000"></path>
<path d="M24.048 13.072c-0.752 0.448-0.784 0.496-0.48 0.912 0.208 0.288 0.24 0.288 0.88-0.080 0.72-0.416 0.784-0.576 0.48-0.992-0.192-0.224-0.272-0.224-0.88 0.16z" fill="#000000"></path>
</svg>
