<?xml version="1.0" encoding="utf-8"?>
<!DOCTYPE svg PUBLIC "-//W3C//DTD SVG 1.1//EN" "http://www.w3.org/Graphics/SVG/1.1/DTD/svg11.dtd">
<svg version="1.1" xmlns="http://www.w3.org/2000/svg" xmlns:xlink="http://www.w3.org/1999/xlink" width="32" height="32" viewBox="0 0 32 32">
<path d="M4.040 7.427c-0.24 0.12-0.547 0.453-0.72 0.773-0.387 0.72-0.267 1.413 0.347 2.027 0.4 0.4 0.52 0.44 1.2 0.44s0.8-0.040 1.2-0.44c0.587-0.587 0.707-1.24 0.387-1.92-0.48-0.973-1.493-1.333-2.413-0.88z" fill="#000000"></path>
<path d="M19.453 7.907c-0.52 0.347-0.84 1.133-0.72 1.707 0.173 0.773 1 1.453 1.76 1.453 0.387 0 1.373-0.573 1.373-0.8 0-0.307 0.213-0.093 0.427 0.4l0.227 0.533h-2.173c-3.187 0-3.147-0.053-3.147 4.12 0 3.080 0.040 3.213 0.813 3.213h0.387l0.027 3.293 0.040 3.307h3.067l0.040-3.373 0.027-3.36h0.667l0.027 3.36 0.040 3.373h2.933l0.067-2.733c0.067-2.627 0.080-2.733 0.333-2.733s0.267 0.107 0.307 2.76l0.027 2.773h3.2v-2.6c0-1.973 0.040-2.613 0.173-2.653 0.080-0.027 0.347-0.093 0.56-0.16l0.4-0.133v-6.347l-0.44-0.387c-0.413-0.373-0.48-0.387-1.76-0.387-0.8 0-1.333-0.053-1.333-0.133s0.24-0.133 0.547-0.133c1.467 0 2.133-1.787 1.067-2.853-0.373-0.373-0.507-0.413-1.227-0.413-0.733 0-0.84 0.040-1.173 0.413l-0.373 0.413-0.24-0.52c-0.547-1.24-2.12-1.4-3.013-0.32-0.213 0.267-0.227 0.253-0.307-0.16-0.053-0.227-0.307-0.6-0.56-0.827-0.587-0.507-1.387-0.547-2.067-0.093zM25.867 11.827c0 0.027-0.573 0.040-1.267 0.040-0.813 0-1.267-0.053-1.267-0.147 0-0.080 0.12-0.107 0.267-0.053 0.373 0.12 1.107-0.147 1.48-0.547l0.307-0.333 0.24 0.507c0.133 0.267 0.24 0.507 0.24 0.533z" fill="#000000"></path>
<path d="M2.293 11.147c-0.64 0.44-0.693 0.773-0.693 3.96 0 2.133 0.040 3.013 0.16 3.133 0.093 0.093 0.36 0.16 0.6 0.16h0.44l0.027 3.36 0.040 3.373h1.6l0.067-3.2c0.067-3.093 0.080-3.2 0.333-3.2s0.267 0.107 0.333 3.2l0.067 3.2h1.6l0.040-3.373 0.027-3.36h0.373c0.84 0 0.84-0.013 0.8-3.52l-0.040-3.173-0.44-0.387-0.427-0.387h-2.307c-1.867 0-2.36 0.040-2.6 0.213z" fill="#000000"></path>
<path d="M12.227 15.027c-0.053 0.040-0.093 0.44-0.093 0.867v0.773h-1.6v0.933h1.587l0.040 0.813c0.040 0.827 0.040 0.827 0.48 0.867l0.427 0.053v-1.733h1.733v-0.933h-1.733v-0.867c0-0.867 0-0.867-0.373-0.867-0.213 0-0.427 0.040-0.467 0.093z" fill="#000000"></path>
</svg>
