<?xml version="1.0" encoding="utf-8"?>
<!DOCTYPE svg PUBLIC "-//W3C//DTD SVG 1.1//EN" "http://www.w3.org/Graphics/SVG/1.1/DTD/svg11.dtd">
<svg version="1.1" xmlns="http://www.w3.org/2000/svg" xmlns:xlink="http://www.w3.org/1999/xlink" width="32" height="32" viewBox="0 0 32 32">
<path d="M10.944 3.584c-4.496 1.088-8.256 2.016-8.368 2.080-0.096 0.064-0.176 0.288-0.176 0.512 0 0.208 0.688 3.328 1.536 6.912 3.392 14.464 3.44 14.64 4.704 16.080 0.736 0.832 2.128 1.584 2.912 1.584 0.656 0 17.408-4 17.696-4.224 0.464-0.4 0.208-0.752-0.96-1.296-1.568-0.72-2.096-1.2-2.752-2.512-0.56-1.136-1.104-3.216-3.984-15.44l-1.328-5.6-0.544-0.032c-0.304-0.016-4.24 0.864-8.736 1.936zM18.304 6.096c-0.384 0.96-0.544 1.184-0.976 1.36-0.288 0.128-0.64 0.224-0.768 0.224-0.24 0-0.24-0.032-0.032-0.24 0.128-0.128 0.432-0.736 0.688-1.36 0.384-0.976 0.496-1.136 0.928-1.248 0.272-0.080 0.528-0.080 0.544 0 0.032 0.064-0.144 0.64-0.384 1.264zM16.256 5.456c0.144 0.24-0.208 0.432-1.024 0.56-0.528 0.080-0.672 0.16-0.64 0.368 0.064 0.272 0.48 0.32 1.376 0.128 0.384-0.080 0.512-0.048 0.512 0.128 0 0.208-0.88 0.56-1.408 0.56-0.144 0-0.192 0.16-0.16 0.432 0.032 0.352-0.016 0.464-0.304 0.496-0.288 0.048-0.384-0.064-0.544-0.64-0.096-0.384-0.192-0.896-0.208-1.152-0.016-0.448 0.032-0.48 1.024-0.752 1.312-0.336 1.248-0.336 1.376-0.128zM13.728 7.888l0.368 0.384-0.368 0.096c-0.192 0.064-0.496 0.016-0.672-0.112-0.448-0.288-1.648 0.016-1.968 0.496-0.256 0.4-0.688 0.496-0.672 0.16 0.016-0.512 0.928-2.416 1.2-2.528 0.304-0.096 1.232 0.56 2.112 1.504zM17.2 13.936c0.064 0.272 0.080 0.512 0.048 0.528-0.096 0.080-8.832 2.32-9.232 2.368-0.304 0.032-0.416-0.048-0.512-0.416-0.080-0.272-0.096-0.512-0.064-0.544 0.112-0.128 8.928-2.4 9.312-2.416 0.256-0.016 0.368 0.112 0.448 0.48zM17.84 16.656c0.064 0.272 0.080 0.512 0.032 0.56-0.176 0.192-9.44 2.48-9.552 2.352-0.064-0.064-0.16-0.32-0.224-0.544l-0.096-0.416 2.608-0.688c1.424-0.368 3.488-0.912 4.592-1.2 2.512-0.672 2.512-0.672 2.64-0.064zM18.48 19.376c0.064 0.272 0.048 0.544-0.016 0.624-0.080 0.064-1.040 0.336-2.144 0.608-1.104 0.288-3.2 0.816-4.688 1.2l-2.672 0.704-0.144-0.496c-0.064-0.272-0.080-0.544-0.032-0.608 0.096-0.096 9.008-2.48 9.408-2.512 0.096-0.016 0.224 0.208 0.288 0.48zM22.704 23.232c0.416 1.6 0.416 1.568 0.032 1.568-0.24 0-0.368-0.256-0.64-1.36-0.4-1.632-0.4-1.52-0.048-1.52 0.24 0 0.368 0.272 0.656 1.312zM20.72 23.312c0.16 0.512 0.304 1.168 0.352 1.472 0.080 0.448 0.048 0.528-0.208 0.464-0.224-0.032-0.384-0.352-0.64-1.328-0.352-1.328-0.352-1.52 0.016-1.52 0.128 0 0.32 0.384 0.48 0.912zM19.6 23.632c0.368 1.216 0.384 1.888 0.080 1.888-0.16 0-0.32-0.336-0.496-0.96-0.512-1.904-0.496-1.84-0.16-1.84 0.24 0 0.368 0.208 0.576 0.912zM18.768 25.28c0.048 0.944-0.384 0.688-0.688-0.4-0.496-1.792-0.512-1.808-0.208-1.872 0.224-0.048 0.352 0.144 0.576 0.832 0.16 0.48 0.304 1.136 0.32 1.44zM17.424 24.448c0.4 1.504 0.4 1.568 0.096 1.696-0.288 0.096-0.272 0.128-0.72-1.488-0.24-0.928-0.272-1.232-0.112-1.328 0.352-0.224 0.384-0.144 0.736 1.12zM15.12 24.976c0.064 0.272 0.080 0.512 0.048 0.544-0.048 0.048-4.512 1.2-4.672 1.2-0.112 0-0.304-0.976-0.208-1.056 0.128-0.128 3.984-1.152 4.384-1.168 0.256-0.016 0.368 0.112 0.448 0.48z" fill="#000000"></path>
<path d="M11.6 7.36c-0.144 0.432-0.048 0.512 0.384 0.352 0.352-0.128 0.352-0.128 0.032-0.416-0.288-0.272-0.304-0.272-0.416 0.064z" fill="#000000"></path>
</svg>
