<?xml version="1.0" encoding="utf-8"?>
<!DOCTYPE svg PUBLIC "-//W3C//DTD SVG 1.1//EN" "http://www.w3.org/Graphics/SVG/1.1/DTD/svg11.dtd">
<svg version="1.1" xmlns="http://www.w3.org/2000/svg" xmlns:xlink="http://www.w3.org/1999/xlink" width="32" height="32" viewBox="0 0 32 32">
<path d="M12.48 1.28c0 0.272-0.112 0.32-0.672 0.32-0.4 0-0.912 0.128-1.2 0.32-1.008 0.608-1.008 0.624-1.008 7.44 0 6.096 0 6.16-0.32 6.16-0.544 0-1.216 0.432-1.424 0.928-0.128 0.32-0.176 1.92-0.144 5.664l0.048 5.216 0.384 0.416c0.336 0.368 0.528 0.416 1.408 0.416 0.56 0 1.008 0.032 1.008 0.080s-0.144 0.24-0.32 0.432c-0.208 0.24-0.32 0.576-0.32 1.024 0 0.56 0.080 0.752 0.496 1.088 0.624 0.528 1.264 0.528 1.888 0 0.416-0.352 0.496-0.528 0.496-1.12 0-0.496-0.096-0.8-0.32-1.024-0.176-0.176-0.32-0.352-0.32-0.4s1.776-0.080 3.936-0.080h3.936l-0.416 0.496c-0.576 0.688-0.56 1.456 0.048 2.080 0.72 0.72 1.888 0.544 2.352-0.352 0.32-0.624 0.288-0.976-0.176-1.648l-0.384-0.576h1.040c0.912 0 1.088-0.048 1.424-0.416l0.4-0.432v-10.864l-0.464-0.464c-0.32-0.304-0.64-0.464-0.96-0.464h-0.496v-12.64l-0.528-0.592c-0.48-0.512-0.656-0.592-1.44-0.656-0.752-0.064-0.912-0.128-0.912-0.368 0-0.288-0.192-0.304-3.52-0.304-3.408 0-3.52 0.016-3.52 0.32zM12.528 2.88c0.080 0.304 0.224 0.32 3.536 0.32 3.344 0 3.456-0.016 3.456-0.32 0-0.272 0.112-0.32 0.704-0.32 0.576 0 0.768 0.080 1.040 0.416 0.32 0.416 0.336 0.592 0.336 6.48v6.064h-1.52l-0.32-0.832c-0.224-0.576-0.496-0.96-0.864-1.2-0.496-0.336-0.72-0.368-2.848-0.368-1.872 0-2.4 0.048-2.768 0.272-0.512 0.288-1.12 1.28-1.12 1.792 0 0.304-0.096 0.336-0.88 0.336h-0.88v-5.824c0-3.664 0.064-6 0.16-6.288 0.24-0.608 0.592-0.848 1.296-0.848 0.448 0 0.608 0.080 0.672 0.32zM18.224 14.144c0.4 0.208 0.816 0.832 0.816 1.216 0 0.096-1.216 0.16-3.040 0.16-1.664 0-3.040-0.048-3.040-0.128 0-0.288 0.672-1.184 1.008-1.312 0.592-0.24 3.744-0.192 4.256 0.064zM17.68 18.384c2.064 0.944 2.672 3.344 1.232 4.864-0.816 0.864-2.080 1.216-2.4 0.656-0.128-0.224-0.16-0.224-0.336 0-0.384 0.464-1.264 0.32-1.872-0.288-0.448-0.448-0.544-0.672-0.544-1.2 0-0.928 0.368-1.712 0.992-2.096s1.52-0.416 2-0.080c0.304 0.208 0.352 0.208 0.432 0 0.128-0.352 0.896-0.304 0.896 0.048 0 0.32-0.288 2.032-0.416 2.464s0.496 0.368 0.8-0.064c0.32-0.464 0.336-1.76 0.016-2.432-0.72-1.52-3.824-1.648-4.768-0.208-1.040 1.6-0.496 3.856 1.104 4.528 0.784 0.336 2.192 0.288 2.944-0.096 0.64-0.32 1.28-0.416 1.28-0.192 0 0.24-0.88 0.976-1.472 1.216-1.376 0.576-3.456 0.128-4.48-0.96-0.928-0.992-1.264-2.832-0.736-4.064 0.848-1.984 3.392-2.992 5.328-2.096z" fill="#000000"></path>
<path d="M15.296 21.36c-0.624 0.624-0.32 1.68 0.464 1.68 0.8 0 1.376-1.2 0.848-1.728-0.272-0.272-1.024-0.24-1.312 0.048z" fill="#000000"></path>
</svg>
