<?xml version="1.0" encoding="utf-8"?>
<!DOCTYPE svg PUBLIC "-//W3C//DTD SVG 1.1//EN" "http://www.w3.org/Graphics/SVG/1.1/DTD/svg11.dtd">
<svg version="1.1" xmlns="http://www.w3.org/2000/svg" xmlns:xlink="http://www.w3.org/1999/xlink" width="32" height="32" viewBox="0 0 32 32">
<path d="M13.312 1.456c-0.96 0.48-1.472 1.408-1.472 2.656 0 0.816 0.080 1.056 0.48 1.616 0.608 0.848 1.312 1.216 2.32 1.216 1.104 0 1.936-0.448 2.496-1.328 0.848-1.312 0.56-2.896-0.72-3.92-0.8-0.656-2.112-0.752-3.104-0.24z" fill="#000000"></path>
<path d="M19.904 3.84c-0.624 0.24-1.184 1.088-1.184 1.776 0 1.248 0.752 2.064 1.936 2.064 1.632 0 2.576-1.632 1.744-3.008-0.496-0.8-1.632-1.184-2.496-0.832z" fill="#000000"></path>
<path d="M10.8 7.424c-0.592 0.256-1.12 0.832-1.344 1.424-0.112 0.288-0.176 2.288-0.176 5.392 0 5.584-0.032 5.44 1.216 5.44h0.704l0.032 5.632 0.048 5.648 2.8 0.096v-10.736h1.12l0.032 5.328 0.048 5.312 2.8 0.096 0.032-5.648 0.048-5.648 0.72-0.048c1.216-0.096 1.28-0.24 1.28-2.72 0-1.888-0.032-2.128-0.256-2.048-0.144 0.048-0.448 0.096-0.688 0.096-0.272 0-0.656 0.208-1.040 0.56-0.336 0.304-0.672 0.56-0.752 0.56s-0.48-0.16-0.864-0.336c-0.976-0.464-1.408-1.040-1.296-1.664 0.144-0.688 1.12-2.096 1.744-2.496l0.528-0.352-0.368-0.368c-0.896-0.912-0.576-1.728 1.008-2.512 1.888-0.928 1.040-1.216-3.536-1.216-2.464 0-3.488 0.048-3.84 0.208z" fill="#000000"></path>
<path d="M19.376 8.8c-0.832 0.336-1.6 0.72-1.728 0.848-0.48 0.464 0.304 1.232 0.928 0.896 0.464-0.24 0.656 0 0.592 0.752-0.048 0.592-0.080 0.64-0.688 0.752-1.056 0.224-1.408 0.48-1.952 1.392-0.288 0.48-0.528 0.912-0.528 0.976 0 0.080 0.304 0.304 0.672 0.528l0.688 0.4 0.32-0.368c0.448-0.528 0.896-0.736 2.048-0.912 1.616-0.272 2.592-1.024 2.768-2.16 0.112-0.816-0.176-3.216-0.432-3.52-0.304-0.368-1.104-0.24-2.688 0.416z" fill="#000000"></path>
</svg>
