<?xml version="1.0" encoding="utf-8"?>
<!DOCTYPE svg PUBLIC "-//W3C//DTD SVG 1.1//EN" "http://www.w3.org/Graphics/SVG/1.1/DTD/svg11.dtd">
<svg version="1.1" xmlns="http://www.w3.org/2000/svg" xmlns:xlink="http://www.w3.org/1999/xlink" width="32" height="32" viewBox="0 0 32 32">
<path d="M12.933 9.8c-4.267 0.64-7.507 2.253-10.333 5.133l-1.16 1.2 0.533 0.627c1.88 2.24 5.173 4.333 8.093 5.173 5.92 1.693 12.52 0.747 17-2.44 1.027-0.733 3.467-3.053 3.467-3.307 0-0.267-2.213-2.44-3.2-3.147-2.533-1.8-4.893-2.733-8.24-3.24-1.613-0.24-4.56-0.24-6.16 0zM18.053 11.787c0.96 0.467 1.827 1.347 2.307 2.32 0.333 0.68 0.373 0.907 0.373 2.093 0 1.213-0.040 1.4-0.4 2.107-0.227 0.453-0.693 1.053-1.093 1.427-2.173 1.987-5.507 1.587-7.16-0.84-1.84-2.72-0.56-6.333 2.627-7.373 0.907-0.293 2.44-0.173 3.347 0.267zM10.747 12.293c-0.827 1.133-1.373 3.133-1.24 4.52 0.107 0.92 0.64 2.413 1.107 3.013 0.32 0.427 0.32 0.44 0.067 0.44-0.413 0-1.947-0.613-3.080-1.213-1.2-0.653-2.533-1.627-3.267-2.387l-0.533-0.56 0.6-0.533c1.533-1.387 3.213-2.427 5.067-3.133 1.387-0.533 1.587-0.547 1.28-0.147zM22.4 12.347c1.053 0.373 2.307 1.027 3.36 1.733 1.187 0.8 2.373 1.867 2.373 2.147 0 0.253-1.933 1.813-3.107 2.52-1.093 0.64-3.147 1.52-3.587 1.52-0.2 0-0.187-0.067 0.147-0.6 0.213-0.333 0.52-1.013 0.68-1.533 0.547-1.72 0.24-4.093-0.733-5.533-0.187-0.267-0.333-0.507-0.333-0.547 0-0.067 0.573 0.067 1.2 0.293z" fill="#000000"></path>
<path d="M14.56 13.28c-1.147 0.573-1.76 1.613-1.76 2.947 0.013 1.867 1.347 3.16 3.267 3.173 0.787 0 1.027-0.053 1.573-0.373 1.52-0.893 2.093-2.8 1.307-4.333-0.827-1.587-2.773-2.213-4.387-1.413z" fill="#000000"></path>
</svg>
