<?xml version="1.0" encoding="utf-8"?>
<!DOCTYPE svg PUBLIC "-//W3C//DTD SVG 1.1//EN" "http://www.w3.org/Graphics/SVG/1.1/DTD/svg11.dtd">
<svg version="1.1" xmlns="http://www.w3.org/2000/svg" xmlns:xlink="http://www.w3.org/1999/xlink" width="32" height="32" viewBox="0 0 32 32">
<path d="M12.8 8.2c-0.093 0.12-0.133 0.253-0.080 0.293 0.107 0.12 0.507-0.12 0.587-0.333 0.067-0.227-0.307-0.2-0.507 0.040z" fill="#000000"></path>
<path d="M17.64 8.667c-0.52 0.213-0.747 1.027-0.44 1.6 0.147 0.28 0.853 0.56 1.133 0.44 0.12-0.040 0.293 0 0.4 0.093 0.24 0.2 0.387 0.093 0.413-0.307 0.013-0.16 0.067-0.48 0.12-0.707 0.173-0.76-0.827-1.453-1.627-1.12zM18.64 9.227c0.093 0.093 0.16 0.28 0.16 0.44 0 0.387-0.253 0.6-0.693 0.6-0.48 0-0.733-0.427-0.52-0.88 0.16-0.36 0.773-0.44 1.053-0.16z" fill="#000000"></path>
<path d="M24.027 8.747c-0.533 0.373-0.253 0.893 0.707 1.307 0.28 0.12-0.253 0.32-0.547 0.213-0.2-0.080-0.347-0.067-0.4 0.013-0.213 0.347 0.653 0.613 1.147 0.347 0.52-0.267 0.44-0.76-0.16-1.093-0.587-0.307-0.587-0.547 0.013-0.493 0.493 0.040 0.587-0.293 0.12-0.427-0.453-0.12-0.547-0.107-0.88 0.133z" fill="#000000"></path>
<path d="M7 9.6c-0.253 0.507-0.467 0.96-0.467 1 0 0.16 0.507 0.053 0.587-0.133 0.053-0.133 0.267-0.2 0.667-0.2s0.613 0.067 0.667 0.2c0.067 0.187 0.613 0.293 0.613 0.133 0-0.040-0.227-0.493-0.493-1-0.693-1.267-0.933-1.267-1.573 0zM7.987 9.453c0.16 0.28 0.067 0.413-0.28 0.413-0.253 0-0.293-0.107-0.16-0.453 0.107-0.28 0.28-0.267 0.44 0.040z" fill="#000000"></path>
<path d="M9.333 9.667c0 0.8 0.040 1 0.2 1 0.147 0 0.2-0.16 0.2-0.64l0.013-0.627 0.747 0.88 0.693-0.88 0.013 0.627c0 0.48 0.053 0.64 0.2 0.64 0.16 0 0.2-0.2 0.2-1 0-0.88-0.027-1-0.24-1-0.133 0-0.387 0.187-0.547 0.413l-0.307 0.427-0.333-0.427c-0.173-0.227-0.44-0.413-0.587-0.413-0.227 0-0.253 0.107-0.253 1z" fill="#000000"></path>
<path d="M12.133 9.667v1h0.733c0.547 0 0.733-0.053 0.733-0.187s-0.173-0.213-0.493-0.24c-0.28-0.027-0.507-0.107-0.507-0.173 0-0.080 0.227-0.147 0.507-0.173 0.307-0.027 0.493-0.107 0.493-0.227s-0.187-0.2-0.493-0.227c-0.28-0.027-0.507-0.107-0.507-0.173 0-0.080 0.227-0.147 0.507-0.173 0.32-0.027 0.493-0.107 0.493-0.24s-0.187-0.187-0.733-0.187h-0.733v1z" fill="#000000"></path>
<path d="M14 9.667c0 0.907 0.027 1 0.253 1 0.187 0 0.253-0.080 0.213-0.267-0.080-0.427 0.227-0.467 0.533-0.093 0.16 0.213 0.413 0.36 0.6 0.36h0.307l-0.307-0.333c-0.307-0.32-0.307-0.333-0.067-0.6 0.2-0.213 0.227-0.347 0.12-0.64-0.12-0.333-0.2-0.36-0.893-0.4l-0.76-0.040v1.013zM15.053 9.053c0.253 0.16 0.080 0.547-0.24 0.547-0.28 0-0.413-0.227-0.307-0.507 0.067-0.187 0.28-0.2 0.547-0.040z" fill="#000000"></path>
<path d="M16.133 9.667c0 0.907 0.027 1 0.267 1s0.267-0.093 0.267-1c0-0.907-0.027-1-0.267-1s-0.267 0.093-0.267 1z" fill="#000000"></path>
<path d="M19.6 9.427c0 0.427 0.053 0.84 0.107 0.92 0.173 0.28 0.693 0.453 1.027 0.373 0.507-0.12 0.733-0.547 0.733-1.347 0-0.613-0.040-0.707-0.267-0.707-0.213 0-0.253 0.107-0.293 0.76-0.040 0.693-0.067 0.773-0.36 0.813-0.413 0.067-0.547-0.16-0.547-0.947 0-0.467-0.053-0.627-0.2-0.627-0.16 0-0.2 0.173-0.2 0.76z" fill="#000000"></path>
<path d="M22 9.667v1h0.747c0.853 0 0.973-0.307 0.147-0.373-0.667-0.053-0.68-0.427-0.027-0.427 0.32 0 0.467-0.067 0.467-0.2s-0.147-0.2-0.467-0.2c-0.653 0-0.64-0.373 0.027-0.427 0.827-0.067 0.707-0.373-0.147-0.373h-0.747v1z" fill="#000000"></path>
<path d="M14.947 12.547c-2.093 0.347-3.907 2.093-4.413 4.213l-0.16 0.707h-9.040l-0.213 0.333c-0.24 0.36-0.16 0.8 0.187 0.987 0.12 0.067 0.853 0.147 1.627 0.2s1.56 0.12 1.747 0.16c0.333 0.067 0.347 0.093 0.227 0.52-0.12 0.36-0.093 0.547 0.147 1.040 0.36 0.747 0.987 1.093 1.787 0.987 0.907-0.12 1.68-1.16 1.467-1.973-0.080-0.28-0.067-0.293 1.507-0.2 2.133 0.133 2.48 0.187 2.427 0.467-0.040 0.173-0.2 0.213-0.76 0.187l-0.707-0.040 0.093 0.373c0.213 0.853 1.44 2.32 2.467 2.933 2.333 1.373 5.44 0.52 7.013-1.92 0.24-0.373 0.48-0.84 0.52-1.027l0.093-0.347-0.747 0.080c-0.68 0.067-0.747 0.053-0.747-0.187 0-0.32 0.28-0.373 2.573-0.52l1.427-0.080v0.507c0 0.68 0.24 1.107 0.787 1.48 1.2 0.813 2.813-0.2 2.627-1.653-0.093-0.68-0.133-0.653 1.853-0.773 1.613-0.107 2.067-0.28 2.067-0.8 0-0.733-0.027-0.733-4.947-0.733h-4.52l-0.080-0.373c-0.533-2.427-2.040-4.027-4.267-4.493-1.027-0.213-1.027-0.213-2.040-0.053zM13.667 17c1.68 0.147 1.667 0.133 1.667 0.827v0.613l-0.453-0.080c-0.24-0.040-0.933-0.2-1.533-0.36l-1.080-0.293v-0.467c0-0.373 0.040-0.44 0.24-0.387 0.12 0.027 0.653 0.093 1.16 0.147zM19.467 17.24v0.453l-1.467 0.4c-0.8 0.213-1.493 0.373-1.533 0.333s-0.067-0.333-0.067-0.64c0-0.573 0-0.573 0.573-0.653 1.373-0.187 2.173-0.307 2.333-0.32 0.093-0.013 0.16 0.16 0.16 0.427zM6.987 19.547c0.293 0.28 0.267 0.627-0.053 0.92-0.4 0.36-0.933 0.093-0.933-0.453 0-0.6 0.587-0.88 0.987-0.467zM25.6 19.6c0.147 0.147 0.267 0.32 0.267 0.4 0 0.16-0.493 0.667-0.64 0.667-0.227 0-0.693-0.427-0.693-0.627 0-0.28 0.387-0.707 0.627-0.707 0.093 0 0.293 0.12 0.44 0.267z" fill="#000000"></path>
</svg>
