<?xml version="1.0" encoding="utf-8"?>
<!DOCTYPE svg PUBLIC "-//W3C//DTD SVG 1.1//EN" "http://www.w3.org/Graphics/SVG/1.1/DTD/svg11.dtd">
<svg version="1.1" xmlns="http://www.w3.org/2000/svg" xmlns:xlink="http://www.w3.org/1999/xlink" width="80" height="32" viewBox="0 0 80 32">
<path d="M40.2 0.233c-0.1 0.1-0.1 0.333 0 0.467 0.233 0.4 1.133 0.367 1.133 0s-0.867-0.733-1.133-0.467z" fill="#000000"></path>
<path d="M37.333 0.667c0 0.167 0.3 0.333 0.7 0.333 0.367 0 0.567-0.167 0.467-0.333-0.1-0.2-0.433-0.333-0.7-0.333s-0.467 0.133-0.467 0.333z" fill="#000000"></path>
<path d="M43.167 1c0.1 0.167 0.433 0.333 0.7 0.333s0.467-0.167 0.467-0.333c0-0.2-0.3-0.333-0.7-0.333-0.367 0-0.567 0.133-0.467 0.333z" fill="#000000"></path>
<path d="M34.5 1.333c-0.1 0.167 0.1 0.333 0.467 0.333 0.4 0 0.7-0.167 0.7-0.333 0-0.2-0.2-0.333-0.467-0.333s-0.6 0.133-0.7 0.333z" fill="#000000"></path>
<path d="M45.833 1.667c-0.133 0.2-0.133 0.333-0.033 0.333 0.067 0 0.367 0.1 0.667 0.2s0.533 0.067 0.533-0.133c0-0.467-0.933-0.767-1.167-0.4z" fill="#000000"></path>
<path d="M31.967 2.533c-0.4 0.467-0.367 0.533 0.167 0.433 0.367-0.067 0.7-0.333 0.8-0.567 0.167-0.567-0.433-0.5-0.967 0.133z" fill="#000000"></path>
<path d="M48.533 2.933c-0.1 0.2 0.033 0.5 0.267 0.7 0.267 0.233 0.567 0.267 0.667 0.1 0.1-0.2-0.033-0.5-0.267-0.7-0.267-0.233-0.567-0.267-0.667-0.1z" fill="#000000"></path>
<path d="M29.7 4.133c-0.233 0.267-0.267 0.567-0.1 0.667 0.2 0.1 0.5-0.033 0.7-0.267 0.233-0.267 0.267-0.567 0.1-0.667-0.2-0.1-0.5 0.033-0.7 0.267z" fill="#000000"></path>
<path d="M50.667 4.967c0 0.433 0.867 1.067 1.1 0.8 0.267-0.233-0.367-1.1-0.8-1.1-0.167 0-0.3 0.133-0.3 0.3z" fill="#000000"></path>
<path d="M27.667 6.167c-0.6 0.7-0.1 1.067 0.533 0.433 0.333-0.3 0.4-0.6 0.2-0.733-0.167-0.1-0.5 0.033-0.733 0.3z" fill="#000000"></path>
<path d="M5.467 6.267c-0.433 0.267 0 2.867 1.033 6.133 0.533 1.667 0.733 1.933 1.433 1.933 0.5 0 0.733-0.167 0.667-0.433-0.1-0.2-0.733-2.1-1.4-4.167-0.7-2.033-1.267-3.733-1.3-3.733s-0.233 0.133-0.433 0.267z" fill="#000000"></path>
<path d="M34.1 6.267c-0.267 0.167-0.3 0.433-0.1 0.733 0.2 0.267 0.333 0.867 0.333 1.333s0.4 2 0.867 3.4c0.733 2.267 0.967 2.6 1.633 2.6h0.767l-1.367-4.167c-0.767-2.3-1.467-4.167-1.567-4.167s-0.333 0.133-0.567 0.267z" fill="#000000"></path>
<path d="M63.133 6.233c-0.433 0.133-0.167 1.5 1 5.433 0.633 2.2 0.833 2.5 1.567 2.6l0.867 0.1-1.367-4c-1.467-4.267-1.5-4.333-2.067-4.133z" fill="#000000"></path>
<path d="M1.333 6.833c-0.3 0.367-0.367 1.433-0.267 3.733l0.167 3.233 1.3 1.167 1.3 1.2 0.467-4.067c0.4-3.733 0.4-4.167-0.1-4.933-0.633-0.967-2.2-1.133-2.867-0.333z" fill="#000000"></path>
<path d="M30.433 6.567c-0.3 0.1-0.433 1.167-0.433 3.667v3.5l1.233 1.133c0.667 0.633 1.333 1.133 1.433 1.133 0.267 0 0.8-5.433 0.767-7.467-0.067-1.8-1.333-2.667-3-1.967z" fill="#000000"></path>
<path d="M59.233 6.567c-0.133 0.1-0.233 1.833-0.233 3.8v3.6l1.233 1c1.567 1.3 1.6 1.2 1.933-3.833 0.2-3.2 0.167-3.733-0.333-4.233-0.533-0.567-2.167-0.767-2.6-0.333z" fill="#000000"></path>
<path d="M7.6 8.333c0.467 1.467 0.6 1.633 0.833 1.067 0.333-0.733-0.3-2.433-1-2.633-0.267-0.1-0.2 0.4 0.167 1.567z" fill="#000000"></path>
<path d="M36.2 7.4c0.1 0.433 0.4 1.2 0.633 1.767l0.433 1 0.033-1.233c0.033-0.7-0.2-1.433-0.5-1.733-0.7-0.733-0.9-0.667-0.6 0.2z" fill="#000000"></path>
<path d="M65 6.833c0 0.667 0.8 2.833 1.067 2.833 0.533 0 0.267-1.9-0.4-2.5-0.367-0.333-0.667-0.5-0.667-0.333z" fill="#000000"></path>
<path d="M52.667 7.5c0.233 0.267 0.533 0.5 0.7 0.5s0.2-0.233 0.1-0.5c-0.133-0.267-0.433-0.5-0.7-0.5-0.433 0-0.433 0.1-0.1 0.5z" fill="#000000"></path>
<path d="M26.2 8.533c-0.267 0.7-0.267 0.8 0.1 0.8 0.4 0 0.733-0.933 0.4-1.167-0.167-0.1-0.4 0.067-0.5 0.367z" fill="#000000"></path>
<path d="M54.067 9.9c0.067 0.3 0.267 0.6 0.5 0.667 0.233 0.1 0.3-0.1 0.2-0.533-0.2-0.833-0.867-0.933-0.7-0.133z" fill="#000000"></path>
<path d="M25 11.733c0 0.633 0.067 0.667 0.333 0.267 0.433-0.633 0.433-1 0-1-0.167 0-0.333 0.333-0.333 0.733z" fill="#000000"></path>
<path d="M4.933 14.067c-0.1 2.333-0.067 2.4 0.9 3 0.567 0.333 2.267 1 3.833 1.467 6.633 2 8.633 3.167 9.967 5.733l0.6 1.167 0.467-1.8c0.233-1 0.433-2.967 0.467-4.4 0-3.867-0.033-3.9-7.333-3.867-3.2 0-6.167-0.1-6.6-0.233-0.633-0.133-0.933-0.567-1.233-1.667-0.633-2.233-0.933-2.067-1.067 0.6z" fill="#000000"></path>
<path d="M33.867 13.4c-0.367 3.133-0.367 3.1 1.733 4.033 1.033 0.467 3.433 1.3 5.3 1.867 4.133 1.267 6.367 2.667 7.267 4.6 0.367 0.767 0.767 1.4 0.867 1.433 0.433 0 1.333-6.067 1.133-7.4-0.433-2.5-0.667-2.6-7.6-2.6-3.367 0-6.367-0.067-6.667-0.2-0.3-0.1-0.767-0.933-1.067-1.833s-0.6-1.633-0.633-1.633c-0.067 0-0.2 0.8-0.333 1.733z" fill="#000000"></path>
<path d="M62.833 13c-0.1 0.833-0.167 2.033-0.1 2.667 0.1 1.1 0.2 1.167 2.933 2.233 1.567 0.567 3.9 1.367 5.2 1.733 3 0.867 5.367 2.5 6.333 4.3 0.433 0.8 0.833 1.267 0.933 1.133 0.433-0.7 1.167-6.067 0.967-7.167-0.1-0.667-0.467-1.5-0.8-1.867-0.6-0.633-1.033-0.7-6.833-0.7-3.4 0-6.4-0.133-6.733-0.3-0.3-0.167-0.8-1.033-1.1-1.933l-0.533-1.6-0.267 1.5z" fill="#000000"></path>
<path d="M55 13c0 0.367 0.167 0.667 0.333 0.667 0.2 0 0.333-0.3 0.333-0.667s-0.133-0.667-0.333-0.667c-0.167 0-0.333 0.3-0.333 0.667z" fill="#000000"></path>
<path d="M24.333 14.333c0 0.367 0.167 0.667 0.333 0.667 0.2 0 0.333-0.3 0.333-0.667s-0.133-0.667-0.333-0.667c-0.167 0-0.333 0.3-0.333 0.667z" fill="#000000"></path>
<path d="M55.333 16.133c0 0.667 0.167 1.2 0.333 1.2 0.2 0 0.333-0.433 0.333-0.967 0-0.567-0.133-1.1-0.333-1.2-0.2-0.133-0.333 0.267-0.333 0.967z" fill="#000000"></path>
<path d="M1.533 16.9c0.3 2.3 1.433 7.933 1.8 8.933 0.267 0.667 0.533 0.833 1.533 0.833 1.033 0 1.167-0.1 0.967-0.567-0.8-1.933-1.533-4.8-1.7-6.8-0.233-2.167-0.267-2.3-1.5-3.133l-1.3-0.833 0.2 1.567z" fill="#000000"></path>
<path d="M30.333 15.967c0 1.333 1.333 8.4 1.8 9.533 0.433 1.033 0.633 1.167 1.733 1.167 1.033 0 1.167-0.1 0.967-0.567-1.233-2.9-1.6-4.267-1.733-6.433-0.2-2.433-0.2-2.533-1.467-3.4-1.167-0.833-1.3-0.867-1.3-0.3z" fill="#000000"></path>
<path d="M59.467 17.5c0.3 2.867 1.067 6.5 1.667 8 0.4 0.967 0.667 1.167 1.467 1.167 1.333 0 1.4-0.167 0.7-1.6-0.6-1.2-1.067-3.267-1.467-6.467-0.167-1.267-0.4-1.7-1.4-2.467l-1.2-0.9 0.233 2.267z" fill="#000000"></path>
<path d="M24.333 17.333c0 0.367 0.167 0.667 0.333 0.667 0.2 0 0.333-0.3 0.333-0.667s-0.133-0.667-0.333-0.667c-0.167 0-0.333 0.3-0.333 0.667z" fill="#000000"></path>
<path d="M5.1 19.9c0.2 2.333 0.9 4.7 1.767 6 0.467 0.733 0.633 0.767 6.3 0.767 3.6 0 5.867-0.133 6-0.333 0.4-0.633-1.167-3.233-2.433-4.1-1.433-1-2.3-1.333-5.9-2.4-1.467-0.433-3.4-1.1-4.3-1.5l-1.633-0.7 0.2 2.267z" fill="#000000"></path>
<path d="M33.833 19.533c0.333 2.567 1.3 5.7 2.033 6.5 0.567 0.633 0.633 0.633 2.2-0.933 1.233-1.2 1.5-1.667 1.2-2-0.467-0.567-0.367-0.667 1.167-0.933 1.133-0.233 1.233-0.167 1.233 0.533 0 0.433-0.1 1.133-0.2 1.533-0.167 0.633-0.3 0.667-0.833 0.333-0.5-0.333-0.767-0.233-1.633 0.6-0.533 0.533-1 1.067-1 1.233 0 0.133 2.267 0.267 5 0.267 4.967 0 5 0 5-0.767 0-2.167-2.7-4.433-6.567-5.533-2.067-0.6-5.567-1.833-7.533-2.667-0.167-0.067-0.2 0.767-0.067 1.833z" fill="#000000"></path>
<path d="M62.667 18.567c0.033 2.533 1.5 7.2 2.467 7.833 0.2 0.133 2.967 0.267 6.133 0.267 5.567 0 5.733-0.033 5.733-0.667 0-0.4-0.2-1.1-0.467-1.6-1.033-1.967-3.133-3.2-7.367-4.4-1.467-0.4-3.467-1.1-4.467-1.533-0.967-0.433-1.833-0.8-1.9-0.8s-0.133 0.4-0.133 0.9z" fill="#000000"></path>
<path d="M54.9 19.667c-0.1 0.367-0.033 0.667 0.133 0.667s0.3-0.067 0.3-0.133c0-0.067 0.1-0.367 0.2-0.667s0.067-0.533-0.133-0.533c-0.167 0-0.4 0.3-0.5 0.667z" fill="#000000"></path>
<path d="M24.8 20.2c0.1 0.3 0.2 0.6 0.2 0.667 0 0.1 0.133 0.1 0.333-0.033 0.367-0.233 0.067-1.167-0.4-1.167-0.2 0-0.233 0.233-0.133 0.533z" fill="#000000"></path>
<path d="M53.9 22.5c-0.133 0.267-0.067 0.567 0.067 0.667 0.233 0.133 0.7-0.533 0.7-1.033 0-0.367-0.6-0.067-0.767 0.367z" fill="#000000"></path>
<path d="M25.667 22.567c0 0.467 0.633 1.267 0.833 1.067 0.267-0.267-0.167-1.3-0.533-1.3-0.167 0-0.3 0.1-0.3 0.233z" fill="#000000"></path>
<path d="M52.533 24.867c-0.3 0.733 0.1 1.067 0.467 0.467 0.4-0.633 0.4-1 0.033-1-0.167 0-0.4 0.233-0.5 0.533z" fill="#000000"></path>
<path d="M27.233 24.9c-0.133 0.2 0 0.533 0.267 0.767 0.7 0.567 0.933 0.267 0.367-0.5-0.267-0.367-0.5-0.467-0.633-0.267z" fill="#000000"></path>
<path d="M50.667 27.167c-0.267 0.3-0.267 0.5-0.067 0.5 0.4 0 0.867-0.633 0.633-0.867-0.067-0.067-0.333 0.067-0.567 0.367z" fill="#000000"></path>
<path d="M29.2 27.267c-0.1 0.2 0.033 0.5 0.267 0.7 0.267 0.233 0.567 0.267 0.667 0.1 0.1-0.2-0.033-0.5-0.267-0.7-0.267-0.233-0.567-0.267-0.667-0.1z" fill="#000000"></path>
<path d="M48.167 29.033c-0.4 0.633 0.167 0.767 0.733 0.2 0.533-0.533 0.533-0.567 0.033-0.567-0.3 0-0.667 0.167-0.767 0.367z" fill="#000000"></path>
<path d="M31.767 29.567c0.3 0.3 0.633 0.467 0.767 0.367 0.333-0.333-0.2-0.933-0.8-0.933-0.5 0-0.5 0.033 0.033 0.567z" fill="#000000"></path>
<path d="M45.667 30.333c-0.267 0.167-0.4 0.4-0.3 0.5 0.267 0.267 1.3-0.167 1.3-0.533s-0.367-0.367-1 0.033z" fill="#000000"></path>
<path d="M34.167 30.667c0.1 0.167 0.433 0.333 0.7 0.333s0.4-0.167 0.3-0.333c-0.1-0.2-0.433-0.333-0.7-0.333s-0.4 0.133-0.3 0.333z" fill="#000000"></path>
<path d="M36.833 31.333c-0.1 0.167 0.1 0.333 0.5 0.333s0.6-0.167 0.5-0.333c-0.1-0.2-0.333-0.333-0.5-0.333s-0.4 0.133-0.5 0.333z" fill="#000000"></path>
<path d="M42.667 31.333c0 0.167 0.3 0.333 0.667 0.333s0.667-0.167 0.667-0.333c0-0.2-0.3-0.333-0.667-0.333s-0.667 0.133-0.667 0.333z" fill="#000000"></path>
<path d="M39.667 31.667c0 0.167 0.3 0.333 0.667 0.333s0.667-0.167 0.667-0.333c0-0.2-0.3-0.333-0.667-0.333s-0.667 0.133-0.667 0.333z" fill="#000000"></path>
</svg>
