<?xml version="1.0" encoding="utf-8"?>
<!DOCTYPE svg PUBLIC "-//W3C//DTD SVG 1.1//EN" "http://www.w3.org/Graphics/SVG/1.1/DTD/svg11.dtd">
<svg version="1.1" xmlns="http://www.w3.org/2000/svg" xmlns:xlink="http://www.w3.org/1999/xlink" width="32" height="32" viewBox="0 0 32 32">
<path d="M14.496 1.664c-0.88 0.528-1.376 1.408-1.376 2.464 0 1.008 0.256 1.568 1.024 2.24 1.776 1.552 4.736 0.208 4.736-2.16 0-1.168-0.608-2.16-1.632-2.704-0.688-0.352-2.032-0.288-2.752 0.16z" fill="#000000"></path>
<path d="M12.64 7.776c-0.736 0.32-1.232 0.8-1.632 1.568-0.272 0.528-2.848 9.12-2.848 9.504 0 0.144 1.92 0.88 2.032 0.768 0.032-0.032 0.56-1.84 1.168-4.016s1.12-3.984 1.152-4c0.032-0.016 0.272 0.048 0.544 0.144l0.496 0.176-1.536 5.52-1.552 5.52 2.336 0.096v8.144h2.56l0.032-4.032 0.048-4.048 0.512-0.048 0.528-0.048 0.032 4.048 0.048 4.048 2.64 0.096v-8.176h1.12c0.624 0 1.12-0.064 1.12-0.128s-0.672-2.576-1.504-5.552c-1.568-5.632-1.568-5.68-0.784-5.68 0.384 0 0.256-0.368 1.648 4.64 0.464 1.632 0.864 3.008 0.896 3.056 0.048 0.096 1.952-0.288 2.112-0.416 0.032-0.032-0.544-2.128-1.28-4.656-1.472-5.152-1.792-5.808-3.008-6.432-0.656-0.32-0.912-0.352-3.52-0.352-2.144 0.016-2.928 0.064-3.36 0.256z" fill="#000000"></path>
</svg>
