<?xml version="1.0" encoding="utf-8"?>
<!DOCTYPE svg PUBLIC "-//W3C//DTD SVG 1.1//EN" "http://www.w3.org/Graphics/SVG/1.1/DTD/svg11.dtd">
<svg version="1.1" xmlns="http://www.w3.org/2000/svg" xmlns:xlink="http://www.w3.org/1999/xlink" width="32" height="32" viewBox="0 0 32 32">
<path d="M13.44 2.496c-0.976 0.336-1.44 0.928-1.44 1.808 0 1.12 0.704 1.776 1.92 1.776 1.664 0 2.336-2.24 0.96-3.216-0.448-0.32-1.088-0.48-1.44-0.368z" fill="#000000"></path>
<path d="M12.56 7.072c-0.832 0.656-0.88 0.976-0.88 6.24v4.848l4.16-4.16v-2.96c0-2.656-0.032-3.008-0.304-3.424-0.432-0.64-0.912-0.88-1.792-0.896-0.528 0-0.864 0.096-1.184 0.352z" fill="#000000"></path>
<path d="M21.84 9.312c-0.176 0.096-3.52 3.328-7.44 7.168s-7.344 7.12-7.632 7.264c-0.336 0.16-0.912 0.256-1.696 0.256-2.224 0-3.536 1.12-3.536 2.992 0 0.672 0.096 0.976 0.464 1.504 0.816 1.136 1.216 1.264 4.112 1.264 1.376 0 2.704-0.080 2.96-0.176 0.24-0.080 3.616-3.312 7.488-7.168 3.872-3.872 7.264-7.136 7.52-7.264 0.304-0.144 1.136-0.256 2.32-0.304 2.16-0.080 2.864-0.336 3.472-1.28 0.928-1.376 0.544-3.248-0.816-4.048-0.672-0.384-0.768-0.4-3.792-0.4-2 0.016-3.216 0.080-3.424 0.192z" fill="#000000"></path>
<path d="M26.64 18.72c-1.936 0.352-3.552 0.624-3.6 0.624-0.032 0.016 0.432 0.528 1.040 1.136l1.12 1.12-3.008 3.008c-1.648 1.648-2.992 3.072-2.992 3.152 0 0.208 1.472 1.68 1.68 1.68 0.096 0 1.504-1.344 3.152-2.992l3.008-3.008 1.104 1.104 1.104 1.088 0.096-0.448c0.048-0.256 0.304-1.792 0.576-3.424s0.512-3.12 0.56-3.328c0.096-0.432 0.464-0.448-3.84 0.288z" fill="#000000"></path>
</svg>
