<?xml version="1.0" encoding="utf-8"?>
<!DOCTYPE svg PUBLIC "-//W3C//DTD SVG 1.1//EN" "http://www.w3.org/Graphics/SVG/1.1/DTD/svg11.dtd">
<svg version="1.1" xmlns="http://www.w3.org/2000/svg" xmlns:xlink="http://www.w3.org/1999/xlink" width="42" height="32" viewBox="0 0 42 32">
<path d="M10.966 0.624c-7.649 0.39-10.38 0.624-10.615 1.015-0.429 0.624-0.429 14.4-0.039 15.024 0.156 0.234 1.093 0.507 2.029 0.585l1.756 0.117 0.195 2.419c0.117 1.327 0.273 2.498 0.39 2.576 0.117 0.117 0.976-1.015 1.951-2.498l1.756-2.693h4.761l-0.195-6.166c-0.195-6.166-0.195-6.166 0.819-7.298 0.976-1.171 1.015-1.171 4.917-1.054l3.941 0.078v-0.976c0-0.507-0.312-1.093-0.663-1.288-0.39-0.156-5.346-0.078-11.005 0.156z" fill="#000000"></path>
<path d="M16.234 5.307c-0.546 0.507-0.624 1.912-0.624 9.327 0 4.8 0.117 8.976 0.234 9.327 0.195 0.507 0.859 0.624 3.083 0.624h2.849l2.888 3.59 2.849 3.629 0.117-3.59 0.117-3.629 6.907-0.078 6.907-0.117 0.117-8.937c0.039-4.917-0.039-9.093-0.195-9.249-0.195-0.156-4.605-0.468-9.873-0.702s-10.732-0.507-12.176-0.624c-2.029-0.156-2.732-0.078-3.2 0.429z" fill="#000000"></path>
</svg>
