<?xml version="1.0" encoding="utf-8"?>
<!DOCTYPE svg PUBLIC "-//W3C//DTD SVG 1.1//EN" "http://www.w3.org/Graphics/SVG/1.1/DTD/svg11.dtd">
<svg version="1.1" xmlns="http://www.w3.org/2000/svg" xmlns:xlink="http://www.w3.org/1999/xlink" width="32" height="32" viewBox="0 0 32 32">
<path d="M18.544 1.712c-0.72 0.368-1.264 0.768-1.392 1.008-0.144 0.304-0.176 1.024-0.096 2.992l0.112 2.608h-1.008v-1.024c0-1.264-0.080-1.488-0.656-1.792-0.416-0.208-0.464-0.32-0.464-1.008 0-0.976-0.256-1.28-1.52-1.904-1.408-0.704-1.568-0.72-2.048-0.336-0.32 0.24-0.432 0.48-0.432 0.864 0 0.496 0.048 0.56 0.624 0.72 0.352 0.096 1.056 0.144 1.568 0.128 0.912-0.048 0.928-0.048 0.976 0.416 0.048 0.368 0.016 0.448-0.208 0.352-0.944-0.352-1.552-0.080-1.776 0.784-0.144 0.592 0.176 0.848 1.232 0.976l0.944 0.112v1.664l-0.72 0.080c-1.264 0.144-1.2-0.16-1.2 5.744v5.264l-0.368 0.144c-0.752 0.288-0.8 0.496-0.72 3.024 0.064 2.128 0.112 2.448 0.512 3.392 0.256 0.576 0.512 1.488 0.576 2.016 0.064 0.592 0.256 1.184 0.464 1.472 0.176 0.272 0.336 0.672 0.336 0.896 0 0.24 0.128 0.48 0.304 0.576 0.416 0.208 4.576 0.208 4.992 0 0.176-0.112 0.304-0.336 0.304-0.608 0-0.24 0.192-0.72 0.4-1.072l0.4-0.64v-5.36c0-5.184 0.016-5.376 0.32-5.568s0.32-0.368 0.32-3.472c0-3.072-0.016-3.296-0.32-3.6-0.208-0.208-0.32-0.528-0.32-0.928 0-0.32-0.064-0.672-0.128-0.768-0.208-0.32-0.8-0.544-1.408-0.544h-0.592l0.128-2.528c0.064-1.376 0.144-2.56 0.192-2.64 0.032-0.064 0.672-0.112 1.408-0.112 1.392 0 1.968-0.24 1.776-0.752-0.048-0.128-0.096-0.304-0.096-0.384 0-0.256-0.624-0.784-0.944-0.784-0.16 0-0.832 0.272-1.472 0.592zM15.488 7.408c0.048 0.832 0.016 0.912-0.288 0.912-0.288 0-0.32-0.096-0.32-0.976 0-0.832 0.032-0.96 0.288-0.912 0.208 0.032 0.288 0.24 0.32 0.976z" fill="#000000"></path>
</svg>
