<?xml version="1.0" encoding="utf-8"?>
<!DOCTYPE svg PUBLIC "-//W3C//DTD SVG 1.1//EN" "http://www.w3.org/Graphics/SVG/1.1/DTD/svg11.dtd">
<svg version="1.1" xmlns="http://www.w3.org/2000/svg" xmlns:xlink="http://www.w3.org/1999/xlink" width="32" height="32" viewBox="0 0 32 32">
<path d="M13.027 1.467c-0.613 0.187-1.213 0.72-1.533 1.36-0.253 0.507-0.293 0.813-0.293 2.027v1.413h-2.107c-1.893 0-2.147 0.027-2.347 0.24-0.227 0.267-0.267 0.76-0.613 7.293-0.080 1.533-0.227 4.333-0.333 6.2-0.2 3.293-0.24 4.147-0.4 7.267-0.040 0.8-0.107 1.787-0.147 2.16-0.067 0.627-0.040 0.733 0.267 1.040l0.333 0.333h10.040c7.84 0 10.107-0.040 10.373-0.173 0.32-0.16 0.333-0.227 0.333-1.227 0-1.187-0.133-4.16-0.333-7.2-0.12-1.867-0.427-7.533-0.613-11.2-0.147-3.027-0.28-4.32-0.453-4.533-0.133-0.16-0.547-0.2-2.333-0.2h-2.173l-0.053-1.653c-0.040-1.627-0.053-1.667-0.453-2.173-0.8-0.987-0.987-1.040-4.053-1.067-1.507-0.013-2.907 0.027-3.107 0.093zM18.867 3.267c0.307 0.293 0.333 0.413 0.333 1.667v1.333h-6.4v-1.32c0-1.12 0.040-1.36 0.28-1.667l0.267-0.347h2.6c2.587 0 2.6 0 2.92 0.333z" fill="#000000"></path>
</svg>
