<?xml version="1.0" encoding="utf-8"?>
<!DOCTYPE svg PUBLIC "-//W3C//DTD SVG 1.1//EN" "http://www.w3.org/Graphics/SVG/1.1/DTD/svg11.dtd">
<svg version="1.1" xmlns="http://www.w3.org/2000/svg" xmlns:xlink="http://www.w3.org/1999/xlink" width="32" height="32" viewBox="0 0 32 32">
<path d="M14.32 11.248c-1.488 0.592-2.592 1.68-3.136 3.136-0.272 0.704-0.32 1.136-0.272 2.096 0.080 1.488 0.624 2.576 1.76 3.6 0.976 0.88 1.92 1.2 3.488 1.2 1.056 0 1.376-0.064 2.208-0.48 3.072-1.552 3.808-5.552 1.488-8.192-0.288-0.336-0.96-0.816-1.488-1.088-0.864-0.416-1.136-0.48-2.272-0.464-0.72 0-1.504 0.096-1.776 0.192zM15.584 16.224c0.576 0.832 1.056 1.552 1.056 1.6 0 0.272-0.864 0.048-1.184-0.304s-0.512-0.4-1.408-0.4c-0.944 0-1.072 0.048-1.312 0.4-0.256 0.4-0.896 0.56-0.896 0.224 0-0.096 0.448-0.816 0.992-1.6 1.296-1.888 1.392-1.888 2.752 0.080zM20.24 15.040c0 0.192-0.256 0.256-1.152 0.288l-1.168 0.048v0.944h1.12c0.896 0 1.12 0.048 1.12 0.24s-0.224 0.24-1.104 0.24h-1.12l-0.048 0.512c-0.032 0.448-0.112 0.528-0.448 0.528-0.384 0-0.4-0.032-0.448-1.344-0.032-0.736 0-1.44 0.032-1.568 0.128-0.336 3.216-0.224 3.216 0.112z" fill="#000000"></path>
<path d="M13.632 16.096l-0.352 0.544h1.456l-0.256-0.464c-0.352-0.688-0.448-0.688-0.848-0.080z" fill="#000000"></path>
<path d="M0.8 14.24c0 0.192 0.176 0.512 0.4 0.72l0.384 0.4h7.984l0.096-0.448c0.064-0.24 0.144-0.56 0.192-0.72 0.080-0.256-0.208-0.272-4.48-0.272-4.496 0-4.576 0-4.576 0.32z" fill="#000000"></path>
<path d="M22.32 14.592l0.192 0.688 3.984 0.048c4.368 0.048 4.432 0.032 4.688-0.896l0.16-0.512h-9.232l0.208 0.672z" fill="#000000"></path>
<path d="M2.88 16.16c0 0.368 0.384 0.944 0.752 1.104 0.224 0.112 1.472 0.176 3.168 0.176h2.8v-1.44h-3.36c-2.016 0-3.36 0.064-3.36 0.16z" fill="#000000"></path>
<path d="M22.528 16.656c-0.032 0.416 0.016 0.688 0.128 0.736 0.112 0.032 1.456 0.048 2.992 0.016 2.48-0.048 2.832-0.080 3.136-0.352 0.192-0.176 0.336-0.48 0.336-0.688v-0.368h-6.528l-0.064 0.656z" fill="#000000"></path>
<path d="M5.072 18.432c0.208 0.864 0.4 0.928 2.944 0.928h2.352l-0.24-0.64-0.256-0.64h-4.88l0.080 0.352z" fill="#000000"></path>
<path d="M22 18.656c-0.128 0.32-0.24 0.608-0.24 0.64s1.072 0.064 2.384 0.064c2.304 0 2.416-0.016 2.64-0.352 0.144-0.192 0.256-0.48 0.256-0.64 0-0.256-0.208-0.288-2.4-0.288h-2.4l-0.24 0.576z" fill="#000000"></path>
</svg>
