<?xml version="1.0" encoding="utf-8"?>
<!DOCTYPE svg PUBLIC "-//W3C//DTD SVG 1.1//EN" "http://www.w3.org/Graphics/SVG/1.1/DTD/svg11.dtd">
<svg version="1.1" xmlns="http://www.w3.org/2000/svg" xmlns:xlink="http://www.w3.org/1999/xlink" width="32" height="32" viewBox="0 0 32 32">
<path d="M5.632 1.632c-0.080 0.112-0.544 3.408-1.008 7.344l-0.848 7.12 0.752 6.976c0.416 3.84 0.8 7.104 0.848 7.232 0.096 0.224 1.264 0.256 11.28 0.256 9.904 0 11.2-0.032 11.296-0.24 0.048-0.144-0.256-3.392-0.656-7.248l-0.752-6.992 0.832-7.008c0.624-5.12 0.8-7.088 0.672-7.28-0.144-0.256-1.104-0.272-11.2-0.32-8.72-0.032-11.088 0.016-11.216 0.16zM25.248 16.112l-0.048 0.448-19.92 0.080v-0.96h20.016l-0.048 0.432zM11.6 19.712c0.032 0.208 0.176 1.52 0.32 2.928s0.288 2.72 0.336 2.912l0.064 0.368h-2.8c-1.536 0-2.8-0.032-2.8-0.048 0-0.032-0.144-1.344-0.32-2.928-0.176-1.568-0.32-3.024-0.32-3.232 0-0.352 0-0.352 2.72-0.352 2.688 0 2.72 0 2.8 0.352zM13.664 19.616c0.144 0.128 0.256 0.304 0.256 0.368 0 0.208-0.384 0.496-0.672 0.496-0.176 0-0.24 0.080-0.192 0.24 0.064 0.144 0 0.24-0.16 0.24-0.144 0-0.256-0.128-0.256-0.304 0-0.16-0.048-0.528-0.096-0.8-0.096-0.464-0.080-0.496 0.384-0.496 0.272 0 0.608 0.112 0.736 0.256zM15.008 20.112c0.208 0.48 0.272 0.784 0.16 0.832-0.096 0.032-0.224-0.048-0.304-0.16-0.096-0.176-0.192-0.176-0.528 0.016-0.224 0.112-0.432 0.176-0.464 0.144-0.128-0.16 0.4-1.584 0.592-1.584 0.128 0 0.368 0.336 0.544 0.752zM16.464 19.568c0.224 0.288 0.032 0.48-0.24 0.256-0.112-0.096-0.304-0.144-0.416-0.096s0 0.16 0.272 0.256c0.256 0.112 0.512 0.24 0.56 0.304 0.16 0.224 0.944 0.496 1.040 0.368 0.048-0.080-0.144-0.224-0.416-0.32-0.384-0.128-0.48-0.24-0.432-0.528 0.032-0.288 0.144-0.368 0.528-0.368s0.48 0.064 0.48 0.352c0 0.192 0.064 0.4 0.128 0.464s0.112 0.24 0.112 0.4c0 0.384-0.576 0.544-1.008 0.256-0.304-0.192-0.384-0.192-0.56-0.016-0.256 0.288-0.528 0.288-0.928 0-0.384-0.288-0.208-0.496 0.24-0.272 0.176 0.096 0.352 0.112 0.4 0.032s-0.128-0.224-0.384-0.32c-0.448-0.144-0.64-0.592-0.368-0.864 0.176-0.192 0.8-0.128 0.992 0.096zM19.36 19.6c0.272 0.336 0.128 0.8-0.288 0.848-0.192 0.032-0.352 0.16-0.352 0.288s-0.112 0.224-0.24 0.224c-0.176 0-0.24-0.192-0.24-0.8 0-0.768 0.016-0.8 0.464-0.8 0.256 0 0.544 0.112 0.656 0.24zM21.024 19.712c0.336 0.48 0.32 0.816-0.080 1.184-0.304 0.272-0.368 0.272-0.752 0.048-0.48-0.256-0.656-0.976-0.336-1.36 0.272-0.336 0.896-0.272 1.168 0.128zM22.528 19.568c0.096 0.112 0.176 0.352 0.16 0.512 0 0.176 0.048 0.448 0.112 0.592 0.080 0.208 0.048 0.288-0.144 0.288-0.144 0-0.256-0.112-0.256-0.24s-0.112-0.24-0.24-0.24c-0.128 0-0.24 0.112-0.24 0.24s-0.112 0.24-0.24 0.24c-0.16 0-0.24-0.16-0.24-0.448 0-0.24-0.048-0.592-0.096-0.8-0.096-0.32-0.048-0.352 0.464-0.352 0.304 0 0.624 0.096 0.72 0.208zM24.080 19.504c0.048 0.096-0.032 0.224-0.176 0.304-0.208 0.112-0.24 0.272-0.176 0.656 0.080 0.368 0.048 0.496-0.128 0.496-0.144 0-0.24-0.16-0.24-0.4 0-0.224-0.144-0.528-0.32-0.672-0.176-0.16-0.32-0.336-0.32-0.4 0-0.176 1.248-0.16 1.36 0.016zM24.4 23.2v0.72l-5.712 0.048-5.728 0.032v-1.6l5.728 0.032 5.712 0.048v0.72zM24.768 25.312l-0.048 0.688-5.712 0.048-5.728 0.032v-1.44h11.536l-0.048 0.672zM24.96 27.28v0.72h-11.36v-1.44h11.36v0.72z" fill="#000000"></path>
<path d="M8.112 21.568c-0.32 0.352-0.352 1.12-0.064 1.488 0.496 0.656 1.376 0.8 1.872 0.304 0.416-0.416 0.416-1.12-0.016-1.664-0.4-0.512-1.376-0.592-1.792-0.128z" fill="#000000"></path>
<path d="M7.312 24.128c-0.16 0.16-0.272 0.528-0.272 0.8v0.512h2.4c1.328 0 2.4-0.064 2.4-0.144 0-0.368-0.384-1.168-0.64-1.296-0.16-0.096-1.056-0.16-1.968-0.16-1.408 0-1.696 0.048-1.92 0.288z" fill="#000000"></path>
<path d="M12.96 19.904c0 0.144 0.112 0.256 0.256 0.256s0.224-0.080 0.192-0.192c-0.096-0.288-0.448-0.336-0.448-0.064z" fill="#000000"></path>
<path d="M17.2 19.84c0.048 0.080 0.176 0.16 0.256 0.16 0.096 0 0.112-0.080 0.064-0.16-0.048-0.096-0.176-0.16-0.256-0.16-0.096 0-0.112 0.064-0.064 0.16z" fill="#000000"></path>
<path d="M18.672 19.776c-0.128 0.128 0.016 0.384 0.224 0.384 0.080 0 0.144-0.112 0.144-0.24 0-0.24-0.192-0.32-0.368-0.144z" fill="#000000"></path>
<path d="M20.080 19.84c-0.176 0.288 0.096 0.8 0.416 0.8 0.352 0 0.416-0.464 0.112-0.768-0.24-0.24-0.4-0.24-0.528-0.032z" fill="#000000"></path>
<path d="M21.792 19.872c0.080 0.24 0.432 0.288 0.48 0.048 0.016-0.096-0.096-0.192-0.256-0.208-0.192-0.048-0.272 0.016-0.224 0.16z" fill="#000000"></path>
</svg>
