<?xml version="1.0" encoding="utf-8"?>
<!DOCTYPE svg PUBLIC "-//W3C//DTD SVG 1.1//EN" "http://www.w3.org/Graphics/SVG/1.1/DTD/svg11.dtd">
<svg version="1.1" xmlns="http://www.w3.org/2000/svg" xmlns:xlink="http://www.w3.org/1999/xlink" width="36" height="32" viewBox="0 0 36 32">
<path d="M23.396 0.664c-4.015 1.479-5.766 5.343-3.985 8.725 2.113 3.985 8.392 4.257 10.626 0.483 1.54-2.657 0.785-6.792-1.57-8.574-1.177-0.906-3.562-1.208-5.072-0.634z" fill="#000000"></path>
<path d="M17.268 14.521c-1.872 0.543-3.411 2.566-5.494 7.185l-1.902 4.257-3.713-1.962c-2.023-1.087-3.743-1.962-3.804-1.962-0.362 0-2.143 4.257-1.872 4.498 0.151 0.151 2.385 1.389 4.981 2.717 6.641 3.472 6.762 3.441 9.509-1.63l1.449-2.717 0.241 1.358c0.091 0.755 0.211 2.204 0.211 3.23 0.030 1.057 0.060 1.902 0.121 1.902 0.030 0 4.226-0.332 9.268-0.755 5.072-0.423 9.328-0.755 9.449-0.755 0.151 0 0.211-2.536 0.151-5.675-0.091-5.041-0.181-5.766-0.755-6.853-1.238-2.385-2.868-3.17-6.43-3.17-2.083 0-2.415 0.060-2.415 0.513 0 0.845-0.423 1.268-1.389 1.479-0.845 0.151-0.936 0.091-1.208-0.845l-0.302-0.996-2.536-0.060c-1.419-0.030-3.019 0.091-3.562 0.242zM25.66 17.087c0 0.302 1.509 9.872 1.66 10.536 0.091 0.483-0.211 0.845-1.479 1.6-0.906 0.543-1.721 0.966-1.811 0.966-0.241 0-0.241-3.019 0.030-8.694 0.181-4.559 0.181-4.589 0.906-4.589 0.362 0 0.694 0.091 0.694 0.181zM32.211 19.985c-1.328 1.872-1.358 1.902-2.898 1.992s-1.57 0.091-1.026-0.483c0.302-0.302 0.996-1.177 1.509-1.962 0.936-1.358 1.057-1.419 2.385-1.419h1.389l-1.358 1.872z" fill="#000000"></path>
</svg>
