<?xml version="1.0" encoding="utf-8"?>
<!DOCTYPE svg PUBLIC "-//W3C//DTD SVG 1.1//EN" "http://www.w3.org/Graphics/SVG/1.1/DTD/svg11.dtd">
<svg version="1.1" xmlns="http://www.w3.org/2000/svg" xmlns:xlink="http://www.w3.org/1999/xlink" width="32" height="32" viewBox="0 0 32 32">
<path d="M14.496 2.672c-0.832 12.016-3.12 22.192-6.096 27.072-0.304 0.512-0.56 0.976-0.56 1.040 0 0.048 1.12 0.096 2.48 0.096h2.48v-0.72c0-1.648 1.456-3.12 3.072-3.12 1.584 0.016 3.168 1.648 3.168 3.28v0.56h4.976l-0.416-0.672c-3.072-4.944-5.632-15.952-6.288-27.008l-0.112-2-2.608-0.096-0.096 1.568zM17.744 22.272c0.096 0.464 0.224 1.008 0.272 1.2l0.096 0.368h-2.272c-2.032 0-2.256-0.032-2.176-0.256 0.064-0.144 0.176-0.592 0.272-1.008 0.096-0.4 0.192-0.832 0.24-0.944 0.032-0.128 0.528-0.192 1.712-0.192h1.664l0.192 0.832z" fill="#000000"></path>
</svg>
