<?xml version="1.0" encoding="utf-8"?>
<!DOCTYPE svg PUBLIC "-//W3C//DTD SVG 1.1//EN" "http://www.w3.org/Graphics/SVG/1.1/DTD/svg11.dtd">
<svg version="1.1" xmlns="http://www.w3.org/2000/svg" xmlns:xlink="http://www.w3.org/1999/xlink" width="32" height="32" viewBox="0 0 32 32">
<path d="M7.072 7.088l-5.632 5.632v6.672l11.104 11.328h6.896l11.28-11.28v-6.72l-5.648-5.632-5.632-5.648h-6.72l-5.648 5.648zM17.312 5.424c0.48 0.432 0.528 0.56 0.528 1.376s-0.048 0.944-0.528 1.376c-1.408 1.264-3.744-0.256-3.024-1.968 0.544-1.296 2.032-1.68 3.024-0.784zM10.96 14.144c0.496 0.208 0.88 0.656 0.88 1.040 0 0.304-0.736 0.192-1.040-0.144-0.608-0.672-1.36-0.224-1.36 0.8 0 0.496 0.080 0.688 0.384 0.88 0.432 0.288 0.944 0.144 1.12-0.32 0.112-0.304 0.896-0.32 0.896-0.016 0 0.128-0.192 0.448-0.416 0.72-0.352 0.432-0.512 0.496-1.184 0.496s-0.832-0.064-1.264-0.56c-0.832-0.944-0.56-2.416 0.512-2.88 0.656-0.288 0.8-0.288 1.472-0.016zM15.008 14.336c0.416 0.288 0.48 1.040 0.112 1.344-0.208 0.176-0.224 0.24-0.016 0.464 0.112 0.144 0.256 0.528 0.288 0.848 0.064 0.576 0.032 0.608-0.384 0.608-0.352 0-0.448-0.080-0.448-0.336 0-0.592-0.304-0.944-0.8-0.944-0.448 0-0.48 0.032-0.48 0.64s-0.032 0.64-0.48 0.64h-0.48v-3.52h1.168c0.784 0 1.28 0.080 1.52 0.256zM18.72 14.4c0 0.288-0.112 0.32-0.88 0.32s-0.88 0.032-0.88 0.32c0 0.272 0.112 0.32 0.8 0.32 0.752 0 0.8 0.032 0.8 0.4s-0.048 0.4-0.8 0.4c-0.688 0-0.8 0.048-0.8 0.32 0 0.288 0.112 0.32 0.96 0.32 0.912 0 0.96 0.016 0.96 0.4 0 0.4-0.016 0.4-1.44 0.4h-1.44v-3.52h1.36c1.248 0 1.36 0.032 1.36 0.32zM20.144 14.88c0.096 0.448 0.176 0.96 0.176 1.12 0 0.72 0.288 0.24 0.464-0.8 0.192-1.072 0.224-1.12 0.656-1.12 0.416 0 0.448 0.064 0.64 0.992 0.112 0.56 0.256 1.072 0.32 1.136s0.192-0.384 0.304-1.008c0.208-1.088 0.208-1.12 0.688-1.12 0.352 0 0.464 0.064 0.4 0.224-0.048 0.128-0.176 0.544-0.272 0.928-0.608 2.32-0.64 2.368-1.12 2.368-0.416 0-0.464-0.064-0.624-0.8-0.096-0.448-0.176-0.928-0.176-1.040 0-0.128-0.064-0.24-0.16-0.24-0.080 0-0.16 0.112-0.16 0.24 0 0.112-0.080 0.592-0.176 1.040-0.16 0.736-0.208 0.8-0.624 0.8s-0.496-0.080-0.64-0.688c-0.112-0.368-0.32-1.152-0.48-1.76l-0.304-1.072h0.464c0.416 0 0.464 0.064 0.624 0.8z" fill="#000000"></path>
<path d="M13.28 15.12c0 0.352 0.064 0.4 0.544 0.4 0.304 0 0.608-0.080 0.656-0.16 0.176-0.288-0.24-0.64-0.736-0.64-0.384 0-0.464 0.064-0.464 0.4z" fill="#000000"></path>
</svg>
