<?xml version="1.0" encoding="utf-8"?>
<!-- Generated by IcoMoon.io -->
<!DOCTYPE svg PUBLIC "-//W3C//DTD SVG 1.1//EN" "http://www.w3.org/Graphics/SVG/1.1/DTD/svg11.dtd">
<svg version="1.1" xmlns="http://www.w3.org/2000/svg" xmlns:xlink="http://www.w3.org/1999/xlink" width="29" height="32" viewBox="0 0 29 32">
<path fill="#444444" d="M0.835 31.8c-1.019-0.515-0.972-1.958 0.078-2.377l0.305-0.122 0.020-13.958c0.019-13.445 0.025-13.968 0.162-14.225 0.198-0.373 0.567-0.748 0.927-0.942l0.305-0.165h8.248c7.898 0 8.26 0.006 8.515 0.142 0.373 0.199 0.748 0.567 0.942 0.927 0.16 0.296 0.166 0.397 0.188 3.317l0.022 3.011 0.518 0.546c0.573 0.603 0.884 1.028 1.174 1.603 0.292 0.579 0.355 0.881 0.479 2.291 0.191 2.181 0.545 3.701 1.361 5.847 0.838 2.203 1.146 2.83 2.573 5.227 1.386 2.329 1.84 3.439 2.003 4.898 0.156 1.397-0.112 2.313-0.915 3.13-0.534 0.543-1.178 0.864-1.881 0.939-0.591 0.063-1.579-0.002-2.084-0.139-0.724-0.195-1.763-1.127-2.093-1.878-0.074-0.168-0.159-0.615-0.19-0.993s-0.077-3.935-0.102-7.905l-0.047-7.217-0.802-0.046v15.589l0.306 0.122c1.050 0.42 1.097 1.863 0.078 2.378l-0.34 0.172h-19.41l-0.34-0.172zM26.157 30.531c0.459-0.209 1.005-0.857 1.155-1.372 0.261-0.896-0.017-2.248-0.77-3.747-0.19-0.378-0.678-1.248-1.084-1.933-0.904-1.523-1.694-3.061-2.246-4.372l-0.416-0.988-0.020 4.921c-0.021 5.049 0.020 6.049 0.265 6.549 0.409 0.832 2.18 1.366 3.117 0.94zM17.105 10.866c0.373-0.198 0.748-0.567 0.942-0.927 0.161-0.298 0.165-0.379 0.165-3.169s-0.004-2.872-0.165-3.169c-0.195-0.36-0.569-0.728-0.942-0.927-0.254-0.135-0.561-0.142-6.224-0.142s-5.97 0.007-6.224 0.142c-0.373 0.199-0.748 0.567-0.942 0.927-0.161 0.298-0.165 0.379-0.165 3.169 0 2.647 0.011 2.884 0.142 3.131 0.275 0.516 0.742 0.912 1.27 1.075 0.105 0.033 2.821 0.053 6.034 0.046 5.537-0.013 5.856-0.021 6.11-0.156z"></path>
</svg>
