<?xml version="1.0" encoding="utf-8"?>
<!DOCTYPE svg PUBLIC "-//W3C//DTD SVG 1.1//EN" "http://www.w3.org/Graphics/SVG/1.1/DTD/svg11.dtd">
<svg version="1.1" xmlns="http://www.w3.org/2000/svg" xmlns:xlink="http://www.w3.org/1999/xlink" width="32" height="32" viewBox="0 0 32 32">
<path d="M21.12 1.92c-0.373 0.173-0.853 0.533-1.080 0.8-0.427 0.533-0.84 1.6-0.84 2.2 0 1.227 1.107 2.693 2.333 3.107l0.667 0.213-1.6 0.013c-1.24 0.013-1.72 0.080-2.133 0.267-0.68 0.307-1.347 1.053-1.52 1.707-0.093 0.307-0.147 2.173-0.147 4.68 0 4.587 0.027 4.76 0.8 5.16 0.827 0.427 0.8 0.587 0.813-3.707 0.013-2.133 0.027-3.987 0.040-4.093 0-0.107 0.173-0.213 0.387-0.24l0.36-0.040v18.813h2.533v-8.533h1.467v8.533h2.667v-18.8h0.8v4.133c0 3.867 0.013 4.133 0.24 4.133 0.267 0 0.8-0.333 1.067-0.64 0.12-0.16 0.16-1.32 0.16-4.787 0-4.24-0.013-4.627-0.253-5.080-0.6-1.173-1.32-1.493-3.44-1.493l-1.573-0.013 0.627-0.24c0.333-0.133 0.8-0.373 1.027-0.533 0.507-0.36 1.107-1.347 1.2-2 0.080-0.467 0.093-0.48 0.747-0.52 0.773-0.053 0.933-0.16 0.8-0.547-0.067-0.24-0.187-0.28-0.8-0.28-0.653 0-0.72-0.027-0.84-0.373-0.64-1.787-2.76-2.653-4.507-1.84zM24.867 5.227c-0.32 1.44-1.6 2.307-2.893 1.973-0.933-0.253-1.84-1.307-1.84-2.133 0-0.253 0.080-0.267 2.413-0.267h2.413l-0.093 0.427z" fill="#000000"></path>
<path d="M20.88 5.28c-0.12 0.293 0.227 0.653 0.52 0.533 0.133-0.040 0.2-0.2 0.173-0.373-0.053-0.387-0.56-0.493-0.693-0.16z" fill="#000000"></path>
<path d="M23.467 5.267c-0.147 0.173-0.147 0.253 0.040 0.427 0.28 0.28 0.653 0.12 0.6-0.253s-0.4-0.467-0.64-0.173z" fill="#000000"></path>
<path d="M8.333 2.92c-0.733 0.333-1.187 0.787-1.587 1.587-0.347 0.68-0.347 0.68-1.040 0.72-0.653 0.040-0.707 0.067-0.707 0.373s0.053 0.333 0.707 0.373c0.613 0.040 0.693 0.080 0.693 0.333 0.013 0.427 0.493 1.44 0.907 1.867 0.387 0.413 1.227 0.893 1.56 0.893 0.107 0 0.2 0.053 0.2 0.133s-0.573 0.133-1.467 0.133c-2.027 0-2.747 0.32-3.36 1.52-0.253 0.507-0.267 0.76-0.253 5.067l0.013 4.533 0.36 0.373c0.213 0.2 0.573 0.4 0.813 0.453l0.427 0.080v-8.427h0.667v17.88l2.56-0.080 0.013-4 0.027-4 1.533-0.080v8.147h2.533l0.027-8.907 0.040-8.893 0.373-0.040 0.36-0.040v4.2c0 4.64-0.040 4.44 0.8 4.013 0.773-0.4 0.8-0.573 0.8-5.16 0-2.32-0.053-4.373-0.133-4.627-0.2-0.72-0.787-1.453-1.387-1.747-0.467-0.213-0.827-0.267-2.053-0.267-1.453 0-1.933-0.147-1.067-0.32 0.92-0.187 2.027-1.413 2.187-2.427l0.080-0.587h0.64c0.68 0 1-0.213 0.853-0.587-0.067-0.16-0.253-0.213-0.8-0.213-0.707 0-0.72-0.013-0.92-0.493-0.333-0.8-0.813-1.32-1.56-1.693-0.853-0.427-2.027-0.467-2.84-0.093zM12.027 6.187c-0.107 0.987-0.973 1.92-1.973 2.12-1.2 0.227-2.72-0.987-2.72-2.173v-0.4l2.373 0.027 2.36 0.040-0.040 0.387z" fill="#000000"></path>
<path d="M8.093 6.213c-0.16 0.173-0.107 0.56 0.107 0.64 0.333 0.12 0.613-0.067 0.573-0.373-0.040-0.28-0.493-0.453-0.68-0.267z" fill="#000000"></path>
<path d="M10.587 6.333c-0.053 0.12 0 0.307 0.12 0.427 0.28 0.28 0.653 0.12 0.6-0.253s-0.6-0.507-0.72-0.173z" fill="#000000"></path>
</svg>
