<?xml version="1.0" encoding="utf-8"?>
<!DOCTYPE svg PUBLIC "-//W3C//DTD SVG 1.1//EN" "http://www.w3.org/Graphics/SVG/1.1/DTD/svg11.dtd">
<svg version="1.1" xmlns="http://www.w3.org/2000/svg" xmlns:xlink="http://www.w3.org/1999/xlink" width="50" height="32" viewBox="0 0 50 32">
<path d="M1.381 1.381l-1.044 1.044v13.541c0 14.821-0.034 14.451 2.021 15.528 1.415 0.741 43.554 0.775 45.305 0.034 2.156-0.909 2.189-1.044 2.189-15.731v-13.171l-2.291-2.291h-45.137l-1.044 1.044zM18.189 16.168v8.421h-14.147v-16.842h14.147v8.421zM27.284 16.168v8.455l-4.547-0.202-0.101-8.354-0.067-8.32h4.716v8.421zM40.724 8.286c4.648 1.381 6.804 6.939 4.48 11.453-1.718 3.368-4.244 4.514-10.24 4.783l-4.312 0.168v-16.943h4.143c2.796 0 4.749 0.168 5.928 0.539z" fill="#000000"></path>
<path d="M9.937 11.251c-2.493 1.112-3.166 3.739-1.415 5.491 0.775 0.775 1.213 0.943 2.627 0.943 1.448 0 1.819-0.135 2.526-0.943 1.482-1.718 0.943-4.547-1.112-5.592-0.909-0.472-1.381-0.438-2.627 0.101z" fill="#000000"></path>
<path d="M6.568 19.267c-0.606 0.539-0.909 1.246-1.044 2.358l-0.236 1.617h1.853c1.011 0 3.705-0.101 5.996-0.236l4.109-0.202-0.168-1.381c-0.135-0.909-0.505-1.651-1.078-2.122-0.808-0.707-1.213-0.775-4.716-0.775s-3.907 0.067-4.716 0.741z" fill="#000000"></path>
<path d="M35.368 16.168v4.379h1.179c2.796 0 4.884-1.92 4.884-4.48 0-2.695-1.684-4.278-4.547-4.278h-1.516v4.379z" fill="#000000"></path>
</svg>
