<?xml version="1.0" encoding="utf-8"?>
<!DOCTYPE svg PUBLIC "-//W3C//DTD SVG 1.1//EN" "http://www.w3.org/Graphics/SVG/1.1/DTD/svg11.dtd">
<svg version="1.1" xmlns="http://www.w3.org/2000/svg" xmlns:xlink="http://www.w3.org/1999/xlink" width="41" height="32" viewBox="0 0 41 32">
<path d="M12.473 0.582c-0.655 0.291-1.2 0.655-1.2 0.836s1.127 2.727 2.509 5.6l2.509 5.273-9.091 3.418-1.745-1.709c-1.745-1.709-1.745-1.709-3.127-1.273-0.8 0.255-1.527 0.545-1.673 0.691-0.218 0.218 3.927 11.636 4.618 12.764 0.109 0.182 0.691 0.145 1.273-0.073 1.164-0.4 1.273-0.691 1.745-3.927l0.255-2 4.691-0.618c2.618-0.364 4.8-0.545 4.873-0.473 0.109 0.109 0.655 2.909 1.2 6.218 0.545 3.345 1.091 6.145 1.2 6.218 0.073 0.109 0.655-0.109 1.236-0.436 1.018-0.618 1.2-1.091 2.8-7.418 0.945-3.709 1.855-6.873 1.964-7.055 0.145-0.145 2.691-1.018 5.673-1.927 7.855-2.4 8.909-3.055 8.909-5.564 0-1.491-1.455-2.582-3.418-2.582-0.8 0-3.345 0.582-5.6 1.273-2.291 0.691-4.945 1.491-5.964 1.818l-1.855 0.545-5.127-5.091c-2.873-2.8-5.236-5.091-5.345-5.055-0.073 0-0.691 0.255-1.309 0.545z" fill="#000000"></path>
</svg>
