<?xml version="1.0" encoding="utf-8"?>
<!DOCTYPE svg PUBLIC "-//W3C//DTD SVG 1.1//EN" "http://www.w3.org/Graphics/SVG/1.1/DTD/svg11.dtd">
<svg version="1.1" xmlns="http://www.w3.org/2000/svg" xmlns:xlink="http://www.w3.org/1999/xlink" width="32" height="32" viewBox="0 0 32 32">
<path d="M13.264 1.376c-0.672 0.112-1.712 0.4-2.32 0.624-0.608 0.24-1.232 0.464-1.376 0.512-0.16 0.048-0.288 0.128-0.288 0.192 0 0.048 0.352 0.704 0.784 1.456l0.768 1.36-0.64 0.368c-0.352 0.192-0.656 0.336-0.672 0.32-0.016-0.032-0.384-0.64-0.8-1.376-0.4-0.72-0.8-1.312-0.848-1.312-0.064 0-0.592 0.368-1.184 0.816-1.008 0.752-2.016 1.776-2.704 2.736l-0.304 0.416 1.232 0.784c0.672 0.416 1.28 0.816 1.376 0.864 0.128 0.096-0.496 1.264-0.688 1.264-0.048 0-0.656-0.368-1.36-0.8-0.704-0.448-1.312-0.8-1.376-0.8-0.352 0-1.632 3.936-1.84 5.632l-0.096 0.928h3.2l0.064 0.736c0.032 0.4 0.016 0.752-0.016 0.8-0.032 0.032-0.784 0.064-1.664 0.064h-1.584l0.112 0.912c0.224 1.872 1.184 4.848 1.552 4.848 0.080 0 0.704-0.32 1.408-0.72s1.312-0.72 1.344-0.72c0.048 0 0.24 0.288 0.416 0.624l0.32 0.64-1.36 0.768c-0.752 0.416-1.36 0.832-1.36 0.912 0 0.512 3.52 4.176 3.888 4.048 0.096-0.032 0.544-0.64 0.976-1.344l0.8-1.296 0.608 0.336c0.336 0.192 0.608 0.416 0.608 0.48s-0.368 0.704-0.816 1.408c-0.528 0.816-0.768 1.344-0.672 1.44 0.576 0.576 4.528 1.744 5.888 1.744h0.56v-3.2h1.44v3.2h0.608c1.344-0.016 5.088-1.088 5.248-1.52 0.048-0.096-0.256-0.784-0.672-1.504-0.4-0.72-0.704-1.344-0.672-1.36 0.016-0.016 0.32-0.192 0.64-0.4l0.592-0.352 0.736 1.36c0.416 0.752 0.8 1.408 0.864 1.44 0.336 0.208 4.176-3.408 4.176-3.92 0-0.048-0.608-0.48-1.36-0.928l-1.36-0.848 0.272-0.48c0.16-0.256 0.368-0.528 0.448-0.608 0.096-0.080 0.672 0.176 1.44 0.656 0.704 0.432 1.328 0.784 1.408 0.784 0.416 0 1.632-3.616 1.808-5.392l0.112-1.008h-3.248v-1.6h3.248l-0.112-1.040c-0.144-1.472-1.024-4.352-1.472-4.864-0.032-0.032-0.624 0.272-1.328 0.688-0.704 0.4-1.36 0.736-1.44 0.736-0.096 0-0.304-0.272-0.48-0.608l-0.304-0.592 1.408-0.8 1.408-0.784-0.496-0.72c-0.704-1.024-1.488-1.856-2.576-2.768l-0.944-0.8-0.8 1.264c-0.432 0.688-0.848 1.312-0.912 1.392-0.112 0.112-0.576-0.128-1.264-0.64-0.032-0.032 0.32-0.624 0.768-1.328s0.816-1.344 0.816-1.44c0-0.4-3.712-1.616-5.632-1.84l-0.928-0.112v3.328h-1.44v-1.664c0-1.904 0.176-1.776-1.936-1.392zM24 11.92c0 0.528 0.032 0.544 0.448 0.464 0.656-0.128 0.992 0.272 0.992 1.152 0 0.592-0.048 0.704-0.32 0.704s-0.32-0.112-0.32-0.624c0-0.688-0.144-0.88-0.544-0.72-0.176 0.064-0.256 0.304-0.256 0.72 0 0.512-0.048 0.624-0.32 0.624-0.304 0-0.32-0.112-0.32-1.44s0.016-1.44 0.32-1.44c0.256 0 0.32 0.112 0.32 0.56zM8.32 11.84c0 0.272-0.112 0.32-0.64 0.32-0.848 0-0.896 0.432-0.048 0.512 0.832 0.064 0.896 0.448 0.064 0.448-0.544 0-0.656 0.048-0.656 0.32s0.112 0.32 0.64 0.32c0.464 0 0.64 0.064 0.64 0.24 0 0.192-0.208 0.24-0.96 0.24h-0.96v-1.248c0-0.688 0.048-1.312 0.112-1.36 0.048-0.064 0.48-0.112 0.96-0.112 0.736 0 0.848 0.032 0.848 0.32zM19.872 11.792c0.416 0.368 0.368 0.608-0.288 1.328l-0.576 0.64h0.576c0.4 0 0.576 0.064 0.576 0.24 0 0.192-0.208 0.24-0.96 0.24-1.168 0-1.216-0.16-0.32-1.040 0.352-0.336 0.64-0.72 0.64-0.832 0-0.304-0.4-0.416-0.768-0.224-0.24 0.128-0.336 0.112-0.416-0.064-0.192-0.512 1.024-0.752 1.536-0.288zM22.56 12.4c0 0.48 0.080 0.88 0.16 0.88 0.096 0 0.16 0.112 0.16 0.24s-0.064 0.24-0.16 0.24c-0.080 0-0.16 0.112-0.16 0.24s-0.112 0.24-0.24 0.24c-0.128 0-0.24-0.096-0.24-0.224 0-0.16-0.224-0.256-0.672-0.288-0.48-0.032-0.704-0.128-0.736-0.304-0.064-0.368 1.184-1.904 1.568-1.904 0.288 0 0.32 0.112 0.32 0.88zM12.16 12.080c0 0.128 0.144 0.24 0.32 0.24s0.32 0.112 0.32 0.24c0 0.128-0.144 0.24-0.32 0.24-0.24 0-0.32 0.112-0.32 0.416 0 0.272 0.096 0.448 0.32 0.496 0.464 0.128 0.4 0.528-0.064 0.528-0.448 0-0.896-0.528-0.896-1.056 0-0.192-0.080-0.384-0.16-0.416-0.272-0.080 0.208-0.928 0.528-0.928 0.144 0 0.272 0.112 0.272 0.24zM10.608 12.608c0.176 0.16 0.272 0.48 0.272 0.944 0 0.576-0.048 0.688-0.32 0.688s-0.32-0.112-0.32-0.624c0-0.688-0.144-0.88-0.544-0.72-0.176 0.064-0.256 0.304-0.256 0.72 0 0.512-0.048 0.624-0.32 0.624s-0.32-0.112-0.32-0.848c0-0.48 0.032-0.896 0.080-0.944 0.192-0.192 1.456-0.080 1.728 0.16zM14.56 12.544c0 0.096-0.16 0.256-0.352 0.336-0.272 0.112-0.384 0.32-0.416 0.752-0.032 0.4-0.128 0.608-0.288 0.608s-0.224-0.224-0.224-0.944v-0.928h0.64c0.368 0 0.64 0.080 0.64 0.176zM16.32 12.64c0.528 0.528 0.416 0.8-0.336 0.8-0.448 0-0.624 0.064-0.576 0.192 0.032 0.128 0.288 0.192 0.576 0.16 0.368-0.032 0.512 0.032 0.464 0.16-0.048 0.112-0.304 0.224-0.592 0.256-0.992 0.096-1.504-0.88-0.816-1.568 0.176-0.176 0.464-0.32 0.64-0.32s0.464 0.144 0.64 0.32zM17.12 16.544c0 0.128 0.16 0.256 0.352 0.288 0.48 0.064 0.544 0.416 0.096 0.48-0.544 0.080-0.592 0.72-0.064 0.928 0.48 0.176 0.528 0.4 0.16 0.544-0.4 0.16-1.024-0.32-1.024-0.784 0-0.224-0.096-0.56-0.192-0.736-0.16-0.272-0.16-0.368 0-0.416 0.096-0.048 0.192-0.176 0.192-0.304s0.112-0.224 0.24-0.224c0.128 0 0.24 0.096 0.24 0.224zM15.664 17.216c0.48 0.608 0.432 0.704-0.4 0.704-0.512 0-0.704 0.064-0.656 0.192 0.032 0.112 0.288 0.208 0.56 0.208 0.656 0 0.816 0.192 0.288 0.384-1.2 0.464-2.032-1.088-0.928-1.728 0.448-0.272 0.784-0.192 1.136 0.24zM19.808 20.688c0.032 0.16-0.048 0.272-0.192 0.272-0.288 0-0.464-0.256-0.336-0.496 0.144-0.224 0.464-0.096 0.528 0.224zM10.896 20.784c0.32 0.256 0.352 0.352 0.192 0.704-0.128 0.272-0.144 0.464-0.048 0.512 0.304 0.192 0.16 0.864-0.24 1.136-0.464 0.304-1.36 0.176-1.36-0.208 0-0.176 0.112-0.208 0.448-0.128 0.32 0.064 0.528 0.016 0.656-0.144 0.256-0.304 0.096-0.576-0.32-0.576-0.16 0-0.304-0.112-0.304-0.24 0-0.144 0.144-0.24 0.336-0.24 0.224 0 0.304-0.080 0.272-0.288-0.048-0.192-0.192-0.256-0.576-0.224-0.56 0.032-0.672-0.176-0.224-0.432 0.416-0.24 0.752-0.208 1.168 0.128zM13.344 20.816c0.352 0.272 0.416 0.448 0.416 1.104s-0.064 0.832-0.416 1.104c-0.56 0.432-0.944 0.416-1.424-0.064-0.304-0.288-0.4-0.56-0.4-1.040s0.096-0.752 0.4-1.040c0.48-0.48 0.864-0.496 1.424-0.064zM17.040 21.472c0.096 0.064 0.272 0.048 0.4-0.048 0.624-0.384 1.28 0.192 1.28 1.136 0 0.528-0.048 0.64-0.304 0.64s-0.32-0.128-0.368-0.688c-0.032-0.464-0.128-0.672-0.288-0.672s-0.256 0.208-0.288 0.672c-0.048 0.544-0.112 0.688-0.352 0.688s-0.304-0.144-0.352-0.688c-0.032-0.464-0.128-0.672-0.288-0.672s-0.256 0.208-0.288 0.672c-0.048 0.56-0.112 0.688-0.368 0.688s-0.304-0.112-0.304-0.848c0-0.48 0.032-0.896 0.080-0.928 0.112-0.128 1.248-0.080 1.44 0.048zM19.808 22.288c0.048 0.832 0.016 0.912-0.288 0.912-0.288 0-0.32-0.096-0.32-0.848 0-0.48 0.048-0.912 0.112-0.976 0.272-0.256 0.448 0.080 0.496 0.912zM20.96 21.44c0 0.112 0.096 0.112 0.304 0 0.432-0.224 0.592-0.208 0.88 0.096 0.16 0.144 0.256 0.528 0.256 0.96 0 0.592-0.048 0.704-0.32 0.704s-0.32-0.112-0.32-0.656c0-0.576-0.032-0.64-0.352-0.592-0.304 0.032-0.384 0.16-0.416 0.64-0.032 0.4-0.128 0.608-0.288 0.608-0.176 0-0.224-0.224-0.224-0.96 0-0.752 0.048-0.96 0.24-0.96 0.128 0 0.24 0.080 0.24 0.16z" fill="#000000"></path>
<path d="M21.536 12.72l-0.432 0.56h0.48c0.464 0 0.496-0.048 0.496-0.56 0-0.304-0.032-0.56-0.064-0.56s-0.256 0.256-0.48 0.56z" fill="#000000"></path>
<path d="M15.28 12.96c-0.064 0.096 0.112 0.16 0.4 0.16s0.464-0.064 0.4-0.16c-0.048-0.096-0.24-0.16-0.4-0.16s-0.352 0.064-0.4 0.16z" fill="#000000"></path>
<path d="M14.64 17.44c-0.064 0.096 0.080 0.16 0.304 0.16s0.416-0.080 0.416-0.16c0-0.096-0.144-0.16-0.304-0.16-0.176 0-0.368 0.064-0.416 0.16z" fill="#000000"></path>
<path d="M12.128 21.52c-0.24 0.528 0.048 1.2 0.512 1.2s0.752-0.672 0.512-1.2c-0.112-0.24-0.32-0.4-0.512-0.4s-0.4 0.16-0.512 0.4z" fill="#000000"></path>
</svg>
