<?xml version="1.0" encoding="utf-8"?>
<!DOCTYPE svg PUBLIC "-//W3C//DTD SVG 1.1//EN" "http://www.w3.org/Graphics/SVG/1.1/DTD/svg11.dtd">
<svg version="1.1" xmlns="http://www.w3.org/2000/svg" xmlns:xlink="http://www.w3.org/1999/xlink" width="32" height="32" viewBox="0 0 32 32">
<path d="M8.992 1.216c-0.72 0.368-1.424 1.216-1.632 1.968-0.112 0.432-0.16 4.72-0.128 13.36l0.048 12.704 0.48 0.688c0.272 0.368 0.768 0.832 1.12 1.008 0.624 0.32 0.864 0.336 7.040 0.336s6.416-0.016 7.040-0.336c0.352-0.176 0.864-0.64 1.12-1.008l0.48-0.688v-13.056c0-12.784 0-13.088-0.32-13.616-0.176-0.304-0.592-0.768-0.928-1.040l-0.624-0.496-6.576-0.032c-5.808-0.048-6.656-0.016-7.12 0.208zM23.008 3.456c0.192 0.128 0.352 0.304 0.352 0.4 0 0.080-2.768 0.144-7.12 0.144s-7.12-0.064-7.12-0.144c0-0.096 0.16-0.272 0.352-0.4 0.304-0.224 1.232-0.256 6.768-0.256s6.464 0.032 6.768 0.256zM13.568 9.952l0.048 1.568h-3.216v-3.216l3.12 0.096 0.048 1.552zM21.44 9.92v1.6h-3.2v-1.488c0-0.832 0.048-1.552 0.112-1.6 0.048-0.064 0.768-0.112 1.6-0.112h1.488v1.6zM16.16 8.8c0 0.208 0.112 0.32 0.32 0.32s0.32-0.112 0.32-0.32c0-0.256 0.112-0.32 0.48-0.32 0.4 0 0.48 0.064 0.48 0.4 0 0.32-0.080 0.4-0.4 0.4-0.544 0-0.592 0.752-0.032 0.832 0.304 0.048 0.352 0.16 0.4 0.8 0.048 0.736 0.032 0.768-0.352 0.768-0.544 0-0.592 0.592-0.048 0.672 0.224 0.032 0.368 0.176 0.4 0.4 0.080 0.544 0.672 0.496 0.672-0.048 0-0.368 0.048-0.4 0.688-0.352 0.56 0.032 0.688 0.112 0.72 0.4 0.032 0.24 0.16 0.368 0.368 0.368 0.464 0 0.416 0.768-0.048 0.832-0.24 0.032-0.368 0.16-0.368 0.368s0.128 0.336 0.368 0.368c0.288 0.048 0.352 0.16 0.352 0.688 0 0.56-0.048 0.624-0.4 0.624s-0.4-0.064-0.4-0.64c0-0.576-0.032-0.64-0.4-0.64-0.32 0-0.4-0.080-0.4-0.4s0.080-0.4 0.4-0.4c0.288 0 0.4-0.080 0.4-0.32 0-0.256-0.112-0.32-0.56-0.32-0.56 0-0.56 0-0.56 0.72 0 0.656-0.032 0.72-0.4 0.72-0.528 0-0.56 0.592-0.032 0.672 0.224 0.032 0.368 0.176 0.4 0.4 0.048 0.304-0.016 0.368-0.352 0.368-0.288 0-0.4 0.096-0.448 0.352-0.048 0.32-0.16 0.368-0.8 0.416-0.72 0.048-0.768 0.032-0.768-0.352 0-0.288 0.096-0.4 0.352-0.448 0.544-0.080 0.592-0.608 0.064-0.608-0.352 0-0.416-0.064-0.416-0.48s0.064-0.48 0.416-0.48c0.304 0 0.4-0.064 0.352-0.288-0.048-0.208-0.208-0.272-0.768-0.272h-0.72l-0.048 1.472-0.048 1.488h-1.424v-1.424l-1.152-0.048c-1.072-0.048-1.168-0.080-1.216-0.416-0.048-0.288 0.016-0.352 0.352-0.352s0.416-0.080 0.416-0.4c0-0.32 0.080-0.4 0.4-0.4 0.288 0 0.4-0.080 0.4-0.32 0-0.288-0.112-0.32-0.88-0.32h-0.88v0.56c0 0.512-0.032 0.56-0.48 0.56h-0.496l0.048-1.008 0.048-0.992 1.328-0.048c1.312-0.048 1.312-0.048 1.312 0.368 0 0.288 0.080 0.4 0.32 0.4 0.288 0 0.32-0.112 0.32-1.12 0-1.088 0.016-1.12 0.4-1.12s0.4-0.032 0.4-1.2v-1.2h0.8c0.688 0 0.8 0.048 0.8 0.32zM13.52 17.92v1.52l-3.12 0.096v-3.232l3.12 0.096v1.52zM21.44 17.92v1.616l-3.12-0.096-0.048-1.344c-0.032-0.736-0.016-1.44 0.032-1.568 0.064-0.144 0.48-0.208 1.616-0.208h1.52v1.6zM15.52 17.6c0 0.208 0.112 0.32 0.32 0.32s0.32-0.112 0.32-0.32c0-0.24 0.112-0.32 0.4-0.32 0.32 0 0.4 0.080 0.4 0.4s-0.080 0.4-0.4 0.4c-0.288 0-0.4 0.080-0.4 0.32 0 0.288 0.112 0.32 0.896 0.32 0.864 0 0.88 0 0.832 0.432l-0.048 0.448-3.92 0.096v-0.496c0-0.464 0.032-0.48 0.72-0.48 0.608 0 0.72-0.048 0.72-0.32 0-0.24-0.112-0.32-0.4-0.32-0.32 0-0.4-0.080-0.4-0.4 0-0.336 0.080-0.4 0.48-0.4 0.368 0 0.48 0.064 0.48 0.32zM23.040 24.16c0 0.416-0.848 0.48-7.12 0.48s-7.12-0.064-7.12-0.48c0-0.096 2.656-0.16 7.12-0.16s7.12 0.064 7.12 0.16zM16.8 26c0.544 0.272 0.96 0.992 0.96 1.6 0 1.792-2.432 2.528-3.36 1.008-1.008-1.648 0.688-3.488 2.4-2.608z" fill="#000000"></path>
<path d="M10.88 9.92v1.12h2.256l-0.048-1.088-0.048-1.072-2.16-0.096v1.136zM12.608 9.952l0.048 0.608h-1.296v-1.296l0.608 0.048c0.56 0.048 0.592 0.080 0.64 0.64z" fill="#000000"></path>
<path d="M18.832 8.912c-0.064 0.048-0.112 0.56-0.112 1.12v1.008h2.24v-2.24h-1.008c-0.56 0-1.072 0.048-1.12 0.112zM20.48 9.92v0.64h-0.64c-0.624 0-0.64-0.016-0.64-0.528 0-0.672 0.080-0.752 0.752-0.752 0.512 0 0.528 0.016 0.528 0.64z" fill="#000000"></path>
<path d="M15.36 10.080c0 0.752 0.032 0.8 0.4 0.8 0.32 0 0.4 0.080 0.4 0.4 0 0.336-0.080 0.4-0.48 0.4s-0.48-0.064-0.48-0.4c0-0.256-0.096-0.4-0.24-0.4-0.192 0-0.24 0.224-0.24 1.12v1.12h1.44v-0.72c0-0.656 0.032-0.72 0.4-0.72 0.32 0 0.4-0.080 0.4-0.4s-0.080-0.4-0.4-0.4c-0.368 0-0.4-0.048-0.4-0.8s-0.032-0.8-0.4-0.8c-0.368 0-0.4 0.048-0.4 0.8z" fill="#000000"></path>
<path d="M13.92 13.6c0 0.208 0.112 0.32 0.32 0.32s0.32-0.112 0.32-0.32c0-0.208-0.112-0.32-0.32-0.32s-0.32 0.112-0.32 0.32z" fill="#000000"></path>
<path d="M16.96 13.6c0 0.208 0.112 0.32 0.32 0.32s0.32-0.112 0.32-0.32c0-0.208-0.112-0.32-0.32-0.32s-0.32 0.112-0.32 0.32z" fill="#000000"></path>
<path d="M13.184 14.16c-0.064 0.144-0.032 0.336 0.064 0.432 0.24 0.24 0.704 0.016 0.64-0.304-0.064-0.368-0.576-0.464-0.704-0.128z" fill="#000000"></path>
<path d="M10.88 17.92v1.12h2.24v-2.24h-2.24v1.12zM12.64 17.92v0.64h-1.28v-1.28h1.28v0.64z" fill="#000000"></path>
<path d="M18.72 17.92v1.12h2.24v-2.24h-2.24v1.12zM20.48 17.92v0.64h-1.28v-1.28h1.28v0.64z" fill="#000000"></path>
<path d="M15.44 26.384c-0.464 0.192-0.704 0.528-0.816 1.104-0.080 0.416-0.016 0.576 0.384 0.992 0.304 0.288 0.656 0.48 0.912 0.48s0.608-0.192 0.912-0.48c0.4-0.416 0.464-0.576 0.384-1.008-0.176-0.88-1.024-1.392-1.776-1.088z" fill="#000000"></path>
</svg>
