<?xml version="1.0" encoding="utf-8"?>
<!DOCTYPE svg PUBLIC "-//W3C//DTD SVG 1.1//EN" "http://www.w3.org/Graphics/SVG/1.1/DTD/svg11.dtd">
<svg version="1.1" xmlns="http://www.w3.org/2000/svg" xmlns:xlink="http://www.w3.org/1999/xlink" width="39" height="32" viewBox="0 0 39 32">
<path d="M5.928 0.808c-1.92 0.707-3.537 2.189-4.682 4.211-0.842 1.482-1.011 2.156-1.011 4.008-0.034 1.314 0.236 2.998 0.573 4.076 0.977 2.897 4.177 7.276 8.017 11.015 3.065 2.998 8.724 7.545 9.297 7.545 0.269 0 4.446-3.065 6.299-4.615l1.314-1.078-1.617-1.718c-0.876-0.943-1.819-2.257-2.122-2.964-0.64-1.482-0.741-5.053-0.168-7.040 0.606-2.088 2.459-4.514 4.278-5.659 1.448-0.909 1.92-1.011 4.177-1.011 1.92 0 2.964 0.202 4.211 0.775l1.651 0.741-0.202-1.314c-0.371-2.762-2.223-5.356-4.817-6.636-1.819-0.876-5.861-0.876-7.68 0-1.785 0.909-3.402 2.56-4.446 4.648l-0.876 1.752-0.842-1.651c-1.044-2.122-2.56-3.739-4.312-4.615-1.718-0.909-5.255-1.145-7.040-0.472z" fill="#000000"></path>
<path d="M28.16 9.566c-1.617 0.606-3.065 1.987-3.975 3.739-0.943 1.785-1.213 5.625-0.539 7.242 2.055 4.851 7.747 6.467 11.992 3.368 2.695-1.954 3.907-4.952 3.301-8.219-0.741-4.008-6.939-7.512-10.779-6.131zM32.337 14.451v1.684l1.617 0.101c1.448 0.101 1.583 0.168 1.583 0.943 0 0.741-0.168 0.842-1.246 0.943l-1.28 0.101v1.617c0 1.549-0.034 1.651-1.044 1.853-1.92 0.371-1.987 0.337-1.987-1.516v-1.684l-1.482 0.202-1.482 0.236-0.135-1.213c-0.067-0.674-0.067-1.314 0.034-1.381 0.067-0.101 0.775-0.168 1.549-0.168h1.448l-0.168-1.482c-0.202-1.583-0.034-1.752 1.853-1.853 0.674-0.034 0.741 0.101 0.741 1.617z" fill="#000000"></path>
</svg>
