<?xml version="1.0" encoding="utf-8"?>
<!DOCTYPE svg PUBLIC "-//W3C//DTD SVG 1.1//EN" "http://www.w3.org/Graphics/SVG/1.1/DTD/svg11.dtd">
<svg version="1.1" xmlns="http://www.w3.org/2000/svg" xmlns:xlink="http://www.w3.org/1999/xlink" width="32" height="32" viewBox="0 0 32 32">
<path d="M3.296 1.616c-0.224 0.176-0.416 0.416-0.416 0.528s-0.272 0.32-0.608 0.464c-1.104 0.496-1.152 0.688-1.152 5.28 0 3.936 0.016 4.080 0.352 4.512 0.192 0.24 0.576 0.544 0.88 0.656 0.288 0.128 0.528 0.336 0.528 0.448 0 0.128 0.192 0.384 0.416 0.56 0.4 0.32 0.64 0.336 3.344 0.336 2.64 0 2.96-0.032 3.296-0.304 0.352-0.272 0.416-0.288 0.848-0.064 0.336 0.176 0.848 0.224 1.968 0.176 2.288-0.080 2.128 0.4 2.128-6.448v-5.664l-0.416-0.32c-0.368-0.288-0.64-0.336-1.888-0.336-0.928 0.016-1.6 0.096-1.856 0.224-0.336 0.192-0.432 0.192-0.784-0.080-0.336-0.272-0.672-0.304-3.296-0.304-2.704 0-2.944 0.016-3.344 0.336zM9.12 3.040v0.48h-5.12v-0.96h5.12v0.48zM13.76 3.68v0.96h-2.4v-1.92h2.4v0.96zM13.76 7.84v1.92h-2.4v-3.84h2.4v1.92zM13.76 12v0.96h-2.4v-1.92h2.4v0.96zM9.12 12.64v0.48h-5.12v-0.96h5.12v0.48z" fill="#000000"></path>
<path d="M19.12 1.68c-0.224 0.208-0.4 0.448-0.4 0.528 0 0.064-0.256 0.256-0.56 0.4s-0.704 0.496-0.88 0.784c-0.288 0.496-0.32 0.816-0.32 4.448 0 3.648 0.016 3.952 0.32 4.448 0.176 0.288 0.576 0.64 0.88 0.768s0.56 0.304 0.56 0.4c0 0.080 0.176 0.336 0.4 0.544 0.384 0.4 0.416 0.4 3.328 0.4 2.704 0 2.976-0.032 3.344-0.32 0.384-0.288 0.448-0.304 0.912-0.064 0.384 0.192 0.88 0.24 1.952 0.192 1.36-0.048 1.472-0.080 1.84-0.496l0.384-0.448v-5.344c0-5.648-0.032-5.984-0.752-6.304-0.608-0.272-3.104-0.224-3.536 0.080-0.336 0.224-0.384 0.224-0.768-0.080-0.4-0.32-0.64-0.336-3.376-0.336-2.912 0-2.944 0-3.328 0.4zM25.12 3.040v0.48h-5.12v-0.96h5.12v0.48zM29.6 3.68v0.96h-2.4v-1.92h2.4v0.96zM29.6 7.84v1.92h-2.4v-3.84h2.4v1.92zM29.6 12v0.96h-2.4v-1.92h2.4v0.96zM25.12 12.64v0.48h-5.12v-0.96h5.12v0.48z" fill="#000000"></path>
<path d="M3.568 17.92c-0.192 0.080-0.464 0.368-0.608 0.624-0.128 0.272-0.368 0.496-0.496 0.496-0.144 0-0.496 0.24-0.8 0.544l-0.544 0.544v4.096c0 4.64 0.032 4.832 1.12 5.328 0.336 0.16 0.64 0.368 0.64 0.48s0.16 0.336 0.352 0.528c0.32 0.304 0.544 0.32 3.408 0.32 2.848 0 3.088-0.016 3.36-0.32 0.256-0.272 0.32-0.288 0.608-0.080 0.24 0.176 0.784 0.24 1.888 0.24 1.312 0 1.6-0.048 1.968-0.336l0.416-0.32v-5.68c0-6.864 0.208-6.304-2.384-6.304-1.392 0-1.776 0.048-1.952 0.256-0.192 0.224-0.224 0.224-0.384 0-0.112-0.128-0.384-0.32-0.624-0.416-0.528-0.192-5.472-0.192-5.968 0zM9.12 19.6v0.576l-5.040-0.096-0.048-0.528-0.048-0.512h5.136v0.56zM13.68 20.24v0.96l-2.32 0.096v-2.112l2.32 0.096v0.96zM13.728 24.352l0.048 1.888h-2.416v-3.856l2.32 0.096 0.048 1.872zM13.76 28.48v0.96h-2.4v-1.92h2.4v0.96zM9.12 29.2v0.576l-5.040-0.096-0.048-0.528-0.048-0.512h5.136v0.56z" fill="#000000"></path>
<path d="M19.488 17.936c-0.24 0.096-0.512 0.368-0.624 0.608-0.128 0.272-0.416 0.528-0.752 0.656-0.288 0.096-0.672 0.416-0.848 0.688-0.288 0.48-0.304 0.784-0.272 4.624l0.048 4.112 0.464 0.48c0.24 0.256 0.608 0.512 0.8 0.56 0.176 0.048 0.48 0.336 0.656 0.624l0.32 0.512 3.152 0.048c2.944 0.032 3.184 0.016 3.472-0.272 0.272-0.272 0.352-0.288 0.608-0.096 0.384 0.304 3.376 0.32 3.744 0.032 0.592-0.448 0.624-0.784 0.624-6.24 0-6.656 0.192-6.192-2.464-6.192-1.152 0-1.856 0.064-1.984 0.192-0.144 0.144-0.256 0.112-0.528-0.128-0.304-0.272-0.624-0.304-3.168-0.336-1.6-0.016-3.008 0.032-3.248 0.128zM25.088 19.552l-0.048 0.528-5.040 0.096v-1.136h5.136l-0.048 0.512zM29.6 20.24v1.040h-2.4v-2.080h2.4v1.040zM29.6 24.32v1.92h-2.4v-3.84h2.4v1.92zM29.6 28.48v0.96h-2.4v-1.92h2.4v0.96zM25.088 29.152l-0.048 0.528-5.040 0.096v-1.136h5.136l-0.048 0.512z" fill="#000000"></path>
</svg>
