<?xml version="1.0" encoding="utf-8"?>
<!DOCTYPE svg PUBLIC "-//W3C//DTD SVG 1.1//EN" "http://www.w3.org/Graphics/SVG/1.1/DTD/svg11.dtd">
<svg version="1.1" xmlns="http://www.w3.org/2000/svg" xmlns:xlink="http://www.w3.org/1999/xlink" width="32" height="32" viewBox="0 0 32 32">
<path d="M14.987 1.253c-0.227 0.107-0.573 0.36-0.773 0.56-0.64 0.68-0.773 1.080-0.72 2.053 0.067 1.133 0.48 1.747 1.533 2.227 2.453 1.12 4.707-1.733 3.16-3.987-0.64-0.92-2.133-1.307-3.2-0.853z" fill="#000000"></path>
<path d="M14.307 7c-0.427 0.187-1.293 0.92-3.2 2.76-1 0.947-1.107 1.107-1.107 1.547 0 0.267 0.053 0.56 0.107 0.627 0.107 0.16 2.227 1.747 3.36 2.52 0.587 0.413 0.813 0.493 1.16 0.44 0.24-0.040 0.44-0.027 0.44 0.027s-0.213 1.56-0.467 3.333c-0.253 1.76-0.467 3.333-0.467 3.493 0 0.253 0.067 0.267 0.84 0.24l0.827-0.027-0.027 0.587c-0.027 0.587-0.28 3.24-0.627 6.587-0.093 0.947-0.147 1.773-0.12 1.827 0.027 0.067 0.547 0.107 1.16 0.107h1.093l0.24-2.373c0.133-1.293 0.333-3.347 0.467-4.547l0.213-2.187 2.733 0.053v-1.92c0-1.787 0.027-1.933 0.28-2.173 0.827-0.747 1.053-2.427 0.493-3.493-0.507-0.933-4-6.333-4.36-6.747-0.707-0.787-2.080-1.107-3.040-0.68zM14.747 11.28c0.147 0.8 0.227 1.467 0.173 1.493s-0.573-0.307-1.16-0.747l-1.080-0.773 0.76-0.76c0.413-0.427 0.813-0.747 0.893-0.72 0.067 0.027 0.253 0.707 0.413 1.507z" fill="#000000"></path>
</svg>
