<?xml version="1.0" encoding="utf-8"?>
<!DOCTYPE svg PUBLIC "-//W3C//DTD SVG 1.1//EN" "http://www.w3.org/Graphics/SVG/1.1/DTD/svg11.dtd">
<svg version="1.1" xmlns="http://www.w3.org/2000/svg" xmlns:xlink="http://www.w3.org/1999/xlink" width="18" height="32" viewBox="0 0 18 32">
<path d="M15.481 0.894c-1.009 0.75-2.364 3.69-2.796 5.939-0.231 1.095-0.317 3.142-0.231 5.189 0.173 3.892 0.778 5.91 2.277 7.467l0.923 0.951-0.173 5.795-0.173 5.766h1.413c0.778 0 1.47-0.087 1.528-0.202 0.058-0.144-0.058-3.027-0.259-6.429s-0.375-10.436-0.375-15.654l-0.029-9.427h-0.692c-0.375 0-1.009 0.259-1.413 0.605z" fill="#000000"></path>
<path d="M7.323 6.458l0.202 4.728-0.807 0.144c-0.432 0.086-0.865 0.086-0.923 0.029s-0.259-2.162-0.432-4.641c-0.288-4.267-0.346-4.555-0.894-4.555-0.778 0-0.836 0.836-0.346 5.42 0.202 2.018 0.317 3.748 0.231 3.805-0.058 0.086-0.49 0.144-0.923 0.144-0.894 0-0.98-0.346-1.268-5.189-0.231-3.805-0.317-4.036-1.153-4.036-0.894 0-0.894-0.231 0 6.054 0.75 5.362 1.067 6.141 2.595 6.89l0.778 0.375-0.087 8.13-0.115 8.101 1.672 0.087c1.989 0.115 1.874 1.067 1.038-8.85l-0.634-7.323 0.778-0.577c1.47-1.067 1.614-1.701 1.614-7.841v-5.622h-1.528l0.202 4.728z" fill="#000000"></path>
</svg>
