<?xml version="1.0" encoding="utf-8"?>
<!DOCTYPE svg PUBLIC "-//W3C//DTD SVG 1.1//EN" "http://www.w3.org/Graphics/SVG/1.1/DTD/svg11.dtd">
<svg version="1.1" xmlns="http://www.w3.org/2000/svg" xmlns:xlink="http://www.w3.org/1999/xlink" width="32" height="32" viewBox="0 0 32 32">
<path d="M21.008 5.824c-0.928 0.304-1.68 0.8-2.368 1.552-0.912 1.024-1.248 1.936-1.264 3.424-0.016 1.456 0.4 2.592 1.328 3.632 0.592 0.688 2.256 1.568 2.928 1.568h0.448v12.16h-20.8v0.96h29.456l-0.048-0.432-0.048-0.448-3.792-0.048-3.808-0.032v-12.16h0.448c0.688 0 2.336-0.896 2.992-1.632 0.96-1.056 1.28-1.92 1.28-3.488 0-1.136-0.064-1.504-0.416-2.24-0.864-1.808-2.528-2.912-4.544-2.992-0.624-0.032-1.408 0.048-1.792 0.176zM20.64 9.584l0.080 1.008 0.464-0.496c0.272-0.272 0.624-0.496 0.784-0.496 0.272 0 0.256 0.048-0.112 0.336-0.528 0.416-0.528 0.56 0.064 1.472 0.432 0.688 0.448 0.752 0.16 0.752-0.192 0-0.48-0.256-0.736-0.64-0.48-0.72-0.704-0.704-0.704 0.096 0 0.432-0.064 0.544-0.32 0.544-0.304 0-0.32-0.112-0.32-1.728 0-0.96 0.048-1.792 0.112-1.856 0.272-0.272 0.448 0.080 0.528 1.008zM24.288 9.696c0.192 0.128 0.352 0.16 0.352 0.080 0-0.096 0.112-0.176 0.24-0.176 0.384 0 0.336 2.72-0.048 3.2-0.464 0.576-2.112 0.384-2.112-0.24 0-0.304 0.384-0.304 0.64 0 0.32 0.4 0.944 0.304 1.12-0.176 0.24-0.608 0.192-0.784-0.128-0.496-0.656 0.592-1.584 0.112-1.744-0.88-0.080-0.512-0.016-0.656 0.4-1.088 0.56-0.544 0.768-0.592 1.28-0.224z" fill="#000000"></path>
<path d="M23.392 10.112c-0.24 0.24-0.256 1.12 0 1.376 0.352 0.352 0.88 0.224 1.056-0.272 0.288-0.832-0.496-1.664-1.056-1.104z" fill="#000000"></path>
<path d="M8.4 13.648c-0.32 0.272-0.448 0.56-0.512 1.12l-0.096 0.752h-1.728c-1.6 0-1.76 0.032-2.176 0.384l-0.448 0.384-0.096 10.080 0.416 0.496 0.432 0.496h13.264l0.384-0.416 0.4-0.432v-4.928c0-3.264-0.064-5.056-0.176-5.312-0.272-0.608-0.8-0.752-2.624-0.752h-1.68v-0.576c0-0.624-0.224-1.152-0.624-1.456-0.176-0.128-0.944-0.192-2.288-0.208-1.888 0-2.064 0.032-2.448 0.368zM12.768 14.912l0.048 0.608h-4.016v-0.528c0-0.304 0.048-0.592 0.112-0.656 0.064-0.048 0.944-0.080 1.952-0.064l1.856 0.048 0.048 0.592z" fill="#000000"></path>
</svg>
