<?xml version="1.0" encoding="utf-8"?>
<!-- Generated by IcoMoon.io -->
<!DOCTYPE svg PUBLIC "-//W3C//DTD SVG 1.1//EN" "http://www.w3.org/Graphics/SVG/1.1/DTD/svg11.dtd">
<svg version="1.1" xmlns="http://www.w3.org/2000/svg" xmlns:xlink="http://www.w3.org/1999/xlink" width="37" height="32" viewBox="0 0 37 32">
<path fill="#444444" d="M10.466 31.038c3.305-5.325 9.469-15.309 9.518-15.415 0.056-0.12-0.614-1.25-4.531-7.641-2.528-4.125-4.597-7.518-4.597-7.539s0.717-0.031 1.594-0.021l1.594 0.018 3.808 6.211c2.095 3.416 3.831 6.202 3.858 6.192s1.777-2.813 3.889-6.228l3.839-6.209h1.582c0.87 0 1.569 0.023 1.552 0.051s-2.067 3.369-4.558 7.425c-2.49 4.056-4.562 7.437-4.603 7.514-0.065 0.122 0.529 1.119 4.841 8.115 2.703 4.386 4.926 8.001 4.938 8.032s-0.701 0.048-1.586 0.038l-1.608-0.018-4.126-6.668c-2.269-3.667-4.138-6.68-4.154-6.696s-1.908 2.993-4.206 6.685l-4.178 6.713h-3.214l0.346-0.557zM4.95 29.86c-0.074-0.019-0.173-0.065-0.219-0.103-0.185-0.15-0.052-2.364 0.195-3.255 0.213-0.767 0.214-0.808 0.059-1.571-0.187-0.918-1.133-4.727-1.493-6.010-0.634-2.264-1.284-3.845-1.875-4.557-0.399-0.481-0.573-0.817-0.887-1.706-0.157-0.446-0.343-0.956-0.413-1.133-0.161-0.41-0.159-0.681 0.010-1.052 0.13-0.287 0.141-0.294 0.387-0.257 1.085 0.167 4.668 0.094 6.121-0.124 0.811-0.122 4.372-1.115 7.599-2.12 0.241-0.075 0.456-0.114 0.478-0.088s0.643 1.036 1.379 2.243c0.736 1.207 1.379 2.256 1.428 2.333 0.086 0.134 0.036 0.16-1.378 0.719-1.767 0.699-3.562 1.496-4.258 1.891-0.61 0.346-1.121 0.836-1.39 1.336-0.156 0.289-0.204 0.476-0.228 0.893-0.028 0.486-0.014 0.56 0.18 0.955 0.268 0.544 0.739 0.99 1.245 1.18 0.455 0.17 1.79 0.508 3.388 0.858 0.631 0.138 1.156 0.258 1.165 0.265 0.018 0.014-4.147 6.776-4.232 6.871-0.025 0.028-0.307 0.127-0.627 0.219-0.59 0.171-0.769 0.242-3.226 1.27-1.826 0.764-2.924 1.068-3.409 0.944zM17.205 26.156c0.090-0.146 0.487-0.782 0.882-1.413l0.72-1.148 0.666 0.017c0.843 0.022 1.672 0.174 2.32 0.426 0.558 0.217 0.678 0.235 0.793 0.12 0.104-0.104 0.015-0.266-0.388-0.709-0.267-0.294-1.131-1.819-1.066-1.883 0.052-0.052 2.18 0.443 2.203 0.513 0.077 0.232 0.881 1.311 1.442 1.936 0.295 0.328 0.31 0.444 0.114 0.848l-0.142 0.293-1.765 0.284c-2.101 0.338-2.772 0.416-3.606 0.416-0.534 0-0.737 0.036-1.384 0.246-0.417 0.135-0.802 0.262-0.856 0.282-0.065 0.025-0.043-0.051 0.065-0.228zM33.473 23.418c-1.373-0.25-5.234-1.022-5.367-1.072-0.139-0.052-0.494-0.607-0.389-0.607 0.032 0 0.88 0.165 1.884 0.366 2.077 0.417 2.041 0.417 2.969-0.030 0.653-0.315 1.207-0.861 1.282-1.265 0.192-1.025-1.163-2.577-5.172-5.924-1.428-1.192-2.195-1.72-2.753-1.894-0.23-0.072-0.419-0.158-0.419-0.191s0.080-0.189 0.18-0.345l0.18-0.285 0.373 0.097c0.205 0.054 0.514 0.169 0.687 0.256 1.11 0.562 7.16 5.9 8.759 7.728 1.034 1.182 1.084 1.74 0.216 2.426-0.33 0.261-1.298 0.773-1.585 0.838-0.074 0.017-0.454-0.027-0.844-0.099zM20.929 23.378c-0.086-0.016-0.544-0.065-1.019-0.109l-0.864-0.079 0.532-0.844c0.292-0.464 0.553-0.88 0.58-0.923 0.032-0.052 0.129-0.063 0.28-0.032 0.221 0.045 0.249 0.086 0.623 0.923 0.215 0.482 0.392 0.929 0.393 0.994 0.002 0.12-0.155 0.141-0.525 0.070zM21.807 21.063c-0.642-0.14-1.183-0.269-1.2-0.287-0.049-0.049 0.198-0.455 0.276-0.452 0.037 0.002 0.477 0.086 0.977 0.188l0.91 0.185 0.185 0.267c0.207 0.299 0.228 0.372 0.105 0.361-0.046-0.004-0.61-0.122-1.252-0.262zM14.874 19.575c-2.619-0.594-3.007-0.73-3.408-1.186-0.552-0.629-0.551-1.358 0.004-2.058 0.277-0.35 0.645-0.596 1.6-1.071 1.398-0.694 4.949-2.141 5.070-2.065 0.031 0.019 0.167 0.219 0.3 0.444l0.243 0.409-0.165 0.063c-2.227 0.847-3.904 1.806-4.36 2.493-0.297 0.448-0.269 0.653 0.224 1.629l0.422 0.835 1.112 0.226c0.612 0.124 1.123 0.237 1.137 0.251 0.057 0.057-0.227 0.439-0.323 0.435-0.057-0.003-0.893-0.184-1.858-0.403zM21.678 19.858l-0.487-0.112 0.207-0.338c0.329-0.536 0.255-0.565 0.792 0.321 0.176 0.29 0.183 0.288-0.513 0.128zM16.426 18.774c-0.483-0.101-0.958-0.204-1.057-0.229-0.143-0.037-0.241-0.171-0.489-0.671-0.171-0.344-0.31-0.668-0.31-0.72 0-0.448 1.476-1.367 3.591-2.236 0.448-0.184 0.823-0.335 0.832-0.335 0.027 0 0.573 0.881 0.573 0.925 0 0.107-2.124 3.462-2.188 3.456-0.041-0.004-0.469-0.089-0.951-0.19zM21.631 12.027c-0.022-0.035 0.010-0.083 0.071-0.106 0.149-0.057 0.184-0.009 0.065 0.089-0.058 0.048-0.113 0.055-0.136 0.017zM19.137 7.964c-0.477-0.779-0.88-1.47-0.895-1.534-0.042-0.18 0.731-0.759 1.012-0.759 0.441 0 0.45 0.027 0.626 1.762 0.088 0.869 0.152 1.663 0.142 1.764-0.015 0.151-0.175-0.073-0.885-1.233zM23.182 6.78c-0.138-0.138-0.135-0.169 0.047-0.439 0.42-0.623 1.849-1.46 2.61-1.529l0.426-0.039-0.27 0.425c-0.264 0.415-0.283 0.429-0.801 0.605-0.571 0.193-0.956 0.411-1.452 0.823-0.35 0.29-0.407 0.306-0.56 0.154z"></path>
</svg>
