<?xml version="1.0" encoding="utf-8"?>
<!DOCTYPE svg PUBLIC "-//W3C//DTD SVG 1.1//EN" "http://www.w3.org/Graphics/SVG/1.1/DTD/svg11.dtd">
<svg version="1.1" xmlns="http://www.w3.org/2000/svg" xmlns:xlink="http://www.w3.org/1999/xlink" width="32" height="32" viewBox="0 0 32 32">
<path d="M13.872 2.24c-5.888 1.072-10.4 5.44-11.568 11.184-0.192 1.024-0.24 1.824-0.176 3.28 0.096 2.304 0.4 3.52 1.312 5.456 3.648 7.744 13.328 10.4 20.528 5.616 1.040-0.688 2.832-2.416 3.504-3.376 0.32-0.464 0.32-0.496 0.048-0.848-0.16-0.192-0.352-0.352-0.432-0.352-0.224 0-0.592-0.688-0.768-1.424-0.128-0.592-0.272-0.752-0.768-1.024-0.608-0.304-0.608-0.304-0.96 0.016-0.192 0.176-0.608 0.432-0.912 0.576s-0.688 0.336-0.832 0.448c-0.208 0.16-0.432 0.112-1.152-0.24-0.768-0.384-0.928-0.416-1.328-0.24-0.608 0.256-0.608 0.256-0.624 0.784-0.016 0.256-0.032 0.56-0.048 0.688-0.016 0.24-1.072 0.8-1.856 0.976-0.288 0.064-0.736 0.416-1.152 0.896-0.608 0.704-0.656 0.832-0.512 1.216s0.112 0.464-0.336 0.816c-0.256 0.208-0.48 0.48-0.48 0.624 0 0.176-0.096 0.224-0.384 0.144-0.304-0.080-0.464 0-0.72 0.336-0.336 0.416-0.352 0.416-1.424 0.24-1.328-0.208-1.616-0.208-2.080 0.016-0.448 0.208-0.688 0-0.768-0.624-0.064-0.592-0.368-0.8-1.344-0.928-0.448-0.064-0.8-0.128-0.8-0.144s0.112-0.416 0.224-0.88c0.16-0.576 0.176-0.832 0.048-0.832-0.096 0-0.032-0.112 0.144-0.24 0.288-0.208 0.288-0.224-0.064-0.128-0.288 0.064-0.336 0.032-0.256-0.192 0.064-0.144 0.272-0.448 0.464-0.656s0.432-0.64 0.528-0.976c0.096-0.336 0.272-0.944 0.384-1.344 0.128-0.416 0.176-0.912 0.112-1.168-0.112-0.368-0.064-0.464 0.304-0.608 0.24-0.080 0.544-0.224 0.672-0.288 0.144-0.064 0.48 0 0.8 0.176 0.304 0.176 0.672 0.304 0.832 0.304s0.512 0.096 0.8 0.224c1.072 0.448 2.656 0.896 2.896 0.816 0.224-0.096 0.784-1.2 1.008-1.984 0.080-0.304 0.128-0.336 0.256-0.16 0.112 0.16 0.128 0.144 0.048-0.096-0.064-0.176-0.128-0.432-0.144-0.56s-0.144-0.432-0.304-0.656c-0.16-0.224-0.24-0.528-0.192-0.656 0.064-0.144-0.080-0.32-0.352-0.464-0.24-0.128-0.48-0.272-0.528-0.336s-0.256-0.176-0.48-0.256c-0.224-0.080-0.384-0.288-0.4-0.48-0.016-0.304 0.048-0.352 0.656-0.352 0.384 0 0.72 0.064 0.768 0.144s0.304 0.176 0.576 0.208c0.448 0.064 0.48 0.048 0.48-0.464 0-0.592 0.080-0.64 0.416-0.288 0.256 0.256 1.184 0.336 1.184 0.112 0-0.080 0.272-0.208 0.592-0.288 0.448-0.112 0.624-0.24 0.688-0.544 0.080-0.352 0.208-0.416 1.072-0.528s1.008-0.192 1.168-0.56c0.32-0.752 0.56-1.152 0.688-1.152 0.064 0 0.112 0.096 0.080 0.192-0.032 0.112 0.032 0.24 0.112 0.288 0.096 0.048 0.176-0.112 0.208-0.368 0.032-0.24 0.096-0.432 0.16-0.448 0.064 0 0.272-0.032 0.464-0.080 0.192-0.032 0.4 0.016 0.448 0.096 0.16 0.256 0.4 0.192 0.304-0.080-0.064-0.16 0-0.24 0.224-0.24 0.176 0 0.352 0.096 0.4 0.192 0.048 0.144 0.176 0.080 0.384-0.176 0.24-0.304 0.304-0.576 0.256-1.12-0.032-0.4-0.096-0.848-0.144-0.976-0.144-0.336-0.176-0.944-0.048-1.136 0.048-0.080 0.24-0.176 0.416-0.192 0.528-0.032 0.32-0.576-0.464-1.28-1.68-1.504-4.176-2.864-6.208-3.376-1.2-0.32-4.528-0.464-5.648-0.256zM18.72 3.744c0 0.096-0.224 0.304-0.48 0.448-0.528 0.304-0.64 0.64-0.192 0.592 0.688-0.064 1.152 0.032 1.152 0.24 0 0.368-1.024 1.52-1.344 1.52-0.336 0.016-0.256 0.176 0.112 0.24 0.448 0.064 0.752 0.448 0.752 0.976 0 0.288 0.16 0.704 0.352 0.96 0.24 0.32 0.352 0.672 0.352 1.264 0.016 0.752 0.048 0.816 0.4 0.816 0.56 0 0.8 0.464 0.432 0.864-0.176 0.192-0.4 0.336-0.496 0.336-0.112 0-0.24 0.112-0.304 0.24-0.064 0.176 0.016 0.24 0.272 0.24 0.352 0.016 0.352 0.016 0.032 0.256-0.24 0.176-0.512 0.224-1.040 0.144-1.36-0.192-2.64-0.224-2.736-0.048-0.064 0.112-0.208 0.096-0.448-0.016-0.24-0.144-0.432-0.144-0.656-0.016-0.56 0.304-0.336-0.064 0.32-0.512 0.368-0.256 0.736-0.4 0.928-0.336 0.176 0.048 0.464 0 0.624-0.112 0.272-0.16 0.272-0.176-0.048-0.080-0.192 0.048-0.448-0.032-0.672-0.24-0.176-0.176-0.448-0.272-0.576-0.224-0.176 0.064-0.256 0-0.256-0.16s0.144-0.256 0.368-0.256c0.64 0 1.104-0.8 0.48-0.8-0.224-0.016-0.208-0.064 0.096-0.224 0.192-0.112 0.528-0.176 0.72-0.144 0.256 0.064 0.4-0.032 0.544-0.352 0.176-0.384 0.16-0.464-0.080-0.64-0.272-0.208-0.272-0.224 0.032-0.56l0.304-0.336-0.416 0.096c-0.24 0.064-0.576 0.064-0.768 0-0.304-0.096-0.32-0.144-0.112-0.368 0.304-0.368 0.48-1.104 0.272-1.232-0.080-0.048-0.16-0.016-0.16 0.096s-0.048 0.144-0.096 0.096c-0.064-0.064 0.016-0.288 0.16-0.496 0.24-0.384 0.24-0.4-0.016-0.304-0.288 0.112-0.208-0.112 0.24-0.64 0.208-0.224 0.208-0.272 0.016-0.272-0.176 0-0.176-0.032 0.016-0.16 0.128-0.080 0.176-0.16 0.096-0.16-0.096 0 0-0.144 0.192-0.32 0.192-0.192 0.352-0.4 0.352-0.496 0-0.080 0.288-0.144 0.64-0.112 0.352 0.016 0.64 0.112 0.64 0.192zM14.624 7.056c-0.064 0.112 0.048 0.16 0.272 0.144 0.736-0.064 0.832-0.016 0.752 0.4-0.048 0.224-0.016 0.352 0.080 0.288 0.080-0.048 0.128 0 0.080 0.128-0.032 0.128-0.224 0.288-0.416 0.384-0.24 0.112-0.368 0.352-0.448 0.832-0.128 0.832-0.432 1.12-1.344 1.216-0.4 0.032-0.848 0.128-0.992 0.192-0.176 0.064-0.368 0-0.544-0.224-0.336-0.384-0.416-0.784-0.16-0.768 0.624 0.016 1.056-0.064 1.056-0.208 0-0.080-0.128-0.112-0.272-0.064-0.208 0.064-0.176 0 0.096-0.24 0.256-0.24 0.304-0.336 0.128-0.336-0.128 0-0.32-0.096-0.416-0.224-0.144-0.16-0.128-0.24 0.064-0.32 0.128-0.048 0.24-0.208 0.24-0.336 0-0.208 0.096-0.24 0.48-0.16 0.416 0.096 0.496 0.048 0.624-0.288 0.144-0.368 0.368-0.544 0.704-0.576 0.080-0.016 0.080 0.064 0.016 0.16z" fill="#000000"></path>
<path d="M26.848 8c-0.416 0.464-0.448 1.312-0.080 1.632 0.176 0.16 0.432 0.288 0.576 0.304 0.16 0 0.192 0.032 0.064 0.096-0.112 0.032-0.208 0.144-0.208 0.224 0 0.224 0.528 0.16 0.864-0.096 0.16-0.128 0.368-0.192 0.432-0.144 0.080 0.048 0.144-0.016 0.144-0.128 0-0.272-1.232-2.208-1.392-2.192-0.080 0-0.256 0.144-0.4 0.304z" fill="#000000"></path>
<path d="M28.304 19.312c-0.416 0.112-0.304 1.376 0.176 1.888 0.208 0.224 0.432 0.4 0.496 0.4s0.224-0.336 0.368-0.736c0.24-0.688 0.224-0.768-0.016-0.944-0.144-0.112-0.224-0.304-0.16-0.464 0.096-0.256-0.24-0.32-0.864-0.144z" fill="#000000"></path>
</svg>
