<?xml version="1.0" encoding="utf-8"?>
<!DOCTYPE svg PUBLIC "-//W3C//DTD SVG 1.1//EN" "http://www.w3.org/Graphics/SVG/1.1/DTD/svg11.dtd">
<svg version="1.1" xmlns="http://www.w3.org/2000/svg" xmlns:xlink="http://www.w3.org/1999/xlink" width="32" height="32" viewBox="0 0 32 32">
<path d="M12.544 4.304c-0.816 0.368-1.792 1.504-2.016 2.352l-0.192 0.672-2 0.064c-1.696 0.048-2.144 0.112-2.784 0.432-1.152 0.56-1.392 1.12-2.496 5.808-0.544 2.272-0.976 4.16-0.976 4.208s-0.128 0.080-0.288 0.080c-0.384 0-0.832 0.496-0.832 0.896 0 0.432 0.176 0.656 0.656 0.832 0.368 0.144 0.448 0.368 1.056 3.312 0.752 3.536 1.088 4.336 2.080 4.816 0.576 0.288 1.152 0.304 11.408 0.304h10.8l0.592-0.368c0.976-0.608 1.216-1.2 1.952-4.72 0.592-2.752 0.736-3.248 0.992-3.296 0.48-0.080 0.704-0.336 0.704-0.816 0-0.464-0.432-0.96-0.816-0.96-0.176 0-0.48-1.008-1.184-4.048-1.104-4.656-1.424-5.44-2.48-6.032-0.608-0.336-0.976-0.4-2.592-0.448l-1.888-0.064-0.16-0.624c-0.24-0.88-1.088-1.936-1.92-2.352-0.656-0.336-0.912-0.352-3.84-0.352-2.688 0-3.216 0.048-3.776 0.304zM19.552 6.112c0.288 0.24 0.768 0.944 0.768 1.12 0 0.080-1.792 0.128-4 0.128-4.4 0-4.384 0-3.584-0.944l0.416-0.496h3.072c2.224 0 3.136 0.048 3.328 0.192zM18.592 11.312c0.256 0.224 0.288 0.528 0.288 2.576 0 2.576-0.112 2.912-0.976 2.912-0.8 0-0.944-0.448-0.944-2.88 0-1.696 0.048-2.24 0.256-2.528 0.288-0.416 0.96-0.464 1.376-0.080zM21.872 11.52c0.272 0.544 0.272 4.256 0 4.8-0.224 0.448-0.864 0.608-1.392 0.32-0.304-0.16-0.32-0.32-0.32-2.688 0-2.8 0.048-2.96 0.96-2.88 0.4 0.032 0.608 0.16 0.752 0.448zM24.864 11.392c0.208 0.288 0.256 0.832 0.256 2.528s-0.048 2.24-0.256 2.528c-0.288 0.416-0.96 0.464-1.376 0.080-0.256-0.224-0.288-0.528-0.288-2.576 0-1.936 0.048-2.368 0.272-2.624 0.368-0.4 1.088-0.368 1.392 0.064z" fill="#000000"></path>
</svg>
