<?xml version="1.0" encoding="utf-8"?>
<!DOCTYPE svg PUBLIC "-//W3C//DTD SVG 1.1//EN" "http://www.w3.org/Graphics/SVG/1.1/DTD/svg11.dtd">
<svg version="1.1" xmlns="http://www.w3.org/2000/svg" xmlns:xlink="http://www.w3.org/1999/xlink" width="32" height="32" viewBox="0 0 32 32">
<path d="M4.368 1.68c0.064 0.144 0.112 0.4 0.112 0.56 0 0.24 0.176 0.288 1.328 0.352 1.52 0.080 2.672 0.56 3.68 1.536 0.56 0.56 1.328 1.632 1.136 1.632-0.048 0-0.352-0.144-0.688-0.304-1.040-0.544-2.592-0.752-3.872-0.528-1.056 0.176-2.208 0.656-2.944 1.2-0.32 0.24-0.32 0.256 0.048 0.64l0.368 0.4 1.12-0.576c1.008-0.528 1.232-0.576 2.432-0.576 1.12 0 1.456 0.064 2.272 0.464l0.96 0.464-1.488 0.096c-1.248 0.096-1.648 0.192-2.544 0.656-1.312 0.672-1.536 0.976-1.072 1.44l0.336 0.336 0.656-0.432c1.136-0.752 3.104-1.104 4.32-0.784l0.352 0.096-0.032 4.496-0.048 4.48-2 1.376c-1.648 1.136-2 1.456-2 1.776v0.4l4.080 0.096v8.624h-3.68v1.12h14.56v-1.12h-3.52l0.032-4.288 0.048-4.272 10.56-0.16 0.048-0.352c0.048-0.304-0.736-0.88-5.472-4.048-3.040-2.016-5.648-3.68-5.776-3.68-0.144 0-1.376 0.784-2.768 1.728-1.376 0.944-2.608 1.776-2.704 1.856-0.16 0.096-0.208-0.704-0.208-3.744v-3.856l0.496 0.272c0.656 0.336 1.808 1.52 2.048 2.128 0.192 0.432 0.24 0.464 0.624 0.288 0.72-0.288 0.72-0.368 0.144-1.264-0.512-0.8-1.76-2.048-2.064-2.048-0.064 0-0.128-0.064-0.128-0.144 0-0.192 1.216 0.080 2.016 0.48 0.352 0.16 0.928 0.544 1.28 0.848 0.656 0.56 1.664 2.224 1.664 2.736 0 0.192 0.080 0.24 0.256 0.176 0.144-0.048 0.384-0.096 0.56-0.096 0.752 0-0.112-2.048-1.44-3.376-1.040-1.024-2.224-1.648-3.696-1.952l-1.040-0.208 0.64-0.224c0.352-0.128 1.184-0.224 1.84-0.224 0.976 0 1.376 0.080 2.16 0.432 0.528 0.256 1.184 0.672 1.456 0.928 0.496 0.48 0.512 0.48 0.928 0.224 0.56-0.368 0.528-0.608-0.208-1.184-1.776-1.408-4.112-1.92-6.256-1.36l-0.4 0.112 0.448-0.48c0.256-0.272 0.864-0.688 1.36-0.944 0.816-0.416 1.072-0.464 2.48-0.464h1.568l0.128-0.48c0.16-0.624-0.016-0.688-1.6-0.704-2.096-0.016-4.16 0.88-5.264 2.272l-0.336 0.432-0.608-0.784c-0.736-1.008-1.616-1.712-2.736-2.224-0.688-0.32-1.216-0.416-2.464-0.48-1.44-0.064-1.568-0.048-1.488 0.208zM17.12 25.28v4.32h-5.12v-4.208c0-2.32 0.048-4.272 0.112-4.32 0.048-0.064 1.2-0.112 2.56-0.112h2.448v4.32z" fill="#000000"></path>
</svg>
