<?xml version="1.0" encoding="utf-8"?>
<!DOCTYPE svg PUBLIC "-//W3C//DTD SVG 1.1//EN" "http://www.w3.org/Graphics/SVG/1.1/DTD/svg11.dtd">
<svg version="1.1" xmlns="http://www.w3.org/2000/svg" xmlns:xlink="http://www.w3.org/1999/xlink" width="32" height="32" viewBox="0 0 32 32">
<path d="M25.232 3.312c-0.16 0.272-0.64 2.608-0.56 2.688 0.048 0.048 0.288 0.112 0.544 0.128 0.432 0.032 0.448 0 0.768-1.28 0.176-0.736 0.288-1.344 0.24-1.376-0.16-0.144-0.928-0.256-0.992-0.16z" fill="#000000"></path>
<path d="M20.432 3.968c-0.24 0.144-0.432 0.304-0.432 0.352 0 0.176 1.376 2.304 1.52 2.352 0.096 0.016 0.32-0.080 0.512-0.24l0.368-0.272-0.688-1.152c-0.384-0.64-0.72-1.2-0.768-1.232-0.032-0.048-0.272 0.048-0.512 0.192z" fill="#000000"></path>
<path d="M28.368 6.816c-0.64 0.416-1.168 0.784-1.168 0.848 0 0.048 0.144 0.272 0.304 0.48l0.288 0.384 1.232-0.752 1.216-0.768-0.272-0.464c-0.16-0.256-0.32-0.464-0.368-0.464s-0.608 0.336-1.232 0.736z" fill="#000000"></path>
<path d="M22.592 7.376c-1.744 0.864-2.176 3.36-0.816 4.752 1.776 1.808 4.816 0.848 5.2-1.648 0.128-0.88-0.144-1.696-0.784-2.432-0.912-1.040-2.32-1.296-3.6-0.672z" fill="#000000"></path>
<path d="M17.392 7.792c-0.032 0.080-0.112 0.32-0.176 0.56-0.096 0.4-0.048 0.448 0.496 0.592 1.104 0.288 2.176 0.512 2.224 0.448 0.032-0.032 0.112-0.272 0.16-0.544l0.096-0.496-1.248-0.272c-0.704-0.16-1.312-0.304-1.376-0.336-0.064-0.048-0.144-0.016-0.176 0.048z" fill="#000000"></path>
<path d="M6.592 12.496c-3.744 2.56-5.632 3.936-5.632 4.128 0 0.64 0.192 0.656 5.632 0.656h5.248v10.72h-3.36v1.12h8.48v-1.12h-4v-10.72h5.328c4.176 0 5.392-0.048 5.616-0.208 0.4-0.288 0.224-0.768-0.4-1.136-0.272-0.16-0.448-0.384-0.4-0.496 0.24-0.64 0.272-1.36 0.080-1.424-0.672-0.24-0.832-0.176-0.976 0.336-0.080 0.288-0.176 0.528-0.224 0.528-0.112 0-2.464-1.6-2.464-1.664 0-0.032 0.256-0.208 0.576-0.4l0.56-0.336-0.272-0.48-0.288-0.464-0.864 0.48-0.848 0.496-2.912-1.936c-1.616-1.072-2.992-1.936-3.072-1.936-0.096 0-2.704 1.728-5.808 3.856z" fill="#000000"></path>
<path d="M27.904 11.072c-0.048 0.272-0.032 0.544 0.032 0.608 0.192 0.176 2.448 0.672 2.608 0.56 0.192-0.112 0.32-0.864 0.176-0.96-0.064-0.048-0.704-0.208-1.408-0.368l-1.296-0.304-0.112 0.464z" fill="#000000"></path>
<path d="M25.92 13.552c-0.224 0.144-0.416 0.272-0.448 0.304-0.032 0.016 0.288 0.576 0.688 1.248l0.736 1.216 0.48-0.24c0.256-0.144 0.464-0.288 0.464-0.336 0-0.096-1.44-2.464-1.504-2.464-0.016 0-0.208 0.128-0.416 0.272z" fill="#000000"></path>
</svg>
