<?xml version="1.0" encoding="utf-8"?>
<!DOCTYPE svg PUBLIC "-//W3C//DTD SVG 1.1//EN" "http://www.w3.org/Graphics/SVG/1.1/DTD/svg11.dtd">
<svg version="1.1" xmlns="http://www.w3.org/2000/svg" xmlns:xlink="http://www.w3.org/1999/xlink" width="49" height="32" viewBox="0 0 49 32">
<path d="M2.333 0.233c-0.267 0.1-0.833 0.5-1.267 0.867l-0.733 0.667v28.533l0.867 0.667c0.867 0.7 1.133 0.7 23.533 0.7h22.633l0.8-0.833 0.833-0.8v-28l-1.6-1.867-22.3-0.067c-12.233-0.033-22.5 0.033-22.767 0.133zM44.167 3.167c0.6 0.633 1.5 1.233 1.967 1.367 2.133 0.533 1.9 3.467-0.3 3.467-0.433 0-1.367 0.4-2.067 0.867-2.7 1.833-6.433 0.233-6.433-2.8 0-2.2 2.033-4.067 4.467-4.067 1.033 0 1.5 0.233 2.367 1.167zM11.267 3.167c0.067 0.067 0 1.467-0.1 3.133l-0.267 3.033h-3.8c-3.833 0-3.833 0-3.633-0.767 0.1-0.4 0.2-1.9 0.2-3.333v-2.6l3.767 0.233c2.033 0.133 3.767 0.267 3.833 0.3zM21.533 11.267c4.4 2.267 6.667 8.867 4.5 13.067-1 1.9-2.833 3.867-4.533 4.767-1.067 0.567-1.9 0.733-4.167 0.733-2.433 0-3.1-0.133-4.733-0.933-3.8-1.867-6.2-5.767-5.833-9.4 0.233-2.167 0.867-3.467 2.567-5.167 3.6-3.6 8.7-4.867 12.2-3.067zM39.667 16.6c0 3.1 0.1 7.467 0.233 9.667l0.2 4.067h-2l0.167-3.467c0.133-3.167 0.1-3.5-0.533-4.133-2.033-2.033-1.833-8.667 0.333-10.967 1.467-1.567 1.6-1.2 1.6 4.833zM32.133 13.533c0.1 0.867 0.2 2.133 0.2 2.833 0 1 0.133 1.3 0.533 1.3 0.5 0 0.533-0.367 0.4-2.833-0.167-2.667-0.167-2.833 0.467-2.833s0.667 0.2 0.533 3.7c-0.1 3.3-0.167 3.767-0.8 4.267-0.767 0.6-0.767 1.467 0 8.767l0.167 1.6h-2.3v-4.9c0-4.567-0.033-4.933-0.733-5.667-0.5-0.533-0.833-1.567-1.133-3.667-0.567-3.667-0.567-3.767 0-3.767 0.6 0 0.867 1.033 0.867 3.4 0 1.567 0.1 1.933 0.533 1.933 0.5 0 0.533-0.333 0.333-2.833-0.167-2.267-0.1-2.833 0.267-2.833 0.267 0 0.533 0.567 0.667 1.533z" fill="#000000"></path>
</svg>
