<?xml version="1.0" encoding="utf-8"?>
<!DOCTYPE svg PUBLIC "-//W3C//DTD SVG 1.1//EN" "http://www.w3.org/Graphics/SVG/1.1/DTD/svg11.dtd">
<svg version="1.1" xmlns="http://www.w3.org/2000/svg" xmlns:xlink="http://www.w3.org/1999/xlink" width="32" height="32" viewBox="0 0 32 32">
<path d="M13.84 2.867c-5.387 0.88-9.56 4.44-11.347 9.667-0.88 2.56-1.187 7-0.693 9.88 0.24 1.387 0.373 1.587 1.12 1.587 0.267 0 1.24 0.067 2.187 0.16l1.693 0.16 0.36 0.467c1.56 2.053 3.707 3.573 6.133 4.333 4.467 1.387 9.453 0.067 12.573-3.333 1.507-1.667 2.56-3.733 3.013-5.92 0.293-1.493 0.2-4.32-0.2-5.653l-0.267-0.92 0.987 0.080c0.547 0.053 1 0.040 1-0.027 0-0.253-0.8-2.293-1.267-3.213-1.88-3.747-5.080-6.253-9.067-7.147-1.333-0.293-4.773-0.36-6.227-0.12zM18.467 12.28c6.347 0.627 8.307 0.867 8.427 1.013 0.080 0.107 0.293 0.68 0.467 1.28 0.253 0.92 0.307 1.4 0.307 3.027-0.013 1.827-0.027 2-0.44 3.187-0.573 1.653-1.32 2.893-2.467 4.093-2.12 2.253-4.773 3.387-7.853 3.387-2.88 0-5.467-1.040-7.507-3.027-0.64-0.613-0.653-0.64-0.333-0.693 0.187-0.013 1.173 0.027 2.2 0.107s2.587 0.173 3.467 0.213c1.56 0.080 1.587 0.067 1.267-0.16-1.547-1.107-2.44-1.853-3.013-2.52-0.747-0.88-1.387-1.707-1.387-1.813 0-0.040 0.253-0.107 0.56-0.147 0.787-0.107 1.44-0.787 1.533-1.587 0.2-1.733-1.8-2.693-3.093-1.493-0.2 0.187-0.413 0.293-0.467 0.227-0.413-0.44-0.813-3.933-0.613-5.293 0.080-0.507 0.147-0.613 0.387-0.613 0.16 0 4.013 0.36 8.56 0.813z" fill="#000000"></path>
<path d="M21.413 16.667c-1.080 0.333-1.573 1.547-1.053 2.627 0.573 1.227 2.413 1.293 3.173 0.12 0.28-0.427 0.28-1.4 0.013-1.933-0.347-0.653-1.36-1.040-2.133-0.813z" fill="#000000"></path>
<path d="M20.84 24.867c-1.507 0.933-3.76 1.32-5.44 0.947-0.507-0.107-1.067-0.24-1.227-0.293-0.267-0.067-0.347 0-0.56 0.493-0.133 0.32-0.213 0.627-0.16 0.667 0.040 0.040 0.467 0.2 0.947 0.333 0.653 0.187 1.28 0.253 2.533 0.24 1.44 0 1.813-0.053 2.733-0.36 1.080-0.36 2.613-1.147 2.693-1.373 0.013-0.067-0.16-0.333-0.4-0.6l-0.427-0.48-0.693 0.427z" fill="#000000"></path>
</svg>
