<?xml version="1.0" encoding="utf-8"?>
<!DOCTYPE svg PUBLIC "-//W3C//DTD SVG 1.1//EN" "http://www.w3.org/Graphics/SVG/1.1/DTD/svg11.dtd">
<svg version="1.1" xmlns="http://www.w3.org/2000/svg" xmlns:xlink="http://www.w3.org/1999/xlink" width="32" height="32" viewBox="0 0 32 32">
<path d="M1.856 10.224c-1.040 0.688-1.056 0.736-1.056 5.856s0.016 5.168 1.056 5.856c0.448 0.288 1.008 0.304 14.16 0.304h13.696l0.544-0.368c1.056-0.704 1.104-0.96 1.104-5.792s-0.048-5.088-1.104-5.792l-0.544-0.368h-13.696c-13.152 0-13.712 0.016-14.16 0.304zM6.080 11.12c0 0.608-0.048 0.72-0.32 0.72s-0.32-0.112-0.32-0.608c0-0.656 0.096-0.832 0.432-0.832 0.144 0 0.208 0.224 0.208 0.72zM18.688 16.192l-0.048 4.208h-0.96l-0.048-4.208-0.032-4.192h1.12l-0.032 4.192zM19.968 16.192c-0.032 2.672-0.112 4.208-0.208 4.208s-0.176-1.536-0.208-4.208c-0.032-3.68 0-4.192 0.208-4.192s0.24 0.512 0.208 4.192zM21.12 16.256c0 3.328-0.048 4.24-0.192 4.192-0.16-0.064-0.224-1.088-0.256-4.256-0.032-3.664 0-4.192 0.208-4.192s0.24 0.56 0.24 4.256zM21.92 16.256c0 3.328-0.048 4.24-0.192 4.192-0.16-0.064-0.224-1.088-0.256-4.256-0.032-3.664 0-4.192 0.208-4.192s0.24 0.56 0.24 4.256zM22.848 16.192c-0.032 3.168-0.096 4.192-0.24 4.256-0.16 0.048-0.208-0.864-0.208-4.192 0-3.696 0.032-4.256 0.24-4.256s0.24 0.528 0.208 4.192zM23.52 16.24c0 2.72-0.064 4.24-0.16 4.24s-0.16-1.52-0.16-4.24c0-2.72 0.064-4.24 0.16-4.24s0.16 1.52 0.16 4.24zM24.928 16.192c-0.032 3.168-0.096 4.192-0.24 4.256-0.16 0.048-0.208-0.864-0.208-4.192 0-3.696 0.032-4.256 0.24-4.256s0.24 0.528 0.208 4.192zM26.048 16.192c-0.032 3.168-0.096 4.192-0.24 4.256-0.16 0.048-0.208-0.864-0.208-4.192 0-3.696 0.032-4.256 0.24-4.256s0.24 0.528 0.208 4.192zM27.328 16.192c-0.032 3.168-0.096 4.192-0.24 4.256-0.16 0.048-0.208-0.864-0.208-4.192 0-3.696 0.032-4.256 0.24-4.256s0.24 0.528 0.208 4.192zM28.128 16.192c-0.032 3.168-0.096 4.192-0.24 4.256-0.16 0.048-0.208-0.864-0.208-4.192 0-3.696 0.032-4.256 0.24-4.256s0.24 0.528 0.208 4.192zM29.888 16.192l-0.048 4.208h-0.96l-0.048-4.208-0.032-4.192h1.12l-0.032 4.192zM6.080 13.6c0 0.528-0.048 0.64-0.32 0.64s-0.32-0.112-0.32-0.64c0-0.528 0.048-0.64 0.32-0.64s0.32 0.112 0.32 0.64zM6.080 16.16c0 0.528-0.048 0.64-0.32 0.64s-0.32-0.112-0.32-0.64c0-0.528 0.048-0.64 0.32-0.64s0.32 0.112 0.32 0.64zM6.080 18.64c0 0.608-0.048 0.72-0.32 0.72s-0.32-0.112-0.32-0.608c0-0.656 0.096-0.832 0.432-0.832 0.144 0 0.208 0.224 0.208 0.72zM6.080 21.216c0 0.608-0.048 0.72-0.272 0.672-0.208-0.032-0.304-0.24-0.336-0.736-0.048-0.592-0.016-0.672 0.272-0.672s0.336 0.096 0.336 0.736z" fill="#000000"></path>
</svg>
