<?xml version="1.0" encoding="utf-8"?>
<!DOCTYPE svg PUBLIC "-//W3C//DTD SVG 1.1//EN" "http://www.w3.org/Graphics/SVG/1.1/DTD/svg11.dtd">
<svg version="1.1" xmlns="http://www.w3.org/2000/svg" xmlns:xlink="http://www.w3.org/1999/xlink" width="32" height="32" viewBox="0 0 32 32">
<path d="M22.624 1.12c-1.344 0.304-2.304 1.488-2.304 2.848 0 0.928 0.32 1.616 1.024 2.24 0.704 0.608 1.12 0.736 2.256 0.64 3.392-0.288 3.456-5.296 0.080-5.76-0.304-0.048-0.784-0.032-1.056 0.032z" fill="#000000"></path>
<path d="M19.28 7.424c-0.608 0.272-0.96 0.672-1.28 1.424-0.192 0.48-0.24 1.424-0.24 5.424 0 2.704 0.064 4.944 0.16 5.088 0.080 0.128 0.496 0.272 0.992 0.32l0.848 0.080v6.56l-1.36 0.096v-2.016c0-2.096-0.176-2.8-0.72-3.024-0.144-0.048-0.896-0.096-1.68-0.096h-1.392l-0.080-0.832c-0.064-0.64-0.176-0.912-0.512-1.2-0.4-0.336-0.592-0.368-2.112-0.368-2.304 0-2.768 0.272-2.784 1.632v0.768h-1.504c-2.224 0-2.24 0.016-2.336 2.832l-0.080 2.208-3.28 0.096v1.088l3.28 0.096 0.048 1.28c0.016 0.704 0.112 1.44 0.224 1.648 0.32 0.624 1.008 0.688 6.736 0.64l5.424-0.048 0.384-0.448c0.336-0.4 0.384-0.608 0.384-1.808v-1.36l1.36 0.096 0.048 1.712 0.048 1.728h2.864v-3.52h1.12v3.52h2.88v-3.52h3.2v-1.12h-3.2v-6.72h0.8c1.328 0 1.312 0.064 1.248-5.632-0.048-5.376-0.112-5.664-1.152-6.416-0.48-0.336-0.656-0.352-4.176-0.384-2.816-0.032-3.792 0-4.16 0.176zM13.28 20.64v0.64h-3.040v-0.528c0-0.304 0.048-0.592 0.112-0.64 0.048-0.064 0.736-0.112 1.52-0.112h1.408v0.64zM23.808 23.392l0.032 3.008h-1.12v-6.096l0.528 0.048 0.512 0.048 0.048 2.992z" fill="#000000"></path>
</svg>
