<?xml version="1.0" encoding="utf-8"?>
<!DOCTYPE svg PUBLIC "-//W3C//DTD SVG 1.1//EN" "http://www.w3.org/Graphics/SVG/1.1/DTD/svg11.dtd">
<svg version="1.1" xmlns="http://www.w3.org/2000/svg" xmlns:xlink="http://www.w3.org/1999/xlink" width="32" height="32" viewBox="0 0 32 32">
<path d="M28.96 8.32c-3.792 1.968-5.488 2.208-8.336 1.2-2.192-0.768-3.824-0.896-5.104-0.416-1.232 0.48-1.424 0.608-1.12 0.816 0.128 0.080 1.28 0.56 2.56 1.056 2.72 1.072 3.424 1.408 3.84 1.824 0.688 0.688 0.144 2.112-0.912 2.384-0.624 0.16-0.784 0.144-3.328-0.448-2.384-0.544-3.52-0.4-4.144 0.528-0.432 0.672-2.576 2.416-3.68 2.992-0.912 0.48-1.008 0.576-0.832 0.816 0.112 0.16 0.544 0.416 0.944 0.592 0.496 0.224 0.816 0.48 0.944 0.768 0.368 0.848 0.768 1.296 1.488 1.632 0.592 0.272 0.8 0.496 1.040 1.072 0.24 0.528 0.464 0.784 0.88 0.944 0.688 0.304 2.464 0.304 3.552 0.016 0.816-0.224 5.936-2.784 11.712-5.888l2.8-1.504 0.016-1.184c0.192-7.424 0.176-8.080-0.16-8.112-0.176-0.016-1.152 0.4-2.16 0.912z" fill="#000000"></path>
<path d="M2.048 12.080c-1.44 2.88-1.616 3.296-1.408 3.504 0.256 0.24 6.256 2.336 6.704 2.336 0.56 0 2.368-1.264 3.936-2.736 2.144-2.032 2.256-2.064 6.096-1.152 1.92 0.448 2.496 0.416 2.8-0.144 0.16-0.288 0.128-0.384-0.112-0.576-0.384-0.288-1.424-0.752-2.864-1.264-0.608-0.224-1.808-0.736-2.64-1.12-2.224-1.056-2.256-1.056-4.016-0.752-1.44 0.24-1.632 0.24-2.704 0-0.64-0.144-1.792-0.512-2.56-0.816s-1.44-0.56-1.504-0.56c-0.048 0-0.832 1.472-1.728 3.28z" fill="#000000"></path>
<path d="M23.68 21.696c-2.416 1.28-4.688 2.464-5.040 2.656-0.64 0.336-0.64 0.336-0.24 0.48 0.784 0.304 3.168 0.048 4.64-0.496 2.256-0.832 4.56-2.272 5.168-3.232 0.304-0.464 0.32-1.6 0.032-1.68-0.080-0.016-2.144 1.008-4.56 2.272z" fill="#000000"></path>
</svg>
