<?xml version="1.0" encoding="UTF-8" standalone="no"?>
<svg width="329px" height="395px" viewBox="0 0 329 395" version="1.1" xmlns="http://www.w3.org/2000/svg" xmlns:xlink="http://www.w3.org/1999/xlink" xmlns:sketch="http://www.bohemiancoding.com/sketch/ns">
    <!-- Generator: Sketch 3.3 (11970) - http://www.bohemiancoding.com/sketch -->
    <title>robinet</title>
    <desc>Created with Sketch.</desc>
    <defs></defs>
    <g id="Page-1" stroke="none" stroke-width="1" fill="none" fill-rule="evenodd" sketch:type="MSPage">
        <g id="Artboard-1" sketch:type="MSArtboardGroup" transform="translate(-639.000000, -957.000000)" fill="#000000">
            <g id="robinet" sketch:type="MSLayerGroup" transform="translate(639.000000, 956.000000)">
                <path d="M264.621154,391.881202 C244.167641,380.728983 236.07391,352.548738 244.844122,323.022625 C248.543875,310.566835 273.690497,258.027967 280.211033,249.130426 C283.41373,244.760227 283.544278,244.762165 286.817935,249.229206 C293.05188,257.735599 316.411713,305.475827 321.170991,319.436078 C330.525002,346.873915 324.414231,376.699715 306.887385,389.152138 C296.177923,396.760953 275.964499,398.066105 264.621154,391.881184 L264.621154,391.881202 Z M23.5809684,228.098213 C1.9365588,220.391841 0.62116164,215.818946 0.62116164,148.279842 C0.62116164,86.3580854 1.5936113,81.5648843 16.0784184,72.0909986 C37.5186051,58.0679012 66.587351,72.9656855 66.6123518,97.989732 L66.6212146,106.809341 L96.0855003,106.809341 L125.549786,106.809341 L125.549786,77.000675 L125.549786,47.1920109 L120.246215,52.0118712 C108.455465,62.7272437 98.3699565,64.6128545 84.2756923,58.7370061 C61.3669075,49.186411 61.3669075,13.910944 84.2756923,4.36034884 C96.0580274,-0.551666496 104.861826,0.17981654 114.778956,6.89478179 L123.523132,12.8155288 L129.568624,8.07072965 C138.3819,1.15364061 153.862219,1.67304455 162.810876,9.18609081 C169.035657,14.4122308 170.120489,14.6499096 172.837915,11.3829119 C185.492151,-3.83058357 212.059433,-1.294239 223.564572,16.2257211 C228.676611,24.0103229 228.676611,39.087032 223.564572,46.8716338 C218.319458,54.8588617 206.148247,62.1035473 197.956214,62.1145316 C188.457098,62.1271377 175.858754,56.2666087 172.691395,50.3615197 C171.185578,47.554137 169.441972,45.7676332 168.816706,46.3915084 C168.191422,47.0153816 167.481828,60.8647869 167.239816,77.1679606 L166.799784,106.810097 L204.514068,106.827595 C260.873769,106.853579 282.81066,111.63843 299.190521,127.478311 C316.265155,143.990056 324.977475,168.385375 327.503691,206.757882 L328.975095,229.108004 L285.012439,229.108004 L241.049782,229.108004 L241.040354,219.112447 C241.029039,204.950083 234.121668,194.682836 222.509289,191.562924 C216.602345,189.975883 186.531557,189.285329 140.49109,189.67945 L67.7997861,190.30163 L66.5222448,201.388768 C65.0774256,213.927646 58.0616011,223.137726 46.0719242,228.235074 C36.8836531,232.141423 34.9030968,232.129362 23.5810212,228.0981 L23.5809684,228.098213 Z" id="path3400" sketch:type="MSShapeGroup"></path>
            </g>
        </g>
    </g>
</svg>